<svg xmlns="http://www.w3.org/2000/svg" xmlns:xlink="http://www.w3.org/1999/xlink" width="201.078" height="181.67" viewBox="0 0 201.078 181.67">
  <defs>
    <clipPath id="clip-path">
      <rect id="Rectángulo_356011" data-name="Rectángulo 356011" width="115.843" height="181.67" fill="none"/>
    </clipPath>
    <clipPath id="clip-path-2">
      <path id="Trazado_775666" data-name="Trazado 775666" d="M74.86,69.475,44.6,70.41a2.407,2.407,0,0,0-2.3,2.785c.831,5.3,4.139,16.593,17.186,17.394,14.592.892,17.341-12.593,17.848-18.5a2.408,2.408,0,0,0-2.392-2.619H74.86" transform="translate(-42.265 -69.474)" fill="none"/>
    </clipPath>
  </defs>
  <g id="Grupo_1044877" data-name="Grupo 1044877" transform="translate(-446.389 -4441.367)">
    <g id="Grupo_1044249" data-name="Grupo 1044249" transform="translate(446.389 4441.367)">
      <path id="Trazado_775670" data-name="Trazado 775670" d="M63.73,0c35.2,0,63.73,26.992,63.73,60.289s-28.533,60.289-63.73,60.289S0,93.586,0,60.289,28.533,0,63.73,0Z" transform="translate(0 10.374)" fill="#f0fefd"/>
      <ellipse id="Elipse_4974" data-name="Elipse 4974" cx="60.849" cy="60.517" rx="60.849" ry="60.517" transform="translate(73.091 50.911)" fill="#fff3d8"/>
      <g id="Grupo_1044247" data-name="Grupo 1044247" transform="translate(9.124 28.66)">
        <g id="Grupo_89382" data-name="Grupo 89382" transform="translate(0.002)">
          <path id="Unión_21" data-name="Unión 21" d="M73.931,1.964a2.055,2.055,0,0,1,4.106,0,2.055,2.055,0,0,1-4.106,0Zm-18.482,0a2.055,2.055,0,0,1,4.106,0,2.055,2.055,0,0,1-4.106,0Zm-18.485,0a2.055,2.055,0,0,1,4.106,0,2.055,2.055,0,0,1-4.106,0Zm-18.482,0a2.057,2.057,0,0,1,4.11,0,2.057,2.057,0,0,1-4.11,0ZM0,1.964A2.009,2.009,0,0,1,2.054,0,2.012,2.012,0,0,1,4.109,1.964,2.013,2.013,0,0,1,2.054,3.93,2.01,2.01,0,0,1,0,1.964Z" transform="translate(0.958 0.958)" fill="#7fdad2"/>
          <path id="Unión_21_-_Contorno" data-name="Unión 21 - Contorno" d="M2.013-1A2.972,2.972,0,0,1,5.026,1.923,2.972,2.972,0,0,1,2.013,4.846,2.972,2.972,0,0,1-1,1.923,2.971,2.971,0,0,1,2.013-1Zm0,3.93a1.056,1.056,0,0,0,1.1-1.007A1.056,1.056,0,0,0,2.013.917a1.055,1.055,0,0,0-1.1,1.006A1.056,1.056,0,0,0,2.013,2.931ZM20.5-1a2.972,2.972,0,0,1,3.013,2.922,3.014,3.014,0,0,1-6.026,0A2.972,2.972,0,0,1,20.5-1Zm0,3.93a1.056,1.056,0,0,0,1.1-1.007,1.1,1.1,0,0,0-2.194,0A1.056,1.056,0,0,0,20.5,2.931ZM38.977-1a2.97,2.97,0,0,1,3.009,2.922,3.012,3.012,0,0,1-6.022,0A2.972,2.972,0,0,1,38.977-1Zm0,3.93a1.054,1.054,0,0,0,1.093-1.007,1.1,1.1,0,0,0-2.191,0A1.056,1.056,0,0,0,38.977,2.931ZM57.458-1a2.972,2.972,0,0,1,3.013,2.922,3.012,3.012,0,0,1-6.022,0A2.97,2.97,0,0,1,57.458-1Zm0,3.93a1.056,1.056,0,0,0,1.1-1.007,1.1,1.1,0,0,0-2.191,0A1.054,1.054,0,0,0,57.458,2.931ZM75.944-1a2.97,2.97,0,0,1,3.009,2.922,3.012,3.012,0,0,1-6.022,0A2.972,2.972,0,0,1,75.944-1Zm0,3.93a1.054,1.054,0,0,0,1.093-1.007,1.1,1.1,0,0,0-2.191,0A1.056,1.056,0,0,0,75.944,2.931Z" transform="translate(0.999 0.999)" fill="#7fdad2"/>
        </g>
        <g id="Grupo_89383" data-name="Grupo 89383" transform="translate(0 15.387)">
          <ellipse id="Elipse_4804" data-name="Elipse 4804" cx="2.054" cy="1.964" rx="2.054" ry="1.964" transform="translate(0.958 0.958)" fill="#7fdad2"/>
          <path id="Elipse_4804_-_Contorno" data-name="Elipse 4804 - Contorno" d="M2.011-1A2.971,2.971,0,0,1,5.023,1.922,2.971,2.971,0,0,1,2.011,4.844,2.971,2.971,0,0,1-1,1.922,2.971,2.971,0,0,1,2.011-1Zm0,3.928a1.055,1.055,0,0,0,1.1-1.006A1.055,1.055,0,0,0,2.011.916a1.055,1.055,0,0,0-1.1,1.006A1.055,1.055,0,0,0,2.011,2.928Z" transform="translate(1 1)" fill="#7fdad2"/>
          <path id="Trazado_122445" data-name="Trazado 122445" d="M426.767,112.25a2.056,2.056,0,1,1-2.053-1.963A2.011,2.011,0,0,1,426.767,112.25Z" transform="translate(-403.22 -109.328)" fill="#7fdad2"/>
          <path id="Trazado_122445_-_Contorno" data-name="Trazado 122445 - Contorno" d="M424.673,109.287a2.923,2.923,0,1,1-3.013,2.921A2.97,2.97,0,0,1,424.673,109.287Zm0,3.928a1.01,1.01,0,1,0-1.1-1.007A1.055,1.055,0,0,0,424.673,113.215Z" transform="translate(-403.178 -109.286)" fill="#7fdad2"/>
          <ellipse id="Elipse_4805" data-name="Elipse 4805" cx="2.054" cy="1.964" rx="2.054" ry="1.964" transform="translate(37.922 0.958)" fill="#7fdad2"/>
          <path id="Elipse_4805_-_Contorno" data-name="Elipse 4805 - Contorno" d="M2.011-1A2.971,2.971,0,0,1,5.023,1.922,2.971,2.971,0,0,1,2.011,4.844,2.971,2.971,0,0,1-1,1.922,2.971,2.971,0,0,1,2.011-1Zm0,3.928a1.055,1.055,0,0,0,1.1-1.006A1.055,1.055,0,0,0,2.011.916a1.055,1.055,0,0,0-1.1,1.006A1.055,1.055,0,0,0,2.011,2.928Z" transform="translate(37.964 1)" fill="#7fdad2"/>
          <path id="Trazado_122446" data-name="Trazado 122446" d="M443.66,112.25a2.056,2.056,0,1,1-2.055-1.963A2.012,2.012,0,0,1,443.66,112.25Z" transform="translate(-383.147 -109.328)" fill="#7fdad2"/>
          <path id="Trazado_122446_-_Contorno" data-name="Trazado 122446 - Contorno" d="M441.563,109.287a2.923,2.923,0,1,1-3.01,2.921A2.971,2.971,0,0,1,441.563,109.287Zm0,3.928a1.01,1.01,0,1,0-1.095-1.007A1.056,1.056,0,0,0,441.563,113.215Z" transform="translate(-383.105 -109.286)" fill="#7fdad2"/>
          <path id="Trazado_122447" data-name="Trazado 122447" d="M452.106,112.25a2.056,2.056,0,1,1-2.053-1.963A2.011,2.011,0,0,1,452.106,112.25Z" transform="translate(-373.111 -109.328)" fill="#7fdad2"/>
          <path id="Trazado_122447_-_Contorno" data-name="Trazado 122447 - Contorno" d="M450.012,109.287A2.923,2.923,0,1,1,447,112.208,2.97,2.97,0,0,1,450.012,109.287Zm0,3.928a1.01,1.01,0,1,0-1.1-1.007A1.055,1.055,0,0,0,450.012,113.215Z" transform="translate(-373.069 -109.286)" fill="#7fdad2"/>
        </g>
        <g id="Grupo_89384" data-name="Grupo 89384" transform="translate(0 31.959)">
          <path id="Trazado_122448" data-name="Trazado 122448" d="M418.321,119.759a2.056,2.056,0,1,1-2.055-1.965A2.012,2.012,0,0,1,418.321,119.759Z" transform="translate(-413.256 -116.836)" fill="#7fdad2"/>
          <path id="Trazado_122448_-_Contorno" data-name="Trazado 122448 - Contorno" d="M416.224,122.64a2.924,2.924,0,1,1,3.013-2.923A2.971,2.971,0,0,1,416.224,122.64Zm0-3.93a1.011,1.011,0,1,0,1.1,1.007A1.055,1.055,0,0,0,416.224,118.71Z" transform="translate(-413.214 -116.794)" fill="#7fdad2"/>
          <path id="Trazado_122449" data-name="Trazado 122449" d="M426.767,119.759a2.056,2.056,0,1,1-2.053-1.965A2.011,2.011,0,0,1,426.767,119.759Z" transform="translate(-403.22 -116.836)" fill="#7fdad2"/>
          <path id="Trazado_122449_-_Contorno" data-name="Trazado 122449 - Contorno" d="M424.673,122.64a2.924,2.924,0,1,1,3.01-2.923A2.972,2.972,0,0,1,424.673,122.64Zm0-3.93a1.011,1.011,0,1,0,1.095,1.007A1.056,1.056,0,0,0,424.673,118.71Z" transform="translate(-403.178 -116.794)" fill="#7fdad2"/>
          <path id="Trazado_122450" data-name="Trazado 122450" d="M435.213,119.759a2.056,2.056,0,1,1-2.053-1.965A2.011,2.011,0,0,1,435.213,119.759Z" transform="translate(-393.184 -116.836)" fill="#7fdad2"/>
          <path id="Trazado_122450_-_Contorno" data-name="Trazado 122450 - Contorno" d="M433.119,122.64a2.924,2.924,0,1,1,3.01-2.923A2.972,2.972,0,0,1,433.119,122.64Zm0-3.93a1.011,1.011,0,1,0,1.095,1.007A1.056,1.056,0,0,0,433.119,118.71Z" transform="translate(-393.142 -116.794)" fill="#7fdad2"/>
          <path id="Trazado_122451" data-name="Trazado 122451" d="M443.66,119.759a2.056,2.056,0,1,1-2.055-1.965A2.012,2.012,0,0,1,443.66,119.759Z" transform="translate(-383.147 -116.836)" fill="#7fdad2"/>
          <path id="Trazado_122451_-_Contorno" data-name="Trazado 122451 - Contorno" d="M441.563,122.64a2.924,2.924,0,1,1,3.013-2.923A2.971,2.971,0,0,1,441.563,122.64Zm0-3.93a1.011,1.011,0,1,0,1.1,1.007A1.055,1.055,0,0,0,441.563,118.71Z" transform="translate(-383.105 -116.794)" fill="#7fdad2"/>
          <path id="Trazado_122452" data-name="Trazado 122452" d="M452.106,119.759a2.056,2.056,0,1,1-2.053-1.965A2.011,2.011,0,0,1,452.106,119.759Z" transform="translate(-373.111 -116.836)" fill="#7fdad2"/>
          <path id="Trazado_122452_-_Contorno" data-name="Trazado 122452 - Contorno" d="M450.012,122.64a2.924,2.924,0,1,1,3.01-2.923A2.972,2.972,0,0,1,450.012,122.64Zm0-3.93a1.011,1.011,0,1,0,1.095,1.007A1.056,1.056,0,0,0,450.012,118.71Z" transform="translate(-373.069 -116.794)" fill="#7fdad2"/>
        </g>
      </g>
      <g id="Grupo_1063959" data-name="Grupo 1063959" transform="translate(121.124 100.66)">
        <g id="Grupo_89382-2" data-name="Grupo 89382" transform="translate(0.002)">
          <path id="Unión_21-2" data-name="Unión 21" d="M73.931,1.964a2.055,2.055,0,0,1,4.106,0,2.055,2.055,0,0,1-4.106,0Zm-18.482,0a2.055,2.055,0,0,1,4.106,0,2.055,2.055,0,0,1-4.106,0Zm-18.485,0a2.055,2.055,0,0,1,4.106,0,2.055,2.055,0,0,1-4.106,0Zm-18.482,0a2.057,2.057,0,0,1,4.11,0,2.057,2.057,0,0,1-4.11,0ZM0,1.964A2.009,2.009,0,0,1,2.054,0,2.012,2.012,0,0,1,4.109,1.964,2.013,2.013,0,0,1,2.054,3.93,2.01,2.01,0,0,1,0,1.964Z" transform="translate(0.958 0.958)" fill="#7fdad2"/>
          <path id="Unión_21_-_Contorno-2" data-name="Unión 21 - Contorno" d="M2.013-1A2.972,2.972,0,0,1,5.026,1.923,2.972,2.972,0,0,1,2.013,4.846,2.972,2.972,0,0,1-1,1.923,2.971,2.971,0,0,1,2.013-1Zm0,3.93a1.056,1.056,0,0,0,1.1-1.007A1.056,1.056,0,0,0,2.013.917a1.055,1.055,0,0,0-1.1,1.006A1.056,1.056,0,0,0,2.013,2.931ZM20.5-1a2.972,2.972,0,0,1,3.013,2.922,3.014,3.014,0,0,1-6.026,0A2.972,2.972,0,0,1,20.5-1Zm0,3.93a1.056,1.056,0,0,0,1.1-1.007,1.1,1.1,0,0,0-2.194,0A1.056,1.056,0,0,0,20.5,2.931ZM38.977-1a2.97,2.97,0,0,1,3.009,2.922,3.012,3.012,0,0,1-6.022,0A2.972,2.972,0,0,1,38.977-1Zm0,3.93a1.054,1.054,0,0,0,1.093-1.007,1.1,1.1,0,0,0-2.191,0A1.056,1.056,0,0,0,38.977,2.931ZM57.458-1a2.972,2.972,0,0,1,3.013,2.922,3.012,3.012,0,0,1-6.022,0A2.97,2.97,0,0,1,57.458-1Zm0,3.93a1.056,1.056,0,0,0,1.1-1.007,1.1,1.1,0,0,0-2.191,0A1.054,1.054,0,0,0,57.458,2.931ZM75.944-1a2.97,2.97,0,0,1,3.009,2.922,3.012,3.012,0,0,1-6.022,0A2.972,2.972,0,0,1,75.944-1Zm0,3.93a1.054,1.054,0,0,0,1.093-1.007,1.1,1.1,0,0,0-2.191,0A1.056,1.056,0,0,0,75.944,2.931Z" transform="translate(0.999 0.999)" fill="#7fdad2"/>
        </g>
        <g id="Grupo_89383-2" data-name="Grupo 89383" transform="translate(0 15.387)">
          <ellipse id="Elipse_4804-2" data-name="Elipse 4804" cx="2.054" cy="1.964" rx="2.054" ry="1.964" transform="translate(0.958 0.958)" fill="#7fdad2"/>
          <path id="Elipse_4804_-_Contorno-2" data-name="Elipse 4804 - Contorno" d="M2.011-1A2.971,2.971,0,0,1,5.023,1.922,2.971,2.971,0,0,1,2.011,4.844,2.971,2.971,0,0,1-1,1.922,2.971,2.971,0,0,1,2.011-1Zm0,3.928a1.055,1.055,0,0,0,1.1-1.006A1.055,1.055,0,0,0,2.011.916a1.055,1.055,0,0,0-1.1,1.006A1.055,1.055,0,0,0,2.011,2.928Z" transform="translate(1 1)" fill="#7fdad2"/>
          <path id="Trazado_122445-2" data-name="Trazado 122445" d="M426.767,112.25a2.056,2.056,0,1,1-2.053-1.963A2.011,2.011,0,0,1,426.767,112.25Z" transform="translate(-403.22 -109.328)" fill="#7fdad2"/>
          <path id="Trazado_122445_-_Contorno-2" data-name="Trazado 122445 - Contorno" d="M424.673,109.287a2.923,2.923,0,1,1-3.013,2.921A2.97,2.97,0,0,1,424.673,109.287Zm0,3.928a1.01,1.01,0,1,0-1.1-1.007A1.055,1.055,0,0,0,424.673,113.215Z" transform="translate(-403.178 -109.286)" fill="#7fdad2"/>
          <ellipse id="Elipse_4805-2" data-name="Elipse 4805" cx="2.054" cy="1.964" rx="2.054" ry="1.964" transform="translate(37.922 0.958)" fill="#7fdad2"/>
          <path id="Elipse_4805_-_Contorno-2" data-name="Elipse 4805 - Contorno" d="M2.011-1A2.971,2.971,0,0,1,5.023,1.922,2.971,2.971,0,0,1,2.011,4.844,2.971,2.971,0,0,1-1,1.922,2.971,2.971,0,0,1,2.011-1Zm0,3.928a1.055,1.055,0,0,0,1.1-1.006A1.055,1.055,0,0,0,2.011.916a1.055,1.055,0,0,0-1.1,1.006A1.055,1.055,0,0,0,2.011,2.928Z" transform="translate(37.964 1)" fill="#7fdad2"/>
          <path id="Trazado_122446-2" data-name="Trazado 122446" d="M443.66,112.25a2.056,2.056,0,1,1-2.055-1.963A2.012,2.012,0,0,1,443.66,112.25Z" transform="translate(-383.147 -109.328)" fill="#7fdad2"/>
          <path id="Trazado_122446_-_Contorno-2" data-name="Trazado 122446 - Contorno" d="M441.563,109.287a2.923,2.923,0,1,1-3.01,2.921A2.971,2.971,0,0,1,441.563,109.287Zm0,3.928a1.01,1.01,0,1,0-1.095-1.007A1.056,1.056,0,0,0,441.563,113.215Z" transform="translate(-383.105 -109.286)" fill="#7fdad2"/>
          <path id="Trazado_122447-2" data-name="Trazado 122447" d="M452.106,112.25a2.056,2.056,0,1,1-2.053-1.963A2.011,2.011,0,0,1,452.106,112.25Z" transform="translate(-373.111 -109.328)" fill="#7fdad2"/>
          <path id="Trazado_122447_-_Contorno-2" data-name="Trazado 122447 - Contorno" d="M450.012,109.287A2.923,2.923,0,1,1,447,112.208,2.97,2.97,0,0,1,450.012,109.287Zm0,3.928a1.01,1.01,0,1,0-1.1-1.007A1.055,1.055,0,0,0,450.012,113.215Z" transform="translate(-373.069 -109.286)" fill="#7fdad2"/>
        </g>
        <g id="Grupo_89384-2" data-name="Grupo 89384" transform="translate(0 31.959)">
          <path id="Trazado_122448-2" data-name="Trazado 122448" d="M418.321,119.759a2.056,2.056,0,1,1-2.055-1.965A2.012,2.012,0,0,1,418.321,119.759Z" transform="translate(-413.256 -116.836)" fill="#7fdad2"/>
          <path id="Trazado_122448_-_Contorno-2" data-name="Trazado 122448 - Contorno" d="M416.224,122.64a2.924,2.924,0,1,1,3.013-2.923A2.971,2.971,0,0,1,416.224,122.64Zm0-3.93a1.011,1.011,0,1,0,1.1,1.007A1.055,1.055,0,0,0,416.224,118.71Z" transform="translate(-413.214 -116.794)" fill="#7fdad2"/>
          <path id="Trazado_122449-2" data-name="Trazado 122449" d="M426.767,119.759a2.056,2.056,0,1,1-2.053-1.965A2.011,2.011,0,0,1,426.767,119.759Z" transform="translate(-403.22 -116.836)" fill="#7fdad2"/>
          <path id="Trazado_122449_-_Contorno-2" data-name="Trazado 122449 - Contorno" d="M424.673,122.64a2.924,2.924,0,1,1,3.01-2.923A2.972,2.972,0,0,1,424.673,122.64Zm0-3.93a1.011,1.011,0,1,0,1.095,1.007A1.056,1.056,0,0,0,424.673,118.71Z" transform="translate(-403.178 -116.794)" fill="#7fdad2"/>
          <path id="Trazado_122450-2" data-name="Trazado 122450" d="M435.213,119.759a2.056,2.056,0,1,1-2.053-1.965A2.011,2.011,0,0,1,435.213,119.759Z" transform="translate(-393.184 -116.836)" fill="#7fdad2"/>
          <path id="Trazado_122450_-_Contorno-2" data-name="Trazado 122450 - Contorno" d="M433.119,122.64a2.924,2.924,0,1,1,3.01-2.923A2.972,2.972,0,0,1,433.119,122.64Zm0-3.93a1.011,1.011,0,1,0,1.095,1.007A1.056,1.056,0,0,0,433.119,118.71Z" transform="translate(-393.142 -116.794)" fill="#7fdad2"/>
          <path id="Trazado_122451-2" data-name="Trazado 122451" d="M443.66,119.759a2.056,2.056,0,1,1-2.055-1.965A2.012,2.012,0,0,1,443.66,119.759Z" transform="translate(-383.147 -116.836)" fill="#7fdad2"/>
          <path id="Trazado_122451_-_Contorno-2" data-name="Trazado 122451 - Contorno" d="M441.563,122.64a2.924,2.924,0,1,1,3.013-2.923A2.971,2.971,0,0,1,441.563,122.64Zm0-3.93a1.011,1.011,0,1,0,1.1,1.007A1.055,1.055,0,0,0,441.563,118.71Z" transform="translate(-383.105 -116.794)" fill="#7fdad2"/>
          <path id="Trazado_122452-2" data-name="Trazado 122452" d="M452.106,119.759a2.056,2.056,0,1,1-2.053-1.965A2.011,2.011,0,0,1,452.106,119.759Z" transform="translate(-373.111 -116.836)" fill="#7fdad2"/>
          <path id="Trazado_122452_-_Contorno-2" data-name="Trazado 122452 - Contorno" d="M450.012,122.64a2.924,2.924,0,1,1,3.01-2.923A2.972,2.972,0,0,1,450.012,122.64Zm0-3.93a1.011,1.011,0,1,0,1.095,1.007A1.056,1.056,0,0,0,450.012,118.71Z" transform="translate(-373.069 -116.794)" fill="#7fdad2"/>
        </g>
      </g>
      <g id="Grupo_1044246" data-name="Grupo 1044246" transform="translate(49.101)">
        <g id="Grupo_1044241" data-name="Grupo 1044241">
          <g id="Grupo_1044240" data-name="Grupo 1044240" clip-path="url(#clip-path)">
            <path id="Trazado_775640" data-name="Trazado 775640" d="M114.685,57.389a8.373,8.373,0,1,0,1.17,11.783,8.378,8.378,0,0,0-1.17-11.783" transform="translate(-4.26 -2.34)" fill="#f0d0b0" fill-rule="evenodd"/>
            <path id="Trazado_775641" data-name="Trazado 775641" d="M110.128,59.521a6.159,6.159,0,1,0,.859,8.668,6.163,6.163,0,0,0-.859-8.668" transform="translate(-4.22 -2.451)" fill="#e2b586" fill-rule="evenodd"/>
            <path id="Trazado_775642" data-name="Trazado 775642" d="M5.551,57.389a8.372,8.372,0,1,1-1.17,11.783,8.375,8.375,0,0,1,1.17-11.783" transform="translate(-0.105 -2.34)" fill="#f0d0b0" fill-rule="evenodd"/>
            <path id="Trazado_775643" data-name="Trazado 775643" d="M10.3,59.521a6.159,6.159,0,1,1-.861,8.668,6.161,6.161,0,0,1,.861-8.668" transform="translate(-0.339 -2.451)" fill="#e2b586" fill-rule="evenodd"/>
            <path id="Trazado_775644" data-name="Trazado 775644" d="M58.691,88.318,32,91.4s-13.408,11.924-12.1,34.645c0,0-2.432,2.136-.653,7.891,1.721,5.755,19.859,28.743,39.969,28.5,20.171.238,37.212-22.75,38.99-28.5s-.651-7.891-.651-7.891C98.853,103.327,85.387,91.4,85.387,91.4Z" transform="translate(-0.784 -3.724)" fill="#f0d0b0" fill-rule="evenodd"/>
            <path id="Trazado_775645" data-name="Trazado 775645" d="M58.892,130.339s-13.586-.178-18.629-20.467c0,0,2.256,16.433,2.731,24.442.414,8.068-7.714,11.094-11.391,5.221s-8.247-28.6-8.247-28.6,1.9,16.967.416,24.5,8.246,11.449,8.246,11.449H85.826s9.728-3.916,8.247-11.449c-1.544-7.534.413-24.5.413-24.5s-4.566,22.721-8.246,28.6-11.8,2.847-11.39-5.221c.475-8.008,2.73-24.442,2.73-24.442-5.1,20.289-18.687,20.467-18.687,20.467" transform="translate(-0.985 -4.633)" fill="#e2b586" fill-rule="evenodd"/>
            <path id="Trazado_775646" data-name="Trazado 775646" d="M97.009,135.328l3.143.593s13.408,7.12,17.619,21c4.153,13.883-8.72,19.34-15.78,20.172-7.058.888-16.67,3.2-16.67,3.2s2.018,4.865-2.728,6.764c-4.746,1.838-22.839-4.213-16.315-19.755a6.516,6.516,0,0,1,4.451-2.374s8.483-7.119,17.679-11.094Z" transform="translate(-2.736 -5.707)" fill="#f0d0b0" fill-rule="evenodd"/>
            <path id="Trazado_775647" data-name="Trazado 775647" d="M100.192,134.77,101.2,135.9l.3.177s-3.5,9.433,5.458,12.815a67.937,67.937,0,0,0-16.966,4.331l-.238-.12,4.866-13.111c1.957-1.839,3.914-3.678,5.575-5.22" transform="translate(-3.785 -5.683)" fill="#e2b586" fill-rule="evenodd"/>
            <path id="Trazado_775648" data-name="Trazado 775648" d="M118.838,159.483c2.848,12.753-9.374,17.8-16.138,18.628-7.058.889-16.67,3.2-16.67,3.2,2.374-4.33-4.328-12.754-4.328-12.754,3.618,2.136,6.94,5.1,21.475,3.441,14.356-1.6,15.661-12.221,15.661-12.517" transform="translate(-3.445 -6.726)" fill="#e2b586" fill-rule="evenodd"/>
            <path id="Trazado_775649" data-name="Trazado 775649" d="M22.788,136.54l-4.33-.594s-13.409,7.12-17.62,21,8.72,19.34,15.781,20.172c7.058.888,16.67,3.2,16.67,3.2s-2.019,4.866,2.728,6.764c4.746,1.838,22.839-4.213,16.315-19.755a6.515,6.515,0,0,0-4.449-2.373s-7.03-8.439-16.227-12.413Z" transform="translate(-0.001 -5.733)" fill="#f0d0b0" fill-rule="evenodd"/>
            <path id="Trazado_775650" data-name="Trazado 775650" d="M20.024,134.77,19.016,135.9l-.3.177s3.441,9.433-5.458,12.815c0,0,.3.059.771.119,2.374.3,10.938.522,17.7,3.31l.238-.119L25.6,139.99c-1.959-1.839-3.916-3.678-5.576-5.22" transform="translate(-0.559 -5.683)" fill="#e2b586" fill-rule="evenodd"/>
            <path id="Trazado_775651" data-name="Trazado 775651" d="M.423,159.483c-2.849,12.753,9.372,17.8,16.195,18.628,7.058.889,16.671,3.2,16.671,3.2-2.374-4.33,4.33-12.754,4.33-12.754-3.68,2.136-6.942,5.1-21.536,3.441C1.727,170.4.483,159.779.423,159.483" transform="translate(0 -6.726)" fill="#e2b586" fill-rule="evenodd"/>
            <path id="Trazado_775652" data-name="Trazado 775652" d="M19.894,127.709s-2.432,2.136-.653,7.891c1.721,5.755,19.859,28.743,39.969,28.5,20.17.238,34.56-14.253,38.99-28.5,1.788-5.753-.651-7.891-.651-7.891s-7.12,20.942-38.857,19.162c-31.679,1.78-38.8-19.162-38.8-19.162" transform="translate(-0.784 -5.386)" fill="#fff" fill-rule="evenodd"/>
            <path id="Trazado_775653" data-name="Trazado 775653" d="M51.12,166.349,48.272,147.61,40.205,109.7l-11.569-3.856-5.279,4.924,3.2,18.211,7.713,25.036" transform="translate(-0.985 -4.464)" fill="#f0d0b0" fill-rule="evenodd"/>
            <path id="Trazado_775654" data-name="Trazado 775654" d="M68.584,166.349l2.894-18.739L79.487,109.7l11.567-3.856,5.339,4.924-3.2,18.211L86.936,156.1" transform="translate(-2.892 -4.464)" fill="#f0d0b0" fill-rule="evenodd"/>
            <path id="Trazado_775655" data-name="Trazado 775655" d="M102.044,48.315c5.1,37.493-11.152,54.282-43.542,55.646C26.112,102.6,9.915,85.808,15.018,48.315c6.109-44.789,80.917-44.789,87.025,0" transform="translate(-0.594 -0.621)" fill="#f0d0b0" fill-rule="evenodd"/>
            <path id="Trazado_775656" data-name="Trazado 775656" d="M95.572,77.686C89.58,92.992,75.4,100.408,54.342,101.3c-9.847-.416-18.212-2.255-24.915-5.7,7.356,5.339,17.382,8.069,29.721,8.6,21-.891,35.179-8.246,41.169-23.433,2.255-5.636,3.323-12.28,3.262-20.051a89.438,89.438,0,0,0-.89-12.163C100.853,35.27,92.962,25.9,82.639,20.5A35.857,35.857,0,0,1,97.886,45.651a91.053,91.053,0,0,1,.83,16.137,50.469,50.469,0,0,1-3.145,15.9" transform="translate(-1.241 -0.864)" fill="#e2b586" fill-rule="evenodd"/>
            <path id="Trazado_775657" data-name="Trazado 775657" d="M46.883,55.032a7.945,7.945,0,1,1-8.187-7.7,7.946,7.946,0,0,1,8.187,7.7" transform="translate(-1.307 -1.996)" fill="#fff"/>
            <path id="Trazado_775658" data-name="Trazado 775658" d="M45.731,55.691a5.9,5.9,0,1,1-6.08-5.714,5.9,5.9,0,0,1,6.08,5.714" transform="translate(-1.431 -2.107)" fill="#382417"/>
            <path id="Trazado_775659" data-name="Trazado 775659" d="M42.992,54.462a1.625,1.625,0,1,1-1.672-1.574,1.625,1.625,0,0,1,1.672,1.574" transform="translate(-1.676 -2.23)" fill="#fff"/>
            <path id="Trazado_775660" data-name="Trazado 775660" d="M87.7,53.77a7.944,7.944,0,1,1-8.187-7.694A7.943,7.943,0,0,1,87.7,53.77" transform="translate(-3.029 -1.943)" fill="#fff"/>
            <path id="Trazado_775661" data-name="Trazado 775661" d="M86.552,54.43a5.9,5.9,0,1,1-6.081-5.714,5.9,5.9,0,0,1,6.081,5.714" transform="translate(-3.152 -2.054)" fill="#382417"/>
            <path id="Trazado_775662" data-name="Trazado 775662" d="M83.812,53.2a1.625,1.625,0,1,1-1.674-1.574A1.625,1.625,0,0,1,83.812,53.2" transform="translate(-3.397 -2.177)" fill="#fff"/>
            <path id="Trazado_775663" data-name="Trazado 775663" d="M64.742,63.293s.391-4.414-3.76-4.342c-4.306.077-3.451,5.06-3.451,5.06Z" transform="translate(-2.423 -2.486)" fill="#e2b586"/>
          </g>
        </g>
        <g id="Grupo_1044243" data-name="Grupo 1044243" transform="translate(40.482 66.544)">
          <g id="Grupo_1044242" data-name="Grupo 1044242" clip-path="url(#clip-path-2)">
            <path id="Trazado_775664" data-name="Trazado 775664" d="M59.48,90.589c14.592.893,17.341-12.592,17.849-18.5a2.408,2.408,0,0,0-2.469-2.618l-30.265.935a2.408,2.408,0,0,0-2.3,2.786c.832,5.295,4.14,16.592,17.186,17.393" transform="translate(-42.265 -69.474)" fill="#e8a2cc"/>
            <path id="Trazado_775665" data-name="Trazado 775665" d="M46.543,83.89c8.644-6.625,19.7-10,30.189-7.752a33.354,33.354,0,0,0,.6-4.045,2.409,2.409,0,0,0-2.469-2.619L44.6,70.41a2.409,2.409,0,0,0-2.3,2.786A24.608,24.608,0,0,0,46.543,83.89" transform="translate(-42.265 -69.474)" fill="#382417"/>
          </g>
        </g>
        <g id="Grupo_1044245" data-name="Grupo 1044245">
          <g id="Grupo_1044244" data-name="Grupo 1044244" clip-path="url(#clip-path)">
            <path id="Trazado_775667" data-name="Trazado 775667" d="M37.484,37.6a13.754,13.754,0,0,0-6.561,2.509c-1.916,1.191-4.01,2.884-4.5,5.172-.041.186-.112.876.188.92.666.1,1.176-.557,1.627-1a19.764,19.764,0,0,1,3.1-2.35A73.715,73.715,0,0,0,37.584,38.6c.155-.125.157-1.011-.1-1" transform="translate(-1.113 -1.586)" fill="#382417"/>
            <path id="Trazado_775668" data-name="Trazado 775668" d="M91.01,39.886A19.9,19.9,0,0,0,79.376,33.52c-.174-.022-.119.7.009.785,1.955,1.261,3.925,2.44,5.939,3.607a24.06,24.06,0,0,0,5.7,2.829c.2.055.08-.759-.01-.856" transform="translate(-3.343 -1.414)" fill="#382417"/>
            <path id="Trazado_775669" data-name="Trazado 775669" d="M66.572,3.845c-2.345-8.393-10.987-1.2-12.306,4.144a22.119,22.119,0,0,0,.83,12.532,19.683,19.683,0,0,1-4.359,2.862c-.353.17.163,1.5.5,1.538a7.206,7.206,0,0,0,5.1-1.547,20.462,20.462,0,0,0,1.766,2.81C61.9,31.22,69.822,34.247,74.043,27.8c.192-.292-.224-1.626-.652-1.52-4.548,1.116-7.852,3.447-12.363.535a11.552,11.552,0,0,1-3.8-4.161,35.32,35.32,0,0,0,4.9-6.1c2.6-3.69,5.763-7.974,4.441-12.712M55.977,19.721a19.267,19.267,0,0,1-.777-7.03,14.878,14.878,0,0,1,1.905-6.078A10.508,10.508,0,0,1,60.351,3.22c2.436-1.736,6.973-1.819,4.595,4.113-1.223,3.054-3.757,5.825-5.645,8.5a26.666,26.666,0,0,1-3.323,3.892" transform="translate(-2.135 0)" fill="#e5b242"/>
          </g>
        </g>
      </g>
    </g>
  </g>
</svg>
