<svg xmlns="http://www.w3.org/2000/svg" xmlns:xlink="http://www.w3.org/1999/xlink" width="400" height="404.468" viewBox="0 0 400 404.468">
  <defs>
    <clipPath id="clip-path">
      <path id="Rect치ngulo_356771" data-name="Rect치ngulo 356771" d="M8,0H392a8,8,0,0,1,8,8V404.468a0,0,0,0,1,0,0H0a0,0,0,0,1,0,0V8A8,8,0,0,1,8,0Z" transform="translate(180 865.28)" fill="#1f746c" stroke="#707070" stroke-width="1" opacity="0.62"/>
    </clipPath>
  </defs>
  <g id="Enmascarar_grupo_101" data-name="Enmascarar grupo 101" transform="translate(-180 -865.28)" clip-path="url(#clip-path)">
    <g id="Grupo_140013" data-name="Grupo 140013" transform="translate(0 -1695.137)">
      <rect id="Rect치ngulo_35791" data-name="Rect치ngulo 35791" width="400" height="410.119" rx="13" transform="translate(180 2560)" fill="#fffae3"/>
    </g>
    <g id="Grupo_1046971" data-name="Grupo 1046971" transform="translate(152.975 759.626)">
      <g id="Grupo_1046924" data-name="Grupo 1046924" transform="translate(12.481 2.511)">
        <g id="Grupo_1046921" data-name="Grupo 1046921" transform="translate(303.172 257.181)">
          <path id="Trazado_780677" data-name="Trazado 780677" d="M367.988,315.608s22.128-32.266,7.232-34.2S354.07,311.818,367.988,315.608Z" transform="translate(-342.22 -258.619)" fill="#f2aaaa"/>
          <path id="Trazado_780678" data-name="Trazado 780678" d="M399.508,291.468s22.128-32.266,7.232-34.2S385.59,287.678,399.508,291.468Z" transform="translate(-344.098 -257.181)" fill="#32cfc0"/>
          <path id="Trazado_780679" data-name="Trazado 780679" d="M365.38,317.444s27.46,27.865,32.2,13.617S371.747,304.5,365.38,317.444Z" transform="translate(-342.528 -260.446)" fill="#f2aaaa"/>
          <path id="Trazado_780680" data-name="Trazado 780680" d="M399.45,293.839S424.381,324,430.343,310.212,406.926,281.5,399.45,293.839Z" transform="translate(-344.557 -259.091)" fill="#32cfc0"/>
          <path id="Trazado_780681" data-name="Trazado 780681" d="M418.01,283.11s34.391,9.8,38.623-4.222C460.978,264.508,428.825,269.8,418.01,283.11Z" transform="translate(-345.663 -257.964)" fill="#32cfc0"/>
          <g id="Grupo_1046920" data-name="Grupo 1046920" transform="translate(0 9.563)">
            <path id="Trazado_780682" data-name="Trazado 780682" d="M341.08,337.823s42.093-52.692,92.425-57.573" transform="translate(-341.08 -268.118)" fill="none" stroke="#2e5373" stroke-linecap="round" stroke-linejoin="round" stroke-width="1"/>
            <path id="Trazado_780683" data-name="Trazado 780683" d="M404.6,267.35,397.96,291.9s13.429-3.16,25.561,9.479" transform="translate(-344.469 -267.35)" fill="none" stroke="#2e5373" stroke-linecap="round" stroke-linejoin="round" stroke-width="1"/>
            <path id="Trazado_780684" data-name="Trazado 780684" d="M373.5,290.73l-7.354,24.122s14.746-3.31,26.52,10.345" transform="translate(-342.574 -268.743)" fill="none" stroke="#2e5373" stroke-linecap="round" stroke-linejoin="round" stroke-width="1"/>
          </g>
        </g>
        <g id="Grupo_1046923" data-name="Grupo 1046923" transform="translate(40.494 257.181)">
          <path id="Trazado_780685" data-name="Trazado 780685" d="M130.735,315.608s-22.128-32.266-7.232-34.2S144.654,311.818,130.735,315.608Z" transform="translate(-45.132 -258.619)" fill="#f2aaaa"/>
          <path id="Trazado_780686" data-name="Trazado 780686" d="M99.215,291.468s-22.128-32.266-7.232-34.2S113.134,287.678,99.215,291.468Z" transform="translate(-43.254 -257.181)" fill="#f2aaaa"/>
          <path id="Trazado_780687" data-name="Trazado 780687" d="M132.549,317.444s-27.46,27.865-32.2,13.617S126.182,304.5,132.549,317.444Z" transform="translate(-44.03 -260.446)" fill="#f2aaaa"/>
          <path id="Trazado_780688" data-name="Trazado 780688" d="M98.543,293.839S73.612,324,67.65,310.212,91.066,281.5,98.543,293.839Z" transform="translate(-42.064 -259.091)" fill="#f2aaaa"/>
          <path id="Trazado_780689" data-name="Trazado 780689" d="M79.518,283.11s-34.391,9.8-38.623-4.222C36.55,264.508,68.7,269.8,79.518,283.11Z" transform="translate(-40.494 -257.964)" fill="#32cfc0"/>
          <g id="Grupo_1046922" data-name="Grupo 1046922" transform="translate(18.946 9.563)">
            <path id="Trazado_780690" data-name="Trazado 780690" d="M153.065,337.823S110.972,285.131,60.64,280.25" transform="translate(-60.64 -268.118)" fill="none" stroke="#2e5373" stroke-linecap="round" stroke-linejoin="round" stroke-width="1"/>
            <path id="Trazado_780691" data-name="Trazado 780691" d="M93.781,267.35l6.639,24.555s-13.429-3.16-25.561,9.479" transform="translate(-61.487 -267.35)" fill="none" stroke="#2e5373" stroke-linecap="round" stroke-linejoin="round" stroke-width="1"/>
            <path id="Trazado_780692" data-name="Trazado 780692" d="M124.816,290.73l7.354,24.122s-14.746-3.31-26.52,10.345" transform="translate(-63.321 -268.743)" fill="none" stroke="#2e5373" stroke-linecap="round" stroke-linejoin="round" stroke-width="1"/>
          </g>
        </g>
      </g>
      <g id="Grupo_1046927" data-name="Grupo 1046927">
        <g id="Grupo_1046925" data-name="Grupo 1046925">
          <path id="Trazado_780693" data-name="Trazado 780693" d="M216.81,352.58a15.684,15.684,0,0,1-2.58,6.01c-2.04,2.56-5.35,3.73-8.55,4.37-11.94,2.37-24.59-1.17-34.55-8.21-.34-.23-.67-.47-1-.72-10.09-7.5-17.36-18.35-22.12-30-2.09-5.1-3.75-10.43-6.64-15.13-5.2-8.43-14.24-14.67-16.85-24.23-1.85-6.77-.11-14.22-2.48-20.82-3.01-8.41-11.93-13.47-15.5-21.66-2.88-6.58-2.01-14.58-5.95-20.6-1.47-2.24-3.55-4.1-4.63-6.56s-1.03-5.24-.93-7.93c.52-13.8,1.58-28.73-6.02-40.27-1.56-2.37-3.56-5.04-2.73-7.76A4.689,4.689,0,0,1,89.75,156a9.651,9.651,0,0,1,5.77.3c11.14,4.13,14.12,18.1,20.77,27.95,8.12,12.04,22.72,18.58,30.64,30.76,3.94,6.04,5.99,13.14,9.8,19.27,7.28,11.7,20.03,18.58,31.3,26.52,27.36,19.29,36.91,60.3,28.78,91.78Z" fill="#3a6991"/>
          <path id="Trazado_780694" data-name="Trazado 780694" d="M186.76,347.31c-3.92,4.19-9.73,5.92-15.28,7.35l-.35.09c-.34-.23-.67-.47-1-.72-10.09-7.5-17.36-18.35-22.12-30-2.09-5.1-3.75-10.43-6.64-15.13-5.2-8.43-14.24-14.67-16.85-24.23-1.85-6.77-.11-14.22-2.48-20.82-3.01-8.41-11.93-13.47-15.5-21.66-2.88-6.58-2.01-14.58-5.95-20.6-1.47-2.24-3.55-4.1-4.63-6.56s-1.03-5.24-.93-7.93c.52-13.8,1.58-28.73-6.02-40.27-1.56-2.37-3.56-5.04-2.73-7.76A4.689,4.689,0,0,1,89.75,156c.18.06.35.12.53.19,12.66,4.9,17.06,26.89,19.64,38.23,1.15,5.08,2.43,10.44,6.06,14.18,2.96,3.04,7.11,4.61,10.44,7.25,14.87,11.85,7.2,38.42,20.67,51.85,4.63,4.61,11.13,6.9,16.01,11.24,8.83,7.85,11.17,21.2,20.11,28.92,2.37,2.05,5.2,3.7,6.84,6.37s1.85,5.98,2,9.12c.4,8.41.45,17.81-5.29,23.96Z" fill="#355f85"/>
        </g>
        <g id="Grupo_1046926" data-name="Grupo 1046926">
          <path id="Trazado_780695" data-name="Trazado 780695" d="M283.19,352.58a15.684,15.684,0,0,0,2.58,6.01c2.04,2.56,5.35,3.73,8.55,4.37,11.94,2.37,24.59-1.17,34.55-8.21.34-.23.67-.47,1-.72,10.09-7.5,17.36-18.35,22.12-30,2.09-5.1,3.75-10.43,6.64-15.13,5.2-8.43,14.24-14.67,16.85-24.23,1.85-6.77.11-14.22,2.48-20.82,3.01-8.41,11.93-13.47,15.5-21.66,2.88-6.58,2.01-14.58,5.95-20.6,1.47-2.24,3.55-4.1,4.63-6.56s1.03-5.24.93-7.93c-.52-13.8-1.58-28.73,6.02-40.27,1.56-2.37,3.56-5.04,2.73-7.76a4.689,4.689,0,0,0-3.47-3.07,9.651,9.651,0,0,0-5.77.3c-11.14,4.13-14.12,18.1-20.77,27.95-8.12,12.04-22.72,18.58-30.64,30.76-3.94,6.04-5.99,13.14-9.8,19.27-7.28,11.7-20.03,18.58-31.3,26.52-27.36,19.29-36.91,60.3-28.78,91.78Z" fill="#3a6991"/>
          <path id="Trazado_780696" data-name="Trazado 780696" d="M313.24,347.31c3.92,4.19,9.73,5.92,15.28,7.35l.35.09c.34-.23.67-.47,1-.72,10.09-7.5,17.36-18.35,22.12-30,2.09-5.1,3.75-10.43,6.64-15.13,5.2-8.43,14.24-14.67,16.85-24.23,1.85-6.77.11-14.22,2.48-20.82,3.01-8.41,11.93-13.47,15.5-21.66,2.88-6.58,2.01-14.58,5.95-20.6,1.47-2.24,3.55-4.1,4.63-6.56s1.03-5.24.93-7.93c-.52-13.8-1.58-28.73,6.02-40.27,1.56-2.37,3.56-5.04,2.73-7.76a4.689,4.689,0,0,0-3.47-3.07c-.18.06-.35.12-.53.19-12.66,4.9-17.06,26.89-19.64,38.23-1.15,5.08-2.43,10.44-6.06,14.18-2.96,3.04-7.11,4.61-10.44,7.25-14.87,11.85-7.2,38.42-20.67,51.85-4.63,4.61-11.13,6.9-16.01,11.24-8.83,7.85-11.17,21.2-20.11,28.92-2.37,2.05-5.2,3.7-6.84,6.37s-1.85,5.98-2,9.12c-.4,8.41-.45,17.81,5.29,23.96Z" fill="#355f85"/>
        </g>
      </g>
      <g id="Grupo_1046928" data-name="Grupo 1046928">
        <path id="Trazado_780697" data-name="Trazado 780697" d="M378.28,314.45l-2.54-1.49,2.04,2.82a69.479,69.479,0,0,1-12.36,20.3l-4.49-2.63,2.94,4.37a83.173,83.173,0,0,1-16.14,13.36l-3.58-4.47,1.35,5.87a117.016,117.016,0,0,1-20.33,9.62l-2.27-2.88.87,3.39a163.573,163.573,0,0,1-16.75,4.91s-12.39-5.89-10.19-20.21a28.919,28.919,0,0,1,1.77-6.3,44.921,44.921,0,0,1,3.63-11.6l3.59,2.29-2.74-4.1a60.425,60.425,0,0,1,12.99-17.45l6.8,4.09-4.19-6.4A72.009,72.009,0,0,1,337.2,296.8c2.44-1.02,4.74-2.02,6.93-2.99l4.39,5.61-1.51-6.91c5.27-2.39,9.78-4.61,13.63-6.63l3.09,4.25-1.15-5.28c14.21-7.65,18.51-12.19,18.51-12.19a75.294,75.294,0,0,1-2.81,41.79Z" fill="#82b072"/>
        <path id="Trazado_780698" data-name="Trazado 780698" d="M378.28,314.45l-2.54-1.49,2.04,2.82a69.479,69.479,0,0,1-12.36,20.3l-4.49-2.63,2.94,4.37a83.173,83.173,0,0,1-16.14,13.36l-3.58-4.47,1.35,5.87a117.016,117.016,0,0,1-20.33,9.62l-2.27-2.88.87,3.39a163.573,163.573,0,0,1-16.75,4.91s-12.39-5.89-10.19-20.21c83.14-39.96,84.26-74.75,84.26-74.75a75.294,75.294,0,0,1-2.81,41.79Z" fill="#729963"/>
      </g>
      <g id="Grupo_1046929" data-name="Grupo 1046929">
        <path id="Trazado_780699" data-name="Trazado 780699" d="M208.54,345.24a25.549,25.549,0,0,1-3.07,13.32,18.063,18.063,0,0,1-24.13,6.92q-5.43-2.835-10.3-5.79l1.95-4-3.56,3.01a149.835,149.835,0,0,1-22.88-17.17l3.19-6.97-5.61,4.65a105.873,105.873,0,0,1-16.7-20.75l4.78-4.7-6.27,2.13a88.322,88.322,0,0,1-10.22-28.45l3.26-2.99-3.55,1.21c-4.52-29.56,7.16-52.79,7.16-52.79s4.2,6.75,19.95,19.91l-2.78,6.28,4.94-4.5c4.28,3.5,9.34,7.42,15.29,11.74l-3.65,8.22,6.91-5.87c2.49,1.77,5.1,3.6,7.87,5.5a91.3,91.3,0,0,1,20.24,18.6l-6.86,6.9,9.52-3.35a76.695,76.695,0,0,1,11.73,25.04l-4.46,4.42,5.06-1.94a57.122,57.122,0,0,1,1.56,15.37,38.53,38.53,0,0,1,.63,6.05Z" fill="#82b072"/>
        <path id="Trazado_780700" data-name="Trazado 780700" d="M208.54,345.24a25.549,25.549,0,0,1-3.07,13.32,18.063,18.063,0,0,1-24.13,6.92q-5.43-2.835-10.3-5.79l1.95-4-3.56,3.01a149.835,149.835,0,0,1-22.88-17.17l3.19-6.97-5.61,4.65a105.873,105.873,0,0,1-16.7-20.75l4.78-4.7-6.27,2.13a88.322,88.322,0,0,1-10.22-28.45l3.26-2.99-3.55,1.21c-4.52-29.56,7.16-52.79,7.16-52.79s9.57,68.66,85.95,112.37Z" fill="#729963"/>
      </g>
      <g id="Grupo_1046932" data-name="Grupo 1046932">
        <g id="Grupo_1046930" data-name="Grupo 1046930">
          <path id="Trazado_780701" data-name="Trazado 780701" d="M229.52,297.98a9.836,9.836,0,0,1-1.59,3.71,8.763,8.763,0,0,1-5.27,2.7c-7.37,1.46-15.17-.72-21.31-5.06-.21-.14-.41-.29-.62-.44-6.22-4.63-10.71-11.32-13.64-18.51-1.29-3.15-2.31-6.43-4.1-9.33-3.21-5.2-8.78-9.05-10.39-14.95-1.14-4.18-.07-8.77-1.53-12.84-1.86-5.19-7.36-8.31-9.56-13.36-1.78-4.06-1.24-8.99-3.67-12.71-.91-1.38-2.19-2.53-2.86-4.05a10.9,10.9,0,0,1-.57-4.89c.32-8.51.97-17.72-3.71-24.84-.96-1.46-2.2-3.11-1.68-4.79a2.876,2.876,0,0,1,2.14-1.89,5.94,5.94,0,0,1,3.56.19c6.87,2.55,8.71,11.17,12.81,17.24,5.01,7.43,14.02,11.46,18.9,18.97,2.43,3.73,3.7,8.11,6.05,11.89,4.49,7.22,12.36,11.46,19.31,16.36,16.88,11.9,22.77,37.2,17.75,56.62Z" fill="#82b072"/>
          <path id="Trazado_780702" data-name="Trazado 780702" d="M210.99,294.73c-2.42,2.58-6,3.65-9.43,4.53-.07.02-.14.04-.22.06-.21-.14-.41-.29-.62-.44-6.22-4.63-10.71-11.32-13.64-18.51-1.29-3.15-2.31-6.43-4.1-9.33-3.21-5.2-8.78-9.05-10.39-14.95-1.14-4.18-.07-8.77-1.53-12.84-1.86-5.19-7.36-8.31-9.56-13.36-1.78-4.06-1.24-8.99-3.67-12.71-.91-1.38-2.19-2.53-2.86-4.05a10.9,10.9,0,0,1-.57-4.89c.32-8.51.97-17.72-3.71-24.84-.96-1.46-2.2-3.11-1.68-4.79a2.876,2.876,0,0,1,2.14-1.89c.11.04.22.07.33.12,7.81,3.02,10.52,16.59,12.12,23.58.71,3.13,1.5,6.44,3.74,8.75,1.83,1.88,4.39,2.84,6.44,4.47,9.17,7.31,4.44,23.7,12.75,31.98,2.86,2.84,6.87,4.26,9.88,6.93,5.45,4.84,6.89,13.08,12.41,17.84,1.46,1.26,3.21,2.28,4.22,3.93a11.587,11.587,0,0,1,1.23,5.63c.25,5.19.28,10.99-3.26,14.78Z" fill="#729963"/>
        </g>
        <g id="Grupo_1046931" data-name="Grupo 1046931">
          <path id="Trazado_780703" data-name="Trazado 780703" d="M270.48,297.98a9.836,9.836,0,0,0,1.59,3.71,8.763,8.763,0,0,0,5.27,2.7c7.37,1.46,15.17-.72,21.31-5.06.21-.14.41-.29.62-.44,6.22-4.63,10.71-11.32,13.64-18.51,1.29-3.15,2.31-6.43,4.1-9.33,3.21-5.2,8.78-9.05,10.39-14.95,1.14-4.18.07-8.77,1.53-12.84,1.86-5.19,7.36-8.31,9.56-13.36,1.78-4.06,1.24-8.99,3.67-12.71.91-1.38,2.19-2.53,2.86-4.05a10.894,10.894,0,0,0,.57-4.89c-.32-8.51-.97-17.72,3.71-24.84.96-1.46,2.2-3.11,1.68-4.79a2.876,2.876,0,0,0-2.14-1.89,5.94,5.94,0,0,0-3.56.19c-6.87,2.55-8.71,11.17-12.81,17.24-5.01,7.43-14.02,11.46-18.9,18.97-2.43,3.73-3.7,8.11-6.05,11.89-4.49,7.22-12.36,11.46-19.31,16.36-16.88,11.9-22.77,37.2-17.75,56.62Z" fill="#82b072"/>
          <path id="Trazado_780704" data-name="Trazado 780704" d="M289.01,294.73c2.42,2.58,6,3.65,9.43,4.53.07.02.14.04.22.06.21-.14.41-.29.62-.44,6.22-4.63,10.71-11.32,13.64-18.51,1.29-3.15,2.31-6.43,4.1-9.33,3.21-5.2,8.78-9.05,10.39-14.95,1.14-4.18.07-8.77,1.53-12.84,1.86-5.19,7.36-8.31,9.56-13.36,1.78-4.06,1.24-8.99,3.67-12.71.91-1.38,2.19-2.53,2.86-4.05a10.894,10.894,0,0,0,.57-4.89c-.32-8.51-.97-17.72,3.71-24.84.96-1.46,2.2-3.11,1.68-4.79a2.876,2.876,0,0,0-2.14-1.89c-.11.04-.22.07-.33.12-7.81,3.02-10.52,16.59-12.12,23.58-.71,3.13-1.5,6.44-3.74,8.75-1.83,1.88-4.39,2.84-6.44,4.47-9.17,7.31-4.44,23.7-12.75,31.98-2.86,2.84-6.87,4.26-9.88,6.93-5.45,4.84-6.89,13.08-12.41,17.84-1.46,1.26-3.21,2.28-4.22,3.93a11.588,11.588,0,0,0-1.23,5.63c-.25,5.19-.28,10.99,3.26,14.78Z" fill="#729963"/>
        </g>
      </g>
      <g id="Grupo_1046937" data-name="Grupo 1046937">
        <g id="Grupo_1046934" data-name="Grupo 1046934">
          <path id="Trazado_780705" data-name="Trazado 780705" d="M299.03,185.5s8.29-20.05-.01-19.38S291.05,185.05,299.03,185.5Z" fill="#f2aaaa"/>
          <path id="Trazado_780706" data-name="Trazado 780706" d="M312.49,169.77s8.29-20.05-.01-19.38S304.51,169.32,312.49,169.77Z" fill="#f2aaaa"/>
          <path id="Trazado_780707" data-name="Trazado 780707" d="M297.45,185.84s18.1,11.96,19.03,3.68S299.42,178.09,297.45,185.84Z" fill="#f2aaaa"/>
          <path id="Trazado_780708" data-name="Trazado 780708" d="M312.26,170.08s16.99,13.49,18.64,5.32S314.9,162.52,312.26,170.08Z" fill="#f2aaaa"/>
          <path id="Trazado_780709" data-name="Trazado 780709" d="M320.63,162.87s19.78,1.36,20.46-6.73C341.79,147.84,324.97,154.41,320.63,162.87Z" fill="#32cfc0"/>
          <g id="Grupo_1046933" data-name="Grupo 1046933">
            <path id="Trazado_780710" data-name="Trazado 780710" d="M287.61,200.55s16.77-33.42,43.51-41.86" fill="none" stroke="#2e5373" stroke-linecap="round" stroke-linejoin="round" stroke-width="1"/>
            <path id="Trazado_780711" data-name="Trazado 780711" d="M312.21,155.82l-.78,14.08s6.92-3.26,14.95,2.2" fill="none" stroke="#2e5373" stroke-linecap="round" stroke-linejoin="round" stroke-width="1"/>
            <path id="Trazado_780712" data-name="Trazado 780712" d="M298.9,171.11l-1.21,13.93s7.62-3.49,15.57,2.56" fill="none" stroke="#2e5373" stroke-linecap="round" stroke-linejoin="round" stroke-width="1"/>
          </g>
        </g>
        <g id="Grupo_1046936" data-name="Grupo 1046936">
          <path id="Trazado_780713" data-name="Trazado 780713" d="M200.97,185.5s-8.29-20.05.01-19.38S208.95,185.05,200.97,185.5Z" fill="#32cfc0"/>
          <path id="Trazado_780714" data-name="Trazado 780714" d="M187.51,169.77s-8.29-20.05.01-19.38S195.49,169.32,187.51,169.77Z" fill="#32cfc0"/>
          <path id="Trazado_780715" data-name="Trazado 780715" d="M202.55,185.84s-18.1,11.96-19.03,3.68S200.58,178.09,202.55,185.84Z" fill="#32cfc0"/>
          <path id="Trazado_780716" data-name="Trazado 780716" d="M187.74,170.08s-16.99,13.49-18.64,5.32S185.1,162.52,187.74,170.08Z" fill="#f2aaaa"/>
          <path id="Trazado_780717" data-name="Trazado 780717" d="M179.37,162.87s-19.78,1.36-20.46-6.73C158.21,147.84,175.03,154.41,179.37,162.87Z" fill="#f2aaaa"/>
          <g id="Grupo_1046935" data-name="Grupo 1046935">
            <path id="Trazado_780718" data-name="Trazado 780718" d="M212.39,200.55s-16.77-33.42-43.51-41.86" fill="none" stroke="#2e5373" stroke-linecap="round" stroke-linejoin="round" stroke-width="1"/>
            <path id="Trazado_780719" data-name="Trazado 780719" d="M187.79,155.82l.78,14.08s-6.92-3.26-14.95,2.2" fill="none" stroke="#2e5373" stroke-linecap="round" stroke-linejoin="round" stroke-width="1"/>
            <path id="Trazado_780720" data-name="Trazado 780720" d="M201.1,171.11l1.21,13.93s-7.62-3.49-15.57,2.56" fill="none" stroke="#2e5373" stroke-linecap="round" stroke-linejoin="round" stroke-width="1"/>
          </g>
        </g>
      </g>
    </g>
    <g id="Grupo_1046972" data-name="Grupo 1046972" transform="translate(127.025 897.212)">
      <g id="Grupo_1046924-2" data-name="Grupo 1046924" transform="translate(12.481 2.511)">
        <g id="Grupo_1046921-2" data-name="Grupo 1046921" transform="translate(323.173 257.181)">
          <path id="Trazado_780677-2" data-name="Trazado 780677" d="M367.988,315.608s22.128-32.266,7.232-34.2S354.07,311.818,367.988,315.608Z" transform="translate(-342.22 -258.619)" fill="#f2aaaa"/>
          <path id="Trazado_780678-2" data-name="Trazado 780678" d="M399.508,291.468s22.128-32.266,7.232-34.2S385.59,287.678,399.508,291.468Z" transform="translate(-344.098 -257.181)" fill="#32cfc0"/>
          <path id="Trazado_780679-2" data-name="Trazado 780679" d="M365.38,317.444s27.46,27.865,32.2,13.617S371.747,304.5,365.38,317.444Z" transform="translate(-342.528 -260.446)" fill="#32cfc0"/>
          <path id="Trazado_780680-2" data-name="Trazado 780680" d="M399.45,293.839S424.381,324,430.343,310.212,406.926,281.5,399.45,293.839Z" transform="translate(-344.557 -259.091)" fill="#32cfc0"/>
          <path id="Trazado_780681-2" data-name="Trazado 780681" d="M418.01,283.11s34.391,9.8,38.623-4.222C460.978,264.508,428.825,269.8,418.01,283.11Z" transform="translate(-345.663 -257.964)" fill="#32cfc0"/>
          <g id="Grupo_1046920-2" data-name="Grupo 1046920" transform="translate(0 9.563)">
            <path id="Trazado_780682-2" data-name="Trazado 780682" d="M341.08,337.823s42.093-52.692,92.425-57.573" transform="translate(-341.08 -268.118)" fill="none" stroke="#2e5373" stroke-linecap="round" stroke-linejoin="round" stroke-width="1"/>
            <path id="Trazado_780683-2" data-name="Trazado 780683" d="M404.6,267.35,397.96,291.9s13.429-3.16,25.561,9.479" transform="translate(-344.469 -267.35)" fill="none" stroke="#2e5373" stroke-linecap="round" stroke-linejoin="round" stroke-width="1"/>
            <path id="Trazado_780684-2" data-name="Trazado 780684" d="M373.5,290.73l-7.354,24.122s14.746-3.31,26.52,10.345" transform="translate(-342.574 -268.743)" fill="none" stroke="#2e5373" stroke-linecap="round" stroke-linejoin="round" stroke-width="1"/>
          </g>
        </g>
        <g id="Grupo_1046923-2" data-name="Grupo 1046923" transform="translate(40.494 257.181)">
          <path id="Trazado_780685-2" data-name="Trazado 780685" d="M130.735,315.608s-22.128-32.266-7.232-34.2S144.654,311.818,130.735,315.608Z" transform="translate(-45.132 -258.619)" fill="#f2aaaa"/>
          <path id="Trazado_780686-2" data-name="Trazado 780686" d="M99.215,291.468s-22.128-32.266-7.232-34.2S113.134,287.678,99.215,291.468Z" transform="translate(-43.254 -257.181)" fill="#32cfc0"/>
          <path id="Trazado_780687-2" data-name="Trazado 780687" d="M132.549,317.444s-27.46,27.865-32.2,13.617S126.182,304.5,132.549,317.444Z" transform="translate(-44.03 -260.446)" fill="#32cfc0"/>
          <path id="Trazado_780688-2" data-name="Trazado 780688" d="M98.543,293.839S73.612,324,67.65,310.212,91.066,281.5,98.543,293.839Z" transform="translate(-42.064 -259.091)" fill="#32cfc0"/>
          <path id="Trazado_780689-2" data-name="Trazado 780689" d="M79.518,283.11s-34.391,9.8-38.623-4.222C36.55,264.508,68.7,269.8,79.518,283.11Z" transform="translate(-40.494 -257.964)" fill="#32cfc0"/>
          <g id="Grupo_1046922-2" data-name="Grupo 1046922" transform="translate(18.946 9.563)">
            <path id="Trazado_780690-2" data-name="Trazado 780690" d="M153.065,337.823S110.972,285.131,60.64,280.25" transform="translate(-60.64 -268.118)" fill="none" stroke="#2e5373" stroke-linecap="round" stroke-linejoin="round" stroke-width="1"/>
            <path id="Trazado_780691-2" data-name="Trazado 780691" d="M93.781,267.35l6.639,24.555s-13.429-3.16-25.561,9.479" transform="translate(-61.487 -267.35)" fill="none" stroke="#2e5373" stroke-linecap="round" stroke-linejoin="round" stroke-width="1"/>
            <path id="Trazado_780692-2" data-name="Trazado 780692" d="M124.816,290.73l7.354,24.122s-14.746-3.31-26.52,10.345" transform="translate(-63.321 -268.743)" fill="none" stroke="#2e5373" stroke-linecap="round" stroke-linejoin="round" stroke-width="1"/>
          </g>
        </g>
      </g>
      <g id="Grupo_1046927-2" data-name="Grupo 1046927">
        <g id="Grupo_1046925-2" data-name="Grupo 1046925">
          <path id="Trazado_780693-2" data-name="Trazado 780693" d="M216.81,352.58a15.684,15.684,0,0,1-2.58,6.01c-2.04,2.56-5.35,3.73-8.55,4.37-11.94,2.37-24.59-1.17-34.55-8.21-.34-.23-.67-.47-1-.72-10.09-7.5-17.36-18.35-22.12-30-2.09-5.1-3.75-10.43-6.64-15.13-5.2-8.43-14.24-14.67-16.85-24.23-1.85-6.77-.11-14.22-2.48-20.82-3.01-8.41-11.93-13.47-15.5-21.66-2.88-6.58-2.01-14.58-5.95-20.6-1.47-2.24-3.55-4.1-4.63-6.56s-1.03-5.24-.93-7.93c.52-13.8,1.58-28.73-6.02-40.27-1.56-2.37-3.56-5.04-2.73-7.76A4.689,4.689,0,0,1,89.75,156a9.651,9.651,0,0,1,5.77.3c11.14,4.13,14.12,18.1,20.77,27.95,8.12,12.04,22.72,18.58,30.64,30.76,3.94,6.04,5.99,13.14,9.8,19.27,7.28,11.7,20.03,18.58,31.3,26.52,27.36,19.29,36.91,60.3,28.78,91.78Z" fill="#3a6991"/>
          <path id="Trazado_780694-2" data-name="Trazado 780694" d="M186.76,347.31c-3.92,4.19-9.73,5.92-15.28,7.35l-.35.09c-.34-.23-.67-.47-1-.72-10.09-7.5-17.36-18.35-22.12-30-2.09-5.1-3.75-10.43-6.64-15.13-5.2-8.43-14.24-14.67-16.85-24.23-1.85-6.77-.11-14.22-2.48-20.82-3.01-8.41-11.93-13.47-15.5-21.66-2.88-6.58-2.01-14.58-5.95-20.6-1.47-2.24-3.55-4.1-4.63-6.56s-1.03-5.24-.93-7.93c.52-13.8,1.58-28.73-6.02-40.27-1.56-2.37-3.56-5.04-2.73-7.76A4.689,4.689,0,0,1,89.75,156c.18.06.35.12.53.19,12.66,4.9,17.06,26.89,19.64,38.23,1.15,5.08,2.43,10.44,6.06,14.18,2.96,3.04,7.11,4.61,10.44,7.25,14.87,11.85,7.2,38.42,20.67,51.85,4.63,4.61,11.13,6.9,16.01,11.24,8.83,7.85,11.17,21.2,20.11,28.92,2.37,2.05,5.2,3.7,6.84,6.37s1.85,5.98,2,9.12c.4,8.41.45,17.81-5.29,23.96Z" fill="#355f85"/>
        </g>
        <g id="Grupo_1046926-2" data-name="Grupo 1046926">
          <path id="Trazado_780695-2" data-name="Trazado 780695" d="M283.19,352.58a15.684,15.684,0,0,0,2.58,6.01c2.04,2.56,5.35,3.73,8.55,4.37,11.94,2.37,24.59-1.17,34.55-8.21.34-.23.67-.47,1-.72,10.09-7.5,17.36-18.35,22.12-30,2.09-5.1,3.75-10.43,6.64-15.13,5.2-8.43,14.24-14.67,16.85-24.23,1.85-6.77.11-14.22,2.48-20.82,3.01-8.41,11.93-13.47,15.5-21.66,2.88-6.58,2.01-14.58,5.95-20.6,1.47-2.24,3.55-4.1,4.63-6.56s1.03-5.24.93-7.93c-.52-13.8-1.58-28.73,6.02-40.27,1.56-2.37,3.56-5.04,2.73-7.76a4.689,4.689,0,0,0-3.47-3.07,9.651,9.651,0,0,0-5.77.3c-11.14,4.13-14.12,18.1-20.77,27.95-8.12,12.04-22.72,18.58-30.64,30.76-3.94,6.04-5.99,13.14-9.8,19.27-7.28,11.7-20.03,18.58-31.3,26.52-27.36,19.29-36.91,60.3-28.78,91.78Z" fill="#3a6991"/>
          <path id="Trazado_780696-2" data-name="Trazado 780696" d="M313.24,347.31c3.92,4.19,9.73,5.92,15.28,7.35l.35.09c.34-.23.67-.47,1-.72,10.09-7.5,17.36-18.35,22.12-30,2.09-5.1,3.75-10.43,6.64-15.13,5.2-8.43,14.24-14.67,16.85-24.23,1.85-6.77.11-14.22,2.48-20.82,3.01-8.41,11.93-13.47,15.5-21.66,2.88-6.58,2.01-14.58,5.95-20.6,1.47-2.24,3.55-4.1,4.63-6.56s1.03-5.24.93-7.93c-.52-13.8-1.58-28.73,6.02-40.27,1.56-2.37,3.56-5.04,2.73-7.76a4.689,4.689,0,0,0-3.47-3.07c-.18.06-.35.12-.53.19-12.66,4.9-17.06,26.89-19.64,38.23-1.15,5.08-2.43,10.44-6.06,14.18-2.96,3.04-7.11,4.61-10.44,7.25-14.87,11.85-7.2,38.42-20.67,51.85-4.63,4.61-11.13,6.9-16.01,11.24-8.83,7.85-11.17,21.2-20.11,28.92-2.37,2.05-5.2,3.7-6.84,6.37s-1.85,5.98-2,9.12c-.4,8.41-.45,17.81,5.29,23.96Z" fill="#355f85"/>
        </g>
      </g>
      <g id="Grupo_1046928-2" data-name="Grupo 1046928">
        <path id="Trazado_780697-2" data-name="Trazado 780697" d="M378.28,314.45l-2.54-1.49,2.04,2.82a69.479,69.479,0,0,1-12.36,20.3l-4.49-2.63,2.94,4.37a83.173,83.173,0,0,1-16.14,13.36l-3.58-4.47,1.35,5.87a117.016,117.016,0,0,1-20.33,9.62l-2.27-2.88.87,3.39a163.573,163.573,0,0,1-16.75,4.91s-12.39-5.89-10.19-20.21a28.919,28.919,0,0,1,1.77-6.3,44.921,44.921,0,0,1,3.63-11.6l3.59,2.29-2.74-4.1a60.425,60.425,0,0,1,12.99-17.45l6.8,4.09-4.19-6.4A72.009,72.009,0,0,1,337.2,296.8c2.44-1.02,4.74-2.02,6.93-2.99l4.39,5.61-1.51-6.91c5.27-2.39,9.78-4.61,13.63-6.63l3.09,4.25-1.15-5.28c14.21-7.65,18.51-12.19,18.51-12.19a75.294,75.294,0,0,1-2.81,41.79Z" fill="#82b072"/>
        <path id="Trazado_780698-2" data-name="Trazado 780698" d="M378.28,314.45l-2.54-1.49,2.04,2.82a69.479,69.479,0,0,1-12.36,20.3l-4.49-2.63,2.94,4.37a83.173,83.173,0,0,1-16.14,13.36l-3.58-4.47,1.35,5.87a117.016,117.016,0,0,1-20.33,9.62l-2.27-2.88.87,3.39a163.573,163.573,0,0,1-16.75,4.91s-12.39-5.89-10.19-20.21c83.14-39.96,84.26-74.75,84.26-74.75a75.294,75.294,0,0,1-2.81,41.79Z" fill="#729963"/>
      </g>
      <g id="Grupo_1046929-2" data-name="Grupo 1046929">
        <path id="Trazado_780699-2" data-name="Trazado 780699" d="M208.54,345.24a25.549,25.549,0,0,1-3.07,13.32,18.063,18.063,0,0,1-24.13,6.92q-5.43-2.835-10.3-5.79l1.95-4-3.56,3.01a149.835,149.835,0,0,1-22.88-17.17l3.19-6.97-5.61,4.65a105.873,105.873,0,0,1-16.7-20.75l4.78-4.7-6.27,2.13a88.322,88.322,0,0,1-10.22-28.45l3.26-2.99-3.55,1.21c-4.52-29.56,7.16-52.79,7.16-52.79s4.2,6.75,19.95,19.91l-2.78,6.28,4.94-4.5c4.28,3.5,9.34,7.42,15.29,11.74l-3.65,8.22,6.91-5.87c2.49,1.77,5.1,3.6,7.87,5.5a91.3,91.3,0,0,1,20.24,18.6l-6.86,6.9,9.52-3.35a76.695,76.695,0,0,1,11.73,25.04l-4.46,4.42,5.06-1.94a57.122,57.122,0,0,1,1.56,15.37,38.53,38.53,0,0,1,.63,6.05Z" fill="#82b072"/>
        <path id="Trazado_780700-2" data-name="Trazado 780700" d="M208.54,345.24a25.549,25.549,0,0,1-3.07,13.32,18.063,18.063,0,0,1-24.13,6.92q-5.43-2.835-10.3-5.79l1.95-4-3.56,3.01a149.835,149.835,0,0,1-22.88-17.17l3.19-6.97-5.61,4.65a105.873,105.873,0,0,1-16.7-20.75l4.78-4.7-6.27,2.13a88.322,88.322,0,0,1-10.22-28.45l3.26-2.99-3.55,1.21c-4.52-29.56,7.16-52.79,7.16-52.79s9.57,68.66,85.95,112.37Z" fill="#729963"/>
      </g>
      <g id="Grupo_1046932-2" data-name="Grupo 1046932">
        <g id="Grupo_1046930-2" data-name="Grupo 1046930">
          <path id="Trazado_780701-2" data-name="Trazado 780701" d="M229.52,297.98a9.836,9.836,0,0,1-1.59,3.71,8.763,8.763,0,0,1-5.27,2.7c-7.37,1.46-15.17-.72-21.31-5.06-.21-.14-.41-.29-.62-.44-6.22-4.63-10.71-11.32-13.64-18.51-1.29-3.15-2.31-6.43-4.1-9.33-3.21-5.2-8.78-9.05-10.39-14.95-1.14-4.18-.07-8.77-1.53-12.84-1.86-5.19-7.36-8.31-9.56-13.36-1.78-4.06-1.24-8.99-3.67-12.71-.91-1.38-2.19-2.53-2.86-4.05a10.9,10.9,0,0,1-.57-4.89c.32-8.51.97-17.72-3.71-24.84-.96-1.46-2.2-3.11-1.68-4.79a2.876,2.876,0,0,1,2.14-1.89,5.94,5.94,0,0,1,3.56.19c6.87,2.55,8.71,11.17,12.81,17.24,5.01,7.43,14.02,11.46,18.9,18.97,2.43,3.73,3.7,8.11,6.05,11.89,4.49,7.22,12.36,11.46,19.31,16.36,16.88,11.9,22.77,37.2,17.75,56.62Z" fill="#82b072"/>
          <path id="Trazado_780702-2" data-name="Trazado 780702" d="M210.99,294.73c-2.42,2.58-6,3.65-9.43,4.53-.07.02-.14.04-.22.06-.21-.14-.41-.29-.62-.44-6.22-4.63-10.71-11.32-13.64-18.51-1.29-3.15-2.31-6.43-4.1-9.33-3.21-5.2-8.78-9.05-10.39-14.95-1.14-4.18-.07-8.77-1.53-12.84-1.86-5.19-7.36-8.31-9.56-13.36-1.78-4.06-1.24-8.99-3.67-12.71-.91-1.38-2.19-2.53-2.86-4.05a10.9,10.9,0,0,1-.57-4.89c.32-8.51.97-17.72-3.71-24.84-.96-1.46-2.2-3.11-1.68-4.79a2.876,2.876,0,0,1,2.14-1.89c.11.04.22.07.33.12,7.81,3.02,10.52,16.59,12.12,23.58.71,3.13,1.5,6.44,3.74,8.75,1.83,1.88,4.39,2.84,6.44,4.47,9.17,7.31,4.44,23.7,12.75,31.98,2.86,2.84,6.87,4.26,9.88,6.93,5.45,4.84,6.89,13.08,12.41,17.84,1.46,1.26,3.21,2.28,4.22,3.93a11.587,11.587,0,0,1,1.23,5.63c.25,5.19.28,10.99-3.26,14.78Z" fill="#729963"/>
        </g>
        <g id="Grupo_1046931-2" data-name="Grupo 1046931">
          <path id="Trazado_780703-2" data-name="Trazado 780703" d="M270.48,297.98a9.836,9.836,0,0,0,1.59,3.71,8.763,8.763,0,0,0,5.27,2.7c7.37,1.46,15.17-.72,21.31-5.06.21-.14.41-.29.62-.44,6.22-4.63,10.71-11.32,13.64-18.51,1.29-3.15,2.31-6.43,4.1-9.33,3.21-5.2,8.78-9.05,10.39-14.95,1.14-4.18.07-8.77,1.53-12.84,1.86-5.19,7.36-8.31,9.56-13.36,1.78-4.06,1.24-8.99,3.67-12.71.91-1.38,2.19-2.53,2.86-4.05a10.894,10.894,0,0,0,.57-4.89c-.32-8.51-.97-17.72,3.71-24.84.96-1.46,2.2-3.11,1.68-4.79a2.876,2.876,0,0,0-2.14-1.89,5.94,5.94,0,0,0-3.56.19c-6.87,2.55-8.71,11.17-12.81,17.24-5.01,7.43-14.02,11.46-18.9,18.97-2.43,3.73-3.7,8.11-6.05,11.89-4.49,7.22-12.36,11.46-19.31,16.36-16.88,11.9-22.77,37.2-17.75,56.62Z" fill="#82b072"/>
          <path id="Trazado_780704-2" data-name="Trazado 780704" d="M289.01,294.73c2.42,2.58,6,3.65,9.43,4.53.07.02.14.04.22.06.21-.14.41-.29.62-.44,6.22-4.63,10.71-11.32,13.64-18.51,1.29-3.15,2.31-6.43,4.1-9.33,3.21-5.2,8.78-9.05,10.39-14.95,1.14-4.18.07-8.77,1.53-12.84,1.86-5.19,7.36-8.31,9.56-13.36,1.78-4.06,1.24-8.99,3.67-12.71.91-1.38,2.19-2.53,2.86-4.05a10.894,10.894,0,0,0,.57-4.89c-.32-8.51-.97-17.72,3.71-24.84.96-1.46,2.2-3.11,1.68-4.79a2.876,2.876,0,0,0-2.14-1.89c-.11.04-.22.07-.33.12-7.81,3.02-10.52,16.59-12.12,23.58-.71,3.13-1.5,6.44-3.74,8.75-1.83,1.88-4.39,2.84-6.44,4.47-9.17,7.31-4.44,23.7-12.75,31.98-2.86,2.84-6.87,4.26-9.88,6.93-5.45,4.84-6.89,13.08-12.41,17.84-1.46,1.26-3.21,2.28-4.22,3.93a11.588,11.588,0,0,0-1.23,5.63c-.25,5.19-.28,10.99,3.26,14.78Z" fill="#729963"/>
        </g>
      </g>
      <g id="Grupo_1046937-2" data-name="Grupo 1046937">
        <g id="Grupo_1046934-2" data-name="Grupo 1046934">
          <path id="Trazado_780705-2" data-name="Trazado 780705" d="M299.03,185.5s8.29-20.05-.01-19.38S291.05,185.05,299.03,185.5Z" fill="#f2aaaa"/>
          <path id="Trazado_780706-2" data-name="Trazado 780706" d="M312.49,169.77s8.29-20.05-.01-19.38S304.51,169.32,312.49,169.77Z" fill="#f2aaaa"/>
          <path id="Trazado_780707-2" data-name="Trazado 780707" d="M297.45,185.84s18.1,11.96,19.03,3.68S299.42,178.09,297.45,185.84Z" fill="#f2aaaa"/>
          <path id="Trazado_780708-2" data-name="Trazado 780708" d="M312.26,170.08s16.99,13.49,18.64,5.32S314.9,162.52,312.26,170.08Z" fill="#f2aaaa"/>
          <path id="Trazado_780709-2" data-name="Trazado 780709" d="M320.63,162.87s19.78,1.36,20.46-6.73C341.79,147.84,324.97,154.41,320.63,162.87Z" fill="#f2aaaa"/>
          <g id="Grupo_1046933-2" data-name="Grupo 1046933">
            <path id="Trazado_780710-2" data-name="Trazado 780710" d="M287.61,200.55s16.77-33.42,43.51-41.86" fill="none" stroke="#2e5373" stroke-linecap="round" stroke-linejoin="round" stroke-width="1"/>
            <path id="Trazado_780711-2" data-name="Trazado 780711" d="M312.21,155.82l-.78,14.08s6.92-3.26,14.95,2.2" fill="none" stroke="#2e5373" stroke-linecap="round" stroke-linejoin="round" stroke-width="1"/>
            <path id="Trazado_780712-2" data-name="Trazado 780712" d="M298.9,171.11l-1.21,13.93s7.62-3.49,15.57,2.56" fill="none" stroke="#2e5373" stroke-linecap="round" stroke-linejoin="round" stroke-width="1"/>
          </g>
        </g>
        <g id="Grupo_1046936-2" data-name="Grupo 1046936">
          <path id="Trazado_780713-2" data-name="Trazado 780713" d="M200.97,185.5s-8.29-20.05.01-19.38S208.95,185.05,200.97,185.5Z" fill="#f2aaaa"/>
          <path id="Trazado_780714-2" data-name="Trazado 780714" d="M187.51,169.77s-8.29-20.05.01-19.38S195.49,169.32,187.51,169.77Z" fill="#f2aaaa"/>
          <path id="Trazado_780715-2" data-name="Trazado 780715" d="M202.55,185.84s-18.1,11.96-19.03,3.68S200.58,178.09,202.55,185.84Z" fill="#f2aaaa"/>
          <path id="Trazado_780716-2" data-name="Trazado 780716" d="M187.74,170.08s-16.99,13.49-18.64,5.32S185.1,162.52,187.74,170.08Z" fill="#f2aaaa"/>
          <path id="Trazado_780717-2" data-name="Trazado 780717" d="M179.37,162.87s-19.78,1.36-20.46-6.73C158.21,147.84,175.03,154.41,179.37,162.87Z" fill="#f2aaaa"/>
          <g id="Grupo_1046935-2" data-name="Grupo 1046935">
            <path id="Trazado_780718-2" data-name="Trazado 780718" d="M212.39,200.55s-16.77-33.42-43.51-41.86" fill="none" stroke="#2e5373" stroke-linecap="round" stroke-linejoin="round" stroke-width="1"/>
            <path id="Trazado_780719-2" data-name="Trazado 780719" d="M187.79,155.82l.78,14.08s-6.92-3.26-14.95,2.2" fill="none" stroke="#2e5373" stroke-linecap="round" stroke-linejoin="round" stroke-width="1"/>
            <path id="Trazado_780720-2" data-name="Trazado 780720" d="M201.1,171.11l1.21,13.93s-7.62-3.49-15.57,2.56" fill="none" stroke="#2e5373" stroke-linecap="round" stroke-linejoin="round" stroke-width="1"/>
          </g>
        </g>
      </g>
    </g>
    <g id="_6449478" data-name="6449478" transform="translate(107.689 818.782)">
      <g id="OBJECTS" transform="translate(114.034 57.65)">
        <g id="Grupo_1046970" data-name="Grupo 1046970">
          <path id="Trazado_780792" data-name="Trazado 780792" d="M388.544,437.13c-42.4,8.311-88.722,12.144-130.988,3.2-4.2-41.744-12.922-103.595-21.567-144.65,18.167-8.756,37.266-11.5,57.389-10.344a375.6,375.6,0,0,1,61.233,8.789q4.2,9.95,7.955,20.089,7.633,20.533,13.378,41.689c5.533,20.278,9.744,60.4,12.6,81.228Z" transform="translate(-97.228 -32.382)" fill="#6cbbd9"/>
          <path id="Trazado_780793" data-name="Trazado 780793" d="M373.879,355.682c-21.922-8.678-52.766-23.789-69.044-45,0,0-2.378,11.511-45.022,12.378l-5.233-32.622,44.744-3.378s8.867,13.411,33.166,21.367a139.295,139.295,0,0,0,28.011,5.567Q368.135,334.526,373.879,355.682Z" transform="translate(-95.163 -32.162)" fill="#1d1d1b" opacity="0.3"/>
          <path id="Trazado_780794" data-name="Trazado 780794" d="M290.54,442.294q-11.767,3.033-23.844,4.911c-.378.067-.756.122-1.133.178-43.933,6.678-90.122,2.122-132.232-11.5.289-4.711.767-24.807,1.611-29.273A1.67,1.67,0,0,1,135,406.3c.044-.256.1-.522.144-.778q3.017-16.367,7.011-32.544c.089-.356.178-.722.278-1.089q2.717-10.9,5.878-21.689c.2-.678.411-1.356.622-2.033.4-1.256.811-2.511,1.267-3.756.122-.356.244-.711.389-1.067,3.756-10.267,9.011-20.078,14.689-29.544.9-1.511,1.822-3.011,2.744-4.5,1.056-1.711,2.122-3.422,3.189-5.111,32.166,4.055,67.044-1.333,96.844-14.089q.933,2.6,1.833,5.222c.2.589.4,1.167.589,1.756.1.256.178.522.267.778h0A382.824,382.824,0,0,1,281.9,338.411c.122.567.244,1.133.356,1.689q3.067,14.416,5,29.033c.055.422.111.833.167,1.255q1.933,14.933,2.667,29.989c.3,6.044.1,35.873.456,41.918Z" transform="translate(-108.634 -31.824)" fill="#b3e3df"/>
          <path id="Trazado_780795" data-name="Trazado 780795" d="M252.735,319.781c-13.9.878-27.889-1.089-41.755.156,2.5-.222,7.511-5.233,9.867-6.6a94.168,94.168,0,0,1,11.244-5.533,97.372,97.372,0,0,1,24.178-6.478,94.717,94.717,0,0,1,25.011-.044c3.433.456,9.233.133,6.778,4.533-1.656,2.967-6.389,5.511-9.267,7.111-7.911,4.389-17.067,6.311-26.033,6.878Z" transform="translate(-100.007 -30.672)" fill="#ffa58d"/>
          <path id="Trazado_780796" data-name="Trazado 780796" d="M252.735,319.781c-13.9.878-27.889-1.089-41.755.156,2.5-.222,7.511-5.233,9.867-6.6a94.168,94.168,0,0,1,11.244-5.533,97.372,97.372,0,0,1,24.178-6.478,94.717,94.717,0,0,1,25.011-.044c3.433.456,9.233.133,6.778,4.533-1.656,2.967-6.389,5.511-9.267,7.111-7.911,4.389-17.067,6.311-26.033,6.878Z" transform="translate(-100.007 -30.672)" fill="#ffa58d"/>
          <path id="Trazado_780797" data-name="Trazado 780797" d="M279.515,364.3a74.258,74.258,0,0,1-10.689-5.411c-2.122-1.289-4.233-2.667-6.311-4.067a101.8,101.8,0,0,0,5.844-8.622c2.178-3.567,4.2-7.278,6.155-10.933-.111-.556-.233-1.122-.356-1.689-2.156,4.011-4.367,8.122-6.756,12.044a98.766,98.766,0,0,1-5.8,8.567c-1.778-1.211-3.522-2.444-5.244-3.656-7.978-5.6-16.233-11.389-25.533-14.811-5.7-2.089-10.467-2.633-14.567-1.644-8.944,2.155-15.067,12.833-12.844,22.4,2.033,8.8,10.311,16.089,20.111,17.755a28.95,28.95,0,0,0,4.833.389A37.925,37.925,0,0,0,250.1,367.18,57.549,57.549,0,0,0,261.838,355.7c2.111,1.433,4.244,2.833,6.411,4.144a74.819,74.819,0,0,0,11.433,5.711c-.056-.422-.111-.833-.167-1.256Zm-30.067,1.978c-8.033,5.767-17.422,8.267-25.733,6.856-9.378-1.589-17.278-8.533-19.222-16.9-2.089-9.011,3.644-19.055,12.022-21.067a16.736,16.736,0,0,1,3.933-.456,29.18,29.18,0,0,1,10,2.056c9.155,3.367,17.344,9.122,25.266,14.678,1.711,1.2,3.444,2.422,5.2,3.622a56.05,56.05,0,0,1-11.467,11.211Z" transform="translate(-100.898 -26.994)" fill="#d3f2ee"/>
          <path id="Trazado_780798" data-name="Trazado 780798" d="M265.009,422.419c-.378.067-.756.122-1.133.178a35.582,35.582,0,0,0-22.133-19.766c-5.633-1.633-11.833-1.867-17.822-2.111-9.378-.367-19.089-.744-26.533-6.567-6.222-4.867-9.244-12.355-12.178-19.6-2.189-5.422-4.444-11.022-8.033-15.533-4.778-6.011-11.8-9.978-18.6-13.822-3.411-1.922-6.878-3.878-10.067-6.111.122-.356.244-.711.389-1.067,3.156,2.222,6.644,4.189,10.222,6.211,6.889,3.889,14.011,7.922,18.933,14.1,3.678,4.644,5.978,10.311,8.189,15.8,3,7.444,5.844,14.467,11.833,19.155,7.167,5.589,16.255,5.956,25.889,6.322,6.055.244,12.322.489,18.089,2.156C252.287,404.72,260.787,412.686,265.009,422.419Z" transform="translate(-106.947 -26.5)" fill="#d3f2ee"/>
          <path id="Trazado_780799" data-name="Trazado 780799" d="M169.913,390.6c-.722,5.856-7.244,9.111-13.389,9.733a42.2,42.2,0,0,1-4.267.211,97.294,97.294,0,0,1-17.011-2.022c-.156-.022-.311-.056-.467-.089a1.674,1.674,0,0,1,.056-.311c.044-.256.1-.522.144-.778.156.033.3.067.456.089,6.911,1.233,14.044,2.5,20.978,1.8,5.7-.589,11.755-3.522,12.4-8.778.467-3.778-2.133-7.311-4.133-9.644A57.068,57.068,0,0,0,141.991,364.8c.089-.356.178-.722.278-1.089a58.266,58.266,0,0,1,23.255,16.378C167.658,382.576,170.435,386.376,169.913,390.6Z" transform="translate(-108.473 -23.646)" fill="#d3f2ee"/>
          <path id="Trazado_780800" data-name="Trazado 780800" d="M271.725,293.76c-.622.211-1.544,1.722-2.544,3.689h0c-1.911,3.778-4.089,9.244-4.989,10.644a97.093,97.093,0,0,1-10.333,13.444,100.643,100.643,0,0,1-26.7,20.778c-22.244,11.911-46.111,18.722-70.911,9.855a38.486,38.486,0,0,1-8.878-4.411c3.789-12.022,9.789-23.422,16.344-34.366,3.267-.533,6.6-.833,9.878-1.122,8.055-.7,16.489-2.244,24.555-1.267a47.3,47.3,0,0,0,18.778-1.089q26-6.383,51.4-15C269.458,294.538,270.591,294.149,271.725,293.76Z" transform="translate(-107.074 -31.418)" fill="#1d1d1b" opacity="0.3"/>
          <path id="Trazado_780801" data-name="Trazado 780801" d="M259.321,189.449c-1.244,2.422-4.189,3.489-6.911,3.633a37.505,37.505,0,0,1-4.322-.122,25.971,25.971,0,0,0-3.833-.044c-7.233.6-13.067,6.411-20.2,7.733-3.778.689-7.656.078-11.489-.056a67.061,67.061,0,0,0-11.489.911,62.611,62.611,0,0,1-13.389.922c-.878-.056-1.756-.156-2.644-.3-2.722-.444-5.544-1.856-8.255-2.011-2.111-.122-4.733.567-6.822.922-5.8.989-11.444,2.767-17.244,3.8a68.024,68.024,0,0,1-35.889-3.411c-1.822-.7-3.711-1.544-4.8-3.156-2.067-3.056-.356-7.244,1.9-10.155s5.178-5.678,5.656-9.344c.722-5.589-4.556-10.367-4.822-16-.222-4.6,2.922-8.622,6.111-11.944s6.756-6.711,7.767-11.2c.933-4.156-.511-8.422-1.1-12.633a32.292,32.292,0,0,1,7.611-25.5,29.835,29.835,0,0,1,12.355-8,38.831,38.831,0,0,1,13.411-2.289c11.822-6.822,26.167-9.767,39.444-6.544s25.111,13.078,29.278,26.078c2.167,6.744,2.344,14.222,5.956,20.311,4,6.778,11.855,11.144,14.178,18.655,1.378,4.467.533,9.278.844,13.944a27.952,27.952,0,0,0,4.644,13.611,47.28,47.28,0,0,1,3.722,5.656,7.557,7.557,0,0,1,.333,6.533Z" transform="translate(-111.103 -54.795)" fill="#193f63"/>
          <path id="Trazado_780802" data-name="Trazado 780802" d="M239.77,185.64a5.906,5.906,0,0,1-.056.989,25.978,25.978,0,0,0-3.833-.044c-7.233.6-13.067,6.411-20.2,7.733-3.778.689-7.655.078-11.489-.056a67.064,67.064,0,0,0-11.489.911,26.541,26.541,0,0,1-6.2-15.355c-.633-11.744,6.656-23.167,16.967-28.811,2.744-1.5,5.378-2.733,7.133-5.422,1.556-2.367,2.211-5.1,5.578-5.244,6.156-.278,10.467,8.9,11.155,13.878.522,3.867-.122,7.911,1.056,11.644,2.344,7.367,11.355,12.033,11.378,19.778Z" transform="translate(-102.73 -48.464)" fill="#1d1d1b" opacity="0.3"/>
          <path id="Trazado_780803" data-name="Trazado 780803" d="M187.688,201.413c-.878-.056-1.756-.156-2.644-.3-2.722-.444-5.544-1.856-8.255-2.011-2.111-.122-4.733.567-6.822.922-5.8.989-11.444,2.767-17.244,3.8a68.024,68.024,0,0,1-35.889-3.411c-1.822-.7-3.711-1.544-4.8-3.156-2.067-3.056-.356-7.244,1.9-10.155s5.178-5.678,5.656-9.344c.722-5.589-4.556-10.367-4.822-16-.222-4.6,2.922-8.622,6.111-11.944s6.755-6.711,7.767-11.2c.933-4.156-.511-8.422-1.1-12.633a32.292,32.292,0,0,1,7.611-25.5,29.835,29.835,0,0,1,12.355-8c-4.222,3.878-7.511,8.911-8.144,14.7-.622,5.733,1.433,11.367,3.044,16.9.378,1.3.733,2.644,1.022,3.989a23.5,23.5,0,0,1,.189,10.722,13.433,13.433,0,0,1-.756,2.222c-1.822,4.178-5.522,7.178-8.478,10.656s-5.267,8.244-3.6,12.489c1.644,4.178,6.389,6.078,9.489,9.322,3.344,3.511,4.733,8.611,8.311,11.889,3.511,3.233,8.555,4.178,13.322,4.322s9.6-.356,14.278.567,9.389,3.678,10.955,8.178a9.847,9.847,0,0,1,.544,2.978Z" transform="translate(-111.103 -53.781)" fill="#1d1d1b" opacity="0.3"/>
          <path id="Trazado_780804" data-name="Trazado 780804" d="M271.515,84.072C282.6,74.038,299.593,71.361,313.5,76.861s24.333,18.655,27.189,33.333-1.644,30.466-11.278,41.911c-6.378,7.578-15.233,13.455-25.078,14.622-13.978-8.355-27.522-20.355-34.566-35.044s-10.333-36.689,1.744-47.622Z" transform="translate(-94.176 -55.828)" fill="#193f63"/>
          <path id="Trazado_780805" data-name="Trazado 780805" d="M324.416,217.615c8.856,1.978,18.267,2.056,26.867-.822s16.311-8.889,20.322-17.022,3.933-18.4-1.022-25.989c-2.944-4.5-7.489-8.133-8.889-13.322-1.644-6.089,1.544-12.333,4.778-17.744s6.767-11.333,5.844-17.567c-1.833-12.5-19.789-17.6-21.567-30.1-.633-4.511,1.078-9.011,1.289-13.555.411-8.867-5.333-17.455-13.322-21.3s-17.778-3.167-25.655.922-13.878,11.311-17.4,19.455c-7.144,16.522-17.933,30.978-17.811,48.989s5.378,35.678,13,51.989c6.7,14.333,18.122,32.644,33.555,36.1Z" transform="translate(-92.577 -57.65)" fill="#193f63"/>
          <path id="Trazado_780806" data-name="Trazado 780806" d="M361.694,159.648a15.53,15.53,0,0,1,.433-8.711,40.085,40.085,0,0,1-2.322-3.844c-2.222-5.555,3.333-12.222,2.222-17.778-3.333-10-16.667-13.333-20-22.222-5.556-11.111-3.333-24.444-10-34.444-7.022-7.9-18.189-9.533-27.5-6.056a42.384,42.384,0,0,0-8.867,13.155c-7.144,16.522-17.933,30.978-17.811,48.989s5.378,35.678,13,51.988c6.7,14.333,18.122,32.644,33.555,36.1,8.855,1.978,18.266,2.056,26.866-.822s16.311-8.889,20.322-17.022,3.933-18.4-1.022-26c-2.944-4.5-7.489-8.133-8.889-13.322Z" transform="translate(-92.577 -56.849)" fill="#1d1d1b" opacity="0.3"/>
          <path id="Trazado_780807" data-name="Trazado 780807" d="M302.311,208.266A28.171,28.171,0,0,1,273.3,198.6a49.749,49.749,0,0,0,2.767-9.022,54.091,54.091,0,0,0,1-15.411,212.923,212.923,0,0,0,19.878-14.155A124.187,124.187,0,0,0,320.633,135.5a105.962,105.962,0,0,0,1.733,49.711c2.911,10.411-9.633,20.189-20.056,23.055Z" transform="translate(-93.083 -49.001)" fill="#ffa58d"/>
          <path id="Trazado_780808" data-name="Trazado 780808" d="M315.756,147.82c-2.211,10.433-6.722,20.578-14.133,28.244-6.778,7.011-16.144,11.767-25.833,12.144a54.09,54.09,0,0,0,1-15.411,212.933,212.933,0,0,0,19.878-14.155A197.252,197.252,0,0,0,315.756,147.82Z" transform="translate(-92.806 -47.632)" fill="#1d1d1b" opacity="0.3"/>
          <path id="Trazado_780809" data-name="Trazado 780809" d="M409.123,294.527c-.033,7.678-1.144,15.655-5.722,22.033-7.989,11.156-25.044,10.233-37.033,9.3-14.733-1.156-29.078-5.933-42.722-11.6-6.067-2.522-11.978-9.344-18.444-10.255-7.211-1.011-14.055.367-20.322-3.2a106.2,106.2,0,0,1-9.322-5.978c-12.133-8.667-22.5-19.555-32.244-30.855-9.867-11.456-19.155-23.4-28.2-35.522-6.733-9.033-13.6-18.944-13.833-30.2a213.539,213.539,0,0,1,19.689-8.3c1.944-.7,3.911-1.367,5.878-1.989a132.215,132.215,0,0,1,29.566-6.089,63.022,63.022,0,0,1,27.1,3.722,20.234,20.234,0,0,0,15.244,11.589,24.862,24.862,0,0,0,18.767-5.011A32.444,32.444,0,0,0,328.5,175.85c9.255,2.522,19.322,1.344,28.811,2.767s19.267,4.433,25.867,11.4c7.322,7.711,9.489,18.811,11.833,29.189,5.656,24.978,14.2,49.711,14.111,75.322Z" transform="translate(-101.084 -44.518)" fill="#6cbbd9"/>
          <g id="Grupo_1046967" data-name="Grupo 1046967" transform="translate(119.884 140.45)">
            <path id="Trazado_780810" data-name="Trazado 780810" d="M337.368,331.894c.745-.744,1.756-1.489,2.756-1.156,1.244.422,1.389,2.111,1.189,3.4a20.684,20.684,0,0,1-4.789,10.278c-1.022,1.178-2.633,2.311-4.011,1.6-4.533-2.344,2.989-12.255,4.855-14.122Z" transform="translate(-206.547 -167.769)" fill="#1d1d1b" opacity="0.3"/>
            <path id="Trazado_780811" data-name="Trazado 780811" d="M329.109,285.674c.745-.744,1.756-1.489,2.756-1.156,1.244.422,1.389,2.111,1.189,3.4a20.683,20.683,0,0,1-4.789,10.278c-1.022,1.178-2.633,2.311-4.011,1.6-4.533-2.344,2.989-12.256,4.856-14.122Z" transform="translate(-207.465 -172.904)" fill="#1d1d1b" opacity="0.3"/>
            <path id="Trazado_780812" data-name="Trazado 780812" d="M329.929,248.7c.744-.744,1.755-1.489,2.755-1.156,1.245.422,1.389,2.111,1.189,3.4a20.683,20.683,0,0,1-4.789,10.278c-1.022,1.178-2.633,2.311-4.011,1.6C320.54,260.481,328.062,250.57,329.929,248.7Z" transform="translate(-207.374 -177.011)" fill="#1d1d1b" opacity="0.3"/>
            <path id="Trazado_780813" data-name="Trazado 780813" d="M334.049,187.074c.744-.744,1.756-1.489,2.756-1.156,1.244.422,1.389,2.111,1.189,3.4A20.683,20.683,0,0,1,333.2,199.6c-1.022,1.178-2.633,2.311-4.011,1.6-4.533-2.344,2.989-12.255,4.855-14.122Z" transform="translate(-206.916 -183.859)" fill="#1d1d1b" opacity="0.3"/>
            <path id="Trazado_780814" data-name="Trazado 780814" d="M310.269,312.164c.744-.744,1.756-1.489,2.756-1.156,1.244.422,1.389,2.111,1.189,3.4a20.683,20.683,0,0,1-4.789,10.278c-1.022,1.178-2.633,2.311-4.011,1.6C300.88,323.941,308.4,314.03,310.269,312.164Z" transform="translate(-209.558 -169.961)" fill="#1d1d1b" opacity="0.3"/>
            <path id="Trazado_780815" data-name="Trazado 780815" d="M374.949,290.364c.745-.744,1.756-1.489,2.756-1.155,1.244.422,1.389,2.111,1.189,3.4a20.684,20.684,0,0,1-4.789,10.278c-1.022,1.178-2.633,2.311-4.011,1.6-4.533-2.344,2.989-12.255,4.855-14.122Z" transform="translate(-202.372 -172.383)" fill="#1d1d1b" opacity="0.3"/>
            <path id="Trazado_780816" data-name="Trazado 780816" d="M352.719,228.3c.744-.744,1.756-1.489,2.756-1.156,1.244.422,1.389,2.111,1.189,3.4a20.682,20.682,0,0,1-4.789,10.278c-1.022,1.178-2.633,2.311-4.011,1.6-4.533-2.344,2.989-12.255,4.856-14.122Z" transform="translate(-204.842 -179.278)" fill="#1d1d1b" opacity="0.3"/>
            <path id="Trazado_780817" data-name="Trazado 780817" d="M258.089,185.294c.744-.744,1.756-1.489,2.756-1.156,1.244.422,1.389,2.111,1.189,3.4a20.683,20.683,0,0,1-4.789,10.278c-1.022,1.178-2.633,2.311-4.011,1.6-4.533-2.344,2.989-12.255,4.855-14.122Z" transform="translate(-215.356 -184.056)" fill="#1d1d1b" opacity="0.3"/>
            <path id="Trazado_780818" data-name="Trazado 780818" d="M296.5,216.484c.744-.744,1.755-1.489,2.755-1.156,1.244.422,1.389,2.111,1.189,3.4a20.684,20.684,0,0,1-4.789,10.278c-1.022,1.178-2.633,2.311-4.011,1.6C287.11,228.261,294.632,218.35,296.5,216.484Z" transform="translate(-211.088 -180.591)" fill="#1d1d1b" opacity="0.3"/>
            <path id="Trazado_780819" data-name="Trazado 780819" d="M265.489,218.754c.744-.744,1.756-1.489,2.756-1.156,1.244.422,1.389,2.111,1.189,3.4a20.684,20.684,0,0,1-4.789,10.278c-1.022,1.178-2.633,2.311-4.011,1.6-4.533-2.344,2.989-12.255,4.856-14.122Z" transform="translate(-214.533 -180.339)" fill="#1d1d1b" opacity="0.3"/>
            <path id="Trazado_780820" data-name="Trazado 780820" d="M315.6,370.3c.744-.744,1.756-1.489,2.756-1.156,1.244.422,1.389,2.111,1.189,3.4a20.683,20.683,0,0,1-4.789,10.278c-1.022,1.178-2.633,2.311-4.011,1.6C306.21,382.081,313.732,372.17,315.6,370.3Z" transform="translate(-208.966 -163.501)" fill="#1d1d1b" opacity="0.3"/>
            <path id="Trazado_780821" data-name="Trazado 780821" d="M340.679,391.084c.744-.744,1.756-1.489,2.756-1.156,1.244.422,1.389,2.111,1.189,3.4a20.684,20.684,0,0,1-4.789,10.278c-1.022,1.178-2.633,2.311-4.011,1.6C331.29,402.861,338.812,392.95,340.679,391.084Z" transform="translate(-206.179 -161.192)" fill="#1d1d1b" opacity="0.3"/>
            <path id="Trazado_780822" data-name="Trazado 780822" d="M283.3,374.624c.744-.744,1.755-1.489,2.756-1.156,1.244.422,1.389,2.111,1.189,3.4a20.683,20.683,0,0,1-4.789,10.278c-1.022,1.178-2.633,2.311-4.011,1.6-4.533-2.344,2.989-12.255,4.856-14.122Z" transform="translate(-212.555 -163.021)" fill="#1d1d1b" opacity="0.3"/>
            <path id="Trazado_780823" data-name="Trazado 780823" d="M295.748,348.194c-.756-.722-1.522-1.722-1.211-2.722.389-1.256,2.078-1.433,3.378-1.267a20.686,20.686,0,0,1,10.389,4.556c1.2,1,2.367,2.578,1.689,3.978-2.244,4.578-12.322-2.711-14.233-4.544Z" transform="translate(-210.615 -166.269)" fill="#1d1d1b" opacity="0.3"/>
            <path id="Trazado_780824" data-name="Trazado 780824" d="M345.268,280.094c-.756-.722-1.522-1.722-1.211-2.722.389-1.256,2.078-1.433,3.378-1.267a20.727,20.727,0,0,1,10.389,4.555c1.2,1,2.367,2.578,1.689,3.978-2.245,4.578-12.322-2.711-14.233-4.544Z" transform="translate(-205.114 -173.835)" fill="#1d1d1b" opacity="0.3"/>
            <path id="Trazado_780825" data-name="Trazado 780825" d="M314.288,224.034c-.756-.722-1.522-1.722-1.211-2.722.389-1.256,2.078-1.433,3.378-1.267a20.727,20.727,0,0,1,10.389,4.556c1.2,1,2.367,2.578,1.689,3.978-2.244,4.578-12.322-2.711-14.233-4.544Z" transform="translate(-208.556 -180.064)" fill="#1d1d1b" opacity="0.3"/>
            <path id="Trazado_780826" data-name="Trazado 780826" d="M298.848,252.374c-.756-.722-1.522-1.722-1.211-2.722.389-1.256,2.078-1.433,3.378-1.267a20.726,20.726,0,0,1,10.389,4.556c1.2,1,2.367,2.578,1.689,3.978-2.244,4.578-12.322-2.711-14.233-4.544Z" transform="translate(-210.271 -176.915)" fill="#1d1d1b" opacity="0.3"/>
            <path id="Trazado_780827" data-name="Trazado 780827" d="M352.348,207.374c-.756-.722-1.522-1.722-1.211-2.722.389-1.256,2.078-1.433,3.378-1.267a20.686,20.686,0,0,1,10.389,4.556c1.2,1,2.367,2.578,1.689,3.978-2.244,4.578-12.322-2.711-14.233-4.544Z" transform="translate(-204.327 -181.915)" fill="#1d1d1b" opacity="0.3"/>
            <path id="Trazado_780828" data-name="Trazado 780828" d="M291.088,402.264c-.756-.722-1.522-1.722-1.211-2.722.389-1.256,2.078-1.433,3.378-1.267a20.685,20.685,0,0,1,10.389,4.556c1.2,1,2.367,2.578,1.689,3.978-2.244,4.578-12.322-2.711-14.233-4.544Z" transform="translate(-211.133 -160.262)" fill="#1d1d1b" opacity="0.3"/>
            <path id="Trazado_780921" data-name="Trazado 780921" d="M291.088,402.264c-.756-.722-1.522-1.722-1.211-2.722.389-1.256,2.078-1.433,3.378-1.267a20.685,20.685,0,0,1,10.389,4.556c1.2,1,2.367,2.578,1.689,3.978-2.244,4.578-12.322-2.711-14.233-4.544Z" transform="translate(-138.15 -152.477)" fill="#1d1d1b" opacity="0.3"/>
            <path id="Trazado_780829" data-name="Trazado 780829" d="M267.918,318.984c-.756-.722-1.522-1.722-1.211-2.722.389-1.256,2.078-1.433,3.378-1.267a20.685,20.685,0,0,1,10.389,4.556c1.2,1,2.367,2.578,1.689,3.978-2.244,4.578-12.322-2.711-14.233-4.544Z" transform="translate(-213.707 -169.514)" fill="#1d1d1b" opacity="0.3"/>
            <path id="Trazado_780830" data-name="Trazado 780830" d="M367.5,252.374c-.756-.722-1.522-1.722-1.211-2.722.389-1.256,2.078-1.433,3.378-1.267a20.726,20.726,0,0,1,10.389,4.556c1.2,1,2.367,2.578,1.689,3.978-2.245,4.578-12.322-2.711-14.233-4.544Z" transform="translate(-202.644 -176.915)" fill="#1d1d1b" opacity="0.3"/>
            <path id="Trazado_780831" data-name="Trazado 780831" d="M234.322,194.75c-2.244,4.578-12.322-2.711-14.233-4.544A4.634,4.634,0,0,1,219,188.739c1.944-.7,3.911-1.367,5.878-1.989a20.71,20.71,0,0,1,7.756,4.022C233.833,191.772,235,193.35,234.322,194.75Z" transform="translate(-219 -183.757)" fill="#1d1d1b" opacity="0.3"/>
            <path id="Trazado_780832" data-name="Trazado 780832" d="M338.2,364.564c-.756-.722-1.522-1.722-1.211-2.722.389-1.256,2.078-1.433,3.378-1.267a20.685,20.685,0,0,1,10.389,4.556c1.2,1,2.367,2.578,1.689,3.978-2.244,4.578-12.322-2.711-14.233-4.544Z" transform="translate(-205.899 -164.45)" fill="#1d1d1b" opacity="0.3"/>
          </g>
          <path id="Trazado_780833" data-name="Trazado 780833" d="M229.008,206.381c-6.8,12.433-21.144,22.344-35.289,21.578a38.66,38.66,0,0,1-32.9-23.278c4.822-14.933,5.233-32.722,0-47.511,12.522,11.711,30.789,18.022,47.744,15.489a23.432,23.432,0,0,0-1.367,4.922h-.011a25.12,25.12,0,0,0,3.167,17.044A23.063,23.063,0,0,0,212,196.992a25.1,25.1,0,0,0,17,9.389Z" transform="translate(-105.58 -46.593)" fill="#ffa58d"/>
          <path id="Trazado_780834" data-name="Trazado 780834" d="M211.438,195.867a63.678,63.678,0,0,1-15.6-3.544,66.227,66.227,0,0,1-16.711-8.967,64.81,64.81,0,0,1-7.222-6.178c-1.633-1.633-5.444-4.689-5.867-7.033-.689-3.733,3.3-3.022,5.3-2.167a111.675,111.675,0,0,0,10.767,4,106.069,106.069,0,0,0,21.778,4.333c.9.078,1.822.144,2.744.144a25.12,25.12,0,0,0,3.167,17.044,23.06,23.06,0,0,0,1.644,2.367Z" transform="translate(-105.009 -45.469)" fill="#1d1d1b" opacity="0.3"/>
          <path id="Trazado_780835" data-name="Trazado 780835" d="M293.709,289.866c-3.678,9.133-12.611,14.555-22,18.244-2.033.8-4.1,1.522-6.133,2.178-31.511,10.178-63.777,12.833-96.322,10.044-3.867-.322-7.733-.733-11.611-1.211q-6.55-.8-13-2.144c-1.822-5.6-3.644-11.244-5.422-16.922-.111-.367-.222-.733-.333-1.089-2.522-8.067-4.944-16.211-7.122-24.411-.122-.4-.233-.811-.322-1.211-4.356-16.478-7.733-33.178-8.978-49.911-.611-8.233-.5-17.189,4.456-23.789,3.333-4.433,8.467-7.122,13.955-8.244.567-.111,1.156-.211,1.733-.3a29.2,29.2,0,0,1,4.167-.3c7.022-.033,13.933,1.567,20.967,1.033,2.711,7.922,8.478,13.7,16.055,17.267,6.811,3.2,14.567,5.144,21.878,3.378s15.055-8,15.367-15.522c4.733,2.833,10.111,3.844,15.667,4.322l1.367.1c6,.411,12.178.333,17.967,1.322.4.067.8.133,1.2.222a28.906,28.906,0,0,1,9.444,3.478,22.614,22.614,0,0,1,2.811,2h0c.378.289.756.611,1.122.944a36.249,36.249,0,0,1,6.667,8.411c.222.378.433.756.656,1.133a77.654,77.654,0,0,1,3.489,7.178c5.244,12.144,8.778,24.967,11.789,37.855,2.011,8.556,3.756,17.789.478,25.944Z" transform="translate(-109.87 -42.857)" fill="#b3e3df"/>
          <g id="Grupo_1046968" data-name="Grupo 1046968" transform="translate(21.574 148.243)">
            <path id="Trazado_780836" data-name="Trazado 780836" d="M171.609,216.459c-1.889-4.556-5.644-8.078-9.411-11.211a141.037,141.037,0,0,0-20.511-14.178c-.578.089-1.167.189-1.733.3A140.608,140.608,0,0,1,161.486,206.1c3.667,3.044,7.3,6.456,9.1,10.778,1.611,3.878,1.656,9.522-2.044,12.789-2.756,2.422-6.578,2.656-10.355,1.656,1.389-4.478,2.678-10.233.422-15.111a10.162,10.162,0,0,0-7.144-5.467,6.721,6.721,0,0,0-6.1,1.578c-2.3,2.178-2.889,6.056-1.411,9.433,1.444,3.344,4.422,5.667,6.522,7.133a25.154,25.154,0,0,0,6.322,3.167,97.765,97.765,0,0,1-26.278,41.255c.089.4.2.811.322,1.211a99,99,0,0,0,27.022-42.155c4.122,1.111,8.344.833,11.411-1.867,4.111-3.622,4.1-9.822,2.333-14.044ZM157.131,231a23.912,23.912,0,0,1-6.022-3.022c-3.167-2.2-5.122-4.322-6.144-6.667-1.278-2.956-.811-6.322,1.156-8.178A5.385,5.385,0,0,1,149.9,211.7a7.181,7.181,0,0,1,1.356.133,9.158,9.158,0,0,1,6.344,4.844C159.7,221.214,158.453,226.714,157.131,231Z" transform="translate(-130.52 -191.07)" fill="#d3f2ee"/>
            <path id="Trazado_780837" data-name="Trazado 780837" d="M268.156,217.841a32.163,32.163,0,0,0-3.422.067c-7.522.522-15.267,3.2-23.689,8.156-.811.489-1.633.989-2.444,1.478-4.5,2.744-9.144,5.578-14.444,6.133a14.277,14.277,0,0,1-10.689-3.478,8.8,8.8,0,0,1-3.078-6.711c.067-3.711,2.433-6.778,5.055-9.844l11.467-13.411,1.367.1L216.29,214.363c-2.489,2.911-4.722,5.8-4.789,9.133a7.78,7.78,0,0,0,2.711,5.878,13.111,13.111,0,0,0,9.833,3.189c5.044-.522,9.589-3.289,13.978-5.967.822-.5,1.633-1,2.456-1.489,8.578-5.044,16.489-7.767,24.178-8.311.956-.067,1.9-.1,2.844-.089C267.723,217.085,267.934,217.463,268.156,217.841Z" transform="translate(-121.646 -190.052)" fill="#d3f2ee"/>
            <path id="Trazado_780838" data-name="Trazado 780838" d="M237.5,252.879l-.456,1.011-42.933-19.244c-3.922-1.767-7.744-3.267-11.4-2.4-6.911,1.656-9.067,10.033-10.967,17.422l-.211.789c-4.822,18.689-17.489,35.144-33.978,45.144-.111-.367-.222-.733-.333-1.089,16.133-9.878,28.511-26.022,33.244-44.333l.2-.789c1.878-7.311,4.222-16.422,11.789-18.222,4.322-1.033,8.822.989,12.111,2.456L237.5,252.879Z" transform="translate(-129.776 -186.646)" fill="#d3f2ee"/>
            <path id="Trazado_780839" data-name="Trazado 780839" d="M257.249,208.154a25.789,25.789,0,0,1-3.322.389q-.65.033-1.267.033a10.857,10.857,0,0,1-6.989-2.011,8.744,8.744,0,0,1-3.011-5.055c.4.067.8.133,1.2.222a7.376,7.376,0,0,0,2.5,3.967c1.711,1.356,4.167,1.922,7.5,1.733.756-.044,1.5-.122,2.256-.222h0c.378.289.756.611,1.122.944Z" transform="translate(-118.061 -189.91)" fill="#d3f2ee"/>
          </g>
          <path id="Trazado_780840" data-name="Trazado 780840" d="M308.771,306.014c-7.433,9.8-14.755,6.744-26.978,8.1s-24.566-1.144-36.333-4.733-23.178-8.278-35.066-11.455a91.987,91.987,0,0,1-12.344-3.733c-.7-.289-1.378-.611-2.044-.956-4.5-2.311-8.522-6.111-9.744-11.011-1.389-5.533.967-11.278,3.644-16.311,4.278-8.078,6.344-18.789,14.011-23.755,10.111-6.544,22.278-9.456,34.311-9.678a100.336,100.336,0,0,1,19.622,1.689c2.411.422,4.822.922,7.211,1.478,2.933.678,5.844,1.444,8.733,2.278,8.411,2.411,16.767,5.378,24.155,10.056a51,51,0,0,1,4.444,3.144,41.117,41.117,0,0,1,12.8,16.144C319.338,277.137,315.238,297.492,308.771,306.014Z" transform="translate(-102.799 -38.228)" fill="#ffe9e3"/>
          <path id="Trazado_780841" data-name="Trazado 780841" d="M307.551,304.154c-7.433,9.8-14.755,6.744-26.978,8.1s-24.567-1.144-36.333-4.733-23.178-8.278-35.066-11.455a91.982,91.982,0,0,1-12.344-3.733l1.111-2.2c15.644,3.089,31.589,6.189,47.444,4.444s31.9-9.144,40.189-22.767c3.9-6.389,5.944-13.867,10.533-19.778a6.6,6.6,0,0,1,3.556-2.722,4.077,4.077,0,0,1,1.511-.044,41.117,41.117,0,0,1,12.8,16.144c4.145,9.867.044,30.222-6.422,38.744Z" transform="translate(-101.579 -36.367)" fill="#1d1d1b" opacity="0.9"/>
          <path id="Trazado_780842" data-name="Trazado 780842" d="M209.71,281.477a28.4,28.4,0,0,0,10.1-11.078c2.156-4.578,2.555-10.122.333-14.667S212.821,248,207.81,248.7a1.538,1.538,0,0,0-.956.389c-.511.578-.022,1.456.422,2.089,2.6,3.789,2.856,8.811,1.667,13.255s-3.656,8.411-6.189,12.255c-1.956,2.967-6.167,7.644-6.344,11.233,1.767.389,4.833-1.756,6.456-2.544a58.751,58.751,0,0,0,6.856-3.889Z" transform="translate(-101.626 -36.435)" fill="#1d1d1b" opacity="0.7"/>
          <path id="Trazado_780843" data-name="Trazado 780843" d="M252.251,92.3c-9.122,11.778-9.711,28.066-5.044,42.033a20.847,20.847,0,0,0,3.511,6.911,9.242,9.242,0,0,0,6.689,3.522c3.589.056,6.622-2.556,9.033-5.211,8.478-9.389,13.689-21.289,17.344-33.389,1.467-4.844,2.7-9.989,1.567-14.911-3.178-13.811-21.266-10.567-29.211-3.189a35.7,35.7,0,0,0-3.889,4.244Z" transform="translate(-96.301 -54.977)" fill="#193f63"/>
          <path id="Trazado_780844" data-name="Trazado 780844" d="M252.251,92.3c-9.122,11.778-9.711,28.066-5.044,42.033a20.847,20.847,0,0,0,3.511,6.911,9.242,9.242,0,0,0,6.689,3.522c3.589.056,6.622-2.556,9.033-5.211,8.478-9.389,13.689-21.289,17.344-33.389,1.467-4.844,2.7-9.989,1.567-14.911-3.178-13.811-21.266-10.567-29.211-3.189a35.7,35.7,0,0,0-3.889,4.244Z" transform="translate(-96.301 -54.977)" fill="#1d1d1b" opacity="0.3"/>
          <path id="Trazado_780845" data-name="Trazado 780845" d="M266.256,92.034s-16.566,6.1-16.566,49.9,29.878,46.577,32.089,46.577,31.6-3.322,41.311-44.077-21.067-68.477-56.833-52.4Z" transform="translate(-95.706 -54.346)" fill="#ffa58d"/>
          <path id="Trazado_780846" data-name="Trazado 780846" d="M284.3,119.315a44.35,44.35,0,0,0,34.989,4.256q-12.5-8.85-25-17.689c-4.067-2.878-8.133-5.756-12.322-8.444-3.044-1.956-8.211-6.478-12.055-5.811-9.733,1.7.922,15.511,3.822,18.844A43.637,43.637,0,0,0,284.3,119.315Z" transform="translate(-93.905 -53.883)" fill="#1d1d1b" opacity="0.3"/>
          <path id="Trazado_780847" data-name="Trazado 780847" d="M264.6,93.512s15.167,32.022,53.555,33.078c5.7.156,14.189-.367,16.222-6.933,1.811-5.856,1.444-16.055-4.333-24.955-7.578-11.655-13.678-15.944-27.666-19.722-13.389-3.622-32.689,4.156-37.777,18.533" transform="translate(-94.049 -55.823)" fill="#193f63"/>
          <path id="Trazado_780848" data-name="Trazado 780848" d="M226.872,159.13c.189,20.089-6.544,30.211-19.289,32.8-14.822,3.011-35.644-7.978-45.844-22.722-12.644-18.289-28.333-72.466,28.978-77.877,0,0,27.378,9.233,33.744,44.889q.983,5.517,1.567,10.411A113.637,113.637,0,0,1,226.872,159.13Z" transform="translate(-106.81 -53.908)" fill="#ffa58d"/>
          <path id="Trazado_780849" data-name="Trazado 780849" d="M311.669,139.232a22.247,22.247,0,0,0,14.4-7.2,13.669,13.669,0,0,0,3.511-6.589,7.822,7.822,0,0,0-2-6.978c-2.367-2.278-6.278-2.344-9.178-.789a14.921,14.921,0,0,0-6.189,7.422c-1.789,4.111-.078,9.667-.533,14.133Z" transform="translate(-88.852 -51.099)" fill="#ffa58d"/>
          <path id="Trazado_780850" data-name="Trazado 780850" d="M320.392,119.583a3.408,3.408,0,0,1,2.556,2.067,6.031,6.031,0,0,1,.311,3.378,8.3,8.3,0,0,1-1.489,3.744,2.172,2.172,0,0,1-2.222,1.078,2.246,2.246,0,0,1-1.167-1.278c-1-2.122-2.333-9.533,2-8.989Z" transform="translate(-88.186 -50.773)" fill="#1d1d1b" opacity="0.3"/>
          <path id="Trazado_780851" data-name="Trazado 780851" d="M184.089,115.783c-3.011,2.011-6.656,3.067-9.322,5.511-3.678,3.389-4.722,8.678-6.778,13.233A30.352,30.352,0,0,1,152.8,149.683c3.033-9.967.711-21.567,6.344-30.333,3.6-5.6,9.778-8.889,15.655-12.011a68.039,68.039,0,0,0,8.644-5.2,29.028,29.028,0,0,0,3.744-3.256c.967-1.011,1.989-3.144,3.278-3.433,3.589,6.656-.556,16.433-6.389,20.322Z" transform="translate(-106.471 -53.451)" fill="#1d1d1b" opacity="0.3"/>
          <path id="Trazado_780852" data-name="Trazado 780852" d="M182.393,114.553c-4.756,2.867-10.933,4.089-13.878,8.789-2.089,3.333-1.944,7.533-2.633,11.411a26.225,26.225,0,0,1-8.967,15.478c-1.956,1.622-4.378,3.011-6.9,2.678-2.633-.344-4.656-2.489-6.078-4.722a28.574,28.574,0,0,1-3.778-19.1,42.141,42.141,0,0,1,7.567-18.189,55.991,55.991,0,0,1,25.955-19.933c3.911-1.478,11.022-4.478,15.178-2.7,4.222,1.811,3.911,8.011,3.244,11.733a21.464,21.464,0,0,1-9.7,14.544Z" transform="translate(-107.908 -54.31)" fill="#193f63"/>
          <path id="Trazado_780853" data-name="Trazado 780853" d="M219.073,125.007A43.856,43.856,0,0,0,181.818,88.34c-.622-.089-.089,5.456.5,6.156,1.011,1.2,3.678,1.578,5.078,2.167a65.141,65.141,0,0,1,12.544,7.067A66.109,66.109,0,0,1,219.073,125.007Z" transform="translate(-103.278 -54.241)" fill="#193f63"/>
          <path id="Trazado_780854" data-name="Trazado 780854" d="M316.594,270.808a160.491,160.491,0,0,1-11.855-22.144c-1.422-3.244-2.789-6.611-5.267-9.133-4.356-4.422-11.067-5.278-17.244-5.878-3.033-.3-6.244-.489-9.144.667a21.444,21.444,0,0,0-7.3,5.111,13.588,13.588,0,0,0-3.222,5,1.118,1.118,0,0,0,0,.978c.278.367.844.267,1.278.111a22.989,22.989,0,0,0,4.478-2.133,42.287,42.287,0,0,0-2.2,6.122,1.548,1.548,0,0,0,.089,1.544c.467.467,1.256.167,1.822-.178a28.968,28.968,0,0,0,4.544-3.422,31.339,31.339,0,0,0-2.278,4.878,1.7,1.7,0,0,0,.033,1.322c.389.633,1.322.533,2.011.278,2.367-.911,4.155-2.856,6.167-4.389a20.489,20.489,0,0,1,10.611-4.089,26.024,26.024,0,0,0-9.422,10.3,5.341,5.341,0,0,0-.567,1.911,2.045,2.045,0,0,0,.767,1.756,2.186,2.186,0,0,0,2.511-.311,8.947,8.947,0,0,0,1.644-2.144c1.789-2.7,4.6-5.156,7.944-5.478,3.189-.311,6.067,3.044,7.822,5.4,5.122,6.833,8.378,15.255,8.067,23.789-.222,6.011-2.167,11.8-4.089,17.5.711.333,1.267.922,1.978,1.244,1.867-9.478,6.678-18.8,12.033-26.844a17.757,17.757,0,0,1-1.233-1.756Z" transform="translate(-94.289 -38.121)" fill="#ffa58d"/>
          <path id="Trazado_780855" data-name="Trazado 780855" d="M141.692,307.56c1.489,5.389,2.989,10.811,5.444,15.822s5.944,9.667,10.678,12.644,7.967,4.756,13.189,2.767c44.4.211,87.111-14.255,117.421-46.689a43.854,43.854,0,0,0,7.944-11.144,26.48,26.48,0,0,0,1.756-4.922c.311-1.278,1.011-3.422.567-4.711-.589-1.667-1.689-.755-2.278.256-.789,1.356-1.644,2.667-2.567,3.944-1.633,2.244-3.644,4.178-5.3,6.389a77.033,77.033,0,0,0,7.2-10.733,25.526,25.526,0,0,0,3.178-12.4c-.022-.678-.278-1.567-.967-1.567-.556,0-.889.622-1.089,1.144A62.644,62.644,0,0,1,286,276.249a65.286,65.286,0,0,0,5.5-10.467,22.031,22.031,0,0,0,1.433-11.611c-.111-.633-.389-1.389-1.022-1.5-.722-.122-1.233.656-1.544,1.322-2.622,5.656-5.344,10-8.433,15.411A37.469,37.469,0,0,0,284.9,255.76c.033-1.111-.122-2.444-1.122-2.944a2.11,2.11,0,0,0-2.433.733,6.9,6.9,0,0,0-1.078,2.5,31.929,31.929,0,0,1-5.144,10.878,17.776,17.776,0,0,1-9.822,6.655c-1.133.256-1.711.278-2.456-.656a5.461,5.461,0,0,1-.956-2.078c-.333-1.322-.678-2.644-1.011-3.956q-1.033-4.033-2.056-8.067c-.622-2.422-1.333-5-3.244-6.6a2.05,2.05,0,0,0-2.133-.533c-.689.356-.856,1.244-.933,2.011a131.833,131.833,0,0,0-.6,20.089c.133,2.822.344,5.733-.644,8.378-1.722,4.589-6.767,5.233-11.044,5.678-18.833,1.967-38.578-1.178-56.689,5.622a8.032,8.032,0,0,0-2.533-5.4c-11.978,7.911-25.578,15.389-39.333,19.5Z" transform="translate(-107.707 -36.107)" fill="#ffa58d"/>
          <path id="Trazado_780856" data-name="Trazado 780856" d="M123.2,224.542a3.945,3.945,0,0,1,2.667,1.056c4.878,3.6,10.278,6.422,15.155,10.022.544.4,1.144.9,1.167,1.578.033.955-1.111,1.522-2.056,1.489a19.04,19.04,0,0,0-2.833-.311c1.956.933,2.878,2.411,4.522,3.833a5.663,5.663,0,0,1,1.478,1.733,2.307,2.307,0,0,1,0,2.2c-.678,1.1-2.244,1.111-3.533,1-1.522-.133-3.044-.278-4.567-.411a9,9,0,0,1,3.467,3.333,2.028,2.028,0,0,1,.311,2.022c-.4.678-1.344.733-2.133.678a21.986,21.986,0,0,1-5.078-1,7.026,7.026,0,0,1,1.911,2.544,2.214,2.214,0,0,1-.444,2.811,3.079,3.079,0,0,1-2.278.233c-3.222-.533-8.656-3.178-5.967-7.433a9.191,9.191,0,0,1-1.444-8.6,14.192,14.192,0,0,1-1.944-4.589,4.037,4.037,0,0,1,1.378-4.089,9.372,9.372,0,0,1-1.2-5.467c.078-1.689.6-2.489,1.422-2.622Z" transform="translate(-109.947 -39.11)" fill="#ffa58d"/>
          <path id="Trazado_780857" data-name="Trazado 780857" d="M206.9,134.934a3.045,3.045,0,0,1,.522-1.967,1.823,1.823,0,0,1,1.822-.733,2.442,2.442,0,0,1,1.367,1.133,5.846,5.846,0,0,1,.711,4.7,2.1,2.1,0,0,1-.978,1.422,1.755,1.755,0,0,1-1.956-.533,7.218,7.218,0,0,1-1.489-4.011Z" transform="translate(-100.461 -49.369)" fill="#193f63"/>
          <path id="Trazado_780858" data-name="Trazado 780858" d="M185.61,139.074a3.045,3.045,0,0,1,.522-1.967,1.836,1.836,0,0,1,1.822-.733,2.442,2.442,0,0,1,1.367,1.133,5.846,5.846,0,0,1,.711,4.7,2.1,2.1,0,0,1-.978,1.422,1.755,1.755,0,0,1-1.956-.533,7.218,7.218,0,0,1-1.489-4.011Z" transform="translate(-102.826 -48.909)" fill="#193f63"/>
          <path id="Trazado_780859" data-name="Trazado 780859" d="M210.486,125.257c1.122.211,2.444.544,3.3-.2a6.648,6.648,0,0,0-6.744-2.844,6.469,6.469,0,0,0-3.156,1.678c-.389.378-2.244,2.522-1.644,3.022.311.256,3.178-1.333,3.722-1.478a10.71,10.71,0,0,1,4.522-.178Z" transform="translate(-100.991 -50.491)" fill="#193f63"/>
          <path id="Trazado_780860" data-name="Trazado 780860" d="M288.819,127.826c1.078.378,2.322.922,3.289.322a6.65,6.65,0,0,0-6.211-3.878,6.54,6.54,0,0,0-3.389,1.167c-.444.311-2.622,2.144-2.1,2.722.267.3,3.344-.811,3.911-.867a10.519,10.519,0,0,1,4.5.544Z" transform="translate(-92.302 -50.249)" fill="#193f63"/>
          <path id="Trazado_780861" data-name="Trazado 780861" d="M181.974,130.65c-.967.611-2.067,1.411-3.144,1.022a6.649,6.649,0,0,1,5.222-5.133,6.5,6.5,0,0,1,3.556.4c.5.2,3.022,1.522,2.644,2.2-.2.356-3.444-.067-4.011,0a10.607,10.607,0,0,0-4.267,1.5Z" transform="translate(-103.579 -50.007)" fill="#193f63"/>
          <path id="Trazado_780862" data-name="Trazado 780862" d="M256.5,128.6c-.967.611-2.067,1.411-3.144,1.022a6.649,6.649,0,0,1,5.222-5.133,6.5,6.5,0,0,1,3.556.4c.5.2,3.022,1.522,2.644,2.2-.2.356-3.444-.067-4.011,0a10.608,10.608,0,0,0-4.267,1.5Z" transform="translate(-95.298 -50.235)" fill="#193f63"/>
          <path id="Trazado_780863" data-name="Trazado 780863" d="M196.99,129.47q4.55,11.35,9.089,22.689a6.517,6.517,0,0,1,.678,3.844,4.336,4.336,0,0,1-2.333,2.689,12.782,12.782,0,0,1-3.511,1.033" transform="translate(-101.561 -49.671)" fill="none" stroke="#cb7c5e" stroke-miterlimit="10" stroke-width="0.69"/>
          <path id="Trazado_780864" data-name="Trazado 780864" d="M190.12,165.13a15.813,15.813,0,0,0,15.633,5.089" transform="translate(-102.324 -45.709)" fill="none" stroke="#cb7c5e" stroke-miterlimit="10" stroke-width="0.69"/>
          <path id="Trazado_780865" data-name="Trazado 780865" d="M167.878,164.7A16.9,16.9,0,0,1,146.5,151.493c-.567-3.167-.011-6.856,2.556-8.789a6.978,6.978,0,0,1,6.256-.867,10.3,10.3,0,0,1,5.078,3.978c3.678,5.267,5.022,12.944,7.478,18.878Z" transform="translate(-107.193 -48.338)" fill="#ffa58d"/>
          <path id="Trazado_780866" data-name="Trazado 780866" d="M151.512,144.813a2.187,2.187,0,0,0-.978,1.567,5.506,5.506,0,0,0,.122,1.9c.533,2.844,1.544,5.755,3.711,7.678a1.224,1.224,0,0,0,1.078.411c.511-.156.6-.844.578-1.389a35.237,35.237,0,0,0-.767-6.089c-.244-1.133-.189-2.744-1.1-3.567a2.307,2.307,0,0,0-2.633-.511Z" transform="translate(-106.727 -47.992)" fill="#1d1d1b" opacity="0.3"/>
          <path id="Trazado_780867" data-name="Trazado 780867" d="M205.663,183.7A54.454,54.454,0,0,1,164.53,167.26" transform="translate(-105.168 -45.472)" fill="none" stroke="#cb7c5e" stroke-miterlimit="10" stroke-width="0.69"/>
          <path id="Trazado_780868" data-name="Trazado 780868" d="M278.05,181.628a43.611,43.611,0,0,0,37.333-31.578" transform="translate(-92.555 -47.384)" fill="none" stroke="#cb7c5e" stroke-miterlimit="10" stroke-width="0.69"/>
          <path id="Trazado_780869" data-name="Trazado 780869" d="M317.12,120.687a5.466,5.466,0,0,1,8.855,4.767" transform="translate(-88.214 -50.777)" fill="none" stroke="#cb7c5e" stroke-miterlimit="10" stroke-width="0.69"/>
          <path id="Trazado_780870" data-name="Trazado 780870" d="M320.97,119.49a6.794,6.794,0,0,1,.9,7.967" transform="translate(-87.787 -50.78)" fill="none" stroke="#cb7c5e" stroke-miterlimit="10" stroke-width="0.69"/>
          <path id="Trazado_780871" data-name="Trazado 780871" d="M272.748,128.11q-1.417,13.833-2.356,27.722c-.078,1.1-.022,2.444.944,2.956a2.949,2.949,0,0,0,2.344-.167c1.367-.5,2.744-1,4.111-1.5" transform="translate(-93.409 -49.822)" fill="none" stroke="#cb7c5e" stroke-miterlimit="10" stroke-width="0.69"/>
          <path id="Trazado_780872" data-name="Trazado 780872" d="M277.2,166.308a17.5,17.5,0,0,0,13.267-13.378" transform="translate(-92.65 -47.064)" fill="none" stroke="#cb7c5e" stroke-miterlimit="10" stroke-width="0.69"/>
          <path id="Trazado_780873" data-name="Trazado 780873" d="M260.972,135.939a1.162,1.162,0,0,1,1.122-.578,1.536,1.536,0,0,1,.956.833,6.133,6.133,0,0,1,.622,4.611c-.178.667-.611,1.4-1.3,1.422-.622.022-1.1-.556-1.367-1.122a5.553,5.553,0,0,1-.022-5.167Z" transform="translate(-94.521 -49.018)" fill="#193f63"/>
          <path id="Trazado_780874" data-name="Trazado 780874" d="M284.162,134.469a1.162,1.162,0,0,1,1.122-.578,1.536,1.536,0,0,1,.956.833,6.132,6.132,0,0,1,.622,4.611c-.178.667-.611,1.4-1.3,1.422-.622.022-1.1-.556-1.367-1.122a5.553,5.553,0,0,1-.022-5.167Z" transform="translate(-91.945 -49.181)" fill="#193f63"/>
          <path id="Trazado_780875" data-name="Trazado 780875" d="M272.02,246.245a10.557,10.557,0,0,1,5.811-4.756,31.828,31.828,0,0,1,7.511-1.5" transform="translate(-93.225 -37.392)" fill="none" stroke="#cb7c5e" stroke-miterlimit="10" stroke-width="0.69"/>
          <path id="Trazado_780876" data-name="Trazado 780876" d="M267.98,242.391a10.847,10.847,0,0,1,6.789-5.278,32.233,32.233,0,0,1,8.778-.933" transform="translate(-93.674 -37.815)" fill="none" stroke="#cb7c5e" stroke-miterlimit="10" stroke-width="0.69"/>
          <path id="Trazado_780877" data-name="Trazado 780877" d="M136.272,237.22a68.806,68.806,0,0,1-11.722-5.7" transform="translate(-109.609 -38.333)" fill="none" stroke="#cb7c5e" stroke-miterlimit="10" stroke-width="0.69"/>
          <path id="Trazado_780878" data-name="Trazado 780878" d="M134.014,244.792a52.462,52.462,0,0,1-9.544-5.322" transform="translate(-109.618 -37.45)" fill="none" stroke="#cb7c5e" stroke-miterlimit="10" stroke-width="0.69"/>
          <path id="Trazado_780879" data-name="Trazado 780879" d="M129.9,248.856c-1.522-.622-3.044-1.233-4.578-1.856" transform="translate(-109.524 -36.613)" fill="none" stroke="#cb7c5e" stroke-miterlimit="10" stroke-width="0.69"/>
          <g id="Grupo_1046969" data-name="Grupo 1046969" transform="translate(50.422 199.549)">
            <path id="Trazado_780880" data-name="Trazado 780880" d="M189.925,290.738a38.366,38.366,0,0,0,27.433-13.555,22.768,22.768,0,0,0,5.256-10.322,16.39,16.39,0,0,0-3.389-13.067,16.564,16.564,0,0,0-12.133-6.078,6.009,6.009,0,0,0-1.467-2.256,2.7,2.7,0,0,0-2.511-.633,9.925,9.925,0,0,0-2.1,1.467c-1.189.789-2.633,1.544-3.667.567a21.477,21.477,0,0,0-27.566-1.522c-3.911,2.933-4.178,2.778-6.422,7.133a27.569,27.569,0,0,0-2.722,14.244c.444,7.133,3.311,14.256,8.611,19.044s13.533,5.267,20.678,4.956Z" transform="translate(-156.029 -236.823)" fill="#ffa58d"/>
            <path id="Trazado_780881" data-name="Trazado 780881" d="M179.457,269.561a17.094,17.094,0,0,1,7.755,10.9,10.926,10.926,0,0,0,1.078,3.633c1.6,2.544,5.3,2.578,7.767,4.289.967.678,1.789,1.889,1.322,2.978a3.178,3.178,0,0,1-2.067,1.467,29.582,29.582,0,0,1-38.5-32.622,24.2,24.2,0,0,1,1.533-5.567,15.492,15.492,0,0,1,1.689-3.344c.367-.489.911-2.067,1.7-1.522.756.533.222,3.011.178,3.767.167-3.255,2.778-5.833,5.378-7.8s5.511-3.867,6.833-6.855a2.976,2.976,0,0,1,1.078-1.578c1.367-.711,3.933,5.067,4.411,6.122a31.194,31.194,0,0,1,2.478,8.511,30.6,30.6,0,0,1-2.622,17.611Z" transform="translate(-156.483 -237.246)" fill="#ffe1c7"/>
            <path id="Trazado_780882" data-name="Trazado 780882" d="M207.016,250.01a19.747,19.747,0,0,1-.956,4.889" transform="translate(-150.975 -235.827)" fill="none" stroke="#cb7c5e" stroke-miterlimit="10" stroke-width="0.69"/>
            <path id="Trazado_780883" data-name="Trazado 780883" d="M191.75,248.33a7.4,7.4,0,0,1,.578,6.178" transform="translate(-152.565 -236.014)" fill="none" stroke="#cb7c5e" stroke-miterlimit="10" stroke-width="0.69"/>
            <path id="Trazado_780884" data-name="Trazado 780884" d="M185.09,251.26a7.207,7.207,0,0,0,1.144,3.578" transform="translate(-153.305 -235.689)" fill="none" stroke="#cb7c5e" stroke-miterlimit="10" stroke-width="0.69"/>
            <path id="Trazado_780885" data-name="Trazado 780885" d="M181.376,279.3a4.138,4.138,0,0,0,2.556,3.067,7.3,7.3,0,0,0,4.111.3,12.112,12.112,0,0,0,7.567-4.711,2.994,2.994,0,0,0,.756-2.156c-.167-1.022-1.189-1.667-2.167-2.033-2.367-.922-5.8-1.444-8.255-.456-2.211.889-4.956,3.411-4.589,5.989Z" transform="translate(-153.724 -233.298)" fill="#ffa58d"/>
            <path id="Trazado_780886" data-name="Trazado 780886" d="M185.643,275.3a2.637,2.637,0,0,0,1.078,4.456,2.712,2.712,0,0,0,2.578-.644" transform="translate(-153.336 -233.018)" fill="none" stroke="#cb7c5e" stroke-miterlimit="10" stroke-width="0.69"/>
            <path id="Trazado_780887" data-name="Trazado 780887" d="M185.2,278.132a1.238,1.238,0,0,0,1.167.311,6.03,6.03,0,0,0,3.556-1.733" transform="translate(-153.293 -232.861)" fill="none" stroke="#cb7c5e" stroke-miterlimit="10" stroke-width="0.69"/>
          </g>
          <path id="Trazado_780888" data-name="Trazado 780888" d="M336.04,277.472c2.378-.522,4.822-.633,7.211-1.1,1.833-.355,3.667-.667,5.5-.944-.633-3.656-1.278-7.311-1.911-10.956-.8-4.578-2.133-9.367-2.444-13.989-.289-4.233-.9-8.489-1.367-12.744-.256-2.333-.5-4.667-.767-7-.133-1.167-.278-2.322-.433-3.489-.1-.722-.622-2.222-.422-2.9-1.2,3.967-5.356,43.044-5.356,53.122Z" transform="translate(-86.112 -39.129)" fill="#1d1d1b" opacity="0.3"/>
          <path id="Trazado_780889" data-name="Trazado 780889" d="M347.912,275.09a411.664,411.664,0,0,1-7.122-52" transform="translate(-85.584 -39.269)" fill="none" stroke="#193f63" stroke-miterlimit="10" stroke-width="0.69"/>
          <path id="Trazado_780890" data-name="Trazado 780890" d="M311.89,267.81c8.589,5.567,19.611,5.433,29.778,4.2s20.522-3.4,30.522-1.211" transform="translate(-88.795 -34.301)" fill="none" stroke="#193f63" stroke-miterlimit="10" stroke-width="0.69"/>
          <path id="Trazado_780891" data-name="Trazado 780891" d="M301.88,294.32a87.383,87.383,0,0,0,51.677,17.333" transform="translate(-89.907 -31.356)" fill="none" stroke="#193f63" stroke-miterlimit="10" stroke-width="0.69"/>
          <path id="Trazado_780892" data-name="Trazado 780892" d="M274.84,187.419c5.233,8.555,16.622,12.411,26.311,9.8s17.322-10.955,20.155-20.589" transform="translate(-92.912 -44.431)" fill="none" stroke="#193f63" stroke-miterlimit="10" stroke-width="0.69"/>
          <path id="Trazado_780893" data-name="Trazado 780893" d="M162.35,192.85a32.321,32.321,0,0,0,38.511,19.333,94.018,94.018,0,0,1,3.367,19.3" transform="translate(-105.41 -42.629)" fill="none" stroke="#fff" stroke-miterlimit="10" stroke-width="0.69"/>
          <path id="Trazado_780894" data-name="Trazado 780894" d="M198.37,212.3a22.626,22.626,0,0,0,15.167-15.678" transform="translate(-101.408 -42.21)" fill="none" stroke="#fff" stroke-miterlimit="10" stroke-width="0.69"/>
          <path id="Trazado_780895" data-name="Trazado 780895" d="M214.83,281.892a91.051,91.051,0,0,1,41.477-42.922" transform="translate(-99.579 -37.505)" fill="none" stroke="#fff" stroke-miterlimit="10" stroke-width="0.69"/>
          <path id="Trazado_780896" data-name="Trazado 780896" d="M225.46,283.309a65.785,65.785,0,0,1,13.055-27.189" transform="translate(-98.398 -35.6)" fill="none" stroke="#fff" stroke-miterlimit="10" stroke-width="0.69"/>
          <path id="Trazado_780897" data-name="Trazado 780897" d="M214.15,238.95a32.116,32.116,0,0,1,14.733,9.911" transform="translate(-99.655 -37.507)" fill="none" stroke="#fff" stroke-miterlimit="10" stroke-width="0.69"/>
          <path id="Trazado_780898" data-name="Trazado 780898" d="M219.9,235.6a33.325,33.325,0,0,1,19.178,6.667" transform="translate(-99.016 -37.88)" fill="none" stroke="#fff" stroke-miterlimit="10" stroke-width="0.69"/>
          <path id="Trazado_780899" data-name="Trazado 780899" d="M273.18,303.235a62.6,62.6,0,0,0,20.255-45.055" transform="translate(-93.096 -35.371)" fill="none" stroke="#fff" stroke-miterlimit="10" stroke-width="0.69"/>
          <path id="Trazado_780900" data-name="Trazado 780900" d="M150.609,153.565a11.093,11.093,0,0,1-1.256-3.844,5.518,5.518,0,0,1,.933-3.867,3.662,3.662,0,0,1,3.555-1.478" transform="translate(-106.858 -48.022)" fill="none" stroke="#cb7c5e" stroke-miterlimit="10" stroke-width="0.69"/>
          <path id="Trazado_780901" data-name="Trazado 780901" d="M150.544,145.12a14.753,14.753,0,0,0,4.367,11.533" transform="translate(-106.726 -47.932)" fill="none" stroke="#cb7c5e" stroke-miterlimit="10" stroke-width="0.69"/>
          <path id="Trazado_780902" data-name="Trazado 780902" d="M293.745,149.49a5.5,5.5,0,0,0,4.055,1.033,8.329,8.329,0,0,0,7.011-6,6.572,6.572,0,0,0-.567-4.978c-1.567-2.622-5.389-3.389-8.055-1.9a7.578,7.578,0,0,0-3.622,5.689c-.245,1.944-.478,4.778,1.178,6.144Z" transform="translate(-90.961 -48.846)" fill="#1d1d1b" opacity="0.3"/>
          <path id="Trazado_780903" data-name="Trazado 780903" d="M184.151,158.07A5.5,5.5,0,0,1,180.1,159.1a8.33,8.33,0,0,1-7.011-6,6.573,6.573,0,0,1,.567-4.978c1.567-2.622,5.389-3.389,8.055-1.9a7.578,7.578,0,0,1,3.622,5.689c.244,1.944.478,4.778-1.178,6.144Z" transform="translate(-104.244 -47.893)" fill="#1d1d1b" opacity="0.3"/>
          <path id="Trazado_780904" data-name="Trazado 780904" d="M220.016,153.606a7.756,7.756,0,0,1-3.156,1.056,5.405,5.405,0,0,1-4.056-1.033c-1.656-1.367-1.422-4.2-1.178-6.144a7.578,7.578,0,0,1,3.622-5.689,6.318,6.318,0,0,1,3.922-.689,113.633,113.633,0,0,1,.844,12.5Z" transform="translate(-99.954 -48.385)" fill="#1d1d1b" opacity="0.3"/>
          <path id="Trazado_780905" data-name="Trazado 780905" d="M263.751,157.49a5.5,5.5,0,0,1-4.056,1.033,8.33,8.33,0,0,1-7.011-6,6.573,6.573,0,0,1,.567-4.978c1.567-2.622,5.389-3.389,8.055-1.9a7.579,7.579,0,0,1,3.622,5.689c.244,1.944.478,4.778-1.178,6.144Z" transform="translate(-95.4 -47.957)" fill="#1d1d1b" opacity="0.3"/>
          <path id="Trazado_780906" data-name="Trazado 780906" d="M178.523,289.56l-7.433,4.2" transform="translate(-104.439 -31.884)" fill="none" stroke="#cb7c5e" stroke-miterlimit="10" stroke-width="0.69"/>
          <path id="Trazado_780907" data-name="Trazado 780907" d="M200.682,256.6a4.094,4.094,0,0,1,2.378,1.678,4.328,4.328,0,0,1,.356,3.289,6.2,6.2,0,0,1-3.189,4.089,5.06,5.06,0,0,1-5.089-.378c-5.089-3.722.678-10.078,5.544-8.678Z" transform="translate(-101.987 -35.568)" fill="#1d1d1b" opacity="0.3"/>
          <path id="Trazado_780908" data-name="Trazado 780908" d="M271.53,276.03a5.026,5.026,0,0,1,.755,1.689" transform="translate(-93.279 -33.388)" fill="none" stroke="#cb7c5e" stroke-miterlimit="10" stroke-width="0.69"/>
          <path id="Trazado_780909" data-name="Trazado 780909" d="M263.65,266.6a5.6,5.6,0,0,1,1.822,1.389" transform="translate(-94.155 -34.435)" fill="none" stroke="#cb7c5e" stroke-miterlimit="10" stroke-width="0.69"/>
          <path id="Trazado_780910" data-name="Trazado 780910" d="M268.89,269.66a10.763,10.763,0,0,1,1.3,1.7" transform="translate(-93.573 -34.095)" fill="none" stroke="#cb7c5e" stroke-miterlimit="10" stroke-width="0.69"/>
          <path id="Trazado_780911" data-name="Trazado 780911" d="M272.15,283.59a4.46,4.46,0,0,1,.911,1.956" transform="translate(-93.211 -32.548)" fill="none" stroke="#cb7c5e" stroke-miterlimit="10" stroke-width="0.69"/>
          <path id="Trazado_780912" data-name="Trazado 780912" d="M340.914,216.707a84.152,84.152,0,0,1,1.967-20.767" transform="translate(-85.575 -42.286)" fill="none" stroke="#193f63" stroke-miterlimit="10" stroke-width="0.69"/>
          <path id="Trazado_780913" data-name="Trazado 780913" d="M345.26,189.282q1.917-3.617,3.822-7.222" transform="translate(-85.088 -43.828)" fill="none" stroke="#193f63" stroke-miterlimit="10" stroke-width="0.69"/>
          <path id="Trazado_780914" data-name="Trazado 780914" d="M257.677,182.99a48.2,48.2,0,0,0-12.767,17.244" transform="translate(-96.237 -43.725)" fill="none" stroke="#193f63" stroke-miterlimit="10" stroke-width="0.69"/>
          <path id="Trazado_780915" data-name="Trazado 780915" d="M296.87,200.89l7.967,12.067a3.433,3.433,0,0,0,1.733,1.611c1.178.333,2.278-.633,3.1-1.533A72.053,72.053,0,0,0,326.9,179.39" transform="translate(-90.464 -44.125)" fill="none" stroke="#193f63" stroke-miterlimit="10" stroke-width="0.69"/>
          <path id="Trazado_780916" data-name="Trazado 780916" d="M290.185,200.034q-3.133,5.683-6.278,11.367a4.537,4.537,0,0,1-1.811,2.1c-1.189.567-2.589,0-3.744-.633-10.422-5.656-10.622-17.322-10.5-29.178" transform="translate(-93.69 -43.647)" fill="none" stroke="#193f63" stroke-miterlimit="10" stroke-width="0.69"/>
        </g>
      </g>
    </g>
    <path id="Trazado_780920" data-name="Trazado 780920" d="M453.008,370.31H140.04c-2.085,0-3.79-1.2-3.79-2.69h0c0-1.48,1.691-2.69,3.79-2.69H453.008c2.085,0,3.79,1.2,3.79,2.69h0C456.8,369.1,455.107,370.31,453.008,370.31Z" transform="translate(85.474 899.438)" fill="#355f85"/>
    <path id="Trazado_781017" data-name="Trazado 781017" d="M592.19,326.44c8.4,11.69,4.56,39.1,4.56,39.1-16.6-7.96-34.26-21.5-29.78-27.52s17.64,2.57,17.64,2.57c-.77-3.02-.81-25.84,7.58-14.15Z" transform="translate(-379.541 572.569)" fill="#31c79a"/>
    <path id="Trazado_781018" data-name="Trazado 781018" d="M608.9,317.89a21.478,21.478,0,0,1,3.45-6.07,12.153,12.153,0,0,1,3.19-2.88,3.98,3.98,0,0,1,1.69-.59,2.021,2.021,0,0,1,1.64.6,2.771,2.771,0,0,1,.51,1.87,14.954,14.954,0,0,1-1.77,6.26,68.78,68.78,0,0,1-3.87,6.64q-3.675,5.82-7.37,11.64c-3.95-5.95-7.77-12.11-9.35-19.06a14.012,14.012,0,0,1-.39-5.03,2.68,2.68,0,0,1,.54-1.45,2.078,2.078,0,0,1,1.8-.58,5.142,5.142,0,0,1,1.83.68,20.352,20.352,0,0,1,8.07,7.97Z" transform="translate(-58.541 820.3)" fill="#ff896c"/>
  </g>
</svg>
