<svg xmlns="http://www.w3.org/2000/svg" width="69.57" height="69.551" viewBox="0 0 69.57 69.551">
  <g id="Grupo_1063942" data-name="Grupo 1063942" transform="translate(-326.838 -4612.769)">
    <g id="Page-1" transform="translate(326.838 4615.597)">
      <g id="_009---Infant-Heart-Warning" data-name="009---Infant-Heart-Warning" transform="translate(0 0)">
        <g id="Icons" transform="translate(1.026 1.026)">
          <path id="Shape" d="M27,8.853c0,5.694,4.873,11.428,15.88,17.686a1.153,1.153,0,0,0,1.067,0,49.37,49.37,0,0,0,9.92-6.853,21.8,21.8,0,0,0,4.493-5.478,11.072,11.072,0,0,0,1.467-5.355C59.828,4.083,56.483,0,51.621,0a10.34,10.34,0,0,0-8.207,4.052A10.34,10.34,0,0,0,35.207,0C30.344,0,27,4.083,27,8.853Z" transform="translate(-27 0)" fill="#e91e63"/>
          <path id="Shape-2" data-name="Shape" d="M49.7,0a10.361,10.361,0,0,1,1.636.135c-4.068.719-6.766,4.437-6.766,8.718,0,5.516,4.591,11.071,14.884,17.1-.335.194-.669.388-1.015.584a1.153,1.153,0,0,1-1.067,0c-11.008-6.258-15.88-11.992-15.88-17.686C41.491,4.083,44.835,0,49.7,0Z" transform="translate(-41.491 0)" fill="#ad1457"/>
          <path id="Shape-3" data-name="Shape" d="M32.81,19.241l.051-.051" transform="translate(-5.994 0.496)" fill="#e91e63"/>
        </g>
        <g id="Icons_copy">
          <path id="Shape-4" data-name="Shape" d="M31.233,0A11.325,11.325,0,0,1,39.44,3.493,11.325,11.325,0,0,1,47.647,0c5.178,0,9.233,4.339,9.233,9.879a12.105,12.105,0,0,1-1.526,5.726,1.026,1.026,0,1,1-1.81-.967,10.076,10.076,0,0,0,1.284-4.759c0-4.463-3.088-7.827-7.181-7.827a9.242,9.242,0,0,0-7.36,3.6,1.025,1.025,0,0,1-1.692,0,9.244,9.244,0,0,0-7.363-3.607c-4.093,0-7.181,3.365-7.181,7.827,0,5.424,5.027,10.917,15.414,16.793,1.667-.948,3.126-1.847,4.459-2.74a1.026,1.026,0,1,1,1.144,1.7c-1.376.923-2.872,1.847-4.616,2.834-.011.006-.025.008-.037.014a.979.979,0,0,1,.05.24,5.135,5.135,0,0,0,5.129,5.129H59.957a1.026,1.026,0,1,1,0,2.052H45.595a7.189,7.189,0,0,1-7.181-7.181.965.965,0,0,1,.049-.243c-.021-.01-.043-.013-.064-.025C27.364,22.183,22,16.106,22,9.879,22,4.339,26.055,0,31.233,0Z" transform="translate(-22 0)"/>
          <path id="Shape-5" data-name="Shape" d="M43.026,17.233A1.026,1.026,0,0,1,42,16.207V9.026a1.026,1.026,0,1,1,2.052,0v7.181A1.026,1.026,0,0,1,43.026,17.233Z" transform="translate(-25.586 0.207)"/>
          <path id="Shape-6" data-name="Shape" d="M44.052,21.052a1.026,1.026,0,1,1-2.052,0V20.026a1.026,1.026,0,1,1,2.052,0Z" transform="translate(-25.586 0.491)"/>
        </g>
      </g>
    </g>
    <g id="recien-nacido_5_" data-name="recien-nacido (5)" transform="translate(347.414 4612.769)">
      <path id="Trazado_781391" data-name="Trazado 781391" d="M39.639,246.429a16.054,16.054,0,1,1-16.054-16.054A16.055,16.055,0,0,1,39.639,246.429Zm0,0" transform="translate(-6.508 -199.081)" fill="#f8d6c9"/>
      <path id="Trazado_781392" data-name="Trazado 781392" d="M148.877,246.429a16.054,16.054,0,1,1-16.054-16.054A16.054,16.054,0,0,1,148.877,246.429Zm0,0" transform="translate(-100.907 -199.081)" fill="#f8d6c9"/>
      <path id="Trazado_781393" data-name="Trazado 781393" d="M221.937,230.374a16.278,16.278,0,0,0-2.046.129,16.056,16.056,0,0,1,0,31.849,16.055,16.055,0,1,0,2.046-31.979Zm0,0" transform="translate(-190.02 -199.079)" fill="#f9b599"/>
      <path id="Trazado_781394" data-name="Trazado 781394" d="M89.54,234.785c0-10.854-7.56-19.652-16.887-19.652s-16.887,8.8-16.887,19.652,7.56,19.652,16.887,19.652S89.54,245.638,89.54,234.785Zm0,0" transform="translate(-48.191 -185.909)" fill="#f8d6c9"/>
      <path id="Trazado_781395" data-name="Trazado 781395" d="M183.926,233.679c-.493-10.339-7.853-18.546-16.861-18.546a14.745,14.745,0,0,0-2.046.144c8.362,1.175,14.841,9.461,14.841,19.508s-6.48,18.333-14.841,19.508a14.67,14.67,0,0,0,2.046.144c9.326,0,16.887-8.8,16.887-19.652q0-.556-.026-1.106" transform="translate(-142.603 -185.909)" fill="#f9b599"/>
      <path id="Trazado_781396" data-name="Trazado 781396" d="M45.529,24.7a17.655,17.655,0,1,1-.006.472c0-.158,0-.315.006-.472" transform="translate(-39.339 -6.508)" fill="#f8d6c9"/>
      <path id="Trazado_781397" data-name="Trazado 781397" d="M162.347,7.531a17.722,17.722,0,0,0-2.046.119,17.638,17.638,0,0,1,0,35.038,17.842,17.842,0,0,0,2.046.118,17.638,17.638,0,1,0,0-35.275Zm0,0" transform="translate(-138.525 -6.508)" fill="#f9b599"/>
      <path id="Trazado_781398" data-name="Trazado 781398" d="M222.175,302.161A1.177,1.177,0,1,1,221,300.984,1.177,1.177,0,0,1,222.175,302.161Zm0,0" transform="translate(-189.959 -260.098)" fill="#f9b599"/>
      <path id="Trazado_781399" data-name="Trazado 781399" d="M120.335,302.161a1.177,1.177,0,1,1-1.177-1.177A1.177,1.177,0,0,1,120.335,302.161Zm0,0" transform="translate(-101.953 -260.098)" fill="#f9b599"/>
      <path id="Trazado_781400" data-name="Trazado 781400" d="M80.266,134.321c0-1.215-1.607-2.2-3.588-2.2s-3.588.985-3.588,2.2,1.606,2.2,3.588,2.2S80.266,135.536,80.266,134.321Zm0,0" transform="translate(-63.161 -114.174)" fill="#e58cb6"/>
      <path id="Trazado_781401" data-name="Trazado 781401" d="M237.055,134.321c0-1.215-1.606-2.2-3.588-2.2s-3.588.985-3.588,2.2,1.607,2.2,3.588,2.2S237.055,135.536,237.055,134.321Zm0,0" transform="translate(-198.652 -114.174)" fill="#e58cb6"/>
      <path id="Trazado_781402" data-name="Trazado 781402" d="M161.847,14.006a1.44,1.44,0,0,1-.92,2.011,5.24,5.24,0,0,1-1.053.176,5.729,5.729,0,0,1-1.454-.075,5.922,5.922,0,0,1-.724-.186c-.119-.04-.239-.08-.358-.124l-.348-.154a6.2,6.2,0,0,1-2.392-2,7.194,7.194,0,0,1-1.175-3.972h5.408a6.473,6.473,0,0,0-.16,1.719,1.869,1.869,0,0,0,.045.239l.033.124c.016.038.032.078.047.119a.582.582,0,0,0,.055.121l.062.122.076.114.038.06.045.053.091.112.1.1a2.261,2.261,0,0,0,.228.194,2.31,2.31,0,0,0,.56.29,2.363,2.363,0,0,0,.607.143,1.465,1.465,0,0,1,1.186.812Zm0,0" transform="translate(-132.581 -8.368)" fill="#eeb682"/>
      <path id="Trazado_781403" data-name="Trazado 781403" d="M77.861,374.762a6.454,6.454,0,0,1,10-5.4,22.24,22.24,0,0,0,1.689-8.422H55.778a22.192,22.192,0,0,0,1.809,8.7,6.454,6.454,0,0,1,8.778,9.382,14.748,14.748,0,0,0,12.958-.175,6.432,6.432,0,0,1-1.462-4.091Zm0,0" transform="translate(-48.201 -311.914)" fill="#f8ce5e"/>
      <path id="Trazado_781404" data-name="Trazado 781404" d="M212.667,361.431a14.411,14.411,0,0,0,4.143-5.936c.721-1.8,1.766-3.568,3.148-3.822,2.943-.541,10.78,2.518,8.952,8.409s-9.106,15.471-16.6,10.3c-4.583-3.16-2.191-6.687.361-8.952Zm0,0" transform="translate(-181.228 -303.849)" fill="#f8d6c9"/>
      <path id="Trazado_781405" data-name="Trazado 781405" d="M251.774,351.674a2.225,2.225,0,0,0-.844.359c3.284,1,7.028,3.784,5.7,8.05-1.284,4.136-5.253,10.09-10.1,11.481,6.592,1.965,12.559-6.226,14.191-11.481,1.829-5.892-6.009-8.95-8.952-8.409Zm0,0" transform="translate(-213.046 -303.849)" fill="#f9b599"/>
      <path id="Trazado_781406" data-name="Trazado 781406" d="M34.657,361.431a14.411,14.411,0,0,1-4.143-5.936c-.721-1.8-1.766-3.568-3.148-3.822-2.943-.541-10.78,2.518-8.952,8.409s9.106,15.471,16.6,10.3c4.583-3.16,2.192-6.687-.361-8.952Zm0,0" transform="translate(-15.677 -303.849)" fill="#f8d6c9"/>
      <path id="Trazado_781407" data-name="Trazado 781407" d="M72.682,361.432A14.411,14.411,0,0,1,68.54,355.5c-.721-1.8-1.766-3.568-3.148-3.822a7.408,7.408,0,0,0-3.247.359,7.709,7.709,0,0,1,2.3,3.462,14.411,14.411,0,0,0,4.143,5.936c2.552,2.265,4.943,5.792.361,8.952a8.545,8.545,0,0,1-2.412,1.181,7.415,7.415,0,0,0,6.5-1.181c4.582-3.16,2.191-6.687-.361-8.952Zm0,0" transform="translate(-53.703 -303.85)" fill="#f9b599"/>
      <path id="Trazado_781408" data-name="Trazado 781408" d="M293.652,133.907a2.678,2.678,0,0,0,3.994-3.569c-.985-1.1-5.967-2.658-5.967-2.658s.987,5.124,1.973,6.227Zm0,0" transform="translate(-252.057 -110.335)" fill="#c5ebe6"/>
      <path id="Trazado_781409" data-name="Trazado 781409" d="M18.084,133.907a2.678,2.678,0,0,1-3.994-3.569c.985-1.1,5.967-2.658,5.967-2.658s-.988,5.124-1.973,6.227Zm0,0" transform="translate(-11.588 -110.335)" fill="#c5ebe6"/>
      <g id="Grupo_1063942-2" data-name="Grupo 1063942" transform="translate(0 0)">
        <path id="Trazado_781410" data-name="Trazado 781410" d="M48.994,47.347a17.138,17.138,0,0,0-11.4-16.1A18.788,18.788,0,0,0,41.445,24.8a3.7,3.7,0,0,0,4.906-5.48,12.005,12.005,0,0,0-3.923-2.091,18.662,18.662,0,0,0-30.1-13.269,1.023,1.023,0,0,0,1.261,1.61,16.446,16.446,0,0,1,6.321-3.064A7.917,7.917,0,0,0,21.19,5.891a7.23,7.23,0,0,0,2.8,2.33l.348.154c.019.008.038.016.058.023.122.046.245.087.367.128l.011,0a5.333,5.333,0,0,0,.683.184l.149.033.06.012a7.284,7.284,0,0,0,1.208.108c.168,0,.333-.007.495-.021a6.283,6.283,0,0,0,1.244-.209,2.462,2.462,0,0,0-.432-4.828,1.328,1.328,0,0,1-.344-.08l-.051-.018a1.243,1.243,0,0,1-.264-.14l-.082-.064-.017-.013L27.4,3.467l-.059-.058-.053-.065-.015-.019L27.256,3.3l-.041-.06-.033-.066-.011-.021c-.01-.028-.021-.056-.031-.082l-.015-.058c0-.006,0-.013-.005-.02,0-.023-.007-.054-.013-.088,0-.114,0-.32.017-.534A16.6,16.6,0,0,1,40.295,16.484l-.368-.117a1.023,1.023,0,0,0-1.31,1.17,34.618,34.618,0,0,0,1.346,5.083l-.01.034a16.62,16.62,0,0,1-32.1.615,30.019,30.019,0,0,0,1.618-5.732,1.023,1.023,0,0,0-1.31-1.17c-.206.064-.5.157-.836.27A16.456,16.456,0,0,1,10.784,8.36a1.023,1.023,0,1,0-1.6-1.269A18.5,18.5,0,0,0,5.205,17.408,10.7,10.7,0,0,0,1.74,19.321,3.7,3.7,0,0,0,6.28,25.03a18.822,18.822,0,0,0,4.129,6.6,17.151,17.151,0,0,0-7.631,6.382,1.023,1.023,0,1,0,1.712,1.12,15.09,15.09,0,0,1,7.6-5.962c.125.1.249.2.377.3l.03.022A22.023,22.023,0,0,0,6.578,47.8a10.482,10.482,0,0,0-3.442,2.463,7.54,7.54,0,0,0-.624.81,15.128,15.128,0,0,1,.177-8.086,1.023,1.023,0,1,0-1.958-.593,17.148,17.148,0,0,0,.484,11.292,1.007,1.007,0,0,0,.243.357,6.674,6.674,0,0,0,.3,2.494c1.423,4.584,5.52,10.351,10.31,12.009a8.593,8.593,0,0,0,2.817.487,8.341,8.341,0,0,0,3.406-.74l.084.034.206.084.171.067.207.079.172.063.209.074.172.058.211.068.172.053.213.063.172.048c.072.02.143.04.215.058l.173.044.216.053.174.039.216.047.176.035.216.041.179.03.215.036.184.027.212.029.192.023.205.023.2.019.2.017.22.014.18.011.256.01.145.005c.134,0,.268.005.4.005.153,0,.306,0,.458-.007l.172-.007c.094,0,.189-.007.283-.013l.218-.015c.079-.005.157-.01.236-.017s.161-.016.242-.024l.209-.021c.085-.01.17-.022.255-.033l.194-.025.264-.042.183-.03c.091-.016.18-.034.271-.051l.174-.033c.091-.019.182-.039.273-.06l.169-.038c.091-.021.182-.045.272-.067l.168-.043c.091-.024.18-.05.271-.075l.167-.048c.09-.027.178-.055.267-.083l.168-.054c.087-.029.175-.059.262-.09l.171-.059c.085-.031.17-.063.255-.1l.175-.067c.083-.032.165-.067.248-.1l.179-.074c.08-.034.16-.07.24-.105l.186-.083.229-.109.089-.041a8.35,8.35,0,0,0,6.939.607c4.791-1.657,8.888-7.424,10.311-12.009a6.209,6.209,0,0,0-.279-4.641,17.1,17.1,0,0,0,.616-4.549ZM25.07,3.127a1.036,1.036,0,0,0,.016.113l0,.015a1.7,1.7,0,0,0,.064.31l.024.091a1.063,1.063,0,0,0,.048.14l.024.059a1.591,1.591,0,0,0,.118.265l.051.1a1.059,1.059,0,0,0,.064.109l.1.15a1.058,1.058,0,0,0,.088.118l.117.143a1.112,1.112,0,0,0,.082.091l.081.079a1.869,1.869,0,0,0,.255.224l.032.024a.973.973,0,0,0,.111.086,3.305,3.305,0,0,0,.785.4,3.386,3.386,0,0,0,.846.2.444.444,0,0,1,.366.237.41.41,0,0,1,0,.352.414.414,0,0,1-.27.23,4.251,4.251,0,0,1-.848.142l-.028,0a4.634,4.634,0,0,1-1.164-.061l-.14-.031a3.456,3.456,0,0,1-.43-.111l-.028-.01-.023-.007c-.091-.031-.184-.062-.275-.094l-.307-.136a5.16,5.16,0,0,1-1.986-1.663,5.918,5.918,0,0,1-.927-2.537,16.971,16.971,0,0,1,1.9-.109q.642,0,1.27.048a8.819,8.819,0,0,0-.021,1.033ZM44.695,23.021a1.658,1.658,0,0,1-2.337-.131A14.093,14.093,0,0,1,41,18.884a14.054,14.054,0,0,1,3.828,1.8,1.657,1.657,0,0,1-.131,2.337Zm2.253,24.327a15.179,15.179,0,0,1-.189,2.377,11.656,11.656,0,0,0-4.444-2.511,21.759,21.759,0,0,0-6.458-14.293l.076-.064.053.018A15.078,15.078,0,0,1,46.947,47.348ZM3.4,23.021a1.657,1.657,0,0,1-.131-2.337,14.06,14.06,0,0,1,3.828-1.8,14.047,14.047,0,0,1-1.36,4.006,1.657,1.657,0,0,1-2.337.131Zm10.816,11.64A18.681,18.681,0,0,0,34.2,34.172a19.544,19.544,0,0,1,6.027,12.607,6.117,6.117,0,0,0-1.684.04,3.854,3.854,0,0,0-2.215,1.432H14.09a3.85,3.85,0,0,0-2.215-1.432,7.8,7.8,0,0,0-3.2.233A19.761,19.761,0,0,1,14.212,34.661ZM27.474,62.847a5.432,5.432,0,0,0,1.985,3.712c-.092.037-.185.073-.279.107l-.014.005q-.177.065-.356.125l-.027.009c-.115.038-.23.074-.345.11l-.04.012c-.111.033-.222.065-.334.1l-.053.015q-.161.043-.323.082l-.066.016c-.1.025-.206.047-.31.07l-.081.018c-.1.021-.2.039-.3.057l-.095.018q-.143.025-.288.046l-.105.017c-.092.013-.185.025-.277.037l-.118.015c-.089.011-.178.019-.268.028l-.128.013-.268.02-.129.009c-.094.005-.188.008-.282.012l-.116,0c-.133,0-.266.006-.4.006q-.176,0-.351,0l-.1,0-.249-.01-.111-.007-.239-.015-.109-.01c-.08-.007-.161-.014-.241-.022l-.1-.011-.249-.029-.091-.013-.258-.037-.079-.013c-.09-.014-.18-.029-.271-.046l-.066-.013c-.094-.018-.188-.036-.282-.056l-.052-.012q-.148-.031-.3-.066l-.039-.009c-.1-.025-.205-.05-.308-.077l-.026-.007q-.16-.043-.319-.09l-.013,0-.081-.025a5.687,5.687,0,0,0,2.416-4.078c.12-1.96-.985-3.989-3.286-6.03a13.467,13.467,0,0,1-3.871-5.55q-.206-.515-.423-.97H35.054q-.217.456-.423.969a13.465,13.465,0,0,1-3.871,5.551c-2.3,2.041-3.405,4.069-3.285,6.03ZM12.74,66.612c-4.413-1.527-7.934-7.166-9.025-10.682a4.244,4.244,0,0,1,.951-4.311,9.516,9.516,0,0,1,6.275-2.835,3.179,3.179,0,0,1,.565.045c.758.14,1.626,1.3,2.382,3.2A15.343,15.343,0,0,0,18.3,58.347c1.242,1.1,2.7,2.755,2.6,4.375a4.174,4.174,0,0,1-2.142,2.97,6.437,6.437,0,0,1-6.02.92ZM46.7,55.93c-1.091,3.516-4.613,9.155-9.025,10.682a6.435,6.435,0,0,1-6.02-.921,4.176,4.176,0,0,1-2.142-2.97c-.1-1.62,1.361-3.273,2.6-4.375a15.341,15.341,0,0,0,4.413-6.322c.756-1.891,1.625-3.056,2.383-3.195a9.112,9.112,0,0,1,6.839,2.79,4.243,4.243,0,0,1,.951,4.31Zm0,0" transform="translate(0 0)" fill="#18191b"/>
        <path id="Trazado_781411" data-name="Trazado 781411" d="M149.2,140.785a4.574,4.574,0,0,0-4.009,2.374,1.023,1.023,0,0,0,1.794.985,2.526,2.526,0,0,1,4.4-.05,1.023,1.023,0,1,0,1.771-1.024,4.586,4.586,0,0,0-3.958-2.284Zm0,0" transform="translate(-125.36 -121.661)" fill="#18191b"/>
        <path id="Trazado_781412" data-name="Trazado 781412" d="M87,90.318a1.022,1.022,0,0,0,1.389-.4,2.526,2.526,0,0,1,4.4-.049,1.023,1.023,0,1,0,1.771-1.025,4.572,4.572,0,0,0-7.967.09A1.023,1.023,0,0,0,87,90.318Zm0,0" transform="translate(-74.727 -74.797)" fill="#18191b"/>
        <path id="Trazado_781413" data-name="Trazado 781413" d="M205.185,90.318a1.023,1.023,0,0,0,1.389-.4,2.526,2.526,0,0,1,4.4-.049,1.023,1.023,0,1,0,1.771-1.025,4.572,4.572,0,0,0-7.967.09A1.023,1.023,0,0,0,205.185,90.318Zm0,0" transform="translate(-176.853 -74.797)" fill="#18191b"/>
      </g>
    </g>
  </g>
</svg>
