<svg xmlns="http://www.w3.org/2000/svg" width="85" height="69" viewBox="0 0 85 69">
  <g id="Grupo_1063981" data-name="Grupo 1063981" transform="translate(-180 -5570)">
    <rect id="Rectángulo_34827" data-name="Rectángulo 34827" width="85" height="69" rx="9" transform="translate(180 5570)" fill="#b8bfe8"/>
    <g id="Grupo_1063946" data-name="Grupo 1063946" transform="translate(2 20.649)">
      <g id="Grupo_1063945" data-name="Grupo 1063945" transform="translate(203.218 5558.218)">
        <path id="Trazado_781451" data-name="Trazado 781451" d="M9.318,0A9.318,9.318,0,1,1,0,9.318,9.318,9.318,0,0,1,9.318,0Z" transform="translate(33.464 1.463)" fill="#ff2828" stroke="#18191b" stroke-width="1"/>
        <g id="Grupo_1063944" data-name="Grupo 1063944" transform="translate(38.292 6.292)">
          <path id="Trazado_781423" data-name="Trazado 781423" d="M369.483,62.993h-1.5V61.5a1.5,1.5,0,1,0-2.993,0v1.5h-1.5a1.5,1.5,0,1,0,0,2.993h1.5v1.5a1.5,1.5,0,1,0,2.993,0v-1.5h1.5a1.5,1.5,0,1,0,0-2.993Z" transform="translate(-362 -60)" fill="#0a789b" stroke="#18191b" stroke-width="1"/>
          <path id="Trazado_781424" data-name="Trazado 781424" d="M409.718,62.691h-1.359V61.346A1.353,1.353,0,0,0,407,60v8.074a1.353,1.353,0,0,0,1.359-1.346V65.382h1.359a1.346,1.346,0,1,0,0-2.691Z" transform="translate(-402.51 -59.541)" fill="#08475e"/>
        </g>
      </g>
      <g id="recien-nacido_6_" data-name="recien-nacido (6)" transform="translate(190.562 5556.304)">
        <path id="Trazado_781425" data-name="Trazado 781425" d="M91.1,243.553a13.179,13.179,0,1,1-13.179-13.178A13.179,13.179,0,0,1,91.1,243.553Zm0,0" transform="translate(-57.077 -204.685)" fill="#f8d6c9"/>
        <path id="Trazado_781426" data-name="Trazado 781426" d="M200.337,243.553a13.179,13.179,0,1,1-13.178-13.178A13.179,13.179,0,0,1,200.337,243.553Zm0,0" transform="translate(-154.135 -204.685)" fill="#f8d6c9"/>
        <path id="Trazado_781427" data-name="Trazado 781427" d="M278.781,230.374a13.354,13.354,0,0,0-1.68.106,13.18,13.18,0,0,1,0,26.145,13.179,13.179,0,1,0,1.68-26.251Zm0,0" transform="translate(-245.757 -204.684)" fill="#f9b599"/>
        <path id="Trazado_781428" data-name="Trazado 781428" d="M140.7,231.265c0-8.91-6.206-16.132-13.863-16.132s-13.862,7.223-13.862,16.132,6.206,16.132,13.862,16.132S140.7,240.175,140.7,231.265Zm0,0" transform="translate(-99.934 -191.143)" fill="#f8d6c9"/>
        <path id="Trazado_781429" data-name="Trazado 781429" d="M223.91,215.132a12.1,12.1,0,0,0-1.679.118c6.864.965,12.183,7.766,12.183,16.014s-5.319,15.049-12.183,16.014a12.035,12.035,0,0,0,1.679.118c7.656,0,13.863-7.223,13.863-16.132s-6.206-16.132-13.863-16.132Zm0,0" transform="translate(-197.005 -191.142)" fill="#f9b599"/>
        <path id="Trazado_781430" data-name="Trazado 781430" d="M131.691,22.01A14.479,14.479,0,1,1,117.213,7.531,14.479,14.479,0,0,1,131.691,22.01Zm0,0" transform="translate(-90.834 -6.691)" fill="#f8d6c9"/>
        <path id="Trazado_781431" data-name="Trazado 781431" d="M219.191,7.531a14.542,14.542,0,0,0-1.68.1,14.479,14.479,0,0,1,0,28.763,14.641,14.641,0,0,0,1.68.1,14.479,14.479,0,1,0,0-28.957Zm0,0" transform="translate(-192.812 -6.691)" fill="#f9b599"/>
        <path id="Trazado_781432" data-name="Trazado 781432" d="M278.964,301.951a.967.967,0,1,1-.967-.967A.966.966,0,0,1,278.964,301.951Zm0,0" transform="translate(-245.695 -267.421)" fill="#f9b599"/>
        <path id="Trazado_781433" data-name="Trazado 781433" d="M177.12,301.951a.967.967,0,1,1-.967-.967A.966.966,0,0,1,177.12,301.951Zm0,0" transform="translate(-155.208 -267.421)" fill="#f9b599"/>
        <path id="Trazado_781434" data-name="Trazado 781434" d="M133.657,127.291c0-1-1.319-1.806-2.945-1.806s-2.945.808-2.945,1.806,1.319,1.806,2.945,1.806S133.657,128.288,133.657,127.291Zm0,0" transform="translate(-113.074 -111.492)" fill="#e58cb6"/>
        <path id="Trazado_781435" data-name="Trazado 781435" d="M290.446,127.291c0-1-1.319-1.806-2.945-1.806s-2.945.808-2.945,1.806,1.319,1.806,2.945,1.806S290.446,128.288,290.446,127.291Zm0,0" transform="translate(-252.38 -111.492)" fill="#e58cb6"/>
        <path id="Trazado_781436" data-name="Trazado 781436" d="M217.548,13.232a1.182,1.182,0,0,1-.755,1.651,4.306,4.306,0,0,1-.864.145,4.7,4.7,0,0,1-1.194-.062,4.862,4.862,0,0,1-.595-.153c-.1-.033-.2-.065-.294-.1l-.286-.127a5.086,5.086,0,0,1-1.963-1.64,5.905,5.905,0,0,1-.964-3.26h4.44a5.3,5.3,0,0,0-.132,1.411,1.535,1.535,0,0,0,.037.2l.027.1c.013.031.026.064.039.1a.477.477,0,0,0,.045.1l.051.1.062.093.031.05.037.043.074.092.085.083a1.815,1.815,0,0,0,.188.159,1.885,1.885,0,0,0,.46.238,1.944,1.944,0,0,0,.5.117,1.2,1.2,0,0,1,.974.666Zm0,0" transform="translate(-186.7 -8.604)" fill="#eeb682"/>
        <path id="Trazado_781437" data-name="Trazado 781437" d="M131.117,372.288a5.3,5.3,0,0,1,8.208-4.429,18.257,18.257,0,0,0,1.386-6.913H112.989a18.217,18.217,0,0,0,1.485,7.143,5.3,5.3,0,0,1,7.206,7.7,12.106,12.106,0,0,0,10.637-.143,5.28,5.28,0,0,1-1.2-3.358Zm0,0" transform="translate(-99.945 -320.696)" fill="#8debdf"/>
        <path id="Trazado_781438" data-name="Trazado 781438" d="M269.349,359.672a11.829,11.829,0,0,0,3.4-4.873c.592-1.48,1.45-2.929,2.584-3.137,2.416-.444,8.849,2.067,7.348,6.9s-7.475,12.7-13.629,8.455c-3.762-2.594-1.8-5.489.3-7.348Zm0,0" transform="translate(-236.718 -312.403)" fill="#f8d6c9"/>
        <path id="Trazado_781439" data-name="Trazado 781439" d="M308.047,351.663a1.826,1.826,0,0,0-.693.295c2.7.824,5.769,3.106,4.683,6.608-1.054,3.4-4.312,8.283-8.29,9.425,5.411,1.613,10.31-5.111,11.649-9.425,1.5-4.836-4.933-7.347-7.348-6.9Zm0,0" transform="translate(-269.431 -312.404)" fill="#f9b599"/>
        <path id="Trazado_781440" data-name="Trazado 781440" d="M88.91,359.672a11.83,11.83,0,0,1-3.4-4.873c-.592-1.48-1.45-2.929-2.583-3.137-2.416-.444-8.849,2.067-7.349,6.9s7.475,12.7,13.629,8.455c3.762-2.594,1.8-5.489-.3-7.348Zm0,0" transform="translate(-66.506 -312.403)" fill="#f8d6c9"/>
        <path id="Trazado_781441" data-name="Trazado 781441" d="M128,359.673a11.83,11.83,0,0,1-3.4-4.873c-.592-1.479-1.45-2.928-2.583-3.137a6.083,6.083,0,0,0-2.667.294,6.321,6.321,0,0,1,1.891,2.843,11.83,11.83,0,0,0,3.4,4.873c2.1,1.859,4.058,4.754.3,7.348a7.018,7.018,0,0,1-1.98.97,6.089,6.089,0,0,0,5.339-.97c3.761-2.594,1.8-5.489-.3-7.349Zm0,0" transform="translate(-105.599 -312.404)" fill="#f9b599"/>
        <path id="Trazado_781442" data-name="Trazado 781442" d="M200.623,150.28a4.585,4.585,0,1,1-4.585-4.585A4.585,4.585,0,0,1,200.623,150.28Zm0,0" transform="translate(-169.659 -129.448)" fill="#c5ebe6"/>
        <path id="Trazado_781443" data-name="Trazado 781443" d="M221.329,173.957a1.614,1.614,0,1,1-1.613-1.614A1.614,1.614,0,0,1,221.329,173.957Zm0,0" transform="translate(-193.336 -153.125)" fill="#f8ce5e"/>
        <g id="Grupo_1063943" data-name="Grupo 1063943" transform="translate(0.5 0)">
          <path id="Trazado_781444" data-name="Trazado 781444" d="M97.429,38.868a14.011,14.011,0,0,0-9.357-13.225,15.318,15.318,0,1,0-22.312.318A14.17,14.17,0,0,0,60,30.48a14.03,14.03,0,0,0-1.6,14.044,5.525,5.525,0,0,0,.256,1.887c1.168,3.764,4.531,8.5,8.464,9.858a7.04,7.04,0,0,0,2.313.4,6.859,6.859,0,0,0,2.8-.609l.034.016a12.925,12.925,0,0,0,10.726-.306,6.856,6.856,0,0,0,5.7.5c3.933-1.36,7.3-6.094,8.464-9.858a5.093,5.093,0,0,0-.229-3.809,14.054,14.054,0,0,0,.5-3.734Zm-1.68,0a12.459,12.459,0,0,1-.155,1.951,9.559,9.559,0,0,0-3.647-2.062A17.881,17.881,0,0,0,86.64,27.02l.055-.047A12.329,12.329,0,0,1,95.75,38.868ZM77.808,1.719a7.246,7.246,0,0,0-.017.849.85.85,0,0,0,.014.093l0,.013a1.391,1.391,0,0,0,.053.255l.02.075a.871.871,0,0,0,.039.115c.007.016.013.032.02.048a1.252,1.252,0,0,0,.1.217l.041.082a.82.82,0,0,0,.053.091l.081.122a.8.8,0,0,0,.071.1l.1.119a.834.834,0,0,0,.068.074l.066.064a1.565,1.565,0,0,0,.209.184l.026.02a.8.8,0,0,0,.092.071,2.7,2.7,0,0,0,.644.33,2.78,2.78,0,0,0,.694.161.364.364,0,0,1,.3.194.343.343,0,0,1-.219.478,3.458,3.458,0,0,1-.7.116l-.023,0a3.782,3.782,0,0,1-.956-.05l-.115-.025a2.837,2.837,0,0,1-.353-.091l-.022-.008-.02-.007c-.075-.025-.151-.05-.226-.078L77.6,5.217a4.239,4.239,0,0,1-1.63-1.365,4.863,4.863,0,0,1-.761-2.083,13.67,13.67,0,0,1,1.56-.09q.526,0,1.042.039Zm-4.256.344a6.5,6.5,0,0,0,1.053,2.773,5.935,5.935,0,0,0,2.3,1.913l.286.127.047.019c.1.037.2.071.3.1l.009,0a4.221,4.221,0,0,0,.561.151l.122.027.049.01a5.932,5.932,0,0,0,.991.089c.138,0,.273-.006.406-.017A5.164,5.164,0,0,0,80.7,7.089a2.021,2.021,0,0,0-.355-3.963,1.108,1.108,0,0,1-.283-.066l-.042-.015a1.037,1.037,0,0,1-.217-.114l-.067-.053-.014-.01L79.7,2.846,79.652,2.8l-.043-.054L79.6,2.731l-.013-.02-.033-.049-.027-.054-.01-.018c-.008-.023-.017-.046-.026-.068l-.013-.048c0-.006,0-.011,0-.016s-.006-.044-.01-.072c0-.094,0-.262.014-.437a13.641,13.641,0,1,1-5.923.113Zm-14.662,36.8a12.234,12.234,0,0,1,2.451-7.382,12.46,12.46,0,0,1,5.8-4.262q.166.134.335.264a18.081,18.081,0,0,0-4.863,11.751,8.6,8.6,0,0,0-2.826,2.022,6.155,6.155,0,0,0-.513.665,12.347,12.347,0,0,1-.381-3.057Zm8.778,15.814c-3.622-1.253-6.513-5.882-7.409-8.769a3.483,3.483,0,0,1,.781-3.538,7.813,7.813,0,0,1,5.151-2.327,2.6,2.6,0,0,1,.463.037c.622.115,1.335,1.07,1.956,2.623A12.6,12.6,0,0,0,72.234,47.9c1.019.9,2.217,2.261,2.136,3.591a3.427,3.427,0,0,1-1.758,2.438,5.282,5.282,0,0,1-4.942.756Zm6.393.257a4.668,4.668,0,0,0,1.983-3.348c.1-1.609-.809-3.274-2.7-4.95a11.055,11.055,0,0,1-3.178-4.556c-.143-.358-.293-.689-.447-1h2a.84.84,0,1,0,0-1.68H68.6a3.017,3.017,0,0,0-1.641-.977,6.409,6.409,0,0,0-2.628.192,16.227,16.227,0,0,1,4.553-10.176,15.29,15.29,0,0,0,16.4-.4A16.06,16.06,0,0,1,90.233,38.4a5.056,5.056,0,0,0-1.382.033,3.019,3.019,0,0,0-1.641.977H75.086a.84.84,0,0,0,0,1.68h11c-.154.307-.3.637-.447,1a11.055,11.055,0,0,1-3.178,4.556h0c-1.887,1.676-2.8,3.341-2.7,4.95a4.46,4.46,0,0,0,1.629,3.048,11.21,11.21,0,0,1-7.331.3ZM95.55,45.913c-.9,2.887-3.787,7.516-7.409,8.769a5.282,5.282,0,0,1-4.942-.756,3.428,3.428,0,0,1-1.758-2.438c-.081-1.33,1.116-2.687,2.136-3.591a12.594,12.594,0,0,0,3.623-5.19c.621-1.552,1.333-2.509,1.956-2.623a7.48,7.48,0,0,1,5.614,2.29,3.483,3.483,0,0,1,.781,3.538Zm0,0" transform="translate(-50.887 0)" fill="#18191b"/>
          <path id="Trazado_781445" data-name="Trazado 781445" d="M164.614,103.551h2.8a.84.84,0,1,0,0-1.679h-2.8a.84.84,0,1,0,0,1.679Zm0,0" transform="translate(-145.567 -90.512)" fill="#18191b"/>
          <path id="Trazado_781446" data-name="Trazado 781446" d="M254.45,103.551h2.8a.84.84,0,1,0,0-1.679h-2.8a.84.84,0,1,0,0,1.679Zm0,0" transform="translate(-225.385 -90.512)" fill="#18191b"/>
          <path id="Trazado_781447" data-name="Trazado 781447" d="M5.18,31.569H3.236L5.42,28.7a.84.84,0,0,0-.668-1.349H1.34a.84.84,0,1,0,0,1.68H3.057L.873,31.9a.84.84,0,0,0,.668,1.348H5.18a.84.84,0,1,0,0-1.679Zm0,0" transform="translate(-0.5 -24.302)" fill="#18191b"/>
          <path id="Trazado_781448" data-name="Trazado 781448" d="M62.925,38.023h.52L62.4,40.009a.84.84,0,0,0,.744,1.229h1.909a.84.84,0,1,0,0-1.679h-.521l1.04-1.986a.84.84,0,0,0-.744-1.229H62.925a.84.84,0,0,0,0,1.679Zm0,0" transform="translate(-55.218 -32.291)" fill="#18191b"/>
          <path id="Trazado_781449" data-name="Trazado 781449" d="M183.922,143.589a5.429,5.429,0,0,0,7.409,5.051.84.84,0,1,0-.615-1.563,3.745,3.745,0,1,1,1.926-1.705.84.84,0,0,0,1.477.8,5.426,5.426,0,1,0-10.2-2.583Zm0,0" transform="translate(-163.468 -122.757)" fill="#18191b"/>
          <path id="Trazado_781450" data-name="Trazado 781450" d="M210.57,167.266a2.453,2.453,0,1,0,2.454-2.454A2.456,2.456,0,0,0,210.57,167.266Zm3.228,0a.774.774,0,1,1-.774-.774A.775.775,0,0,1,213.8,167.266Zm0,0" transform="translate(-187.145 -146.434)" fill="#18191b"/>
        </g>
      </g>
    </g>
  </g>
</svg>
