<svg xmlns="http://www.w3.org/2000/svg" width="68.375" height="68.375" viewBox="0 0 68.375 68.375">
  <g id="Grupo_1063982" data-name="Grupo 1063982" transform="translate(-600 -5781)">
    <circle id="Elipse_4807" data-name="Elipse 4807" cx="34.188" cy="34.188" r="34.188" transform="translate(600 5781)" fill="#32cfc0"/>
    <g id="partera_2_" data-name="partera (2)" transform="translate(612.737 5791.116)">
      <path id="Trazado_776398" data-name="Trazado 776398" d="M10,56.152a.4.4,0,0,1-.224-.737l6.79-4.529-8.311,4.8A.4.4,0,1,1,7.839,55l3.744-2.4L7.526,54.945a.4.4,0,0,1-.424-.684L13.55,50,7.133,53.7A.4.4,0,0,1,6.7,53.02l6.8-4.679L7.133,52.017a.4.4,0,0,1-.421-.684l1.16-.76L7.132,51a.4.4,0,0,1-.441-.671l4.8-3.562L7.283,49.194a.4.4,0,0,1-.455-.658l3.4-2.777L8.069,47a.4.4,0,0,1-.454-.66L9.026,45.2a.384.384,0,0,1-.108-.123.4.4,0,0,1,.147-.549l2.762-1.595a.4.4,0,0,1,.454.66l-.18.146,2.01-1.16a.4.4,0,0,1,.455.659l-3.394,2.776,5.95-3.434a.4.4,0,0,1,.441.671l-4.8,3.566L20.1,42.586a.4.4,0,0,1,.421.684l-1.167.761,2.506-1.446a.4.4,0,0,1,.429.679l-6.8,4.679L24.579,42.7a.4.4,0,0,1,.423.684l-6.446,4.262,7.777-4.489a.4.4,0,0,1,.418.686l-3.735,2.392,3.928-2.268a.4.4,0,0,1,.424.683l-6.79,4.53L27.289,45.3a.4.4,0,0,1,.421.684l-3.553,2.332,3.4-1.962a.4.4,0,0,1,.426.681L23.9,49.807l3.955-2.283a.4.4,0,0,1,.44.671l-4.9,3.608,4.834-2.79a.4.4,0,0,1,.452.661l-3.856,3.093,3.8-2.194a.4.4,0,0,1,.47.643l-2.517,2.271,2.433-1.4a.4.4,0,0,1,.5.615l-1.3,1.468L29.37,53.5a.4.4,0,0,1,.581.482l-.292.84L29.7,54.8a.4.4,0,1,1,.4.7l-.976.563a.4.4,0,0,1-.581-.482l.293-.845L26.467,56.1a.4.4,0,0,1-.5-.614l1.3-1.463-3.6,2.078a.4.4,0,0,1-.47-.643l2.518-2.266L20.665,56.1a.4.4,0,0,1-.452-.661l3.86-3.093L17.566,56.1a.4.4,0,0,1-.44-.671l4.9-3.606L14.607,56.1a.4.4,0,0,1-.426-.68l4.084-2.767L12.3,56.1a.4.4,0,0,1-.421-.683L15.43,53.08,10.2,56.1a.4.4,0,0,1-.2.057Z" transform="translate(-0.248 -8.211)" fill="#9e82ec"/>
      <path id="Trazado_776399" data-name="Trazado 776399" d="M20.995,55.854a.4.4,0,0,1-.335-.624l.087-.131a.4.4,0,0,1-.425-.643l.68-.815-.681.392a.4.4,0,0,1-.482-.638l.76-.73-.716.413a.4.4,0,0,1-.471-.643l1.172-1.061-1.066.616a.4.4,0,0,1-.471-.643l1.886-1.707-1.849,1.066a.4.4,0,0,1-.469-.643L21,47.928l-2.266,1.307a.4.4,0,0,1-.465-.651l2.639-2.3-2.469,1.426A.4.4,0,0,1,18,47.036l.377-.28-.064.036a.4.4,0,0,1-.508-.608L19.3,44.42l-1.1.634a.4.4,0,0,1-.6-.423l.205-1.084a.4.4,0,0,1-.08-.732l.4-.233a.4.4,0,0,1,.6.423l-.172.917L20.9,42.571a.4.4,0,0,1,.508.608L19.91,44.943l4.13-2.384a.4.4,0,0,1,.441.671l-.379.281a.4.4,0,0,1,.461.653l-2.634,2.293,2.057-1.188a.4.4,0,0,1,.469.648L22.066,48.05l1.732-1a.4.4,0,0,1,.471.643L22.382,49.4l1.076-.621a.4.4,0,0,1,.471.643l-1.171,1.059.3-.173a.4.4,0,0,1,.482.638l-.842.81a.4.4,0,0,1,.367.655l-.926,1.112a.4.4,0,0,1,.211.6l-.624.942a.4.4,0,0,1-.166.511l-.363.21a.393.393,0,0,1-.2.062Z" transform="translate(-2.403 -8.207)" fill="#b5a1ff"/>
      <path id="Trazado_776400" data-name="Trazado 776400" d="M20.572,45.43a.4.4,0,0,1-.261-.707l.47-.4-1.119.643a.4.4,0,0,1-.475-.643l2.286-2.135L18.59,43.854a.4.4,0,0,1-.465-.651l2.789-2.43-2.766,1.6a.4.4,0,0,1-.465-.651l1.591-1.385-1.139.658a.4.4,0,0,1-.52-.592l.856-1.128-.339.2a.4.4,0,0,1-.581-.476l.166-.491a.4.4,0,0,1,.013-.688l.4-.233a.4.4,0,0,1,.582.477l-.062.183,1.152-.665a.4.4,0,0,1,.521.592l-.86,1.126,3-1.73a.4.4,0,0,1,.465.651l-1.588,1.384,2.775-1.6a.4.4,0,0,1,.465.651l-2.792,2.431,2.328-1.344a.4.4,0,0,1,.475.643l-2.282,2.137,1.811-1.045a.4.4,0,0,1,.462.652l-.536.461a.4.4,0,0,1,.292.74l-3.561,2.057a.393.393,0,0,1-.2.055Z" transform="translate(-2.403 -7.227)" fill="#d8a279"/>
      <path id="Trazado_776401" data-name="Trazado 776401" d="M15.884,7.068a.4.4,0,0,1-.254-.712l2.734-2.239-4.156,2.4a.4.4,0,0,1-.437-.673l.868-.631-.227.131a.4.4,0,0,1-.472-.643l1.628-1.492a.4.4,0,0,1-.137-.745l2.6-1.5a.4.4,0,0,1,.473.643l-1.32,1.206L20.867.687a.4.4,0,0,1,.437.673l-.868.632L22.247.947a.4.4,0,0,1,.455.659L19.968,3.845,23.79,1.638a.4.4,0,0,1,.47.643L21.9,4.42l3.121-1.8a.4.4,0,0,1,.482.643L24.056,4.627,25.8,3.618a.4.4,0,0,1,.492.626L25.67,4.9l.589-.34a.4.4,0,0,1,.54.563l-.241.373a.4.4,0,0,1,.3.737l-1.312.757a.4.4,0,0,1-.54-.563l.222-.347L23.649,7a.4.4,0,0,1-.492-.626l.626-.655L21.556,7.006a.4.4,0,0,1-.482-.639l1.439-1.373-3.49,2.015a.4.4,0,0,1-.47-.643l2.361-2.141L16.085,7.014a.4.4,0,0,1-.2.054Z" transform="translate(-1.635 -0.005)" fill="#6b503d"/>
      <path id="Trazado_776402" data-name="Trazado 776402" d="M6.585,21.591a.4.4,0,0,1-.216-.741l4.074-2.592L6.131,20.75a.4.4,0,1,1-.421-.685l7.447-4.879L6.131,19.24a.4.4,0,0,1-.421-.685L11.7,14.638,6.251,17.782a.4.4,0,0,1-.42-.685l3.612-2.341L6.425,16.5A.4.4,0,0,1,6,15.817l5.785-3.94L6.923,14.683a.4.4,0,0,1-.433-.677l4.588-3.229L7.908,12.607a.4.4,0,0,1-.458-.658l3.129-2.6a.4.4,0,0,1-.285-.741l3.882-2.241a.4.4,0,0,1,.458.657l-3.04,2.528L18.44,5.6a.4.4,0,0,1,.433.677L14.289,9.5l6.447-3.723a.4.4,0,0,1,.428.681l-5.79,3.94,7.185-4.148a.4.4,0,0,1,.419.686L19.371,9.276l4.407-2.544a.4.4,0,0,1,.421.684L18.217,11.33l6.87-3.967a.4.4,0,1,1,.422.684l-7.449,4.88,8.2-4.735a.4.4,0,0,1,.417.688L22.6,11.475l4.51-2.6a.4.4,0,1,1,.416.688l-1.2.753L27.74,9.5a.4.4,0,1,1,.423.684L22.373,14l6.209-3.584A.4.4,0,1,1,29,11.1l-1.857,1.191,1.964-1.134a.4.4,0,0,1,.418.686l-.822.529.9-.518a.4.4,0,0,1,.421.685l-1.67,1.093,1.66-.958a.4.4,0,0,1,.441.671l-5.37,3.984,5.573-3.216a.4.4,0,1,1,.429.68l-1.206.825,1.027-.593a.4.4,0,0,1,.444.669l-2.531,1.917,2.4-1.383a.4.4,0,0,1,.44.671l-.606.451L31.3,17.2a.4.4,0,0,1,.466.651l-1.045.913.684-.395a.4.4,0,0,1,.5.614l-.523.593.04-.024a.4.4,0,0,1,.585.467l-.174.563a.4.4,0,0,1,0,.7l-.4.232a.4.4,0,0,1-.585-.467l.087-.28-1.3.749a.4.4,0,0,1-.5-.615l.526-.594-2.1,1.211a.4.4,0,0,1-.466-.651l1.045-.914L25.432,21.52a.4.4,0,0,1-.441-.671L25.6,20.4l-1.947,1.126a.4.4,0,0,1-.443-.669l2.531-1.917-4.482,2.588a.4.4,0,0,1-.428-.68l1.206-.827-2.613,1.506a.4.4,0,0,1-.441-.671l5.366-3.982-8.065,4.656a.4.4,0,0,1-.421-.684l1.672-1.094-3.084,1.78a.4.4,0,0,1-.419-.686l.826-.53-2.11,1.217a.4.4,0,1,1-.419-.687l1.849-1.185-3.246,1.874a.4.4,0,1,1-.422-.684L16.3,17.032l-7.8,4.5a.4.4,0,0,1-.415-.688L9.3,20.089,6.79,21.536a.4.4,0,0,1-.205.055Z" transform="translate(-0.05 -0.966)" fill="#916953"/>
      <path id="Trazado_776403" data-name="Trazado 776403" d="M33.693,27.6a.4.4,0,0,1-.287-.684l1.116-1.132-.785.453a.4.4,0,0,1-.468-.649l.267-.241a.4.4,0,0,1-.43-.63l1.2-1.573-.879.508a.4.4,0,0,1-.521-.593l.408-.539-.027.015a.4.4,0,0,1-.6-.428l.118-.585a.4.4,0,0,1-.049-.724l.376-.217a.4.4,0,0,1,.6.427l-.076.383,1-.577a.4.4,0,0,1,.52.593l-.413.54.876-.507a.4.4,0,0,1,.521.593l-1.2,1.579,1.554-.9a.4.4,0,0,1,.468.649l-.241.217a.4.4,0,0,1,.428.658l-1.113,1.131.271-.161a.4.4,0,1,1,.4.7L33.9,27.537a.4.4,0,0,1-.2.058Z" transform="translate(-5.347 -3.901)" fill="#d8a279"/>
      <path id="Trazado_776404" data-name="Trazado 776404" d="M8.576,27.652a.4.4,0,0,1-.363-.577l.19-.389-.8.465a.4.4,0,0,1-.53-.58L8.2,24.962l-1.675.965a.4.4,0,0,1-.482-.634L7.3,24.043l-1.126.649a.4.4,0,0,1-.517-.6l1.3-1.661-.06.035a.4.4,0,1,1-.4-.7L8.356,20.7a.4.4,0,0,1,.518.6L7.57,22.96l2-1.152a.4.4,0,0,1,.482.634L8.789,23.694l.587-.339a.4.4,0,0,1,.53.58L8.775,25.543l.357-.209a.4.4,0,0,1,.563.523l-.329.679a.4.4,0,0,1,.021.708l-.614.355a.4.4,0,0,1-.2.054Z" transform="translate(-0.06 -3.925)" fill="#d8a279"/>
      <path id="Trazado_776405" data-name="Trazado 776405" d="M18.049,35.072a.4.4,0,0,1-.235-.729L22.189,31.2,16.43,34.525A.4.4,0,0,1,16,33.847l5.32-3.72-6.376,3.681a.4.4,0,0,1-.433-.675l7.226-5.1L13.5,32.787a.4.4,0,0,1-.429-.679l7.5-5.162-8.2,4.732A.4.4,0,0,1,11.95,31l8.218-5.611L11.449,30.42a.4.4,0,0,1-.417-.688l2.519-1.608-2.5,1.443a.4.4,0,0,1-.427-.68L19.2,23.044l-8.722,5.037a.4.4,0,0,1-.429-.679l7.428-5.109-7.31,4.22a.4.4,0,0,1-.43-.678L16.118,21.4,10.133,24.86a.4.4,0,0,1-.423-.684l2.453-1.627-2.03,1.167a.4.4,0,0,1-.438-.673l5.9-4.321-5.468,3.156A.4.4,0,0,1,9.7,21.2l3.129-2.186-2.7,1.558a.4.4,0,0,1-.427-.68l.3-.206a.4.4,0,0,1-.337-.7l1.71-1.516-.608.351a.4.4,0,1,1-.4-.7L14.412,14.8a.4.4,0,0,1,.468.649l-1.71,1.517,5.564-3.212a.4.4,0,0,1,.427.68l-.051.034,1.4-.8a.4.4,0,0,1,.431.677l-3.126,2.185,3.818-2.2a.4.4,0,0,1,.438.672L16.163,19.3l6.8-3.926a.4.4,0,0,1,.424.683L20.933,17.69l3.078-1.777a.4.4,0,0,1,.43.678L18.06,21.028,25.9,16.5a.4.4,0,0,1,.429.679L18.9,22.294l9.247-5.339a.4.4,0,0,1,.427.68L19.992,23.48,28.965,18.3a.4.4,0,0,1,.417.687l-2.508,1.6,2.108-1.217a.4.4,0,0,1,.428.681l-8.22,5.614,7.79-4.5a.4.4,0,0,1,.429.679L21.91,27l7.071-4.083a.4.4,0,0,1,.433.677l-7.227,5.1,6.77-3.91a.4.4,0,0,1,.432.678l-5.323,3.721L28.8,26.451a.4.4,0,0,1,.436.675l-4.368,3.146,3.377-1.949a.4.4,0,0,1,.458.657l-3.52,2.938,1.309-.755a.4.4,0,1,1,.4.7l-5.347,3.087a.4.4,0,0,1-.459-.657L24.6,31.35l-6.353,3.666a.4.4,0,0,1-.2.055Z" transform="translate(-0.835 -2.546)" fill="#e2ac7f"/>
      <path id="Trazado_776406" data-name="Trazado 776406" d="M35.446,54.359a.4.4,0,0,1-.231-.732l5.532-3.886-6.88,3.972a.4.4,0,0,1-.426-.681l6.053-4.1-6.9,3.986a.4.4,0,1,1-.425-.683l6.583-4.4-7.163,4.135a.4.4,0,0,1-.425-.682l7.278-4.866-7.7,4.444a.4.4,0,0,1-.418-.685l4-2.573-3.984,2.3a.4.4,0,0,1-.417-.687l3.107-1.989-3.035,1.75a.4.4,0,0,1-.427-.679l8.377-5.705L29.781,47.3a.4.4,0,0,1-.421-.684l4.31-2.814-3.779,2.18a.4.4,0,0,1-.417-.683l2.895-1.881-2.091,1.206a.4.4,0,0,1-.421-.684L31.88,42.62l-.7.4a.4.4,0,0,1-.433-.676l4.33-3.07-.729.42a.4.4,0,0,1-.45-.664l2.852-2.239a.388.388,0,0,1-.064-.08.4.4,0,0,1,.146-.548l2.758-1.593a.4.4,0,0,1,.449.664l-1.2.941,3.293-1.9a.4.4,0,0,1,.433.676l-4.331,3.071,5.854-3.377a.4.4,0,0,1,.421.685l-2.026,1.324,2.637-1.523a.4.4,0,0,1,.42.684L42.65,37.693l3.387-1.956a.4.4,0,0,1,.421.685l-4.307,2.81,4.76-2.748a.4.4,0,0,1,.428.68L38.96,42.874l8.911-5.146a.4.4,0,0,1,.417.687l-3.1,1.986,3.1-1.792a.4.4,0,0,1,.419.685l-4,2.573L48.635,39.6a.4.4,0,1,1,.425.683L41.779,45.15l7.091-4.093a.4.4,0,0,1,.425.682l-6.574,4.4,6.06-3.5a.4.4,0,0,1,.426.681l-6.058,4.106,5.026-2.9a.4.4,0,0,1,.432.677l-5.53,3.886,2.789-1.608a.4.4,0,0,1,.446.666L42.471,51.12a.4.4,0,0,1,.113.74L38.353,54.3a.4.4,0,0,1-.447-.666l3.216-2.487-5.468,3.159a.4.4,0,0,1-.207.05Z" transform="translate(-4.685 -6.584)" fill="#ffe3a4"/>
      <path id="Trazado_776407" data-name="Trazado 776407" d="M46.04,45.6a.4.4,0,0,1-.322-.643l.688-.913L44.09,45.384a.4.4,0,0,1-.471-.643l1.24-1.126L42.915,44.74a.4.4,0,0,1-.467-.649l1.679-1.48-1.965,1.135a.4.4,0,0,1-.47-.643l1.652-1.486-1.459.841a.4.4,0,0,1-.476-.643l.9-.845-.419.241a.4.4,0,0,1-.532-.575l.482-.7a.409.409,0,0,1-.37-.2.4.4,0,0,1,.146-.549l1.3-.753a.4.4,0,0,1,.533.576l-.425.616,1.895-1.094a.4.4,0,0,1,.475.643l-.9.838L46.259,39a.4.4,0,0,1,.47.643L45.075,41.13,47.211,39.9a.4.4,0,0,1,.467.649L46,42.026l1.708-.985a.4.4,0,0,1,.471.643L46.939,42.81l.776-.448a.4.4,0,0,1,.523.589l-.686.913.316-.182a.4.4,0,0,1,.4.7l-2.028,1.175a.393.393,0,0,1-.2.051Z" transform="translate(-7.054 -7.398)" fill="#e2ac7f"/>
      <path id="Trazado_776408" data-name="Trazado 776408" d="M39.056,54.495a.4.4,0,0,1-.3-.667l1.023-1.164-1.394.8a.4.4,0,0,1-.478-.643l.381-.36-.531.306a.4.4,0,0,1-.49-.628l.768-.792-.965.563a.4.4,0,0,1-.519-.591l1.234-1.6-1.66.957a.4.4,0,0,1-.515-.6l1.212-1.521-1.546.89a.4.4,0,0,1-.49-.628l.786-.811-.891.514a.4.4,0,0,1-.482-.634l.635-.628-.658.38A.4.4,0,0,1,33.7,47l.391-.367-.343.2a.4.4,0,0,1-.5-.615l1.131-1.272-1.182.682a.4.4,0,0,1-.5-.618L33.877,43.7l-1.154.666a.4.4,0,0,1-.478-.638l.712-.682-.511.294a.4.4,0,0,1-.486-.632l2.662-2.667a.4.4,0,0,1,.2-.4l.527-.3a.4.4,0,0,1,.482.633l-1.158,1.16.766-.442a.4.4,0,0,1,.482.638l-.711.68.474-.273a.4.4,0,0,1,.5.618L35,43.658l1.126-.651a.4.4,0,0,1,.5.615l-1.131,1.273,1.2-.692a.4.4,0,0,1,.476.643l-.389.366.35-.2a.4.4,0,0,1,.482.634l-.636.63.685-.4a.4.4,0,0,1,.49.628l-.787.811.885-.512a.4.4,0,0,1,.515.6l-1.213,1.52,1.58-.912a.4.4,0,0,1,.519.593l-1.233,1.6,1.7-.981a.4.4,0,0,1,.49.627l-.77.794.992-.573a.4.4,0,0,1,.478.643l-.381.36.553-.322a.4.4,0,0,1,.5.614l-1.022,1.163L42.4,51.7a.4.4,0,0,1,.4.7l-3.548,2.048A.393.393,0,0,1,39.056,54.495Z" transform="translate(-5.206 -7.576)" fill="#edd096"/>
      <path id="Trazado_776409" data-name="Trazado 776409" d="M44.4,54.48a.4.4,0,0,1-.3-.672l.988-1.091-1.367.788a.4.4,0,0,1-.517-.6l.655-.833-.965.557a.4.4,0,0,1-.523-.59l.306-.4-.421.241a.4.4,0,0,1-.563-.519l.233-.5-.351.2A.4.4,0,0,1,41,50.586l.066-.185-.008,0a.4.4,0,0,1-.548-.146l-.529-.909a.4.4,0,0,1-.132-.744l.123-.072a.4.4,0,0,1,.55.146l.482.828.616-.355a.4.4,0,0,1,.578.482l-.067.184.508-.293a.4.4,0,0,1,.563.519l-.233.5,1.026-.592a.4.4,0,0,1,.522.589l-.306.4,1.057-.61a.4.4,0,0,1,.517.6l-.655.833L46.9,50.737a.4.4,0,0,1,.5.618l-1.96,2.165a.4.4,0,0,1-.167.513l-.676.39a.4.4,0,0,1-.2.056Z" transform="translate(-6.735 -9.377)" fill="#d6b883"/>
      <g id="Grupo_1044696" data-name="Grupo 1044696" transform="translate(5.263 0.609)">
        <path id="Trazado_776410" data-name="Trazado 776410" d="M6.119,22.6a3.51,3.51,0,0,0,2.4,1.071,8.888,8.888,0,0,0,.249,1.555,9.833,9.833,0,0,0,4.85,6.121,9.7,9.7,0,0,0,1.3.563v2.412a10.488,10.488,0,0,0-3.9.578,7.887,7.887,0,0,0-4.363,4.239A11.911,11.911,0,0,0,6.074,43.9c0,1.528,0,3.1,1.655,3.8a5.328,5.328,0,0,0,2.143.236H27.144a5.889,5.889,0,0,0,2.606-.392,8.122,8.122,0,0,0,4.5.039.982.982,0,0,0,.65-.208,7.822,7.822,0,0,0,.984-.449,17.583,17.583,0,0,0,3.7-3.25l1.569-1.57a.643.643,0,0,0,.175-.143.411.411,0,0,0,.037-.069L42.8,40.458a7.571,7.571,0,0,0-2.578-12.333,8.168,8.168,0,0,0-7.029.611,17.23,17.23,0,0,0-3.239,2.884c-1.078,1.078-2.159,2.151-3.233,3.232a.815.815,0,0,0-.108.08,8.077,8.077,0,0,0-2.885-.537H22.521V31.66a10.4,10.4,0,0,0,4.69-3.759A10.332,10.332,0,0,0,28.8,23.643a4.033,4.033,0,0,0,3.073-2.164,3.24,3.24,0,0,0,.285-1.2.343.343,0,0,0,.025-.1c0-2.687,0-5.269-1.126-7.782a13.4,13.4,0,0,0-5.323-6C25.663,2.7,22.008.46,18.574.617c-3.334.154-6.674,2.4-6.851,5.914a13.429,13.429,0,0,0-4.716,4.777c-1.624,2.821-1.743,5.79-1.743,8.95a.37.37,0,0,0,.03.119A3.262,3.262,0,0,0,6.119,22.6Zm.328-2.42v-.212A2.768,2.768,0,0,1,8.488,17.3v3.036c0,.885-.039,1.78-.01,2.668A3.079,3.079,0,0,1,6.447,20.177ZM9.664,47.185a2.2,2.2,0,0,1-2.412-1.93,27.524,27.524,0,0,1-.01-3.319,7,7,0,0,1,2.8-5.655,7.811,7.811,0,0,1,4.89-1.206,25.318,25.318,0,0,0,2.926,12.109H15.77c-2.034,0-4.07.014-6.1,0Zm6.568-9.694a4.011,4.011,0,0,0,4.51.187,3.683,3.683,0,0,0,.506-.373,24.541,24.541,0,0,1-2.454,9.144,24.329,24.329,0,0,1-2.56-8.959ZM31.843,47.17a6.926,6.926,0,0,1-5.817-4.154,7.059,7.059,0,0,1,.587-6.633,15.589,15.589,0,0,0,.943,2.359,32.541,32.541,0,0,0,5.95,8.3,6.015,6.015,0,0,1-1.664.128Zm6.022-2.985a40.963,40.963,0,0,1-3.278-3.744,44.074,44.074,0,0,0,5.4,1.62Q38.927,43.12,37.865,44.185Zm-.627-15.828a6.915,6.915,0,0,1,6.17,4.452,7.034,7.034,0,0,1-1.551,7.383l-1.126,1.122a46.812,46.812,0,0,1-7.157-2.289,21.854,21.854,0,0,1-1.435-2.469,10.249,10.249,0,0,1-1.216-4.222,2.66,2.66,0,0,1,.037-.552c1.738-1.8,3.622-3.508,6.278-3.43Zm-7.765,4.973c.1-.1.2-.2.3-.3a9,9,0,0,0,.161.954A16.235,16.235,0,0,0,32.589,39.6a.389.389,0,0,0,.023.032c.08.12.161.241.248.359A39.752,39.752,0,0,0,37.1,44.947l-.161.161A7.43,7.43,0,0,1,34.7,46.661a32.423,32.423,0,0,1-6.031-8.336A11.357,11.357,0,0,1,27.6,35.209C28.21,34.567,28.849,33.953,29.473,33.329Zm-3.427,2.282a7.62,7.62,0,0,0-1.746,5.4,7.265,7.265,0,0,0,4.369,6.139,8.358,8.358,0,0,1-1.246.036H19.445A25.207,25.207,0,0,0,22.509,35h.724a6.937,6.937,0,0,1,2.813.609Zm-4.694-1.55a3.656,3.656,0,0,1-.745,2.687,2.464,2.464,0,0,1-3.356.216,3.221,3.221,0,0,1-1.16-2.721v-2a10.7,10.7,0,0,0,5.261-.179Zm2.586-3.68a8.089,8.089,0,0,1-1.706.987.841.841,0,0,0-.844.3,8.564,8.564,0,0,1-5.339-.144.482.482,0,0,0-.473-.175A9.7,9.7,0,0,1,9.654,22.2V17.448c0-.4-.028-.819.008-1.222.113-1.253,1.066-1.866,2.054-2.451a15.532,15.532,0,0,1,3.789-1.6,16.211,16.211,0,0,1,2.554-.482,3.3,3.3,0,0,1,1.827.117,4.066,4.066,0,0,1,.761.709,8.274,8.274,0,0,0,3.755,1.9c1.343.322,3.251.088,3.391,1.911,0,.274,0,.552.009.829a40.522,40.522,0,0,1-.127,6.871,9.971,9.971,0,0,1-3.737,6.354Zm4.925-7.244a39.472,39.472,0,0,0,.11-5.7A3.166,3.166,0,0,1,30.995,20.2v.066a.029.029,0,0,0,0,.019,2.757,2.757,0,0,1-2.137,2.856ZM18.869,1.245a5.967,5.967,0,0,1,5.586,4.478c-.051-.023-.1-.053-.151-.08a13.569,13.569,0,0,0-11.394.241,5.577,5.577,0,0,1,5.959-4.639Zm-11.59,12a12.383,12.383,0,0,1,6.216-6.709,12.411,12.411,0,0,1,16.1,5.573,13.055,13.055,0,0,1,1.334,5.4,3.573,3.573,0,0,0-1.971-.744q-.006-.379-.006-.753c-.117-1.545-1.367-1.659-2.614-1.849a8.632,8.632,0,0,1-4.358-1.824c-.5-.429-.871-.989-1.551-1.138a6.8,6.8,0,0,0-2.2.089,19.951,19.951,0,0,0-4.207.991,18.3,18.3,0,0,0-3.189,1.484,4.454,4.454,0,0,0-2.19,2.037,3.262,3.262,0,0,0-.152,1.054,4.4,4.4,0,0,0-2.016.978A13.721,13.721,0,0,1,7.279,13.25Z" transform="translate(-5.263 -0.609)" fill="#262626"/>
        <path id="Trazado_776411" data-name="Trazado 776411" d="M41.044,41.493a3.679,3.679,0,0,0-.072.608,3.259,3.259,0,0,0,.179,1.206,3.347,3.347,0,0,0,1.62,1.842,3.912,3.912,0,0,0,2.53.3,2.674,2.674,0,0,0,2.832-.563,1.8,1.8,0,0,0,.5-1.065,1.769,1.769,0,0,0-.026-.545,2.041,2.041,0,0,1-.154-.6,5.505,5.505,0,0,0,.064-1.151,3.178,3.178,0,0,0-.347-1.131,3.61,3.61,0,0,0-3.964-1.72c-1.463-.61-3.786.439-3.292,2.259.056.211.17.347.124.564Zm1.225-2.08c.121-.179.3-.385.529-.384.365,0,.608.274.985.218a4.252,4.252,0,0,1,.8-.111,2.729,2.729,0,0,1,.957.221,3.005,3.005,0,0,1,1.486,1.389,3.144,3.144,0,0,1,.259,2.149.572.572,0,0,0-.039.2,1.9,1.9,0,0,0,.134.281,1.6,1.6,0,0,1,.1.515,1.457,1.457,0,0,1-.419,1.03.5.5,0,0,1-.551.141c-.147-.035-.268-.129-.408-.174a1.242,1.242,0,0,0-.643.051,2.6,2.6,0,0,1-1.756-.3,3.136,3.136,0,0,1-1.476-3.458c.053-.267-.161-.537-.2-.821A1.452,1.452,0,0,1,42.269,39.413Z" transform="translate(-12.234 -8.031)" fill="#262626"/>
        <path id="Trazado_776412" data-name="Trazado 776412" d="M24.369,32.493a.794.794,0,0,0-.761.349c-.01.021-.023.042-.035.061s-.031.047-.045.072v0l-.011.014a3.368,3.368,0,0,1-.438.462A3.208,3.208,0,0,1,21,34.1a3.114,3.114,0,0,1-2.734-1.452c-.22-.433-1.336-.025-1.069.5a3.532,3.532,0,0,0,2.158,1.57,5.085,5.085,0,0,0,4.715-.965,2.9,2.9,0,0,0,.648-.8c.129-.256-.115-.437-.347-.46Z" transform="translate(-7.592 -6.849)" fill="#262626"/>
        <path id="Trazado_776413" data-name="Trazado 776413" d="M14.129,51.325H13.047v-.551c0-.08-.17-.117-.216-.125a1.115,1.115,0,0,0-.431.04,1.078,1.078,0,0,0-.393.181l-.08.073a.161.161,0,0,0-.047.142v.241h-.967c-.246,0-.612.189-.643.458-.037.3.316.36.532.36h3.216c.246,0,.612-.189.643-.458.037-.3-.316-.363-.532-.363Z" transform="translate(-6.243 -10.41)" fill="#262626"/>
      </g>
    </g>
  </g>
</svg>
