<svg xmlns="http://www.w3.org/2000/svg" width="68.375" height="68.375" viewBox="0 0 68.375 68.375">
  <g id="Grupo_1063984" data-name="Grupo 1063984" transform="translate(-600 -5987.3)">
    <circle id="Elipse_4807" data-name="Elipse 4807" cx="34.188" cy="34.188" r="34.188" transform="translate(600 5987.3)" fill="#32cfc0"/>
    <g id="Medical_Report" transform="translate(603.59 5996.998)">
      <g id="Grupo_1044704" data-name="Grupo 1044704" transform="translate(13.111 2.002)">
        <g id="Grupo_1044698" data-name="Grupo 1044698" transform="translate(9.389 25.877)">
          <path id="Trazado_776433" data-name="Trazado 776433" d="M42.05,59.848c-.46,1.678-1.972,2.82-3.389,3.83-.455.322-.905.64-1.356.962a12.043,12.043,0,0,0-2.133-1.522,5.483,5.483,0,0,1-1.782-1.27,3.207,3.207,0,0,1,.256-3.674,3.97,3.97,0,0,1,1.517-1.308,6.947,6.947,0,0,1,1.545,1.28,8.463,8.463,0,0,1,.948-.692c.853-.545,2.138-1.142,3.181-.721a1.832,1.832,0,0,1,.479.28,2.747,2.747,0,0,1,.735,2.835Z" transform="translate(-32.917 -56.591)" fill="#fd6229"/>
        </g>
        <g id="Grupo_1044700" data-name="Grupo 1044700" transform="translate(0.473 4.541)">
          <g id="Grupo_1044699" data-name="Grupo 1044699">
            <path id="Trazado_776434" data-name="Trazado 776434" d="M47.834,23.783c.066-2.162.408-4.266.27-6.452a7.962,7.962,0,0,0-.806-3.4c-1.18-2.152-3.584-2.015-5.717-2.157-1.2-.076-2.408-.147-3.612-.194.066,1.038.133,2.071.2,3.11a39.313,39.313,0,0,0,5.423-.427c.46-.076.782.28,1,.687a2.866,2.866,0,0,1,.223,1.342c.014,9.272.82,21.9,0,31.139a3.372,3.372,0,0,1-2.389.294c-8.186-.583-16.316,1.488-24.441.294-1.28-9.774-1.029-19.677-.773-29.527.095-3.7,3.551-4.2,6.831-4.171-.028-.792-.062-1.583-.09-2.375q-2.631.284-5.243.773a5.31,5.31,0,0,0-2.474.929c-1.076.891-1.313,2.427-1.451,3.811a140.732,140.732,0,0,0-.64,17.193q.107,4.309.469,8.6c.175,2.124-.047,5.783,1.465,7.5a3.406,3.406,0,0,0,1.555.877c2.128.678,4.2.374,6.361.389,5.944.033,12.012-.431,17.909-.891a23.172,23.172,0,0,0,5.053-.768c.858-1.237.678-2.83.607-4.333-.251-5.072-.256-10.158-.014-15.23.109-2.337.209-4.674.28-7.011Z" transform="translate(-14.11 -11.582)" fill="#fd95fd"/>
          </g>
        </g>
        <g id="Grupo_1044701" data-name="Grupo 1044701" transform="translate(11.588 0.54)">
          <path id="Trazado_776435" data-name="Trazado 776435" d="M50.4,12.153a.912.912,0,0,1-.569.152q-3.7.135-7.4.152l-1.019.014a10.792,10.792,0,0,1-1.176-.085,13.3,13.3,0,0,1-2-.156.836.836,0,0,1-.318-.166.8.8,0,0,1-.171-.564c-.019-.54-.043-1.076-.062-1.616-.028-.792-.062-1.583-.09-2.375-.009-.247-.019-.488-.028-.735a.9.9,0,0,1,.147-.659.852.852,0,0,1,.431-.218A26.249,26.249,0,0,0,41.107,5.2c.673-.3.313-.081.6-.716a2.238,2.238,0,0,1,.54-.858,2.251,2.251,0,0,1,1.014-.488,3.423,3.423,0,0,1,1.811.967c.479.488.858,1.152,1.522,1.332a2.613,2.613,0,0,0,.744.043l.607-.028a2.635,2.635,0,0,0,.668.028c.479-.019.958-.043,1.436-.062a.27.27,0,0,1,.062.038.55.55,0,0,1,.128.379c.028.436.057.867.085,1.3.066,1.038.133,2.071.2,3.11.024.37.047.735.071,1.1a.927.927,0,0,1-.2.8Z" transform="translate(-37.558 -3.142)" fill="#f7ca49"/>
        </g>
        <g id="Grupo_1044702" data-name="Grupo 1044702" transform="translate(15.455 2.696)">
          <path id="Trazado_776436" data-name="Trazado 776436" d="M46.884,7.7a1.371,1.371,0,0,0-1.122,1.682,1.371,1.371,0,0,0,1.864.785,1.74,1.74,0,0,0,.517-.434A1.5,1.5,0,0,0,48.536,8.5,1.092,1.092,0,0,0,47,7.809" transform="translate(-45.714 -7.688)" fill="#fff"/>
        </g>
        <g id="Grupo_1044703" data-name="Grupo 1044703">
          <path id="Trazado_776437" data-name="Trazado 776437" d="M48.052,12.267a8.61,8.61,0,0,0-.859-3.6c-1.179-2.136-3.414-2.254-5.386-2.359-.243-.013-.485-.026-.724-.042-1.093-.074-2.152-.131-3.171-.175l-.057-.883a.854.854,0,0,0-1-.9l-2.393.1a2.266,2.266,0,0,1-.6-.026c-.49-.133-.835-.725-1.306-1.2a3.886,3.886,0,0,0-2.048-1.1A3.5,3.5,0,0,0,29.751,2,2.555,2.555,0,0,0,27.2,3.571a3.152,3.152,0,0,0-.2.5l-.217.095a7.517,7.517,0,0,1-1.634.4,11.728,11.728,0,0,0-1.269.267,1.294,1.294,0,0,0-.656.355,1.335,1.335,0,0,0-.271,1l.011.293c-1.664.193-3.3.437-4.869.731a5.678,5.678,0,0,0-2.677,1.028c-1.218,1-1.476,2.659-1.622,4.136a140.806,140.806,0,0,0-.176,25.869c.036.424.056.921.076,1.446.085,2.154.192,4.835,1.507,6.323a3.777,3.777,0,0,0,1.764,1.023c2.2.7,4.351.4,6.5.411,6.067.033,12.379-.458,17.948-.893a23.839,23.839,0,0,0,5.155-.787.475.475,0,0,0,.251-.183c.929-1.34.778-2.969.69-4.631-.249-5.033-.254-10.14-.014-15.18.011-.23.027-.573.051-1.1a.468.468,0,0,0,.01-.226c.293-6.553.145-5.191.363-8.025a30.022,30.022,0,0,0,.125-4.155Zm-9.528-5.2a1.378,1.378,0,0,1-.061.154.474.474,0,0,0,.84.44,2.339,2.339,0,0,0,.2-.545c.254.014.516.032.774.048a5.247,5.247,0,0,0-.291.531.474.474,0,0,0,.857.405,4.285,4.285,0,0,1,.51-.822.457.457,0,0,0,.024-.047l.379.022c.238.013.474.025.708.041l-.4.682a.474.474,0,1,0,.818.479l.574-.98a.443.443,0,0,0,.027-.08q.17.025.335.056a.451.451,0,0,0-.066.066l-.424.634a.469.469,0,0,0,.087.614,1.235,1.235,0,0,0-.426-.012,37.643,37.643,0,0,1-4.882.407l-.136-2.121c.179.008.367.019.55.028Zm-15.4,3.855a1.228,1.228,0,0,0,.321.891,1.28,1.28,0,0,0,.507.275c1.544.467,11.435.154,13.039.1a1.326,1.326,0,0,0,.848-.261,1.377,1.377,0,0,0,.372-1.2l-.033-.515a.458.458,0,0,0,.076-.094,38.264,38.264,0,0,0,4.88-.419c.166-.023.34.122.509.438a2.455,2.455,0,0,1,.167,1.118c.014,9.253.812,21.639.024,30.844a2.6,2.6,0,0,1-1.514.145c-8.094-.686-16.367,1.4-24.432.313-1.228-9.632-.971-19.522-.722-29.091.066-2.568,1.787-3.656,5.914-3.7Zm.8-5.093a.672.672,0,0,1,.21-.078,23.947,23.947,0,0,0,3.027-.714l.176-.077c.284-.123.489-.212.56-.572a1.161,1.161,0,0,1,.1-.3l.057-.125a1.483,1.483,0,0,1,1.452-1l-.1.263a.474.474,0,1,0,.885.341l.2-.515a2.953,2.953,0,0,1,.287.082c-.066.064-.135.127-.2.2a.474.474,0,0,0,.713.625,2.425,2.425,0,0,1,.348-.32,3.364,3.364,0,0,1,.59.608.469.469,0,0,0-.076.151.474.474,0,0,0,.13.938.881.881,0,0,0,.642-.386,1.972,1.972,0,0,0,.687.35l.043.008L33.45,5.5a.474.474,0,0,0,.625.712l.72-.632a.462.462,0,0,0,.137-.238L35.9,5.3c-.193.222-.412.462-.514.56a.474.474,0,1,0,.654.687c.193-.184.668-.718.885-.993l.034.52a.464.464,0,0,0-.236.2,1.649,1.649,0,0,1-.558.6.474.474,0,1,0,.509.8,2.582,2.582,0,0,0,.37-.292l.039.6-.657.711a.474.474,0,1,0,.7.643l.045-.049.024.379c0,.009,0,.016,0,.025l.006.095c-.16.123-.317.251-.482.367a.474.474,0,0,0,.546.775l.005,0c0,.2-.022.258-.035.273a.884.884,0,0,1-.276.038c-1.43.052-11.336.362-12.711-.053-.09-.028-.122-.051-.126-.049a1.048,1.048,0,0,1-.029-.242L23.9,6.154c-.009-.225.008-.3.028-.325ZM41.347,45.614c-5.55.433-11.842.925-17.869.89-2.267-.009-4.208.276-6.219-.366a2.948,2.948,0,0,1-1.34-.744c-1.387-1.569-1.175-5.145-1.352-7.226a139.773,139.773,0,0,1,.175-25.695c.127-1.288.341-2.727,1.282-3.5a4.851,4.851,0,0,1,2.249-.827C19.8,7.861,21.384,7.621,23,7.432l.052,1.376c-2.348.007-6.729.278-6.841,4.634-.253,9.725-.514,19.782.777,29.6a.479.479,0,0,0,.406.412c8.3,1.216,16.617-.933,24.85-.256a3.3,3.3,0,0,0,2.3-.4.479.479,0,0,0,.225-.365c.831-9.306.016-21.832,0-31.181a3.29,3.29,0,0,0-.28-1.567,1.835,1.835,0,0,0-.744-.8.471.471,0,0,0,.369-.207l.424-.634a.467.467,0,0,0,.059-.385q.143.051.279.111c0,.009-.011.015-.014.024a3.676,3.676,0,0,1-.409.859.474.474,0,0,0,.8.515,4.616,4.616,0,0,0,.437-.886,2.983,2.983,0,0,1,.475.528.422.422,0,0,0-.028.036,8.36,8.36,0,0,1-.943,1.46.474.474,0,0,0,.738.594,9.292,9.292,0,0,0,.736-1.078c.051.145.1.291.137.44a.469.469,0,0,0-.111.161,6.086,6.086,0,0,1-.879,1.49.474.474,0,0,0,.74.593,7.034,7.034,0,0,0,.506-.726c.017.186.033.37.044.548,0,.034,0,.068,0,.1a.465.465,0,0,0-.131.161l-.893,1.876a.474.474,0,1,0,.856.408l.162-.34q-.017.349-.04.7a.448.448,0,0,0-.07.064L45.56,17.268a.474.474,0,1,0,.767.557l.608-.838c-.037.507-.069,1.019-.089,1.535a11.855,11.855,0,0,0-.931,1.69.473.473,0,0,0,.857.4q-.014.393-.03.8c-.472.7-.924,1.416-1.343,2.143a.474.474,0,0,0,.822.473c.143-.248.295-.493.444-.739-.016.373-.033.757-.051,1.155-.306.492-.592,1-.847,1.518a.474.474,0,0,0,.216.635.465.465,0,0,0,.479-.039c-.459.716-.891,1.458-1.28,2.211a.474.474,0,1,0,.843.435c.138-.268.288-.531.436-.8-.016.528-.034,1.056-.045,1.585a.46.46,0,0,0-.153.228,1.857,1.857,0,0,1-.368.589,2.231,2.231,0,0,0-.571,1.114.474.474,0,1,0,.941.116.782.782,0,0,1,.132-.318c0,.374-.012.748-.012,1.123a5.591,5.591,0,0,0-.776,1.533.474.474,0,0,0,.3.6.462.462,0,0,0,.486-.127q.006.534.014,1.068a.463.463,0,0,0-.212.2,14.393,14.393,0,0,0-.693,1.541.474.474,0,1,0,.886.337c.019-.049.041-.1.06-.145.005.176.014.352.02.528a.455.455,0,0,0-.078.088l-.78,1.349a.474.474,0,1,0,.821.475l.1-.177c0,.111.007.223.012.335l-.972,1.706a.474.474,0,0,0,.824.469l.229-.4c0,.111,0,.22.006.329a.453.453,0,0,0-.034.1.486.486,0,0,0,0,.1,6.855,6.855,0,0,0-1.063,1.876.465.465,0,0,0,.106.421,26.837,26.837,0,0,1-4.3.571Z" transform="translate(-13.111 -2.002)"/>
          <path id="Trazado_776438" data-name="Trazado 776438" d="M46.545,10.228a1.832,1.832,0,0,0,1.434-.736,1.958,1.958,0,0,0,.494-1.635c-.152-.722-.844-1.322-2.164-1.174a1.842,1.842,0,0,0-1.527,2.29,1.852,1.852,0,0,0,1.764,1.254Zm-.322-2.555a.473.473,0,0,0,.485.006.622.622,0,0,1,.838.374,1.048,1.048,0,0,1-.293.83,1.278,1.278,0,0,1-.373.319.9.9,0,0,1-1.19-.5,1.123,1.123,0,0,1,.534-1.028Z" transform="translate(-29.733 -4.452)"/>
          <path id="Trazado_776439" data-name="Trazado 776439" d="M29.413,31.315c.539-.006,1.082.007,1.624.014-.5.578-.992,1.159-1.47,1.748a.474.474,0,1,0,.736.6q.537-.66,1.094-1.311c.007.465.006.894-.013,1.241a.474.474,0,0,0,.449.5h.025a.474.474,0,0,0,.473-.449c.024-.466.02-1.056.007-1.681.543.509,1.106,1,1.686,1.457a.474.474,0,0,0,.589-.743c-.518-.411-1.02-.846-1.507-1.3.492.022.986.037,1.475.07h.032a.474.474,0,0,0,.031-.947c-.515-.035-1.035-.051-1.553-.074q.6-.654,1.2-1.292a.474.474,0,1,0-.686-.655c-.448.469-.889.947-1.326,1.43-.015-.639-.021-1.241,0-1.7a.474.474,0,1,0-.947-.05c-.021.4-.021.888-.012,1.412a12.194,12.194,0,0,0-1.362-1.161.474.474,0,0,0-.524.79,11.332,11.332,0,0,1,1.253,1.078c.026.029.053.056.079.084-.456,0-.913-.017-1.368-.012a.474.474,0,0,0-.469.479.457.457,0,0,0,.479.469Z" transform="translate(-21.433 -15.532)"/>
          <path id="Trazado_776440" data-name="Trazado 776440" d="M50.49,29.988l8.335-.349a.474.474,0,1,0-.04-.947l-8.335.349a.474.474,0,1,0,.04.947Z" transform="translate(-32.511 -16.04)"/>
          <path id="Trazado_776441" data-name="Trazado 776441" d="M47.806,37.053h.028l12.5-.73a.474.474,0,1,0-.055-.947l-12.5.73a.474.474,0,0,0,.027.947Z" transform="translate(-31.111 -19.555)"/>
          <path id="Trazado_776442" data-name="Trazado 776442" d="M27.43,46.771a102.662,102.662,0,0,1,19.4-1.151.459.459,0,0,0,.491-.457.474.474,0,0,0-.457-.491,103.668,103.668,0,0,0-19.58,1.161.474.474,0,1,0,.146.937Z" transform="translate(-20.355 -24.411)"/>
          <path id="Trazado_776443" data-name="Trazado 776443" d="M49.525,61.823l-2.224.243-.7-1.2a.479.479,0,0,0-.8-.044l-1.593,2.153A33.433,33.433,0,0,1,43.2,57.613a.479.479,0,0,0-.88-.209l-1.551,2.415a1.485,1.485,0,0,1-.424.5,1.461,1.461,0,0,1-.57.1l-.042,0a4.592,4.592,0,0,0,.4-.969,3.235,3.235,0,0,0-.89-3.329c-1.637-1.33-3.979.186-4.867.86-.547-.543-1.623-1.459-2.54-1.342a3.972,3.972,0,0,0-2.613,1.736h0a3.678,3.678,0,0,0-.251,4.233,4.876,4.876,0,0,0,1.653,1.245l.277.153a11.937,11.937,0,0,1,2.734,2.116.474.474,0,0,0,.616.057l2.309-1.642a13.609,13.609,0,0,0,2.484-2.123l.779-.041a2.216,2.216,0,0,0,.977-.215,2.246,2.246,0,0,0,.774-.821l.836-1.3a34.4,34.4,0,0,0,1.153,5.146.479.479,0,0,0,.843.145l1.736-2.345.489.838a.477.477,0,0,0,.466.235l2.533-.277a.479.479,0,0,0-.1-.953Zm-13.515.94-1.982,1.409a12.871,12.871,0,0,0-2.662-1.994l-.287-.159a4.116,4.116,0,0,1-1.354-.987,2.765,2.765,0,0,1,.268-3.11h0a3.032,3.032,0,0,1,1.963-1.346.435.435,0,0,1,.056,0c.509,0,1.461.8,1.966,1.364a.474.474,0,0,0,.667.04c.006-.005.164-.14.415-.322a.468.468,0,0,0,.447.342.474.474,0,0,0,.474-.474v-.451c.163-.088.331-.172.506-.246a1.75,1.75,0,0,1-.077.17.474.474,0,0,0,.83.458,2.725,2.725,0,0,0,.289-.8.45.45,0,0,0,0-.107,1.677,1.677,0,0,1,.758.1,5.339,5.339,0,0,1-.6.852.474.474,0,0,0,.715.622,6.264,6.264,0,0,0,.607-.843,2.115,2.115,0,0,1,.277.818.465.465,0,0,0-.129.093A7.179,7.179,0,0,1,38,59.207a.474.474,0,0,0,.543.777c.187-.131.364-.276.54-.423a4.12,4.12,0,0,1-.514.917l-2.6.136a.479.479,0,1,0,.05.957l1.624-.085a18.2,18.2,0,0,1-1.637,1.278Z" transform="translate(-21.154 -30.188)"/>
          <path id="Trazado_776444" data-name="Trazado 776444" d="M49.619,79.567l-14.81,1.054a.479.479,0,1,0,.068.956l14.81-1.054a.479.479,0,0,0-.068-.956Z" transform="translate(-24.289 -42.799)"/>
        </g>
      </g>
    </g>
  </g>
</svg>
