<svg xmlns="http://www.w3.org/2000/svg" width="68.375" height="68.375" viewBox="0 0 68.375 68.375">
  <g id="Grupo_1063985" data-name="Grupo 1063985" transform="translate(-600 -6092.073)">
    <circle id="Elipse_4807" data-name="Elipse 4807" cx="34.188" cy="34.188" r="34.188" transform="translate(600 6092.073)" fill="#32cfc0"/>
    <g id="calendario_2_" data-name="calendario (2)" transform="translate(615.202 6107.587)">
      <path id="Trazado_776463" data-name="Trazado 776463" d="M6.253,39.248a.315.315,0,0,1-.174-.579l.69-.455L5.054,39.2a.315.315,0,0,1-.339-.531l3.08-2.158L5.054,38.1a.315.315,0,0,1-.346-.525L7.344,35.6,5.053,36.929a.315.315,0,0,1-.368-.5L6.9,34.433,5.053,35.5a.315.315,0,0,1-.4-.472l.964-1.18a.315.315,0,0,1-.282-.562l1.456-.841a.315.315,0,0,1,.4.472l-.961,1.174,2.981-1.719a.315.315,0,0,1,.368.5L7.364,34.865l4.32-2.492a.315.315,0,0,1,.346.525L9.394,34.863l4.313-2.489a.315.315,0,0,1,.339.53L10.97,35.06l4.656-2.687a.315.315,0,0,1,.331.535l-.69.456,1.719-.991a.315.315,0,0,1,.344.527l-3.876,2.829,5.818-3.356a.315.315,0,0,1,.342.528l-3.669,2.649,5.5-3.177a.315.315,0,0,1,.337.532l-2.7,1.865,4.154-2.4a.315.315,0,0,1,.336.533L21.2,34.531l3.742-2.157a.315.315,0,0,1,.333.535l-1.468.979,2.629-1.514a.315.315,0,0,1,.34.53l-3.415,2.429,5.128-2.959a.315.315,0,0,1,.338.531l-2.94,2.047,4.47-2.578a.315.315,0,0,1,.332.535l-1.027.681,2.108-1.216a.315.315,0,0,1,.346.525l-4.13,3.086,6.256-3.611a.315.315,0,0,1,.34.53L31.145,35.35,36.3,32.373a.315.315,0,0,1,.346.525l-4.107,3.064,6.216-3.589a.315.315,0,0,1,.336.533l-2.376,1.625,3.2-1.85a.315.315,0,0,1,.342.529l-3.3,2.39,3.828-2.207a.315.315,0,0,1,.339.53l-1.781,1.255,1.81-1.045a.315.315,0,0,1,.34.53l-.973.694.754-.435a.315.315,0,0,1,.354.519l-1.372,1.1,1.023-.59a.315.315,0,0,1,.378.5l-.936.9.568-.326a.315.315,0,0,1,.448.4l-.335.786a.315.315,0,0,1,.209.584l-.7.4a.315.315,0,0,1-.448-.4l.322-.757-2,1.152a.315.315,0,0,1-.379-.5l.937-.9-2.426,1.4a.315.315,0,0,1-.354-.519l1.37-1.092L35.151,39.19a.315.315,0,0,1-.34-.53l.971-.694L33.659,39.19a.315.315,0,0,1-.339-.53L35.1,37.4,32,39.191a.315.315,0,0,1-.343-.528l3.3-2.389L29.9,39.192a.315.315,0,0,1-.336-.534l2.375-1.625L28.2,39.194a.315.315,0,0,1-.345-.525L31.963,35.6l-6.219,3.59a.315.315,0,0,1-.341-.53l3.436-2.448L23.68,39.2a.315.315,0,0,1-.346-.525l4.13-3.087L21.206,39.2a.316.316,0,0,1-.333-.536l1.022-.678-2.1,1.215a.315.315,0,0,1-.339-.532l2.942-2.051L17.92,39.2a.315.315,0,0,1-.34-.53L21,36.24,15.865,39.2a.315.315,0,0,1-.333-.535L17,37.686,14.37,39.2a.315.315,0,0,1-.335-.534l2.377-1.631L12.668,39.2a.315.315,0,0,1-.337-.532l2.7-1.867-4.156,2.4a.315.315,0,0,1-.343-.529L14.2,36.025,8.7,39.2a.315.315,0,0,1-.344-.527l3.87-2.83L6.41,39.2a.313.313,0,0,1-.158.043Zm0,0" transform="translate(-4.237 -29.772)" fill="#d94452"/>
      <path id="Trazado_776464" data-name="Trazado 776464" d="M9.048,144.329a.315.315,0,0,1-.164-.585l10.134-6.183L7.4,144.268a.315.315,0,0,1-.324-.541l16.8-10.407L5.917,143.691a.315.315,0,0,1-.32-.543l.358-.215-.491.283a.315.315,0,0,1-.322-.541l15.807-9.695L5.063,142.153a.316.316,0,1,1-.322-.543l11.85-7.19L5,141.108a.315.315,0,0,1-.321-.542l10.979-6.651L5,140.067a.315.315,0,1,1-.321-.543l10.7-6.48L5,139.037a.315.315,0,0,1-.321-.543l7.586-4.569L5,138.119a.315.315,0,0,1-.322-.541l15.46-9.5L5,136.818a.316.316,0,0,1-.321-.544l2.6-1.56L5,136.029a.316.316,0,0,1-.321-.544l3.063-1.844L5,135.224a.315.315,0,0,1-.321-.542l5.051-3.059L5,134.353a.315.315,0,0,1-.321-.539l5.647-3.435L5,133.451a.315.315,0,0,1-.325-.54l12.01-7.518L5,132.139a.315.315,0,0,1-.326-.539l11.914-7.569L5,130.724a.315.315,0,0,1-.325-.54l7.594-4.752L5,129.628a.315.315,0,0,1-.329-.537l10.017-6.5L5,128.178a.315.315,0,0,1-.329-.537l7.581-4.91L5,126.917a.315.315,0,0,1-.331-.536l6.762-4.453L5,125.641a.315.315,0,0,1-.336-.53l6.566-4.508L5,124.2a.315.315,0,0,1-.339-.531l4.994-3.5L5,122.853a.315.315,0,0,1-.334-.534l1.971-1.334L5,121.931a.315.315,0,0,1-.348-.525l3.009-2.268L5,120.673a.315.315,0,0,1-.345-.527l1.055-.779-.71.409a.315.315,0,0,1-.354-.519l.722-.575L5,118.894a.315.315,0,0,1-.411-.461l.816-1.107-.4.233a.315.315,0,0,1-.458-.369l.139-.438a.31.31,0,0,1-.11-.114.315.315,0,0,1,.115-.43L5,116.026a.315.315,0,0,1,.458.369l-.068.211,1.009-.581a.315.315,0,0,1,.411.46L6,117.593l2.717-1.569a.315.315,0,0,1,.354.519l-.724.577,1.9-1.1a.315.315,0,0,1,.345.527l-1.055.779,2.264-1.306a.315.315,0,0,1,.348.525l-3.006,2.267,4.838-2.793a.315.315,0,0,1,.334.534l-1.968,1.331,3.233-1.866a.315.315,0,0,1,.339.531l-5,3.5L17.9,116.02a.315.315,0,0,1,.337.533l-6.563,4.506,8.731-5.041a.315.315,0,0,1,.331.537l-6.764,4.456,8.646-4.991a.315.315,0,0,1,.328.538l-7.581,4.91,9.439-5.449a.315.315,0,0,1,.329.537l-10.014,6.5,12.2-7.041a.315.315,0,0,1,.326.54l-7.591,4.75,9.165-5.292a.315.315,0,0,1,.326.539l-11.92,7.568,14.048-8.109a.316.316,0,0,1,.326.541l-12.011,7.518,13.961-8.06a.315.315,0,0,1,.322.542l-5.637,3.428,6.878-3.973a.315.315,0,0,1,.321.543l-5.063,3.066,6.252-3.609a.316.316,0,1,1,.321.544l-3.056,1.842,4.13-2.385a.316.316,0,0,1,.321.544l-2.592,1.557,3.639-2.1a.315.315,0,0,1,.322.542l-15.466,9.5,16.587-9.577a.315.315,0,0,1,.32.543l-7.583,4.57,7.266-4.194a.315.315,0,0,1,.321.542l-10.7,6.48,10.382-5.992a.315.315,0,0,1,.321.543l-10.963,6.64,10.642-6.144a.315.315,0,0,1,.321.542l-11.863,7.2,11.542-6.664a.315.315,0,0,1,.322.541l-15.8,9.689,15.475-8.935a.315.315,0,0,1,.32.543l-.348.208.028-.016a.315.315,0,0,1,.324.541l-16.807,10.41,16.483-9.517a.315.315,0,0,1,.322.542l-10.137,6.185,9.815-5.666a.315.315,0,0,1,.321.542l-5.719,3.469,5.4-3.116a.315.315,0,0,1,.322.542l-7.9,4.835,7.583-4.377a.315.315,0,0,1,.323.541L31.19,133.94l10.039-5.8a.315.315,0,0,1,.324.54L31.772,134.8l9.458-5.46a.315.315,0,0,1,.328.539l-10.664,6.812,10.337-5.969a.315.315,0,0,1,.325.54l-7.223,4.563,6.9-3.982a.315.315,0,0,1,.324.54l-3.6,2.25,3.28-1.892a.315.315,0,0,1,.332.535l-8.081,5.357,7.75-4.473a.315.315,0,0,1,.325.54l-.631.4.307-.176a.315.315,0,0,1,.333.535l-5.235,3.5,4.9-2.83a.315.315,0,0,1,.327.539l-.247.157a.315.315,0,0,1,.252.568L39.021,139.1l2.207-1.276a.315.315,0,0,1,.335.534l-1.726,1.177,1.387-.8a.315.315,0,0,1,.355.519l-3.051,2.46,2.7-1.555a.315.315,0,0,1,.354.52l-1.181.943.831-.479a.315.315,0,0,1,.388.489l-.966,1.038.181-.1a.315.315,0,1,1,.316.546l-2.018,1.167a.315.315,0,0,1-.388-.489l.964-1.038-2.665,1.538a.315.315,0,0,1-.354-.52l1.185-.942-2.533,1.461a.315.315,0,0,1-.356-.519l3.052-2.46-5.162,2.978a.315.315,0,0,1-.335-.533l1.723-1.175L31.3,144.284a.315.315,0,0,1-.334-.534l2.544-1.709-3.887,2.243a.315.315,0,0,1-.327-.539l.023-.014-.959.553a.315.315,0,0,1-.333-.535l5.238-3.5-6.994,4.037a.315.315,0,0,1-.326-.54l.631-.393-1.621.933a.316.316,0,0,1-.332-.536l8.081-5.354L22.5,144.284a.315.315,0,0,1-.325-.54l3.609-2.253-4.84,2.793a.315.315,0,0,1-.326-.54l7.211-4.555L19,144.284a.316.316,0,0,1-.328-.539l10.663-6.812-12.728,7.35a.315.315,0,0,1-.325-.54l9.783-6.118-11.533,6.658a.315.315,0,0,1-.324-.541l10.364-6.435-12.086,6.976a.315.315,0,0,1-.322-.542l7.906-4.837-9.317,5.379a.315.315,0,0,1-.32-.542l5.73-3.475-6.959,4.017a.318.318,0,0,1-.158.045Zm0,0" transform="translate(-4.186 -107.121)" fill="#cad0d7"/>
      <path id="Trazado_776465" data-name="Trazado 776465" d="M209.356,163.9a.315.315,0,0,1-.213-.548l1.107-1.01-2.59,1.495a.315.315,0,0,1-.356-.518l1.88-1.518-2.512,1.451a.315.315,0,0,1-.361-.513l2.419-2.042-2.233,1.289a.315.315,0,0,1-.378-.5l1.433-1.426-1.053.608a.315.315,0,0,1-.419-.449l.488-.728a.315.315,0,0,1-.2-.585l1.026-.593a.315.315,0,0,1,.419.449l-.455.677,1.973-1.135a.315.315,0,0,1,.378.5l-1.432,1.425,3.2-1.85a.315.315,0,0,1,.361.513l-2.419,2.044,2.945-1.7a.315.315,0,0,1,.356.518l-1.878,1.52,1.608-.928a.315.315,0,0,1,.37.5l-1.107,1.009.736-.424a.315.315,0,0,1,.423.441l-.518.8a.315.315,0,0,1,.222.582l-1.018.588a.315.315,0,0,1-.422-.441l.5-.772-2.124,1.226a.311.311,0,0,1-.158.045Zm0,0" transform="translate(-190.545 -146.24)" fill="#f4f6f8"/>
      <path id="Trazado_776466" data-name="Trazado 776466" d="M342.058,163.865a.315.315,0,0,1-.189-.568l1.1-.845-1.734,1a.315.315,0,0,1-.345-.526l1.129-.837-1.154.666a.315.315,0,0,1-.362-.513l2.006-1.711-1.693.977a.315.315,0,0,1-.378-.5l.966-.946-.588.338a.315.315,0,0,1-.408-.464l.378-.491a.315.315,0,0,1-.1-.583l1.026-.593a.315.315,0,0,1,.409.465l-.252.332,1.388-.8a.315.315,0,0,1,.379.5l-.967.946,2.5-1.444a.315.315,0,0,1,.362.513l-2,1.71,2.964-1.712a.315.315,0,0,1,.345.526l-1.129.836,1.059-.611a.315.315,0,0,1,.349.523l-1.1.846.749-.433a.315.315,0,0,1,.368.508l-.859.763.491-.283a.315.315,0,0,1,.42.448l-.49.733a.315.315,0,0,1,.2.586l-1.018.588a.315.315,0,0,1-.42-.448l.456-.685-1.98,1.143a.315.315,0,0,1-.368-.5l.856-.766-2.207,1.273A.315.315,0,0,1,342.058,163.865Zm0,0" transform="translate(-314.767 -146.209)" fill="#f4f6f8"/>
      <path id="Trazado_776467" data-name="Trazado 776467" d="M74.941,163.883a.315.315,0,0,1-.2-.562l.126-.1-1.072.62a.315.315,0,0,1-.361-.513l1.961-1.665-2.916,1.682a.315.315,0,0,1-.358-.516l2.367-1.955-2.3,1.324a.315.315,0,0,1-.371-.5l1.554-1.421-1.183.685a.315.315,0,0,1-.431-.429l.631-1.1-.015.008a.315.315,0,0,1-.315-.545l1.026-.593a.314.314,0,0,1,.429.428l-.631,1.1,2.674-1.538a.315.315,0,0,1,.371.5l-1.552,1.42,3.078-1.777a.315.315,0,0,1,.358.516l-2.369,1.955,2.656-1.533a.315.315,0,0,1,.362.513L76.5,161.552l1.644-.946a.315.315,0,0,1,.354.519l-.242.191a.326.326,0,0,1,.281.1.316.316,0,0,1,.017.4l-.536.719a.316.316,0,1,1,.311.549l-1.317.757a.315.315,0,0,1-.411-.462l.534-.717L75.1,163.838a.311.311,0,0,1-.158.045Zm0,0" transform="translate(-66.33 -146.227)" fill="#f4f6f8"/>
      <path id="Trazado_776468" data-name="Trazado 776468" d="M207.83,272.983a.315.315,0,0,1-.206-.555l2.093-1.79-3.021,1.744a.315.315,0,0,1-.34-.53l.268-.189-.139.077a.315.315,0,0,1-.368-.5l2-1.791-1.64.946a.315.315,0,0,1-.378-.5l.736-.724-.358.205a.315.315,0,0,1-.4-.477l.3-.35a.315.315,0,0,1-.027-.561l1.026-.591a.315.315,0,0,1,.4.477l-.043.051.929-.536a.315.315,0,0,1,.379.5l-.737.726,2.12-1.223a.315.315,0,0,1,.368.5l-2,1.791,3.266-1.885a.315.315,0,0,1,.341.53l-.264.189.229-.132a.315.315,0,0,1,.363.512l-2.092,1.79,1.8-1.037a.315.315,0,0,1,.392.484l-1.135,1.261.747-.431a.315.315,0,0,1,.315.546l-2.476,1.426a.316.316,0,0,1-.392-.484l1.135-1.261-3.024,1.745a.317.317,0,0,1-.158.045Zm0,0" transform="translate(-190.517 -247.128)" fill="#f4f6f8"/>
      <path id="Trazado_776469" data-name="Trazado 776469" d="M343.731,272.941a.315.315,0,0,1-.222-.54l1.466-1.451-3.216,1.859a.315.315,0,0,1-.355-.519l2.043-1.648-2.5,1.441a.315.315,0,0,1-.365-.51l2.371-2.074-2.124,1.226a.315.315,0,0,1-.378-.5l1.147-1.149-.766.441a.315.315,0,0,1-.411-.462l.4-.535a.315.315,0,0,1-.119-.586l1.026-.592a.315.315,0,0,1,.411.462l-.3.4,1.514-.875a.315.315,0,0,1,.378.5l-1.148,1.149,2.849-1.638a.315.315,0,0,1,.365.51l-2.371,2.07,3.216-1.855a.315.315,0,0,1,.356.518l-2.043,1.647,1.829-1.055a.316.316,0,0,1,.379.5l-1.466,1.448,1.087-.627a.315.315,0,0,1,.4.477l-.419.494a.319.319,0,0,1,.346.149.316.316,0,0,1-.115.431l-1.471.847a.315.315,0,0,1-.4-.477l.395-.464-1.632.941A.308.308,0,0,1,343.731,272.941Zm0,0" transform="translate(-314.785 -247.086)" fill="#f4f6f8"/>
      <path id="Trazado_776470" data-name="Trazado 776470" d="M74.146,272.978a.315.315,0,0,1-.2-.561l.954-.768-2,1.152a.315.315,0,0,1-.343-.527l.59-.429-.82.473a.316.316,0,0,1-.346-.528l.827-.6-.653.378a.315.315,0,0,1-.356-.518l1.4-1.135-1.046.6a.315.315,0,0,1-.378-.5l.861-.847-.483.278a.315.315,0,0,1-.4-.47l.335-.418a.315.315,0,0,1-.063-.574l1.026-.592a.315.315,0,0,1,.4.471l-.158.2,1.174-.678a.315.315,0,0,1,.378.5l-.861.845,2.334-1.345a.315.315,0,0,1,.356.517l-1.4,1.14,2.352-1.358a.315.315,0,0,1,.344.528l-.825.6.88-.5a.315.315,0,0,1,.343.528l-.592.43.336-.193a.315.315,0,0,1,.355.518l-.954.768.6-.346a.315.315,0,0,1,.4.479l-.841.966.424-.245a.315.315,0,1,1,.316.546l-2.044,1.179a.315.315,0,0,1-.4-.479l.837-.969L74.3,272.938a.313.313,0,0,1-.158.04Zm0,0" transform="translate(-66.299 -247.123)" fill="#f4f6f8"/>
      <path id="Trazado_776471" data-name="Trazado 776471" d="M208.863,382.084a.315.315,0,0,1-.217-.545l1.781-1.685-3.391,1.955a.315.315,0,0,1-.34-.53l.149-.106-.226.13a.315.315,0,0,1-.361-.513L208.6,378.8l-2.119,1.225a.315.315,0,0,1-.382-.494l1.313-1.328-.931.537a.315.315,0,0,1-.414-.456l.435-.609a.315.315,0,0,1-.15-.588l1.026-.593a.315.315,0,0,1,.414.456l-.369.518,1.7-.982a.315.315,0,0,1,.382.494l-1.314,1.329,3.108-1.793a.315.315,0,0,1,.361.513l-2.339,1.986,2.991-1.727a.315.315,0,0,1,.34.53l-.18.126a.315.315,0,0,1,.333.522l-1.782,1.686,1.408-.812a.315.315,0,0,1,.379.5l-.39.379.013-.008a.315.315,0,0,1,.315.545l-2.223,1.283a.315.315,0,0,1-.378-.5l.391-.378-1.521.878a.307.307,0,0,1-.158.045Zm0,0" transform="translate(-190.525 -348.03)" fill="#f4f6f8"/>
      <path id="Trazado_776472" data-name="Trazado 776472" d="M343.356,382.059a.315.315,0,0,1-.209-.549l1.143-1.009-2.53,1.456a.315.315,0,0,1-.356-.518l2-1.613-2.523,1.457a.315.315,0,0,1-.358-.516l2.194-1.812-1.974,1.139a.315.315,0,0,1-.378-.5L341.7,378.3l-.968.559a.311.311,0,0,1-.387-.057.316.316,0,0,1-.035-.39l.5-.764a.316.316,0,0,1-.212-.584l1.026-.593a.315.315,0,0,1,.421.446l-.48.73,2.052-1.183a.315.315,0,0,1,.378.5l-1.345,1.295,3.008-1.736a.315.315,0,0,1,.358.517l-2.192,1.81,2.74-1.583a.315.315,0,0,1,.356.518l-2,1.615,1.761-1.016a.315.315,0,0,1,.367.509l-1.142,1.009.776-.448a.315.315,0,0,1,.421.447l-.6.9.025-.014a.315.315,0,1,1,.315.546l-1.184.68a.315.315,0,0,1-.421-.446l.6-.9-2.333,1.348A.309.309,0,0,1,343.356,382.059Zm0,0" transform="translate(-314.693 -348.004)" fill="#f4f6f8"/>
      <path id="Trazado_776473" data-name="Trazado 776473" d="M75.81,382.1a.315.315,0,0,1-.212-.549l.151-.134-1.111.639a.315.315,0,0,1-.368-.5l1.571-1.413L72.8,381.895a.315.315,0,0,1-.356-.518l2.249-1.821-2.471,1.426a.315.315,0,0,1-.357-.517l1.756-1.426-1.444.834a.315.315,0,0,1-.384-.493l1.159-1.193-.775.447a.312.312,0,0,1-.4-.063.316.316,0,0,1-.013-.4l.369-.478a.316.316,0,0,1-.091-.581l1.026-.593a.315.315,0,0,1,.408.466l-.238.308,1.357-.784a.315.315,0,0,1,.383.493l-1.158,1.191,2.92-1.684a.315.315,0,0,1,.357.517l-1.755,1.426,2.5-1.444a.315.315,0,0,1,.356.518l-2.249,1.821,2.177-1.257a.315.315,0,0,1,.368.5l-1.572,1.414,1.2-.694a.315.315,0,0,1,.367.508l-.247.218a.321.321,0,0,1,.31.156.315.315,0,0,1-.115.431l-2.482,1.431a.308.308,0,0,1-.158.045Zm0,0" transform="translate(-66.317 -348.049)" fill="#f4f6f8"/>
      <g id="Grupo_1044706" data-name="Grupo 1044706" transform="translate(0.001 0.14)">
        <path id="Trazado_776474" data-name="Trazado 776474" d="M.184,34.114c.315,3.469,3.25,3,5.868,3H34.5a.548.548,0,0,0,.058-.008.218.218,0,0,0,.055,0c4.746-.765,3.06-8.331,3.06-11.773V9.037c0-2.028.676-5.361-1.805-6.226a9.82,9.82,0,0,0-3.039-.135h-.2V.208c0-.158-.913-.026-.913.245V2.676H19.388V.208c0-.126-.913,0-.913.245V2.676H17.342c-3.721,0-7.47-.11-11.2-.046V.208c0-.139-.913-.013-.913.245v2.2c-.4.011-.8.011-1.194.026-4.1.16-3.852,3.2-3.852,6.606V20.349c0,4.523-.412,9.259,0,13.765Zm34.644,2.6H9.389c-2.838,0-7.758,1.072-8.292-2.689-.563-3.948,0-8.388,0-12.37V9.361H34.14c.215,0,.757-.013,1.307-.024h1.444a33.336,33.336,0,0,1-.126,3.772V30.449c0,1.834.709,5.78-1.936,6.261ZM2.931,3.03a7.086,7.086,0,0,1,1.77,0h.529V5.5c0,.139.913.013.913-.245V3.03H18.474V5.5c0,.123.913,0,.913-.245V3.03H23.9c2.6,0,5.215-.083,7.821-.033V5.5c0,.158.913.026.913-.245V3.018c.171.006.343,0,.514.012,1.229.052,2.156-.139,3.05,1.066.925,1.247.62,3.3.576,4.863H1.677c-.8-.13-.316.232-.58-.4C.463,7.041,1.3,3.511,2.931,3.03Zm0,0" transform="translate(-0.001 -0.14)" fill="#262626"/>
        <path id="Trazado_776475" data-name="Trazado 776475" d="M207.424,158.713c-.921,0-1.868-.063-2.786,0a1.791,1.791,0,0,0-1.845,1.735c-.04.85-.252,2.27.172,3.037.461.827,1.4.736,2.2.736h2.946c.013,0,.028-.005.041-.006h.074a1.8,1.8,0,0,0,1.788-1.87c.029-.82.246-2.218-.2-2.945C209.3,158.568,208.258,158.713,207.424,158.713Zm.968,5.046a25.82,25.82,0,0,1-3.521,0c-1.118-.151-1.166-.925-1.166-1.8,0-.766-.22-1.892.342-2.46.494-.5,1.233-.315,1.925-.315a14.889,14.889,0,0,1,2.009,0c1.151.161,1.118,1.048,1.118,1.922,0,.666.286,2.49-.707,2.66Zm0,0" transform="translate(-187.473 -146.773)" fill="#262626"/>
        <path id="Trazado_776476" data-name="Trazado 776476" d="M339.677,163.155h2.946a.556.556,0,0,0,.2-.042,1.843,1.843,0,0,0,1.563-2.018c.021-.8.227-2.141-.214-2.875-.536-.892-1.635-.745-2.518-.745s-1.837-.087-2.729,0a1.815,1.815,0,0,0-1.766,1.881c-.033.847-.252,2.286.215,3.055C337.879,163.246,338.84,163.155,339.677,163.155Zm-.838-5.046a5.306,5.306,0,0,1,1.4,0,16.9,16.9,0,0,1,2.076,0c1.149.146,1.148.99,1.148,1.87,0,.624.278,2.4-.757,2.539a17.762,17.762,0,0,1-3.544,0c-1.071-.237-1.085-.995-1.085-1.87C338.083,159.879,337.8,158.455,338.838,158.11Zm0,0" transform="translate(-311.754 -145.618)" fill="#262626"/>
        <path id="Trazado_776477" data-name="Trazado 776477" d="M71,163.612h2.956a.718.718,0,0,0,.107,0,1.856,1.856,0,0,0,1.774-2.039c.021-.8.228-2.135-.21-2.857-.518-.853-1.548-.725-2.4-.725-.922,0-1.867-.063-2.787,0a1.807,1.807,0,0,0-1.829,1.859,6.663,6.663,0,0,0,.175,2.972c.455.853,1.389.79,2.211.79Zm-1.072-4.864c.5-.341,1.282-.182,1.881-.182a18.5,18.5,0,0,1,2.057,0c1.1.126,1.053,1.077,1.053,1.908,0,.711.281,2.422-.748,2.561a30.352,30.352,0,0,1-3.588,0c-1.08-.126-1.053-1.078-1.053-1.908,0-.67-.225-1.958.4-2.38Zm0,0" transform="translate(-63.381 -146.104)" fill="#262626"/>
        <path id="Trazado_776478" data-name="Trazado 776478" d="M205.289,272.705h2.954a.6.6,0,0,0,.108,0,1.855,1.855,0,0,0,1.774-2.04c.021-.8.228-2.136-.21-2.858-.519-.855-1.547-.727-2.4-.727-.923,0-1.867-.063-2.788,0a1.809,1.809,0,0,0-1.829,1.861,6.678,6.678,0,0,0,.175,2.973c.455.853,1.389.792,2.212.792Zm-1.072-4.865c.5-.341,1.282-.181,1.881-.181a18.661,18.661,0,0,1,2.058,0c1.1.126,1.051,1.072,1.051,1.906,0,.712.282,2.422-.749,2.56a30.479,30.479,0,0,1-3.587,0c-1.08-.126-1.051-1.076-1.051-1.906,0-.67-.226-1.957.4-2.379Zm0,0" transform="translate(-187.582 -246.996)" fill="#262626"/>
        <path id="Trazado_776479" data-name="Trazado 776479" d="M341.72,267.752c-.921,0-1.868-.063-2.787,0a1.791,1.791,0,0,0-1.844,1.741c-.039.852-.252,2.271.172,3.038.461.829,1.4.741,2.2.741h2.946c.011,0,.025,0,.036-.006a.7.7,0,0,0,.078,0,1.806,1.806,0,0,0,1.786-1.877c.028-.82.246-2.218-.2-2.947C343.592,267.608,342.555,267.752,341.72,267.752Zm.965,5.046a26.15,26.15,0,0,1-3.518,0c-1.118-.15-1.164-.92-1.164-1.8,0-.766-.221-1.892.343-2.46.494-.5,1.235-.312,1.925-.312a14.994,14.994,0,0,1,2.009,0c1.149.16,1.117,1.042,1.117,1.916,0,.67.288,2.489-.711,2.656Zm0,0" transform="translate(-311.678 -247.619)" fill="#262626"/>
        <path id="Trazado_776480" data-name="Trazado 776480" d="M73.023,266.19c-.9,0-1.837-.087-2.729,0a1.82,1.82,0,0,0-1.763,1.9c-.033.854-.247,2.293.218,3.07.5.846,1.462.766,2.307.766H74a.531.531,0,0,0,.2-.042,1.856,1.856,0,0,0,1.56-2.039c.021-.807.226-2.149-.218-2.889C75.007,266.055,73.918,266.19,73.023,266.19Zm1.055,5.046a17.942,17.942,0,0,1-3.545,0c-1.064-.231-1.072-.964-1.072-1.835,0-.775-.29-2.175.76-2.519a5.309,5.309,0,0,1,1.4,0,17.012,17.012,0,0,1,2.076,0c1.143.144,1.139.959,1.139,1.835C74.839,269.347,75.12,271.1,74.079,271.236Zm0,0" transform="translate(-63.31 -246.163)" fill="#262626"/>
        <path id="Trazado_776481" data-name="Trazado 776481" d="M207.32,375.461c-.9,0-1.837-.087-2.729,0a1.818,1.818,0,0,0-1.766,1.892c-.033.851-.248,2.29.217,3.063.5.842,1.463.757,2.3.757h2.946a.529.529,0,0,0,.2-.042,1.853,1.853,0,0,0,1.562-2.031c.021-.8.226-2.144-.217-2.883C209.3,375.322,208.208,375.461,207.32,375.461Zm1.055,5.046a17.9,17.9,0,0,1-3.545,0c-1.073-.235-1.079-.977-1.079-1.851,0-.771-.289-2.183.757-2.527a5.357,5.357,0,0,1,1.4,0,17.016,17.016,0,0,1,2.076,0c1.145.146,1.143.973,1.143,1.851,0,.627.281,2.388-.757,2.527Zm0,0" transform="translate(-187.512 -347.223)" fill="#262626"/>
        <path id="Trazado_776482" data-name="Trazado 776482" d="M341.585,375.348c-.9,0-1.837-.086-2.729,0a1.82,1.82,0,0,0-1.766,1.9c-.033.853-.247,2.291.218,3.068.5.844,1.462.764,2.307.764h2.946a.531.531,0,0,0,.2-.042,1.857,1.857,0,0,0,1.56-2.036c.021-.806.226-2.148-.218-2.888C343.569,375.212,342.479,375.348,341.585,375.348Zm1.055,5.046a17.945,17.945,0,0,1-3.545,0c-1.064-.232-1.076-.967-1.076-1.84,0-.774-.29-2.177.757-2.523a5.307,5.307,0,0,1,1.4,0,16.907,16.907,0,0,1,2.076,0c1.143.144,1.139.963,1.139,1.84C343.4,378.5,343.681,380.254,342.64,380.394Zm0,0" transform="translate(-311.689 -347.118)" fill="#262626"/>
        <path id="Trazado_776483" data-name="Trazado 776483" d="M73.023,375.31c-.9,0-1.837-.087-2.729,0a1.82,1.82,0,0,0-1.763,1.9c-.033.854-.247,2.293.218,3.07.5.846,1.462.766,2.307.766H74a.525.525,0,0,0,.2-.042,1.859,1.859,0,0,0,1.56-2.039c.021-.807.226-2.149-.218-2.889-.54-.9-1.63-.766-2.524-.766Zm1.055,5.046a17.991,17.991,0,0,1-3.545,0c-1.064-.232-1.072-.964-1.072-1.836,0-.774-.29-2.175.76-2.523a5.359,5.359,0,0,1,1.4,0,17.012,17.012,0,0,1,2.076,0c1.143.145,1.139.96,1.139,1.836C74.839,378.466,75.12,380.215,74.079,380.355Zm0,0" transform="translate(-63.31 -347.083)" fill="#262626"/>
      </g>
    </g>
  </g>
</svg>
