<svg xmlns="http://www.w3.org/2000/svg" width="68.375" height="68.375" viewBox="0 0 68.375 68.375">
  <g id="Grupo_1063986" data-name="Grupo 1063986" transform="translate(-600 -6197.834)">
    <circle id="Elipse_4807" data-name="Elipse 4807" cx="34.188" cy="34.188" r="34.188" transform="translate(600 6197.834)" fill="#32cfc0"/>
    <g id="visualizacion" transform="translate(610.882 6208.753)">
      <path id="Trazado_776445" data-name="Trazado 776445" d="M13.57,24.393a.387.387,0,0,1-.208-.713l9.666-6.143L13.111,23.26a.387.387,0,0,1-.4-.659l12.052-7.837L13.11,21.492a.387.387,0,0,1-.4-.66l8.661-5.574L13.11,20.023a.387.387,0,0,1-.4-.661l4.626-2.939L13.11,18.864a.387.387,0,0,1-.4-.662l1.1-.7-.7.405a.387.387,0,0,1-.411-.654L19.9,12.331l-6.795,3.923A.387.387,0,0,1,12.7,15.6l4.038-2.716-3.629,2.094a.387.387,0,0,1-.414-.652l3.585-2.495-3.171,1.83a.387.387,0,0,1-.41-.655l.424-.286-.014.008a.387.387,0,0,1-.439-.633l3.068-2.533L13.11,11.08a.387.387,0,0,1-.429-.64l.411-.318a.387.387,0,0,1-.426-.619l.97-1.078a.387.387,0,0,1-.182-.721l1.785-1.031a.387.387,0,0,1,.481.592l-.847.943,2.816-1.624a.387.387,0,0,1,.43.64l-.382.3,1.624-.936a.387.387,0,0,1,.439.633l-3.07,2.536,5.49-3.171a.387.387,0,0,1,.41.654l-.415.281,1.624-.936a.387.387,0,0,1,.414.651l-3.587,2.5L26.11,6.585a.387.387,0,0,1,.409.655L22.486,9.953l5.835-3.368a.387.387,0,0,1,.411.653l-7.206,4.927,9.665-5.58a.387.387,0,0,1,.4.661l-1.1.7,2.345-1.357a.387.387,0,0,1,.4.66l-4.623,2.939,6.23-3.6a.387.387,0,0,1,.4.66l-8.665,5.577L37,6.806a.387.387,0,0,1,.4.658L25.347,15.3,38.338,7.8a.387.387,0,0,1,.4.66l-9.666,6.144,9.778-5.645a.387.387,0,0,1,.4.662L33.44,13.273l5.524-3.189a.387.387,0,0,1,.4.66L31.12,16.086l7.852-4.533a.387.387,0,0,1,.4.66L33.225,16.2l5.749-3.318a.387.387,0,1,1,.4.662l-.773.489.377-.217a.387.387,0,0,1,.407.657l-4.3,2.846,3.9-2.25a.387.387,0,0,1,.4.659l-.979.636.576-.333a.387.387,0,0,1,.421.647l-4.57,3.329,4.153-2.4a.387.387,0,0,1,.437.636l-3.644,2.948,3.21-1.856a.387.387,0,0,1,.441.632l-1.691,1.407,1.252-.722a.387.387,0,0,1,.442.63l-.3.253a.387.387,0,0,1,.387.579l-.474.806a.387.387,0,0,1,.336.7l-1.216.7a.387.387,0,0,1-.523-.533l.47-.8L35.8,24.322a.387.387,0,0,1-.442-.63l.178-.15-1.353.781a.387.387,0,0,1-.44-.632l1.688-1.408L31.9,24.323a.387.387,0,0,1-.436-.635l3.643-2.949-6.213,3.589a.387.387,0,0,1-.421-.647l4.569-3.325-6.889,3.977a.387.387,0,0,1-.4-.659l.985-.641-2.254,1.3a.387.387,0,0,1-.407-.657l4.3-2.847L22.3,24.334a.387.387,0,1,1-.4-.662l.782-.493-2,1.16a.387.387,0,1,1-.4-.66l6.144-3.984-8.047,4.643a.387.387,0,0,1-.4-.66l8.253-5.343-10.4,6.005a.387.387,0,0,1-.4-.663l5.815-3.652-7.475,4.317a.387.387,0,0,1-.193.052Z" transform="translate(-2.756 -1.37)" fill="#c67640"/>
      <path id="Trazado_776446" data-name="Trazado 776446" d="M17.376,22.74a.387.387,0,0,1-.208-.713l4.2-2.665L17.11,21.818a.387.387,0,0,1-.407-.657l9.841-6.541L17.11,20.068a.387.387,0,0,1-.4-.66l5.232-3.337-4.832,2.788A.387.387,0,0,1,16.7,18.2l6.951-4.6-6.545,3.778a.387.387,0,0,1-.4-.661l.323-.2a.387.387,0,0,1-.329-.691l3-1.975-2.6,1.5a.387.387,0,0,1-.421-.647l5.258-3.832-4.837,2.793a.387.387,0,0,1-.412-.653l1.237-.851-.827.478a.387.387,0,0,1-.425-.644l1.954-1.458-1.527.881a.387.387,0,0,1-.425-.644l.363-.27a.387.387,0,0,1-.405-.636L17.8,8.7l-.7.4a.387.387,0,0,1-.571-.414L16.782,7.5a.381.381,0,0,1-.2-.171.387.387,0,0,1,.141-.527l.387-.223a.387.387,0,0,1,.572.414l-.211,1.005,2.472-1.422a.387.387,0,0,1,.468.607l-1.16,1.165,3.075-1.779a.387.387,0,0,1,.425.644l-.322.24,1.535-.882a.387.387,0,0,1,.424.644L22.433,8.666l3.642-2.1a.387.387,0,0,1,.412.653l-1.237.851L27.862,6.56a.387.387,0,0,1,.421.647l-5.258,3.833,7.768-4.485a.387.387,0,0,1,.405.658l-3,1.975L32.755,6.56a.387.387,0,0,1,.4.662l-.142.09,1.3-.753a.387.387,0,0,1,.407.657l-6.952,4.6,9.01-5.2a.387.387,0,0,1,.4.66L31.953,10.6l4.832-2.788a.387.387,0,0,1,.407.657l-9.845,6.543,9.44-5.45a.387.387,0,0,1,.4.66L33,12.888,36.786,10.7a.387.387,0,0,1,.407.657l-6.582,4.361,6.179-3.57a.387.387,0,0,1,.414.652l-6.547,4.542L36.791,13.8a.387.387,0,0,1,.419.648l-5.128,3.687,4.711-2.72a.387.387,0,0,1,.425.644L33.6,18.764,36.8,16.922a.387.387,0,0,1,.416.65l-.323.227a.387.387,0,0,1,.345.676l-1.025.8.594-.343a.387.387,0,0,1,.481.593L36.16,20.78l.645-.373a.387.387,0,0,1,.569.426l-.221.919a.382.382,0,0,1,.184.162.387.387,0,0,1-.142.527l-.387.223a.387.387,0,0,1-.569-.425l.172-.71-1.973,1.138a.387.387,0,0,1-.482-.592l1.124-1.25-3.2,1.845a.387.387,0,0,1-.432-.639l1.023-.8-2.5,1.444a.387.387,0,0,1-.416-.651l.21-.146-1.387.8a.387.387,0,0,1-.425-.644l3.614-2.707-5.807,3.353a.387.387,0,0,1-.419-.649l5.132-3.689-7.52,4.34a.387.387,0,0,1-.414-.653l6.544-4.537-8.994,5.193a.387.387,0,0,1-.408-.657l6.579-4.358-8.69,5.018a.382.382,0,0,1-.193.053Z" transform="translate(-3.662 -1.363)" fill="#f0f2f5"/>
      <path id="Trazado_776447" data-name="Trazado 776447" d="M22.691,51.053a.387.387,0,0,1-.209-.711l9.254-5.96L20.629,50.8a.387.387,0,0,1-.4-.662L26,46.525,19.18,50.463a.387.387,0,0,1-.4-.664l.387-.24-1.1.636a.387.387,0,0,1-.4-.659l12.527-8.111L16.2,49.507a.387.387,0,0,1-.4-.662l7.36-4.6-8.182,4.721a.387.387,0,0,1-.394-.664l1.306-.8-1.784,1.03a.387.387,0,1,1-.4-.664l2.363-1.45L13.205,48.08a.387.387,0,1,1-.4-.663l6.53-4.051-7.114,4.109a.387.387,0,0,1-.4-.66l13.191-8.464L10.785,46.568a.387.387,0,0,1-.4-.665l2.011-1.23-2.355,1.354a.387.387,0,0,1-.4-.663l5.3-3.268L9.2,45.414a.387.387,0,0,1-.4-.66l12.252-7.792L8.03,44.48a.387.387,0,1,1-.4-.66l13.494-8.677L6.784,43.42a.387.387,0,0,1-.4-.662l9.722-6.109L5.857,42.567a.387.387,0,0,1-.4-.665l1.259-.773-1.475.857a.387.387,0,1,1-.4-.663l8.209-5.136L4.43,41.166a.387.387,0,0,1-.4-.662l8.048-5.041L3.637,40.335a.387.387,0,0,1-.4-.658l11.143-7.135L2.688,39.291a.387.387,0,0,1-.4-.661l8.559-5.417L1.9,38.375a.387.387,0,0,1-.4-.661l8.123-5.159L1.218,37.409a.387.387,0,0,1-.4-.661l8.941-5.781-7.1,4.1a.387.387,0,0,1-.4-.659l5.514-3.591-2.38,1.377a.387.387,0,0,1-.414-.653L9.68,28.271a.392.392,0,0,1-.139-.141.387.387,0,0,1,.142-.528L15.405,24.3a.387.387,0,0,1,.414.653l-2.777,1.928,6.82-3.937a.387.387,0,0,1,.4.659l-5.516,3.593,7.9-4.557a.387.387,0,0,1,.4.66l-8.939,5.781,10.958-6.324a.387.387,0,0,1,.4.66l-8.129,5.159,9.566-5.522a.387.387,0,0,1,.4.661l-8.557,5.413,9.838-5.676a.387.387,0,1,1,.4.66L17.851,31.239l12.418-7.174a.387.387,0,0,1,.4.662l-8.052,5.047,8.944-5.163a.387.387,0,0,1,.4.663l-8.2,5.133,9-5.2a.387.387,0,0,1,.394.664l-1.264.773,1.721-.993a.387.387,0,0,1,.4.662l-9.72,6.109,10.487-6.054a.387.387,0,0,1,.4.66L21.679,35.7l14.535-8.391a.387.387,0,0,1,.4.661L24.37,35.765,37.455,28.21a.387.387,0,1,1,.4.664l-5.3,3.268,5.705-3.293a.387.387,0,0,1,.4.664L36.631,30.75l2.315-1.336a.387.387,0,0,1,.4.66l-13.19,8.462,13.99-8.077a.387.387,0,0,1,.4.663l-6.532,4.051,6.919-3.993a.387.387,0,1,1,.4.664L38.957,33.3l2.608-1.506a.387.387,0,1,1,.4.665l-1.3.794,1.5-.863a.387.387,0,0,1,.4.662l-7.364,4.6,7.733-4.465a.387.387,0,0,1,.4.66L30.8,41.953l13.178-7.608a.387.387,0,0,1,.4.663l-.391.24.515-.3a.387.387,0,1,1,.4.663l-5.772,3.609,6.032-3.48a.387.387,0,0,1,.4.659l-9.256,5.962,8.83-5.1a.387.387,0,0,1,.408.657l-9.254,6.155,5.645-3.26a.387.387,0,0,1,.418.65L36.91,45.342a.387.387,0,0,1,.088.707l-5.722,3.305a.387.387,0,0,1-.418-.65L35.3,45.541l-9.2,5.31a.387.387,0,0,1-.408-.657l9.255-6.155L22.885,51a.382.382,0,0,1-.194.049Z" transform="translate(-0.058 -5.008)" fill="#d6dbe3"/>
      <path id="Trazado_776448" data-name="Trazado 776448" d="M27.389,48.847a.387.387,0,0,1-.224-.7L29.89,46.2,25.531,48.72a.387.387,0,0,1-.405-.658l.368-.241-1.185.684a.387.387,0,0,1-.411-.653l5.006-3.43L22.7,48a.387.387,0,0,1-.408-.656l5.413-3.628-6.251,3.608a.387.387,0,1,1-.4-.66l3.016-1.946-3.51,2.026a.387.387,0,1,1-.4-.66l2.956-1.9-3.325,1.92a.387.387,0,0,1-.4-.655l6.683-4.418-7.2,4.154a.387.387,0,0,1-.4-.662l.36-.226-.47.271a.387.387,0,0,1-.408-.656l8.124-5.435-8.5,4.9a.387.387,0,0,1-.4-.658l5.979-3.9-6.127,3.537a.387.387,0,0,1-.4-.66l4.985-3.223-4.931,2.845a.387.387,0,0,1-.4-.66l2.276-1.448-2.145,1.237A.387.387,0,0,1,16,39.807l7.965-5.419L16.2,38.869a.387.387,0,0,1-.406-.657l4.614-3.035-4.247,2.452a.387.387,0,0,1-.411-.654l5.919-4.051-5.344,3.085a.387.387,0,0,1-.405-.658l1.282-.837-.536.309a.387.387,0,0,1-.425-.645l4.842-3.605-3.4,1.96a.387.387,0,0,1-.439-.633L19.7,29.889a.379.379,0,0,1-.248-.183.387.387,0,0,1,.141-.528l3.335-1.926a.387.387,0,0,1,.438.633L21.4,29.5l5.025-2.9a.387.387,0,0,1,.424.645l-4.837,3.6,6.9-3.982a.387.387,0,0,1,.405.659l-1.273.832,1.983-1.145a.387.387,0,0,1,.411.654l-5.921,4.053,7.022-4.054a.387.387,0,0,1,.405.658l-4.61,3.031,5.315-3.068a.387.387,0,0,1,.411.653L25.09,34.561l8.778-5.068a.387.387,0,0,1,.4.661l-2.288,1.453,2.526-1.458a.387.387,0,0,1,.4.66l-4.975,3.217L35.2,30.986a.387.387,0,0,1,.405.659l-5.983,3.9,6.208-3.583a.387.387,0,1,1,.408.657l-8.127,5.436L36.5,33.208a.387.387,0,1,1,.4.663l-.346.218.184-.107a.387.387,0,0,1,.407.657l-6.682,4.418,6.658-3.844a.387.387,0,0,1,.4.66l-2.962,1.9,2.664-1.538a.387.387,0,1,1,.4.66L34.61,38.842l2.72-1.571a.387.387,0,0,1,.408.656l-5.413,3.626L37.2,38.738a.387.387,0,0,1,.411.653l-5,3.429,4.265-2.467a.387.387,0,1,1,.406.658l-.643.422a.387.387,0,0,1,.309.692l-2.724,1.94,1.349-.774a.387.387,0,0,1,.431.64L33.863,45.6a.372.372,0,0,1,.145.143.387.387,0,0,1-.141.528L30.531,48.2a.387.387,0,0,1-.431-.64l1.066-.832-3.583,2.066a.381.381,0,0,1-.194.053Z" transform="translate(-3.449 -5.907)" fill="#0c70dc"/>
      <path id="Trazado_776449" data-name="Trazado 776449" d="M23.075,17.237a.387.387,0,0,1-.3-.628l.464-.578-.86.5a.387.387,0,0,1-.53-.525l.586-1.032-.034.019a.387.387,0,0,1-.387-.669l1.266-.731a.381.381,0,0,1,.464.061.387.387,0,0,1,.064.464l-.585,1.031,1.4-.809a.387.387,0,0,1,.5.576l-.464.578.084-.049a.387.387,0,0,1,.387.669l-1.856,1.073a.378.378,0,0,1-.194.053Z" transform="translate(-4.857 -2.958)" fill="#31b791"/>
      <path id="Trazado_776450" data-name="Trazado 776450" d="M26.252,7.445a.387.387,0,0,1-.237-.694l.887-.684L24.608,7.39a.387.387,0,0,1-.437-.634l2.962-2.371L22.16,7.257a.387.387,0,0,1-.431-.64l3.3-2.569L21.239,6.234a.387.387,0,0,1-.5-.567l.409-.541a.387.387,0,0,1-.137-.718l1.266-.731a.387.387,0,0,1,.5.567l-.28.373L29.483.585a.387.387,0,0,1,.431.64l-3.3,2.567,4.541-2.621a.387.387,0,0,1,.435.637L28.629,4.178l2.91-1.68a.387.387,0,0,1,.429.641l-.885.683.472-.272a.387.387,0,0,1,.484.588L30.8,5.555l2.952-1.7a.385.385,0,0,1,.5.568L33.233,5.756l1.338-.773a.387.387,0,0,1,.489.584l-.34.4a.387.387,0,0,1,.039.69l-1.269.73A.387.387,0,0,1,33,6.806l.046-.053-1.1.636a.387.387,0,0,1-.5-.569l1.02-1.333-3.3,1.9a.387.387,0,0,1-.484-.588l1.237-1.416-3.471,2a.387.387,0,0,1-.193.055Z" transform="translate(-4.6 -0.009)" fill="#fccb55"/>
      <path id="Trazado_776451" data-name="Trazado 776451" d="M24.917,3.941a.387.387,0,0,1-.332-.575l.79-1.392-.032.018a.387.387,0,0,1-.387-.669L26.215.589a.387.387,0,0,1,.53.525l-.791,1.4L29.3.582a.387.387,0,1,1,.387.669L25.111,3.89a.378.378,0,0,1-.193.052Z" transform="translate(-5.478 -0.007)" fill="#fccb55"/>
      <path id="Trazado_776452" data-name="Trazado 776452" d="M18.406,47.668a.387.387,0,0,1-.244-.686l.092-.077-.133.077a.387.387,0,0,1-.45-.623l1.469-1.3L17.5,46a.387.387,0,0,1-.459-.615l2.169-2.072-2.363,1.365a.387.387,0,0,1-.435-.636l.954-.766-.793.457a.387.387,0,0,1-.431-.64l.411-.319-.22.127a.387.387,0,0,1-.449-.626l.614-.541-.276.159a.387.387,0,0,1-.464-.608l.271-.27a.379.379,0,0,1-.316-.068.387.387,0,0,1-.145-.4l.254-1.055a.387.387,0,0,1,0-.669l.327-.189a.387.387,0,0,1,.57.425l-.19.793,1.615-.929a.387.387,0,0,1,.464.609l-.221.221,1.1-.639a.387.387,0,0,1,.449.626l-.619.541,1.654-.955a.387.387,0,0,1,.431.64l-.414.323.358-.207a.387.387,0,0,1,.435.636l-.953.766.784-.453a.387.387,0,0,1,.46.619l-2.163,2.065,2.123-1.225a.387.387,0,0,1,.45.623l-1.465,1.3.97-.56a.387.387,0,0,1,.438.634l-2.011,1.642a.387.387,0,0,1-.148.517l-1.674.967a.38.38,0,0,1-.189.052Z" transform="translate(-3.442 -8.636)" fill="#439af6"/>
      <path id="Trazado_776453" data-name="Trazado 776453" d="M27.789,53.449a.387.387,0,0,1-.326-.595l.05-.077-.842.486a.387.387,0,0,1-.464-.609l.073-.071-.635.366a.387.387,0,0,1-.464-.613l.949-.914-1.332.769a.387.387,0,0,1-.468-.607l2.018-2.032-.643.37a.387.387,0,0,1-.534-.517l.845-1.574a.343.343,0,0,1-.037-.053.387.387,0,0,1,.142-.528l.4-.232a.387.387,0,0,1,.534.517l-.558,1.038,1.975-1.14a.387.387,0,0,1,.464.608l-2.018,2.031,1.561-.9a.387.387,0,0,1,.464.613l-.947.914.493-.285a.387.387,0,0,1,.464.609l-.247.245a.387.387,0,0,1,.309.594l-.2.315a.387.387,0,0,1,.072.7l-.9.52a.379.379,0,0,1-.194.053Z" transform="translate(-5.406 -10.535)" fill="#439af6"/>
      <path id="Trazado_776454" data-name="Trazado 776454" d="M27.949,45.043a.387.387,0,0,1-.237-.7l1.1-.851L26.734,44.7a.387.387,0,0,1-.428-.642l2.358-1.8L25.508,44.08a.387.387,0,0,1-.42-.648l2.018-1.456-2.451,1.415a.387.387,0,0,1-.415-.651l1.45-1.017-1.607.928a.387.387,0,0,1-.432-.64L27.5,39l-4.067,2.348a.387.387,0,0,1-.425-.644l2.719-2.031-2.533,1.462a.387.387,0,0,1-.424-.645l1.966-1.461-1.5.868a.387.387,0,0,1-.434-.637l1.673-1.329-.794.458a.387.387,0,0,1-.443-.629l1.063-.9a.387.387,0,0,1,.012-.662l2.448-1.413a.387.387,0,0,1,.443.629l-.176.149,1.583-.914a.387.387,0,0,1,.435.637l-1.673,1.33,2.78-1.605a.387.387,0,0,1,.424.645L28.6,36.114,31,34.733a.387.387,0,0,1,.424.644L28.7,37.408l3.148-1.816a.387.387,0,0,1,.431.639l-3.849,3.016,4.485-2.588a.387.387,0,0,1,.416.65L31.89,38.322l1.4-.808a.387.387,0,0,1,.42.648L31.693,39.62l1.789-1.032a.387.387,0,0,1,.428.642l-2.359,1.8,1.84-1.063a.387.387,0,0,1,.429.64l-1.1.851.224-.129a.387.387,0,0,1,.387.669l-5.189,3a.38.38,0,0,1-.193.049Z" transform="translate(-5.043 -7.504)" fill="#22333d"/>
      <path id="Trazado_776455" data-name="Trazado 776455" d="M33.716,38.108a.387.387,0,0,1-.3-.635l.527-.626-1.226.707a.387.387,0,0,1-.5-.572l1.094-1.408-1.185.684a.387.387,0,0,1-.483-.592l.493-.556a.387.387,0,0,1-.038-.689l1.388-.8a.387.387,0,0,1,.483.591l-.164.185.83-.479a.387.387,0,0,1,.5.571L34.046,35.9l1.417-.818a.387.387,0,0,1,.489.582l-.541.649a.387.387,0,0,1,.309.7l-1.812,1.044A.38.38,0,0,1,33.716,38.108Z" transform="translate(-7.069 -7.498)" fill="#fff"/>
      <g id="Grupo_1044705" data-name="Grupo 1044705" transform="translate(0.372 0.491)">
        <path id="Trazado_776456" data-name="Trazado 776456" d="M45.685,32.707c.387-.473.761-.887.42-1.513A43.189,43.189,0,0,0,37,22.43V9.391c0-1.41-.19-2.744-1.457-3.634-1.3-.912-3.194-.706-4.773-.66-.263-1.449-1.8-1.457-3.053-1.447.022-1.16.128-2.512-1.212-2.972A10.274,10.274,0,0,0,23.36.561a8.9,8.9,0,0,0-3.178.191c-1.332.541-1.342,1.7-1.329,2.887a7.451,7.451,0,0,0-1.117.036,2.255,2.255,0,0,0-1.9,1.494A22.471,22.471,0,0,0,13.5,5.15a.873.873,0,0,0-.51.053,4.858,4.858,0,0,0-.94.216,3.684,3.684,0,0,0-2.471,3.7V22.7c0,.016.01.025.012.039a38.553,38.553,0,0,0-3.235,2.527,47.035,47.035,0,0,0-3.73,3.647A20.415,20.415,0,0,0,.544,31.348c-.633.964.641,2,1.256,2.707q1.555,1.786,3.284,3.413c6.21,5.842,14.346,10.13,23.026,7.788C35.132,43.357,41.173,38.268,45.685,32.707ZM35.864,9.745V21.674q-.963-.612-1.962-1.149V6.048a2.691,2.691,0,0,1,.554.223c1.36.766,1.405,2.123,1.405,3.474ZM17.494,4.337A4.395,4.395,0,0,1,19.061,4.3a.493.493,0,0,0,.145.024h3.866A.861.861,0,0,0,23.809,4c.131-.224-.114-.368-.315-.368H19.969c-.037-.851-.165-2.253.792-2.427a14.5,14.5,0,0,1,2.445,0c.716,0,1.469-.067,2.181,0,1.452.136,1.2,1.8,1.2,2.837,0,.189.172.256.345.256,1.141,0,2.616-.21,2.741,1.333-.109,1.286-1.045,1.112-1.988,1.112H24.123c-1.991,0-4.021.115-6.008,0a1.241,1.241,0,0,1-.937-.49c-.408-.526-.428-1.635.316-1.92Zm-1.7,1.524C15.953,7.233,17.355,7.4,18.5,7.4h8.893c1.281,0,2.922-.084,3.319-1.469.646-.028,1.373-.085,2.064-.053V19.947a26.037,26.037,0,0,0-3.106-1.271c-5.507-1.826-10.965-.862-15.87,1.555V5.809c.675-.023,1.373.033,1.994.052ZM11.1,7.052a2.4,2.4,0,0,1,1.56-1.1V20.758c0,.02.011.032.014.051-.673.367-1.331.765-1.979,1.182V10.169A6.031,6.031,0,0,1,11.1,7.052Zm29.264,30.34a33.765,33.765,0,0,1-9.631,6.565,17.935,17.935,0,0,1-12.791.6A30.572,30.572,0,0,1,7.74,38.52,45.944,45.944,0,0,1,1.95,32.6c-.411-.506-.685-.911-.237-1.525.258-.354.558-.686.843-1.02q1.3-1.521,2.726-2.928a42.023,42.023,0,0,1,4.861-4.15c.274-.043.541-.193.554-.387q1.148-.8,2.354-1.484c.319.029.717-.14.74-.415a18.638,18.638,0,0,1,13.3-2.048A24.464,24.464,0,0,1,32.8,20.858a.387.387,0,0,0,.407.219,31.224,31.224,0,0,1,2.67,1.656c.03.213.219.309.44.318a43.474,43.474,0,0,1,8.669,8.444c.477.875-1.005,2.136-1.556,2.755q-1.46,1.639-3.063,3.142Z" transform="translate(-0.372 -0.491)" fill="#262626"/>
        <path id="Trazado_776457" data-name="Trazado 776457" d="M30.256,27.184a12.073,12.073,0,0,0-12.288,3.551,10.9,10.9,0,0,0-2.5,5.36.476.476,0,0,0-.046.06.266.266,0,0,0,0,.232,10.7,10.7,0,0,0,2.73,8.857.25.25,0,0,0,.03.034,10.913,10.913,0,0,0,3.658,2.566c.036.16.246.217.474.2a11.559,11.559,0,0,0,3.839.74.912.912,0,0,0,.495,0,11.809,11.809,0,0,0,2.367-.28,11.367,11.367,0,0,0,9.048-10.894,11.028,11.028,0,0,0-7.8-10.425Zm-13.8,9.536,3.993.577.268.039a5.483,5.483,0,0,0,1.124,3.911l-3.089,3.089c-.108-.135-.22-.269-.321-.411a10.852,10.852,0,0,1-1.976-7.2ZM29.528,32.7c.029-.017.06-.032.09-.047l.015-.008.052-.019.026-.007.045-.008h.111a1.5,1.5,0,0,1,.489.1,1.8,1.8,0,0,1,.809.619,1.856,1.856,0,0,1,.142,1.911c-.187.085-.309.227-.278.4-.018.019-.029.042-.048.06a1.129,1.129,0,0,1-.355.243h-.019l-.033.009h-.015l-.031.007h-.014a1.356,1.356,0,0,1-.436-.046,1.826,1.826,0,0,1-1.011-2.738.6.6,0,0,0,.367-.4l.032-.025S29.6,32.66,29.528,32.7Zm1.1,3.239C30.657,35.925,30.68,35.926,30.63,35.937Zm-2.978-1.5a2.068,2.068,0,0,0,1.49,1.938,3.041,3.041,0,0,0,2.07-.19,5.082,5.082,0,0,1-.858,4.872,4.7,4.7,0,0,1-4.532,1.609,5.128,5.128,0,0,1-2.934-8.083,4.689,4.689,0,0,1,5.285-1.5,2.088,2.088,0,0,0-.518,1.356Zm-2.986,8.908.019-.048a6.041,6.041,0,0,0,1.421.278V48.33a10.494,10.494,0,0,1-3.117-.794Zm-5.384,1.605,3.093-3.093a5.872,5.872,0,0,0,1.392,1.04l-1.654,4.135-.028.07a10.9,10.9,0,0,1-2.8-2.152Zm10.812,2.907a9.174,9.174,0,0,1-2.866.51V43.542A6.144,6.144,0,0,0,30.5,42.184a5.817,5.817,0,0,0,1.674-6.74,2.046,2.046,0,0,0,.138-2.389,2.372,2.372,0,0,0-2.567-.882,3.165,3.165,0,0,0-.666.232,6.176,6.176,0,0,0-6.3.984,5.973,5.973,0,0,0-1.912,3.106l-4.054-.587-.255-.037a10.587,10.587,0,0,1,1.25-3.565,9.91,9.91,0,0,1,11.275-4.772,10.874,10.874,0,0,1,7.85,10.378,10.659,10.659,0,0,1-6.841,9.943Z" transform="translate(-3.756 -6.438)" fill="#262626"/>
        <path id="Trazado_776458" data-name="Trazado 776458" d="M23.693,17.3a2.1,2.1,0,0,0,1.8-1.914,1.822,1.822,0,0,0-1.261-1.735,2.4,2.4,0,0,0-2.484.665,1.82,1.82,0,0,0-.213,2.151,2.042,2.042,0,0,0,2.155.833Zm-1.128-2.579a1.566,1.566,0,0,1,.1-.155l.029-.034c.023-.024.046-.049.07-.072s.05-.044.077-.068l.011-.006a.782.782,0,0,0,.067-.045l.019-.012.035-.017c.025-.012.049-.021.077-.032h.009l.029-.005.025-.006a.124.124,0,0,0,.027-.009l-.005,0c.02,0,.041,0,.062-.006h.051c.036,0,.071.005.107.009h.019l.01,0,.12.032s.05.019.067.024a1.617,1.617,0,0,1,.2.105,1.1,1.1,0,0,1,.285.255,1.345,1.345,0,0,1,.309.818,1.315,1.315,0,0,1-.226.769l-.038.052-.042.049a1.463,1.463,0,0,1-.128.121l-.013.01-.049.032a.1.1,0,0,1-.035.024h-.009l-.01.006.009-.005c-.035.015-.071.029-.105.046h-.007l-.043.012c.056-.019-.1,0-.112.011s-.053,0-.055,0c-.035,0-.07-.007-.106-.009h-.01l-.12-.032c-.005,0-.073-.028-.077-.028l-.046-.022a1.641,1.641,0,0,1-.176-.1,1.3,1.3,0,0,1-.276-.265,1.358,1.358,0,0,1-.126-1.451Z" transform="translate(-5.112 -3.449)" fill="#262626"/>
        <path id="Trazado_776459" data-name="Trazado 776459" d="M23.654,14.47l-.02,0-.025.006c-.022.012.011.017.045-.011Z" transform="translate(-5.638 -3.66)" fill="#262626"/>
        <path id="Trazado_776460" data-name="Trazado 776460" d="M24.575,17.439c.014-.01.029-.019.043-.028a.262.262,0,0,0-.045.029Z" transform="translate(-5.858 -4.327)" fill="#262626"/>
        <path id="Trazado_776461" data-name="Trazado 776461" d="M29.475,14.155h6.186a1.5,1.5,0,0,0,.793-.213c.162-.108.169-.227-.061-.227H30.206a1.5,1.5,0,0,0-.793.213c-.162.108-.169.227.061.227Z" transform="translate(-6.929 -3.489)" fill="#262626"/>
        <path id="Trazado_776462" data-name="Trazado 776462" d="M29.624,18.241h4.64A.86.86,0,0,0,35,17.925c.131-.224-.113-.369-.315-.369h-4.64a.86.86,0,0,0-.737.316c-.131.224.113.369.315.369Z" transform="translate(-6.924 -4.359)" fill="#262626"/>
      </g>
    </g>
  </g>
</svg>
