<svg xmlns="http://www.w3.org/2000/svg" width="114" height="114" viewBox="0 0 114 114">
  <g id="Grupo_1063901" data-name="Grupo 1063901" transform="translate(-209 -423)">
    <rect id="Rect치ngulo_356777" data-name="Rect치ngulo 356777" width="114" height="114" rx="13" transform="translate(209 423)" fill="#cb4dae"/>
    <g id="Layer_3" data-name="Layer 3" transform="translate(218.318 431.188)">
      <path id="Trazado_781280" data-name="Trazado 781280" d="M55.84,43,36,49.613l6.518,9.227A19.84,19.84,0,0,1,45.1,63.907l4.13,12.161H67.414Z" transform="translate(18.294 28.092)" fill="#f7d1c6"/>
      <path id="Trazado_781281" data-name="Trazado 781281" d="M47.478,58.841,40.96,49.613l15.4-5.125L55.84,43,36,49.613l6.518,9.227A19.84,19.84,0,0,1,45.1,63.907l4.13,12.161h4.96L50.054,63.907a19.841,19.841,0,0,0-2.576-5.066Z" transform="translate(18.294 28.092)" fill="#f4b19f"/>
      <path id="Trazado_781282" data-name="Trazado 781282" d="M20.574,43l19.84,6.613L33.9,58.841a19.841,19.841,0,0,0-2.579,5.066l-4.13,12.161H9Z" transform="translate(0.653 28.092)" fill="#f7d1c6"/>
      <path id="Trazado_781283" data-name="Trazado 781283" d="M20.574,43,9,76.067h6.613L26.5,44.974Z" transform="translate(0.653 28.092)" fill="#f4b19f"/>
      <rect id="Rect치ngulo_373088" data-name="Rect치ngulo 373088" width="39.681" height="59.521" rx="12" transform="translate(27.84 24.798)" fill="#e8859b"/>
      <circle id="Elipse_5783" data-name="Elipse 5783" cx="11.574" cy="11.574" r="11.574" transform="translate(36.107 31.411)" fill="#f7d1c6"/>
      <path id="Trazado_781284" data-name="Trazado 781284" d="M24.027,61.573a19.816,19.816,0,0,0,33.023-14.8V27.1A36.374,36.374,0,0,0,24.027,61.573Z" transform="translate(10.472 17.703)" fill="#f2a7b1"/>
      <path id="Trazado_781285" data-name="Trazado 781285" d="M39.454,37.5A3.538,3.538,0,0,1,42.4,32l4.96,6.2v5.373a19.8,19.8,0,0,1-8.267,16.092V53.218A11.286,11.286,0,0,1,42.4,45.227a10.925,10.925,0,0,0-1.833-6.058Z" transform="translate(20.162 20.905)" fill="#e8859b"/>
      <path id="Trazado_781286" data-name="Trazado 781286" d="M24.364,54.493a19.773,19.773,0,0,0,23.041,6.729A19.921,19.921,0,0,0,53.3,55.639,36.257,36.257,0,0,0,39.765,30.8a36.323,36.323,0,0,0-15.4,23.693Z" transform="translate(10.692 20.121)" fill="#e8859b"/>
      <path id="Trazado_781287" data-name="Trazado 781287" d="M20,27.1V46.775a19.816,19.816,0,0,0,33.023,14.8A36.374,36.374,0,0,0,20,27.1Z" transform="translate(7.84 17.703)" fill="#f2a7b1"/>
      <path id="Trazado_781288" data-name="Trazado 781288" d="M44.4,32h0a3.538,3.538,0,0,0-2.945,5.5l1.111,1.667A10.925,10.925,0,0,1,44.4,45.227h0a11.286,11.286,0,0,0-3.307,7.982v6.9H52.666V46.125a10.8,10.8,0,0,0-1.142-4.835v0a10.814,10.814,0,0,0-1.228-1.92Z" transform="translate(21.469 20.905)" fill="#f7d1c6"/>
      <path id="Trazado_781289" data-name="Trazado 781289" d="M46.3,46.946a6.567,6.567,0,0,0,.331-6.448,11.029,11.029,0,0,0-.754-1.323l-1.111-1.667a3.517,3.517,0,0,1,.465-4.464L44.4,32a3.538,3.538,0,0,0-2.945,5.5l1.111,1.667A10.925,10.925,0,0,1,44.4,45.227a11.286,11.286,0,0,0-3.307,7.982V56.8h0A3.307,3.307,0,0,0,44.4,53.494v-.284a11.3,11.3,0,0,1,1.9-6.261Z" transform="translate(21.469 20.905)" fill="#f4b19f"/>
      <path id="Trazado_781290" data-name="Trazado 781290" d="M27.9,37.5A3.538,3.538,0,0,0,24.96,32L20,38.2v5.373a19.8,19.8,0,0,0,8.267,16.092V53.218a11.286,11.286,0,0,0-3.307-7.991,10.925,10.925,0,0,1,1.833-6.058Z" transform="translate(7.84 20.905)" fill="#e8859b"/>
      <path id="Trazado_781291" data-name="Trazado 781291" d="M24.267,32h0a3.538,3.538,0,0,1,2.945,5.5L26.1,39.169a10.925,10.925,0,0,0-1.834,6.058h0a11.286,11.286,0,0,1,3.307,7.982v6.9H16V46.125a10.8,10.8,0,0,1,1.142-4.835v0a10.815,10.815,0,0,1,1.228-1.92Z" transform="translate(5.227 20.905)" fill="#f7d1c6"/>
      <path id="Trazado_781292" data-name="Trazado 781292" d="M20.448,41.292a10.815,10.815,0,0,1,1.228-1.92l5.071-6.341A3.472,3.472,0,0,0,24.267,32l-5.9,7.372A10.806,10.806,0,0,0,16,46.125V60.107h3.307V46.125a10.8,10.8,0,0,1,1.142-4.835Z" transform="translate(5.227 20.905)" fill="#f4b19f"/>
      <path id="Trazado_781293" data-name="Trazado 781293" d="M42.727,7.686c-.392.281-.761.585-1.119.9a14.2,14.2,0,0,0-1.126-.923,3.53,3.53,0,0,0-4.484.3,3.183,3.183,0,0,0-.3,4.3A17.377,17.377,0,0,0,41.6,16.92a18.452,18.452,0,0,0,5.929-4.653,3.168,3.168,0,0,0-.311-4.3A3.545,3.545,0,0,0,42.727,7.686Z" transform="translate(17.642 4.571)" fill="#f97878"/>
      <path id="Trazado_781294" data-name="Trazado 781294" d="M28.727,1.686c-.392.281-.761.585-1.119.9a14.2,14.2,0,0,0-1.126-.923,3.53,3.53,0,0,0-4.484.3,3.183,3.183,0,0,0-.3,4.3A17.377,17.377,0,0,0,27.6,10.92a18.452,18.452,0,0,0,5.929-4.653,3.168,3.168,0,0,0-.311-4.3,3.545,3.545,0,0,0-4.494-.283Z" transform="translate(8.494 0.65)" fill="#f97878"/>
      <path id="Trazado_781295" data-name="Trazado 781295" d="M39.018,12.27a3.193,3.193,0,0,1,.3-4.317A3.359,3.359,0,0,1,40.1,7.41,3.54,3.54,0,0,0,36,7.953a3.191,3.191,0,0,0-.3,4.317,17.413,17.413,0,0,0,5.929,4.674c.57-.3,1.114-.618,1.638-.947a16.3,16.3,0,0,1-4.249-3.727Z" transform="translate(17.641 4.565)" fill="#ed5d5d"/>
      <path id="Trazado_781296" data-name="Trazado 781296" d="M25.018,6.27a3.193,3.193,0,0,1,.3-4.317A3.36,3.36,0,0,1,26.1,1.41,3.54,3.54,0,0,0,22,1.953a3.191,3.191,0,0,0-.3,4.317,17.413,17.413,0,0,0,5.929,4.674c.57-.3,1.114-.618,1.638-.947A16.3,16.3,0,0,1,25.018,6.27Z" transform="translate(8.494 0.645)" fill="#ed5d5d"/>
      <path id="Trazado_781297" data-name="Trazado 781297" d="M41.51,19.045a1.653,1.653,0,0,0,1.521-.013,19.857,19.857,0,0,0,6.448-5.084,4.818,4.818,0,0,0-.458-6.518A5.177,5.177,0,0,0,42.408,7h0l-.139.1L42.1,6.977a5.215,5.215,0,0,0-6.6.44,4.843,4.843,0,0,0-.46,6.519,18.848,18.848,0,0,0,6.466,5.109ZM37.805,9.8a1.872,1.872,0,0,1,2.368-.165,12.608,12.608,0,0,1,.992.827,1.653,1.653,0,0,0,2.2.012c.319-.279.648-.551.992-.8a1.891,1.891,0,0,1,2.384.142A1.51,1.51,0,0,1,46.9,11.88a15.872,15.872,0,0,1-4.648,3.8,15.021,15.021,0,0,1-4.6-3.8,1.529,1.529,0,0,1,.147-2.08Z" transform="translate(16.985 3.92)"/>
      <path id="Trazado_781298" data-name="Trazado 781298" d="M27.508,13.045a1.653,1.653,0,0,0,1.521-.013,19.857,19.857,0,0,0,6.448-5.084,4.818,4.818,0,0,0-.458-6.518A5.177,5.177,0,0,0,28.406,1h0l-.139.1L28.1.977a5.215,5.215,0,0,0-6.6.44,4.843,4.843,0,0,0-.451,6.516,18.848,18.848,0,0,0,6.458,5.112ZM23.8,3.8a1.872,1.872,0,0,1,2.368-.157,12.607,12.607,0,0,1,.992.827,1.653,1.653,0,0,0,2.2.012c.319-.279.648-.551.992-.8a1.891,1.891,0,0,1,2.384.142A1.51,1.51,0,0,1,32.9,5.888a15.872,15.872,0,0,1-4.648,3.8,15.021,15.021,0,0,1-4.6-3.8A1.529,1.529,0,0,1,23.8,3.8Z" transform="translate(7.841 0)"/>
      <path id="Trazado_781299" data-name="Trazado 781299" d="M87.269,94.47l-11.2-32.006a4.96,4.96,0,0,1-.279-1.64V57.885a12.5,12.5,0,0,0-2.73-7.786l-3.884-4.851V35.494a21.494,21.494,0,0,0-42.988,0v9.755L22.3,50.1a12.471,12.471,0,0,0-2.73,7.782v2.938a4.958,4.958,0,0,1-.279,1.639L8.093,94.47a1.653,1.653,0,0,0,1.561,2.2H27.84a1.653,1.653,0,0,0,1.566-1.123L33.54,83.385A18.169,18.169,0,0,1,35.9,78.743l2.756-3.9a21.939,21.939,0,0,0,18.048,0l2.756,3.9a18.169,18.169,0,0,1,2.364,4.643l4.133,12.161a1.653,1.653,0,0,0,1.559,1.123H85.708a1.653,1.653,0,0,0,1.561-2.2ZM61.548,50.181l1.111,1.667a9.229,9.229,0,0,1,1.534,4.507,13.047,13.047,0,0,0-2.946,5.759,38.281,38.281,0,0,0-11.03-18.156,34.455,34.455,0,0,1,15.651-6.428v4.578a5.192,5.192,0,0,0-4.32,8.073ZM38.116,36.375a9.809,9.809,0,0,1,7.911-12.306v1.5a1.653,1.653,0,0,1-1.653,1.653,1.653,1.653,0,0,0,0,3.307,4.96,4.96,0,0,0,4.96-4.96v-1.5a9.816,9.816,0,0,1,7.915,12.3,37.793,37.793,0,0,0-9.618,5.408A38.014,38.014,0,0,0,38.116,36.375Zm9.565-19.068A18.2,18.2,0,0,1,65.8,34.2a37.9,37.9,0,0,0-5,1,13.382,13.382,0,0,0,.106-1.364,13.227,13.227,0,1,0-26.346,1.374,37.625,37.625,0,0,0-5-.992A18.2,18.2,0,0,1,47.681,17.307ZM33.2,76.828a21.459,21.459,0,0,0-2.8,5.488l-3.75,11.046H11.983L22.417,63.555a8.321,8.321,0,0,0,.463-2.731V57.885a9.209,9.209,0,0,1,.966-4.094,9.371,9.371,0,0,1,1.042-1.625l5.3-6.625a1.891,1.891,0,0,1,.876,2.811l-1.111,1.667a12.528,12.528,0,0,0-2.111,6.969,1.653,1.653,0,0,0,.484,1.169,9.7,9.7,0,0,1,2.823,6.814v3.489a1.653,1.653,0,0,0,.413,1.095,21.552,21.552,0,0,0,4.195,3.662Zm14.48-3.307a18.2,18.2,0,0,1-13.227-5.7V64.97a13.05,13.05,0,0,0-3.285-8.616A9.229,9.229,0,0,1,32.7,51.847l1.111-1.667a5.192,5.192,0,0,0-4.32-8.073V37.544A34.886,34.886,0,0,1,59.145,69.428,18.177,18.177,0,0,1,47.681,73.521Zm21.026,19.84-3.75-11.04a21.459,21.459,0,0,0-2.8-5.494l-2.554-3.619A21.552,21.552,0,0,0,63.8,69.553a1.653,1.653,0,0,0,.413-1.095V64.97a9.7,9.7,0,0,1,2.822-6.814,1.653,1.653,0,0,0,.484-1.169,12.528,12.528,0,0,0-2.111-6.976L64.3,48.345a1.891,1.891,0,0,1,.876-2.811l5.3,6.625a9.163,9.163,0,0,1,2.006,5.726v2.938a8.321,8.321,0,0,0,.463,2.731L83.379,93.362Z" transform="translate(0 9.144)"/>
    </g>
  </g>
</svg>
