<svg xmlns="http://www.w3.org/2000/svg" width="112.634" height="84.215" viewBox="0 0 112.634 84.215">
  <g id="Grupo_1063987" data-name="Grupo 1063987" transform="translate(-1263.333 -6407)">
    <g id="Grupo_1046989" data-name="Grupo 1046989" transform="translate(0 97)">
      <rect id="Rectángulo_355765" data-name="Rectángulo 355765" width="112.634" height="84.215" rx="7" transform="translate(1263.333 6310)" fill="#d2d8ff"/>
    </g>
    <g id="oido" transform="translate(1256.757 6408.745)">
      <path id="Trazado_781062" data-name="Trazado 781062" d="M199.776,27.595c-.54-2.014-1.192-4.45-1.98-7.412A17.1,17.1,0,0,0,176.847,8.087h0a21.241,21.241,0,0,0-15.672,22.263l.7,8.339v0l.439,5.245a32.687,32.687,0,0,0,5.92,16.2l3,4.23a13.357,13.357,0,0,0,14.409,5.174l.214-.06a13.7,13.7,0,0,0,9.893-13.2V53.214a1.372,1.372,0,0,1,.145-.614l1.694-3.388A30.6,30.6,0,0,0,199.776,27.595Z" transform="translate(-110.146 -0.001)" fill="#fff3de"/>
      <path id="Trazado_781063" data-name="Trazado 781063" d="M287.967,32.855c-.54-2.014-1.192-4.45-1.98-7.412a17.093,17.093,0,0,0-11.5-11.925,17.032,17.032,0,0,1,6.465,9.409c.788,2.962,1.439,5.4,1.98,7.412a30.6,30.6,0,0,1-2.186,21.617l-.511,1.022A12.578,12.578,0,0,0,278.91,58.6v.418a13.7,13.7,0,0,1-9.893,13.2l-.214.06a13.251,13.251,0,0,1-6.821.052A13.328,13.328,0,0,0,273.834,74.8l.214-.06a13.7,13.7,0,0,0,9.893-13.2V58.474a1.374,1.374,0,0,1,.145-.614l1.694-3.388A30.6,30.6,0,0,0,287.967,32.855Z" transform="translate(-198.337 -5.262)" fill="#ffe5c2"/>
      <path id="Trazado_781064" data-name="Trazado 781064" d="M295.239,138.365a9.46,9.46,0,0,1-2.1,3.938,19.871,19.871,0,0,0-2.584,3.654,13.013,13.013,0,0,0,8.743-3.54,13.446,13.446,0,0,0,3.8-12.269l-4.062.285Z" transform="translate(-223.313 -107.222)" fill="#fed2a4"/>
      <path id="Trazado_781065" data-name="Trazado 781065" d="M63.84,347.805l-8.386-2.247L50.1,365.549h8.988Z" transform="translate(-13.102 -295.539)" fill="#c4e2ff"/>
      <path id="Trazado_781066" data-name="Trazado 781066" d="M38.54,244.581a3.145,3.145,0,0,0-3.429,3.132v13.95a3.145,3.145,0,0,0,3.429,3.132l12.2-1.109,1.736-9-1.736-9Z" transform="translate(-0.001 -207.251)" fill="#eaf6ff"/>
      <path id="Trazado_781067" data-name="Trazado 781067" d="M50.977,250.311l-5.031-.457v10.194a6.289,6.289,0,0,1-5.72,6.263l-4.842.44a3.145,3.145,0,0,0,3.395,2.664l12.2-1.109,1.736-9Z" transform="translate(-0.24 -211.872)" fill="#d8ecfe"/>
      <path id="Trazado_781068" data-name="Trazado 781068" d="M276.92,308.452a20.25,20.25,0,0,1-5.686.22,19.6,19.6,0,0,0-.151,3.809,5.726,5.726,0,0,0,1.839,3.948,3.538,3.538,0,0,0,2.762.9l2.869-.3a3.117,3.117,0,0,1,2.742,1.137l1,1.235a3.022,3.022,0,0,0,4.544.172h0a3.022,3.022,0,0,0,.226-3.881l-1.821-2.443a7.747,7.747,0,0,1-.654-1.04Z" transform="translate(-206.265 -263.1)" fill="#ffe5c2"/>
      <path id="Trazado_781069" data-name="Trazado 781069" d="M394.261,365.435a13.828,13.828,0,0,1-.333,3.019,3.078,3.078,0,0,0,.335-.306h0a3.022,3.022,0,0,0,.226-3.881l-.188-.252q-.04.5-.04,1Z" transform="translate(-313.687 -311.675)" fill="#fed2a4"/>
      <path id="Trazado_781070" data-name="Trazado 781070" d="M324.234,296.568a7.662,7.662,0,0,1-.683-5.234.63.63,0,0,0-.916-.694,20.282,20.282,0,0,1-2.186,1.04,19.822,19.822,0,0,1-3.886,1.131,4.339,4.339,0,0,0,7.671,3.757Z" transform="translate(-245.907 -247.458)" fill="#fed2a4"/>
      <path id="Trazado_781071" data-name="Trazado 781071" d="M331.615,103.664h0a3.744,3.744,0,0,1,2.07-3.349l1.993-1a9.245,9.245,0,0,0-2.354-4.435l-1.124.375a5.968,5.968,0,0,0-4.079,5.662v4.26a9.437,9.437,0,0,1-.3,2.356l.957-.239A3.744,3.744,0,0,0,331.615,103.664Z" transform="translate(-255.896 -76.393)" fill="#ffe5c2"/>
      <path id="Trazado_781072" data-name="Trazado 781072" d="M188.795,278.488h-7.38a3.144,3.144,0,0,0-2.223.921L174.9,283.7l-1.736-6.946,1.736-6.946,4.288,4.288a3.144,3.144,0,0,0,2.223.921h7.38Z" transform="translate(-120.693 -229.315)" fill="#0681af"/>
      <path id="Trazado_781073" data-name="Trazado 781073" d="M162.834,253.806l-3.473-.316v18l3.473-.316Z" transform="translate(-108.623 -215.051)" fill="#b4d2e2"/>
      <path id="Trazado_781074" data-name="Trazado 781074" d="M50.738,245.69l-12.2-1.109a3.145,3.145,0,0,0-3.429,3.132v13.95a3.145,3.145,0,0,0,3.429,3.132l12.2-1.109" transform="translate(0 -207.251)" fill="none" stroke="#000" stroke-linecap="round" stroke-linejoin="round" stroke-miterlimit="10" stroke-width="1.5"/>
      <path id="Trazado_781075" data-name="Trazado 781075" d="M228.446,103.365,227.1,87.323a12.936,12.936,0,0,1,9.552-13.559,8.773,8.773,0,0,1,8.6,2.371" transform="translate(-167.808 -57.664)" fill="none" stroke="#000" stroke-linecap="round" stroke-linejoin="round" stroke-miterlimit="10" stroke-width="1.5"/>
      <path id="Trazado_781076" data-name="Trazado 781076" d="M355.8,259.94q-.473.513-.985,1a19.873,19.873,0,0,1-6.2,3.975" transform="translate(-274.071 -220.69)" fill="none" stroke="#000" stroke-linecap="round" stroke-linejoin="round" stroke-miterlimit="10" stroke-width="1.5"/>
      <line id="Línea_193" data-name="Línea 193" transform="translate(65.267 43.941)" fill="none" stroke="#000" stroke-linecap="round" stroke-linejoin="round" stroke-miterlimit="10" stroke-width="1.5"/>
      <path id="Trazado_781077" data-name="Trazado 781077" d="M272.536,121.94a19.871,19.871,0,0,1,4.85-10.468,9.452,9.452,0,0,0,2.4-6.294v-4.26a5.968,5.968,0,0,1,4.079-5.662l1.124-.375" transform="translate(-207.564 -76.392)" fill="none" stroke="#000" stroke-linecap="round" stroke-linejoin="round" stroke-miterlimit="10" stroke-width="1.5"/>
      <path id="Trazado_781078" data-name="Trazado 781078" d="M324.234,296.568a7.662,7.662,0,0,1-.683-5.234.63.63,0,0,0-.916-.694,20.282,20.282,0,0,1-2.186,1.04,19.822,19.822,0,0,1-3.886,1.131,4.339,4.339,0,0,0,7.671,3.757Z" transform="translate(-245.907 -247.458)" fill="none" stroke="#000" stroke-linecap="round" stroke-linejoin="round" stroke-miterlimit="10" stroke-width="1.5"/>
      <path id="Trazado_781079" data-name="Trazado 781079" d="M260.822,393.619l2.334,1.167a8.423,8.423,0,0,1,4.656,7.534h0" transform="translate(-197.323 -337.555)" fill="none" stroke="#000" stroke-linecap="round" stroke-linejoin="round" stroke-miterlimit="10" stroke-width="1.5"/>
      <path id="Trazado_781080" data-name="Trazado 781080" d="M331.615,103.664h0a3.744,3.744,0,0,1,2.07-3.349l1.993-1a9.245,9.245,0,0,0-2.354-4.435l-1.124.375a5.968,5.968,0,0,0-4.079,5.662v4.26a9.437,9.437,0,0,1-.3,2.356l.957-.239A3.744,3.744,0,0,0,331.615,103.664Z" transform="translate(-255.896 -76.393)" fill="none" stroke="#000" stroke-linecap="round" stroke-linejoin="round" stroke-miterlimit="10" stroke-width="1.5"/>
      <path id="Trazado_781081" data-name="Trazado 781081" d="M376.061,139.939a13.4,13.4,0,0,0,1.788-9.791" transform="translate(-298.068 -107.222)" fill="none" stroke="#000" stroke-linecap="round" stroke-linejoin="round" stroke-miterlimit="10" stroke-width="1.5"/>
      <path id="Trazado_781082" data-name="Trazado 781082" d="M295.239,195.477a9.46,9.46,0,0,1-2.1,3.938,19.87,19.87,0,0,0-2.584,3.654,13.012,13.012,0,0,0,7.781-2.719" transform="translate(-223.313 -164.335)" fill="none" stroke="#000" stroke-linecap="round" stroke-linejoin="round" stroke-miterlimit="10" stroke-width="1.5"/>
      <path id="Trazado_781083" data-name="Trazado 781083" d="M186.972,269.806l4.288,4.288a3.145,3.145,0,0,0,2.223.921h7.38v3.473h-7.38a3.144,3.144,0,0,0-2.223.921l-4.288,4.288" transform="translate(-132.761 -229.315)" fill="none" stroke="#000" stroke-linecap="round" stroke-linejoin="round" stroke-miterlimit="10" stroke-width="1.5"/>
      <path id="Trazado_781084" data-name="Trazado 781084" d="M159.361,268.281v3.2l3.473-.316V253.806l-3.473-.316v10.388" transform="translate(-108.623 -215.051)" fill="none" stroke="#000" stroke-linecap="round" stroke-linejoin="round" stroke-miterlimit="10" stroke-width="1.5"/>
      <path id="Trazado_781085" data-name="Trazado 781085" d="M165.4,73.461a21.206,21.206,0,0,0-4.224,14.554l.684,8.178" transform="translate(-110.146 -57.665)" fill="none" stroke="#000" stroke-linecap="round" stroke-linejoin="round" stroke-miterlimit="10" stroke-width="1.5"/>
      <path id="Trazado_781086" data-name="Trazado 781086" d="M186.972,52.894a32.684,32.684,0,0,0,3.875,7.24l3,4.23a13.357,13.357,0,0,0,14.409,5.174l.214-.06a13.7,13.7,0,0,0,9.893-13.2V53.213a1.373,1.373,0,0,1,.145-.614l1.694-3.388a30.6,30.6,0,0,0,2.186-21.617c-.54-2.014-1.192-4.45-1.98-7.412A17.1,17.1,0,0,0,199.463,8.086h0a21.18,21.18,0,0,0-8.384,4.438" transform="translate(-132.761 0)" fill="none" stroke="#000" stroke-linecap="round" stroke-linejoin="round" stroke-miterlimit="10" stroke-width="1.5"/>
      <path id="Trazado_781087" data-name="Trazado 781087" d="M53.482,398.231,50.1,410.865h8.988l3.61-13.471" transform="translate(-13.102 -340.854)" fill="none" stroke="#000" stroke-linecap="round" stroke-linejoin="round" stroke-miterlimit="10" stroke-width="1.5"/>
      <path id="Trazado_781088" data-name="Trazado 781088" d="M278.075,308.452a20.25,20.25,0,0,1-5.686.22q-.009.064-.017.129" transform="translate(-207.42 -263.1)" fill="none" stroke="#000" stroke-linecap="round" stroke-linejoin="round" stroke-miterlimit="10" stroke-width="1.5"/>
      <path id="Trazado_781089" data-name="Trazado 781089" d="M271.226,338.39q0,.1.011.207a5.726,5.726,0,0,0,1.839,3.948,3.538,3.538,0,0,0,2.762.9l2.869-.3a3.117,3.117,0,0,1,2.742,1.137l1,1.235a3.022,3.022,0,0,0,4.544.172h0a3.022,3.022,0,0,0,.226-3.881l-1.821-2.443a7.728,7.728,0,0,1-.654-1.04" transform="translate(-206.418 -289.217)" fill="none" stroke="#000" stroke-linecap="round" stroke-linejoin="round" stroke-miterlimit="10" stroke-width="1.5"/>
    </g>
  </g>
</svg>
