<svg xmlns="http://www.w3.org/2000/svg" xmlns:xlink="http://www.w3.org/1999/xlink" width="400" height="269" viewBox="0 0 400 269">
  <defs>
    <clipPath id="clip-path">
      <rect id="Rectángulo_356574" data-name="Rectángulo 356574" width="400" height="269" transform="translate(1020 413)" fill="#12263f" opacity="0.29"/>
    </clipPath>
    <clipPath id="clip-path-2">
      <rect id="Rectángulo_356575" data-name="Rectángulo 356575" width="138" height="219" transform="translate(1151 464)" fill="#12263f" opacity="0.29"/>
    </clipPath>
  </defs>
  <g id="Grupo_1064329" data-name="Grupo 1064329" transform="translate(-1020 -413)">
    <path id="Trazado_771060" data-name="Trazado 771060" d="M-7271-10916h127.9" transform="translate(8432.151 11595)" fill="none" stroke="#3449bc" stroke-linecap="round" stroke-width="5"/>
    <g id="Enmascarar_grupo_82" data-name="Enmascarar grupo 82" clip-path="url(#clip-path)">
      <g id="Grupo_1046448" data-name="Grupo 1046448" transform="translate(12)">
        <g id="Grupo_1044139" data-name="Grupo 1044139" transform="translate(-12 19)">
          <g id="Grupo_1044137" data-name="Grupo 1044137" transform="translate(1020 394)">
            <g id="Grupo_80138" data-name="Grupo 80138">
              <path id="Trazado_145968" data-name="Trazado 145968" d="M52.535,0A52.535,52.535,0,1,1,0,52.535,52.535,52.535,0,0,1,52.535,0Z" transform="translate(287 152.929)" fill="#3449bc" style="mix-blend-mode: multiply;isolation: isolate"/>
              <rect id="Rectángulo_34816" data-name="Rectángulo 34816" width="324" height="212.718" rx="8" transform="translate(33 20.618)" fill="#fffae3"/>
              <g id="Grupo_145969" data-name="Grupo 145969" transform="translate(14.352 0.325)" style="isolation: isolate">
                <path id="Trazado_145969" data-name="Trazado 145969" d="M35.9,0A35.9,35.9,0,1,1,0,35.9,35.9,35.9,0,0,1,35.9,0Z" transform="translate(0 0)" fill="#3449bc"/>
                <path id="Trazado_145969_-_Contorno" data-name="Trazado 145969 - Contorno" d="M35.9,0A35.9,35.9,0,1,1,0,35.9,35.9,35.9,0,0,1,35.9,0Z" transform="translate(0 0)" fill="#3449bc"/>
              </g>
              <rect id="Rectángulo_34812" data-name="Rectángulo 34812" width="400" height="258" fill="none"/>
              <g id="Grupo_78276" data-name="Grupo 78276" transform="translate(307 174.929)">
                <g id="Grupo_53306" data-name="Grupo 53306">
                  <path id="Trazado_99200" data-name="Trazado 99200" d="M415.641,50.906a.714.714,0,1,1-.714-.682A.7.7,0,0,1,415.641,50.906Z" transform="translate(-414.214 -50.224)" fill="#fff" stroke="#fff" stroke-width="1"/>
                  <path id="Trazado_99201" data-name="Trazado 99201" d="M424.087,50.906a.714.714,0,1,1-.713-.682A.7.7,0,0,1,424.087,50.906Z" transform="translate(-416.24 -50.224)" fill="#fff" stroke="#fff" stroke-width="1"/>
                  <path id="Trazado_99202" data-name="Trazado 99202" d="M432.533,50.906a.714.714,0,1,1-.713-.682A.7.7,0,0,1,432.533,50.906Z" transform="translate(-418.266 -50.224)" fill="#fff" stroke="#fff" stroke-width="1"/>
                  <path id="Trazado_99203" data-name="Trazado 99203" d="M440.98,50.906a.714.714,0,1,1-.714-.682A.7.7,0,0,1,440.98,50.906Z" transform="translate(-420.292 -50.224)" fill="#fff" stroke="#fff" stroke-width="1"/>
                  <path id="Trazado_99204" data-name="Trazado 99204" d="M449.426,50.906a.714.714,0,1,1-.713-.682A.7.7,0,0,1,449.426,50.906Z" transform="translate(-422.318 -50.224)" fill="#fff" stroke="#fff" stroke-width="1"/>
                  <path id="Trazado_99205" data-name="Trazado 99205" d="M457.872,50.906a.714.714,0,1,1-.713-.682A.7.7,0,0,1,457.872,50.906Z" transform="translate(-424.344 -50.224)" fill="#fff" stroke="#fff" stroke-width="1"/>
                  <path id="Trazado_99206" data-name="Trazado 99206" d="M466.319,50.906a.714.714,0,1,1-.714-.682A.7.7,0,0,1,466.319,50.906Z" transform="translate(-426.37 -50.224)" fill="#fff" stroke="#fff" stroke-width="1"/>
                  <path id="Trazado_99207" data-name="Trazado 99207" d="M474.765,50.906a.714.714,0,1,1-.713-.682A.7.7,0,0,1,474.765,50.906Z" transform="translate(-428.396 -50.224)" fill="#fff" stroke="#fff" stroke-width="1"/>
                  <path id="Trazado_99208" data-name="Trazado 99208" d="M483.211,50.906a.714.714,0,1,1-.713-.682A.7.7,0,0,1,483.211,50.906Z" transform="translate(-430.422 -50.224)" fill="#fff" stroke="#fff" stroke-width="1"/>
                  <path id="Trazado_99209" data-name="Trazado 99209" d="M491.658,50.906a.714.714,0,1,1-.714-.682A.7.7,0,0,1,491.658,50.906Z" transform="translate(-432.448 -50.224)" fill="#fff" stroke="#fff" stroke-width="1"/>
                  <path id="Trazado_99210" data-name="Trazado 99210" d="M500.1,50.906a.714.714,0,1,1-.714-.682A.7.7,0,0,1,500.1,50.906Z" transform="translate(-434.475 -50.224)" fill="#fff" stroke="#fff" stroke-width="1"/>
                </g>
                <g id="Grupo_53307" data-name="Grupo 53307" transform="translate(0 5.458)">
                  <path id="Trazado_99211" data-name="Trazado 99211" d="M415.641,58.414a.714.714,0,1,1-.714-.682A.7.7,0,0,1,415.641,58.414Z" transform="translate(-414.214 -57.732)" fill="#fff" stroke="#fff" stroke-width="1"/>
                  <path id="Trazado_99212" data-name="Trazado 99212" d="M424.087,58.414a.714.714,0,1,1-.713-.682A.7.7,0,0,1,424.087,58.414Z" transform="translate(-416.24 -57.732)" fill="#fff" stroke="#fff" stroke-width="1"/>
                  <path id="Trazado_99213" data-name="Trazado 99213" d="M432.533,58.414a.714.714,0,1,1-.713-.682A.7.7,0,0,1,432.533,58.414Z" transform="translate(-418.266 -57.732)" fill="#fff" stroke="#fff" stroke-width="1"/>
                  <path id="Trazado_99214" data-name="Trazado 99214" d="M440.98,58.414a.714.714,0,1,1-.714-.682A.7.7,0,0,1,440.98,58.414Z" transform="translate(-420.292 -57.732)" fill="#fff" stroke="#fff" stroke-width="1"/>
                  <path id="Trazado_99215" data-name="Trazado 99215" d="M449.426,58.414a.714.714,0,1,1-.713-.682A.7.7,0,0,1,449.426,58.414Z" transform="translate(-422.318 -57.732)" fill="#fff" stroke="#fff" stroke-width="1"/>
                  <path id="Trazado_99216" data-name="Trazado 99216" d="M457.872,58.414a.714.714,0,1,1-.713-.682A.7.7,0,0,1,457.872,58.414Z" transform="translate(-424.344 -57.732)" fill="#fff" stroke="#fff" stroke-width="1"/>
                  <path id="Trazado_99217" data-name="Trazado 99217" d="M466.319,58.414a.714.714,0,1,1-.714-.682A.7.7,0,0,1,466.319,58.414Z" transform="translate(-426.37 -57.732)" fill="#fff" stroke="#fff" stroke-width="1"/>
                  <path id="Trazado_99218" data-name="Trazado 99218" d="M474.765,58.414a.714.714,0,1,1-.713-.682A.7.7,0,0,1,474.765,58.414Z" transform="translate(-428.396 -57.732)" fill="#fff" stroke="#fff" stroke-width="1"/>
                  <path id="Trazado_99219" data-name="Trazado 99219" d="M483.211,58.414a.714.714,0,1,1-.713-.682A.7.7,0,0,1,483.211,58.414Z" transform="translate(-430.422 -57.732)" fill="#fff" stroke="#fff" stroke-width="1"/>
                  <path id="Trazado_99220" data-name="Trazado 99220" d="M491.658,58.414a.714.714,0,1,1-.714-.682A.7.7,0,0,1,491.658,58.414Z" transform="translate(-432.448 -57.732)" fill="#fff" stroke="#fff" stroke-width="1"/>
                  <path id="Trazado_99221" data-name="Trazado 99221" d="M500.1,58.414a.714.714,0,1,1-.714-.682A.7.7,0,0,1,500.1,58.414Z" transform="translate(-434.475 -57.732)" fill="#fff" stroke="#fff" stroke-width="1"/>
                </g>
                <g id="Grupo_53308" data-name="Grupo 53308" transform="translate(0 10.915)">
                  <ellipse id="Elipse_3955" data-name="Elipse 3955" cx="0.713" cy="0.682" rx="0.713" ry="0.682" fill="#fff" stroke="#fff" stroke-width="1"/>
                  <path id="Trazado_99222" data-name="Trazado 99222" d="M424.087,65.922a.714.714,0,1,1-.713-.682A.7.7,0,0,1,424.087,65.922Z" transform="translate(-416.24 -65.24)" fill="#fff" stroke="#fff" stroke-width="1"/>
                  <ellipse id="Elipse_3956" data-name="Elipse 3956" cx="0.713" cy="0.682" rx="0.713" ry="0.682" transform="translate(12.84)" fill="#fff" stroke="#fff" stroke-width="1"/>
                  <path id="Trazado_99223" data-name="Trazado 99223" d="M440.98,65.922a.714.714,0,1,1-.714-.682A.7.7,0,0,1,440.98,65.922Z" transform="translate(-420.292 -65.24)" fill="#fff" stroke="#fff" stroke-width="1"/>
                  <path id="Trazado_99224" data-name="Trazado 99224" d="M449.426,65.922a.714.714,0,1,1-.713-.682A.7.7,0,0,1,449.426,65.922Z" transform="translate(-422.318 -65.24)" fill="#fff" stroke="#fff" stroke-width="1"/>
                  <ellipse id="Elipse_3957" data-name="Elipse 3957" cx="0.713" cy="0.682" rx="0.713" ry="0.682" transform="translate(32.101)" fill="#fff" stroke="#fff" stroke-width="1"/>
                  <path id="Trazado_99225" data-name="Trazado 99225" d="M466.319,65.922a.714.714,0,1,1-.714-.682A.7.7,0,0,1,466.319,65.922Z" transform="translate(-426.37 -65.24)" fill="#fff" stroke="#fff" stroke-width="1"/>
                  <ellipse id="Elipse_3958" data-name="Elipse 3958" cx="0.713" cy="0.682" rx="0.713" ry="0.682" transform="translate(44.942)" fill="#fff" stroke="#fff" stroke-width="1"/>
                  <ellipse id="Elipse_3959" data-name="Elipse 3959" cx="0.713" cy="0.682" rx="0.713" ry="0.682" transform="translate(51.362)" fill="#fff" stroke="#fff" stroke-width="1"/>
                  <path id="Trazado_99226" data-name="Trazado 99226" d="M491.658,65.922a.714.714,0,1,1-.714-.682A.7.7,0,0,1,491.658,65.922Z" transform="translate(-432.448 -65.24)" fill="#fff" stroke="#fff" stroke-width="1"/>
                  <path id="Trazado_99227" data-name="Trazado 99227" d="M500.1,65.922a.714.714,0,1,1-.714-.682A.7.7,0,0,1,500.1,65.922Z" transform="translate(-434.474 -65.24)" fill="#fff" stroke="#fff" stroke-width="1"/>
                </g>
                <g id="Grupo_53309" data-name="Grupo 53309" transform="translate(0 16.373)">
                  <ellipse id="Elipse_3960" data-name="Elipse 3960" cx="0.713" cy="0.682" rx="0.713" ry="0.682" transform="translate(0 0)" fill="#fff" stroke="#fff" stroke-width="1"/>
                  <path id="Trazado_99228" data-name="Trazado 99228" d="M424.087,73.43a.714.714,0,1,1-.713-.683A.7.7,0,0,1,424.087,73.43Z" transform="translate(-416.24 -72.747)" fill="#fff" stroke="#fff" stroke-width="1"/>
                  <ellipse id="Elipse_3961" data-name="Elipse 3961" cx="0.713" cy="0.682" rx="0.713" ry="0.682" transform="translate(12.84 0)" fill="#fff" stroke="#fff" stroke-width="1"/>
                  <path id="Trazado_99229" data-name="Trazado 99229" d="M440.98,73.43a.714.714,0,1,1-.714-.683A.7.7,0,0,1,440.98,73.43Z" transform="translate(-420.292 -72.747)" fill="#fff" stroke="#fff" stroke-width="1"/>
                  <path id="Trazado_99230" data-name="Trazado 99230" d="M449.426,73.43a.714.714,0,1,1-.713-.683A.7.7,0,0,1,449.426,73.43Z" transform="translate(-422.318 -72.747)" fill="#fff" stroke="#fff" stroke-width="1"/>
                  <ellipse id="Elipse_3962" data-name="Elipse 3962" cx="0.713" cy="0.682" rx="0.713" ry="0.682" transform="translate(32.101 0)" fill="#fff" stroke="#fff" stroke-width="1"/>
                  <path id="Trazado_99231" data-name="Trazado 99231" d="M466.319,73.43a.714.714,0,1,1-.714-.683A.7.7,0,0,1,466.319,73.43Z" transform="translate(-426.37 -72.747)" fill="#fff" stroke="#fff" stroke-width="1"/>
                  <ellipse id="Elipse_3963" data-name="Elipse 3963" cx="0.713" cy="0.682" rx="0.713" ry="0.682" transform="translate(44.942 0)" fill="#fff" stroke="#fff" stroke-width="1"/>
                  <ellipse id="Elipse_3964" data-name="Elipse 3964" cx="0.713" cy="0.682" rx="0.713" ry="0.682" transform="translate(51.362 0)" fill="#fff" stroke="#fff" stroke-width="1"/>
                  <path id="Trazado_99232" data-name="Trazado 99232" d="M491.658,73.43a.714.714,0,1,1-.714-.683A.7.7,0,0,1,491.658,73.43Z" transform="translate(-432.448 -72.747)" fill="#fff" stroke="#fff" stroke-width="1"/>
                  <path id="Trazado_99233" data-name="Trazado 99233" d="M500.1,73.43a.714.714,0,1,1-.714-.683A.7.7,0,0,1,500.1,73.43Z" transform="translate(-434.474 -72.747)" fill="#fff" stroke="#fff" stroke-width="1"/>
                </g>
                <g id="Grupo_53310" data-name="Grupo 53310" transform="translate(0 21.83)">
                  <path id="Trazado_99234" data-name="Trazado 99234" d="M415.641,80.938a.714.714,0,1,1-.714-.683A.7.7,0,0,1,415.641,80.938Z" transform="translate(-414.214 -80.255)" fill="#fff" stroke="#fff" stroke-width="1"/>
                  <path id="Trazado_99235" data-name="Trazado 99235" d="M424.087,80.938a.714.714,0,1,1-.713-.683A.7.7,0,0,1,424.087,80.938Z" transform="translate(-416.24 -80.255)" fill="#fff" stroke="#fff" stroke-width="1"/>
                  <path id="Trazado_99236" data-name="Trazado 99236" d="M432.533,80.938a.714.714,0,1,1-.713-.683A.7.7,0,0,1,432.533,80.938Z" transform="translate(-418.266 -80.255)" fill="#fff" stroke="#fff" stroke-width="1"/>
                  <path id="Trazado_99237" data-name="Trazado 99237" d="M440.98,80.938a.714.714,0,1,1-.714-.683A.7.7,0,0,1,440.98,80.938Z" transform="translate(-420.292 -80.255)" fill="#fff" stroke="#fff" stroke-width="1"/>
                  <path id="Trazado_99238" data-name="Trazado 99238" d="M449.426,80.938a.714.714,0,1,1-.713-.683A.7.7,0,0,1,449.426,80.938Z" transform="translate(-422.318 -80.255)" fill="#fff" stroke="#fff" stroke-width="1"/>
                  <path id="Trazado_99239" data-name="Trazado 99239" d="M457.872,80.938a.714.714,0,1,1-.713-.683A.7.7,0,0,1,457.872,80.938Z" transform="translate(-424.344 -80.255)" fill="#fff" stroke="#fff" stroke-width="1"/>
                  <path id="Trazado_99240" data-name="Trazado 99240" d="M466.319,80.938a.714.714,0,1,1-.714-.683A.7.7,0,0,1,466.319,80.938Z" transform="translate(-426.37 -80.255)" fill="#fff" stroke="#fff" stroke-width="1"/>
                  <path id="Trazado_99241" data-name="Trazado 99241" d="M474.765,80.938a.714.714,0,1,1-.713-.683A.7.7,0,0,1,474.765,80.938Z" transform="translate(-428.396 -80.255)" fill="#fff" stroke="#fff" stroke-width="1"/>
                  <path id="Trazado_99242" data-name="Trazado 99242" d="M483.211,80.938a.714.714,0,1,1-.713-.683A.7.7,0,0,1,483.211,80.938Z" transform="translate(-430.422 -80.255)" fill="#fff" stroke="#fff" stroke-width="1"/>
                  <path id="Trazado_99243" data-name="Trazado 99243" d="M491.658,80.938a.714.714,0,1,1-.714-.683A.7.7,0,0,1,491.658,80.938Z" transform="translate(-432.448 -80.255)" fill="#fff" stroke="#fff" stroke-width="1"/>
                  <path id="Trazado_99244" data-name="Trazado 99244" d="M500.1,80.938a.714.714,0,1,1-.714-.683A.7.7,0,0,1,500.1,80.938Z" transform="translate(-434.475 -80.255)" fill="#fff" stroke="#fff" stroke-width="1"/>
                </g>
                <g id="Grupo_53311" data-name="Grupo 53311" transform="translate(0 27.288)">
                  <ellipse id="Elipse_3965" data-name="Elipse 3965" cx="0.713" cy="0.682" rx="0.713" ry="0.682" transform="translate(0 0)" fill="#fff" stroke="#fff" stroke-width="1"/>
                  <path id="Trazado_99245" data-name="Trazado 99245" d="M424.087,88.446a.714.714,0,1,1-.713-.683A.7.7,0,0,1,424.087,88.446Z" transform="translate(-416.24 -87.763)" fill="#fff" stroke="#fff" stroke-width="1"/>
                  <ellipse id="Elipse_3966" data-name="Elipse 3966" cx="0.713" cy="0.682" rx="0.713" ry="0.682" transform="translate(12.84 0)" fill="#fff" stroke="#fff" stroke-width="1"/>
                  <path id="Trazado_99246" data-name="Trazado 99246" d="M440.98,88.446a.714.714,0,1,1-.714-.683A.7.7,0,0,1,440.98,88.446Z" transform="translate(-420.292 -87.763)" fill="#fff" stroke="#fff" stroke-width="1"/>
                  <path id="Trazado_99247" data-name="Trazado 99247" d="M449.426,88.446a.714.714,0,1,1-.713-.683A.7.7,0,0,1,449.426,88.446Z" transform="translate(-422.318 -87.763)" fill="#fff" stroke="#fff" stroke-width="1"/>
                  <ellipse id="Elipse_3967" data-name="Elipse 3967" cx="0.713" cy="0.682" rx="0.713" ry="0.682" transform="translate(32.101 0)" fill="#fff" stroke="#fff" stroke-width="1"/>
                  <path id="Trazado_99248" data-name="Trazado 99248" d="M466.319,88.446a.714.714,0,1,1-.714-.683A.7.7,0,0,1,466.319,88.446Z" transform="translate(-426.37 -87.763)" fill="#fff" stroke="#fff" stroke-width="1"/>
                  <ellipse id="Elipse_3968" data-name="Elipse 3968" cx="0.713" cy="0.682" rx="0.713" ry="0.682" transform="translate(44.942 0)" fill="#fff" stroke="#fff" stroke-width="1"/>
                  <ellipse id="Elipse_3969" data-name="Elipse 3969" cx="0.713" cy="0.682" rx="0.713" ry="0.682" transform="translate(51.362 0)" fill="#fff" stroke="#fff" stroke-width="1"/>
                  <path id="Trazado_99249" data-name="Trazado 99249" d="M491.658,88.446a.714.714,0,1,1-.714-.683A.7.7,0,0,1,491.658,88.446Z" transform="translate(-432.448 -87.763)" fill="#fff" stroke="#fff" stroke-width="1"/>
                  <path id="Trazado_99250" data-name="Trazado 99250" d="M500.1,88.446a.714.714,0,1,1-.714-.683A.7.7,0,0,1,500.1,88.446Z" transform="translate(-434.474 -87.763)" fill="#fff" stroke="#fff" stroke-width="1"/>
                </g>
                <g id="Grupo_53312" data-name="Grupo 53312" transform="translate(0 32.746)">
                  <ellipse id="Elipse_3970" data-name="Elipse 3970" cx="0.713" cy="0.682" rx="0.713" ry="0.682" fill="#fff" stroke="#fff" stroke-width="1"/>
                  <path id="Trazado_99251" data-name="Trazado 99251" d="M424.087,95.953a.714.714,0,1,1-.713-.682A.7.7,0,0,1,424.087,95.953Z" transform="translate(-416.24 -95.271)" fill="#fff" stroke="#fff" stroke-width="1"/>
                  <ellipse id="Elipse_3971" data-name="Elipse 3971" cx="0.713" cy="0.682" rx="0.713" ry="0.682" transform="translate(12.84)" fill="#fff" stroke="#fff" stroke-width="1"/>
                  <path id="Trazado_99252" data-name="Trazado 99252" d="M440.98,95.953a.714.714,0,1,1-.714-.682A.7.7,0,0,1,440.98,95.953Z" transform="translate(-420.292 -95.271)" fill="#fff" stroke="#fff" stroke-width="1"/>
                  <path id="Trazado_99253" data-name="Trazado 99253" d="M449.426,95.953a.714.714,0,1,1-.713-.682A.7.7,0,0,1,449.426,95.953Z" transform="translate(-422.318 -95.271)" fill="#fff" stroke="#fff" stroke-width="1"/>
                  <ellipse id="Elipse_3972" data-name="Elipse 3972" cx="0.713" cy="0.682" rx="0.713" ry="0.682" transform="translate(32.101)" fill="#fff" stroke="#fff" stroke-width="1"/>
                  <path id="Trazado_99254" data-name="Trazado 99254" d="M466.319,95.953a.714.714,0,1,1-.714-.682A.7.7,0,0,1,466.319,95.953Z" transform="translate(-426.37 -95.271)" fill="#fff" stroke="#fff" stroke-width="1"/>
                  <ellipse id="Elipse_3973" data-name="Elipse 3973" cx="0.713" cy="0.682" rx="0.713" ry="0.682" transform="translate(44.942)" fill="#fff" stroke="#fff" stroke-width="1"/>
                  <ellipse id="Elipse_3974" data-name="Elipse 3974" cx="0.713" cy="0.682" rx="0.713" ry="0.682" transform="translate(51.362)" fill="#fff" stroke="#fff" stroke-width="1"/>
                  <path id="Trazado_99255" data-name="Trazado 99255" d="M491.658,95.953a.714.714,0,1,1-.714-.682A.7.7,0,0,1,491.658,95.953Z" transform="translate(-432.448 -95.271)" fill="#fff" stroke="#fff" stroke-width="1"/>
                  <path id="Trazado_99256" data-name="Trazado 99256" d="M500.1,95.953a.714.714,0,1,1-.714-.682A.7.7,0,0,1,500.1,95.953Z" transform="translate(-434.474 -95.271)" fill="#fff" stroke="#fff" stroke-width="1"/>
                </g>
                <g id="Grupo_53313" data-name="Grupo 53313" transform="translate(0 38.203)">
                  <path id="Trazado_99257" data-name="Trazado 99257" d="M415.641,103.461a.714.714,0,1,1-.714-.682A.7.7,0,0,1,415.641,103.461Z" transform="translate(-414.214 -102.779)" fill="#fff" stroke="#fff" stroke-width="1"/>
                  <path id="Trazado_99258" data-name="Trazado 99258" d="M424.087,103.461a.714.714,0,1,1-.713-.682A.7.7,0,0,1,424.087,103.461Z" transform="translate(-416.24 -102.779)" fill="#fff" stroke="#fff" stroke-width="1"/>
                  <path id="Trazado_99259" data-name="Trazado 99259" d="M432.533,103.461a.714.714,0,1,1-.713-.682A.7.7,0,0,1,432.533,103.461Z" transform="translate(-418.266 -102.779)" fill="#fff" stroke="#fff" stroke-width="1"/>
                  <path id="Trazado_99260" data-name="Trazado 99260" d="M440.98,103.461a.714.714,0,1,1-.714-.682A.7.7,0,0,1,440.98,103.461Z" transform="translate(-420.292 -102.779)" fill="#fff" stroke="#fff" stroke-width="1"/>
                  <path id="Trazado_99261" data-name="Trazado 99261" d="M449.426,103.461a.714.714,0,1,1-.713-.682A.7.7,0,0,1,449.426,103.461Z" transform="translate(-422.318 -102.779)" fill="#fff" stroke="#fff" stroke-width="1"/>
                  <path id="Trazado_99262" data-name="Trazado 99262" d="M457.872,103.461a.714.714,0,1,1-.713-.682A.7.7,0,0,1,457.872,103.461Z" transform="translate(-424.344 -102.779)" fill="#fff" stroke="#fff" stroke-width="1"/>
                  <path id="Trazado_99263" data-name="Trazado 99263" d="M466.319,103.461a.714.714,0,1,1-.714-.682A.7.7,0,0,1,466.319,103.461Z" transform="translate(-426.37 -102.779)" fill="#fff" stroke="#fff" stroke-width="1"/>
                  <path id="Trazado_99264" data-name="Trazado 99264" d="M474.765,103.461a.714.714,0,1,1-.713-.682A.7.7,0,0,1,474.765,103.461Z" transform="translate(-428.396 -102.779)" fill="#fff" stroke="#fff" stroke-width="1"/>
                  <path id="Trazado_99265" data-name="Trazado 99265" d="M483.211,103.461a.714.714,0,1,1-.713-.682A.7.7,0,0,1,483.211,103.461Z" transform="translate(-430.422 -102.779)" fill="#fff" stroke="#fff" stroke-width="1"/>
                  <path id="Trazado_99266" data-name="Trazado 99266" d="M491.658,103.461a.714.714,0,1,1-.714-.682A.7.7,0,0,1,491.658,103.461Z" transform="translate(-432.448 -102.779)" fill="#fff" stroke="#fff" stroke-width="1"/>
                  <path id="Trazado_99267" data-name="Trazado 99267" d="M500.1,103.461a.714.714,0,1,1-.714-.682A.7.7,0,0,1,500.1,103.461Z" transform="translate(-434.475 -102.779)" fill="#fff" stroke="#fff" stroke-width="1"/>
                </g>
                <g id="Grupo_53314" data-name="Grupo 53314" transform="translate(0 43.661)">
                  <ellipse id="Elipse_3975" data-name="Elipse 3975" cx="0.713" cy="0.682" rx="0.713" ry="0.682" fill="#fff" stroke="#fff" stroke-width="1"/>
                  <path id="Trazado_99268" data-name="Trazado 99268" d="M424.087,110.969a.714.714,0,1,1-.713-.682A.7.7,0,0,1,424.087,110.969Z" transform="translate(-416.24 -110.287)" fill="#fff" stroke="#fff" stroke-width="1"/>
                  <ellipse id="Elipse_3976" data-name="Elipse 3976" cx="0.713" cy="0.682" rx="0.713" ry="0.682" transform="translate(12.84)" fill="#fff" stroke="#fff" stroke-width="1"/>
                  <path id="Trazado_99269" data-name="Trazado 99269" d="M440.98,110.969a.714.714,0,1,1-.714-.682A.7.7,0,0,1,440.98,110.969Z" transform="translate(-420.292 -110.287)" fill="#fff" stroke="#fff" stroke-width="1"/>
                  <path id="Trazado_99270" data-name="Trazado 99270" d="M449.426,110.969a.714.714,0,1,1-.713-.682A.7.7,0,0,1,449.426,110.969Z" transform="translate(-422.318 -110.287)" fill="#fff" stroke="#fff" stroke-width="1"/>
                  <ellipse id="Elipse_3977" data-name="Elipse 3977" cx="0.713" cy="0.682" rx="0.713" ry="0.682" transform="translate(32.101)" fill="#fff" stroke="#fff" stroke-width="1"/>
                  <path id="Trazado_99271" data-name="Trazado 99271" d="M466.319,110.969a.714.714,0,1,1-.714-.682A.7.7,0,0,1,466.319,110.969Z" transform="translate(-426.37 -110.287)" fill="#fff" stroke="#fff" stroke-width="1"/>
                  <ellipse id="Elipse_3978" data-name="Elipse 3978" cx="0.713" cy="0.682" rx="0.713" ry="0.682" transform="translate(44.942)" fill="#fff" stroke="#fff" stroke-width="1"/>
                  <ellipse id="Elipse_3979" data-name="Elipse 3979" cx="0.713" cy="0.682" rx="0.713" ry="0.682" transform="translate(51.362)" fill="#fff" stroke="#fff" stroke-width="1"/>
                  <path id="Trazado_99272" data-name="Trazado 99272" d="M491.658,110.969a.714.714,0,1,1-.714-.682A.7.7,0,0,1,491.658,110.969Z" transform="translate(-432.448 -110.287)" fill="#fff" stroke="#fff" stroke-width="1"/>
                  <path id="Trazado_99273" data-name="Trazado 99273" d="M500.1,110.969a.714.714,0,1,1-.714-.682A.7.7,0,0,1,500.1,110.969Z" transform="translate(-434.474 -110.287)" fill="#fff" stroke="#fff" stroke-width="1"/>
                </g>
                <g id="Grupo_53315" data-name="Grupo 53315" transform="translate(0 49.118)">
                  <path id="Trazado_99274" data-name="Trazado 99274" d="M415.641,118.477a.714.714,0,1,1-.714-.683A.7.7,0,0,1,415.641,118.477Z" transform="translate(-414.214 -117.794)" fill="#fff" stroke="#fff" stroke-width="1"/>
                  <path id="Trazado_99275" data-name="Trazado 99275" d="M424.087,118.477a.714.714,0,1,1-.713-.683A.7.7,0,0,1,424.087,118.477Z" transform="translate(-416.24 -117.794)" fill="#fff" stroke="#fff" stroke-width="1"/>
                  <path id="Trazado_99276" data-name="Trazado 99276" d="M432.533,118.477a.714.714,0,1,1-.713-.683A.7.7,0,0,1,432.533,118.477Z" transform="translate(-418.266 -117.794)" fill="#fff" stroke="#fff" stroke-width="1"/>
                  <path id="Trazado_99277" data-name="Trazado 99277" d="M440.98,118.477a.714.714,0,1,1-.714-.683A.7.7,0,0,1,440.98,118.477Z" transform="translate(-420.292 -117.794)" fill="#fff" stroke="#fff" stroke-width="1"/>
                  <path id="Trazado_99278" data-name="Trazado 99278" d="M449.426,118.477a.714.714,0,1,1-.713-.683A.7.7,0,0,1,449.426,118.477Z" transform="translate(-422.318 -117.794)" fill="#fff" stroke="#fff" stroke-width="1"/>
                  <path id="Trazado_99279" data-name="Trazado 99279" d="M457.872,118.477a.714.714,0,1,1-.713-.683A.7.7,0,0,1,457.872,118.477Z" transform="translate(-424.344 -117.794)" fill="#fff" stroke="#fff" stroke-width="1"/>
                  <path id="Trazado_99280" data-name="Trazado 99280" d="M466.319,118.477a.714.714,0,1,1-.714-.683A.7.7,0,0,1,466.319,118.477Z" transform="translate(-426.37 -117.794)" fill="#fff" stroke="#fff" stroke-width="1"/>
                  <path id="Trazado_99281" data-name="Trazado 99281" d="M474.765,118.477a.714.714,0,1,1-.713-.683A.7.7,0,0,1,474.765,118.477Z" transform="translate(-428.396 -117.794)" fill="#fff" stroke="#fff" stroke-width="1"/>
                  <path id="Trazado_99282" data-name="Trazado 99282" d="M483.211,118.477a.714.714,0,1,1-.713-.683A.7.7,0,0,1,483.211,118.477Z" transform="translate(-430.422 -117.794)" fill="#fff" stroke="#fff" stroke-width="1"/>
                  <path id="Trazado_99283" data-name="Trazado 99283" d="M491.658,118.477a.714.714,0,1,1-.714-.683A.7.7,0,0,1,491.658,118.477Z" transform="translate(-432.448 -117.794)" fill="#fff" stroke="#fff" stroke-width="1"/>
                  <path id="Trazado_99284" data-name="Trazado 99284" d="M500.1,118.477a.714.714,0,1,1-.714-.683A.7.7,0,0,1,500.1,118.477Z" transform="translate(-434.475 -117.794)" fill="#fff" stroke="#fff" stroke-width="1"/>
                </g>
                <g id="Grupo_53316" data-name="Grupo 53316" transform="translate(0 54.576)">
                  <ellipse id="Elipse_3980" data-name="Elipse 3980" cx="0.713" cy="0.682" rx="0.713" ry="0.682" transform="translate(0 0)" fill="#fff" stroke="#fff" stroke-width="1"/>
                  <path id="Trazado_99285" data-name="Trazado 99285" d="M424.087,125.985a.714.714,0,1,1-.713-.683A.7.7,0,0,1,424.087,125.985Z" transform="translate(-416.24 -125.302)" fill="#fff" stroke="#fff" stroke-width="1"/>
                  <ellipse id="Elipse_3981" data-name="Elipse 3981" cx="0.713" cy="0.682" rx="0.713" ry="0.682" transform="translate(12.84 0)" fill="#fff" stroke="#fff" stroke-width="1"/>
                  <path id="Trazado_99286" data-name="Trazado 99286" d="M440.98,125.985a.714.714,0,1,1-.714-.683A.7.7,0,0,1,440.98,125.985Z" transform="translate(-420.292 -125.302)" fill="#fff" stroke="#fff" stroke-width="1"/>
                  <path id="Trazado_99287" data-name="Trazado 99287" d="M449.426,125.985a.714.714,0,1,1-.713-.683A.7.7,0,0,1,449.426,125.985Z" transform="translate(-422.318 -125.302)" fill="#fff" stroke="#fff" stroke-width="1"/>
                  <ellipse id="Elipse_3982" data-name="Elipse 3982" cx="0.713" cy="0.682" rx="0.713" ry="0.682" transform="translate(32.101 0)" fill="#fff" stroke="#fff" stroke-width="1"/>
                  <path id="Trazado_99288" data-name="Trazado 99288" d="M466.319,125.985a.714.714,0,1,1-.714-.683A.7.7,0,0,1,466.319,125.985Z" transform="translate(-426.37 -125.302)" fill="#fff" stroke="#fff" stroke-width="1"/>
                  <ellipse id="Elipse_3983" data-name="Elipse 3983" cx="0.713" cy="0.682" rx="0.713" ry="0.682" transform="translate(44.942 0)" fill="#fff" stroke="#fff" stroke-width="1"/>
                  <ellipse id="Elipse_3984" data-name="Elipse 3984" cx="0.713" cy="0.682" rx="0.713" ry="0.682" transform="translate(51.362 0)" fill="#fff" stroke="#fff" stroke-width="1"/>
                  <path id="Trazado_99289" data-name="Trazado 99289" d="M491.658,125.985a.714.714,0,1,1-.714-.683A.7.7,0,0,1,491.658,125.985Z" transform="translate(-432.448 -125.302)" fill="#fff" stroke="#fff" stroke-width="1"/>
                  <path id="Trazado_99290" data-name="Trazado 99290" d="M500.1,125.985a.714.714,0,1,1-.714-.683A.7.7,0,0,1,500.1,125.985Z" transform="translate(-434.474 -125.302)" fill="#fff" stroke="#fff" stroke-width="1"/>
                </g>
                <g id="Grupo_53317" data-name="Grupo 53317" transform="translate(0 60.034)">
                  <ellipse id="Elipse_3985" data-name="Elipse 3985" cx="0.713" cy="0.682" rx="0.713" ry="0.682" transform="translate(0 0)" fill="#fff" stroke="#fff" stroke-width="1"/>
                  <path id="Trazado_99291" data-name="Trazado 99291" d="M424.087,133.493a.714.714,0,1,1-.713-.683A.7.7,0,0,1,424.087,133.493Z" transform="translate(-416.24 -132.81)" fill="#fff" stroke="#fff" stroke-width="1"/>
                  <ellipse id="Elipse_3986" data-name="Elipse 3986" cx="0.713" cy="0.682" rx="0.713" ry="0.682" transform="translate(12.84 0)" fill="#fff" stroke="#fff" stroke-width="1"/>
                  <path id="Trazado_99292" data-name="Trazado 99292" d="M440.98,133.493a.714.714,0,1,1-.714-.683A.7.7,0,0,1,440.98,133.493Z" transform="translate(-420.292 -132.81)" fill="#fff" stroke="#fff" stroke-width="1"/>
                  <path id="Trazado_99293" data-name="Trazado 99293" d="M449.426,133.493a.714.714,0,1,1-.713-.683A.7.7,0,0,1,449.426,133.493Z" transform="translate(-422.318 -132.81)" fill="#fff" stroke="#fff" stroke-width="1"/>
                  <ellipse id="Elipse_3987" data-name="Elipse 3987" cx="0.713" cy="0.682" rx="0.713" ry="0.682" transform="translate(32.101 0)" fill="#fff" stroke="#fff" stroke-width="1"/>
                  <path id="Trazado_99294" data-name="Trazado 99294" d="M466.319,133.493a.714.714,0,1,1-.714-.683A.7.7,0,0,1,466.319,133.493Z" transform="translate(-426.37 -132.81)" fill="#fff" stroke="#fff" stroke-width="1"/>
                  <ellipse id="Elipse_3988" data-name="Elipse 3988" cx="0.713" cy="0.682" rx="0.713" ry="0.682" transform="translate(44.942 0)" fill="#fff" stroke="#fff" stroke-width="1"/>
                  <ellipse id="Elipse_3989" data-name="Elipse 3989" cx="0.713" cy="0.682" rx="0.713" ry="0.682" transform="translate(51.362 0)" fill="#fff" stroke="#fff" stroke-width="1"/>
                  <path id="Trazado_99295" data-name="Trazado 99295" d="M491.658,133.493a.714.714,0,1,1-.714-.683A.7.7,0,0,1,491.658,133.493Z" transform="translate(-432.448 -132.81)" fill="#fff" stroke="#fff" stroke-width="1"/>
                  <path id="Trazado_99296" data-name="Trazado 99296" d="M500.1,133.493a.714.714,0,1,1-.714-.683A.7.7,0,0,1,500.1,133.493Z" transform="translate(-434.474 -132.81)" fill="#fff" stroke="#fff" stroke-width="1"/>
                </g>
              </g>
              <line id="Línea_138" data-name="Línea 138" y2="139.568" transform="translate(10.313 67.406)" fill="none" stroke="#3449bc" stroke-linecap="round" stroke-width="2" stroke-dasharray="8"/>
            </g>
          </g>
          <g id="Grupo_1044138" data-name="Grupo 1044138" transform="translate(1052.982 610.336)" style="isolation: isolate">
            <path id="Trazado_145969-2" data-name="Trazado 145969" d="M13.267,0A13.267,13.267,0,1,1,0,13.267,13.267,13.267,0,0,1,13.267,0Z" transform="translate(0 0)" fill="#4dcbbf"/>
            <path id="Trazado_145969_-_Contorno-2" data-name="Trazado 145969 - Contorno" d="M13.267,0A13.267,13.267,0,1,1,0,13.267,13.267,13.267,0,0,1,13.267,0Z" transform="translate(0 0)" fill="#4dcbbf"/>
          </g>
        </g>
        <path id="Trazado_778487" data-name="Trazado 778487" d="M105.029,289.226c-3.742-.107-33.737-20.187-51.858-50.812-15.547-26.274-13.494-62.6-5.892-72.442,4.157-5.384,9.406-10.031,12.422-16.129,6.487-13.125,1.013-28.742,1.62-43.369,1.108-26.959,24.4-49.563,50.638-55.881s54.16,1.069,77.94,13.823a183.184,183.184,0,0,1,84.134,96.331c5.834,15.617,9.519,32.292,8.315,48.922-.241,3.333-.7,24.6-15.624,42.424-16.268,19.424-47.249,35.488-49.195,37.34l-112.5-.217Z" transform="translate(1051.503 392.724)" fill="#ff7a9a" opacity="0.2"/>
        <g id="OBJECTS" transform="translate(1077.245 448.354)">
          <g id="Grupo_1046440" data-name="Grupo 1046440" transform="translate(0 0)">
            <g id="Grupo_1046435" data-name="Grupo 1046435" transform="translate(4.585 31.537)">
              <g id="Grupo_1046431" data-name="Grupo 1046431" transform="translate(0 92.839)">
                <path id="Trazado_778490" data-name="Trazado 778490" d="M95.873,379.565a39.2,39.2,0,0,0-27.043-3.392,70.781,70.781,0,0,0,12.152,6.638,41.172,41.172,0,0,0,11.595,2.537,44.318,44.318,0,0,0,12.112-.3c-.928-1.086-2.537-1.632-3.719-2.408C99.311,381.551,97.629,380.493,95.873,379.565Z" transform="translate(-44.57 -322.971)" fill="#005b69"/>
                <path id="Trazado_778491" data-name="Trazado 778491" d="M108.017,350.485a43.412,43.412,0,0,1-3.921-11.87c-.467-3.359-.231-6.768-.366-10.155a55.331,55.331,0,0,1,10.16,15.2,41.807,41.807,0,0,1,3.662,17.839.419.419,0,0,1-.158.388.423.423,0,0,1-.338-.039c-4.512-2.008-7.105-7.117-9.035-11.359Z" transform="translate(-59.836 -302.555)" fill="#005b69"/>
                <path id="Trazado_778492" data-name="Trazado 778492" d="M58.565,290.864a31.81,31.81,0,0,1,6.127,6.875,28.659,28.659,0,0,1,3.927,8.371,20.715,20.715,0,0,1,.428,9.288,16.158,16.158,0,0,1-4.219,8.326,13.818,13.818,0,0,1-8.371,4.169,19.827,19.827,0,0,1-9.148-1.727,38.869,38.869,0,0,1-8.1-4.428,38.476,38.476,0,0,1-6.773-6.228.383.383,0,0,1,.574-.506,38.95,38.95,0,0,0,14.711,10.1,19.163,19.163,0,0,0,8.613,1.6,12.664,12.664,0,0,0,7.617-3.837,14.891,14.891,0,0,0,3.944-7.691,20.168,20.168,0,0,0-.332-8.788,27.832,27.832,0,0,0-3.662-8.129,31.033,31.033,0,0,0-5.783-6.852h0a.352.352,0,0,1,.45-.54Z" transform="translate(-28.612 -286.078)" fill="#005b69"/>
                <path id="Trazado_778493" data-name="Trazado 778493" d="M35.968,316.386a52.991,52.991,0,0,0,12.045,11.578l1.727,1.181,1.761,1.12,1.783,1.086,1.817,1.03c2.442,1.339,4.928,2.571,7.432,3.854a.264.264,0,0,1-.186.489,34.493,34.493,0,0,1-7.831-3.274l-1.834-1.075-1.795-1.142-1.738-1.226-1.693-1.288a73.007,73.007,0,0,1-11.9-12.005.261.261,0,1,1,.411-.321h0Z" transform="translate(-29.991 -297.232)" fill="#005b69"/>
                <path id="Trazado_778494" data-name="Trazado 778494" d="M64.831,293.382a39.941,39.941,0,0,1,11.139,13.35l.945,1.986.827,2.042.681,2.1L78.974,315a25.152,25.152,0,0,1,.461,8.771.264.264,0,0,1-.293.225.258.258,0,0,1-.225-.242,60.936,60.936,0,0,0-1.131-8.495l-.5-2.076-.613-2.048-.709-2.02-.821-1.98a33.187,33.187,0,0,0-10.616-13.339.262.262,0,0,1,.309-.422h0Z" transform="translate(-42.641 -287.184)" fill="#005b69"/>
                <path id="Trazado_778495" data-name="Trazado 778495" d="M48.348,306.15a91.346,91.346,0,0,0,10.413,12.883l1.446,1.485,1.468,1.463,1.468,1.457,1.491,1.435c1.992,1.907,4,3.786,5.935,5.789a.261.261,0,0,1-.332.4A46.307,46.307,0,0,1,63.8,325.75c-.99-.979-1.975-1.963-2.931-2.976-.94-1.024-1.873-2.059-2.779-3.117-3.612-4.236-6.976-8.658-10.155-13.215a.258.258,0,0,1,.422-.3h0Z" transform="translate(-35.408 -292.745)" fill="#005b69"/>
                <path id="Trazado_778496" data-name="Trazado 778496" d="M46.974,300.791a7.106,7.106,0,0,1,2.076,3.015,3.762,3.762,0,0,1-.568,3.5,1.441,1.441,0,0,1-.827.534,1.7,1.7,0,0,1-.8-.113,8.489,8.489,0,0,1-4.478-3.646c-.743-1.221-1.288-3.3.236-4.174,1.48-.85,3.229-.158,4.36.883Z" transform="translate(-32.677 -289.901)" fill="#63c7bc"/>
                <path id="Trazado_778497" data-name="Trazado 778497" d="M32.412,311.625A7.027,7.027,0,0,1,36,313.937a5.4,5.4,0,0,1,1.519,2.706,2.4,2.4,0,0,1-1.288,2.61,2.813,2.813,0,0,1-2.194-.242,6.2,6.2,0,0,1-3.443-5.766c.056-1.108.669-1.862,1.823-1.62Z" transform="translate(-27.842 -295.171)" fill="#63c7bc"/>
                <path id="Trazado_778498" data-name="Trazado 778498" d="M32.932,331.377a2.792,2.792,0,0,1-.028,2.914,2.608,2.608,0,0,1-2.594.484,6.661,6.661,0,0,1-4.039-3.044c-.895-1.53-.928-4.506,1.412-4.563C30.063,327.113,32.055,329.4,32.932,331.377Z" transform="translate(-25.707 -301.99)" fill="#63c7bc"/>
                <path id="Trazado_778499" data-name="Trazado 778499" d="M64.7,290.265a3.63,3.63,0,0,1,.714,2.346,2.8,2.8,0,0,1-2.4,2.211,5.034,5.034,0,0,1-3.319-.866,8.546,8.546,0,0,1-2.644-2.61c-1.153-1.789-.709-4.945,1.89-5.058C61.16,286.192,63.619,288.589,64.7,290.265Z" transform="translate(-39.156 -284.107)" fill="#63c7bc"/>
                <path id="Trazado_778500" data-name="Trazado 778500" d="M77.641,286.361a3.215,3.215,0,0,1-.428,3.46,1.949,1.949,0,0,1-.754.5,2.721,2.721,0,0,1-2.16-.411,8.714,8.714,0,0,1-3.662-4.028c-.748-1.7.141-3.775,2.239-3.432a7.728,7.728,0,0,1,4.759,3.916Z" transform="translate(-45.246 -282.413)" fill="#63c7bc"/>
                <path id="Trazado_778501" data-name="Trazado 778501" d="M80.771,379.4c2.3.551,4.613,1.058,6.92,1.581l6.937,1.5q3.468.734,6.931,1.519c2.3.54,4.608,1.08,6.875,1.761a.139.139,0,0,1,.09.163.131.131,0,0,1-.146.09h0c-2.34-.383-4.647-.9-6.953-1.418q-3.451-.8-6.9-1.66l-6.892-1.682c-2.307-.534-4.6-1.091-6.914-1.6h0a.139.139,0,0,1-.1-.158.131.131,0,0,1,.158-.1h0Z" transform="translate(-49.726 -324.835)" fill="#63c7bc"/>
                <path id="Trazado_778502" data-name="Trazado 778502" d="M109.548,342.383c.7,2.115,1.474,4.214,2.228,6.312.776,2.093,1.586,4.174,2.4,6.25l2.458,6.228c.8,2.082,1.62,4.158,2.318,6.284a.13.13,0,0,1-.242.1c-.985-2.008-1.823-4.084-2.644-6.16s-1.581-4.18-2.329-6.284l-4.439-12.647a.136.136,0,0,1,.079-.169.131.131,0,0,1,.169.079h0Z" transform="translate(-62.267 -308.602)" fill="#63c7bc"/>
                <path id="Trazado_778503" data-name="Trazado 778503" d="M88.336,348.985a63.182,63.182,0,0,0,8.849,10.031c3.263,3.072,6.717,5.952,10.205,8.765,1.744,1.406,3.488,2.819,5.26,4.191l5.266,4.174q2.641,2.076,5.226,4.231c1.721,1.44,3.426,2.9,5.058,4.478h0a.526.526,0,0,1-.619.838,77.553,77.553,0,0,1-11.19-7.629c-3.539-2.8-6.914-5.806-10.222-8.878-1.654-1.536-3.274-3.1-4.906-4.664s-3.246-3.128-4.844-4.726a90.4,90.4,0,0,1-8.939-10.211.519.519,0,0,1,.838-.613.081.081,0,0,0,.011.017Z" transform="translate(-52.684 -311.434)" fill="#005b69"/>
              </g>
              <g id="Grupo_1046432" data-name="Grupo 1046432" transform="translate(176.827 134.35)">
                <path id="Trazado_778504" data-name="Trazado 778504" d="M340.686,400.435a49.776,49.776,0,0,0,57.051-42.295,34.655,34.655,0,0,0-19.24-1.024c-4.276,1.136-36.692,11.454-37.817,43.319Z" transform="translate(-340.309 -356.199)" fill="#ff7a9a"/>
                <path id="Trazado_778505" data-name="Trazado 778505" d="M397.662,359.661l-7.06,5.384-7.089,5.345-14.222,10.627L355,391.554l-7.173,5.232-7.2,5.193a.382.382,0,0,1-.456-.613l7.06-5.384,7.094-5.339,14.239-10.61,14.3-10.52,7.173-5.226,7.207-5.187a.35.35,0,0,1,.416.563Z" transform="translate(-340.021 -357.438)" fill="#fff"/>
                <path id="Trazado_778506" data-name="Trazado 778506" d="M408.55,372.2c.039-1.255.129-2.5.231-3.752s.225-2.492.36-3.741.287-2.487.473-3.724l.276-1.857a7.381,7.381,0,0,0,.208-1.682v-.034a.371.371,0,0,1,.3-.444.382.382,0,0,1,.422.231,2.439,2.439,0,0,1,.118,1.1l-.051.94-.146,1.873c-.1,1.249-.236,2.492-.383,3.736s-.3,2.487-.5,3.724-.377,2.475-.619,3.707a.349.349,0,0,1-.692-.079Z" transform="translate(-369.997 -356.531)" fill="#fff"/>
                <path id="Trazado_778507" data-name="Trazado 778507" d="M393.117,381c-.343-1.44-.613-2.892-.838-4.354s-.405-2.931-.546-4.4-.231-2.948-.264-4.428l-.028-2.217c.017-.737.022-1.48.068-2.217h0a.383.383,0,0,1,.765-.011l.326,4.383.354,4.377.411,4.371.45,4.377a.345.345,0,0,1-.315.383.355.355,0,0,1-.377-.27Z" transform="translate(-362.513 -359.182)" fill="#fff"/>
                <path id="Trazado_778508" data-name="Trazado 778508" d="M375.806,392.617c-.523-1.35-.973-2.729-1.384-4.118s-.765-2.8-1.086-4.208-.585-2.841-.8-4.27c-.1-.714-.2-1.435-.287-2.155-.068-.72-.152-1.44-.191-2.166h0a.384.384,0,0,1,.759-.1l.838,4.225c.287,1.406.574,2.807.878,4.208s.624,2.8.945,4.191l1,4.191a.35.35,0,0,1-.259.422.358.358,0,0,1-.411-.214Z" transform="translate(-354.035 -364.549)" fill="#fff"/>
                <path id="Trazado_778509" data-name="Trazado 778509" d="M361.281,404.927c-.546-1.187-1.03-2.4-1.491-3.623s-.889-2.453-1.3-3.7-.782-2.492-1.114-3.758c-.163-.636-.338-1.255-.473-1.93a5.394,5.394,0,0,1-.034-2.1.381.381,0,0,1,.456-.293.376.376,0,0,1,.3.388v.011a5.352,5.352,0,0,0,.253,1.766c.163.6.383,1.215.585,1.828l1.193,3.707,1.165,3.719c.383,1.243.771,2.481,1.12,3.736a.353.353,0,0,1-.242.433.361.361,0,0,1-.416-.191Z" transform="translate(-347.351 -370.772)" fill="#fff"/>
                <path id="Trazado_778510" data-name="Trazado 778510" d="M409.567,383.092a58.769,58.769,0,0,1,6.3,1.536,55.215,55.215,0,0,1,6.11,2.183.382.382,0,0,1,.2.506.377.377,0,0,1-.439.219c-2.1-.5-4.163-1.108-6.222-1.738s-4.107-1.283-6.132-2.037a.351.351,0,0,1,.18-.675Z" transform="translate(-370.26 -367.958)" fill="#fff"/>
                <path id="Trazado_778511" data-name="Trazado 778511" d="M394.724,393.868c1.378.191,2.745.456,4.1.748s2.706.636,4.045,1.007,2.667.788,3.977,1.249l1.958.714c.647.264,1.294.512,1.93.793a.381.381,0,0,1,.191.506.388.388,0,0,1-.45.214c-.669-.18-1.328-.383-1.992-.563l-1.986-.585-3.966-1.148-7.961-2.25a.353.353,0,0,1-.242-.433.357.357,0,0,1,.388-.253h0Z" transform="translate(-363.771 -372.675)" fill="#fff"/>
                <path id="Trazado_778512" data-name="Trazado 778512" d="M379.69,405.756c1.316.546,2.616,1.12,3.921,1.688l3.9,1.71,3.9,1.716,1.952.861c.647.3,1.3.579,1.941.889a.384.384,0,0,1-.276.714c-.686-.2-1.361-.444-2.037-.669l-2.008-.748c-1.339-.506-2.655-1.063-3.961-1.643s-2.6-1.187-3.871-1.845-2.537-1.316-3.769-2.048a.353.353,0,0,1,.315-.63Z" transform="translate(-357.165 -377.863)" fill="#fff"/>
                <path id="Trazado_778513" data-name="Trazado 778513" d="M378.091,423.79a31.107,31.107,0,0,1-3.6-1.423c-1.17-.518-2.312-1.08-3.454-1.643s-2.273-1.153-3.392-1.755l-1.676-.906c-.546-.309-1.12-.624-1.643-.895l-.034-.017a.38.38,0,0,1,.3-.7,36.17,36.17,0,0,1,3.561,1.508c1.159.534,2.3,1.1,3.432,1.677s2.267,1.159,3.387,1.755l1.682.883c.557.3,1.12.591,1.671.855l.023.011a.349.349,0,0,1,.163.467.354.354,0,0,1-.416.186Z" transform="translate(-350.547 -382.546)" fill="#fff"/>
                <path id="Trazado_778514" data-name="Trazado 778514" d="M347.523,405.074c.613,1.9,1.176,3.814,1.727,5.727.287.956.534,1.918.8,2.88l.793,2.88-.338-.4,2.548,1.181c.849.4,1.7.782,2.543,1.193,1.688.81,3.37,1.631,5.035,2.5a.383.383,0,0,1-.315.7c-1.744-.686-3.466-1.423-5.181-2.166-.861-.366-1.71-.759-2.565-1.136l-2.56-1.148a.61.61,0,0,1-.338-.4l-.743-2.9c-.242-.968-.506-1.93-.731-2.9-.473-1.935-.934-3.876-1.339-5.828a.35.35,0,0,1,.675-.18Z" transform="translate(-343.011 -377.474)" fill="#fff"/>
              </g>
              <g id="Grupo_1046434" data-name="Grupo 1046434" transform="translate(1.481)">
                <path id="Trazado_778515" data-name="Trazado 778515" d="M64.363,131.646C61.8,124.76,56.1,118.6,48.83,117.52a7.337,7.337,0,0,0-5.328.889c-2.357,1.665-2.695,5.063-2.183,7.9a20.647,20.647,0,0,0,14.543,15.915c2.318.636,7.415,2.07,9.148-.2,1.913-2.509.3-7.826-.647-10.38Z" transform="translate(-33.927 -117.39)" fill="#ff7a9a"/>
                <path id="Trazado_778516" data-name="Trazado 778516" d="M104.258,131.348a17.426,17.426,0,0,1,3.932-7.781c2.059-2.1,5.26-3.285,8.017-2.273a7.776,7.776,0,0,1,4.478,5.232,16.81,16.81,0,0,1,.2,7.089,25.282,25.282,0,0,1-4.383,11.674c-2.307,3.072-9.378,8.8-11.9,3.9-2.7-5.232-1.828-12.433-.343-17.856Z" transform="translate(-60.934 -118.938)" fill="#ff7a9a"/>
                <path id="Trazado_778517" data-name="Trazado 778517" d="M56.475,188.8a30.305,30.305,0,0,0-12.439-4.45c-3.3-.529-6.779-.765-9.907.416s-5.811,4.09-5.789,7.432c.023,3.139,2.318,5.811,4.827,7.69a26.069,26.069,0,0,0,21.536,4.1c2.785-.681,8.163-2.008,8.551-5.373.416-3.617-4.146-8.006-6.779-9.806Z" transform="translate(-28.34 -146.49)" fill="#ff7a9a"/>
                <path id="Trazado_778518" data-name="Trazado 778518" d="M133.8,192.5a28.735,28.735,0,0,1,5.789-10.3c1.93-2.2,4.585-4.225,7.482-3.837a6.8,6.8,0,0,1,5.013,4.118,14.234,14.234,0,0,1,.911,6.644c-.433,7.437-4.011,15.735-11.685,18.093-8.613,2.644-9.311-9-7.51-14.723Z" transform="translate(-74.119 -144.04)" fill="#ff7a9a"/>
                <path id="Trazado_778519" data-name="Trazado 778519" d="M81.953,247.876a21.018,21.018,0,0,0-9.5-8.36,17.651,17.651,0,0,0-12.557-.563c-2.548.883-5.069,2.7-5.575,5.35-.551,2.9,1.468,5.665,3.736,7.544a22.936,22.936,0,0,0,19.353,4.658c4.81-1.075,7.364-4.051,4.546-8.636Z" transform="translate(-39.663 -170.172)" fill="#ff7a9a"/>
                <g id="Grupo_1046433" data-name="Grupo 1046433" transform="translate(12.527 6.542)">
                  <path id="Trazado_778520" data-name="Trazado 778520" d="M109.453,254.386l-1.238-8.574-1.558-8.518-1.868-8.456-2.194-8.371A228.753,228.753,0,0,0,90.741,187.99a227.343,227.343,0,0,0-16.557-30.346l-4.833-7.179-5.114-6.982-5.356-6.8-5.615-6.593-.017-.017a.638.638,0,0,1,.962-.838l5.817,6.492,5.541,6.734,5.243,6.976,4.962,7.179a220.885,220.885,0,0,1,16.832,30.543,220.225,220.225,0,0,1,11.747,32.832l2.1,8.467,1.761,8.54L109.6,245.6l1.024,8.653a.584.584,0,0,1-1.159.152v-.023Z" transform="translate(-51.696 -129.02)" fill="#63c7bc"/>
                  <path id="Trazado_778521" data-name="Trazado 778521" d="M101.8,172.527c1.1-4.827,2.419-9.586,3.809-14.329.7-2.368,1.418-4.731,2.183-7.083.748-2.352,1.558-4.692,2.413-7.01a.638.638,0,0,1,1.221.366q-.827,3.62-1.812,7.19c-.647,2.385-1.339,4.754-2.042,7.122-1.435,4.726-2.925,9.434-4.647,14.076a.585.585,0,0,1-.754.343.578.578,0,0,1-.366-.681Z" transform="translate(-72.996 -135.436)" fill="#63c7bc"/>
                  <path id="Trazado_778522" data-name="Trazado 778522" d="M87.379,212.752c-1.541-.4-3.072-.849-4.608-1.271l-4.579-1.35c-3.055-.9-6.087-1.857-9.119-2.819s-6.053-1.958-9.063-3l-4.512-1.57c-1.491-.551-3-1.075-4.484-1.654a.639.639,0,0,1,.388-1.215c1.541.4,3.072.85,4.6,1.271l4.579,1.361c3.049.911,6.081,1.879,9.108,2.858s6.048,1.98,9.052,3.032l4.506,1.581c1.491.551,2.993,1.08,4.478,1.66a.586.586,0,0,1-.36,1.114Z" transform="translate(-50.606 -160.004)" fill="#63c7bc"/>
                  <path id="Trazado_778523" data-name="Trazado 778523" d="M131.1,235.012c1.446-4.956,3.122-9.828,4.849-14.683.872-2.425,1.766-4.844,2.7-7.246s1.9-4.793,2.925-7.162a.638.638,0,0,1,1.2.433q-1.089,3.713-2.335,7.375c-.821,2.442-1.682,4.872-2.565,7.291-1.778,4.838-3.612,9.654-5.676,14.385a.585.585,0,0,1-1.1-.4Z" transform="translate(-85.805 -162.489)" fill="#63c7bc"/>
                  <path id="Trazado_778524" data-name="Trazado 778524" d="M113.877,268.18c-1.305-.349-2.6-.743-3.9-1.114l-3.871-1.193c-2.582-.793-5.142-1.648-7.7-2.509s-5.1-1.755-7.64-2.684-5.058-1.89-7.561-2.909a.64.64,0,0,1,.411-1.21q3.907,1.08,7.764,2.318t7.685,2.548c2.548.883,5.1,1.772,7.623,2.723l3.792,1.423c1.255.5,2.52.979,3.764,1.5a.584.584,0,0,1-.377,1.1Z" transform="translate(-64.695 -184.799)" fill="#63c7bc"/>
                </g>
              </g>
              <path id="Trazado_778525" data-name="Trazado 778525" d="M372.082,198.738a59.747,59.747,0,0,0-3-7.887q-1.764-3.823-3.82-7.482a16.74,16.74,0,0,0-2.031-2.92,8.041,8.041,0,0,0-2.892-2.172,4.954,4.954,0,0,0-1.834-.36,4.777,4.777,0,0,0-1.828.405,5.654,5.654,0,0,0-2.565,2.6,12.5,12.5,0,0,0-1.058,7,25.129,25.129,0,0,0,.546,3.488,27.434,27.434,0,0,0,.973,3.392,35.119,35.119,0,0,0,3.027,6.368c1.226,2.02,2.577,3.9,3.961,5.795a48.617,48.617,0,0,0,4.563,5.384,20.846,20.846,0,0,0,2.734,2.357,10.689,10.689,0,0,0,2.762,1.463q-3.5,5.966-6.858,12.017l-.894,1.671a19.437,19.437,0,0,0-1.024-4.984,54.51,54.51,0,0,0-2.909-6.745,85,85,0,0,0-10.29-16.084q-1.519-1.848-3.139-3.612a9.5,9.5,0,0,0-1.873-1.648,3.926,3.926,0,0,0-2.582-.6,5.124,5.124,0,0,0-3.955,3.173,9.337,9.337,0,0,0-.416,5,18.642,18.642,0,0,0,1.412,4.72,27.016,27.016,0,0,0,2.447,4.236,74.208,74.208,0,0,0,6.256,7.308c2.172,2.323,4.394,4.624,6.779,6.79a33.608,33.608,0,0,0,7.679,5.451l-1.288,2.408-3.668,7.15-2.408,4.979c-.09-.264-.18-.529-.276-.788a50.719,50.719,0,0,0-5.688-10.087c-1.086-1.575-2.217-3.122-3.375-4.641q-.861-1.148-1.744-2.278c-.591-.759-1.17-1.5-1.845-2.233a30.492,30.492,0,0,0-4.292-3.865,15.163,15.163,0,0,0-5.226-2.543,8.947,8.947,0,0,0-5.834.506,5.782,5.782,0,0,0-2.318,1.963,5.06,5.06,0,0,0-.793,2.959,7.4,7.4,0,0,0,.833,2.9,14.291,14.291,0,0,0,1.62,2.458c1.238,1.513,2.554,2.864,3.9,4.242a93.654,93.654,0,0,0,8.557,7.662c2.948,2.335,5.823,4.9,9.091,7.027a19.76,19.76,0,0,0,2.61,1.44,9.575,9.575,0,0,0,1.48.546l.743.152-1.9,4.118a279.407,279.407,0,0,0-11.488,30,.416.416,0,0,0,.782.281c4.1-9.873,8.118-19.752,12.484-29.491l2.093-4.63.444.428a10.1,10.1,0,0,0,1.294.9,19.983,19.983,0,0,0,2.678,1.316c3.617,1.463,7.364,2.346,10.965,3.432A94.626,94.626,0,0,0,380.87,261.8c1.9.315,3.758.619,5.71.771a14,14,0,0,0,2.948-.079,7.3,7.3,0,0,0,2.858-.979,5.091,5.091,0,0,0,1.975-2.346,5.79,5.79,0,0,0,.281-3.021,8.931,8.931,0,0,0-2.925-5.074,15.249,15.249,0,0,0-5.074-2.83,30.492,30.492,0,0,0-5.62-1.305c-.985-.135-1.93-.18-2.892-.236s-1.913-.1-2.864-.129c-1.913-.079-3.826-.124-5.738-.113A50.491,50.491,0,0,0,358,247.564c-.439.118-.878.242-1.316.388l2.245-4.748,3.5-7.2,1.075-2.11a34.205,34.205,0,0,0,8.591,3.027c3.139.714,6.3,1.221,9.446,1.671a74.189,74.189,0,0,0,9.575.945,26.754,26.754,0,0,0,4.872-.416,18.614,18.614,0,0,0,4.675-1.541,9.393,9.393,0,0,0,3.859-3.207,5.108,5.108,0,0,0,.338-5.058,3.893,3.893,0,0,0-1.969-1.772,9.667,9.667,0,0,0-2.425-.6c-1.581-.214-3.167-.388-4.759-.506a84.906,84.906,0,0,0-19.077.771,54.624,54.624,0,0,0-7.2,1.48,20.31,20.31,0,0,0-4.146,1.7l.776-1.525q3.291-6.363,6.824-12.613a.833.833,0,0,0,.208-.163,10.387,10.387,0,0,0,2.909,1.525,21.164,21.164,0,0,0,3.5.895,48.728,48.728,0,0,0,7.027.658c2.34.056,4.658.084,7.015-.068a34.674,34.674,0,0,0,6.953-1.165,27.235,27.235,0,0,0,3.342-1.148,25.433,25.433,0,0,0,3.173-1.547,12.482,12.482,0,0,0,5.136-4.872,5.646,5.646,0,0,0,.664-3.589,4.555,4.555,0,0,0-2.059-3.027,7.965,7.965,0,0,0-3.437-1.131,16.694,16.694,0,0,0-3.556.006q-4.177.405-8.321,1.153a60.089,60.089,0,0,0-8.186,2.059,43.218,43.218,0,0,0-7.747,3.477,35.612,35.612,0,0,0-4.321,2.909q3.029-5.24,6.205-10.391a.927.927,0,0,0,.518-.084c5.035-2.588,10.492-4.624,15.257-8.231a46.357,46.357,0,0,0,6.048-6.312A34.216,34.216,0,0,0,408,179.908a18.064,18.064,0,0,0,1.727-8.585,13.027,13.027,0,0,0-.99-4.315,4.841,4.841,0,0,0-1.339-1.9,3.938,3.938,0,0,0-2.177-.872,8.268,8.268,0,0,0-4.343.99,23.86,23.86,0,0,0-3.691,2.329,35.572,35.572,0,0,0-6.16,6.11,63.328,63.328,0,0,0-4.293,6.036,49.571,49.571,0,0,0-3.494,6.571,34.1,34.1,0,0,0-2.273,7.145,26.44,26.44,0,0,0-.428,7.572h0a.926.926,0,0,0,.1.349c0,.006.011.011.011.017q-3.536,5.561-6.92,11.224a35.423,35.423,0,0,0-.084-5.519,43.1,43.1,0,0,0-1.586-8.343" transform="translate(-155.965 -137.872)" fill="#63c7bc"/>
            </g>
            <g id="Grupo_1046436" data-name="Grupo 1046436" transform="translate(176.682)">
              <path id="Trazado_778526" data-name="Trazado 778526" d="M346.245,159.205a28.031,28.031,0,0,0,7.015-19.595,7.421,7.421,0,0,0-1.108-4.112,3.066,3.066,0,0,0-3.786-1.108,4.376,4.376,0,0,0-1.491,1.789,33.351,33.351,0,0,0-3.516,10.042,11.211,11.211,0,0,0-4.056-6.712,5.7,5.7,0,0,0-3.156-1.361c-3.184-.152-5.2,3.882-4.326,6.948s3.544,5.221,6.065,7.173q4.253,3.291,8.506,6.588" transform="translate(-331.614 -93.16)" fill="#ff99b1"/>
              <path id="Trazado_778527" data-name="Trazado 778527" d="M378.523,92.634c-1.9-4.011-3.854-7.994-5.823-11.977a36.551,36.551,0,0,1-2.554-6.3,15.459,15.459,0,0,1-.54-3.465c-.011-.3,0-.6,0-.889.022-.3.039-.591.073-.895a9.1,9.1,0,0,1,.422-1.789,9.342,9.342,0,0,1,4.748-5.412,6.325,6.325,0,0,1,3.848-.45,6.75,6.75,0,0,1,3.409,1.851,13,13,0,0,1,3.263,6.447,46.267,46.267,0,0,0,1.558,6.262l-2.774.017a10.472,10.472,0,0,1,4.551-5.637,9.955,9.955,0,0,1,7.3-1.322,8.6,8.6,0,0,1,3.522,1.744,9.874,9.874,0,0,1,3.555,6.661,8.415,8.415,0,0,1-.557,3.966,8.956,8.956,0,0,1-2.278,3.2,15.168,15.168,0,0,1-2.931,2.059c-1,.546-2.014.985-2.982,1.4s-1.952.838-2.948,1.215a77.583,77.583,0,0,1-12.18,3.713l-.5-1.519c3.82-1.744,7.612-3.454,11.353-5.249,1.84-.911,3.8-1.8,5.451-2.768a11.293,11.293,0,0,0,2.183-1.586,5.948,5.948,0,0,0,1.35-1.89,5.447,5.447,0,0,0-.366-4.506,5.635,5.635,0,0,0-3.51-2.993,6.543,6.543,0,0,0-4.821.681,7.416,7.416,0,0,0-3.409,3.781l-1.5,3.932L384.166,77a47.112,47.112,0,0,1-1.288-6.734,14.375,14.375,0,0,0-.8-2.959,8.121,8.121,0,0,0-1.519-2.475,4.333,4.333,0,0,0-4.951-1.187,7.436,7.436,0,0,0-3.9,4.236,7.58,7.58,0,0,0-.371,1.435c-.034.248-.051.506-.079.765,0,.259-.023.512-.017.771a13.36,13.36,0,0,0,.428,3.105A30.471,30.471,0,0,0,374.039,80c1.947,3.983,3.91,7.966,5.924,11.921l-1.435.7Z" transform="translate(-348.23 -61.333)" fill="#ff8da8"/>
            </g>
            <g id="Grupo_1046439" data-name="Grupo 1046439" transform="translate(0 44.631)">
              <g id="Grupo_1046437" data-name="Grupo 1046437" transform="translate(0 56.457)">
                <path id="Trazado_778528" data-name="Trazado 778528" d="M34.328,241.065a2.257,2.257,0,0,0-.686-.034,3.156,3.156,0,0,0-1.255.371,2.928,2.928,0,0,0-.985.844,2.054,2.054,0,0,0-.321.6,1.35,1.35,0,0,0,.872,1.688.749.749,0,0,0,.107.028,2.05,2.05,0,0,0,.681.022,2.9,2.9,0,0,0,1.215-.428,3.329,3.329,0,0,0,.951-.9,2.469,2.469,0,0,0,.315-.613,1.236,1.236,0,0,0-.8-1.547c-.028-.011-.062-.017-.1-.028Z" transform="translate(-23.447 -241.019)" fill="#005b69"/>
                <path id="Trazado_778529" data-name="Trazado 778529" d="M20.063,250.061a1.85,1.85,0,0,0-.518-.191,1.758,1.758,0,0,0-.945.056,1.538,1.538,0,0,0-.743.563,1.733,1.733,0,0,0-.242.489,1.582,1.582,0,0,0,1.255,2.014,1.5,1.5,0,0,0,.917-.124,1.841,1.841,0,0,0,.951-1.125,1.513,1.513,0,0,0-.681-1.682Z" transform="translate(-17.558 -244.873)" fill="#005b69"/>
                <path id="Trazado_778530" data-name="Trazado 778530" d="M26.981,255.019a2.42,2.42,0,0,0-.692.022,3.279,3.279,0,0,0-1.238.473,2.984,2.984,0,0,0-.934.923,2.366,2.366,0,0,0-.287.63,1.338,1.338,0,0,0,.973,1.615.886.886,0,0,0,.129.023,2.186,2.186,0,0,0,.686-.034,2.954,2.954,0,0,0,1.2-.529,3.305,3.305,0,0,0,.895-.979,2.463,2.463,0,0,0,.276-.641,1.229,1.229,0,0,0-.895-1.48.665.665,0,0,0-.113-.023Z" transform="translate(-20.285 -247.136)" fill="#005b69"/>
              </g>
              <g id="Grupo_1046438" data-name="Grupo 1046438" transform="translate(221.802)">
                <path id="Trazado_778531" data-name="Trazado 778531" d="M411.824,142.069a2.446,2.446,0,0,0,.214.653,3.189,3.189,0,0,0,.788,1.035,2.807,2.807,0,0,0,1.131.613,2.29,2.29,0,0,0,.669.084,1.352,1.352,0,0,0,1.249-1.423.764.764,0,0,0-.011-.113,2.228,2.228,0,0,0-.219-.641,2.811,2.811,0,0,0-.833-.979,3.094,3.094,0,0,0-1.17-.557,2.336,2.336,0,0,0-.681-.073,1.244,1.244,0,0,0-1.142,1.311.264.264,0,0,0,.011.1Z" transform="translate(-411.816 -140.666)" fill="#005b69"/>
                <path id="Trazado_778532" data-name="Trazado 778532" d="M425.577,152.744a1.715,1.715,0,0,0,.011.551,1.7,1.7,0,0,0,.394.861,1.492,1.492,0,0,0,.782.484,1.477,1.477,0,0,0,.534.045,1.63,1.63,0,0,0,1.423-1.361,1.571,1.571,0,0,0-.017-.54,1.541,1.541,0,0,0-.439-.81,1.714,1.714,0,0,0-.833-.439,1.807,1.807,0,0,0-.546-.039,1.5,1.5,0,0,0-1.305,1.249Z" transform="translate(-417.828 -145.4)" fill="#005b69"/>
                <path id="Trazado_778533" data-name="Trazado 778533" d="M427.31,143.869a2.34,2.34,0,0,0,.264.636,3.172,3.172,0,0,0,.878.979,2.97,2.97,0,0,0,1.187.534,2.148,2.148,0,0,0,.681.034,1.347,1.347,0,0,0,1.142-1.5.52.52,0,0,0-.022-.129,2.063,2.063,0,0,0-.276-.624,2.92,2.92,0,0,0-.917-.923,3.212,3.212,0,0,0-1.226-.478,2.42,2.42,0,0,0-.692-.023,1.23,1.23,0,0,0-1.046,1.373.4.4,0,0,0,.022.113Z" transform="translate(-418.577 -141.409)" fill="#005b69"/>
              </g>
            </g>
          </g>
        </g>
      </g>
      <g id="Enmascarar_grupo_81" data-name="Enmascarar grupo 81" transform="translate(0 -5)" clip-path="url(#clip-path-2)">
        <g id="Grupo_1046447" data-name="Grupo 1046447" transform="translate(1149.543 464.314)">
          <path id="Trazado_778534" data-name="Trazado 778534" d="M231.575,418.816l-8.641,2.627L214.27,424c-2.9.838-5.862,1.446-8.821,2.014s-5.952,1.007-8.951,1.356-6.008.557-9.024.681-6.036.163-9.052,0a64.347,64.347,0,0,1-8.99-1.052,44.834,44.834,0,0,1-8.652-2.6,47.264,47.264,0,0,0,8.709,2.284,64.531,64.531,0,0,0,8.956.861,126.353,126.353,0,0,0,17.98-.827,127.816,127.816,0,0,0,17.716-3.207l8.709-2.385,8.726-2.318Z" transform="translate(-140.504 -233.661)" fill="#373735"/>
          <path id="Trazado_778535" data-name="Trazado 778535" d="M270.985,449.9c-7.944,4.82-15.932,5.827-24.225,7.423-27.325,5.259-64.573,6.5-91.2-6.277l5.682-42.472,99.948-7.562s7.809,40.865,9.8,48.9Z" transform="translate(-138.221 -225.875)" fill="#90e3c6"/>
          <path id="Trazado_778537" data-name="Trazado 778537" d="M247.957,172.391c-3.617-4.754-7.82-9.344-9.418-15.1a26.824,26.824,0,0,1-.8-7.9,41.521,41.521,0,0,1,1.159-8.439,40.932,40.932,0,0,0,.658-16.742c-1.181-7.589-3.15-12.433-8.253-18.171a11.4,11.4,0,0,0-.827-.821,40.248,40.248,0,0,0-11.032-9.93c-10.554-6.318-23.077,1.806-23.077,1.806-15.482-4-24.495,8.878-24.495,8.878-7.3,13.2-5.738,31.235-5.98,46.317-.084,5.271-.326,10.937-3.516,15.133-2.6,3.421-6.734,5.271-10.02,8.045-6.048,5.108-8.889,14.351-5.176,21.339,3.128,5.89,10.081,8.968,16.748,9.131s13.131-2.132,19.285-4.709a45.353,45.353,0,0,1,8.636-3.027c5.952-1.181,12.107.332,17.828,2.346s11.319,4.563,17.311,5.547a22.59,22.59,0,0,0,10.622-1.294c.563.118,1.125.236,1.7.343,3.364-.579,6.233-2.678,8.607-5.181a13.758,13.758,0,0,0,3.128-3.882,17.279,17.279,0,0,0,3.021-7.342c.788-5.918-2.475-11.6-6.093-16.354Z" transform="translate(-133.826 -91.095)" fill="#373735"/>
          <path id="Trazado_778538" data-name="Trazado 778538" d="M245.948,184.262c-2.38-3.409-5.153-6.7-6.205-10.824a20.989,20.989,0,0,1-.529-5.665,32.113,32.113,0,0,1,.765-6.048,31.9,31.9,0,0,0,.433-12c-.776-5.44-2.076-8.911-5.44-13.024a6.714,6.714,0,0,0-.546-.585A27.391,27.391,0,0,0,227.158,129c-6.953-4.529-15.212,1.294-15.212,1.294-10.205-2.869-16.146,6.363-16.146,6.363-4.81,9.463-3.786,22.4-3.944,33.2-.056,3.781-.214,7.842-2.318,10.847-1.716,2.453-4.439,3.781-6.6,5.766-3.983,3.662-5.862,10.29-3.415,15.3,2.065,4.219,6.644,6.43,11.038,6.548s8.658-1.53,12.709-3.375a28.742,28.742,0,0,1,5.688-2.172c3.921-.844,7.977.236,11.752,1.682s7.46,3.269,11.409,3.977a13.693,13.693,0,0,0,7-.928c.371.084.743.169,1.12.248a10.416,10.416,0,0,0,5.671-3.713,9.687,9.687,0,0,0,2.059-2.785,12.959,12.959,0,0,0,1.992-5.266c.518-4.247-1.631-8.315-4.017-11.724Z" transform="translate(-148.222 -106.138)" fill="#373735" stroke="#373735" stroke-miterlimit="10" stroke-width="1"/>
          <path id="Trazado_778539" data-name="Trazado 778539" d="M249.866,241.251l-.366-9.9-21.733.54-.208,9.558" transform="translate(-169.715 -151.662)" fill="#f7c5b4"/>
          <path id="Trazado_778540" data-name="Trazado 778540" d="M255.736,275.489c-2.059-3.314-4.157-6.6-6.256-9.9-2.976-4.669-6.014-9.4-10.177-13.041-7.578-6.622-16.979-7.645-28.281-5.744l-32.5,1.024-12.112.259c-11.162-.546-17.828,2.284-23.341,9.052a42.64,42.64,0,0,0-5.142,8.591A137.273,137.273,0,0,0,125.4,308.287c-1.181,9.5-1.221,19.724,3.713,27.921,3.887,6.464,10.537,10.953,17.688,13.35s14.813,2.869,22.351,2.661a131.122,131.122,0,0,0,28.056-3.814l18.289-5.2" transform="translate(-124.739 -158.052)" fill="#f7c5b4"/>
          <path id="Trazado_778541" data-name="Trazado 778541" d="M286.056,366.168c35.167,10.155,44.545,2.79,50.255-1.62,6.475-5,9.322-13.676,8.973-21.856s-3.482-15.977-7.117-23.313c-3.561-7.19-7.634-14.11-11.876-20.928L301.6,327.671l-15.55,38.5Z" transform="translate(-195.299 -181.013)" fill="#90e3c6"/>
          <path id="Trazado_778542" data-name="Trazado 778542" d="M215.5,351.908l-18.29,5.2a131.124,131.124,0,0,1-28.056,3.814c-7.539.2-15.2-.264-22.351-2.661s-13.8-6.886-17.688-13.35c-4.934-8.2-4.894-18.425-3.713-27.921a137.425,137.425,0,0,1,12.529-42.554,42.641,42.641,0,0,1,5.142-8.591s22.666,13.856,23.87,31.9-15.527,33.682,32.8,39.566L215.5,351.914Z" transform="translate(-124.739 -166.753)" fill="#90e3c6"/>
          <path id="Trazado_778543" data-name="Trazado 778543" d="M149.721,267.066c3.7,2.627,12.906,10.56,18.188,19.038l.354.754c-2.819,5.086-3.938,10.188-4.579,15.989-.759,6.909-.371,13.885.023,20.827a41.545,41.545,0,0,0,4.827,3.15s5.958,4.343,53.265,1.058l18.312-1.063c40.568-.776,17.89-34.34,17.89-34.34,4.383-2.352,7.584-6.593,12.495-7.353l-3.8-6.464-6.841-10.807c-7.145,6.959-10.155,21.2-10.155,21.2-22.627,0-22.233,17.873-22.233,17.873-10.976-7.826-17.423-3.308-17.423-3.308-3.145-7.454-15.809-15.145-23.786-13.8-.433.073-.911-.709-1.046-1.125-4.214-13.125-11.82-26.183-21.828-35.668a16.753,16.753,0,0,0-8.737,5.7,46.279,46.279,0,0,0-4.939,8.332Z" transform="translate(-135.662 -161.146)" fill="#90e3c6"/>
          <path id="Trazado_778544" data-name="Trazado 778544" d="M283.966,320a20.009,20.009,0,0,0-5.525,9.918c-1.62,6.914,1.08,14.121,5.553,19.64a13.356,13.356,0,0,0,4.917,3.786c7.854,3.584,18.014-.163,18.014-.163,10.65-2.228,13.029-9.013,13.446-13.356.709-7.33-2.425-16.776-8.135-21.429a17.281,17.281,0,0,0-10.982-4.135c-.861,1.755-4,2.312-5.9,2.779s-7.871-.388-11.381,2.959Z" transform="translate(-191.764 -187.929)" fill="#f7ae8c"/>
          <path id="Trazado_778545" data-name="Trazado 778545" d="M316.59,283.22a10.7,10.7,0,0,1,2.83,1.682,13.053,13.053,0,0,1,2.284,2.408,16.1,16.1,0,0,1,2.672,5.98c-.585-.928-1.12-1.862-1.676-2.774s-1.131-1.8-1.761-2.644a24.407,24.407,0,0,0-2.02-2.425c-.731-.765-1.513-1.491-2.329-2.222Z" transform="translate(-208.658 -174.351)" fill="#373735"/>
          <path id="Trazado_778546" data-name="Trazado 778546" d="M186.48,364.744c3.19-5.136,9.738-7.437,15.42-9.508a60.479,60.479,0,0,0,15.437-8.349c2.852-2.132,4.754-6.115,8-7.584s9.406-1.615,12.382.349a27.029,27.029,0,0,1,11.533,24.821s-25.378,2.245-39.111,3a67.029,67.029,0,0,1-23.657-2.729Z" transform="translate(-151.746 -198.396)" fill="#ff7a9a"/>
          <path id="Trazado_778547" data-name="Trazado 778547" d="M249.343,376.049c.962-.242-.011,2.014-.1,3.077,0,0-25.378,2.245-39.111,3A67.028,67.028,0,0,1,186.48,379.4c1.744-2.959,5.322-5.541,10.644-7.7,0,0,13.271,14.093,52.213,4.349Z" transform="translate(-151.746 -213.054)" fill="#ff7a9a" opacity="0.54"/>
          <g id="Grupo_1046441" data-name="Grupo 1046441" transform="translate(58.7 149.466)">
            <path id="Trazado_778548" data-name="Trazado 778548" d="M258.993,368.54a35.1,35.1,0,0,1-10.835-8.135c-.686-.76-1.215-2.008-1.84-2.824s-2.11-1.136-2.56-.214a3.661,3.661,0,0,0-.079,1.53c-.006.518-.371,1.142-.878,1.03a.922.922,0,0,1-.45-.3,21.256,21.256,0,0,1-1.806-2.852c-.647-.928-1.812-1.693-2.864-1.277a2.24,2.24,0,0,0-1.046,2.712,6.481,6.481,0,0,0,1.823,2.577,14.443,14.443,0,0,0-2.329-2.537,2.228,2.228,0,0,0-1.136-.619c-1-.118-1.7,1.013-1.772,2.008-.118,1.823.973,3.482,2.02,4.979a21.128,21.128,0,0,0-2.053-2.205,2.339,2.339,0,0,0-1.046-.653c-1.08-.214-1.885,1.125-1.744,2.217a18.5,18.5,0,0,0,1.165,3.072,1.365,1.365,0,0,0-2.425.068c-.174.518.107,1.046.18,1.586.467,3.336,6.188,7.46,6.188,7.46a121.823,121.823,0,0,0,12.371,8.849" transform="translate(-229.08 -355.383)" fill="#f7c5b4"/>
            <path id="Trazado_778549" data-name="Trazado 778549" d="M289.612,383.489a53.646,53.646,0,0,1-16.005-4.709L262.49,395.258a56.322,56.322,0,0,0,13.643,6.166l13.474-17.935Z" transform="translate(-243.694 -365.617)" fill="#90e3c6"/>
          </g>
          <path id="Trazado_778550" data-name="Trazado 778550" d="M328.638,325.263c2.391,7.4,2.267,16.793-4.726,22.143-12.051,9.221-25.682,3.719-25.682,3.719.017-3.966,3.027-7.854,6.492-9.783.4-.225.8-.444,1.2-.669a7.105,7.105,0,0,0,7.64.849c2.368-1.333,3.527-4.658,2.143-6.993-1.108-1.868-3.5-2.875-4.129-4.951a7.235,7.235,0,0,1-3.82-4.512,6.479,6.479,0,0,1,1.4-5.4,7.1,7.1,0,0,1-.433-8.444,7.5,7.5,0,0,1,8.051-2.813A7.965,7.965,0,0,1,322.286,315c4.214.878,7.325,6.07,6.357,10.267Z" transform="translate(-200.627 -185.249)" fill="#373735" stroke="#373735" stroke-miterlimit="10" stroke-width="1"/>
          <path id="Trazado_778551" data-name="Trazado 778551" d="M270.566,325.136a4.712,4.712,0,0,1,1.356,1.491,6.075,6.075,0,0,1,.737,1.9,5.9,5.9,0,0,1,.079,2.037,4.587,4.587,0,0,1-.653,1.907c-.017-.675-.034-1.305-.084-1.93a15.23,15.23,0,0,0-.27-1.828,16.693,16.693,0,0,0-.478-1.783c-.2-.591-.439-1.176-.692-1.8Z" transform="translate(-188.524 -192.683)" fill="#373735"/>
          <path id="Trazado_778552" data-name="Trazado 778552" d="M196.61,115.686c-2.205,11.944-.045,30,2.52,39.493,1.041,3.859,2.16,7.848,4.647,10.982,12.281,15.471,28.652,10.582,34.031,7.044a25.037,25.037,0,0,0,9.53-11.252,80.565,80.565,0,0,0,5.885-37.856s3.24-27.06-31.049-27.06c0,0-21.884-1.3-25.569,18.644Z" transform="translate(-155.777 -92.904)" fill="#f7c5b4"/>
          <path id="Trazado_778553" data-name="Trazado 778553" d="M227.79,234.56a25.926,25.926,0,0,0,21.552.152s-2.318,5.024-9.862,5.26c-8.8.276-11.69-5.412-11.69-5.412Z" transform="translate(-169.815 -153.066)" fill="#373735" stroke="#373735" stroke-miterlimit="10" stroke-width="1"/>
          <path id="Trazado_778554" data-name="Trazado 778554" d="M245.9,175.688c.2.8.383,1.6.529,2.408s.3,1.615.411,2.436c.062.416.113.81.141,1.266a3.005,3.005,0,0,1-.034.737,1.853,1.853,0,0,1-.332.8,2.317,2.317,0,0,1-1.328.81,5.282,5.282,0,0,1-1.305.124.371.371,0,0,1-.366-.377.375.375,0,0,1,.259-.349h0c.388-.124.765-.242,1.091-.383a1.552,1.552,0,0,0,.7-.5,1.446,1.446,0,0,0,.146-.816c-.017-.366-.062-.776-.1-1.176l-.253-2.43c-.09-.81-.163-1.626-.231-2.442a.338.338,0,0,1,.664-.113Z" transform="translate(-176.74 -127.201)" fill="#da806c"/>
          <g id="Grupo_1046442" data-name="Grupo 1046442" transform="translate(76.082 51.911)">
            <path id="Trazado_778555" data-name="Trazado 778555" d="M260.4,182.068a7.284,7.284,0,0,0,2.9,2.093,8.913,8.913,0,0,0,3.522.63,12.036,12.036,0,0,0,3.477-.579,6.455,6.455,0,0,0,2.925-1.66h.006a.245.245,0,0,1,.422.225,3.185,3.185,0,0,1-1.215,1.637,5.83,5.83,0,0,1-1.795.872,9.654,9.654,0,0,1-3.859.36,11.27,11.27,0,0,1-3.685-1.024,9.618,9.618,0,0,1-3.06-2.245.239.239,0,1,1,.349-.326l.011.011h0Z" transform="translate(-259.976 -181.976)" fill="#373735"/>
            <path id="Trazado_778556" data-name="Trazado 778556" d="M271.154,187.755a1.857,1.857,0,0,1,.2.748,1.777,1.777,0,0,1-.1.765.19.19,0,0,1-.354-.011h0a2.99,2.99,0,0,1-.113-.72,3.2,3.2,0,0,1,.039-.726h0a.168.168,0,0,1,.2-.135.175.175,0,0,1,.113.084Z" transform="translate(-264.704 -184.467)" fill="#373735"/>
            <path id="Trazado_778557" data-name="Trazado 778557" d="M276.8,187.565a1.374,1.374,0,0,1,.332.591,1.249,1.249,0,0,1,.011.675.191.191,0,0,1-.242.124.2.2,0,0,1-.107-.084h0a2.444,2.444,0,0,1-.208-.574,2.884,2.884,0,0,1-.079-.6h0a.173.173,0,0,1,.18-.174.162.162,0,0,1,.118.051Z" transform="translate(-267.208 -184.401)" fill="#373735"/>
            <path id="Trazado_778558" data-name="Trazado 778558" d="M280.954,186.091a1.909,1.909,0,0,1,.354.461,1.838,1.838,0,0,1,.214.54h0a.194.194,0,0,1-.163.225.206.206,0,0,1-.129-.022,1.2,1.2,0,0,1-.416-.473,1.4,1.4,0,0,1-.163-.608.182.182,0,0,1,.186-.174.167.167,0,0,1,.113.045h0Z" transform="translate(-269.019 -183.754)" fill="#373735"/>
            <path id="Trazado_778559" data-name="Trazado 778559" d="M283.187,184.1a1.321,1.321,0,0,1,.473.281,1.213,1.213,0,0,1,.321.45.2.2,0,0,1-.124.253.211.211,0,0,1-.118,0,1.245,1.245,0,0,1-.467-.293,1.357,1.357,0,0,1-.309-.461.18.18,0,0,1,.113-.231.173.173,0,0,1,.107,0Z" transform="translate(-270.026 -182.903)" fill="#373735"/>
          </g>
          <g id="Grupo_1046443" data-name="Grupo 1046443" transform="translate(46.124 51.919)">
            <path id="Trazado_778560" data-name="Trazado 778560" d="M220.858,182.39a9.767,9.767,0,0,1-3.06,2.245,11.232,11.232,0,0,1-3.685,1.024,9.563,9.563,0,0,1-3.859-.36,5.83,5.83,0,0,1-1.795-.872,3.185,3.185,0,0,1-1.215-1.637.251.251,0,0,1,.169-.3.231.231,0,0,1,.248.073h.006a6.385,6.385,0,0,0,2.925,1.665,12.23,12.23,0,0,0,3.477.579,8.718,8.718,0,0,0,3.522-.63,7.379,7.379,0,0,0,2.9-2.093h0a.236.236,0,0,1,.338-.034.24.24,0,0,1,.028.338l-.011.011Z" transform="translate(-206.948 -181.991)" fill="#373735"/>
            <path id="Trazado_778561" data-name="Trazado 778561" d="M220.257,187.8a3.194,3.194,0,0,1,.039.726,2.991,2.991,0,0,1-.113.72h0a.188.188,0,0,1-.242.118.191.191,0,0,1-.113-.107,1.789,1.789,0,0,1-.1-.765,1.98,1.98,0,0,1,.2-.748.168.168,0,0,1,.236-.062.17.17,0,0,1,.084.113h0Z" transform="translate(-212.412 -184.468)" fill="#373735"/>
            <path id="Trazado_778562" data-name="Trazado 778562" d="M214.513,187.692a2.883,2.883,0,0,1-.079.6,2.407,2.407,0,0,1-.208.568h0a.191.191,0,0,1-.264.073.178.178,0,0,1-.084-.107,1.249,1.249,0,0,1,.011-.675,1.375,1.375,0,0,1,.332-.591.177.177,0,0,1,.248.006.179.179,0,0,1,.045.113h0Z" transform="translate(-209.835 -184.407)" fill="#373735"/>
            <path id="Trazado_778563" data-name="Trazado 778563" d="M210.2,186.227a1.305,1.305,0,0,1-.163.608,1.239,1.239,0,0,1-.416.473.192.192,0,0,1-.264-.068.206.206,0,0,1-.022-.129h0a1.755,1.755,0,0,1,.214-.546,2.245,2.245,0,0,1,.354-.461h0a.177.177,0,0,1,.3.124Z" transform="translate(-207.867 -183.769)" fill="#373735"/>
            <path id="Trazado_778564" data-name="Trazado 778564" d="M207.757,184.335a1.414,1.414,0,0,1-.309.461,1.14,1.14,0,0,1-.467.293.206.206,0,0,1-.248-.135.211.211,0,0,1,0-.118,1.2,1.2,0,0,1,.321-.45,1.289,1.289,0,0,1,.473-.281.182.182,0,0,1,.225.124.173.173,0,0,1,0,.107Z" transform="translate(-206.725 -182.912)" fill="#373735"/>
          </g>
          <g id="Grupo_1046444" data-name="Grupo 1046444" transform="translate(41.558 41.105)">
            <path id="Trazado_778565" data-name="Trazado 778565" d="M276.84,174.544a11.672,11.672,0,0,1-19.927,8.36,11.763,11.763,0,0,1-.006-16.726,11.7,11.7,0,0,1,19.966,8.366h-.034Zm-.8,0a10.661,10.661,0,0,0-18.216-7.454,10.608,10.608,0,0,0,0,14.908,10.712,10.712,0,0,0,18.256-7.454h-.034Z" transform="translate(-222.585 -162.769)" fill="#373735"/>
            <path id="Trazado_778566" data-name="Trazado 778566" d="M222.03,174.544A11.672,11.672,0,0,1,202.1,182.9a11.763,11.763,0,0,1-.006-16.726,11.7,11.7,0,0,1,19.966,8.366Zm-.8,0a10.661,10.661,0,0,0-18.216-7.454,10.608,10.608,0,0,0,0,14.908,10.712,10.712,0,0,0,18.256-7.454h-.034Z" transform="translate(-198.61 -162.769)" fill="#373735"/>
            <path id="Trazado_778567" data-name="Trazado 778567" d="M239.16,178.179s4.984-4.3,8.658-.276" transform="translate(-216.347 -168.637)" fill="none" stroke="#373735" stroke-miterlimit="10" stroke-width="2.2"/>
          </g>
          <path id="Trazado_778568" data-name="Trazado 778568" d="M295.84,176.125a2.474,2.474,0,0,0,3.454.231,5.573,5.573,0,0,0,1.716-3.4,16.08,16.08,0,0,0,.281-3.781,4.151,4.151,0,0,0-.771-2.56,2.346,2.346,0,0,0-4.112,1.249Z" transform="translate(-199.582 -122.991)" fill="#f7c5b4"/>
          <path id="Trazado_778569" data-name="Trazado 778569" d="M214.99,106.284c-.951,1.648-4.073,4.506-5.508,5.761-7.674,6.734-15.308,13.136-17.384,23.133-.231,1.1-.534,2.4-1.581,2.807a2.192,2.192,0,0,1-2.458-.962,6.457,6.457,0,0,1-.855-2.695c-1.114-7.089-2.053-14.419-.276-21.372a28.475,28.475,0,0,1,12.54-17.007c2.008-1.232,9.283-3.685,13.187-.658,3.19,2.475,5.418,8.377,2.329,10.987" transform="translate(-151.508 -91.513)" fill="#373735"/>
          <path id="Trazado_778570" data-name="Trazado 778570" d="M193.691,167.864a2.8,2.8,0,0,0-1.648-1.969,2.394,2.394,0,0,0-2.464.72,4.15,4.15,0,0,0-.771,2.56,16.077,16.077,0,0,0,.281,3.781,5.558,5.558,0,0,0,1.716,3.4,2.476,2.476,0,0,0,3.46-.231,19.234,19.234,0,0,0-.568-8.259Z" transform="translate(-152.757 -122.989)" fill="#f7c5b4"/>
          <g id="Grupo_1046445" data-name="Grupo 1046445" transform="translate(38.042 45.449)">
            <path id="Trazado_778571" data-name="Trazado 778571" d="M192.36,170.49a5.657,5.657,0,0,1,1.345,5.856" transform="translate(-192.36 -170.49)" fill="none" stroke="#da806c" stroke-linecap="round" stroke-linejoin="round" stroke-width="0.81"/>
            <path id="Trazado_778572" data-name="Trazado 778572" d="M193.75,174.45a1.778,1.778,0,0,0-.9,2.515" transform="translate(-192.478 -172.222)" fill="none" stroke="#da806c" stroke-linecap="round" stroke-linejoin="round" stroke-width="0.81"/>
          </g>
          <g id="Grupo_1046446" data-name="Grupo 1046446" transform="translate(97.742 45.55)">
            <path id="Trazado_778573" data-name="Trazado 778573" d="M300.138,170.67a5.657,5.657,0,0,0-1.345,5.856" transform="translate(-298.477 -170.67)" fill="none" stroke="#da806c" stroke-linecap="round" stroke-linejoin="round" stroke-width="0.81"/>
            <path id="Trazado_778574" data-name="Trazado 778574" d="M299.17,174.63a1.778,1.778,0,0,1,.9,2.515" transform="translate(-298.78 -172.402)" fill="none" stroke="#da806c" stroke-linecap="round" stroke-linejoin="round" stroke-width="0.81"/>
          </g>
          <path id="Trazado_778575" data-name="Trazado 778575" d="M247.653,200.429a6.484,6.484,0,0,1-2,1.5,7.671,7.671,0,0,1-2.413.72,7.4,7.4,0,0,1-2.515-.113,6.4,6.4,0,0,1-2.3-.985.344.344,0,0,1-.084-.478.338.338,0,0,1,.411-.118h0a8.695,8.695,0,0,0,4.354.608,8.635,8.635,0,0,0,4.118-1.592h0a.31.31,0,0,1,.439.073.329.329,0,0,1-.017.394Z" transform="translate(-174.404 -137.911)" fill="#da806c"/>
          <path id="Trazado_778576" data-name="Trazado 778576" d="M249.64,91.62a27.435,27.435,0,0,1,15.527,15.038c3.527,8.551,2.487,17.3,1.373,26.481-4.7.444-9.581-1.052-12.084-5.058-1.165-1.862-1.941-4.129-3.809-5.288-2.07-1.288-4.72-.759-7.15-.624-3.24.174-6.959-.759-8.45-3.64-.675-1.305-.8-2.852-1.558-4.107-1.024-1.7-2.993-2.565-4.433-3.938-4.152-3.966-4.405-14.2.2-18.048C234.23,88.284,244.205,89.583,249.64,91.62Z" transform="translate(-168.976 -89.704)" fill="#373735"/>
          <path id="Trazado_778577" data-name="Trazado 778577" d="M177.952,327.586a13.008,13.008,0,0,0-1.6,3.291,32.213,32.213,0,0,0-1,3.527,65.55,65.55,0,0,0-1.238,7.229c-.27,2.43-.433,4.872-.461,7.308a34.762,34.762,0,0,0,.6,7.229l-.084-.18a8.516,8.516,0,0,0,1.637,1.378,18.742,18.742,0,0,0,1.924,1.131,27.8,27.8,0,0,0,4.174,1.688,49.947,49.947,0,0,0,8.883,1.857,78.13,78.13,0,0,0,9.108.619c3.049.073,6.1-.011,9.159-.129-3.038.349-6.1.546-9.159.624a79.752,79.752,0,0,1-9.2-.338c-1.53-.141-3.055-.377-4.568-.658a38.031,38.031,0,0,1-4.5-1.1,28.277,28.277,0,0,1-4.326-1.721,17.058,17.058,0,0,1-2.025-1.193,9.264,9.264,0,0,1-1.84-1.592.367.367,0,0,1-.079-.163v-.017a32.534,32.534,0,0,1-.557-7.443,61.255,61.255,0,0,1,.647-7.387,58.7,58.7,0,0,1,1.5-7.246,33.372,33.372,0,0,1,1.193-3.5,11.906,11.906,0,0,1,1.812-3.212Z" transform="translate(-145.761 -193.755)" fill="#373735"/>
          <path id="Trazado_778578" data-name="Trazado 778578" d="M313.125,405.708a43.729,43.729,0,0,1-9.5.844,77.091,77.091,0,0,1-9.524-.782c-3.156-.439-6.284-1.075-9.4-1.767s-6.188-1.519-9.254-2.391a.324.324,0,0,1,.174-.624h0l.383.113-.18.619a50.838,50.838,0,0,1-7.06-2.667,61.757,61.757,0,0,1-6.633-3.584h0a.265.265,0,0,1-.084-.366v-.011l5.643-8.186c1.9-2.717,3.781-5.44,5.7-8.146-1.789,2.79-3.606,5.558-5.418,8.332l-5.474,8.292-.084-.377a65.514,65.514,0,0,0,6.6,3.494,50.149,50.149,0,0,0,6.993,2.588.322.322,0,1,1-.18.619l-.383-.107.18-.624c3.055.855,6.115,1.71,9.209,2.425s6.205,1.339,9.333,1.845a77.4,77.4,0,0,0,9.457.968c1.586.079,3.173.056,4.759-.006a46.321,46.321,0,0,0,4.737-.506Z" transform="translate(-184.783 -216.142)" fill="#373735"/>
        </g>
      </g>
    </g>
  </g>
</svg>
