<svg xmlns="http://www.w3.org/2000/svg" xmlns:xlink="http://www.w3.org/1999/xlink" width="110" height="110" viewBox="0 0 110 110">
  <defs>
    <clipPath id="clip-path">
      <circle id="Elipse_5462" data-name="Elipse 5462" cx="13.268" cy="13.268" r="13.268" fill="none"/>
    </clipPath>
    <clipPath id="clip-path-2">
      <circle id="Elipse_5673" data-name="Elipse 5673" cx="6.795" cy="6.795" r="6.795" fill="none"/>
    </clipPath>
  </defs>
  <g id="Grupo_1046429" data-name="Grupo 1046429" transform="translate(-210 -755)">
    <g id="Grupo_988120" data-name="Grupo 988120" transform="translate(-118 -128)">
      <circle id="Elipse_4711" data-name="Elipse 4711" cx="55" cy="55" r="55" transform="translate(328 883)" fill="#3449bc"/>
    </g>
    <g id="_162399-OVHEJN-668" data-name="162399-OVHEJN-668" transform="translate(-15.85 227.322)">
      <g id="Grupo_1046428" data-name="Grupo 1046428" transform="translate(237.267 548.798)">
        <g id="Grupo_1046413" data-name="Grupo 1046413" transform="translate(31.267 46.271)">
          <path id="Trazado_778420" data-name="Trazado 778420" d="M1529.7,2445.2c2.784-3.286,6.984-4.3,9.382-2.27s2.085,6.342-.7,9.627l-.005.006-.005.006a9.584,9.584,0,0,1-3.976,2.856,5.34,5.34,0,0,1-5.4-.6C1526.6,2452.8,1526.912,2448.49,1529.7,2445.2Z" transform="translate(-1526.755 -2441.354)" fill="#f91d1d"/>
          <ellipse id="Elipse_5249" data-name="Elipse 5249" cx="5.634" cy="3.662" rx="5.634" ry="3.662" transform="translate(0 8.597) rotate(-49.72)" fill="#dd1717"/>
          <ellipse id="Elipse_5250" data-name="Elipse 5250" cx="3.251" cy="2.113" rx="3.251" ry="2.113" transform="translate(3.335 8.368) rotate(-49.72)" fill="#f91d1d"/>
          <path id="Trazado_778421" data-name="Trazado 778421" d="M1527.659,2546.924c-.164,1.556-.038,3.5,1.3,4.578,2.47,1.976,7.9.494,10.372-3.54a6.65,6.65,0,0,0,.843-5.673c1.079,2.25.439,5.552-1.8,8.192l-.005.006-.006.006a9.584,9.584,0,0,1-3.976,2.856,5.341,5.341,0,0,1-5.4-.6C1527.464,2551.453,1527.039,2549.223,1527.659,2546.924Z" transform="translate(-1526.755 -2539.274)" fill="#cc1717"/>
          <path id="Trazado_778422" data-name="Trazado 778422" d="M1760.847,2455.653a3.711,3.711,0,0,1,3.457,1.79,5.18,5.18,0,0,1,.37,3.642c-.185.864-.8.247-.865-.988a4.515,4.515,0,0,0-1.729-3.21,4.193,4.193,0,0,0-3.642-.309c-1.049.432.062-.679,2.408-.926Z" transform="translate(-1751.71 -2454.762)" fill="#ff5050"/>
          <path id="Trazado_778423" data-name="Trazado 778423" d="M1573.99,2726.524c-1.385.554-3.025,1.111-4.26.247a3.133,3.133,0,0,1-1.173-3.58c.37-1.358.37,0,.556.8a3.071,3.071,0,0,0,1.852,2.346,6.591,6.591,0,0,0,4.075-.988c.8-.555-.123.8-1.05,1.173Z" transform="translate(-1566.766 -2715.138)" fill="#ff5050"/>
          <path id="Trazado_778424" data-name="Trazado 778424" d="M1528.159,2453.965a5.044,5.044,0,0,1-1.6-4.361,9.973,9.973,0,0,1,7.144-8.431,5.043,5.043,0,0,1,4.564.864c2.4,2.036,2.09,6.368-.7,9.657l0,0-.018-.01.013.016,0,0a9.672,9.672,0,0,1-3.984,2.862,6.882,6.882,0,0,1-2.376.452,4.617,4.617,0,0,1-3.04-1.055Zm5.553-12.752a9.929,9.929,0,0,0-7.113,8.394,5,5,0,0,0,1.587,4.326,5.287,5.287,0,0,0,5.375.6,9.631,9.631,0,0,0,3.97-2.853l.008-.01c2.772-3.271,3.086-7.578.7-9.6a4.57,4.57,0,0,0-3.012-1.043,6.46,6.46,0,0,0-1.517.188Z" transform="translate(-1525.93 -2440.471)" fill="#6d1212"/>
        </g>
        <g id="Grupo_1046414" data-name="Grupo 1046414" transform="translate(25.829 11.212)">
          <path id="Trazado_778425" data-name="Trazado 778425" d="M1283,1009.148l0-.007,0-.008a8.987,8.987,0,0,1,1.986-4.077,4.883,4.883,0,0,1,4.618-1.882,4.109,4.109,0,0,1,2.279,1.418c1.371,1.315,1.968,3.991,1.356,6.84-.721,3.356-2.872,5.8-5.01,5.865a3.893,3.893,0,0,1-1.663.01c-2.81-.6-4.409-4.257-3.57-8.16Z" transform="translate(-1282.759 -1003.07)" fill="#f91d1d"/>
          <path id="Trazado_778426" data-name="Trazado 778426" d="M1283.766,1305.233c1.692,1.451,2.664.089,2.664.089.525,2.619,3.34,4.234,5.509,1.464a7.582,7.582,0,0,0,1.217-2.252c-.793,3.169-2.866,5.443-4.926,5.5a3.9,3.9,0,0,1-1.663.01c-2.48-.533-4.015-3.44-3.766-6.8a3.381,3.381,0,0,0,.965,1.983Z" transform="translate(-1282.754 -1295.809)" fill="#cc1717"/>
          <ellipse id="Elipse_5251" data-name="Elipse 5251" cx="5.223" cy="3.11" rx="5.223" ry="3.11" transform="translate(2.536 12.025) rotate(-77.87)" fill="#dd1717"/>
          <ellipse id="Elipse_5252" data-name="Elipse 5252" cx="3.242" cy="1.93" rx="3.242" ry="1.93" transform="translate(3.166 10.07) rotate(-77.87)" fill="#c11010"/>
          <path id="Trazado_778427" data-name="Trazado 778427" d="M1331.744,1010.862a3.575,3.575,0,0,1,3.446.3c1.753,1.237-.943.247-1.773.472s-1.627.326-2.648,2.516-2.143,1.539-2.278.865S1329.421,1012.086,1331.744,1010.862Z" transform="translate(-1327.33 -1010.35)" fill="#ff5050"/>
          <path id="Trazado_778428" data-name="Trazado 778428" d="M1499.674,1301.534a10.529,10.529,0,0,1-1.85,3.29c-1.155,1.224-2.278.574-2.536.159s1.033.2,1.93-.562a6.642,6.642,0,0,0,2.1-3.806C1499.359,1299.379,1499.909,1300.67,1499.674,1301.534Z" transform="translate(-1489.98 -1292.741)" fill="#ff5050"/>
          <path id="Trazado_778429" data-name="Trazado 778429" d="M1287.442,1016.529a3.919,3.919,0,0,1-1.671.01,4.6,4.6,0,0,1-3.167-2.854,8.807,8.807,0,0,1-.418-5.329v0l.019,0-.018-.008v0a9.062,9.062,0,0,1,1.991-4.085,4.871,4.871,0,0,1,4.636-1.888,4.144,4.144,0,0,1,2.288,1.423,5.418,5.418,0,0,1,1.427,2.855,9.838,9.838,0,0,1-.066,4,9.548,9.548,0,0,1-1.978,4.176,4.706,4.706,0,0,1-2.546,1.646,2.989,2.989,0,0,1-.5.058Zm-3.233-12.248a9.027,9.027,0,0,0-1.983,4.071l0,.011a8.769,8.769,0,0,0,.415,5.306,4.563,4.563,0,0,0,3.14,2.832,3.88,3.88,0,0,0,1.658-.01,4.323,4.323,0,0,0,3.022-1.691,9.51,9.51,0,0,0,1.97-4.159c.6-2.784.068-5.462-1.352-6.824a4.11,4.11,0,0,0-2.269-1.412,3.879,3.879,0,0,0-1.589-.006,5.541,5.541,0,0,0-3.011,1.882Z" transform="translate(-1281.962 -1002.281)" fill="#6d1212"/>
        </g>
        <g id="Grupo_1046415" data-name="Grupo 1046415" transform="translate(7.215 26.763)">
          <path id="Trazado_778430" data-name="Trazado 778430" d="M540.132,1634.518l-2.391-.818-2.248-.769-2.391-.818a2.3,2.3,0,1,0-1.472,4.3l2.391.818,2.248.769,2.391.818a2.3,2.3,0,1,0,1.472-4.3Z" transform="translate(-529.753 -1631.955)" fill="#f91d1d"/>
          <path id="Trazado_778431" data-name="Trazado 778431" d="M541.795,1643.444a3.316,3.316,0,0,1-1.622.579c-1.921.186-7.7-2.681-8.652-3.518s-1.264-1.847-.191-2.745a2.16,2.16,0,0,0-1.445,1.293,2.6,2.6,0,0,0,1.765,3.007l2.391.818,2.248.769,2.391.818a2.7,2.7,0,0,0,3.115-1.021Z" transform="translate(-529.772 -1637.599)" fill="#cc1717"/>
          <path id="Trazado_778432" data-name="Trazado 778432" d="M612.917,1649.8s6.393,2.083,7.228,2.369a1.924,1.924,0,0,1,1.413,1.365c.1.555-1.129-.128-2.069-.61a44.4,44.4,0,0,0-6.453-2.43c-1.634-.363-1.011-.9-.119-.694Z" transform="translate(-609.969 -1649.3)" fill="#ff5050"/>
          <path id="Trazado_778433" data-name="Trazado 778433" d="M530.271,1635.393a3,3,0,0,1-.815-.868,1.973,1.973,0,0,1,1.049-3.067,2.915,2.915,0,0,1,1.931-.047l7.03,2.4a2.916,2.916,0,0,1,1.5,1.22,1.973,1.973,0,0,1-1.049,3.067,2.914,2.914,0,0,1-1.931.047l-7.03-2.4a2.708,2.708,0,0,1-.683-.353Zm9.19-1.561-.005.016-7.03-2.4a2.881,2.881,0,0,0-1.909.047,1.94,1.94,0,0,0-1.032,3.018,2.882,2.882,0,0,0,1.48,1.206l7.03,2.4a2.881,2.881,0,0,0,1.909-.047,1.939,1.939,0,0,0,1.032-3.018,2.88,2.88,0,0,0-1.48-1.206l.005-.016Z" transform="translate(-529.082 -1631.269)" fill="#6d1212"/>
        </g>
        <g id="Grupo_1046417" data-name="Grupo 1046417" transform="translate(48.246 45.026)">
          <g id="Grupo_1046416" data-name="Grupo 1046416" transform="translate(0.099 0.099)" clip-path="url(#clip-path)">
            <rect id="Rect치ngulo_356572" data-name="Rect치ngulo 356572" width="26.535" height="26.535" transform="translate(0 0)" fill="#ff5252"/>
            <ellipse id="Elipse_5253" data-name="Elipse 5253" cx="13.118" cy="12.779" rx="13.118" ry="12.779" transform="translate(-0.088 0.172)" fill="#ff5252"/>
            <ellipse id="Elipse_5254" data-name="Elipse 5254" cx="13.099" cy="12.76" rx="13.099" ry="12.76" transform="translate(-0.069 0.191)" fill="#fe5151"/>
            <ellipse id="Elipse_5255" data-name="Elipse 5255" cx="13.08" cy="12.741" rx="13.08" ry="12.741" transform="translate(-0.05 0.21)" fill="#fd5151"/>
            <ellipse id="Elipse_5256" data-name="Elipse 5256" cx="13.06" cy="12.723" rx="13.06" ry="12.723" transform="translate(-0.03 0.228)" fill="#fc5050"/>
            <ellipse id="Elipse_5257" data-name="Elipse 5257" cx="13.041" cy="12.704" rx="13.041" ry="12.704" transform="translate(-0.011 0.247)" fill="#fb5050"/>
            <ellipse id="Elipse_5258" data-name="Elipse 5258" cx="13.022" cy="12.685" rx="13.022" ry="12.685" transform="translate(0.008 0.266)" fill="#fa4f4f"/>
            <ellipse id="Elipse_5259" data-name="Elipse 5259" cx="13.002" cy="12.666" rx="13.002" ry="12.666" transform="translate(0.028 0.285)" fill="#f94f4f"/>
            <ellipse id="Elipse_5260" data-name="Elipse 5260" cx="12.983" cy="12.647" rx="12.983" ry="12.647" transform="translate(0.047 0.304)" fill="#f84e4e"/>
            <ellipse id="Elipse_5261" data-name="Elipse 5261" cx="12.964" cy="12.628" rx="12.964" ry="12.628" transform="translate(0.067 0.323)" fill="#f74e4e"/>
            <ellipse id="Elipse_5262" data-name="Elipse 5262" cx="12.944" cy="12.61" rx="12.944" ry="12.61" transform="translate(0.086 0.341)" fill="#f64d4d"/>
            <ellipse id="Elipse_5263" data-name="Elipse 5263" cx="12.925" cy="12.591" rx="12.925" ry="12.591" transform="translate(0.105 0.36)" fill="#f54d4d"/>
            <ellipse id="Elipse_5264" data-name="Elipse 5264" cx="12.906" cy="12.572" rx="12.906" ry="12.572" transform="translate(0.125 0.379)" fill="#f44c4c"/>
            <ellipse id="Elipse_5265" data-name="Elipse 5265" cx="12.886" cy="12.553" rx="12.886" ry="12.553" transform="translate(0.144 0.398)" fill="#f34c4c"/>
            <ellipse id="Elipse_5266" data-name="Elipse 5266" cx="12.867" cy="12.534" rx="12.867" ry="12.534" transform="translate(0.163 0.417)" fill="#f24b4b"/>
            <ellipse id="Elipse_5267" data-name="Elipse 5267" cx="12.847" cy="12.515" rx="12.847" ry="12.515" transform="translate(0.183 0.436)" fill="#f14b4b"/>
            <ellipse id="Elipse_5268" data-name="Elipse 5268" cx="12.828" cy="12.496" rx="12.828" ry="12.496" transform="translate(0.202 0.455)" fill="#f04a4a"/>
            <ellipse id="Elipse_5269" data-name="Elipse 5269" cx="12.809" cy="12.478" rx="12.809" ry="12.478" transform="translate(0.221 0.473)" fill="#ef4a4a"/>
            <ellipse id="Elipse_5270" data-name="Elipse 5270" cx="12.789" cy="12.459" rx="12.789" ry="12.459" transform="translate(0.241 0.493)" fill="#ee4949"/>
            <ellipse id="Elipse_5271" data-name="Elipse 5271" cx="12.77" cy="12.44" rx="12.77" ry="12.44" transform="translate(0.26 0.511)" fill="#ed4949"/>
            <ellipse id="Elipse_5272" data-name="Elipse 5272" cx="12.751" cy="12.421" rx="12.751" ry="12.421" transform="translate(0.279 0.53)" fill="#ec4848"/>
            <ellipse id="Elipse_5273" data-name="Elipse 5273" cx="12.731" cy="12.402" rx="12.731" ry="12.402" transform="translate(0.299 0.549)" fill="#eb4848"/>
            <ellipse id="Elipse_5274" data-name="Elipse 5274" cx="12.712" cy="12.383" rx="12.712" ry="12.383" transform="translate(0.318 0.568)" fill="#ea4747"/>
            <ellipse id="Elipse_5275" data-name="Elipse 5275" cx="12.693" cy="12.364" rx="12.693" ry="12.364" transform="translate(0.337 0.587)" fill="#e94747"/>
            <ellipse id="Elipse_5276" data-name="Elipse 5276" cx="12.673" cy="12.346" rx="12.673" ry="12.346" transform="translate(0.357 0.605)" fill="#e84646"/>
            <ellipse id="Elipse_5277" data-name="Elipse 5277" cx="12.654" cy="12.327" rx="12.654" ry="12.327" transform="translate(0.376 0.624)" fill="#e74646"/>
            <ellipse id="Elipse_5278" data-name="Elipse 5278" cx="12.635" cy="12.308" rx="12.635" ry="12.308" transform="translate(0.396 0.643)" fill="#e64545"/>
            <ellipse id="Elipse_5279" data-name="Elipse 5279" cx="12.615" cy="12.289" rx="12.615" ry="12.289" transform="translate(0.415 0.662)" fill="#e44545"/>
            <ellipse id="Elipse_5280" data-name="Elipse 5280" cx="12.596" cy="12.27" rx="12.596" ry="12.27" transform="translate(0.434 0.681)" fill="#e34444"/>
            <ellipse id="Elipse_5281" data-name="Elipse 5281" cx="12.576" cy="12.251" rx="12.576" ry="12.251" transform="translate(0.454 0.7)" fill="#e24444"/>
            <ellipse id="Elipse_5282" data-name="Elipse 5282" cx="12.557" cy="12.232" rx="12.557" ry="12.232" transform="translate(0.473 0.719)" fill="#e14343"/>
            <ellipse id="Elipse_5283" data-name="Elipse 5283" cx="12.538" cy="12.214" rx="12.538" ry="12.214" transform="translate(0.492 0.738)" fill="#e04343"/>
            <ellipse id="Elipse_5284" data-name="Elipse 5284" cx="12.518" cy="12.195" rx="12.518" ry="12.195" transform="translate(0.512 0.756)" fill="#df4242"/>
            <ellipse id="Elipse_5285" data-name="Elipse 5285" cx="12.499" cy="12.176" rx="12.499" ry="12.176" transform="translate(0.531 0.775)" fill="#de4242"/>
            <ellipse id="Elipse_5286" data-name="Elipse 5286" cx="12.48" cy="12.157" rx="12.48" ry="12.157" transform="translate(0.55 0.794)" fill="#dd4141"/>
            <ellipse id="Elipse_5287" data-name="Elipse 5287" cx="12.46" cy="12.138" rx="12.46" ry="12.138" transform="translate(0.57 0.813)" fill="#dc4141"/>
            <ellipse id="Elipse_5288" data-name="Elipse 5288" cx="12.441" cy="12.119" rx="12.441" ry="12.119" transform="translate(0.589 0.832)" fill="#db4040"/>
            <ellipse id="Elipse_5289" data-name="Elipse 5289" cx="12.422" cy="12.101" rx="12.422" ry="12.101" transform="translate(0.608 0.851)" fill="#da4040"/>
            <ellipse id="Elipse_5290" data-name="Elipse 5290" cx="12.402" cy="12.081" rx="12.402" ry="12.081" transform="translate(0.628 0.87)" fill="#d93f3f"/>
            <ellipse id="Elipse_5291" data-name="Elipse 5291" cx="12.383" cy="12.063" rx="12.383" ry="12.063" transform="translate(0.647 0.888)" fill="#d83f3f"/>
            <ellipse id="Elipse_5292" data-name="Elipse 5292" cx="12.364" cy="12.044" rx="12.364" ry="12.044" transform="translate(0.667 0.907)" fill="#d73e3e"/>
            <ellipse id="Elipse_5293" data-name="Elipse 5293" cx="12.344" cy="12.025" rx="12.344" ry="12.025" transform="translate(0.686 0.926)" fill="#d63e3e"/>
            <ellipse id="Elipse_5294" data-name="Elipse 5294" cx="12.325" cy="12.006" rx="12.325" ry="12.006" transform="translate(0.705 0.945)" fill="#d53d3d"/>
            <ellipse id="Elipse_5295" data-name="Elipse 5295" cx="12.305" cy="11.987" rx="12.305" ry="11.987" transform="translate(0.725 0.964)" fill="#d43d3d"/>
            <ellipse id="Elipse_5296" data-name="Elipse 5296" cx="12.286" cy="11.968" rx="12.286" ry="11.968" transform="translate(0.744 0.983)" fill="#d33c3c"/>
            <ellipse id="Elipse_5297" data-name="Elipse 5297" cx="12.267" cy="11.95" rx="12.267" ry="11.95" transform="translate(0.763 1.001)" fill="#d23c3c"/>
            <ellipse id="Elipse_5298" data-name="Elipse 5298" cx="12.247" cy="11.931" rx="12.247" ry="11.931" transform="translate(0.783 1.02)" fill="#d13b3b"/>
            <ellipse id="Elipse_5299" data-name="Elipse 5299" cx="12.228" cy="11.912" rx="12.228" ry="11.912" transform="translate(0.802 1.039)" fill="#d03b3b"/>
            <ellipse id="Elipse_5300" data-name="Elipse 5300" cx="12.209" cy="11.893" rx="12.209" ry="11.893" transform="translate(0.821 1.058)" fill="#cf3a3a"/>
            <ellipse id="Elipse_5301" data-name="Elipse 5301" cx="12.19" cy="11.874" rx="12.19" ry="11.874" transform="translate(0.841 1.077)" fill="#ce3a3a"/>
            <ellipse id="Elipse_5302" data-name="Elipse 5302" cx="12.17" cy="11.855" rx="12.17" ry="11.855" transform="translate(0.86 1.096)" fill="#cd3939"/>
            <ellipse id="Elipse_5303" data-name="Elipse 5303" cx="12.151" cy="11.836" rx="12.151" ry="11.836" transform="translate(0.879 1.115)" fill="#cc3939"/>
            <ellipse id="Elipse_5304" data-name="Elipse 5304" cx="12.131" cy="11.818" rx="12.131" ry="11.818" transform="translate(0.899 1.133)" fill="#cb3838"/>
            <ellipse id="Elipse_5305" data-name="Elipse 5305" cx="12.112" cy="11.799" rx="12.112" ry="11.799" transform="translate(0.918 1.152)" fill="#cb3838"/>
            <ellipse id="Elipse_5306" data-name="Elipse 5306" cx="12.074" cy="11.762" rx="12.074" ry="11.762" transform="translate(0.956 1.189)" fill="#ca3737"/>
            <ellipse id="Elipse_5307" data-name="Elipse 5307" cx="12.037" cy="11.725" rx="12.037" ry="11.725" transform="translate(0.993 1.226)" fill="#c93636"/>
            <ellipse id="Elipse_5308" data-name="Elipse 5308" cx="11.999" cy="11.689" rx="11.999" ry="11.689" transform="translate(1.031 1.262)" fill="#c83535"/>
            <ellipse id="Elipse_5309" data-name="Elipse 5309" cx="11.961" cy="11.652" rx="11.961" ry="11.652" transform="translate(1.069 1.299)" fill="#c73434"/>
            <ellipse id="Elipse_5310" data-name="Elipse 5310" cx="11.923" cy="11.615" rx="11.923" ry="11.615" transform="translate(1.107 1.336)" fill="#c63333"/>
            <ellipse id="Elipse_5311" data-name="Elipse 5311" cx="11.886" cy="11.578" rx="11.886" ry="11.578" transform="translate(1.144 1.373)" fill="#c63232"/>
            <ellipse id="Elipse_5312" data-name="Elipse 5312" cx="11.848" cy="11.542" rx="11.848" ry="11.542" transform="translate(1.182 1.409)" fill="#c53131"/>
            <ellipse id="Elipse_5313" data-name="Elipse 5313" cx="11.81" cy="11.505" rx="11.81" ry="11.505" transform="translate(1.22 1.446)" fill="#c43030"/>
            <ellipse id="Elipse_5314" data-name="Elipse 5314" cx="11.773" cy="11.468" rx="11.773" ry="11.468" transform="translate(1.257 1.483)" fill="#c32f2f"/>
            <ellipse id="Elipse_5315" data-name="Elipse 5315" cx="11.735" cy="11.431" rx="11.735" ry="11.431" transform="translate(1.295 1.52)" fill="#c22e2e"/>
            <ellipse id="Elipse_5316" data-name="Elipse 5316" cx="11.697" cy="11.395" rx="11.697" ry="11.395" transform="translate(1.333 1.556)" fill="#c12d2d"/>
            <ellipse id="Elipse_5317" data-name="Elipse 5317" cx="11.659" cy="11.358" rx="11.659" ry="11.358" transform="translate(1.371 1.593)" fill="#c02c2c"/>
            <ellipse id="Elipse_5318" data-name="Elipse 5318" cx="11.622" cy="11.321" rx="11.622" ry="11.321" transform="translate(1.408 1.63)" fill="#bf2b2b"/>
            <ellipse id="Elipse_5319" data-name="Elipse 5319" cx="11.584" cy="11.285" rx="11.584" ry="11.285" transform="translate(1.446 1.666)" fill="#be2a2a"/>
            <ellipse id="Elipse_5320" data-name="Elipse 5320" cx="11.546" cy="11.248" rx="11.546" ry="11.248" transform="translate(1.484 1.703)" fill="#bd2929"/>
            <ellipse id="Elipse_5321" data-name="Elipse 5321" cx="11.509" cy="11.211" rx="11.509" ry="11.211" transform="translate(1.522 1.74)" fill="#bc2828"/>
            <ellipse id="Elipse_5322" data-name="Elipse 5322" cx="11.471" cy="11.174" rx="11.471" ry="11.174" transform="translate(1.559 1.777)" fill="#bc2727"/>
            <ellipse id="Elipse_5323" data-name="Elipse 5323" cx="11.433" cy="11.138" rx="11.433" ry="11.138" transform="translate(1.597 1.814)" fill="#bb2626"/>
            <ellipse id="Elipse_5324" data-name="Elipse 5324" cx="11.396" cy="11.101" rx="11.396" ry="11.101" transform="translate(1.635 1.85)" fill="#ba2525"/>
            <ellipse id="Elipse_5325" data-name="Elipse 5325" cx="11.358" cy="11.064" rx="11.358" ry="11.064" transform="translate(1.672 1.887)" fill="#b92424"/>
            <ellipse id="Elipse_5326" data-name="Elipse 5326" cx="11.32" cy="11.027" rx="11.32" ry="11.027" transform="translate(1.71 1.924)" fill="#b82323"/>
            <ellipse id="Elipse_5327" data-name="Elipse 5327" cx="11.282" cy="10.991" rx="11.282" ry="10.991" transform="translate(1.748 1.96)" fill="#b72222"/>
            <ellipse id="Elipse_5328" data-name="Elipse 5328" cx="11.245" cy="10.954" rx="11.245" ry="10.954" transform="translate(1.785 1.997)" fill="#b62121"/>
            <ellipse id="Elipse_5329" data-name="Elipse 5329" cx="11.207" cy="10.917" rx="11.207" ry="10.917" transform="translate(1.823 2.034)" fill="#b52020"/>
            <ellipse id="Elipse_5330" data-name="Elipse 5330" cx="11.169" cy="10.88" rx="11.169" ry="10.88" transform="translate(1.861 2.071)" fill="#b41f1f"/>
            <ellipse id="Elipse_5331" data-name="Elipse 5331" cx="11.132" cy="10.844" rx="11.132" ry="10.844" transform="translate(1.899 2.107)" fill="#b31e1e"/>
            <ellipse id="Elipse_5332" data-name="Elipse 5332" cx="11.094" cy="10.807" rx="11.094" ry="10.807" transform="translate(1.936 2.144)" fill="#b21d1d"/>
            <ellipse id="Elipse_5333" data-name="Elipse 5333" cx="11.056" cy="10.77" rx="11.056" ry="10.77" transform="translate(1.974 2.181)" fill="#b21b1b"/>
            <ellipse id="Elipse_5334" data-name="Elipse 5334" cx="11.019" cy="10.734" rx="11.019" ry="10.734" transform="translate(2.012 2.218)" fill="#b11a1a"/>
            <ellipse id="Elipse_5335" data-name="Elipse 5335" cx="10.981" cy="10.697" rx="10.981" ry="10.697" transform="translate(2.049 2.254)" fill="#b01919"/>
            <ellipse id="Elipse_5336" data-name="Elipse 5336" cx="10.943" cy="10.66" rx="10.943" ry="10.66" transform="translate(2.087 2.291)" fill="#af1818"/>
            <ellipse id="Elipse_5337" data-name="Elipse 5337" cx="10.905" cy="10.623" rx="10.905" ry="10.623" transform="translate(2.125 2.328)" fill="#ae1717"/>
            <ellipse id="Elipse_5338" data-name="Elipse 5338" cx="10.868" cy="10.587" rx="10.868" ry="10.587" transform="translate(2.162 2.364)" fill="#ad1616"/>
            <ellipse id="Elipse_5339" data-name="Elipse 5339" cx="10.83" cy="10.55" rx="10.83" ry="10.55" transform="translate(2.2 2.401)" fill="#ac1515"/>
            <ellipse id="Elipse_5340" data-name="Elipse 5340" cx="10.792" cy="10.513" rx="10.792" ry="10.513" transform="translate(2.238 2.438)" fill="#ab1414"/>
            <ellipse id="Elipse_5341" data-name="Elipse 5341" cx="10.755" cy="10.476" rx="10.755" ry="10.476" transform="translate(2.276 2.475)" fill="#aa1313"/>
            <ellipse id="Elipse_5342" data-name="Elipse 5342" cx="10.717" cy="10.44" rx="10.717" ry="10.44" transform="translate(2.313 2.511)" fill="#a91212"/>
            <ellipse id="Elipse_5343" data-name="Elipse 5343" cx="10.679" cy="10.403" rx="10.679" ry="10.403" transform="translate(2.351 2.548)" fill="#a81111"/>
            <ellipse id="Elipse_5344" data-name="Elipse 5344" cx="10.642" cy="10.366" rx="10.642" ry="10.366" transform="translate(2.389 2.585)" fill="#a81010"/>
            <ellipse id="Elipse_5345" data-name="Elipse 5345" cx="10.604" cy="10.33" rx="10.604" ry="10.33" transform="translate(2.426 2.622)" fill="#a70f0f"/>
            <ellipse id="Elipse_5346" data-name="Elipse 5346" cx="10.566" cy="10.293" rx="10.566" ry="10.293" transform="translate(2.464 2.658)" fill="#a60e0e"/>
            <ellipse id="Elipse_5347" data-name="Elipse 5347" cx="10.528" cy="10.256" rx="10.528" ry="10.256" transform="translate(2.502 2.695)" fill="#a50d0d"/>
            <ellipse id="Elipse_5348" data-name="Elipse 5348" cx="10.491" cy="10.219" rx="10.491" ry="10.219" transform="translate(2.539 2.732)" fill="#a40c0c"/>
            <ellipse id="Elipse_5349" data-name="Elipse 5349" cx="10.453" cy="10.183" rx="10.453" ry="10.183" transform="translate(2.577 2.768)" fill="#a30b0b"/>
            <ellipse id="Elipse_5350" data-name="Elipse 5350" cx="10.415" cy="10.146" rx="10.415" ry="10.146" transform="translate(2.615 2.805)" fill="#a20a0a"/>
            <ellipse id="Elipse_5351" data-name="Elipse 5351" cx="10.377" cy="10.109" rx="10.377" ry="10.109" transform="translate(2.653 2.842)" fill="#a10909"/>
            <ellipse id="Elipse_5352" data-name="Elipse 5352" cx="10.34" cy="10.072" rx="10.34" ry="10.072" transform="translate(2.69 2.879)" fill="#a00808"/>
            <ellipse id="Elipse_5353" data-name="Elipse 5353" cx="10.302" cy="10.036" rx="10.302" ry="10.036" transform="translate(2.728 2.915)" fill="#9f0707"/>
            <ellipse id="Elipse_5354" data-name="Elipse 5354" cx="10.264" cy="9.999" rx="10.264" ry="9.999" transform="translate(2.766 2.952)" fill="#9e0606"/>
            <ellipse id="Elipse_5355" data-name="Elipse 5355" cx="10.227" cy="9.962" rx="10.227" ry="9.962" transform="translate(2.803 2.989)" fill="#9e0505"/>
            <ellipse id="Elipse_5356" data-name="Elipse 5356" cx="10.189" cy="9.926" rx="10.189" ry="9.926" transform="translate(2.841 3.026)" fill="#9d0404"/>
            <ellipse id="Elipse_5357" data-name="Elipse 5357" cx="10.151" cy="9.889" rx="10.151" ry="9.889" transform="translate(2.879 3.062)" fill="#9c0303"/>
            <ellipse id="Elipse_5358" data-name="Elipse 5358" cx="10.114" cy="9.852" rx="10.114" ry="9.852" transform="translate(2.916 3.099)" fill="#9b0202"/>
            <ellipse id="Elipse_5359" data-name="Elipse 5359" cx="10.076" cy="9.815" rx="10.076" ry="9.815" transform="translate(2.954 3.136)" fill="#9a0101"/>
            <ellipse id="Elipse_5360" data-name="Elipse 5360" cx="10.038" cy="9.778" rx="10.038" ry="9.778" transform="translate(2.992 3.173)" fill="#900"/>
            <ellipse id="Elipse_5361" data-name="Elipse 5361" cx="10" cy="9.742" rx="10" ry="9.742" transform="translate(3.03 3.209)" fill="#900"/>
            <ellipse id="Elipse_5362" data-name="Elipse 5362" cx="9.902" cy="9.646" rx="9.902" ry="9.646" transform="translate(3.128 3.305)" fill="#9a0101"/>
            <ellipse id="Elipse_5363" data-name="Elipse 5363" cx="9.804" cy="9.551" rx="9.804" ry="9.551" transform="translate(3.226 3.4)" fill="#9b0202"/>
            <ellipse id="Elipse_5364" data-name="Elipse 5364" cx="9.706" cy="9.455" rx="9.706" ry="9.455" transform="translate(3.324 3.496)" fill="#9c0202"/>
            <ellipse id="Elipse_5365" data-name="Elipse 5365" cx="9.608" cy="9.36" rx="9.608" ry="9.36" transform="translate(3.422 3.591)" fill="#9d0303"/>
            <ellipse id="Elipse_5366" data-name="Elipse 5366" cx="9.51" cy="9.264" rx="9.51" ry="9.264" transform="translate(3.52 3.687)" fill="#9e0404"/>
            <ellipse id="Elipse_5367" data-name="Elipse 5367" cx="9.412" cy="9.169" rx="9.412" ry="9.169" transform="translate(3.618 3.782)" fill="#9f0505"/>
            <ellipse id="Elipse_5368" data-name="Elipse 5368" cx="9.314" cy="9.073" rx="9.314" ry="9.073" transform="translate(3.716 3.878)" fill="#a00606"/>
            <ellipse id="Elipse_5369" data-name="Elipse 5369" cx="9.216" cy="8.978" rx="9.216" ry="8.978" transform="translate(3.814 3.973)" fill="#a10606"/>
            <ellipse id="Elipse_5370" data-name="Elipse 5370" cx="9.118" cy="8.882" rx="9.118" ry="8.882" transform="translate(3.912 4.069)" fill="#a20707"/>
            <ellipse id="Elipse_5371" data-name="Elipse 5371" cx="9.02" cy="8.787" rx="9.02" ry="8.787" transform="translate(4.01 4.164)" fill="#a30808"/>
            <ellipse id="Elipse_5372" data-name="Elipse 5372" cx="8.922" cy="8.691" rx="8.922" ry="8.691" transform="translate(4.108 4.26)" fill="#a40909"/>
            <ellipse id="Elipse_5373" data-name="Elipse 5373" cx="8.824" cy="8.596" rx="8.824" ry="8.596" transform="translate(4.206 4.355)" fill="#a50a0a"/>
            <ellipse id="Elipse_5374" data-name="Elipse 5374" cx="8.726" cy="8.5" rx="8.726" ry="8.5" transform="translate(4.304 4.451)" fill="#a60b0b"/>
            <ellipse id="Elipse_5375" data-name="Elipse 5375" cx="8.628" cy="8.405" rx="8.628" ry="8.405" transform="translate(4.402 4.546)" fill="#a70b0b"/>
            <ellipse id="Elipse_5376" data-name="Elipse 5376" cx="8.53" cy="8.309" rx="8.53" ry="8.309" transform="translate(4.5 4.642)" fill="#a80c0c"/>
            <ellipse id="Elipse_5377" data-name="Elipse 5377" cx="8.432" cy="8.214" rx="8.432" ry="8.214" transform="translate(4.598 4.737)" fill="#a90d0d"/>
            <ellipse id="Elipse_5378" data-name="Elipse 5378" cx="8.334" cy="8.118" rx="8.334" ry="8.118" transform="translate(4.696 4.833)" fill="#aa0e0e"/>
            <ellipse id="Elipse_5379" data-name="Elipse 5379" cx="8.236" cy="8.023" rx="8.236" ry="8.023" transform="translate(4.795 4.928)" fill="#ab0f0f"/>
            <ellipse id="Elipse_5380" data-name="Elipse 5380" cx="8.138" cy="7.927" rx="8.138" ry="7.927" transform="translate(4.892 5.024)" fill="#ac0f0f"/>
            <ellipse id="Elipse_5381" data-name="Elipse 5381" cx="8.04" cy="7.832" rx="8.04" ry="7.832" transform="translate(4.991 5.119)" fill="#ad1010"/>
            <ellipse id="Elipse_5382" data-name="Elipse 5382" cx="7.941" cy="7.736" rx="7.941" ry="7.736" transform="translate(5.089 5.215)" fill="#ae1111"/>
            <ellipse id="Elipse_5383" data-name="Elipse 5383" cx="7.844" cy="7.641" rx="7.844" ry="7.641" transform="translate(5.187 5.311)" fill="#af1212"/>
            <ellipse id="Elipse_5384" data-name="Elipse 5384" cx="7.745" cy="7.545" rx="7.745" ry="7.545" transform="translate(5.285 5.406)" fill="#b01313"/>
            <ellipse id="Elipse_5385" data-name="Elipse 5385" cx="7.647" cy="7.45" rx="7.647" ry="7.45" transform="translate(5.383 5.501)" fill="#b11313"/>
            <ellipse id="Elipse_5386" data-name="Elipse 5386" cx="7.549" cy="7.354" rx="7.549" ry="7.354" transform="translate(5.481 5.597)" fill="#b21414"/>
            <ellipse id="Elipse_5387" data-name="Elipse 5387" cx="7.451" cy="7.259" rx="7.451" ry="7.259" transform="translate(5.579 5.692)" fill="#b31515"/>
            <ellipse id="Elipse_5388" data-name="Elipse 5388" cx="7.353" cy="7.163" rx="7.353" ry="7.163" transform="translate(5.677 5.788)" fill="#b41616"/>
            <ellipse id="Elipse_5389" data-name="Elipse 5389" cx="7.255" cy="7.068" rx="7.255" ry="7.068" transform="translate(5.775 5.883)" fill="#b51717"/>
            <ellipse id="Elipse_5390" data-name="Elipse 5390" cx="7.157" cy="6.972" rx="7.157" ry="6.972" transform="translate(5.873 5.979)" fill="#b61818"/>
            <ellipse id="Elipse_5391" data-name="Elipse 5391" cx="7.059" cy="6.877" rx="7.059" ry="6.877" transform="translate(5.971 6.074)" fill="#b71818"/>
            <ellipse id="Elipse_5392" data-name="Elipse 5392" cx="6.961" cy="6.781" rx="6.961" ry="6.781" transform="translate(6.069 6.17)" fill="#b81919"/>
            <ellipse id="Elipse_5393" data-name="Elipse 5393" cx="6.863" cy="6.685" rx="6.863" ry="6.685" transform="translate(6.167 6.266)" fill="#b91a1a"/>
            <ellipse id="Elipse_5394" data-name="Elipse 5394" cx="6.765" cy="6.59" rx="6.765" ry="6.59" transform="translate(6.265 6.361)" fill="#ba1b1b"/>
            <ellipse id="Elipse_5395" data-name="Elipse 5395" cx="6.667" cy="6.495" rx="6.667" ry="6.495" transform="translate(6.363 6.456)" fill="#bb1c1c"/>
            <ellipse id="Elipse_5396" data-name="Elipse 5396" cx="6.569" cy="6.399" rx="6.569" ry="6.399" transform="translate(6.461 6.552)" fill="#bc1c1c"/>
            <ellipse id="Elipse_5397" data-name="Elipse 5397" cx="6.471" cy="6.303" rx="6.471" ry="6.303" transform="translate(6.559 6.648)" fill="#bd1d1d"/>
            <ellipse id="Elipse_5398" data-name="Elipse 5398" cx="6.373" cy="6.208" rx="6.373" ry="6.208" transform="translate(6.657 6.743)" fill="#be1e1e"/>
            <ellipse id="Elipse_5399" data-name="Elipse 5399" cx="6.275" cy="6.113" rx="6.275" ry="6.113" transform="translate(6.755 6.838)" fill="#bf1f1f"/>
            <ellipse id="Elipse_5400" data-name="Elipse 5400" cx="6.177" cy="6.017" rx="6.177" ry="6.017" transform="translate(6.853 6.934)" fill="#c02020"/>
            <ellipse id="Elipse_5401" data-name="Elipse 5401" cx="6.079" cy="5.921" rx="6.079" ry="5.921" transform="translate(6.951 7.03)" fill="#c12020"/>
            <ellipse id="Elipse_5402" data-name="Elipse 5402" cx="5.981" cy="5.826" rx="5.981" ry="5.826" transform="translate(7.05 7.125)" fill="#c22121"/>
            <ellipse id="Elipse_5403" data-name="Elipse 5403" cx="5.883" cy="5.731" rx="5.883" ry="5.731" transform="translate(7.148 7.22)" fill="#c32222"/>
            <ellipse id="Elipse_5404" data-name="Elipse 5404" cx="5.784" cy="5.635" rx="5.784" ry="5.635" transform="translate(7.246 7.316)" fill="#c42323"/>
            <ellipse id="Elipse_5405" data-name="Elipse 5405" cx="5.687" cy="5.539" rx="5.687" ry="5.539" transform="translate(7.344 7.412)" fill="#c52424"/>
            <ellipse id="Elipse_5406" data-name="Elipse 5406" cx="5.588" cy="5.444" rx="5.588" ry="5.444" transform="translate(7.442 7.507)" fill="#c62525"/>
            <ellipse id="Elipse_5407" data-name="Elipse 5407" cx="5.491" cy="5.348" rx="5.491" ry="5.348" transform="translate(7.54 7.603)" fill="#c72525"/>
            <ellipse id="Elipse_5408" data-name="Elipse 5408" cx="5.392" cy="5.253" rx="5.392" ry="5.253" transform="translate(7.638 7.698)" fill="#c82626"/>
            <ellipse id="Elipse_5409" data-name="Elipse 5409" cx="5.294" cy="5.157" rx="5.294" ry="5.157" transform="translate(7.736 7.794)" fill="#c92727"/>
            <ellipse id="Elipse_5410" data-name="Elipse 5410" cx="5.196" cy="5.062" rx="5.196" ry="5.062" transform="translate(7.834 7.889)" fill="#ca2828"/>
            <ellipse id="Elipse_5411" data-name="Elipse 5411" cx="5.098" cy="4.966" rx="5.098" ry="4.966" transform="translate(7.932 7.985)" fill="#cb2929"/>
            <ellipse id="Elipse_5412" data-name="Elipse 5412" cx="5" cy="4.871" rx="5" ry="4.871" transform="translate(8.03 8.08)" fill="#cd2929"/>
            <ellipse id="Elipse_5413" data-name="Elipse 5413" cx="4.902" cy="4.775" rx="4.902" ry="4.775" transform="translate(8.128 8.176)" fill="#ce2a2a"/>
            <ellipse id="Elipse_5414" data-name="Elipse 5414" cx="4.804" cy="4.68" rx="4.804" ry="4.68" transform="translate(8.226 8.271)" fill="#cf2b2b"/>
            <ellipse id="Elipse_5415" data-name="Elipse 5415" cx="4.706" cy="4.584" rx="4.706" ry="4.584" transform="translate(8.324 8.367)" fill="#d02c2c"/>
            <ellipse id="Elipse_5416" data-name="Elipse 5416" cx="4.608" cy="4.489" rx="4.608" ry="4.489" transform="translate(8.422 8.462)" fill="#d12d2d"/>
            <ellipse id="Elipse_5417" data-name="Elipse 5417" cx="4.51" cy="4.393" rx="4.51" ry="4.393" transform="translate(8.52 8.558)" fill="#d22d2d"/>
            <ellipse id="Elipse_5418" data-name="Elipse 5418" cx="4.412" cy="4.298" rx="4.412" ry="4.298" transform="translate(8.618 8.653)" fill="#d32e2e"/>
            <ellipse id="Elipse_5419" data-name="Elipse 5419" cx="4.314" cy="4.202" rx="4.314" ry="4.202" transform="translate(8.716 8.749)" fill="#d42f2f"/>
            <ellipse id="Elipse_5420" data-name="Elipse 5420" cx="4.216" cy="4.107" rx="4.216" ry="4.107" transform="translate(8.814 8.844)" fill="#d53030"/>
            <ellipse id="Elipse_5421" data-name="Elipse 5421" cx="4.118" cy="4.011" rx="4.118" ry="4.011" transform="translate(8.912 8.94)" fill="#d63131"/>
            <ellipse id="Elipse_5422" data-name="Elipse 5422" cx="4.02" cy="3.916" rx="4.02" ry="3.916" transform="translate(9.01 9.035)" fill="#d73232"/>
            <ellipse id="Elipse_5423" data-name="Elipse 5423" cx="3.922" cy="3.82" rx="3.922" ry="3.82" transform="translate(9.108 9.131)" fill="#d83232"/>
            <ellipse id="Elipse_5424" data-name="Elipse 5424" cx="3.824" cy="3.725" rx="3.824" ry="3.725" transform="translate(9.207 9.226)" fill="#d93333"/>
            <ellipse id="Elipse_5425" data-name="Elipse 5425" cx="3.726" cy="3.629" rx="3.726" ry="3.629" transform="translate(9.304 9.322)" fill="#da3434"/>
            <ellipse id="Elipse_5426" data-name="Elipse 5426" cx="3.628" cy="3.534" rx="3.628" ry="3.534" transform="translate(9.403 9.417)" fill="#db3535"/>
            <ellipse id="Elipse_5427" data-name="Elipse 5427" cx="3.53" cy="3.438" rx="3.53" ry="3.438" transform="translate(9.501 9.513)" fill="#dc3636"/>
            <ellipse id="Elipse_5428" data-name="Elipse 5428" cx="3.431" cy="3.343" rx="3.431" ry="3.343" transform="translate(9.599 9.608)" fill="#dd3636"/>
            <ellipse id="Elipse_5429" data-name="Elipse 5429" cx="3.334" cy="3.247" rx="3.334" ry="3.247" transform="translate(9.697 9.704)" fill="#de3737"/>
            <ellipse id="Elipse_5430" data-name="Elipse 5430" cx="3.235" cy="3.152" rx="3.235" ry="3.152" transform="translate(9.795 9.799)" fill="#df3838"/>
            <ellipse id="Elipse_5431" data-name="Elipse 5431" cx="3.137" cy="3.056" rx="3.137" ry="3.056" transform="translate(9.893 9.895)" fill="#e03939"/>
            <ellipse id="Elipse_5432" data-name="Elipse 5432" cx="3.039" cy="2.961" rx="3.039" ry="2.961" transform="translate(9.991 9.99)" fill="#e13a3a"/>
            <ellipse id="Elipse_5433" data-name="Elipse 5433" cx="2.941" cy="2.865" rx="2.941" ry="2.865" transform="translate(10.089 10.086)" fill="#e23a3a"/>
            <ellipse id="Elipse_5434" data-name="Elipse 5434" cx="2.843" cy="2.77" rx="2.843" ry="2.77" transform="translate(10.187 10.181)" fill="#e33b3b"/>
            <ellipse id="Elipse_5435" data-name="Elipse 5435" cx="2.745" cy="2.674" rx="2.745" ry="2.674" transform="translate(10.285 10.277)" fill="#e43c3c"/>
            <ellipse id="Elipse_5436" data-name="Elipse 5436" cx="2.647" cy="2.579" rx="2.647" ry="2.579" transform="translate(10.383 10.372)" fill="#e53d3d"/>
            <ellipse id="Elipse_5437" data-name="Elipse 5437" cx="2.549" cy="2.483" rx="2.549" ry="2.483" transform="translate(10.481 10.468)" fill="#e63e3e"/>
            <ellipse id="Elipse_5438" data-name="Elipse 5438" cx="2.451" cy="2.388" rx="2.451" ry="2.388" transform="translate(10.579 10.563)" fill="#e73f3f"/>
            <ellipse id="Elipse_5439" data-name="Elipse 5439" cx="2.353" cy="2.292" rx="2.353" ry="2.292" transform="translate(10.677 10.659)" fill="#e83f3f"/>
            <ellipse id="Elipse_5440" data-name="Elipse 5440" cx="2.255" cy="2.197" rx="2.255" ry="2.197" transform="translate(10.775 10.754)" fill="#e94040"/>
            <ellipse id="Elipse_5441" data-name="Elipse 5441" cx="2.157" cy="2.101" rx="2.157" ry="2.101" transform="translate(10.873 10.85)" fill="#ea4141"/>
            <ellipse id="Elipse_5442" data-name="Elipse 5442" cx="2.059" cy="2.006" rx="2.059" ry="2.006" transform="translate(10.971 10.945)" fill="#eb4242"/>
            <ellipse id="Elipse_5443" data-name="Elipse 5443" cx="1.961" cy="1.91" rx="1.961" ry="1.91" transform="translate(11.069 11.041)" fill="#ec4343"/>
            <ellipse id="Elipse_5444" data-name="Elipse 5444" cx="1.863" cy="1.815" rx="1.863" ry="1.815" transform="translate(11.167 11.136)" fill="#ed4343"/>
            <ellipse id="Elipse_5445" data-name="Elipse 5445" cx="1.765" cy="1.719" rx="1.765" ry="1.719" transform="translate(11.265 11.232)" fill="#e44"/>
            <ellipse id="Elipse_5446" data-name="Elipse 5446" cx="1.667" cy="1.624" rx="1.667" ry="1.624" transform="translate(11.363 11.327)" fill="#ef4545"/>
            <ellipse id="Elipse_5447" data-name="Elipse 5447" cx="1.569" cy="1.528" rx="1.569" ry="1.528" transform="translate(11.461 11.423)" fill="#f04646"/>
            <ellipse id="Elipse_5448" data-name="Elipse 5448" cx="1.471" cy="1.433" rx="1.471" ry="1.433" transform="translate(11.56 11.519)" fill="#f14747"/>
            <ellipse id="Elipse_5449" data-name="Elipse 5449" cx="1.373" cy="1.337" rx="1.373" ry="1.337" transform="translate(11.657 11.614)" fill="#f24747"/>
            <ellipse id="Elipse_5450" data-name="Elipse 5450" cx="1.275" cy="1.242" rx="1.275" ry="1.242" transform="translate(11.756 11.709)" fill="#f34848"/>
            <ellipse id="Elipse_5451" data-name="Elipse 5451" cx="1.177" cy="1.146" rx="1.177" ry="1.146" transform="translate(11.854 11.805)" fill="#f44949"/>
            <ellipse id="Elipse_5452" data-name="Elipse 5452" cx="1.078" cy="1.051" rx="1.078" ry="1.051" transform="translate(11.952 11.9)" fill="#f54a4a"/>
            <ellipse id="Elipse_5453" data-name="Elipse 5453" cx="0.98" cy="0.955" rx="0.98" ry="0.955" transform="translate(12.05 11.996)" fill="#f64b4b"/>
            <ellipse id="Elipse_5454" data-name="Elipse 5454" cx="0.882" cy="0.86" rx="0.882" ry="0.86" transform="translate(12.148 12.091)" fill="#f74c4c"/>
            <ellipse id="Elipse_5455" data-name="Elipse 5455" cx="0.784" cy="0.764" rx="0.784" ry="0.764" transform="translate(12.246 12.187)" fill="#f84c4c"/>
            <ellipse id="Elipse_5456" data-name="Elipse 5456" cx="0.686" cy="0.669" rx="0.686" ry="0.669" transform="translate(12.344 12.282)" fill="#f94d4d"/>
            <ellipse id="Elipse_5457" data-name="Elipse 5457" cx="0.588" cy="0.573" rx="0.588" ry="0.573" transform="translate(12.442 12.378)" fill="#fa4e4e"/>
            <ellipse id="Elipse_5458" data-name="Elipse 5458" cx="0.49" cy="0.477" rx="0.49" ry="0.477" transform="translate(12.54 12.474)" fill="#fb4f4f"/>
            <ellipse id="Elipse_5459" data-name="Elipse 5459" cx="0.392" cy="0.382" rx="0.392" ry="0.382" transform="translate(12.638 12.569)" fill="#fc5050"/>
            <ellipse id="Elipse_5460" data-name="Elipse 5460" cx="0.294" cy="0.287" rx="0.294" ry="0.287" transform="translate(12.736 12.664)" fill="#fd5050"/>
            <ellipse id="Elipse_5461" data-name="Elipse 5461" cx="0.196" cy="0.191" rx="0.196" ry="0.191" transform="translate(12.834 12.76)" fill="#fe5151"/>
            <path id="Trazado_778434" data-name="Trazado 778434" d="M2715.866,2894a.1.1,0,1,1-.1-.1A.1.1,0,0,1,2715.866,2894Z" transform="translate(-2702.738 -2881.044)" fill="#ff5252"/>
          </g>
          <path id="Trazado_778435" data-name="Trazado 778435" d="M2202,2396.673a13.367,13.367,0,1,1,13.367-13.367A13.382,13.382,0,0,1,2202,2396.673Zm0-26.535a13.168,13.168,0,1,0,13.168,13.168A13.183,13.183,0,0,0,2202,2370.138Z" transform="translate(-2188.63 -2369.94)" fill="#700"/>
          <circle id="Elipse_5463" data-name="Elipse 5463" cx="13.268" cy="13.268" r="13.268" transform="translate(0.099 0.099)" fill="#f91d1d"/>
          <path id="Trazado_778436" data-name="Trazado 778436" d="M2221.352,2966.323c-1.554,1.881-3.06.582-3.06.582l-6.267,4.178-12.864-3.518s-1.1.33-3.079-1.869a3.83,3.83,0,0,1-.773-1.4,13.27,13.27,0,0,0,26.042,2.024Z" transform="translate(-2195.145 -2949.605)" fill="#cc1717"/>
          <circle id="Elipse_5464" data-name="Elipse 5464" cx="10.922" cy="10.922" r="10.922" transform="translate(2.445 2.445)" fill="#dd1717"/>
          <circle id="Elipse_5465" data-name="Elipse 5465" cx="5.659" cy="5.659" r="5.659" transform="translate(5.363 13.367) rotate(-45)" fill="#f91d1d"/>
          <path id="Trazado_778437" data-name="Trazado 778437" d="M2362.747,2403.782a12.416,12.416,0,0,0-10,3.408c-2.969,2.969.22,1.649,2.639.44s6.927-1.869,9.9-.659,4.288,2.089,4.4.77-3.519-3.518-6.927-3.958Z" transform="translate(-2347.516 -2402.863)" fill="#ff5050"/>
          <path id="Trazado_778438" data-name="Trazado 778438" d="M2329.294,3085.147a11.564,11.564,0,0,0,10.115,5.277c6.817-.33,9.456-5.5,9.456-6.487s-.88.33-2.969,1.869-3.848,3.518-8.576,2.749a12.336,12.336,0,0,1-7.916-4.838c-.77-.99-.66.55-.11,1.429Z" transform="translate(-2325.387 -3065.758)" fill="#ff5050"/>
          <path id="Trazado_778439" data-name="Trazado 778439" d="M2204.454,2399.069a13.3,13.3,0,1,1,13.3-13.3A13.32,13.32,0,0,1,2204.454,2399.069Zm0-26.535a13.231,13.231,0,1,0,13.231,13.231A13.246,13.246,0,0,0,2204.454,2372.533Z" transform="translate(-2191.087 -2372.397)" fill="#6d1212"/>
        </g>
        <g id="Grupo_1046419" data-name="Grupo 1046419" transform="translate(44.795 5.727)">
          <g id="Grupo_1046418" data-name="Grupo 1046418" transform="translate(1.115 1.116)" clip-path="url(#clip-path-2)">
            <rect id="Rect치ngulo_356573" data-name="Rect치ngulo 356573" width="13.59" height="13.59" transform="translate(0 0)" fill="#ff5252"/>
            <ellipse id="Elipse_5466" data-name="Elipse 5466" cx="6.719" cy="6.545" rx="6.719" ry="6.545" transform="translate(-0.045 0.088)" fill="#ff5252"/>
            <ellipse id="Elipse_5467" data-name="Elipse 5467" cx="6.709" cy="6.535" rx="6.709" ry="6.535" transform="translate(-0.035 0.097)" fill="#fe5151"/>
            <ellipse id="Elipse_5468" data-name="Elipse 5468" cx="6.699" cy="6.525" rx="6.699" ry="6.525" transform="translate(-0.025 0.107)" fill="#fd5151"/>
            <ellipse id="Elipse_5469" data-name="Elipse 5469" cx="6.689" cy="6.516" rx="6.689" ry="6.516" transform="translate(-0.016 0.117)" fill="#fc5050"/>
            <ellipse id="Elipse_5470" data-name="Elipse 5470" cx="6.679" cy="6.506" rx="6.679" ry="6.506" transform="translate(-0.006 0.126)" fill="#fb5050"/>
            <ellipse id="Elipse_5471" data-name="Elipse 5471" cx="6.669" cy="6.497" rx="6.669" ry="6.497" transform="translate(0.004 0.136)" fill="#fa4f4f"/>
            <ellipse id="Elipse_5472" data-name="Elipse 5472" cx="6.659" cy="6.487" rx="6.659" ry="6.487" transform="translate(0.014 0.146)" fill="#f94f4f"/>
            <ellipse id="Elipse_5473" data-name="Elipse 5473" cx="6.649" cy="6.477" rx="6.649" ry="6.477" transform="translate(0.024 0.155)" fill="#f84e4e"/>
            <ellipse id="Elipse_5474" data-name="Elipse 5474" cx="6.639" cy="6.468" rx="6.639" ry="6.468" transform="translate(0.034 0.165)" fill="#f74e4e"/>
            <ellipse id="Elipse_5475" data-name="Elipse 5475" cx="6.629" cy="6.458" rx="6.629" ry="6.458" transform="translate(0.044 0.175)" fill="#f64d4d"/>
            <ellipse id="Elipse_5476" data-name="Elipse 5476" cx="6.619" cy="6.448" rx="6.619" ry="6.448" transform="translate(0.054 0.184)" fill="#f54d4d"/>
            <ellipse id="Elipse_5477" data-name="Elipse 5477" cx="6.61" cy="6.439" rx="6.61" ry="6.439" transform="translate(0.064 0.194)" fill="#f44c4c"/>
            <ellipse id="Elipse_5478" data-name="Elipse 5478" cx="6.6" cy="6.429" rx="6.6" ry="6.429" transform="translate(0.074 0.203)" fill="#f34c4c"/>
            <ellipse id="Elipse_5479" data-name="Elipse 5479" cx="6.59" cy="6.419" rx="6.59" ry="6.419" transform="translate(0.084 0.213)" fill="#f24b4b"/>
            <ellipse id="Elipse_5480" data-name="Elipse 5480" cx="6.58" cy="6.41" rx="6.58" ry="6.41" transform="translate(0.093 0.223)" fill="#f14b4b"/>
            <ellipse id="Elipse_5481" data-name="Elipse 5481" cx="6.57" cy="6.4" rx="6.57" ry="6.4" transform="translate(0.103 0.232)" fill="#f04a4a"/>
            <ellipse id="Elipse_5482" data-name="Elipse 5482" cx="6.56" cy="6.39" rx="6.56" ry="6.39" transform="translate(0.113 0.242)" fill="#ef4a4a"/>
            <ellipse id="Elipse_5483" data-name="Elipse 5483" cx="6.55" cy="6.381" rx="6.55" ry="6.381" transform="translate(0.123 0.252)" fill="#ee4949"/>
            <ellipse id="Elipse_5484" data-name="Elipse 5484" cx="6.54" cy="6.371" rx="6.54" ry="6.371" transform="translate(0.133 0.262)" fill="#ed4949"/>
            <ellipse id="Elipse_5485" data-name="Elipse 5485" cx="6.53" cy="6.361" rx="6.53" ry="6.361" transform="translate(0.143 0.271)" fill="#ec4848"/>
            <ellipse id="Elipse_5486" data-name="Elipse 5486" cx="6.52" cy="6.352" rx="6.52" ry="6.352" transform="translate(0.153 0.281)" fill="#eb4848"/>
            <ellipse id="Elipse_5487" data-name="Elipse 5487" cx="6.51" cy="6.342" rx="6.51" ry="6.342" transform="translate(0.163 0.291)" fill="#ea4747"/>
            <ellipse id="Elipse_5488" data-name="Elipse 5488" cx="6.5" cy="6.332" rx="6.5" ry="6.332" transform="translate(0.173 0.3)" fill="#e94747"/>
            <ellipse id="Elipse_5489" data-name="Elipse 5489" cx="6.491" cy="6.323" rx="6.491" ry="6.323" transform="translate(0.183 0.31)" fill="#e84646"/>
            <ellipse id="Elipse_5490" data-name="Elipse 5490" cx="6.481" cy="6.313" rx="6.481" ry="6.313" transform="translate(0.193 0.319)" fill="#e74646"/>
            <ellipse id="Elipse_5491" data-name="Elipse 5491" cx="6.471" cy="6.303" rx="6.471" ry="6.303" transform="translate(0.202 0.329)" fill="#e64545"/>
            <ellipse id="Elipse_5492" data-name="Elipse 5492" cx="6.461" cy="6.294" rx="6.461" ry="6.294" transform="translate(0.212 0.339)" fill="#e44545"/>
            <ellipse id="Elipse_5493" data-name="Elipse 5493" cx="6.451" cy="6.284" rx="6.451" ry="6.284" transform="translate(0.222 0.348)" fill="#e34444"/>
            <ellipse id="Elipse_5494" data-name="Elipse 5494" cx="6.441" cy="6.275" rx="6.441" ry="6.275" transform="translate(0.232 0.358)" fill="#e24444"/>
            <ellipse id="Elipse_5495" data-name="Elipse 5495" cx="6.431" cy="6.265" rx="6.431" ry="6.265" transform="translate(0.242 0.368)" fill="#e14343"/>
            <ellipse id="Elipse_5496" data-name="Elipse 5496" cx="6.421" cy="6.255" rx="6.421" ry="6.255" transform="translate(0.252 0.377)" fill="#e04343"/>
            <ellipse id="Elipse_5497" data-name="Elipse 5497" cx="6.411" cy="6.246" rx="6.411" ry="6.246" transform="translate(0.262 0.387)" fill="#df4242"/>
            <ellipse id="Elipse_5498" data-name="Elipse 5498" cx="6.401" cy="6.236" rx="6.401" ry="6.236" transform="translate(0.272 0.397)" fill="#de4242"/>
            <ellipse id="Elipse_5499" data-name="Elipse 5499" cx="6.391" cy="6.226" rx="6.391" ry="6.226" transform="translate(0.282 0.406)" fill="#dd4141"/>
            <ellipse id="Elipse_5500" data-name="Elipse 5500" cx="6.382" cy="6.217" rx="6.382" ry="6.217" transform="translate(0.292 0.416)" fill="#dc4141"/>
            <ellipse id="Elipse_5501" data-name="Elipse 5501" cx="6.372" cy="6.207" rx="6.372" ry="6.207" transform="translate(0.302 0.426)" fill="#db4040"/>
            <ellipse id="Elipse_5502" data-name="Elipse 5502" cx="6.362" cy="6.197" rx="6.362" ry="6.197" transform="translate(0.312 0.435)" fill="#da4040"/>
            <ellipse id="Elipse_5503" data-name="Elipse 5503" cx="6.352" cy="6.187" rx="6.352" ry="6.187" transform="translate(0.321 0.445)" fill="#d93f3f"/>
            <ellipse id="Elipse_5504" data-name="Elipse 5504" cx="6.342" cy="6.178" rx="6.342" ry="6.178" transform="translate(0.331 0.455)" fill="#d83f3f"/>
            <ellipse id="Elipse_5505" data-name="Elipse 5505" cx="6.332" cy="6.168" rx="6.332" ry="6.168" transform="translate(0.341 0.464)" fill="#d73e3e"/>
            <ellipse id="Elipse_5506" data-name="Elipse 5506" cx="6.322" cy="6.159" rx="6.322" ry="6.159" transform="translate(0.351 0.474)" fill="#d63e3e"/>
            <ellipse id="Elipse_5507" data-name="Elipse 5507" cx="6.312" cy="6.149" rx="6.312" ry="6.149" transform="translate(0.361 0.484)" fill="#d53d3d"/>
            <ellipse id="Elipse_5508" data-name="Elipse 5508" cx="6.302" cy="6.139" rx="6.302" ry="6.139" transform="translate(0.371 0.493)" fill="#d43d3d"/>
            <ellipse id="Elipse_5509" data-name="Elipse 5509" cx="6.292" cy="6.13" rx="6.292" ry="6.13" transform="translate(0.381 0.503)" fill="#d33c3c"/>
            <ellipse id="Elipse_5510" data-name="Elipse 5510" cx="6.282" cy="6.12" rx="6.282" ry="6.12" transform="translate(0.391 0.513)" fill="#d23c3c"/>
            <ellipse id="Elipse_5511" data-name="Elipse 5511" cx="6.273" cy="6.11" rx="6.273" ry="6.11" transform="translate(0.401 0.522)" fill="#d13b3b"/>
            <ellipse id="Elipse_5512" data-name="Elipse 5512" cx="6.263" cy="6.101" rx="6.263" ry="6.101" transform="translate(0.411 0.532)" fill="#d03b3b"/>
            <ellipse id="Elipse_5513" data-name="Elipse 5513" cx="6.253" cy="6.091" rx="6.253" ry="6.091" transform="translate(0.421 0.541)" fill="#cf3a3a"/>
            <ellipse id="Elipse_5514" data-name="Elipse 5514" cx="6.243" cy="6.081" rx="6.243" ry="6.081" transform="translate(0.43 0.551)" fill="#ce3a3a"/>
            <ellipse id="Elipse_5515" data-name="Elipse 5515" cx="6.233" cy="6.072" rx="6.233" ry="6.072" transform="translate(0.44 0.561)" fill="#cd3939"/>
            <ellipse id="Elipse_5516" data-name="Elipse 5516" cx="6.223" cy="6.062" rx="6.223" ry="6.062" transform="translate(0.45 0.57)" fill="#cc3939"/>
            <ellipse id="Elipse_5517" data-name="Elipse 5517" cx="6.213" cy="6.052" rx="6.213" ry="6.052" transform="translate(0.46 0.58)" fill="#cb3838"/>
            <ellipse id="Elipse_5518" data-name="Elipse 5518" cx="6.203" cy="6.043" rx="6.203" ry="6.043" transform="translate(0.47 0.59)" fill="#cb3838"/>
            <ellipse id="Elipse_5519" data-name="Elipse 5519" cx="6.184" cy="6.024" rx="6.184" ry="6.024" transform="translate(0.49 0.609)" fill="#ca3737"/>
            <ellipse id="Elipse_5520" data-name="Elipse 5520" cx="6.164" cy="6.005" rx="6.164" ry="6.005" transform="translate(0.509 0.627)" fill="#c93636"/>
            <ellipse id="Elipse_5521" data-name="Elipse 5521" cx="6.145" cy="5.986" rx="6.145" ry="5.986" transform="translate(0.528 0.646)" fill="#c83535"/>
            <ellipse id="Elipse_5522" data-name="Elipse 5522" cx="6.126" cy="5.967" rx="6.126" ry="5.967" transform="translate(0.547 0.665)" fill="#c73434"/>
            <ellipse id="Elipse_5523" data-name="Elipse 5523" cx="6.107" cy="5.949" rx="6.107" ry="5.949" transform="translate(0.567 0.684)" fill="#c63333"/>
            <ellipse id="Elipse_5524" data-name="Elipse 5524" cx="6.087" cy="5.93" rx="6.087" ry="5.93" transform="translate(0.586 0.703)" fill="#c63232"/>
            <ellipse id="Elipse_5525" data-name="Elipse 5525" cx="6.068" cy="5.911" rx="6.068" ry="5.911" transform="translate(0.605 0.721)" fill="#c53131"/>
            <ellipse id="Elipse_5526" data-name="Elipse 5526" cx="6.049" cy="5.892" rx="6.049" ry="5.892" transform="translate(0.625 0.74)" fill="#c43030"/>
            <ellipse id="Elipse_5527" data-name="Elipse 5527" cx="6.029" cy="5.873" rx="6.029" ry="5.873" transform="translate(0.644 0.759)" fill="#c32f2f"/>
            <ellipse id="Elipse_5528" data-name="Elipse 5528" cx="6.01" cy="5.855" rx="6.01" ry="5.855" transform="translate(0.663 0.778)" fill="#c22e2e"/>
            <ellipse id="Elipse_5529" data-name="Elipse 5529" cx="5.991" cy="5.836" rx="5.991" ry="5.836" transform="translate(0.683 0.797)" fill="#c12d2d"/>
            <ellipse id="Elipse_5530" data-name="Elipse 5530" cx="5.971" cy="5.817" rx="5.971" ry="5.817" transform="translate(0.702 0.816)" fill="#c02c2c"/>
            <ellipse id="Elipse_5531" data-name="Elipse 5531" cx="5.952" cy="5.798" rx="5.952" ry="5.798" transform="translate(0.721 0.834)" fill="#bf2b2b"/>
            <ellipse id="Elipse_5532" data-name="Elipse 5532" cx="5.933" cy="5.779" rx="5.933" ry="5.779" transform="translate(0.74 0.853)" fill="#be2a2a"/>
            <ellipse id="Elipse_5533" data-name="Elipse 5533" cx="5.914" cy="5.76" rx="5.914" ry="5.76" transform="translate(0.76 0.872)" fill="#bd2929"/>
            <ellipse id="Elipse_5534" data-name="Elipse 5534" cx="5.894" cy="5.742" rx="5.894" ry="5.742" transform="translate(0.779 0.891)" fill="#bc2828"/>
            <ellipse id="Elipse_5535" data-name="Elipse 5535" cx="5.875" cy="5.723" rx="5.875" ry="5.723" transform="translate(0.798 0.91)" fill="#bc2727"/>
            <ellipse id="Elipse_5536" data-name="Elipse 5536" cx="5.856" cy="5.704" rx="5.856" ry="5.704" transform="translate(0.818 0.928)" fill="#bb2626"/>
            <ellipse id="Elipse_5537" data-name="Elipse 5537" cx="5.836" cy="5.685" rx="5.836" ry="5.685" transform="translate(0.837 0.947)" fill="#ba2525"/>
            <ellipse id="Elipse_5538" data-name="Elipse 5538" cx="5.817" cy="5.667" rx="5.817" ry="5.667" transform="translate(0.856 0.966)" fill="#b92424"/>
            <ellipse id="Elipse_5539" data-name="Elipse 5539" cx="5.798" cy="5.648" rx="5.798" ry="5.648" transform="translate(0.876 0.985)" fill="#b82323"/>
            <ellipse id="Elipse_5540" data-name="Elipse 5540" cx="5.778" cy="5.629" rx="5.778" ry="5.629" transform="translate(0.895 1.004)" fill="#b72222"/>
            <ellipse id="Elipse_5541" data-name="Elipse 5541" cx="5.759" cy="5.61" rx="5.759" ry="5.61" transform="translate(0.914 1.022)" fill="#b62121"/>
            <ellipse id="Elipse_5542" data-name="Elipse 5542" cx="5.74" cy="5.591" rx="5.74" ry="5.591" transform="translate(0.934 1.041)" fill="#b52020"/>
            <ellipse id="Elipse_5543" data-name="Elipse 5543" cx="5.72" cy="5.572" rx="5.72" ry="5.572" transform="translate(0.953 1.06)" fill="#b41f1f"/>
            <ellipse id="Elipse_5544" data-name="Elipse 5544" cx="5.701" cy="5.554" rx="5.701" ry="5.554" transform="translate(0.972 1.079)" fill="#b31e1e"/>
            <ellipse id="Elipse_5545" data-name="Elipse 5545" cx="5.682" cy="5.535" rx="5.682" ry="5.535" transform="translate(0.991 1.098)" fill="#b21d1d"/>
            <ellipse id="Elipse_5546" data-name="Elipse 5546" cx="5.662" cy="5.516" rx="5.662" ry="5.516" transform="translate(1.011 1.117)" fill="#b21b1b"/>
            <ellipse id="Elipse_5547" data-name="Elipse 5547" cx="5.643" cy="5.497" rx="5.643" ry="5.497" transform="translate(1.03 1.135)" fill="#b11a1a"/>
            <ellipse id="Elipse_5548" data-name="Elipse 5548" cx="5.624" cy="5.478" rx="5.624" ry="5.478" transform="translate(1.05 1.154)" fill="#b01919"/>
            <ellipse id="Elipse_5549" data-name="Elipse 5549" cx="5.604" cy="5.46" rx="5.604" ry="5.46" transform="translate(1.069 1.173)" fill="#af1818"/>
            <ellipse id="Elipse_5550" data-name="Elipse 5550" cx="5.585" cy="5.441" rx="5.585" ry="5.441" transform="translate(1.088 1.192)" fill="#ae1717"/>
            <ellipse id="Elipse_5551" data-name="Elipse 5551" cx="5.566" cy="5.422" rx="5.566" ry="5.422" transform="translate(1.107 1.21)" fill="#ad1616"/>
            <ellipse id="Elipse_5552" data-name="Elipse 5552" cx="5.547" cy="5.403" rx="5.547" ry="5.403" transform="translate(1.127 1.229)" fill="#ac1515"/>
            <ellipse id="Elipse_5553" data-name="Elipse 5553" cx="5.527" cy="5.384" rx="5.527" ry="5.384" transform="translate(1.146 1.248)" fill="#ab1414"/>
            <ellipse id="Elipse_5554" data-name="Elipse 5554" cx="5.508" cy="5.365" rx="5.508" ry="5.365" transform="translate(1.165 1.267)" fill="#aa1313"/>
            <ellipse id="Elipse_5555" data-name="Elipse 5555" cx="5.489" cy="5.347" rx="5.489" ry="5.347" transform="translate(1.185 1.286)" fill="#a91212"/>
            <ellipse id="Elipse_5556" data-name="Elipse 5556" cx="5.469" cy="5.328" rx="5.469" ry="5.328" transform="translate(1.204 1.305)" fill="#a81111"/>
            <ellipse id="Elipse_5557" data-name="Elipse 5557" cx="5.45" cy="5.309" rx="5.45" ry="5.309" transform="translate(1.223 1.323)" fill="#a81010"/>
            <ellipse id="Elipse_5558" data-name="Elipse 5558" cx="5.431" cy="5.29" rx="5.431" ry="5.29" transform="translate(1.243 1.342)" fill="#a70f0f"/>
            <ellipse id="Elipse_5559" data-name="Elipse 5559" cx="5.411" cy="5.271" rx="5.411" ry="5.271" transform="translate(1.262 1.361)" fill="#a60e0e"/>
            <ellipse id="Elipse_5560" data-name="Elipse 5560" cx="5.392" cy="5.253" rx="5.392" ry="5.253" transform="translate(1.281 1.38)" fill="#a50d0d"/>
            <ellipse id="Elipse_5561" data-name="Elipse 5561" cx="5.373" cy="5.234" rx="5.373" ry="5.234" transform="translate(1.3 1.399)" fill="#a40c0c"/>
            <ellipse id="Elipse_5562" data-name="Elipse 5562" cx="5.354" cy="5.215" rx="5.354" ry="5.215" transform="translate(1.32 1.417)" fill="#a30b0b"/>
            <ellipse id="Elipse_5563" data-name="Elipse 5563" cx="5.334" cy="5.196" rx="5.334" ry="5.196" transform="translate(1.339 1.436)" fill="#a20a0a"/>
            <ellipse id="Elipse_5564" data-name="Elipse 5564" cx="5.315" cy="5.177" rx="5.315" ry="5.177" transform="translate(1.358 1.455)" fill="#a10909"/>
            <ellipse id="Elipse_5565" data-name="Elipse 5565" cx="5.295" cy="5.158" rx="5.295" ry="5.158" transform="translate(1.378 1.474)" fill="#a00808"/>
            <ellipse id="Elipse_5566" data-name="Elipse 5566" cx="5.276" cy="5.14" rx="5.276" ry="5.14" transform="translate(1.397 1.493)" fill="#9f0707"/>
            <ellipse id="Elipse_5567" data-name="Elipse 5567" cx="5.257" cy="5.121" rx="5.257" ry="5.121" transform="translate(1.416 1.512)" fill="#9e0606"/>
            <ellipse id="Elipse_5568" data-name="Elipse 5568" cx="5.238" cy="5.102" rx="5.238" ry="5.102" transform="translate(1.436 1.53)" fill="#9e0505"/>
            <ellipse id="Elipse_5569" data-name="Elipse 5569" cx="5.218" cy="5.083" rx="5.218" ry="5.083" transform="translate(1.455 1.549)" fill="#9d0404"/>
            <ellipse id="Elipse_5570" data-name="Elipse 5570" cx="5.199" cy="5.065" rx="5.199" ry="5.065" transform="translate(1.474 1.568)" fill="#9c0303"/>
            <ellipse id="Elipse_5571" data-name="Elipse 5571" cx="5.18" cy="5.046" rx="5.18" ry="5.046" transform="translate(1.494 1.587)" fill="#9b0202"/>
            <ellipse id="Elipse_5572" data-name="Elipse 5572" cx="5.16" cy="5.027" rx="5.16" ry="5.027" transform="translate(1.513 1.606)" fill="#9a0101"/>
            <ellipse id="Elipse_5573" data-name="Elipse 5573" cx="5.141" cy="5.008" rx="5.141" ry="5.008" transform="translate(1.532 1.624)" fill="#900"/>
            <ellipse id="Elipse_5574" data-name="Elipse 5574" cx="5.122" cy="4.989" rx="5.122" ry="4.989" transform="translate(1.552 1.643)" fill="#900"/>
            <ellipse id="Elipse_5575" data-name="Elipse 5575" cx="5.071" cy="4.94" rx="5.071" ry="4.94" transform="translate(1.602 1.692)" fill="#9a0101"/>
            <ellipse id="Elipse_5576" data-name="Elipse 5576" cx="5.021" cy="4.891" rx="5.021" ry="4.891" transform="translate(1.652 1.741)" fill="#9b0202"/>
            <ellipse id="Elipse_5577" data-name="Elipse 5577" cx="4.971" cy="4.842" rx="4.971" ry="4.842" transform="translate(1.702 1.79)" fill="#9c0202"/>
            <ellipse id="Elipse_5578" data-name="Elipse 5578" cx="4.921" cy="4.794" rx="4.921" ry="4.794" transform="translate(1.752 1.839)" fill="#9d0303"/>
            <ellipse id="Elipse_5579" data-name="Elipse 5579" cx="4.871" cy="4.745" rx="4.871" ry="4.745" transform="translate(1.803 1.888)" fill="#9e0404"/>
            <ellipse id="Elipse_5580" data-name="Elipse 5580" cx="4.82" cy="4.696" rx="4.82" ry="4.696" transform="translate(1.853 1.937)" fill="#9f0505"/>
            <ellipse id="Elipse_5581" data-name="Elipse 5581" cx="4.77" cy="4.647" rx="4.77" ry="4.647" transform="translate(1.903 1.986)" fill="#a00606"/>
            <ellipse id="Elipse_5582" data-name="Elipse 5582" cx="4.72" cy="4.598" rx="4.72" ry="4.598" transform="translate(1.953 2.035)" fill="#a10606"/>
            <ellipse id="Elipse_5583" data-name="Elipse 5583" cx="4.67" cy="4.549" rx="4.67" ry="4.549" transform="translate(2.003 2.084)" fill="#a20707"/>
            <ellipse id="Elipse_5584" data-name="Elipse 5584" cx="4.62" cy="4.5" rx="4.62" ry="4.5" transform="translate(2.054 2.132)" fill="#a30808"/>
            <ellipse id="Elipse_5585" data-name="Elipse 5585" cx="4.569" cy="4.451" rx="4.569" ry="4.451" transform="translate(2.104 2.181)" fill="#a40909"/>
            <ellipse id="Elipse_5586" data-name="Elipse 5586" cx="4.519" cy="4.402" rx="4.519" ry="4.402" transform="translate(2.154 2.23)" fill="#a50a0a"/>
            <ellipse id="Elipse_5587" data-name="Elipse 5587" cx="4.469" cy="4.353" rx="4.469" ry="4.353" transform="translate(2.204 2.279)" fill="#a60b0b"/>
            <ellipse id="Elipse_5588" data-name="Elipse 5588" cx="4.419" cy="4.304" rx="4.419" ry="4.304" transform="translate(2.255 2.328)" fill="#a70b0b"/>
            <ellipse id="Elipse_5589" data-name="Elipse 5589" cx="4.369" cy="4.256" rx="4.369" ry="4.256" transform="translate(2.305 2.377)" fill="#a80c0c"/>
            <ellipse id="Elipse_5590" data-name="Elipse 5590" cx="4.318" cy="4.207" rx="4.318" ry="4.207" transform="translate(2.355 2.426)" fill="#a90d0d"/>
            <ellipse id="Elipse_5591" data-name="Elipse 5591" cx="4.268" cy="4.158" rx="4.268" ry="4.158" transform="translate(2.405 2.475)" fill="#aa0e0e"/>
            <ellipse id="Elipse_5592" data-name="Elipse 5592" cx="4.218" cy="4.109" rx="4.218" ry="4.109" transform="translate(2.455 2.524)" fill="#ab0f0f"/>
            <ellipse id="Elipse_5593" data-name="Elipse 5593" cx="4.168" cy="4.06" rx="4.168" ry="4.06" transform="translate(2.506 2.573)" fill="#ac0f0f"/>
            <ellipse id="Elipse_5594" data-name="Elipse 5594" cx="4.118" cy="4.011" rx="4.118" ry="4.011" transform="translate(2.556 2.622)" fill="#ad1010"/>
            <ellipse id="Elipse_5595" data-name="Elipse 5595" cx="4.067" cy="3.962" rx="4.067" ry="3.962" transform="translate(2.606 2.67)" fill="#ae1111"/>
            <ellipse id="Elipse_5596" data-name="Elipse 5596" cx="4.017" cy="3.913" rx="4.017" ry="3.913" transform="translate(2.656 2.719)" fill="#af1212"/>
            <ellipse id="Elipse_5597" data-name="Elipse 5597" cx="3.967" cy="3.864" rx="3.967" ry="3.864" transform="translate(2.707 2.768)" fill="#b01313"/>
            <ellipse id="Elipse_5598" data-name="Elipse 5598" cx="3.917" cy="3.815" rx="3.917" ry="3.815" transform="translate(2.757 2.817)" fill="#b11313"/>
            <ellipse id="Elipse_5599" data-name="Elipse 5599" cx="3.866" cy="3.766" rx="3.866" ry="3.766" transform="translate(2.807 2.866)" fill="#b21414"/>
            <ellipse id="Elipse_5600" data-name="Elipse 5600" cx="3.816" cy="3.718" rx="3.816" ry="3.718" transform="translate(2.857 2.915)" fill="#b31515"/>
            <ellipse id="Elipse_5601" data-name="Elipse 5601" cx="3.766" cy="3.669" rx="3.766" ry="3.669" transform="translate(2.907 2.964)" fill="#b41616"/>
            <ellipse id="Elipse_5602" data-name="Elipse 5602" cx="3.716" cy="3.62" rx="3.716" ry="3.62" transform="translate(2.958 3.013)" fill="#b51717"/>
            <ellipse id="Elipse_5603" data-name="Elipse 5603" cx="3.666" cy="3.571" rx="3.666" ry="3.571" transform="translate(3.008 3.062)" fill="#b61818"/>
            <ellipse id="Elipse_5604" data-name="Elipse 5604" cx="3.615" cy="3.522" rx="3.615" ry="3.522" transform="translate(3.058 3.111)" fill="#b71818"/>
            <ellipse id="Elipse_5605" data-name="Elipse 5605" cx="3.565" cy="3.473" rx="3.565" ry="3.473" transform="translate(3.108 3.16)" fill="#b81919"/>
            <ellipse id="Elipse_5606" data-name="Elipse 5606" cx="3.515" cy="3.424" rx="3.515" ry="3.424" transform="translate(3.159 3.208)" fill="#b91a1a"/>
            <ellipse id="Elipse_5607" data-name="Elipse 5607" cx="3.465" cy="3.375" rx="3.465" ry="3.375" transform="translate(3.209 3.257)" fill="#ba1b1b"/>
            <ellipse id="Elipse_5608" data-name="Elipse 5608" cx="3.414" cy="3.326" rx="3.414" ry="3.326" transform="translate(3.259 3.306)" fill="#bb1c1c"/>
            <ellipse id="Elipse_5609" data-name="Elipse 5609" cx="3.364" cy="3.277" rx="3.364" ry="3.277" transform="translate(3.309 3.355)" fill="#bc1c1c"/>
            <ellipse id="Elipse_5610" data-name="Elipse 5610" cx="3.314" cy="3.228" rx="3.314" ry="3.228" transform="translate(3.359 3.404)" fill="#bd1d1d"/>
            <ellipse id="Elipse_5611" data-name="Elipse 5611" cx="3.264" cy="3.18" rx="3.264" ry="3.18" transform="translate(3.409 3.453)" fill="#be1e1e"/>
            <ellipse id="Elipse_5612" data-name="Elipse 5612" cx="3.214" cy="3.131" rx="3.214" ry="3.131" transform="translate(3.46 3.502)" fill="#bf1f1f"/>
            <ellipse id="Elipse_5613" data-name="Elipse 5613" cx="3.163" cy="3.082" rx="3.163" ry="3.082" transform="translate(3.51 3.551)" fill="#c02020"/>
            <ellipse id="Elipse_5614" data-name="Elipse 5614" cx="3.113" cy="3.033" rx="3.113" ry="3.033" transform="translate(3.56 3.6)" fill="#c12020"/>
            <ellipse id="Elipse_5615" data-name="Elipse 5615" cx="3.063" cy="2.984" rx="3.063" ry="2.984" transform="translate(3.61 3.649)" fill="#c22121"/>
            <ellipse id="Elipse_5616" data-name="Elipse 5616" cx="3.013" cy="2.935" rx="3.013" ry="2.935" transform="translate(3.66 3.698)" fill="#c32222"/>
            <ellipse id="Elipse_5617" data-name="Elipse 5617" cx="2.962" cy="2.886" rx="2.962" ry="2.886" transform="translate(3.711 3.746)" fill="#c42323"/>
            <ellipse id="Elipse_5618" data-name="Elipse 5618" cx="2.912" cy="2.837" rx="2.912" ry="2.837" transform="translate(3.761 3.795)" fill="#c52424"/>
            <ellipse id="Elipse_5619" data-name="Elipse 5619" cx="2.862" cy="2.788" rx="2.862" ry="2.788" transform="translate(3.811 3.844)" fill="#c62525"/>
            <ellipse id="Elipse_5620" data-name="Elipse 5620" cx="2.812" cy="2.739" rx="2.812" ry="2.739" transform="translate(3.861 3.893)" fill="#c72525"/>
            <ellipse id="Elipse_5621" data-name="Elipse 5621" cx="2.762" cy="2.69" rx="2.762" ry="2.69" transform="translate(3.912 3.942)" fill="#c82626"/>
            <ellipse id="Elipse_5622" data-name="Elipse 5622" cx="2.712" cy="2.641" rx="2.712" ry="2.641" transform="translate(3.962 3.991)" fill="#c92727"/>
            <ellipse id="Elipse_5623" data-name="Elipse 5623" cx="2.661" cy="2.593" rx="2.661" ry="2.593" transform="translate(4.012 4.04)" fill="#ca2828"/>
            <ellipse id="Elipse_5624" data-name="Elipse 5624" cx="2.611" cy="2.544" rx="2.611" ry="2.544" transform="translate(4.062 4.089)" fill="#cb2929"/>
            <ellipse id="Elipse_5625" data-name="Elipse 5625" cx="2.561" cy="2.495" rx="2.561" ry="2.495" transform="translate(4.112 4.138)" fill="#cd2929"/>
            <ellipse id="Elipse_5626" data-name="Elipse 5626" cx="2.511" cy="2.446" rx="2.511" ry="2.446" transform="translate(4.163 4.187)" fill="#ce2a2a"/>
            <ellipse id="Elipse_5627" data-name="Elipse 5627" cx="2.461" cy="2.397" rx="2.461" ry="2.397" transform="translate(4.213 4.236)" fill="#cf2b2b"/>
            <ellipse id="Elipse_5628" data-name="Elipse 5628" cx="2.41" cy="2.348" rx="2.41" ry="2.348" transform="translate(4.263 4.285)" fill="#d02c2c"/>
            <ellipse id="Elipse_5629" data-name="Elipse 5629" cx="2.36" cy="2.299" rx="2.36" ry="2.299" transform="translate(4.313 4.334)" fill="#d12d2d"/>
            <ellipse id="Elipse_5630" data-name="Elipse 5630" cx="2.31" cy="2.25" rx="2.31" ry="2.25" transform="translate(4.364 4.382)" fill="#d22d2d"/>
            <ellipse id="Elipse_5631" data-name="Elipse 5631" cx="2.26" cy="2.201" rx="2.26" ry="2.201" transform="translate(4.414 4.431)" fill="#d32e2e"/>
            <ellipse id="Elipse_5632" data-name="Elipse 5632" cx="2.209" cy="2.152" rx="2.209" ry="2.152" transform="translate(4.464 4.48)" fill="#d42f2f"/>
            <ellipse id="Elipse_5633" data-name="Elipse 5633" cx="2.159" cy="2.103" rx="2.159" ry="2.103" transform="translate(4.514 4.529)" fill="#d53030"/>
            <ellipse id="Elipse_5634" data-name="Elipse 5634" cx="2.109" cy="2.054" rx="2.109" ry="2.054" transform="translate(4.564 4.578)" fill="#d63131"/>
            <ellipse id="Elipse_5635" data-name="Elipse 5635" cx="2.059" cy="2.005" rx="2.059" ry="2.005" transform="translate(4.615 4.627)" fill="#d73232"/>
            <ellipse id="Elipse_5636" data-name="Elipse 5636" cx="2.009" cy="1.957" rx="2.009" ry="1.957" transform="translate(4.665 4.676)" fill="#d83232"/>
            <ellipse id="Elipse_5637" data-name="Elipse 5637" cx="1.958" cy="1.908" rx="1.958" ry="1.908" transform="translate(4.715 4.725)" fill="#d93333"/>
            <ellipse id="Elipse_5638" data-name="Elipse 5638" cx="1.908" cy="1.859" rx="1.908" ry="1.859" transform="translate(4.765 4.774)" fill="#da3434"/>
            <ellipse id="Elipse_5639" data-name="Elipse 5639" cx="1.858" cy="1.81" rx="1.858" ry="1.81" transform="translate(4.816 4.823)" fill="#db3535"/>
            <ellipse id="Elipse_5640" data-name="Elipse 5640" cx="1.808" cy="1.761" rx="1.808" ry="1.761" transform="translate(4.866 4.872)" fill="#dc3636"/>
            <ellipse id="Elipse_5641" data-name="Elipse 5641" cx="1.757" cy="1.712" rx="1.757" ry="1.712" transform="translate(4.916 4.921)" fill="#dd3636"/>
            <ellipse id="Elipse_5642" data-name="Elipse 5642" cx="1.707" cy="1.663" rx="1.707" ry="1.663" transform="translate(4.966 4.969)" fill="#de3737"/>
            <ellipse id="Elipse_5643" data-name="Elipse 5643" cx="1.657" cy="1.614" rx="1.657" ry="1.614" transform="translate(5.016 5.018)" fill="#df3838"/>
            <ellipse id="Elipse_5644" data-name="Elipse 5644" cx="1.607" cy="1.565" rx="1.607" ry="1.565" transform="translate(5.066 5.067)" fill="#e03939"/>
            <ellipse id="Elipse_5645" data-name="Elipse 5645" cx="1.557" cy="1.516" rx="1.557" ry="1.516" transform="translate(5.117 5.116)" fill="#e13a3a"/>
            <ellipse id="Elipse_5646" data-name="Elipse 5646" cx="1.506" cy="1.467" rx="1.506" ry="1.467" transform="translate(5.167 5.165)" fill="#e23a3a"/>
            <ellipse id="Elipse_5647" data-name="Elipse 5647" cx="1.456" cy="1.418" rx="1.456" ry="1.418" transform="translate(5.217 5.214)" fill="#e33b3b"/>
            <ellipse id="Elipse_5648" data-name="Elipse 5648" cx="1.406" cy="1.37" rx="1.406" ry="1.37" transform="translate(5.267 5.263)" fill="#e43c3c"/>
            <ellipse id="Elipse_5649" data-name="Elipse 5649" cx="1.356" cy="1.321" rx="1.356" ry="1.321" transform="translate(5.318 5.312)" fill="#e53d3d"/>
            <ellipse id="Elipse_5650" data-name="Elipse 5650" cx="1.305" cy="1.272" rx="1.305" ry="1.272" transform="translate(5.368 5.361)" fill="#e63e3e"/>
            <ellipse id="Elipse_5651" data-name="Elipse 5651" cx="1.255" cy="1.223" rx="1.255" ry="1.223" transform="translate(5.418 5.41)" fill="#e73f3f"/>
            <ellipse id="Elipse_5652" data-name="Elipse 5652" cx="1.205" cy="1.174" rx="1.205" ry="1.174" transform="translate(5.468 5.459)" fill="#e83f3f"/>
            <ellipse id="Elipse_5653" data-name="Elipse 5653" cx="1.155" cy="1.125" rx="1.155" ry="1.125" transform="translate(5.518 5.508)" fill="#e94040"/>
            <ellipse id="Elipse_5654" data-name="Elipse 5654" cx="1.105" cy="1.076" rx="1.105" ry="1.076" transform="translate(5.569 5.557)" fill="#ea4141"/>
            <ellipse id="Elipse_5655" data-name="Elipse 5655" cx="1.054" cy="1.027" rx="1.054" ry="1.027" transform="translate(5.619 5.605)" fill="#eb4242"/>
            <ellipse id="Elipse_5656" data-name="Elipse 5656" cx="1.004" cy="0.978" rx="1.004" ry="0.978" transform="translate(5.669 5.654)" fill="#ec4343"/>
            <ellipse id="Elipse_5657" data-name="Elipse 5657" cx="0.954" cy="0.929" rx="0.954" ry="0.929" transform="translate(5.719 5.703)" fill="#ed4343"/>
            <ellipse id="Elipse_5658" data-name="Elipse 5658" cx="0.904" cy="0.88" rx="0.904" ry="0.88" transform="translate(5.769 5.752)" fill="#e44"/>
            <ellipse id="Elipse_5659" data-name="Elipse 5659" cx="0.854" cy="0.831" rx="0.854" ry="0.831" transform="translate(5.82 5.801)" fill="#ef4545"/>
            <ellipse id="Elipse_5660" data-name="Elipse 5660" cx="0.803" cy="0.783" rx="0.803" ry="0.783" transform="translate(5.87 5.85)" fill="#f04646"/>
            <ellipse id="Elipse_5661" data-name="Elipse 5661" cx="0.753" cy="0.734" rx="0.753" ry="0.734" transform="translate(5.92 5.899)" fill="#f14747"/>
            <ellipse id="Elipse_5662" data-name="Elipse 5662" cx="0.703" cy="0.685" rx="0.703" ry="0.685" transform="translate(5.97 5.948)" fill="#f24747"/>
            <ellipse id="Elipse_5663" data-name="Elipse 5663" cx="0.653" cy="0.636" rx="0.653" ry="0.636" transform="translate(6.021 5.997)" fill="#f34848"/>
            <ellipse id="Elipse_5664" data-name="Elipse 5664" cx="0.603" cy="0.587" rx="0.603" ry="0.587" transform="translate(6.071 6.046)" fill="#f44949"/>
            <ellipse id="Elipse_5665" data-name="Elipse 5665" cx="0.552" cy="0.538" rx="0.552" ry="0.538" transform="translate(6.121 6.095)" fill="#f54a4a"/>
            <ellipse id="Elipse_5666" data-name="Elipse 5666" cx="0.502" cy="0.489" rx="0.502" ry="0.489" transform="translate(6.171 6.143)" fill="#f64b4b"/>
            <ellipse id="Elipse_5667" data-name="Elipse 5667" cx="0.452" cy="0.44" rx="0.452" ry="0.44" transform="translate(6.221 6.192)" fill="#f74c4c"/>
            <ellipse id="Elipse_5668" data-name="Elipse 5668" cx="0.402" cy="0.391" rx="0.402" ry="0.391" transform="translate(6.272 6.241)" fill="#f84c4c"/>
            <ellipse id="Elipse_5669" data-name="Elipse 5669" cx="0.352" cy="0.342" rx="0.352" ry="0.342" transform="translate(6.322 6.29)" fill="#f94d4d"/>
            <ellipse id="Elipse_5670" data-name="Elipse 5670" cx="0.301" cy="0.293" rx="0.301" ry="0.293" transform="translate(6.372 6.339)" fill="#fa4e4e"/>
            <ellipse id="Elipse_5671" data-name="Elipse 5671" cx="0.251" cy="0.245" rx="0.251" ry="0.245" transform="translate(6.422 6.388)" fill="#fb4f4f"/>
            <ellipse id="Elipse_5672" data-name="Elipse 5672" cx="0.201" cy="0.196" rx="0.201" ry="0.196" transform="translate(6.473 6.437)" fill="#fc5050"/>
            <path id="Trazado_778440" data-name="Trazado 778440" d="M2358.291,1088.027a.151.151,0,1,1-.151-.147A.149.149,0,0,1,2358.291,1088.027Z" transform="translate(-2351.467 -1081.394)" fill="#fd5050"/>
            <path id="Trazado_778441" data-name="Trazado 778441" d="M2360.221,1089.958a.1.1,0,1,1-.1-.1A.1.1,0,0,1,2360.221,1089.958Z" transform="translate(-2353.447 -1083.325)" fill="#fe5151"/>
            <path id="Trazado_778442" data-name="Trazado 778442" d="M2362.15,1091.889a.05.05,0,1,1-.05-.049A.05.05,0,0,1,2362.15,1091.889Z" transform="translate(-2355.427 -1085.256)" fill="#ff5252"/>
          </g>
          <path id="Trazado_778443" data-name="Trazado 778443" d="M2098.966,837.2a6.846,6.846,0,1,1,6.846-6.846A6.854,6.854,0,0,1,2098.966,837.2Zm0-13.59a6.744,6.744,0,1,0,6.744,6.744A6.752,6.752,0,0,0,2098.966,823.611Z" transform="translate(-2091.055 -822.445)" fill="#700"/>
          <circle id="Elipse_5674" data-name="Elipse 5674" cx="6.795" cy="6.795" r="6.795" transform="translate(1.115 1.116)" fill="#f91d1d"/>
          <path id="Trazado_778444" data-name="Trazado 778444" d="M2108.877,1128.936a1.058,1.058,0,0,1-1.567.3l-3.209,2.14-6.588-1.8s-.563.169-1.577-.957a1.96,1.96,0,0,1-.4-.715,6.8,6.8,0,0,0,13.337,1.036Z" transform="translate(-2094.391 -1119.309)" fill="#cc1717"/>
          <circle id="Elipse_5675" data-name="Elipse 5675" cx="5.594" cy="5.594" r="5.594" transform="translate(0 7.911) rotate(-45)" fill="#dd1717"/>
          <circle id="Elipse_5676" data-name="Elipse 5676" cx="2.898" cy="2.898" r="2.898" transform="translate(5.012 5.012)" fill="#f91d1d"/>
          <path id="Trazado_778445" data-name="Trazado 778445" d="M2181.3,840.84a6.358,6.358,0,0,0-5.124,1.745c-1.521,1.52.113.845,1.351.225a7.084,7.084,0,0,1,5.068-.338c1.521.619,2.2,1.07,2.252.394s-1.8-1.8-3.547-2.027Z" transform="translate(-2172.433 -839.304)" fill="#ff5050"/>
          <path id="Trazado_778446" data-name="Trazado 778446" d="M2164.16,1189.811a5.923,5.923,0,0,0,5.181,2.7c3.491-.169,4.843-2.816,4.843-3.322s-.45.169-1.52.957-1.971,1.8-4.392,1.408a6.319,6.319,0,0,1-4.054-2.478c-.394-.507-.338.281-.057.732Z" transform="translate(-2161.095 -1178.816)" fill="#ff5050"/>
          <path id="Trazado_778447" data-name="Trazado 778447" d="M2100.224,838.427a6.814,6.814,0,1,1,6.814-6.814A6.822,6.822,0,0,1,2100.224,838.427Zm0-13.59a6.776,6.776,0,1,0,6.776,6.776A6.784,6.784,0,0,0,2100.224,824.837Z" transform="translate(-2092.313 -823.703)" fill="#6d1212"/>
        </g>
        <g id="Grupo_1046420" data-name="Grupo 1046420" transform="translate(10.989 40.183)">
          <ellipse id="Elipse_5677" data-name="Elipse 5677" cx="13.195" cy="12.393" rx="13.195" ry="12.393" transform="translate(0.037 0.037)" fill="#f91d1d"/>
          <ellipse id="Elipse_5678" data-name="Elipse 5678" cx="10.035" cy="8.889" rx="10.035" ry="8.889" transform="translate(3.147 2.275)" fill="#dd1717"/>
          <ellipse id="Elipse_5679" data-name="Elipse 5679" cx="6.073" cy="5.379" rx="6.073" ry="5.379" transform="translate(7.109 6.297)" fill="#f91d1d"/>
          <path id="Trazado_778448" data-name="Trazado 778448" d="M708.657,2488.47c.038.324.076.666.112,1.029.587,5.864-1.906,9.822-6.3,12.314s-13.781,1.466-17.006-4.545a14.478,14.478,0,0,1-1.613-7.9,11.694,11.694,0,0,0-.617,3.753c0,6.844,5.908,12.392,13.2,12.392s13.2-5.548,13.2-12.392a11.7,11.7,0,0,0-.964-4.655Z" transform="translate(-683.193 -2480.696)" fill="#cc1717"/>
          <path id="Trazado_778449" data-name="Trazado 778449" d="M834.134,2202.52a12.032,12.032,0,0,0-9.456,4.288c-2.089,2.749.22,1.429,2.529-.22s6.157-2.418,8.576-1.649,4.4,1.649,5.717,3.409,2.749,1.979,2.529.659-4.178-6.487-9.9-6.487Z" transform="translate(-820.347 -2201.816)" fill="#ff5050"/>
          <path id="Trazado_778450" data-name="Trazado 778450" d="M843.508,2801.032c1.181,1.518,2.859,3.628,8.576,4.068a9.432,9.432,0,0,0,9.016-4.178c.77-1.1-.55-1.209-1.759-.33s-2.859,2.309-7.476,2.419-6.707-1.979-7.586-2.969S842.739,2800.043,843.508,2801.032Z" transform="translate(-839.177 -2784.166)" fill="#ff5050"/>
          <path id="Trazado_778451" data-name="Trazado 778451" d="M694.972,2198.888c-7.3,0-13.232-5.576-13.232-12.429s5.936-12.43,13.232-12.43,13.232,5.576,13.232,12.43S702.268,2198.888,694.972,2198.888Zm0-24.785c-7.256,0-13.159,5.543-13.159,12.356s5.9,12.356,13.159,12.356,13.159-5.543,13.159-12.356S702.228,2174.1,694.972,2174.1Z" transform="translate(-681.74 -2174.03)" fill="#6d1212"/>
        </g>
        <g id="Grupo_1046421" data-name="Grupo 1046421" transform="translate(29.283 18.396)">
          <path id="Trazado_778452" data-name="Trazado 778452" d="M1442.5,1337.817c-4.958-5.851-12.439-7.661-16.71-4.042s-3.714,11.3,1.244,17.146l.009.011.01.012a17.078,17.078,0,0,0,7.081,5.086c3.537,1.307,7.119,1.043,9.61-1.067,4.271-3.619,3.714-11.3-1.244-17.146Z" transform="translate(-1422.889 -1330.946)" fill="#f91d1d"/>
          <ellipse id="Elipse_5680" data-name="Elipse 5680" cx="6.522" cy="10.035" rx="6.522" ry="10.035" transform="translate(1.921 8.433) rotate(-40.28)" fill="#dd1717"/>
          <ellipse id="Elipse_5681" data-name="Elipse 5681" cx="3.763" cy="5.79" rx="3.763" ry="5.79" transform="translate(5.681 10.934) rotate(-40.28)" fill="#f91d1d"/>
          <path id="Trazado_778453" data-name="Trazado 778453" d="M1446.159,1518.973c.292,2.771.068,6.242-2.323,8.154-4.4,3.519-14.074.88-18.472-6.3a11.845,11.845,0,0,1-1.5-10.1c-1.922,4.007-.781,9.887,3.2,14.59l.009.011.01.012a17.076,17.076,0,0,0,7.081,5.086c3.537,1.307,7.119,1.043,9.61-1.067,2.73-2.313,3.487-6.285,2.383-10.378Z" transform="translate(-1422.92 -1505.334)" fill="#cc1717"/>
          <path id="Trazado_778454" data-name="Trazado 778454" d="M1488,1356.412a6.608,6.608,0,0,0-6.157,3.188c-1.319,2.2-.989,4.948-.659,6.487s1.429.44,1.539-1.759a8.043,8.043,0,0,1,3.079-5.717,7.47,7.47,0,0,1,6.487-.55c1.869.77-.11-1.209-4.288-1.649Z" transform="translate(-1479.424 -1354.812)" fill="#ff5050"/>
          <path id="Trazado_778455" data-name="Trazado 778455" d="M1811.157,1838.817c2.467.987,5.387,1.979,7.586.44a5.58,5.58,0,0,0,2.089-6.377c-.66-2.419-.66,0-.989,1.429s-1.319,3.628-3.3,4.178-5.827-.77-7.256-1.759S1809.508,1838.157,1811.157,1838.817Z" transform="translate(-1799.173 -1818.526)" fill="#ff5050"/>
          <path id="Trazado_778456" data-name="Trazado 778456" d="M1437.13,1355.3a12.252,12.252,0,0,1-4.231-.805,17.217,17.217,0,0,1-7.1-5.1l-.005-.006.024-.029-.032.018-.005-.006c-4.963-5.857-5.519-13.572-1.24-17.2a8.984,8.984,0,0,1,8.129-1.538,17.76,17.76,0,0,1,12.723,15.015,8.984,8.984,0,0,1-2.852,7.767,8.225,8.225,0,0,1-5.414,1.879Zm-7.175-24.925a8.138,8.138,0,0,0-5.364,1.858c-4.248,3.6-3.688,11.269,1.248,17.095l.015.017a17.149,17.149,0,0,0,7.07,5.081c3.683,1.361,7.172.974,9.573-1.061a8.913,8.913,0,0,0,2.826-7.706,17.687,17.687,0,0,0-12.667-14.949,11.513,11.513,0,0,0-2.7-.336Z" transform="translate(-1421.664 -1329.372)" fill="#6d1212"/>
        </g>
        <g id="Grupo_1046422" data-name="Grupo 1046422" transform="translate(60.685 37.591)">
          <path id="Trazado_778457" data-name="Trazado 778457" d="M2698.274,2085.532c1.574-1.219,3.572-1.277,4.462-.128s.336,3.069-1.238,4.289l0,0,0,0a4.43,4.43,0,0,1-2.072.911,2.47,2.47,0,0,1-2.384-.788C2696.146,2088.672,2696.7,2086.751,2698.274,2085.532Z" transform="translate(-2696.491 -2084.199)" fill="#f91d1d"/>
          <ellipse id="Elipse_5682" data-name="Elipse 5682" cx="2.605" cy="1.693" rx="2.605" ry="1.693" transform="matrix(0.79, -0.612, 0.612, 0.79, 0, 3.192)" fill="#dd1717"/>
          <ellipse id="Elipse_5683" data-name="Elipse 5683" cx="1.503" cy="0.977" rx="1.503" ry="0.977" transform="matrix(0.79, -0.612, 0.612, 0.79, 1.531, 3.407)" fill="#f91d1d"/>
          <path id="Trazado_778458" data-name="Trazado 778458" d="M2696.989,2149.4a2.347,2.347,0,0,0,.151,2.2c.928,1.131,3.528.98,5.031-.607a3.075,3.075,0,0,0,.924-2.486,3.681,3.681,0,0,1-1.6,3.534l0,0,0,0a4.429,4.429,0,0,1-2.072.911,2.47,2.47,0,0,1-2.384-.788,2.568,2.568,0,0,1-.047-2.765Z" transform="translate(-2696.49 -2146.54)" fill="#cc1717"/>
          <path id="Trazado_778459" data-name="Trazado 778459" d="M2834.908,2092.19a1.715,1.715,0,0,1,1.392,1.141,2.4,2.4,0,0,1-.181,1.683c-.167.373-.387.035-.3-.529a2.09,2.09,0,0,0-.475-1.618,1.939,1.939,0,0,0-1.618-.489c-.517.095.093-.3,1.177-.188Z" transform="translate(-2830.037 -2091.602)" fill="#ff5050"/>
          <path id="Trazado_778460" data-name="Trazado 778460" d="M2720.772,2188.232a2.114,2.114,0,0,1-1.951-.3,1.45,1.45,0,0,1-.188-1.732c.3-.579.167.036.174.417a1.421,1.421,0,0,0,.614,1.239,3.051,3.051,0,0,0,1.938-.057C2721.775,2187.627,2721.226,2188.153,2720.772,2188.232Z" transform="translate(-2717.772 -2183.079)" fill="#ff5050"/>
          <path id="Trazado_778461" data-name="Trazado 778461" d="M2696.622,2089.451a2.334,2.334,0,0,1-.307-2.126,4.612,4.612,0,0,1,4.04-3.13,2.333,2.333,0,0,1,1.982.828c.892,1.151.335,3.081-1.24,4.3h0l-.007-.006,0,.009h0a4.473,4.473,0,0,1-2.077.913,3.19,3.19,0,0,1-1.118-.023A2.135,2.135,0,0,1,2696.622,2089.451Zm3.733-5.237a4.592,4.592,0,0,0-4.022,3.116,2.313,2.313,0,0,0,.3,2.109,2.446,2.446,0,0,0,2.375.785,4.45,4.45,0,0,0,2.069-.91l0,0c1.567-1.215,2.122-3.132,1.236-4.275a2.111,2.111,0,0,0-1.262-.76,3,3,0,0,0-.7-.06Z" transform="translate(-2696.084 -2083.823)" fill="#6d1212"/>
        </g>
        <g id="Grupo_1046423" data-name="Grupo 1046423" transform="translate(0 9.926)">
          <path id="Trazado_778462" data-name="Trazado 778462" d="M261.065,954.02q-.16-.169-.336-.32a1.514,1.514,0,0,0-.124-.14,7.469,7.469,0,0,0-4.007-1.71l-.01.027c-2.8-.135-7.237,2.105-11.279,5.938-4.441,4.212-6.988,9.006-6.458,11.732,0,.045,0,.092.008.14a7.372,7.372,0,0,0,2.443,3.861,2.237,2.237,0,0,0,.721.448c3.414,1.939,9.5.1,14.472-4.614,5.565-5.277,7.611-12.154,4.57-15.361Z" transform="translate(-238.745 -951.811)" fill="#f91d1d"/>
          <ellipse id="Elipse_5684" data-name="Elipse 5684" cx="8.585" cy="2.754" rx="8.585" ry="2.754" transform="translate(1.159 12.852) rotate(-43.48)" fill="#dd1717"/>
          <path id="Trazado_778463" data-name="Trazado 778463" d="M502.151,1217.118c-2.109,2-3.356,4.165-2.96,5.057a21.462,21.462,0,0,0,4.631-3.427,21.8,21.8,0,0,0,3.578-4.293c-.836-.5-3.1.63-5.249,2.664Z" transform="translate(-492.644 -1207.807)" fill="#f55"/>
          <path id="Trazado_778464" data-name="Trazado 778464" d="M261.082,1036.928c-.022-.023-.046-.046-.069-.069a7.657,7.657,0,0,1,.386,2.467c0,5.571-7.623,12.9-12.754,15.1s-9.089,1.026-9.676-2.786a6.005,6.005,0,0,1-.067-1,4.943,4.943,0,0,0-.034,1.816c0,.045,0,.092.008.14a7.371,7.371,0,0,0,2.443,3.861,2.238,2.238,0,0,0,.721.448c3.414,1.938,9.5.1,14.472-4.614,5.565-5.277,7.611-12.154,4.57-15.361Z" transform="translate(-238.762 -1034.719)" fill="#cc1717"/>
          <path id="Trazado_778465" data-name="Trazado 778465" d="M616.77,968.8s4.618-3.188,6.707-2.419,1.759,1.649,2.419.99a1.323,1.323,0,0,0-.55-2.309C624.027,964.516,620.728,965.506,616.77,968.8Z" transform="translate(-607.387 -964.56)" fill="#ff5050"/>
          <path id="Trazado_778466" data-name="Trazado 778466" d="M287.565,1413.081s-.22,2.309,2.859,1.979,6.487-3.3,8.026-4.728-1.1-.44-3.078,1.1-5.717,2.859-6.377,1.429-1.319-1.1-1.429.22Z" transform="translate(-286.318 -1398.283)" fill="#ff5050"/>
          <path id="Trazado_778467" data-name="Trazado 778467" d="M243.755,973.261a6.493,6.493,0,0,1-3.227-.765,2.266,2.266,0,0,1-.727-.453,7.478,7.478,0,0,1-2.455-3.882c0-.052-.007-.1-.008-.145-.543-2.794,2.117-7.632,6.469-11.76,3.946-3.742,8.367-6.076,11.279-5.949l.011-.028.028,0a7.561,7.561,0,0,1,4.03,1.721,1.581,1.581,0,0,1,.127.143,4.414,4.414,0,0,1,.334.317c3.05,3.216,1,10.13-4.571,15.413a20.911,20.911,0,0,1-7.833,4.809,11.623,11.623,0,0,1-3.456.576Zm11.109-22.885a11.232,11.232,0,0,0-4.909,1.483,27.637,27.637,0,0,0-6.1,4.451c-4.335,4.111-6.987,8.922-6.447,11.7,0,.05,0,.1.008.144a7.411,7.411,0,0,0,2.431,3.836,2.212,2.212,0,0,0,.709.441c1.661.942,4.013,1.007,6.63.186a20.831,20.831,0,0,0,7.8-4.792c5.541-5.255,7.591-12.122,4.568-15.309-.1-.107-.214-.214-.333-.317a1.677,1.677,0,0,0-.125-.142,7.415,7.415,0,0,0-3.957-1.7l-.01.025h-.026c-.08,0-.162-.006-.246-.006Z" transform="translate(-237.267 -950.28)" fill="#6d1212"/>
        </g>
        <g id="Grupo_1046424" data-name="Grupo 1046424" transform="translate(73.644 42.796)">
          <path id="Trazado_778468" data-name="Trazado 778468" d="M3308.741,2322.866c-.022-.062-.049-.123-.077-.182a.762.762,0,0,0-.025-.076,3.178,3.178,0,0,0-1.277-1.346l-.008.009c-1.07-.525-3.185-.4-5.412.414-2.448.9-4.253,2.339-4.507,3.494-.008.018-.014.036-.021.056a3.138,3.138,0,0,0,.3,1.922.945.945,0,0,0,.206.3c1.007,1.335,3.7,1.644,6.436.643C3307.426,2326.976,3309.388,2324.634,3308.741,2322.866Z" transform="translate(-3297.359 -2320.937)" fill="#f91d1d"/>
          <ellipse id="Elipse_5685" data-name="Elipse 5685" cx="3.656" cy="1.172" rx="3.656" ry="1.172" transform="translate(1.312 2.516) rotate(-20.09)" fill="#dd1717"/>
          <path id="Trazado_778469" data-name="Trazado 778469" d="M3426.7,2408.244c-1.163.425-2.016,1.061-2.012,1.476a9.147,9.147,0,0,0,2.389-.557,9.294,9.294,0,0,0,2.124-1.073c-.242-.339-1.32-.279-2.5.154Z" transform="translate(-3421.527 -2405.705)" fill="#f55"/>
          <path id="Trazado_778470" data-name="Trazado 778470" d="M3308.741,2396.708c0-.013-.01-.025-.015-.038a3.271,3.271,0,0,1-.266,1.029c-.942,2.177-5.16,3.754-7.537,3.746s-3.726-1.135-3.311-2.724a2.585,2.585,0,0,1,.143-.4,2.1,2.1,0,0,0-.32.7c-.008.018-.014.036-.021.056a3.138,3.138,0,0,0,.3,1.922.949.949,0,0,0,.206.3c1.007,1.334,3.7,1.644,6.436.643C3307.426,2400.818,3309.388,2398.476,3308.741,2396.708Z" transform="translate(-3297.359 -2394.779)" fill="#cc1717"/>
          <path id="Trazado_778471" data-name="Trazado 778471" d="M3538.73,2325.958s2.344-.466,3.03.188.409.942.778.8a.563.563,0,0,0,.175-1c-.423-.438-1.879-.609-3.984.011Z" transform="translate(-3532.748 -2325.421)" fill="#ff5050"/>
          <path id="Trazado_778472" data-name="Trazado 778472" d="M3334.486,2438.909s-.476.865.783,1.257a7.237,7.237,0,0,0,3.936-.491c.843-.3-.355-.358-1.389-.09s-2.717.151-2.733-.52S3334.751,2438.412,3334.486,2438.909Z" transform="translate(-3333.468 -2435.621)" fill="#ff5050"/>
          <path id="Trazado_778473" data-name="Trazado 778473" d="M3298.473,2327.55a2.769,2.769,0,0,1-1.132-.844.974.974,0,0,1-.208-.3,3.181,3.181,0,0,1-.3-1.932c.007-.021.014-.04.021-.058.26-1.184,2.117-2.625,4.517-3.5,2.174-.8,4.3-.96,5.414-.418l.009-.009.011.006a3.223,3.223,0,0,1,1.284,1.354.624.624,0,0,1,.025.077,1.945,1.945,0,0,1,.077.18c.648,1.773-1.322,4.128-4.392,5.251a8.91,8.91,0,0,1-3.874.556A4.981,4.981,0,0,1,3298.473,2327.55Zm8.21-7.066a4.786,4.786,0,0,0-2.169-.25,11.772,11.772,0,0,0-3.135.709c-2.39.874-4.239,2.306-4.5,3.483-.008.02-.015.038-.021.058a3.157,3.157,0,0,0,.3,1.91.939.939,0,0,0,.2.292,3.6,3.6,0,0,0,2.56,1.193,8.869,8.869,0,0,0,3.859-.554c3.054-1.117,5.016-3.455,4.374-5.211-.022-.059-.047-.119-.077-.18a.613.613,0,0,0-.025-.077,3.159,3.159,0,0,0-1.259-1.332l-.008.008-.01,0-.095-.044Z" transform="translate(-3296.79 -2320.178)" fill="#6d1212"/>
        </g>
        <g id="Grupo_1046425" data-name="Grupo 1046425" transform="translate(59.558 13.782)">
          <path id="Trazado_778474" data-name="Trazado 778474" d="M2705.141,1117.212l-.006-.013-.006-.014a17.261,17.261,0,0,0-5.281-6.928c-2.985-2.284-6.455-3.083-9.408-1.8a7.9,7.9,0,0,0-3.758,3.532c-2.086,3-2.2,8.26.03,13.4,2.626,6.048,7.6,9.844,11.652,9.155a7.482,7.482,0,0,0,3.136-.609c5.065-2.2,6.7-9.684,3.641-16.719Z" transform="translate(-2684.116 -1107.804)" fill="#f91d1d"/>
          <path id="Trazado_778475" data-name="Trazado 778475" d="M2781.051,1591.609c-2.639,3.372-4.985,1.173-4.985,1.173,0,5.131-4.691,9.236-9.823,4.838a14.558,14.558,0,0,1-3.144-3.781c2.691,5.669,7.454,9.17,11.356,8.507a7.483,7.483,0,0,0,3.136-.609c4.469-1.94,6.263-8,4.526-14.227a6.5,6.5,0,0,1-1.067,4.1Z" transform="translate(-2760.208 -1575.611)" fill="#cc1717"/>
          <ellipse id="Elipse_5686" data-name="Elipse 5686" cx="5.974" cy="10.035" rx="5.974" ry="10.035" transform="matrix(0.917, -0.398, 0.398, 0.917, 0, 7.821)" fill="#dd1717"/>
          <ellipse id="Elipse_5687" data-name="Elipse 5687" cx="3.708" cy="6.229" rx="3.708" ry="6.229" transform="matrix(0.917, -0.398, 0.398, 0.917, 5.264, 9.554)" fill="#c11010"/>
          <path id="Trazado_778476" data-name="Trazado 778476" d="M2807.115,1119.348a6.869,6.869,0,0,0-6.377,1.869c-2.834,2.992,1.869.11,3.519.22s3.188,0,5.938,3.738,4.617,2.089,4.617.77S2811.953,1120.778,2807.115,1119.348Z" transform="translate(-2796.049 -1118.85)" fill="#ff5050"/>
          <path id="Trazado_778477" data-name="Trazado 778477" d="M2803.046,1728.307a20.232,20.232,0,0,0,4.728,5.5c2.639,1.869,4.508.22,4.838-.66s-1.869.77-3.848-.33-4.838-4.068-5.388-6.377-1.1.33-.33,1.869Z" transform="translate(-2798.797 -1710.218)" fill="#ff5050"/>
          <path id="Trazado_778478" data-name="Trazado 778478" d="M2695.98,1133.07a9.044,9.044,0,0,1-5.417-2.139,18.348,18.348,0,0,1-5.3-7.118,18.9,18.9,0,0,1-1.636-7.515,10.4,10.4,0,0,1,1.61-5.916,7.96,7.96,0,0,1,3.773-3.545c2.873-1.247,6.315-.589,9.445,1.805a17.405,17.405,0,0,1,5.293,6.943l0,.007-.031.021.036-.01,0,.008a16.918,16.918,0,0,1,1.226,10.2,8.835,8.835,0,0,1-4.886,6.572,7.523,7.523,0,0,1-3.151.612,5.725,5.725,0,0,1-.964.08Zm-3.954-26.779a7.462,7.462,0,0,0-2.99.612,7.891,7.891,0,0,0-3.74,3.517c-2.16,3.1-2.147,8.346.031,13.363a18.272,18.272,0,0,0,5.281,7.09,8.3,8.3,0,0,0,6.331,2.044,7.452,7.452,0,0,0,3.128-.607,8.766,8.766,0,0,0,4.844-6.52,16.848,16.848,0,0,0-1.222-10.151l-.009-.021a17.343,17.343,0,0,0-5.272-6.92,10.645,10.645,0,0,0-6.381-2.408Z" transform="translate(-2682.697 -1106.218)" fill="#6d1212"/>
        </g>
        <g id="Grupo_1046426" data-name="Grupo 1046426" transform="translate(36.405 0)">
          <path id="Trazado_778479" data-name="Trazado 778479" d="M1731.34,550.58l-5.354,1.575-5.033,1.481-5.354,1.575c-2.712.8-4.966,3.8-4.184,6.464s4.305,3.967,7.017,3.169l5.354-1.575,5.034-1.481,5.354-1.575c2.712-.8,4.966-3.8,4.183-6.464S1734.052,549.782,1731.34,550.58Z" transform="translate(-1711.22 -550.309)" fill="#f91d1d"/>
          <path id="Trazado_778480" data-name="Trazado 778480" d="M1738.49,714.24a7.326,7.326,0,0,1-2.185,3.113c-3.225,2.785-17.3,4.985-20.085,4.691-2.744-.289-4.633-1.718-3.846-4.705a4.774,4.774,0,0,0-.957,4.175c.783,2.66,4.305,3.967,7.018,3.169l5.353-1.575,5.034-1.481,5.354-1.575c2.493-.733,4.6-3.332,4.315-5.813Z" transform="translate(-1711.222 -710.15)" fill="#cc1717"/>
          <path id="Trazado_778481" data-name="Trazado 778481" d="M1818.569,587.079s14.183-4.4,16.052-4.948,3.409-.22,4.288.66-2.2,1.21-4.508,1.539a98.038,98.038,0,0,0-14.733,3.848C1816.26,589.608,1816.7,587.848,1818.569,587.079Z" transform="translate(-1814.476 -581.045)" fill="#ff5050"/>
          <path id="Trazado_778482" data-name="Trazado 778482" d="M1715.251,563.6a6.626,6.626,0,0,1-2.576-.525,4.357,4.357,0,0,1-2.02-6.866,6.435,6.435,0,0,1,3.422-2.548l15.741-4.63a6.433,6.433,0,0,1,4.257.29,4.357,4.357,0,0,1,2.02,6.866,6.435,6.435,0,0,1-3.422,2.548l-15.741,4.63A5.97,5.97,0,0,1,1715.251,563.6Zm14.578-14.535.01.035-15.741,4.63a6.358,6.358,0,0,0-3.382,2.519,4.283,4.283,0,0,0,1.988,6.758,6.36,6.36,0,0,0,4.207.287l15.741-4.63a6.361,6.361,0,0,0,3.382-2.519,4.284,4.284,0,0,0-1.988-6.758,6.359,6.359,0,0,0-4.207-.286Z" transform="translate(-1709.71 -548.798)" fill="#6d1212"/>
        </g>
        <g id="Grupo_1046427" data-name="Grupo 1046427" transform="translate(34.046 61.512)">
          <path id="Trazado_778483" data-name="Trazado 778483" d="M1625.352,3039.978l-2.391-.818-2.248-.769-2.391-.818a2.3,2.3,0,1,0-1.472,4.3l2.391.818,2.248.769,2.391.818a2.3,2.3,0,1,0,1.472-4.3Z" transform="translate(-1614.973 -3037.415)" fill="#f91d1d"/>
          <path id="Trazado_778484" data-name="Trazado 778484" d="M1627.015,3048.894a3.317,3.317,0,0,1-1.622.579c-1.921.186-7.7-2.681-8.652-3.518s-1.264-1.847-.191-2.745a2.162,2.162,0,0,0-1.445,1.293,2.6,2.6,0,0,0,1.765,3.007l2.391.818,2.248.769,2.391.818a2.7,2.7,0,0,0,3.115-1.021Z" transform="translate(-1614.992 -3043.05)" fill="#cc1717"/>
          <path id="Trazado_778485" data-name="Trazado 778485" d="M1698.136,3055.252s6.394,2.083,7.228,2.369a1.924,1.924,0,0,1,1.413,1.365c.095.555-1.129-.128-2.069-.61a44.439,44.439,0,0,0-6.453-2.43c-1.634-.363-1.011-.9-.119-.694Z" transform="translate(-1695.189 -3054.75)" fill="#ff5050"/>
          <path id="Trazado_778486" data-name="Trazado 778486" d="M1615.491,3040.843a3,3,0,0,1-.815-.867,1.973,1.973,0,0,1,1.049-3.067,2.915,2.915,0,0,1,1.931-.047l7.03,2.4a2.917,2.917,0,0,1,1.5,1.22,1.973,1.973,0,0,1-1.049,3.067,2.912,2.912,0,0,1-1.931.047l-7.03-2.4a2.708,2.708,0,0,1-.683-.353Zm9.19-1.561-.005.016-7.03-2.4a2.878,2.878,0,0,0-1.909.047,1.94,1.94,0,0,0-1.032,3.018,2.882,2.882,0,0,0,1.48,1.207l7.03,2.4a2.88,2.88,0,0,0,1.909-.046,1.94,1.94,0,0,0,1.032-3.018,2.88,2.88,0,0,0-1.48-1.206Z" transform="translate(-1614.302 -3036.719)" fill="#6d1212"/>
        </g>
      </g>
    </g>
  </g>
</svg>
