<svg xmlns="http://www.w3.org/2000/svg" xmlns:xlink="http://www.w3.org/1999/xlink" width="190" height="154.066" viewBox="0 0 190 154.066">
  <defs>
    <clipPath id="clip-path">
      <rect id="Rect치ngulo_356577" data-name="Rect치ngulo 356577" width="190" height="154.066" rx="12" transform="translate(810 1513.938)" fill="#fde9bc"/>
    </clipPath>
    <clipPath id="clip-path-2">
      <rect id="Rect치ngulo_356576" data-name="Rect치ngulo 356576" width="134.229" height="151.968" fill="none"/>
    </clipPath>
  </defs>
  <g id="Enmascarar_grupo_83" data-name="Enmascarar grupo 83" transform="translate(-810 -1513.938)" clip-path="url(#clip-path)">
    <g id="Grupo_1046449" data-name="Grupo 1046449" transform="translate(841.894 1522.253)">
      <g id="Grupo_1046449-2" data-name="Grupo 1046449" clip-path="url(#clip-path-2)">
        <path id="Trazado_778579" data-name="Trazado 778579" d="M79.678,18c17.453,14.182,34.606,5.754,41.729,20.46,9.5,19.616-12.177,25.937,3.829,48.629,29.748,42.175-20.957,62.087-55.49,65.523-84.713,8.427-37.466-32.849-58.724-54.108C-4.228,83.253-3.893,67.677,13.533,53.32c16.749-13.8,13.7-22.36,19.921-33.09C41.789,5.843,63.567,4.907,79.678,18" transform="translate(0 -5.505)" fill="#fff7e6"/>
        <path id="Trazado_778580" data-name="Trazado 778580" d="M207.094,41.1s5.045,13.534-.877,22.153c-5.716,8.318-7.88,10.2-7.88,23.843A115.41,115.41,0,0,1,180.7,85.841S176.658,53.489,207.094,41.1" transform="translate(-113.237 -25.784)" fill="#382f24"/>
        <path id="Trazado_778581" data-name="Trazado 778581" d="M90.5,144.868s16.489,0,19.857,6.54c3.069,5.956,14.268,27.109,18.074,35.671s9.512,18.549,5.945,24.732-4.043,8.264-19.025,4.7c0,6.6.357,6.653.357,14.144-6.369,3.187-16.572,5.728-31.867,7.325-24.915,2.6-34.91-.016-34.91-.016a46.131,46.131,0,0,0,2.237-9.948c-2.853,0-12.51-.268-12.51-.268S23.488,226.472,22.6,220.61c-.954-6.316,2.854-34.958,18.905-65.279,13.555-5.707,17.3-8.84,48.989-10.464" transform="translate(-14.092 -90.87)" fill="#b32d65"/>
        <path id="Trazado_778582" data-name="Trazado 778582" d="M254.786,182.989s.086.26.226.717.329,1.112.548,1.9.462,1.708.7,2.7.5,2.046.751,3.1l.353,1.582c.12.521.218,1.039.324,1.537l.313,1.434c.1.455.189.888.269,1.288.325,1.6.479,2.686.479,2.686s-.395-1.018-.893-2.577c-.126-.39-.261-.812-.4-1.261s-.291-.92-.411-1.416-.265-1-.386-1.526l-.379-1.581c-.118-.531-.237-1.063-.354-1.586s-.211-1.042-.311-1.543c-.192-1-.355-1.942-.482-2.75-.261-1.613-.357-2.7-.357-2.7" transform="translate(-159.817 -114.782)" fill="#85214b"/>
        <path id="Trazado_778583" data-name="Trazado 778583" d="M133.846,153.641l.25.469c.162.306.4.757.68,1.339s.62,1.291,1,2.111.794,1.747,1.211,2.775c.438,1.019.87,2.142,1.327,3.329s.9,2.452,1.349,3.767c.42,1.322.9,2.674,1.29,4.08l.614,2.113c.2.711.373,1.43.562,2.146s.374,1.433.533,2.154l.471,2.15c.337,1.419.557,2.838.8,4.2.267,1.363.421,2.7.589,3.958l.241,1.837q.076.9.147,1.726c.092,1.106.184,2.119.231,3.019.028.9.052,1.686.072,2.333l.048,2.031-.193-2.023c-.057-.643-.126-1.423-.2-2.319-.1-.893-.25-1.9-.38-2.995-.069-.548-.142-1.119-.216-1.71q-.144-.882-.3-1.82c-.2-1.249-.4-2.569-.684-3.921-.265-1.355-.526-2.757-.861-4.168l-.481-2.135c-.163-.715-.363-1.424-.542-2.138s-.355-1.429-.546-2.137-.4-1.408-.6-2.106c-.381-1.4-.822-2.756-1.221-4.078-.426-1.314-.838-2.584-1.248-3.782-.425-1.193-.808-2.328-1.2-3.361-.762-2.076-1.443-3.79-1.941-4.982l-.585-1.381-.214-.486" transform="translate(-83.956 -96.373)" fill="#85214b"/>
        <path id="Trazado_778584" data-name="Trazado 778584" d="M209.408,147.935l.848,1.095,2.216,2.9,6.656,8.828.9,1.208.913,1.18c.608.779,1.189,1.56,1.761,2.308s1.138,1.46,1.672,2.137l1.5,1.912c.455.6.912,1.117,1.3,1.586L228.2,172.3c.567.674.885,1.068.885,1.068s-.364-.346-.989-.967l-1.126-1.125c-.434-.435-.939-.916-1.424-1.494l-1.608-1.836c-.565-.656-1.178-1.336-1.757-2.082s-1.206-1.494-1.817-2.276l-.926-1.176-.909-1.2-1.792-2.412c-.6-.79-1.144-1.6-1.695-2.365-1.095-1.538-2.089-2.992-2.922-4.252s-1.507-2.324-1.987-3.062-.729-1.177-.729-1.177" transform="translate(-131.353 -92.794)" fill="#85214b"/>
        <path id="Trazado_778585" data-name="Trazado 778585" d="M100.044,156.435s-3.655,10.859-1.9,18.369c2.668,11.427-3.565,22.213,3.317,29.577-14.232,4.675-20.384-9.086-21.5-14.316,2.236-12.5,8.4-30.056,20.086-33.63" transform="translate(-50.154 -98.125)" fill="#85214b"/>
        <path id="Trazado_778586" data-name="Trazado 778586" d="M154.421,174.854s8.705,19.709,8.705,36.533c8.234,2.319,16.265-.684,16.265-.684s1.249-27.169-24.97-35.849" transform="translate(-96.862 -109.679)" fill="#ffe0ab"/>
        <path id="Trazado_778587" data-name="Trazado 778587" d="M161.05,190.81s7.963,8.107,13.148,23.3c-.515-4.846-3.527-14.843-13.148-23.3" transform="translate(-101.02 -119.687)" fill="#dbbe8b"/>
        <path id="Trazado_778588" data-name="Trazado 778588" d="M56.649,309.41c-3.332.386-4.13,1.347-6.064,2.437,1.888-2.5,3.706-2.564,6.064-2.437" transform="translate(-31.73 -194.057)" fill="#85214b"/>
        <path id="Trazado_778589" data-name="Trazado 778589" d="M302.6,282.356a5.434,5.434,0,0,1,4.726,2.022,13.419,13.419,0,0,0-4.726-2.022" transform="translate(-189.807 -177.111)" fill="#85214b"/>
        <path id="Trazado_778590" data-name="Trazado 778590" d="M287.367,285.068a20.544,20.544,0,0,1,1.3,17.167,32.454,32.454,0,0,0-1.3-17.167" transform="translate(-180.254 -178.812)" fill="#85214b"/>
        <path id="Trazado_778591" data-name="Trazado 778591" d="M293.519,283.9a18.172,18.172,0,0,1,4.754,13.574,34.681,34.681,0,0,0-4.754-13.574" transform="translate(-184.113 -178.08)" fill="#85214b"/>
        <path id="Trazado_778592" data-name="Trazado 778592" d="M58,310.888a17.623,17.623,0,0,0-7.412,10.393A11.6,11.6,0,0,1,58,310.888" transform="translate(-31.731 -195.008)" fill="#85214b"/>
        <path id="Trazado_778593" data-name="Trazado 778593" d="M62.708,313.559c-4.549,4.629-6.86,10.93-7.889,17.267.069-6.583,2.522-13.256,7.889-17.267" transform="translate(-34.386 -196.683)" fill="#85214b"/>
        <path id="Trazado_778594" data-name="Trazado 778594" d="M98.6,273.8l3.362,26.838s-10.85,0-26.311-9.022a62.2,62.2,0,0,0-8.8-4.518,34.743,34.743,0,0,1,2.616-7.37c5.243,3.713,13.229,0,16.884-2.38,3.4-1.169,7.245-2.794,12.247-3.548" transform="translate(-41.935 -171.741)" fill="#fff4e0"/>
        <path id="Trazado_778595" data-name="Trazado 778595" d="M118.1,283.314c.052.775.732,12.188-.521,12.188-.418,0,.433-11.354.521-12.187" transform="translate(-73.682 -177.711)" fill="#c7bcab"/>
        <path id="Trazado_778596" data-name="Trazado 778596" d="M73.874,264.885c5.779,5.78,16.884-2.381,16.884-2.381s.081-12.366-6.54-12.366c-.952,1.546-2.779,4.309-4.356,7.372s-4.473,4.421-5.989,7.375" transform="translate(-46.338 -156.901)" fill="#e68b57"/>
        <path id="Trazado_778597" data-name="Trazado 778597" d="M116.839,9.6c1.748,1.749,2.131,4.57-1.542,8.243-2.519,6.507-41.289,38.435-41.289,38.435a54.5,54.5,0,0,1-7.977,14.063c1.189,5.808,15.751,15.681-7.409,41.918-3.22-7.854-6.514-2.14-14.071-7.177s-9.586-22.988-7.7-34.112S42.1,52.081,50.289,49.142,67.081,41.8,68.341,34.659s.84-13.224,4.618-22.039S89.912-1.643,99.826.444c10.636,2.239,15.056,7.2,17.013,9.157" transform="translate(-22.702 0.001)" fill="#382f24"/>
        <path id="Trazado_778598" data-name="Trazado 778598" d="M170.994,60.244s-.148.019-.407.041-.628.045-1.072.044-.963,0-1.517-.026-1.139-.105-1.727-.17l-.874-.117a7.3,7.3,0,0,1-.84-.156c-.542-.12-1.045-.245-1.473-.365-.857-.232-1.413-.443-1.413-.443s.6-.005,1.482.072c.441.035.95.09,1.493.164.27.043.552.07.839.1l.868.094c.58.077,1.16.153,1.7.247.543.07,1.051.147,1.485.226s.8.152,1.053.2.4.088.4.088" transform="translate(-101.41 -37.041)" fill="#262019"/>
        <path id="Trazado_778599" data-name="Trazado 778599" d="M103.4,188.719s-.805,1.016-1.876,2.607c-.268.4-.546.836-.841,1.3s-.583.962-.881,1.478-.579,1.064-.868,1.617-.555,1.129-.8,1.711-.494,1.164-.693,1.753-.4,1.168-.548,1.74-.286,1.129-.386,1.663c-.061.266-.087.528-.131.781s-.075.5-.1.735c-.062.473-.079.909-.11,1.3-.009.39-.017.73-.024,1.01.011.564.016.887.016.887s-.074-.313-.19-.871c-.044-.28-.1-.622-.139-1.018-.025-.4-.071-.844-.057-1.335a12.857,12.857,0,0,1,.086-1.583,15.327,15.327,0,0,1,.283-1.75,17.269,17.269,0,0,1,.5-1.829c.2-.615.436-1.226.69-1.829s.552-1.186.854-1.754.63-1.109.959-1.624a24.457,24.457,0,0,1,1.981-2.679,18.271,18.271,0,0,1,2.276-2.3" transform="translate(-60.076 -118.376)" fill="#262019"/>
        <path id="Trazado_778600" data-name="Trazado 778600" d="M188.286,33.857S173.7,42.673,158.48,40.574c4.933,1.469,18.053,2.309,29.806-6.717" transform="translate(-99.408 -21.237)" fill="#262019"/>
        <path id="Trazado_778601" data-name="Trazado 778601" d="M93.3,112.4s-.053.27-.177.77-.313,1.234-.6,2.151c-.139.461-.319.963-.5,1.515-.2.545-.409,1.138-.655,1.763s-.506,1.292-.82,1.977l-.473,1.058-.538,1.089c-.354.749-.784,1.5-1.205,2.284-.438.778-.918,1.568-1.415,2.376l-.8,1.205-.407.613-.441.6-.9,1.217c-.315.4-.652.789-.982,1.19-1.309,1.614-2.89,3.1-4.3,4.686a55.108,55.108,0,0,0-4.017,5.111A45.181,45.181,0,0,0,69.15,153.3a31.982,31.982,0,0,0-1.408,5.688,21.565,21.565,0,0,0-.138,5.238,19.108,19.108,0,0,0,.959,4.329q.174.466.338.9l.378.813.179.383.2.353.371.658a18.789,18.789,0,0,0,1.263,1.829l.486.622-.523-.592a16.146,16.146,0,0,1-1.37-1.768l-.4-.647-.218-.348-.2-.379-.42-.808-.386-.9a17.6,17.6,0,0,1-1.144-4.389,25.526,25.526,0,0,1,1.315-11.225A45.921,45.921,0,0,1,74.351,141.5a56.008,56.008,0,0,1,4.127-5.154c1.478-1.631,3.026-3.054,4.327-4.63.328-.391.663-.771.977-1.162l.909-1.182.45-.58.418-.593.818-1.167c.513-.785,1.008-1.552,1.463-2.31.437-.767.884-1.5,1.254-2.228q.287-.544.563-1.065.257-.529.5-1.033c.341-.666.621-1.319.9-1.925s.506-1.19.729-1.723c.205-.54.407-1.032.565-1.485.325-.9.57-1.617.719-2.109s.223-.757.223-.757" transform="translate(-41.993 -70.504)" fill="#262019"/>
        <path id="Trazado_778602" data-name="Trazado 778602" d="M62.6,162.664s-.54.469-1.451,1.322-2.178,2.106-3.63,3.669c-.729.778-1.486,1.651-2.279,2.578s-1.583,1.943-2.373,3.01-1.558,2.2-2.3,3.382c-.377.585-.71,1.2-1.069,1.807-.316.627-.671,1.239-.958,1.882s-.606,1.272-.852,1.927c-.126.327-.273.646-.381.976l-.329.987a9.748,9.748,0,0,0-.29.99l-.264.987c-.131.661-.272,1.317-.361,1.967a20.021,20.021,0,0,0-.157,3.777q.03.451.059.89c.012.293.087.573.122.855a11.714,11.714,0,0,0,.316,1.612q.1.384.2.75a5.206,5.206,0,0,0,.217.708l.47,1.289c.155.4.354.756.51,1.1s.3.653.458.923c.644,1.063,1.006,1.683,1.006,1.683s-.423-.572-1.153-1.6c-.174-.261-.333-.57-.525-.9s-.408-.678-.593-1.075-.369-.829-.57-1.279a4.588,4.588,0,0,1-.263-.712l-.242-.759a12.108,12.108,0,0,1-.407-1.644,8.782,8.782,0,0,1-.162-.879q-.046-.453-.095-.918a18.765,18.765,0,0,1,.043-3.922c.078-.676.209-1.357.331-2.047.177-.676.3-1.378.542-2.052l.332-1.022c.11-.343.258-.671.385-1.009.25-.677.557-1.332.863-1.987s.667-1.281,1-1.921c.37-.616.716-1.244,1.1-1.838s.764-1.189,1.177-1.748c.4-.571.811-1.116,1.223-1.65.82-1.071,1.672-2.056,2.5-2.974s1.637-1.753,2.411-2.5c1.535-1.507,2.91-2.656,3.878-3.447.483-.4.879-.689,1.147-.891l.415-.3" transform="translate(-28.332 -102.033)" fill="#262019"/>
        <path id="Trazado_778603" data-name="Trazado 778603" d="M82.034,84.331s-.19.837-.674,2.259a41.208,41.208,0,0,1-2.453,5.723,34.771,34.771,0,0,1-2.152,3.58,29.149,29.149,0,0,1-2.933,3.644,22.382,22.382,0,0,1-3.829,3.254l-.54.356-.559.329c-.37.227-.759.421-1.148.618l-2.288,1.152a40.868,40.868,0,0,0-4.3,2.634,35.97,35.97,0,0,0-3.8,3.064l-.835.831-.413.41-.385.427-.757.842c-.24.285-.462.579-.69.862a29.42,29.42,0,0,0-2.3,3.394c-.3.559-.58,1.1-.849,1.617l-.677,1.505-.508,1.362c-.156.422-.256.823-.369,1.179-.23.712-.344,1.289-.444,1.678l-.145.6.1-.608a17.129,17.129,0,0,1,.325-1.712c.093-.364.171-.775.3-1.208l.434-1.4.6-1.564c.242-.537.507-1.1.791-1.683a26.531,26.531,0,0,1,2.219-3.55,28.782,28.782,0,0,1,3.067-3.534,33.4,33.4,0,0,1,3.848-3.2,41.272,41.272,0,0,1,4.394-2.726l2.3-1.141c.373-.185.747-.368,1.1-.584l.537-.312.52-.338A22.85,22.85,0,0,0,73.268,99a34.748,34.748,0,0,0,5.2-6.929A45.927,45.927,0,0,0,81.2,86.53c.569-1.383.833-2.2.833-2.2" transform="translate(-30.728 -52.897)" fill="#262019"/>
        <path id="Trazado_778604" data-name="Trazado 778604" d="M188.854,31.69a17.585,17.585,0,0,1-2.157,1.628c-.337.226-.708.462-1.111.695s-.829.476-1.277.716-.918.476-1.406.691-.981.442-1.489.634-1.015.384-1.526.545c-.5.18-1.012.315-1.506.441-.247.063-.487.132-.726.187l-.706.137a12.71,12.71,0,0,1-1.3.21c-.4.051-.775.088-1.1.119l-.856.025c-.473.008-.742,0-.742,0s.264-.07.722-.177l.825-.183c.315-.088.669-.185,1.057-.282s.8-.226,1.239-.352l.673-.2c.226-.081.46-.152.7-.231l.719-.235q.36-.138.73-.266c.495-.165.987-.362,1.48-.559.5-.178.984-.4,1.469-.592l1.41-.61c.448-.217.9-.4,1.309-.6l1.167-.554c.722-.349,1.323-.646,1.744-.858l.662-.334" transform="translate(-108.486 -19.878)" fill="#262019"/>
        <path id="Trazado_778605" data-name="Trazado 778605" d="M105.785,202.494a23.938,23.938,0,0,1,1.274,3.392c.148.524.328,1.088.462,1.7q.11.456.224.936l.188.987c.135.669.226,1.37.318,2.082s.126,1.443.185,2.17c0,.731.038,1.462,0,2.181-.017.36-.038.717-.063,1.069q-.017.264-.035.524-.036.259-.072.515a20.373,20.373,0,0,1-.793,3.659c-.183.518-.359.987-.516,1.4s-.371.746-.511,1.03l-.47.877.31-.946c.095-.3.238-.653.354-1.073.1-.426.213-.9.346-1.421a5.932,5.932,0,0,0,.156-.818q.069-.426.144-.879a7.143,7.143,0,0,0,.12-.931q.044-.479.091-.977.023-.248.048-.5.006-.254.012-.511.009-.514.032-1.038c.025-.7-.025-1.411-.032-2.122-.047-.71-.079-1.422-.151-2.12-.088-.7-.127-1.388-.237-2.049-.046-.332-.092-.659-.136-.978s-.1-.63-.155-.933c-.1-.608-.216-1.178-.309-1.709-.215-1.054-.4-1.935-.552-2.548s-.236-.965-.236-.965" transform="translate(-66.355 -127.016)" fill="#262019"/>
        <path id="Trazado_778606" data-name="Trazado 778606" d="M178.933,47.874a25.981,25.981,0,0,1-4.447,15.135c-.879,5.808.34,10.334-1.168,10.644-.935.193-2.816-.69-4.188-1.408-1.776,2.869-5.1,7.892-7.766,8.746-1.364.437-3.5-.7-3.5-.7V84.3c.876-.073,1.481-.116,2.26-.135,3.009,3.009,12.122,21.583,28.074,33.967-4.2,14.9-17.705,11.592-17.705,11.592S153.627,104.935,143.9,95.2a35.551,35.551,0,0,0-6.253-8.895c2.374-6.241,3.486-9.344,6.577-23.72-2.729-2.728-3.359-6.3-1.12-9.446,2.564-3.606,9.306-2.658,6.612,5.668,2.2-.84,4.211-2.683,6.209-5.58,2.2.524,14.614,1.5,23.01-5.358" transform="translate(-86.339 -30.029)" fill="#e68b57"/>
        <path id="Trazado_778607" data-name="Trazado 778607" d="M191.645,145.607l.046.273c.025.174.062.423.1.72s.068.644.1,1.015.062.767.087,1.163.031.793.046,1.165.025.719.023,1.019c0,.6-.038,1-.038,1s-.108-.388-.213-.98c-.055-.3-.109-.641-.157-1.014-.023-.186-.053-.378-.06-.574s-.026-.4-.038-.595c-.016-.4-.033-.8-.034-1.173s.019-.725.04-1.025a8.25,8.25,0,0,1,.108-1" transform="translate(-120.118 -91.333)" fill="#ad6941"/>
        <path id="Trazado_778608" data-name="Trazado 778608" d="M172.936,118.833s-9.726-5.248-11.265-9.515c0,2.378,4.758,7.556,11.265,11.195Z" transform="translate(-101.41 -68.571)" fill="#ad6941"/>
        <path id="Trazado_778609" data-name="Trazado 778609" d="M155.29,87.355s.141.114.34.247a3.654,3.654,0,0,0,.342.2c.061.036.129.062.2.093a1.829,1.829,0,0,0,.206.082c.069.026.141.047.211.07s.142.038.212.054.14.026.206.041l.191.031c.121.025.225.032.3.048s.12.025.12.025-.037.025-.106.061a1.246,1.246,0,0,1-.3.117,1.614,1.614,0,0,1-.455.061c-.084-.007-.174-.01-.263-.025s-.178-.042-.266-.07a2.221,2.221,0,0,1-.25-.117,1.262,1.262,0,0,1-.219-.151,1.323,1.323,0,0,1-.178-.171,1.289,1.289,0,0,1-.13-.178.972.972,0,0,1-.158-.419" transform="translate(-97.407 -54.794)" fill="#945a38"/>
        <path id="Trazado_778610" data-name="Trazado 778610" d="M210.217,116.745a2.68,2.68,0,0,1-.679-.36,3.173,3.173,0,0,1-.293-.237,2.487,2.487,0,0,1-.3-.3,2.8,2.8,0,0,1-.488-.8,2.95,2.95,0,0,1-.16-.7c0-.079,0-.156,0-.233a1.558,1.558,0,0,1,.063-.431,1.3,1.3,0,0,1,.125-.362,1.618,1.618,0,0,1,.145-.285c.053-.079.1-.145.144-.2.082-.107.131-.164.131-.164s-.018.077-.054.2l-.067.224a2.979,2.979,0,0,0-.059.293,1.65,1.65,0,0,0-.043.34,1.906,1.906,0,0,0,0,.375c.005.064.01.129.015.195l.043.2a2.033,2.033,0,0,0,.119.39,3.163,3.163,0,0,0,.172.376c.076.115.13.242.213.347s.15.217.227.314.155.186.223.274c.291.33.511.547.511.547" transform="translate(-130.66 -70.674)" fill="#945a38"/>
        <path id="Trazado_778611" data-name="Trazado 778611" d="M228.183,75.735l-.128-.272c-.08-.17-.2-.4-.354-.667-.077-.132-.165-.268-.261-.406s-.215-.268-.318-.41a4.086,4.086,0,0,0-.384-.373,2.781,2.781,0,0,0-.436-.319c-.147-.105-.325-.16-.48-.252-.176-.049-.343-.12-.514-.17-.177-.032-.347-.075-.513-.116-.168-.017-.332-.035-.484-.059a2.927,2.927,0,0,0-.423-.042c-.127,0-.241-.017-.335-.025-.189-.018-.3-.037-.3-.037s.095-.055.271-.134c.088-.039.2-.089.322-.136l.2-.078c.074-.019.152-.032.234-.05.164-.033.345-.073.539-.093.2,0,.406-.006.623,0a6.07,6.07,0,0,1,.669.136,4.078,4.078,0,0,1,.649.3l.3.206a2.426,2.426,0,0,1,.263.243,3.061,3.061,0,0,1,.429.536,3.389,3.389,0,0,1,.27.568c.032.094.07.182.094.271l.057.26a3.014,3.014,0,0,1,.058.456,2.689,2.689,0,0,1,0,.353,1.57,1.57,0,0,1-.043.3" transform="translate(-140.036 -45.221)" fill="#382f24"/>
        <path id="Trazado_778612" data-name="Trazado 778612" d="M225.15,82.537c-.366.691-1.036,1.054-1.5.811s-.537-1-.171-1.694,1.037-1.054,1.5-.811.538,1,.172,1.694" transform="translate(-140.036 -50.662)" fill="#382f24"/>
        <path id="Trazado_778613" data-name="Trazado 778613" d="M160.013,67.193s.219-4.5-1.919-3.838-1.939,6.858.4,6.858c0-1.32.147-2.526,1.518-3.02" transform="translate(-98.233 -39.698)" fill="#ad6941"/>
        <path id="Trazado_778614" data-name="Trazado 778614" d="M255.652,217.169A14.831,14.831,0,0,1,270.04,219.2c7.134,5.34,3.685,10.215,6.182,12.712-1.308,2.5-3.8,7.372-7.966,8.917-6.659,1.07-6.9,1.428-9.037,1.428-3.686,1.427-11.049-1.428-11.049-1.428s-2.684-13.5,7.482-23.662" transform="translate(-155.466 -135.586)" fill="#382f24"/>
        <path id="Trazado_778615" data-name="Trazado 778615" d="M200.257,223.742s4.546-.505,5.429-2.289.214-4.325-1.347-5.886a4.51,4.51,0,0,0-6.242,0c-1.784,1.784-2.06,2.56-1.16,3.46a2.561,2.561,0,0,0-.594,1.98Z" transform="translate(-123.147 -134.429)" fill="#fff4e0"/>
        <path id="Trazado_778616" data-name="Trazado 778616" d="M182.217,230.29s1.07-6.778,12.842-11.414c0,2.675-1.778,5.366-2.247,6.373,4.388.36,3.184,6.32-2.212,5.042-1.784,1.784-1.8,3.211-1.8,5.173,1.447,4.1.912,7.848-2.12,10.879-5.351,1.784-10.2,17.351-31.069,16.459,3.479-12.887-6.117-18.546-4.068-23.455,3.2-.677,7.185-.852,9.6-1.447-4.128-1.307-4.6-3.329-4.6-4.755s7.848-7.372,11.534-9.275c2,.155,3.6,1.226,3.915,2.735-1.957,1.958-2.547,3.032-3.439,3.924,2.854,0,10.226-1.426,13.674-.239" transform="translate(-94.873 -137.292)" fill="#e68b57"/>
        <path id="Trazado_778617" data-name="Trazado 778617" d="M240.395,254.1a.187.187,0,0,1-.162-.094c-1.684-2.933-6.234-4.63-6.28-4.647a.186.186,0,0,1,.128-.35c.192.07,4.723,1.759,6.476,4.811a.186.186,0,0,1-.162.279" transform="translate(-146.672 -156.188)" fill="#ad6941"/>
        <path id="Trazado_778618" data-name="Trazado 778618" d="M177.776,269.915l2.841.432c.426.066.886.142,1.375.208s1,.138,1.536.223,1.083.154,1.642.231l1.7.227,1.7.208c.561.064,1.111.148,1.647.191s1.052.1,1.543.149.954.1,1.383.135c.858.043,1.574.1,2.076.133l.789.061-.79.012c-.5,0-1.223.013-2.087,0-.432-.011-.9-.048-1.392-.073s-1.015-.056-1.553-.1-1.091-.111-1.655-.167l-1.708-.185-1.7-.253c-.56-.086-1.112-.16-1.643-.255-1.063-.182-2.052-.37-2.9-.544s-1.546-.336-2.036-.448-.767-.19-.767-.19" transform="translate(-111.512 -169.307)" fill="#ad6941"/>
        <path id="Trazado_778619" data-name="Trazado 778619" d="M188.091,249.546s-.09.008-.247.015l-.647.021c-.268,0-.578,0-.911,0l-1.04-.015c-.354-.019-.706-.008-1.038-.025l-.9-.013c-.266-.009-.484.01-.641.012s-.248,0-.248,0,.084-.029.235-.072a5.2,5.2,0,0,1,.637-.154c.266-.036.58-.089.916-.1s.7-.031,1.053-.02l.533.021c.176,0,.348.027.515.04.334.028.644.068.91.111s.485.091.639.119.24.057.24.057" transform="translate(-114.42 -156.309)" fill="#ad6941"/>
        <path id="Trazado_778620" data-name="Trazado 778620" d="M254.147,247.324a.952.952,0,0,1-.369.117,1.185,1.185,0,0,1-.407-.016,1.068,1.068,0,0,1-.443-.208,1.014,1.014,0,0,1-.177-.185.983.983,0,0,1-.192-.62.892.892,0,0,1,.04-.279.973.973,0,0,1,.031-.1s.018.037.042.1.048.149.1.243c.024.046.039.1.067.148l.087.149a1.1,1.1,0,0,0,.237.257,1.261,1.261,0,0,0,.307.186,3.346,3.346,0,0,0,.323.117l.355.095" transform="translate(-158.419 -154.325)" fill="#ad6941"/>
        <path id="Trazado_778621" data-name="Trazado 778621" d="M228.354,223.249a22.673,22.673,0,0,0-2.938,1.824,20.425,20.425,0,0,0-2.617,2.236,15.019,15.019,0,0,0-2.143,2.668c-.154.241-.293.489-.429.74s-.264.505-.381.764-.23.52-.326.788-.18.539-.269.81l-.055.165-.166-.047c-.178-.051-.354-.108-.533-.154s-.363-.082-.547-.116c-.368-.065-.741-.111-1.115-.148s-.751-.06-1.129-.074-.755-.024-1.134-.021c-.757,0-1.514.034-2.273.066s-1.516.1-2.275.14q1.129-.166,2.264-.287c.757-.085,1.517-.133,2.28-.164.381-.015.763-.019,1.145-.018s.766.015,1.148.042.764.076,1.145.139c.19.033.379.076.57.114s.375.1.563.155l-.221.117c.089-.28.16-.566.268-.839s.209-.549.327-.817.248-.533.389-.789.29-.51.45-.756a15.369,15.369,0,0,1,2.223-2.7,17.268,17.268,0,0,1,1.314-1.151q.685-.541,1.41-1.027c.481-.325.982-.619,1.491-.9a15.362,15.362,0,0,1,1.564-.757" transform="translate(-131.74 -140.035)" fill="#ad6941"/>
        <path id="Trazado_778622" data-name="Trazado 778622" d="M197.964,223.678a4.224,4.224,0,0,1,.51-.565,5.924,5.924,0,0,1,1.366-.973,4.215,4.215,0,0,1,.422-.187,3.059,3.059,0,0,1,.429-.138,2.636,2.636,0,0,1,.417-.076,2.505,2.505,0,0,1,.381-.01,1.838,1.838,0,0,1,.318.048.809.809,0,0,1,.233.077c.125.055.19.089.19.089l-.208-.017a.986.986,0,0,0-.231-.007c-.09.01-.187,0-.295.024s-.221.035-.34.069-.244.063-.37.117a6.079,6.079,0,0,0-.777.343c-.263.125-.514.278-.755.413l-.649.4-.641.4" transform="translate(-124.175 -139.08)" fill="#c7bcab"/>
        <path id="Trazado_778623" data-name="Trazado 778623" d="M258.046,239.611s2.224.3,1.838,1.419-2.383,1.262-3.065.146c.915-.326,1.226-.661,1.226-1.565" transform="translate(-161.093 -150.298)" fill="#ad6941"/>
        <path id="Trazado_778624" data-name="Trazado 778624" d="M310.774,247.787c1.106,1.36,1.913,2.63,3.541,3.468-2.338-.518-2.7-1.522-3.541-3.468" transform="translate(-194.936 -155.427)" fill="#262019"/>
        <path id="Trazado_778625" data-name="Trazado 778625" d="M308.936,259.31a10.355,10.355,0,0,0,4.226.373,4.082,4.082,0,0,1-4.226-.373" transform="translate(-193.783 -162.655)" fill="#262019"/>
        <path id="Trazado_778626" data-name="Trazado 778626" d="M308.936,266.615a11.39,11.39,0,0,0,3.481-1.3,4.1,4.1,0,0,1-3.481,1.3" transform="translate(-193.783 -166.418)" fill="#262019"/>
        <path id="Trazado_778627" data-name="Trazado 778627" d="M134.85,317.925l25.518,3.984a23.167,23.167,0,0,0,1.784,11.656c2.676,6.655,6.458,15.572,1.624,17.178-4.957,1.646-11.515-3.2-25.345-.713-13.912,2.5-38.845-3.3-41.878-9.9s-12.865-14.106,11.022-17.993c5.753-.936,16.681-3.321,27.275-4.213" transform="translate(-57.685 -199.422)" fill="#ffe0ab"/>
        <path id="Trazado_778628" data-name="Trazado 778628" d="M147.355,333.94a62.186,62.186,0,0,1-28.277,3.662c4.795,2.44,21.941,1.667,28.277-3.662" transform="translate(-74.693 -209.467)" fill="#ccb181"/>
        <path id="Trazado_778629" data-name="Trazado 778629" d="M200.923,381.342s25.024-1,28.046-9.7c0,4.6-6.558,10.577-28.046,9.7" transform="translate(-126.031 -233.117)" fill="#ccb181"/>
        <path id="Trazado_778630" data-name="Trazado 778630" d="M99.462,367.929a27.358,27.358,0,0,0,1.794,3.567c11.183.924,21.992,1.53,24.974,2.718s11.86,3.176,19.258-1.545c-10.685,0-46.026-4.739-46.026-4.739" transform="translate(-62.389 -230.787)" fill="#ccb181"/>
        <path id="Trazado_778631" data-name="Trazado 778631" d="M226.5,333.636s.961,19.067-24.274,18.579c9.648,1.962,26.236-3.157,24.274-18.579" transform="translate(-126.848 -209.276)" fill="#ccb181"/>
        <path id="Trazado_778632" data-name="Trazado 778632" d="M130.561,327.189s10.779,1.949,25-3.486c.818-.312,23.052,6.336,29.268,7.219a26.991,26.991,0,0,1-.395-3.881c-2.892-.652-29.836-10.919-53.878.148" transform="translate(-81.896 -202.029)" fill="#ccb181"/>
        <path id="Trazado_778633" data-name="Trazado 778633" d="M192.8,359.884l.325.753c.207.492.514,1.214.871,2.147s.781,2.069,1.221,3.39a41.268,41.268,0,0,1,1.262,4.51,18.7,18.7,0,0,1,.39,2.67,7.872,7.872,0,0,1-.033,1.45,2.876,2.876,0,0,1-.558,1.475,1.612,1.612,0,0,1-.721.5l-.722.23c-.489.146-.983.292-1.5.4a12.082,12.082,0,0,1-3.2.29,30.615,30.615,0,0,1-6.533-1.206,24.456,24.456,0,0,0-3.278-.643,19.806,19.806,0,0,0-3.349-.119c-2.243.081-4.475.531-6.716.821a64.444,64.444,0,0,1-6.6.469c-2.145.06-4.22.008-6.182-.1s-3.813-.283-5.514-.505c-.852-.1-1.662-.236-2.435-.349l-2.182-.4-1.9-.416c-.588-.127-1.12-.282-1.605-.4-.971-.233-1.714-.489-2.227-.638l-.784-.239.8.2c.519.127,1.274.335,2.25.537.488.1,1.022.236,1.614.341l1.911.344,2.185.32c.773.085,1.58.211,2.43.287,1.7.182,3.539.3,5.49.379s4.011.057,6.139,0a63.953,63.953,0,0,0,6.531-.513c2.205-.3,4.456-.776,6.777-.876a20.561,20.561,0,0,1,3.468.149,25.194,25.194,0,0,1,3.36.684,30.037,30.037,0,0,0,6.39,1.234,12.274,12.274,0,0,0,3.051-.241c.495-.094.98-.226,1.457-.356l.711-.21a1.058,1.058,0,0,0,.485-.322,2.384,2.384,0,0,0,.466-1.2,7.293,7.293,0,0,0,.06-1.355,18.388,18.388,0,0,0-.322-2.611c-.323-1.667-.729-3.178-1.115-4.509s-.769-2.48-1.093-3.423c-.647-1.885-1.059-2.949-1.059-2.949" transform="translate(-88.329 -225.741)" fill="#ccb181"/>
        <path id="Trazado_778634" data-name="Trazado 778634" d="M65.7,337.8s-1.758-12.4,8.311-17.479c8.545,4.087,21.9,12.129,27.9,12.129,7-2.605,14.328-5.172,20.867-7.164,1.546,0,.208,2.675-.892,3.775,3.21-.892,11.42-3.27,12.217-1.861.684,1.207-2.492,2.619-14.418,6.677,3.567,0,12.634-1.962,16.424-1.962,1.947,0,.759,2.378-1.655,3.154-.113,1.5-1.392,2.523-3.591,3.326-.773,2.66-9.869,6.778-13.971,6.778-7.669,0-10.642-1.784-16.23-2.5S74.668,338.916,65.7,337.8" transform="translate(-41.137 -200.922)" fill="#e68b57"/>
        <path id="Trazado_778635" data-name="Trazado 778635" d="M207.593,343.764s-.319.155-.81.339-1.153.407-1.823.6-1.351.348-1.866.445-.868.134-.868.134.318-.155.81-.34,1.153-.407,1.824-.6,1.35-.348,1.867-.445.867-.134.867-.134" transform="translate(-126.848 -215.629)" fill="#ad6941"/>
        <path id="Trazado_778636" data-name="Trazado 778636" d="M224.679,359.884l-.634.214c-.4.135-.986.311-1.691.5l-1.138.311c-.4.109-.829.237-1.277.323-.891.2-1.845.394-2.8.592l-1.425.283c-.471.087-.942.135-1.393.2-.9.125-1.752.221-2.476.313s-1.33.146-1.753.195l-.666.064.656-.136c.419-.078,1.014-.205,1.732-.331s1.553-.283,2.452-.429c.449-.076.914-.146,1.383-.233l1.419-.294c.952-.189,1.9-.38,2.8-.546s1.719-.368,2.433-.517c.355-.08.684-.145.974-.2s.542-.12.75-.167l.654-.145" transform="translate(-131.364 -225.741)" fill="#ad6941"/>
        <path id="Trazado_778637" data-name="Trazado 778637" d="M221.087,368.806l-.479.206c-.306.127-.744.309-1.28.5s-1.157.425-1.832.652c-.679.209-1.408.419-2.137.63l-1.091.3c-.357.109-.718.181-1.066.253-.7.149-1.35.266-1.908.377s-1.027.18-1.353.24l-.514.081.5-.152c.319-.089.773-.231,1.322-.374s1.186-.321,1.873-.49c.344-.081.7-.174,1.054-.283l1.082-.315c.728-.2,1.456-.406,2.141-.584l1.861-.537,1.826-.505" transform="translate(-131.364 -231.337)" fill="#ad6941"/>
        <path id="Trazado_778638" data-name="Trazado 778638" d="M101.325,372.042l1.946.21c1.237.145,3.006.335,5.124.6s4.591.567,7.233.941l4.073.582c1.387.2,2.8.41,4.2.635.7.114,1.406.227,2.106.371s1.409.255,2.081.443c1.366.365,2.678.747,3.975,1.033a28.194,28.194,0,0,0,3.763.608c.6.073,1.194.067,1.763.1l.841-.018a8.1,8.1,0,0,0,.809-.039c.527-.048,1.035-.078,1.51-.165s.934-.127,1.352-.236.819-.17,1.176-.28l.983-.3c.594-.182,1.04-.386,1.355-.5l.478-.183-.466.211-.56.253a6.893,6.893,0,0,1-.77.318l-.975.346c-.355.127-.754.214-1.173.335s-.876.2-1.356.3-.993.148-1.527.213c-.267.037-.541.05-.82.062l-.854.041c-.579-.015-1.181.007-1.8-.051a24.063,24.063,0,0,1-3.836-.541c-1.312-.277-2.652-.655-4-1-.68-.183-1.364-.286-2.059-.419s-1.393-.24-2.1-.351c-1.4-.237-2.8-.462-4.189-.671l-4.065-.618-7.207-1.11c-2.111-.318-3.865-.616-5.1-.806l-1.932-.318" transform="translate(-63.557 -233.367)" fill="#ad6941"/>
        <path id="Trazado_778639" data-name="Trazado 778639" d="M167.5,284.19s5.054,10.07.3,19.6c-7.432-.814-19.084-3.49-30.38-5.273-6.3,1.605-21.759,6.332-27.883,3.359-2.259,0-3.656-.951-3.983-1.872-2.507,0-3.923-.833-3.923-1.665,0-1.426,7.907-1.873,16.557-5.663-5.173,0-15.189,1.4-16.209-.24-1.166-1.878,3.174-2.252,7.343-2.766,5.716-.7,9.906-.963,11.987-1.8a58.313,58.313,0,0,1-5.736-2.335c-2.084-1.056-.356-3.254,3.746-2.3s11.086,2.141,16.556,4.638c4.519,0,18.787-2.616,31.628-3.686" transform="translate(-63.747 -177.517)" fill="#e68b57"/>
        <path id="Trazado_778640" data-name="Trazado 778640" d="M112.153,323.41l.588-.147,1.552-.37,4.714-1.068c.858-.186,1.717-.372,2.524-.537.8-.2,1.549-.362,2.191-.513s1.183-.255,1.559-.338l.595-.119-.575.188c-.368.112-.89.287-1.525.471s-1.372.409-2.169.63c-.8.2-1.661.387-2.52.582s-1.718.385-2.532.526-1.573.271-2.223.384-1.2.18-1.578.236l-.6.076" transform="translate(-70.349 -200.923)" fill="#ad6941"/>
        <path id="Trazado_778641" data-name="Trazado 778641" d="M122.84,330.485l1.537-.242c.462-.059.995-.167,1.57-.251.288-.039.581-.105.883-.152l.911-.155.906-.176c.3-.063.6-.1.877-.172s.557-.123.817-.178.51-.1.732-.163c.445-.129.825-.214,1.088-.284l.418-.1s-.142.063-.394.167-.613.255-1.053.417c-.22.083-.466.144-.722.224s-.529.159-.812.235-.578.141-.879.205l-.913.189-.92.144c-.3.045-.6.091-.894.121-.582.061-1.126.108-1.593.135s-.858.032-1.131.038-.429,0-.429,0" transform="translate(-77.053 -206.126)" fill="#ad6941"/>
        <path id="Trazado_778642" data-name="Trazado 778642" d="M199.962,285.183c-1.313.193-2.628.372-3.943.551s-2.629.363-3.946.528c-2.633.333-5.262.693-7.9,1l-7.9.953c-1.317.164-2.636.3-3.954.453l-3.956.445-.062.007-.061-.023-1.807-.7-1.829-.644c-.613-.207-1.23-.4-1.845-.6-.307-.1-.619-.188-.928-.283l-.931-.279c-.621-.185-1.248-.35-1.871-.526l-1.877-.51c-1.254-.333-2.513-.645-3.771-.968.637.123,1.277.237,1.912.369l1.907.4c.633.144,1.27.272,1.9.429s1.263.307,1.891.474l.942.253c.313.087.629.164.941.258.623.185,1.249.364,1.872.555s1.236.409,1.853.62l1.83.689-.123-.016,3.952-.477c1.318-.156,2.633-.325,3.953-.468l7.911-.889c2.636-.3,5.278-.557,7.917-.838,1.319-.142,2.64-.267,3.961-.393s2.642-.256,3.964-.37" transform="translate(-96.209 -178.51)" fill="#ad6941"/>
        <path id="Trazado_778643" data-name="Trazado 778643" d="M187.836,329.258l-3.633-.532-3.63-.547-3.626-.57L173.326,327l-7.233-1.276-3.616-.639-3.612-.662.122,0-5.673,1.519c-.949.245-1.9.486-2.854.71s-1.914.43-2.876.622c-.48.1-.963.189-1.445.279s-.965.177-1.45.253-.968.161-1.454.224-.971.141-1.46.185-.975.111-1.464.143-.978.075-1.467.1l-1.47.045-1.469-.026,1.467-.049,1.463-.1c.486-.041.972-.1,1.457-.154s.968-.132,1.452-.2.964-.157,1.447-.231.962-.166,1.442-.258.959-.182,1.437-.286.956-.2,1.432-.311c.953-.214,1.9-.447,2.849-.686s1.894-.481,2.838-.735l5.661-1.562.056-.016.066.012,3.612.645,3.608.666,7.215,1.336,3.6.692,3.612.653,3.608.676Z" transform="translate(-85.247 -203.161)" fill="#ad6941"/>
      </g>
    </g>
  </g>
</svg>
