<svg xmlns="http://www.w3.org/2000/svg" width="134.118" height="119.501" viewBox="0 0 134.118 119.501">
  <g id="respiratorio" transform="translate(-1 -5)" opacity="0.77">
    <path id="Trazado_779357" data-name="Trazado 779357" d="M31.146,27.793a12.642,12.642,0,0,0-.448,1.918A231.834,231.834,0,0,0,28,64.984v8.1a41.787,41.787,0,0,0,5.507,20.736,11.065,11.065,0,0,0,9.6,5.571,39.564,39.564,0,0,1,20.36,5.649,6.177,6.177,0,0,0,9.149-3.8A106.428,106.428,0,0,0,75.8,75.419,61.4,61.4,0,0,0,64.557,40L53.5,24.336a12.632,12.632,0,0,0-17.461-3.118Z" transform="translate(31.661 16.417)" fill="#e9353f"/>
    <path id="Trazado_779358" data-name="Trazado 779358" d="M32.954,92.772A41.767,41.767,0,0,1,28,73.081v-8.1a231.849,231.849,0,0,1,2.7-35.277,12.642,12.642,0,0,1,.447-1.914l4.893-6.574a12.451,12.451,0,0,1,9.82-1.916l10.02,14.2A61.4,61.4,0,0,1,67.107,68.9a106.436,106.436,0,0,1-3.179,25.823,6.164,6.164,0,0,1-9.148,3.795A39.564,39.564,0,0,0,34.42,92.87a10.935,10.935,0,0,1-1.467-.1Z" transform="translate(31.661 16.417)" fill="#ff4b50"/>
    <path id="Trazado_779359" data-name="Trazado 779359" d="M46.652,27.793a12.642,12.642,0,0,1,.448,1.918,231.83,231.83,0,0,1,2.7,35.273v8.1a41.787,41.787,0,0,1-5.507,20.736,11.065,11.065,0,0,1-9.6,5.571,39.564,39.564,0,0,0-20.36,5.649,6.177,6.177,0,0,1-9.149-3.8A106.43,106.43,0,0,1,2,75.419,61.4,61.4,0,0,1,13.241,40L24.3,24.336a12.632,12.632,0,0,1,17.461-3.118Z" transform="translate(1.173 16.417)" fill="#e9353f"/>
    <path id="Trazado_779360" data-name="Trazado 779360" d="M40.154,92.772a41.767,41.767,0,0,0,4.954-19.691v-8.1a231.846,231.846,0,0,0-2.7-35.277,12.643,12.643,0,0,0-.447-1.914l-4.893-6.574a12.451,12.451,0,0,0-9.82-1.916L17.228,33.5A61.4,61.4,0,0,0,6,68.9,106.436,106.436,0,0,0,9.179,94.724a6.164,6.164,0,0,0,9.148,3.794,39.564,39.564,0,0,1,20.36-5.649,10.935,10.935,0,0,0,1.467-.1Z" transform="translate(5.863 16.417)" fill="#ff4b50"/>
    <path id="Trazado_779361" data-name="Trazado 779361" d="M22.5,54.591l1.836-2.1a15.765,15.765,0,0,0,.98,2.551A12.651,12.651,0,0,0,36.7,62.073V57.728a8.323,8.323,0,0,1-7.489-4.63,11.413,11.413,0,0,1-1.2-5.086A15.324,15.324,0,0,0,23.486,37.1l-4.808-4.808-3.072,3.072,4.808,4.808A10.963,10.963,0,0,1,23.543,46.8l-4.311,4.925a26.328,26.328,0,0,1-13.47,8.236l1.052,4.215a30.736,30.736,0,0,0,8.156-3.355v.332A8.893,8.893,0,0,0,21.716,69.8a4.543,4.543,0,0,1,3.226,2.987l1,3.007,4.128-1.373-1.01-3.007a8.875,8.875,0,0,0-6.3-5.827,4.563,4.563,0,0,1-3.448-4.43V57.728A31.069,31.069,0,0,0,22.5,54.591Z" transform="translate(5.584 32.005)" fill="#e9353f"/>
    <path id="Trazado_779362" data-name="Trazado 779362" d="M47.762,5V25.673a15.143,15.143,0,0,0,6.057,12.115,15.122,15.122,0,0,1,4.208,4.865L69.489,63.661,60.8,65.834,53.531,49.845a13.5,13.5,0,0,0-24.573,0L21.691,65.834,13,63.661,24.461,42.652a15.122,15.122,0,0,1,4.208-4.865,15.143,15.143,0,0,0,6.057-12.115V5Z" transform="translate(14.072 0)" fill="#d08c76"/>
    <path id="Trazado_779363" data-name="Trazado 779363" d="M30.87,37.787a15.122,15.122,0,0,0-4.208,4.865l-11.832,22,4.717,1.18,7.267-15.988a13.5,13.5,0,0,1,24.573,0l7.267,15.988,8.691-2.173L55.883,42.652a15.122,15.122,0,0,0-4.208-4.865,15.143,15.143,0,0,1-6.057-12.115V5H36.927V25.673A15.143,15.143,0,0,1,30.87,37.787Z" transform="translate(16.216 0)" fill="#f2b89e"/>
    <circle id="Elipse_5706" data-name="Elipse 5706" cx="4.345" cy="4.345" r="4.345" transform="translate(72.697 81.042)" fill="#709300"/>
    <circle id="Elipse_5707" data-name="Elipse 5707" cx="4.345" cy="4.345" r="4.345" transform="translate(87.905 91.905)" fill="#709300"/>
    <path id="Trazado_779364" data-name="Trazado 779364" d="M36,48h4.345v4.345H36Z" transform="translate(41.042 50.423)" fill="#8bc000"/>
    <path id="Trazado_779365" data-name="Trazado 779365" d="M42,40h4.345v4.345H42Z" transform="translate(48.078 41.042)" fill="#8bc000"/>
    <path id="Trazado_779366" data-name="Trazado 779366" d="M39,36h4.345v4.345H39Z" transform="translate(44.56 36.352)" fill="#8bc000"/>
    <path id="Trazado_779367" data-name="Trazado 779367" d="M31,36h4.345v4.345H31Z" transform="translate(35.179 36.352)" fill="#8bc000"/>
    <path id="Trazado_779368" data-name="Trazado 779368" d="M64.244,8A28.244,28.244,0,0,0,40.86,52.083L36,66.661l17.381-4.345A28.244,28.244,0,1,0,64.244,8Z" transform="translate(41.042 3.518)" fill="#0056c0"/>
    <path id="Trazado_779369" data-name="Trazado 779369" d="M83.914,53.914A28.227,28.227,0,0,0,44.229,14.229,28.227,28.227,0,0,0,83.914,53.914Z" transform="translate(43.388 3.518)" fill="#0068dd"/>
    <g id="Grupo_1046615" data-name="Grupo 1046615" transform="translate(85.733 28.899)">
      <path id="Trazado_779370" data-name="Trazado 779370" d="M54,25h4.345v4.345H54Z" transform="translate(-23.583 -5.446)" fill="#709300"/>
      <path id="Trazado_779371" data-name="Trazado 779371" d="M40,16h4.345v4.345H40Z" transform="translate(-40 -16)" fill="#709300"/>
      <path id="Trazado_779372" data-name="Trazado 779372" d="M58,19h4.345v4.345H58Z" transform="translate(-18.893 -12.482)" fill="#709300"/>
      <path id="Trazado_779373" data-name="Trazado 779373" d="M45,20h4.345v8.43H45Z" transform="translate(-34.137 -11.309)" fill="#709300"/>
      <path id="Trazado_779374" data-name="Trazado 779374" d="M40,25h8.691v4.345H40Z" transform="translate(-40 -5.446)" fill="#709300"/>
      <path id="Trazado_779375" data-name="Trazado 779375" d="M45,28h4.345v8.691H45Z" transform="translate(-34.137 -1.928)" fill="#709300"/>
      <path id="Trazado_779376" data-name="Trazado 779376" d="M47.9,25h8.916v4.345H47.9Z" transform="translate(-30.741 -5.446)" fill="#709300"/>
    </g>
    <path id="Trazado_779377" data-name="Trazado 779377" d="M0,0H7.682V4.345H0Z" transform="translate(100.474 45.836) rotate(-45)" fill="#8bc000"/>
    <path id="Trazado_779378" data-name="Trazado 779378" d="M0,0H4.345V7.682H0Z" transform="translate(88.526 43.475) rotate(-45)" fill="#8bc000"/>
    <path id="Trazado_779379" data-name="Trazado 779379" d="M0,0H7.682V4.345H0Z" transform="translate(88.525 57.783) rotate(-45)" fill="#8bc000"/>
    <path id="Trazado_779380" data-name="Trazado 779380" d="M0,0H4.345V7.682H0Z" transform="translate(100.473 55.425) rotate(-45)" fill="#8bc000"/>
    <circle id="Elipse_5708" data-name="Elipse 5708" cx="6.518" cy="6.518" r="6.518" transform="translate(92.251 44.107)" fill="#709300"/>
    <path id="Trazado_779381" data-name="Trazado 779381" d="M48.345,23a6.442,6.442,0,0,0-3.376.969A6.442,6.442,0,0,0,44,27.345a6.518,6.518,0,0,0,6.518,6.518,6.442,6.442,0,0,0,3.376-.969,6.442,6.442,0,0,0,.969-3.376A6.518,6.518,0,0,0,48.345,23Z" transform="translate(50.423 21.107)" fill="#80ac00"/>
    <path id="Trazado_779382" data-name="Trazado 779382" d="M51,9h4.345v8.43H51Z" transform="translate(58.632 4.691)" fill="#709300"/>
    <path id="Trazado_779383" data-name="Trazado 779383" d="M46,14h8.691v4.345H46Z" transform="translate(52.769 10.554)" fill="#709300"/>
    <path id="Trazado_779384" data-name="Trazado 779384" d="M51,17h4.345v8.691H51Z" transform="translate(58.632 14.072)" fill="#709300"/>
    <path id="Trazado_779385" data-name="Trazado 779385" d="M53.9,14h8.916v4.345H53.9Z" transform="translate(62.028 10.554)" fill="#709300"/>
    <path id="Trazado_779386" data-name="Trazado 779386" d="M0,0H7.682V4.345H0Z" transform="translate(113.512 21.941) rotate(-45)" fill="#8bc000"/>
    <path id="Trazado_779387" data-name="Trazado 779387" d="M0,0H4.345V7.682H0Z" transform="translate(101.564 19.581) rotate(-45)" fill="#8bc000"/>
    <path id="Trazado_779388" data-name="Trazado 779388" d="M0,0H7.682V4.345H0Z" transform="translate(101.563 33.888) rotate(-45)" fill="#8bc000"/>
    <path id="Trazado_779389" data-name="Trazado 779389" d="M0,0H4.345V7.682H0Z" transform="translate(113.511 31.53) rotate(-45)" fill="#8bc000"/>
    <circle id="Elipse_5709" data-name="Elipse 5709" cx="6.518" cy="6.518" r="6.518" transform="translate(105.287 20.208)" fill="#709300"/>
    <path id="Trazado_779390" data-name="Trazado 779390" d="M54.345,12a6.442,6.442,0,0,0-3.376.969A6.442,6.442,0,0,0,50,16.345a6.518,6.518,0,0,0,6.518,6.518,6.442,6.442,0,0,0,3.376-.969,6.442,6.442,0,0,0,.969-3.376A6.518,6.518,0,0,0,54.345,12Z" transform="translate(57.459 8.208)" fill="#80ac00"/>
    <path id="Trazado_779391" data-name="Trazado 779391" d="M37.173,40a4.324,4.324,0,0,0-1.782.391,4.328,4.328,0,0,0,5.736,5.736A4.328,4.328,0,0,0,37.173,40Z" transform="translate(39.869 41.042)" fill="#80ac00"/>
    <path id="Trazado_779392" data-name="Trazado 779392" d="M44.173,45a4.324,4.324,0,0,0-1.782.391,4.328,4.328,0,0,0,5.736,5.736A4.328,4.328,0,0,0,44.173,45Z" transform="translate(48.078 46.905)" fill="#80ac00"/>
    <path id="Trazado_779393" data-name="Trazado 779393" d="M60.494,28.649l2.768-2.768L60.19,22.809l-2.768,2.768a8.506,8.506,0,0,0-2.214-.923V20H50.863v4.654a8.506,8.506,0,0,0-2.214.923l-2.768-2.768-3.072,3.072,2.768,2.768a8.505,8.505,0,0,0-.923,2.214H40v4.345h4.654a8.506,8.506,0,0,0,.923,2.214L42.809,40.19l3.072,3.072,2.768-2.768a8.506,8.506,0,0,0,2.214.923v4.654h4.345V41.418a8.506,8.506,0,0,0,2.214-.923l2.768,2.768,3.072-3.072-2.768-2.768a8.506,8.506,0,0,0,.923-2.214h4.654V30.863H61.418a8.506,8.506,0,0,0-.923-2.214Zm-7.459,8.732a4.345,4.345,0,1,1,4.345-4.345A4.345,4.345,0,0,1,53.036,37.381Z" transform="translate(45.733 17.59)"/>
    <path id="Trazado_779394" data-name="Trazado 779394" d="M54,25h4.345v4.345H54Z" transform="translate(62.15 23.453)"/>
    <path id="Trazado_779395" data-name="Trazado 779395" d="M40,16h4.345v4.345H40Z" transform="translate(45.733 12.899)"/>
    <path id="Trazado_779396" data-name="Trazado 779396" d="M58,19h4.345v4.345H58Z" transform="translate(66.84 16.417)"/>
    <path id="Trazado_779397" data-name="Trazado 779397" d="M105.287,9.345A30.46,30.46,0,0,0,75.58,33.281a14.876,14.876,0,0,0-7.641,1.682,13.036,13.036,0,0,1-3.932-9.29V5H59.661V25.673a17.4,17.4,0,0,0,6.924,13.853,12.888,12.888,0,0,1,3.609,4.167L78.5,58.925l-1.855,5.568L69.579,48.948a15.667,15.667,0,0,0-28.527,0L33.785,64.934l3.954,1.8,7.267-15.986a11.174,11.174,0,0,1,1.4-2.251A230.477,230.477,0,0,1,48.8,81.4v8.1a39.679,39.679,0,0,1-5.214,19.651,8.908,8.908,0,0,1-7.724,4.48,41.769,41.769,0,0,0-21.473,5.945,3.989,3.989,0,0,1-5.929-2.449A104.354,104.354,0,0,1,5.345,91.836,58.922,58.922,0,0,1,16.185,57.686L27.243,42.017a10.4,10.4,0,0,1,11.891-3.865,17.333,17.333,0,0,0-2.5,3.461L25.173,62.62,28.988,64.7,40.446,43.692a12.908,12.908,0,0,1,3.607-4.167,17.394,17.394,0,0,0,6.918-13.853V5H46.625V25.673a13.036,13.036,0,0,1-3.946,9.31,14.733,14.733,0,0,0-18.987,4.534L12.632,55.188A63.265,63.265,0,0,0,1,91.836a108.657,108.657,0,0,0,3.242,26.338,8.332,8.332,0,0,0,12.386,5.133,37.437,37.437,0,0,1,19.232-5.329,13.253,13.253,0,0,0,11.491-6.668A44.029,44.029,0,0,0,53.143,89.5V81.4A235.109,235.109,0,0,0,50.421,45.8c-.026-.167-.085-.326-.115-.5a11.12,11.12,0,0,1,10.02,0c-.03.167-.089.33-.115.5A235.109,235.109,0,0,0,57.489,81.4v8.1a44.028,44.028,0,0,0,5.792,21.809,13.253,13.253,0,0,0,11.491,6.668A37.429,37.429,0,0,1,94.007,123.3a8.332,8.332,0,0,0,12.392-5.121,108.674,108.674,0,0,0,3.233-26.345,63.157,63.157,0,0,0-3.815-21.683,30.417,30.417,0,0,0-.53-60.808ZM111.8,31.072a4.345,4.345,0,1,1,4.345-4.345A4.345,4.345,0,0,1,111.8,31.072Zm4.387-11.8a8.506,8.506,0,0,0-2.214-.923V15.211a26.006,26.006,0,0,1,4.3,1.975ZM71.526,38.183a10.485,10.485,0,0,1,3.452-.576c-.05.715-.109,1.427-.109,2.155a30.685,30.685,0,0,0,.259,3.911L74.009,41.62A17.236,17.236,0,0,0,71.526,38.183Zm30.647,78.945a3.989,3.989,0,0,1-5.923,2.453,41.775,41.775,0,0,0-21.479-5.949,8.908,8.908,0,0,1-7.724-4.48A39.679,39.679,0,0,1,61.834,89.5V81.4a230.474,230.474,0,0,1,2.39-32.9,11.174,11.174,0,0,1,1.393,2.251l7.267,15.986,3.546-1.614-1.456,4.374a2.173,2.173,0,0,0,2.585,2.794l16.7-4.174a30.167,30.167,0,0,0,6.77,1.738,58.833,58.833,0,0,1,4.261,21.985,104.337,104.337,0,0,1-3.111,25.283Zm3.113-51.294a25.922,25.922,0,0,1-10.029-2.005,2.2,2.2,0,0,0-1.362-.1L80.353,67.111l3.609-10.824a2.173,2.173,0,0,0-.265-1.905,25.987,25.987,0,0,1,25.935-40.3v4.261a8.506,8.506,0,0,0-2.214.923L104.65,16.5l-3.072,3.072,2.768,2.768a8.506,8.506,0,0,0-.923,2.214H98.769V28.9h4.654a8.506,8.506,0,0,0,.923,2.214l-2.768,2.768,3.072,3.072,2.768-2.768a8.506,8.506,0,0,0,2.214.923v4.654h4.345V35.108a8.506,8.506,0,0,0,2.214-.923l2.768,2.768,3.072-3.072-2.768-2.768a8.506,8.506,0,0,0,.923-2.214h4.654V24.554h-4.654a8.506,8.506,0,0,0-.923-2.214l2.646-2.646a26.061,26.061,0,0,1-16.623,46.14Z" transform="translate(0 0)"/>
    <path id="Trazado_779398" data-name="Trazado 779398" d="M22.5,54.591l1.836-2.1a15.765,15.765,0,0,0,.98,2.551A12.651,12.651,0,0,0,36.7,62.073V57.728a8.323,8.323,0,0,1-7.489-4.63,11.413,11.413,0,0,1-1.2-5.086A15.324,15.324,0,0,0,23.486,37.1l-4.808-4.808-3.072,3.072,4.808,4.808A10.963,10.963,0,0,1,23.543,46.8l-4.311,4.925a26.328,26.328,0,0,1-13.47,8.236l1.052,4.215a30.736,30.736,0,0,0,8.156-3.355v.332A8.893,8.893,0,0,0,21.716,69.8a4.543,4.543,0,0,1,3.226,2.987l1,3.007,4.128-1.373-1.01-3.007a8.875,8.875,0,0,0-6.3-5.827,4.563,4.563,0,0,1-3.448-4.43V57.728A31.069,31.069,0,0,0,22.5,54.591Z" transform="translate(5.584 32.005)"/>
    <path id="Trazado_779399" data-name="Trazado 779399" d="M39.518,39a6.518,6.518,0,1,0,6.518,6.518A6.518,6.518,0,0,0,39.518,39Zm0,8.691a2.173,2.173,0,1,1,2.173-2.173A2.173,2.173,0,0,1,39.518,47.691Z" transform="translate(37.524 39.87)"/>
    <path id="Trazado_779400" data-name="Trazado 779400" d="M46.518,44a6.518,6.518,0,1,0,6.518,6.518A6.518,6.518,0,0,0,46.518,44Zm0,8.691a2.173,2.173,0,1,1,2.173-2.173A2.173,2.173,0,0,1,46.518,52.691Z" transform="translate(45.733 45.733)"/>
    <path id="Trazado_779401" data-name="Trazado 779401" d="M36,48h4.345v4.345H36Z" transform="translate(41.042 50.423)"/>
    <path id="Trazado_779402" data-name="Trazado 779402" d="M42,40h4.345v4.345H42Z" transform="translate(48.078 41.042)"/>
    <path id="Trazado_779403" data-name="Trazado 779403" d="M39,36h4.345v4.345H39Z" transform="translate(44.56 36.352)"/>
    <path id="Trazado_779404" data-name="Trazado 779404" d="M31,36h4.345v4.345H31Z" transform="translate(35.179 36.352)"/>
  </g>
</svg>
