<svg xmlns="http://www.w3.org/2000/svg" width="85" height="93" viewBox="0 0 85 93">
  <g id="Grupo_1063951" data-name="Grupo 1063951" transform="translate(-180 -4959)">
    <rect id="Rectángulo_356620" data-name="Rectángulo 356620" width="85" height="93" rx="9" transform="translate(180 4959)" fill="#dde9fe"/>
    <g id="amamantamiento_2_" data-name="amamantamiento (2)" transform="translate(186.919 4970.114)">
      <g id="Grupo_1063949" data-name="Grupo 1063949" transform="translate(7.72 7.5)">
        <path id="Trazado_781452" data-name="Trazado 781452" d="M56.921,60.762l-3.458,2.51-38.134-11.1C14.078,52.171,7.721,7.5,7.721,7.5H42.776A13.108,13.108,0,0,1,55.616,17.968l5.471,26.6h0l.732,3.561A12.5,12.5,0,0,1,56.921,60.762Z" transform="translate(-7.721 -7.5)" fill="#ffcebf"/>
        <path id="Trazado_781453" data-name="Trazado 781453" d="M307.618,60.762l-3.458,2.51h-3.367l3.458-2.51a12.5,12.5,0,0,0,4.9-12.632l-.732-3.561h0l-5.471-26.6A13.108,13.108,0,0,0,290.107,7.5h3.367a13.108,13.108,0,0,1,12.839,10.468l5.471,26.6h0l.732,3.561A12.5,12.5,0,0,1,307.618,60.762Z" transform="translate(-258.418 -7.5)" fill="#ffb09e"/>
        <path id="Trazado_781454" data-name="Trazado 781454" d="M32.09,57.827l-4.579,2.242-6.541,3.2H9.986A2.266,2.266,0,0,1,7.72,61.008V7.5h4.929S8.6,32.8,25.422,48.1Z" transform="translate(-7.72 -7.5)" fill="#feaee1"/>
        <path id="Trazado_781455" data-name="Trazado 781455" d="M34.973,60.069l1.211-2.242a58.627,58.627,0,0,0-6.626-7.644C11.853,33.788,16.743,7.5,16.743,7.5h3.367S16.065,32.8,32.883,48.1l6.668,9.729Z" transform="translate(-15.181 -7.5)" fill="#fe93d3"/>
        <path id="Trazado_781456" data-name="Trazado 781456" d="M307.088,191.1a10.922,10.922,0,0,1-7.936,10.5l-4.62,1.551a6.354,6.354,0,0,1-3.9.05l-2.807-.863a8.027,8.027,0,0,1-4.232-12.252c.883-1.27,1.973-2.826,2.914-4.137a33.234,33.234,0,0,1,2.031-2.661,10.919,10.919,0,0,1,18.542,7.5C307.087,190.891,307.088,190.993,307.088,191.1Z" transform="translate(-251.366 -160.801)" fill="#ffdfcf"/>
        <path id="Trazado_781457" data-name="Trazado 781457" d="M378.075,190.787a10.959,10.959,0,0,0-7.478-10.052,10.812,10.812,0,0,0-3.537-.558,10.992,10.992,0,0,0-1.246.083A10.922,10.922,0,0,1,367.4,201.6l-4.62,1.551a6.341,6.341,0,0,1-.656.181,6.353,6.353,0,0,0,3.4-.181l4.62-1.551a10.922,10.922,0,0,0,7.936-10.5C378.079,190.992,378.078,190.889,378.075,190.787Z" transform="translate(-322.356 -160.799)" fill="#ffcebf"/>
        <path id="Trazado_781458" data-name="Trazado 781458" d="M399.176,195.511a10.922,10.922,0,0,1-7.936,10.5l-4.62,1.551a12.962,12.962,0,0,1-.67-5.664,2.866,2.866,0,1,0,1.655-5.473,17.285,17.285,0,0,1,2.85-3.87s-1.475-4.163,1.238-7.406h0a10.96,10.96,0,0,1,7.478,10.052C399.175,195.306,399.176,195.408,399.176,195.511Z" transform="translate(-343.453 -165.216)" fill="#7ca1b1"/>
        <path id="Trazado_781459" data-name="Trazado 781459" d="M402.814,195.2a10.959,10.959,0,0,0-7.478-10.052h0a6.866,6.866,0,0,0-.667.949,10.906,10.906,0,0,1-2.526,19.914l-2.149.722a7.65,7.65,0,0,0,.269.83l4.62-1.551a10.922,10.922,0,0,0,7.936-10.5C402.818,195.408,402.817,195.306,402.814,195.2Z" transform="translate(-347.095 -165.216)" fill="#678d98"/>
        <path id="Trazado_781460" data-name="Trazado 781460" d="M153.439,371.9l-3.475,1.056-11.7,3.557H125.8v-2.089a5.99,5.99,0,0,1,2.465-4.844l10.332-7.517a9.017,9.017,0,0,1,5.3-1.726H147.6a7.258,7.258,0,0,1,5.843,11.564Z" transform="translate(-112.549 -320.745)" fill="#dcf5f8"/>
        <path id="Trazado_781461" data-name="Trazado 781461" d="M304.194,371.9l-3.475,1.056.735-1.056a7.258,7.258,0,0,0-5.843-11.564h2.74a7.258,7.258,0,0,1,5.843,11.564Z" transform="translate(-263.303 -320.745)" fill="#c7f1f2"/>
        <path id="Trazado_781462" data-name="Trazado 781462" d="M168.716,278.522h0a5.225,5.225,0,0,1-.872,7.7l-7.734,5.555a6.494,6.494,0,0,1-7.165.273h0a6.494,6.494,0,0,1-3.034-4.508l-2.039-12.583-1.361-2.946a3.7,3.7,0,0,1-.248-2.38h0a3.7,3.7,0,0,1,2.675-2.755l2.153-.561a1.681,1.681,0,0,1,2.02,1.1l.711,2.145,1.508-.262.4,1.38a2.311,2.311,0,0,1-.171,1.719l-.994,1.9,2.909,7.6,3.631-3.618A5.225,5.225,0,0,1,168.716,278.522Z" transform="translate(-130.634 -237.222)" fill="#ffdfcf"/>
        <g id="Grupo_1063948" data-name="Grupo 1063948" transform="translate(19.207 29.038)">
          <path id="Trazado_781463" data-name="Trazado 781463" d="M179.409,267.414l.711,2.145,1.508-.262.4,1.38a2.311,2.311,0,0,1-.171,1.719l-.994,1.9,2.459,6.424a1.83,1.83,0,0,0,1.709,1.175h1.481l-2.909-7.6.994-1.9a2.312,2.312,0,0,0,.171-1.719l-.4-1.38-1.508.262-.711-2.145a1.681,1.681,0,0,0-2.02-1.1l-1.251.326A1.674,1.674,0,0,1,179.409,267.414Z" transform="translate(-178.878 -266.261)" fill="#ffcebf"/>
          <path id="Trazado_781464" data-name="Trazado 781464" d="M238.181,361.524h0a5.223,5.223,0,0,0-5.293-1.588,5.194,5.194,0,0,1,2.554,1.588h0a5.225,5.225,0,0,1-.872,7.7l-7.734,5.555a6.482,6.482,0,0,1-2.42,1.073,6.494,6.494,0,0,0,5.16-1.073l7.734-5.555A5.225,5.225,0,0,0,238.181,361.524Z" transform="translate(-219.306 -349.262)" fill="#ffcebf"/>
        </g>
        <path id="Trazado_781465" data-name="Trazado 781465" d="M236.836,356.54l15.272-13.093s6-5.018,12.382-5.61h0l.732,3.561a12.5,12.5,0,0,1-4.9,12.632l-3.458,2.51" transform="translate(-211.125 -300.767)" fill="#ffcebf"/>
        <path id="Trazado_781466" data-name="Trazado 781466" d="M392.162,354.029l-3.458,2.51h-3.367l3.458-2.51a12.5,12.5,0,0,0,4.9-12.632l-.6-2.91a16.484,16.484,0,0,1,3.232-.651h0l.732,3.561A12.5,12.5,0,0,1,392.162,354.029Z" transform="translate(-342.962 -300.767)" fill="#ffb09e"/>
      </g>
      <g id="Grupo_1063950" data-name="Grupo 1063950" transform="translate(7.72 7.5)">
        <path id="Trazado_781467" data-name="Trazado 781467" d="M284.946,251.288c-.47.669-.931,1.329-1.346,1.927a8.028,8.028,0,0,0,.971,10.311" transform="translate(-251.367 -223.931)" fill="none" stroke="#000" stroke-linecap="round" stroke-linejoin="round" stroke-miterlimit="10" stroke-width="1.5"/>
        <path id="Trazado_781468" data-name="Trazado 781468" d="M344,197.866a10.87,10.87,0,0,0,2.356-6.775c0-.1,0-.2,0-.307a10.961,10.961,0,0,0-7.478-10.051,10.891,10.891,0,0,0-11.064,2.551,21.364,21.364,0,0,0-1.416,1.814" transform="translate(-290.633 -160.796)" fill="none" stroke="#000" stroke-linecap="round" stroke-linejoin="round" stroke-miterlimit="10" stroke-width="1.5"/>
        <path id="Trazado_781469" data-name="Trazado 781469" d="M391.694,185.16c-2.713,3.244-1.238,7.406-1.238,7.406a17.288,17.288,0,0,0-2.85,3.87,2.866,2.866,0,1,1-1.655,5.473,14.077,14.077,0,0,0,.174,3.836l.172.789" transform="translate(-343.455 -165.223)" fill="none" stroke="#000" stroke-linecap="round" stroke-linejoin="round" stroke-miterlimit="10" stroke-width="1.5"/>
        <path id="Trazado_781470" data-name="Trazado 781470" d="M423.528,144.443s-2.414,1.663.809,4.568" transform="translate(-376.096 -129.075)" fill="none" stroke="#000" stroke-linecap="round" stroke-linejoin="round" stroke-miterlimit="10" stroke-width="1.5"/>
        <path id="Trazado_781471" data-name="Trazado 781471" d="M339.634,255.959a1.979,1.979,0,0,0,2.494,1.6" transform="translate(-302.387 -228.077)" fill="none" stroke="#000" stroke-linecap="round" stroke-linejoin="round" stroke-miterlimit="10" stroke-width="1.5"/>
        <path id="Trazado_781472" data-name="Trazado 781472" d="M309.268,282.058s-1.541,1.268-.874,4.455" transform="translate(-274.504 -251.248)" fill="none" stroke="#000" stroke-linecap="round" stroke-linejoin="round" stroke-miterlimit="10" stroke-width="1.5"/>
        <path id="Trazado_781473" data-name="Trazado 781473" d="M236.451,362.346l.38-.277a9.017,9.017,0,0,1,5.3-1.726h1.977" transform="translate(-210.783 -320.748)" fill="none" stroke="#000" stroke-linecap="round" stroke-linejoin="round" stroke-miterlimit="10" stroke-width="1.5"/>
        <path id="Trazado_781474" data-name="Trazado 781474" d="M319.561,360.344h.053a7.259,7.259,0,0,1,5.9,3.025" transform="translate(-284.567 -320.748)" fill="none" stroke="#000" stroke-linecap="round" stroke-linejoin="round" stroke-miterlimit="10" stroke-width="1.5"/>
        <path id="Trazado_781475" data-name="Trazado 781475" d="M125.8,432.543v-2.089a5.99,5.99,0,0,1,2.466-4.844l2.971-2.162" transform="translate(-112.546 -376.77)" fill="none" stroke="#000" stroke-linecap="round" stroke-linejoin="round" stroke-miterlimit="10" stroke-width="1.5"/>
        <path id="Trazado_781476" data-name="Trazado 781476" d="M181.273,432.543a6.487,6.487,0,0,1-3.4-.947h0a6.494,6.494,0,0,1-3.034-4.508l-.59-3.64" transform="translate(-155.562 -376.771)" fill="none" stroke="#000" stroke-linecap="round" stroke-linejoin="round" stroke-miterlimit="10" stroke-width="1.5"/>
        <path id="Trazado_781477" data-name="Trazado 781477" d="M148.773,280.514l-.9-5.556-1.361-2.946a3.7,3.7,0,0,1-.248-2.38h0a3.7,3.7,0,0,1,2.675-2.755l2.153-.561a1.681,1.681,0,0,1,2.02,1.1l.711,2.145,1.508-.262.4,1.38a2.312,2.312,0,0,1-.171,1.719l-.994,1.9,2.909,7.6,3.631-3.618a5.225,5.225,0,0,1,7.608.247h0a5.194,5.194,0,0,1,1.258,2.754" transform="translate(-130.634 -237.223)" fill="none" stroke="#000" stroke-linecap="round" stroke-linejoin="round" stroke-miterlimit="10" stroke-width="1.5"/>
        <path id="Trazado_781478" data-name="Trazado 781478" d="M375.342,321.3a2.285,2.285,0,0,1-1.4-1.659" transform="translate(-332.845 -284.612)" fill="none" stroke="#000" stroke-linecap="round" stroke-linejoin="round" stroke-miterlimit="10" stroke-width="1.5"/>
        <path id="Trazado_781479" data-name="Trazado 781479" d="M422.962,337.837h0l.732,3.561a12.5,12.5,0,0,1-4.9,12.632l-3.458,2.51" transform="translate(-369.597 -300.767)" fill="none" stroke="#000" stroke-linecap="round" stroke-linejoin="round" stroke-miterlimit="10" stroke-width="1.5"/>
        <path id="Trazado_781480" data-name="Trazado 781480" d="M137.238,7.5H157.76A13.108,13.108,0,0,1,170.6,17.967l2.154,10.263" transform="translate(-122.704 -7.5)" fill="none" stroke="#000" stroke-linecap="round" stroke-linejoin="round" stroke-miterlimit="10" stroke-width="1.5"/>
        <line id="Línea_202" data-name="Línea 202" x2="10.427" transform="translate(0 0)" fill="none" stroke="#000" stroke-linecap="round" stroke-linejoin="round" stroke-miterlimit="10" stroke-width="1.5"/>
        <path id="Trazado_781481" data-name="Trazado 781481" d="M48.268,7.5S44.223,32.8,61.042,48.1" transform="translate(-43.339 -7.501)" fill="none" stroke="#000" stroke-linecap="round" stroke-linejoin="round" stroke-miterlimit="10" stroke-width="1.5"/>
        <path id="Trazado_781482" data-name="Trazado 781482" d="M221.118,337.688a15.131,15.131,0,0,0,5.552,2.476" transform="translate(-197.171 -300.635)" fill="none" stroke="#000" stroke-linecap="round" stroke-linejoin="round" stroke-miterlimit="10" stroke-width="1.5"/>
        <path id="Trazado_781483" data-name="Trazado 781483" d="M160.955,223.712a19.63,19.63,0,0,0,1.249,5.337" transform="translate(-143.759 -199.449)" fill="none" stroke="#000" stroke-linecap="round" stroke-linejoin="round" stroke-miterlimit="10" stroke-width="1.5"/>
        <path id="Trazado_781484" data-name="Trazado 781484" d="M350.207,122.312a4.655,4.655,0,0,0,1.554,3.976,6.538,6.538,0,0,1,2.1,2.859" transform="translate(-311.774 -109.428)" fill="none" stroke="#000" stroke-linecap="round" stroke-linejoin="round" stroke-miterlimit="10" stroke-width="1.5"/>
        <path id="Trazado_781485" data-name="Trazado 781485" d="M178.214,44.352h0a4.819,4.819,0,0,1,4.346-2.736h10.619" transform="translate(-159.082 -37.788)" fill="none" stroke="#000" stroke-linecap="round" stroke-linejoin="round" stroke-miterlimit="10" stroke-width="1.5"/>
        <path id="Trazado_781486" data-name="Trazado 781486" d="M54.906,44.352h0a4.819,4.819,0,0,0-4.346-2.736H48.509" transform="translate(-43.932 -37.788)" fill="none" stroke="#000" stroke-linecap="round" stroke-linejoin="round" stroke-miterlimit="10" stroke-width="1.5"/>
        <path id="Trazado_781487" data-name="Trazado 781487" d="M236.836,356.54l15.272-13.093s6-5.018,12.382-5.61h0l.732,3.561a12.5,12.5,0,0,1-4.9,12.632l-3.458,2.51" transform="translate(-211.125 -300.767)" fill="none" stroke="#000" stroke-linecap="round" stroke-linejoin="round" stroke-miterlimit="10" stroke-width="1.5"/>
        <path id="Trazado_781488" data-name="Trazado 781488" d="M108.806,223.707s-.233,5.246-2.148,8.322" transform="translate(-95.555 -199.445)" fill="none" stroke="#000" stroke-linecap="round" stroke-linejoin="round" stroke-miterlimit="10" stroke-width="1.5"/>
      </g>
    </g>
  </g>
</svg>
