<svg xmlns="http://www.w3.org/2000/svg" xmlns:xlink="http://www.w3.org/1999/xlink" width="400" height="552" viewBox="0 0 400 552">
  <defs>
    <clipPath id="clip-path">
      <rect id="Rectángulo_373085" data-name="Rectángulo 373085" width="400" height="552" rx="21" transform="translate(180 5867)" fill="#fff2be" opacity="0.41"/>
    </clipPath>
    <clipPath id="clip-path-2">
      <rect id="Rectángulo_356676" data-name="Rectángulo 356676" width="416.663" height="433.6" transform="translate(0 0)" fill="none"/>
    </clipPath>
    <clipPath id="clip-path-3">
      <rect id="Rectángulo_356675" data-name="Rectángulo 356675" width="416.663" height="433.6" fill="none"/>
    </clipPath>
    <clipPath id="clip-path-4">
      <rect id="Rectángulo_356668" data-name="Rectángulo 356668" width="82.787" height="71.367" fill="none"/>
    </clipPath>
    <clipPath id="clip-path-5">
      <rect id="Rectángulo_356669" data-name="Rectángulo 356669" width="123.838" height="114.619" fill="none"/>
    </clipPath>
    <clipPath id="clip-path-6">
      <rect id="Rectángulo_356670" data-name="Rectángulo 356670" width="194.048" height="97.518" fill="none"/>
    </clipPath>
    <clipPath id="clip-path-7">
      <rect id="Rectángulo_356671" data-name="Rectángulo 356671" width="82.69" height="37.488" fill="none"/>
    </clipPath>
    <clipPath id="clip-path-8">
      <rect id="Rectángulo_356672" data-name="Rectángulo 356672" width="142.484" height="110.812" fill="none"/>
    </clipPath>
    <clipPath id="clip-path-9">
      <rect id="Rectángulo_356673" data-name="Rectángulo 356673" width="24.867" height="11.211" fill="none"/>
    </clipPath>
    <clipPath id="clip-path-10">
      <rect id="Rectángulo_356674" data-name="Rectángulo 356674" width="158.301" height="149.951" fill="none"/>
    </clipPath>
  </defs>
  <g id="Enmascarar_grupo_106" data-name="Enmascarar grupo 106" transform="translate(-180 -5867)" clip-path="url(#clip-path)">
    <rect id="Rectángulo_356643" data-name="Rectángulo 356643" width="1328" height="935.499" transform="translate(140 5735.045)" fill="#f6f6f6" opacity="0.87"/>
    <ellipse id="Elipse_5771" data-name="Elipse 5771" cx="373.319" cy="373.319" rx="373.319" ry="373.319" transform="translate(-11.877 5792.045)" fill="#f7e7e3"/>
    <g id="Grupo_1046854" data-name="Grupo 1046854" transform="translate(76.668 6042.611)">
      <path id="Trazado_780402" data-name="Trazado 780402" d="M13.932,171.08c-.306,1.738-.6,3.489-.862,5.254H234.265a2.634,2.634,0,0,0,2.627-2.627h0a2.634,2.634,0,0,0-2.627-2.627Z" transform="translate(-13.07 -98.84)" fill="#efd5ce" fill-rule="evenodd"/>
      <path id="Trazado_780403" data-name="Trazado 780403" d="M15.736,162.42q-.584,2.627-1.126,5.254H233.65a2.634,2.634,0,0,0,2.627-2.627h0a2.634,2.634,0,0,0-2.627-2.627Z" transform="translate(-12.469 -102.218)" fill="#efd5ce" fill-rule="evenodd"/>
      <path id="Trazado_780404" data-name="Trazado 780404" d="M17.918,153.76c-.473,1.738-.917,3.489-1.348,5.254H232.9a2.634,2.634,0,0,0,2.627-2.627h0a2.634,2.634,0,0,0-2.627-2.627Z" transform="translate(-11.705 -105.596)" fill="#efd5ce" fill-rule="evenodd"/>
      <path id="Trazado_780405" data-name="Trazado 780405" d="M20.495,145.1q-.813,2.606-1.585,5.254H231.987a2.634,2.634,0,0,0,2.627-2.627h0a2.634,2.634,0,0,0-2.627-2.627Z" transform="translate(-10.792 -108.973)" fill="#efd5ce" fill-rule="evenodd"/>
      <path id="Trazado_780406" data-name="Trazado 780406" d="M23.5,136.44c-.639,1.738-1.251,3.489-1.849,5.254H230.9a2.634,2.634,0,0,0,2.627-2.627h0a2.634,2.634,0,0,0-2.627-2.627Z" transform="translate(-9.724 -112.351)" fill="#efd5ce" fill-rule="evenodd"/>
      <path id="Trazado_780407" data-name="Trazado 780407" d="M26.971,127.77c-.723,1.738-1.446,3.489-2.141,5.254H229.664a2.634,2.634,0,0,0,2.627-2.627h0a2.634,2.634,0,0,0-2.627-2.627H26.971Z" transform="translate(-8.483 -115.732)" fill="#efd5ce" fill-rule="evenodd"/>
      <path id="Trazado_780408" data-name="Trazado 780408" d="M30.9,119.11c-.82,1.738-1.64,3.489-2.419,5.254H228.254a2.634,2.634,0,0,0,2.627-2.627h0a2.634,2.634,0,0,0-2.627-2.627Z" transform="translate(-7.06 -119.11)" fill="#efd5ce" fill-rule="evenodd"/>
    </g>
    <g id="Grupo_1046856" data-name="Grupo 1046856" transform="translate(142.767 6131.716)">
      <path id="Trazado_780410" data-name="Trazado 780410" d="M122.387,255.19c-11.593,6.1-4.573,52.279-40.3,55.8,0,0-.681-51.125,40.3-55.8Z" transform="translate(-1.09 -155.14)" fill="#dfbdb8" fill-rule="evenodd"/>
      <path id="Trazado_780411" data-name="Trazado 780411" d="M119,184.11C106.868,205.085,146.818,259.3,79.6,300.177c0,0-26.271-83.068,39.407-116.067Z" transform="translate(-4.086 -182.863)" fill="#dfbdb8" fill-rule="evenodd"/>
      <path id="Trazado_780412" data-name="Trazado 780412" d="M90.281,314.429c-10.356-22.977-36.2-13.414-50.639-36.78C28.481,259.592,32.734,232.626,24.7,223.09,24.7,223.09,91.532,233.307,90.281,314.429Z" transform="translate(-23.473 -167.66)" fill="#dfbdb8" fill-rule="evenodd"/>
      <g id="Grupo_1046855" data-name="Grupo 1046855">
        <path id="Trazado_780413" data-name="Trazado 780413" d="M96.825,349.184a1.241,1.241,0,0,0,2.46-.32c-.042-.292-12.733-102.209-73.783-126.59a1.225,1.225,0,0,0-1.6.7,1.245,1.245,0,0,0,.7,1.612c59.688,23.825,72.2,124.31,72.24,124.6Z" transform="translate(-23.817 -168.012)" fill="#ba8f8e" fill-rule="evenodd"/>
        <path id="Trazado_780414" data-name="Trazado 780414" d="M76.435,364.287a1.231,1.231,0,1,0,2.46-.111c-.014-.431-6.6-149.247,40.1-178.674a1.24,1.24,0,1,0-1.321-2.1c-47.942,30.191-41.27,180.425-41.256,180.87Z" transform="translate(-3.427 -183.213)" fill="#ba8f8e" fill-rule="evenodd"/>
        <path id="Trazado_780415" data-name="Trazado 780415" d="M76.357,335.3a1.238,1.238,0,0,0,2.419.528c.042-.208,15.388-72.851,46.093-79.065a1.256,1.256,0,0,0,.973-1.46,1.238,1.238,0,0,0-1.46-.973C92.065,260.874,76.4,335.088,76.344,335.3Z" transform="translate(-3.336 -155.487)" fill="#ba8f8e" fill-rule="evenodd"/>
      </g>
      <path id="Trazado_780416" data-name="Trazado 780416" d="M61.723,465.871c2.5,6.589,6.811,6.589,6.811,6.589h39.407s4.309,0,6.811-6.589c30.33-107.074-3.1-153.111-3.1-153.111H64.809s-33.43,46.038-3.1,153.111Z" transform="translate(-14 -132.687)" fill="#efd5ce" fill-rule="evenodd"/>
      <path id="Trazado_780417" data-name="Trazado 780417" d="M114.6,321.712a54.378,54.378,0,0,0-4.782-8.952H62.974s-4.907,6.755-9.244,21.115L114.6,321.712Z" transform="translate(-12.151 -132.687)" fill="#efd5ce" fill-rule="evenodd"/>
      <path id="Trazado_780418" data-name="Trazado 780418" d="M112.327,311.33H58.783a2.942,2.942,0,0,0-2.933,2.933h0a2.942,2.942,0,0,0,2.933,2.933h53.544a2.942,2.942,0,0,0,2.933-2.933h0A2.942,2.942,0,0,0,112.327,311.33Z" transform="translate(-11.324 -133.244)" fill="#fff" fill-rule="evenodd"/>
    </g>
    <g id="Grupo_1046857" data-name="Grupo 1046857" transform="translate(337.826 5918.089)">
      <path id="Trazado_780419" data-name="Trazado 780419" d="M316.917,41.069a26.5,26.5,0,0,1,43.8,29.135l2.321,9.855a.6.6,0,0,1-.125.528.576.576,0,0,1-.5.209l-10.092-.806a26.5,26.5,0,0,1-35.39-38.921Z" transform="translate(-310.543 -26.734)" fill="#efd5ce" fill-rule="evenodd"/>
      <path id="Trazado_780420" data-name="Trazado 780420" d="M316.466,36.466a26.5,26.5,0,0,1,40.825,33.152l1.376,10.036a.56.56,0,0,1-.181.514.569.569,0,0,1-.528.153l-9.98-1.765a26.493,26.493,0,0,1-31.526-42.09Z" transform="translate(-305.268 -27.817)" fill="#fff" fill-rule="evenodd"/>
      <path id="Trazado_780421" data-name="Trazado 780421" d="M355.131,36.706h0l-.014-.014a4.781,4.781,0,0,0-.375-.375c-.139-.139-.278-.264-.389-.389a1.239,1.239,0,0,0-1.724,1.779c.125.125.25.236.361.361s.222.236.348.361h0c.431.459.834.9,1.209,1.348s.751.931,1.1,1.432a1.235,1.235,0,0,0,2-1.446c-.389-.528-.792-1.056-1.209-1.557s-.876-1.015-1.321-1.473h0Zm5.352,7.965a27.694,27.694,0,0,1-1.6,25.576l1.321,9.605a1.926,1.926,0,0,1-.083.848c0,.028-.028.056-.028.083a1.743,1.743,0,0,1-.431.626,1.724,1.724,0,0,1-.737.431,2,2,0,0,1-.862.056l-9.536-1.7a27.734,27.734,0,1,1-5.088-50.778A1.244,1.244,0,0,1,342.7,31.8a25.26,25.26,0,1,0,5,46.038,1.266,1.266,0,0,1,.848-.153l9.119,1.612-1.265-9.174h0a1.161,1.161,0,0,1,.181-.82,25.407,25.407,0,0,0,1.668-23.672,1.229,1.229,0,1,1,2.252-.987Z" transform="translate(-305.568 -28.168)" fill="#efd5ce" fill-rule="evenodd"/>
      <path id="Trazado_780422" data-name="Trazado 780422" d="M341.392,43.042h0a6.527,6.527,0,0,0-9.2,0L330.647,44.6,329.1,43.042a6.527,6.527,0,0,0-9.2,0h0a6.544,6.544,0,0,0,0,9.216l1.543,1.543,9.216,9.2,9.2-9.2h0l1.557-1.543a6.544,6.544,0,0,0,0-9.216Z" transform="translate(-300.725 -23.106)" fill="#f7b737" fill-rule="evenodd"/>
    </g>
    <g id="Grupo_1046858" data-name="Grupo 1046858" transform="translate(530.108 6190.356)">
      <path id="Trazado_780423" data-name="Trazado 780423" d="M364.309,286.514,349.38,399.62q9.07-7.444,17.5-15.6c10.022-43.7,21.059-92.284,21.059-92.284l-23.63-5.24Z" transform="translate(-335.341 -135.321)" fill="#fff" fill-rule="evenodd"/>
      <path id="Trazado_780424" data-name="Trazado 780424" d="M342.769,230.34h114.4a286.332,286.332,0,0,1-26.035,91.8H342.769a3.5,3.5,0,0,1-3.489-3.489V233.843a3.5,3.5,0,0,1,3.489-3.489Z" transform="translate(-339.28 -157.225)" fill="#fff" fill-rule="evenodd"/>
      <path id="Trazado_780425" data-name="Trazado 780425" d="M423.772,315.974h7.937c.459-1.029.9-2.057,1.348-3.086H346.612V249.239h7.6c10.634,0,19.836,2.377,31,5.254,3.086.792,6.339,1.626,9.633,2.433,11.885,2.877,20.392,4.309,28.913,4.309s16.194-1.307,27.189-3.906c.778-3.7,1.5-7.423,2.141-11.176H346.612V236.9H454.52c.139-1.029.306-2.057.431-3.086H345.083a1.548,1.548,0,0,0-1.543,1.543v79.092a1.548,1.548,0,0,0,1.543,1.543h78.689Z" transform="translate(-337.619 -155.871)" fill="#efd5ce" fill-rule="evenodd"/>
      <path id="Trazado_780426" data-name="Trazado 780426" d="M419.907,245.851H383.961a1.479,1.479,0,0,1-1.376-1.126L370.728,191.7a.872.872,0,0,1,.876-1.126H407.55a1.479,1.479,0,0,1,1.376,1.126l11.857,53.029A.872.872,0,0,1,419.907,245.851Z" transform="translate(-327.026 -172.736)" fill="#efd5ce" fill-rule="evenodd"/>
      <path id="Trazado_780427" data-name="Trazado 780427" d="M355.248,250.855h50.68a2.114,2.114,0,0,0,1.946-1.585l15.638-69.946a1.234,1.234,0,0,0-1.237-1.585h-50.68a2.114,2.114,0,0,0-1.946,1.585l-15.638,69.946A1.234,1.234,0,0,0,355.248,250.855Z" transform="translate(-333.55 -177.74)" fill="#fff" fill-rule="evenodd"/>
      <path id="Trazado_780428" data-name="Trazado 780428" d="M361.874,239.431H397.82a1.479,1.479,0,0,0,1.376-1.126l11.857-53.029a.872.872,0,0,0-.876-1.126H374.231a1.479,1.479,0,0,0-1.376,1.126L361,238.305a.872.872,0,0,0,.876,1.126Z" transform="translate(-330.82 -175.24)" fill="#efd5ce" fill-rule="evenodd"/>
    </g>
    <path id="Trazado_780429" data-name="Trazado 780429" d="M90.458,82.786a.626.626,0,1,1,1.251,0v8.993h4.935a.626.626,0,0,1,0,1.251H75.863V101.4h29.955V93.03h-3.183a.626.626,0,1,1,0-1.251h20.058a.626.626,0,1,1,0,1.251H107.055V101.4h4.087a.626.626,0,0,1,0,1.251h-28.8v8.368h7.395a.626.626,0,1,1,0,1.251h-8.02a.623.623,0,0,1-.626-.626v-8.993H65.424a.632.632,0,0,1-.625-.626.623.623,0,0,1,.625-.626h9.188V93.03H58.974a.626.626,0,0,1,0-1.251H90.458V82.785h0ZM158.1,260.778H173.3v-8.993a.626.626,0,0,1,1.251,0v8.993h4.935a.626.626,0,1,1,0,1.251H158.709V270.4h29.955v-8.368H185.48a.626.626,0,0,1,0-1.251h20.058a.626.626,0,1,1,0,1.251H189.9V270.4h4.073a.626.626,0,0,1,0,1.251h-28.8v8.368h7.409a.626.626,0,1,1,0,1.251h-8.02a.623.623,0,0,1-.626-.626v-8.993H148.283a.626.626,0,0,1,0-1.251h9.174v-8.368H141.82a.626.626,0,0,1,0-1.251H158.1Zm-24.256,10.856h8.437a.626.626,0,0,0,0-1.251h-8.437a.626.626,0,1,0,0,1.251Zm68.4-1.237h-2.266a.626.626,0,0,0,0,1.251h2.266a.626.626,0,0,0,0-1.251Zm-23.658,10.856h2.238a.626.626,0,0,0,0-1.251h-2.238a.626.626,0,0,0,0,1.251Zm311.644-118.9h15.207v-8.993a.626.626,0,0,1,1.251,0v8.993h4.935a.626.626,0,0,1,0,1.251H490.841v8.368H520.8V163.6h-3.183a.626.626,0,1,1,0-1.251h20.058a.626.626,0,0,1,0,1.251H522.033v8.368h4.073a.626.626,0,1,1,0,1.251H497.3v8.368h7.409a.626.626,0,0,1,0,1.251h-8.02a.623.623,0,0,1-.626-.626v-8.993H480.4a.626.626,0,1,1,0-1.251h9.188V163.6H473.952a.626.626,0,1,1,0-1.251h16.277Zm-24.256,10.856h8.437a.626.626,0,1,0,0-1.251h-8.437a.626.626,0,1,0,0,1.251Zm68.4-1.237h-2.266a.626.626,0,1,0,0,1.251h2.266a.626.626,0,1,0,0-1.251Zm-23.658,10.856h2.238a.626.626,0,1,0,0-1.251h-2.238a.626.626,0,1,0,0,1.251ZM51,102.621h8.438a.626.626,0,0,0,0-1.251H51a.626.626,0,0,0,0,1.251Zm68.4-1.237h-2.266a.626.626,0,0,0,0,1.251H119.4a.626.626,0,1,0,0-1.251ZM95.74,112.24h2.238a.626.626,0,1,0,0-1.251H95.74a.626.626,0,1,0,0,1.251Z" transform="translate(78.146 5909.089)" fill="#dfbdb8" fill-rule="evenodd"/>
    <path id="Trazado_781259" data-name="Trazado 781259" d="M90.458,82.786a.626.626,0,1,1,1.251,0v8.993h4.935a.626.626,0,0,1,0,1.251H75.863V101.4h29.955V93.03h-3.183a.626.626,0,1,1,0-1.251h20.058a.626.626,0,1,1,0,1.251H107.055V101.4h4.087a.626.626,0,0,1,0,1.251h-28.8v8.368h7.395a.626.626,0,1,1,0,1.251h-8.02a.623.623,0,0,1-.626-.626v-8.993H65.424a.632.632,0,0,1-.625-.626.623.623,0,0,1,.625-.626h9.188V93.03H58.974a.626.626,0,0,1,0-1.251H90.458V82.785h0ZM158.1,260.778H173.3v-8.993a.626.626,0,0,1,1.251,0v8.993h4.935a.626.626,0,1,1,0,1.251H158.709V270.4h29.955v-8.368H185.48a.626.626,0,0,1,0-1.251h20.058a.626.626,0,1,1,0,1.251H189.9V270.4h4.073a.626.626,0,0,1,0,1.251h-28.8v8.368h7.409a.626.626,0,1,1,0,1.251h-8.02a.623.623,0,0,1-.626-.626v-8.993H148.283a.626.626,0,0,1,0-1.251h9.174v-8.368H141.82a.626.626,0,0,1,0-1.251H158.1Zm-24.256,10.856h8.437a.626.626,0,0,0,0-1.251h-8.437a.626.626,0,1,0,0,1.251Zm68.4-1.237h-2.266a.626.626,0,0,0,0,1.251h2.266a.626.626,0,0,0,0-1.251Zm-23.658,10.856h2.238a.626.626,0,0,0,0-1.251h-2.238a.626.626,0,0,0,0,1.251Zm311.644-118.9h15.207v-8.993a.626.626,0,0,1,1.251,0v8.993h4.935a.626.626,0,0,1,0,1.251H490.841v8.368H520.8V163.6h-3.183a.626.626,0,1,1,0-1.251h20.058a.626.626,0,0,1,0,1.251H522.033v8.368h4.073a.626.626,0,1,1,0,1.251H497.3v8.368h7.409a.626.626,0,0,1,0,1.251h-8.02a.623.623,0,0,1-.626-.626v-8.993H480.4a.626.626,0,1,1,0-1.251h9.188V163.6H473.952a.626.626,0,1,1,0-1.251h16.277Zm-24.256,10.856h8.437a.626.626,0,1,0,0-1.251h-8.437a.626.626,0,1,0,0,1.251Zm68.4-1.237h-2.266a.626.626,0,1,0,0,1.251h2.266a.626.626,0,1,0,0-1.251Zm-23.658,10.856h2.238a.626.626,0,1,0,0-1.251h-2.238a.626.626,0,1,0,0,1.251ZM51,102.621h8.438a.626.626,0,0,0,0-1.251H51a.626.626,0,0,0,0,1.251Zm68.4-1.237h-2.266a.626.626,0,0,0,0,1.251H119.4a.626.626,0,1,0,0-1.251ZM95.74,112.24h2.238a.626.626,0,1,0,0-1.251H95.74a.626.626,0,1,0,0,1.251Z" transform="translate(336.81 5641.089)" fill="#dfbdb8" fill-rule="evenodd"/>
    <g id="Grupo_1046860" data-name="Grupo 1046860" transform="translate(205.278 5880.038)">
      <path id="Trazado_780430" data-name="Trazado 780430" d="M124.544,50.661a54.311,54.311,0,0,1,85.473,65.693l3.364,20.489a1.236,1.236,0,0,1-1.39,1.432L191.46,135.2a54.31,54.31,0,0,1-66.9-84.527Z" transform="translate(-108.776 -26.897)" fill="#efd5ce" fill-rule="evenodd"/>
      <path id="Trazado_780431" data-name="Trazado 780431" d="M126.368,45.073a54.315,54.315,0,0,1,83.693,67.958l2.822,20.572a1.237,1.237,0,0,1-1.446,1.376l-20.447-3.628a54.319,54.319,0,0,1-64.636-86.293Z" transform="translate(-108.473 -28.676)" fill="#fff" fill-rule="evenodd"/>
      <path id="Trazado_780432" data-name="Trazado 780432" d="M128.157,45.754a1.234,1.234,0,1,1-1.682-1.807c.667-.612,1.334-1.209,2.029-1.793s1.39-1.154,2.113-1.7a1.24,1.24,0,1,1,1.5,1.974c-.681.514-1.348,1.056-2.016,1.626s-1.293,1.126-1.932,1.724h0Zm9.939-7.325a53.089,53.089,0,0,1,71.253,74.3,1.226,1.226,0,0,0-.167.82h0L212,134.118l-20.447-3.628a1.191,1.191,0,0,0-.848.153,53.078,53.078,0,0,1-71.962-73.213,1.237,1.237,0,1,0-2.127-1.265,55.559,55.559,0,0,0,74.936,76.854l20.016,3.545a2.468,2.468,0,0,0,2.877-2.766l-2.766-20.141a55.557,55.557,0,0,0-74.811-77.369,1.219,1.219,0,0,0-.459,1.682,1.236,1.236,0,0,0,1.682.473h0Zm73.894,95.689Z" transform="translate(-108.816 -29.024)" fill="#efd5ce" fill-rule="evenodd"/>
      <rect id="Rectángulo_356737" data-name="Rectángulo 356737" width="35.682" height="43.563" rx="4.41" transform="translate(37.689 45.546)" fill="#f7b737"/>
      <path id="Trazado_780433" data-name="Trazado 780433" d="M151.15,65.324l-8.007-.542a.633.633,0,0,1-.584-.667h0l.042-.9a.61.61,0,0,1,.514-.584,6.45,6.45,0,0,0,3.267-1.334,2.5,2.5,0,0,0,.82-2.4,6.915,6.915,0,0,0-1.863-3.308,8.393,8.393,0,0,1-.111-12.01h0a8.423,8.423,0,0,1,11.9,0l.042.042a8.424,8.424,0,0,1,2.433,5.922,8.238,8.238,0,0,1-.681,3.308,8.389,8.389,0,0,1-1.89,2.752l-.028.028a6.923,6.923,0,0,0-1.849,3.28,2.618,2.618,0,0,0,.083,1.321,2.522,2.522,0,0,0,.737,1.084,6.216,6.216,0,0,0,3.267,1.334.61.61,0,0,1,.514.584l.042.917a.618.618,0,0,1-.584.639h0l-8.007.542h-.083Zm-6.756-1.7,6.8.459,6.783-.459a6.62,6.62,0,0,1-2.836-1.418,3.781,3.781,0,0,1-1.07-1.612,4.022,4.022,0,0,1-.125-1.918,8.023,8.023,0,0,1,2.168-3.934h0l.028-.028a7.173,7.173,0,0,0,2.21-5.2,7.146,7.146,0,0,0-2.071-5.046l-.028-.028a7.181,7.181,0,0,0-10.147,0h0a7.153,7.153,0,0,0-2.1,5.074,7.3,7.3,0,0,0,.57,2.822,7.028,7.028,0,0,0,1.612,2.335l.083.083a7.878,7.878,0,0,1,2.141,3.906,4.022,4.022,0,0,1-.125,1.918,3.781,3.781,0,0,1-1.07,1.612,6.62,6.62,0,0,1-2.836,1.418h0Zm-1.821.487.653-.57A.608.608,0,0,0,142.574,64.115Z" transform="translate(-95.655 -24.31)" fill="#d4aca8" fill-rule="evenodd"/>
      <path id="Trazado_780434" data-name="Trazado 780434" d="M141.034,63.818h24.325a3.625,3.625,0,0,0,3.614-3.614h0a3.625,3.625,0,0,0-3.614-3.614H141.034A3.625,3.625,0,0,0,137.42,60.2h0A3.625,3.625,0,0,0,141.034,63.818Z" transform="translate(-97.66 -18.272)" fill="#d4aca8" fill-rule="evenodd"/>
      <g id="Grupo_1046859" data-name="Grupo 1046859" transform="translate(39.19 53.872)">
        <path id="Trazado_780435" data-name="Trazado 780435" d="M137.608,67.78h2.53a.593.593,0,0,1,.6.6h0a.593.593,0,0,1-.6.6h-2.53a.593.593,0,0,1-.6-.6h0A.593.593,0,0,1,137.608,67.78Z" transform="translate(-137.01 -67.78)" fill="#c75633" fill-rule="evenodd"/>
        <path id="Trazado_780436" data-name="Trazado 780436" d="M137.608,70.59h5.06a.593.593,0,0,1,.6.6h0a.593.593,0,0,1-.6.6h-5.06a.593.593,0,0,1-.6-.6h0A.6.6,0,0,1,137.608,70.59Z" transform="translate(-137.01 -66.684)" fill="#c75633" fill-rule="evenodd"/>
        <path id="Trazado_780437" data-name="Trazado 780437" d="M137.608,73.4h2.53a.593.593,0,0,1,.6.6h0a.593.593,0,0,1-.6.6h-2.53a.593.593,0,0,1-.6-.6h0A.6.6,0,0,1,137.608,73.4Z" transform="translate(-137.01 -65.588)" fill="#c75633" fill-rule="evenodd"/>
        <path id="Trazado_780438" data-name="Trazado 780438" d="M137.608,76.21h2.53a.593.593,0,0,1,.6.6h0a.593.593,0,0,1-.6.6h-2.53a.593.593,0,0,1-.6-.6h0A.6.6,0,0,1,137.608,76.21Z" transform="translate(-137.01 -64.492)" fill="#c75633" fill-rule="evenodd"/>
        <path id="Trazado_780439" data-name="Trazado 780439" d="M137.6,79.02h5.074a.593.593,0,0,1,.6.6h0a.593.593,0,0,1-.6.6H137.6a.587.587,0,0,1-.584-.584h0a.593.593,0,0,1,.6-.6Z" transform="translate(-137.006 -63.396)" fill="#c75633"/>
        <rect id="Rectángulo_356738" data-name="Rectángulo 356738" width="3.725" height="1.182" rx="0.43" transform="translate(0 19.544)" fill="#c75633"/>
        <path id="Trazado_780440" data-name="Trazado 780440" d="M137.608,84.65h2.53a.593.593,0,0,1,.6.6h0a.593.593,0,0,1-.6.6h-2.53a.593.593,0,0,1-.6-.6h0A.593.593,0,0,1,137.608,84.65Z" transform="translate(-137.01 -61.2)" fill="#c75633"/>
        <path id="Trazado_780441" data-name="Trazado 780441" d="M137.608,87.46h5.06a.593.593,0,0,1,.6.6h0a.6.6,0,0,1-.6.6h-5.06a.593.593,0,0,1-.6-.6h0A.593.593,0,0,1,137.608,87.46Z" transform="translate(-137.01 -60.104)" fill="#c75633" fill-rule="evenodd"/>
      </g>
      <path id="Trazado_780442" data-name="Trazado 780442" d="M145.575,72.991h0a4.891,4.891,0,0,1,6.908,0l1.154,1.154,1.154-1.154a4.891,4.891,0,0,1,6.908,0h0a4.891,4.891,0,0,1,0,6.908l-1.154,1.168-6.908,6.895-6.908-6.895h0L145.561,79.9a4.891,4.891,0,0,1,0-6.908Z" transform="translate(-95.042 -12.433)" fill="#fff" fill-rule="evenodd"/>
    </g>
    <g id="Grupo_1062911" data-name="Grupo 1062911" transform="translate(21.413 5814.936)">
      <g id="Grupo_1062909" data-name="Grupo 1062909" transform="translate(231.069 435.392)">
        <path id="Trazado_781257" data-name="Trazado 781257" d="M-419.479-5403.074l-9.387,123.37H-174.08l-26.82-99.232Z" transform="translate(430.375 5439.505)" fill="#fff"/>
        <path id="Trazado_781258" data-name="Trazado 781258" d="M-346.33-5431.963s-12.185,38.839,0,78.891,48.741,81.316,48.741,81.316H-430.464l12.739-148.871Z" transform="translate(430.464 5431.963)" fill="#f3f2f7"/>
      </g>
      <g id="Grupo_1046732" data-name="Grupo 1046732" transform="translate(157.435 103.154)" clip-path="url(#clip-path-2)">
        <g id="Grupo_1046731" data-name="Grupo 1046731" transform="translate(0 0)">
          <g id="Grupo_1046730" data-name="Grupo 1046730" clip-path="url(#clip-path-3)">
            <path id="Trazado_779883" data-name="Trazado 779883" d="M357.948,64.312c-23.006-33.854-65.509-54.8-94.9-41.626-22.689,10.17-31.377,31.685-61.761,52.776-21.169,14.7-33.052,9.776-61.761,19.327-12.255,4.077-75.286,25.046-95.654,78.793C31.354,206.616,35.524,245.627,55,275.116c20.161,30.528,76.844,77.927,110.888,72.4,50.742-8.23,101.566-39.415,125.781-86.226,5.084-9.828,3-57.7,10.185-66.16,12.207-14.385,30.168-16.05,45.083-25.7,14.285-9.243,24.975-28.782,27.08-45.159,2.748-21.376-3.8-41.9-16.068-59.962" transform="translate(3.578 0.606)" fill="#7a493f"/>
            <path id="Trazado_779884" data-name="Trazado 779884" d="M305.092,78.906S271.3,101.139,235.4,117.118c-11.326,5.041-21.158,10.392-30.94,11.412-16.49,1.721-35.833,12.76-47.4,34.637-16.9,31.96-44.153,118.611-29.37,188.089,0,0,95.037,31.96,158.4,12.507l51.39-47.939s39.251-11.417,32.323-38.888c-4.33-17.171-18.6-25.378-18.6-25.378s1.408-16.674,4.224-36.823,5.632-36.128,2.112-41.686-52.446-94.141-52.446-94.141" transform="translate(-83.088 2.556)" fill="#f5b9a2"/>
            <g id="Grupo_1046711" data-name="Grupo 1046711" transform="translate(200.941 260.103)" opacity="0.14" style="mix-blend-mode: multiply;isolation: isolate">
              <g id="Grupo_1046710" data-name="Grupo 1046710">
                <g id="Grupo_1046709" data-name="Grupo 1046709" clip-path="url(#clip-path-4)">
                  <path id="Trazado_779885" data-name="Trazado 779885" d="M209.867,288.623s-46.969,16.007-58.12-36.684l-24.668,43.354,62.513,28.013Z" transform="translate(-127.08 -251.94)" fill="#504587"/>
                </g>
              </g>
            </g>
            <path id="Trazado_779886" data-name="Trazado 779886" d="M166.52,271.952c68.1-23.891,25.985-127.481,1.338-145.944L199.9,114.194c38.306,33.3,47.58,145.252,60.956,178.6s48.574,32.654,48.574,32.654l-30.27,58.362L144.7,373.388l2.816-31.959c2.816-31.96,19.007-69.477,19.007-69.477" transform="translate(-44.129 3.7)" fill="#fff"/>
            <g id="Grupo_1046714" data-name="Grupo 1046714" transform="translate(84.039 254.467)" opacity="0.07" style="mix-blend-mode: multiply;isolation: isolate">
              <g id="Grupo_1046713" data-name="Grupo 1046713">
                <g id="Grupo_1046712" data-name="Grupo 1046712" clip-path="url(#clip-path-5)">
                  <path id="Trazado_779887" data-name="Trazado 779887" d="M323.427,326.76s-71.552,11.893-76.071-28.246-1.506-52.033-1.506-52.033l-36.906,74.333s-14.31,43.113-7.532,40.14S323.427,326.76,323.427,326.76" transform="translate(-199.588 -246.481)" fill="#504587"/>
                </g>
              </g>
            </g>
            <path id="Trazado_779888" data-name="Trazado 779888" d="M376.045,242.676s-25.343,88.236-35.9,111.163c0,0-49.983,14.59-67.582-14.591,0,0,13.375-74.34,22.527-103.521s80.957,6.948,80.957,6.948" transform="translate(-244.501 7.269)" fill="#f5b9a2"/>
            <path id="Trazado_779889" data-name="Trazado 779889" d="M151.205,192.481c-.575,2.523-1.114,5.048-1.743,7.553q-.893,3.766-1.9,7.5c-.687,2.479-1.385,4.954-2.233,7.368a33.4,33.4,0,0,1-3.074,6.9l-.254.4.237.4c2.517,4.272,5.055,8.532,7.67,12.748q1.95,3.169,3.959,6.3c1.367,2.074,2.687,4.175,4.1,6.225-1.1-2.227-2.287-4.4-3.427-6.606-1.175-2.185-2.357-4.364-3.565-6.529-2.4-4.338-4.879-8.633-7.377-12.915l-.017.8a33.371,33.371,0,0,0,3.157-7.275q1.178-3.737,2.011-7.54c.572-2.531,1.044-5.08,1.461-7.635.378-2.562.767-5.12.995-7.7" transform="translate(110.147 6.236)" fill="#191919"/>
            <path id="Trazado_779890" data-name="Trazado 779890" d="M120.09,183.318a157.005,157.005,0,0,1-14.615-19.091,176.029,176.029,0,0,1-10.542-19.833L57.425,163.932,46.19,95.011S83.6,73.963,90.541,59.578c9.752-20.224,62.924-42.345,94.432-13.818s32,60.076,31.361,66.95c-.862,9.2-6.047,18.67-12.094,26.043a35.191,35.191,0,0,1-15.522,10.663,16.09,16.09,0,0,0-5.159,3.4c-1.867,2.351-6.668,9.027-2.833,15.649,4.63,7.993-8.3,11.9-16.146,3.4a176.324,176.324,0,0,0-16.4,8.526c-13.955,8.8-22.92,8.414-28.089,2.923" transform="translate(151.878 1.042)" fill="#f5b9a2"/>
            <g id="Grupo_1046717" data-name="Grupo 1046717" transform="translate(90.653 90.772)" opacity="0.14" style="mix-blend-mode: multiply;isolation: isolate">
              <g id="Grupo_1046716" data-name="Grupo 1046716">
                <g id="Grupo_1046715" data-name="Grupo 1046715" clip-path="url(#clip-path-6)">
                  <path id="Trazado_779891" data-name="Trazado 779891" d="M156.866,128.239c9.781-1.021,19.613-6.371,30.94-11.412a503.392,503.392,0,0,0,45.76-23.617V93.2s.218-.123.586-.335c.6-.348,1.2-.695,1.783-1.035,1.56-.916,3.8-2.257,6.456-3.911,32.84.532,62.721,6.3,77.807,10.321-6.253,3.383-23.13,8.19-37.442,15.295.542,1.148.4,3.309-.7,6.817-5.093,16.24,21.909,50.406,34.435,65.086a12.433,12.433,0,0,1-9.026-3.931c-.981-1.042-2.046-2.259-3.147-3.573-14.978-3.368-41.362-36.084-41.362-36.084-4.843,9.991-26.838,34.259-33.14,34.689-10.313.7-11.556-16.741-32.136-30.229-17.944-11.76-41.879-14.8-60.756-8.92a60.745,60.745,0,0,0-10.775,4.554c9.714-8.2,20.736-12.666,30.717-13.708" transform="translate(-126.149 -87.923)" fill="#504587"/>
                </g>
              </g>
            </g>
            <path id="Trazado_779892" data-name="Trazado 779892" d="M283.086,119.5s-67.378,22.482-91.481-14.46c0,0-34.123-3.7-64.02,42.37-42.931,66.156-4.519-18.583-88.687-17.1-12.168.215,27.984-32.913,81.155-49.06,7.788-2.364,35.364-33.662,50.448-44.958s55.477-22.673,83.348.835,71.116,98.419,16.049,106.422c0,0,12.341-10.7,13.188-24.053" transform="translate(81.798 0.757)" fill="#7a493f"/>
            <path id="Trazado_779893" data-name="Trazado 779893" d="M135.181,121.394a17.463,17.463,0,0,1-23.481-7.013,17.008,17.008,0,0,1,7.1-23.174,17.465,17.465,0,0,1,23.482,7.013,17.009,17.009,0,0,1-7.106,23.174" transform="translate(157.624 2.889)" fill="#f5b9a2"/>
            <path id="Trazado_779894" data-name="Trazado 779894" d="M127.215,96.39a19.572,19.572,0,0,1,1.589,5.173,10.986,10.986,0,0,1-.4,5.108,7.612,7.612,0,0,1-.467,1.191c-.089.2-.162.4-.262.589l-.347.548a9.833,9.833,0,0,1-.705,1.1c-.287.333-.564.677-.838,1.029a8,8,0,0,1-.927.97l-.967.964c-.7.586-1.426,1.156-2.122,1.807.87-.352,1.727-.762,2.581-1.194a19.183,19.183,0,0,0,2.312-1.7,11.3,11.3,0,0,0,3.238-4.836,10.068,10.068,0,0,0,.1-5.817,11.46,11.46,0,0,0-2.784-4.93" transform="translate(158.898 3.123)" fill="#191919"/>
            <path id="Trazado_779895" data-name="Trazado 779895" d="M124.509,101.773a16.077,16.077,0,0,1,4.681,3.371A11.109,11.109,0,0,1,130.8,107.4c.479.825.808,1.737,1.255,2.7a6.472,6.472,0,0,0-.117-3.149,6.688,6.688,0,0,0-1.582-2.846,7.215,7.215,0,0,0-2.685-1.859,6.385,6.385,0,0,0-3.158-.473" transform="translate(154.226 3.296)" fill="#191919"/>
            <path id="Trazado_779896" data-name="Trazado 779896" d="M82.34,139.57a1.656,1.656,0,0,0,2.639-1.032,5.686,5.686,0,0,0-2.074-5.524c-3.982-3.364-7.062-2.013-7.457-.327-.281,1.2,4.26,4.874,6.893,6.884" transform="translate(252.682 4.242)" fill="#7a493f"/>
            <path id="Trazado_779898" data-name="Trazado 779898" d="M105.029,154.641a21.831,21.831,0,0,0,.781,5.367,28.029,28.029,0,0,0,1.9,5.119,22.874,22.874,0,0,0,3.04,4.593,14.113,14.113,0,0,0,4.358,3.355,32.575,32.575,0,0,1-3.387-4.091,44.728,44.728,0,0,1-2.6-4.537c-.786-1.563-1.467-3.181-2.143-4.813-.66-1.64-1.3-3.3-1.942-4.993" transform="translate(191.691 5.01)" fill="#191919"/>
            <path id="Trazado_779899" data-name="Trazado 779899" d="M115.819,114.467c-2.76,1.412-5.532,2.775-8.372,3.989q-4.229,1.88-8.555,3.493a102.21,102.21,0,0,1-17.68,4.978,60.072,60.072,0,0,1-9.082.96c-.758.006-1.521.062-2.278.03l-2.276-.085c-1.506-.153-3.023-.269-4.511-.563a33.683,33.683,0,0,1-8.653-2.736,34.7,34.7,0,0,1-7.628-5.086,30.482,30.482,0,0,0,7.142,5.977,31.278,31.278,0,0,0,8.808,3.422c6.2,1.476,12.662,1.145,18.847.11A82.9,82.9,0,0,0,99.5,123.435a92.334,92.334,0,0,0,16.315-8.968" transform="translate(251.904 3.709)" fill="#7a493f"/>
            <path id="Trazado_779900" data-name="Trazado 779900" d="M96.254,98.707c2.073-.214-11.493-3.851-21.926-4.225-15.508-.555-29.98,1.985-29.919,3.576.071,1.83,12.369.714,18.462,1.014,6.388.314-11.549,8.284-16.1,9.395-5.279,1.289-2.182,2.741,1.785,4.146a61.019,61.019,0,0,0,43.869-1.4c3.3-1.413,11.418-5.215,11.534-9.4-1.4.138-2.412,1.24-3.636,1.847A44.533,44.533,0,0,1,87.906,107.3c-10.067,1.688-13.136-3.951-13.22-4.8-.192-1.922,12.409-2.849,21.568-3.8" transform="translate(266.703 3.059)" fill="#945c4c"/>
            <path id="Trazado_779901" data-name="Trazado 779901" d="M376.844,346.747s-34.495,23.622-57.726,31.265-77.677,24.748-89.645,26.137-30.721-9.893-31.425-33.516,4.5-40.606,4.5-40.606l74.908-2.415s71.806,2.28,105.6-13.005c0,0-.577,19.634-6.21,32.14" transform="translate(-173.495 10.193)" fill="#f5b9a2"/>
            <path id="Trazado_779902" data-name="Trazado 779902" d="M140.659,331.483s17.6-11.117,21.823-26.4S184.306,289.1,188.53,275.9s14.783-31.265,20.415-25.012-5.632,18.064-7.04,27.1-6.336,22.926.7,22.926,17.6,5.559,17.6,5.559-47.87,37.517-66.174,42.381c0,0-.7-19.453-13.375-17.369" transform="translate(49.314 8.087)" fill="#f5b9a2"/>
            <path id="Trazado_779903" data-name="Trazado 779903" d="M150.61,305.1a21.776,21.776,0,0,1,3.732-7.057,30.169,30.169,0,0,1,5.888-5.422c4.3-3.2,9.22-5.713,13.039-9.784a20.073,20.073,0,0,0,2.505-3.327,18.489,18.489,0,0,0,1.662-3.809,79.289,79.289,0,0,1,2.922-7.432,61.833,61.833,0,0,1,8.123-13.664,19.921,19.921,0,0,1,2.732-2.761,5.72,5.72,0,0,1,3.186-1.457,2.517,2.517,0,0,1,1.479.45,3.95,3.95,0,0,1,.636.552c-.139-.207-.046-.1-.064,0a3.039,3.039,0,0,1-.023.4,28.937,28.937,0,0,1-.884,3.8c-1.462,5.135-3.224,10.231-4.55,15.457a66.5,66.5,0,0,0-1.627,7.931c-.43,2.628-1.012,5.25-1.512,7.892a51.632,51.632,0,0,0-1.008,8.021,10.084,10.084,0,0,0,.6,4.015,3.365,3.365,0,0,0,1.314,1.562,3.645,3.645,0,0,0,1.976.454,3.59,3.59,0,0,1-1.912-.551,3.182,3.182,0,0,1-1.16-1.553,9.856,9.856,0,0,1-.4-3.913,51.2,51.2,0,0,1,1.343-7.884c.584-2.614,1.225-5.221,1.735-7.875a64.9,64.9,0,0,1,1.82-7.787c1.5-5.133,3.208-10.211,4.764-15.382a29.9,29.9,0,0,0,.965-4.025,4.433,4.433,0,0,0,.036-.6,1.392,1.392,0,0,0-.313-.95,5.37,5.37,0,0,0-.885-.779,4.039,4.039,0,0,0-2.346-.729,7.136,7.136,0,0,0-4.13,1.755,19.956,19.956,0,0,0-2.975,2.966,63.165,63.165,0,0,0-8.218,14.08,80.305,80.305,0,0,0-2.906,7.587,17.77,17.77,0,0,1-3.773,6.762c-3.5,3.961-8.346,6.612-12.612,9.974a30.719,30.719,0,0,0-5.753,5.772,22.065,22.065,0,0,0-2.073,3.492,22.842,22.842,0,0,0-1.331,3.81" transform="translate(61.186 8.064)" fill="#191919"/>
            <path id="Trazado_779904" data-name="Trazado 779904" d="M298.927,344.255a52.377,52.377,0,0,1,11.3-8.747,58.512,58.512,0,0,1,6.352-3.246c1.106-.44,2.187-.936,3.3-1.357l3.389-1.121c1.122-.4,2.3-.61,3.448-.926l1.732-.438c.583-.122,1.176-.2,1.762-.306l3.528-.609,3.571-.322,1.789-.17c.6-.029,1.2-.011,1.8-.03l3.6-.06c2.406,0,4.8.269,7.232.323-1.189-.21-2.383-.409-3.583-.587l-1.8-.28a14.021,14.021,0,0,0-1.809-.215l-3.643-.2c-.609-.029-1.219-.07-1.828-.072l-1.826.081-3.658.181-3.63.514c-.606.089-1.212.169-1.813.285l-1.782.431c-1.182.312-2.395.52-3.551.919a51.581,51.581,0,0,0-13.228,6.184,48.574,48.574,0,0,0-5.782,4.42,37.3,37.3,0,0,0-4.865,5.345" transform="translate(-247.764 10.559)" fill="#191919"/>
            <path id="Trazado_779905" data-name="Trazado 779905" d="M167.136,176.813a54.678,54.678,0,0,1-11.184-10.831c-.788-1.027-1.608-2.027-2.306-3.116s-1.505-2.1-2.106-3.245c-.627-1.126-1.33-2.211-1.921-3.354l-1.677-3.48c-.562-1.157-.965-2.385-1.455-3.574l-.706-1.8-.55-1.85c-.368-1.233-.764-2.461-1.112-3.7l-.808-3.783-.413-1.893-.251-1.92-.519-3.849c-.292-2.575-.3-5.172-.539-7.777q-.105,1.947-.163,3.906l-.067,1.961a15.519,15.519,0,0,0,0,1.961l.266,3.919.152,1.962.328,1.941.675,3.885c.318,1.275.685,2.541,1.026,3.813l.538,1.9.7,1.849c.492,1.223.892,2.486,1.46,3.678a55.006,55.006,0,0,0,8.5,13.328,51.56,51.56,0,0,0,5.612,5.591,40.307,40.307,0,0,0,6.516,4.478" transform="translate(101.685 3.973)" fill="#191919"/>
            <path id="Trazado_779906" data-name="Trazado 779906" d="M55.7,283.232c2.952,12.033,26.686,27.459,38.339,26.858,0,0,16.055,8.028,30.291.818,9.934-5.032,19.566-14.454,18.577-28.895-1.213-17.725-11.563-33.232-29.748-38.895-17.327-5.4-29.685,1.269-39.424,8.255C55.171,264.688,52.5,270.164,55.7,283.232" transform="translate(216.628 7.813)" fill="#d69487"/>
            <path id="Trazado_779907" data-name="Trazado 779907" d="M89.586,278.788s11.114,2.388,6.394,9.119-12.92,8.3-15.555,5.245" transform="translate(235.385 9.032)" fill="#d69487"/>
            <path id="Trazado_779908" data-name="Trazado 779908" d="M88.912,278.788a22.583,22.583,0,0,1,3.587,1.7,8.03,8.03,0,0,1,2.751,2.458,3.267,3.267,0,0,1,.183,3.164,11.534,11.534,0,0,1-2.106,3.023,16.772,16.772,0,0,1-6.215,4.332,11.526,11.526,0,0,1-3.737.8,5.134,5.134,0,0,1-3.626-1.115A4.935,4.935,0,0,0,83.339,295a10.813,10.813,0,0,0,4.156-.417,15.9,15.9,0,0,0,8.294-6.033,8.283,8.283,0,0,0,1.051-1.9,4.875,4.875,0,0,0,.311-2.264,4.307,4.307,0,0,0-.856-2.129,8.086,8.086,0,0,0-3.435-2.466,14.466,14.466,0,0,0-3.949-1" transform="translate(236.059 9.032)" fill="#191919"/>
            <path id="Trazado_779909" data-name="Trazado 779909" d="M93.638,286.559a2.914,2.914,0,0,0-1.443-.9,5.89,5.89,0,0,0-1.689-.293,7.64,7.64,0,0,0-3.319.677l-.932.412.6.705a3.535,3.535,0,0,1,.447.717,2.038,2.038,0,0,1,.216.792,1.446,1.446,0,0,1-.19.83,3.774,3.774,0,0,1-.646.833,2.414,2.414,0,0,0,1.094-.437,1.949,1.949,0,0,0,.749-1.07,2.79,2.79,0,0,0,.024-1.329,3.619,3.619,0,0,0-.5-1.207l-.33,1.117a24.027,24.027,0,0,1,2.868-.677c.487-.09.979-.142,1.486-.189a6.644,6.644,0,0,1,1.566.022" transform="translate(232.795 9.245)" fill="#191919"/>
            <path id="Trazado_779910" data-name="Trazado 779910" d="M69.928,263.817a19.005,19.005,0,0,0,3.579-4.364,9.934,9.934,0,0,0,1.514-5.764,6.1,6.1,0,0,0-1.179-3.092,8.168,8.168,0,0,0-2.448-2.149,9.525,9.525,0,0,0-6.237-1.3,8.17,8.17,0,0,0-5.371,3.595,7.232,7.232,0,0,0-.735,1.5,4.39,4.39,0,0,0-.257,1.913,2.223,2.223,0,0,0,.613,1.324,1.972,1.972,0,0,0,.752.477,2.139,2.139,0,0,0,.741.106,3.889,3.889,0,0,0,1.883-.643,3.15,3.15,0,0,0,1.34-1.558,2.615,2.615,0,0,0-.179-2.08,5.767,5.767,0,0,0-2.321-2.208,8.269,8.269,0,0,0-2.836-.931,3.614,3.614,0,0,0-2.832.614l.084.13a3.52,3.52,0,0,1,2.632-.246,7.559,7.559,0,0,1,2.487,1.107,5.076,5.076,0,0,1,1.819,1.952,1.626,1.626,0,0,1,.074,1.249,1.947,1.947,0,0,1-.887.92,2.874,2.874,0,0,1-1.247.4.728.728,0,0,1-.758-.752,4.2,4.2,0,0,1,.857-2.465,6.726,6.726,0,0,1,4.412-2.877,8.119,8.119,0,0,1,5.242,1.043,6.746,6.746,0,0,1,2.082,1.7,5.165,5.165,0,0,1,1.045,2.44,9.623,9.623,0,0,1-1.043,5.249,21.772,21.772,0,0,1-2.944,4.606Z" transform="translate(283.079 8.004)" fill="#7a493f"/>
            <path id="Trazado_779911" data-name="Trazado 779911" d="M112.339,255.361a3.52,3.52,0,0,0,0,2.635,4.5,4.5,0,0,0,1.729,2.173,5.734,5.734,0,0,0,2.561.916,9.7,9.7,0,0,0,1.319.011,8.2,8.2,0,0,0,1.285-.281,9.476,9.476,0,0,0-1.189-.473c-.382-.153-.753-.3-1.119-.43a12.47,12.47,0,0,1-1.969-1.02,6.714,6.714,0,0,1-2.614-3.532" transform="translate(180.186 8.273)" fill="#191919"/>
            <path id="Trazado_779912" data-name="Trazado 779912" d="M233.762,311.906s8.216,13.8-8.945,41.552-82.56,78.421-116.614,59.281c-41.833-23.512-29.409-56.347,16.3-87.308,46.219-31.311,61.7-31.386,61.7-31.386Z" transform="translate(94.475 9.527)" fill="#916ab8"/>
            <path id="Trazado_779913" data-name="Trazado 779913" d="M174.781,336.75s11.164-18.106,28.843-15.562c10.368,1.492,37.931,26.1,45.1,42.675,11.38,26.3,5.643,41.4-5.952,46.035-37.621,15.035-43.058-66.415-43.058-66.415s-26.083,13.914-29.123,4.126c-1.667-5.371,4.188-10.858,4.188-10.858" transform="translate(-16.382 10.398)" fill="#d69487"/>
            <path id="Trazado_779914" data-name="Trazado 779914" d="M256.269,313.418s3.738,10.613,2.533,17.428S245.382,348.2,245.382,348.2s-5.439-12.709-7.54-23.654c0,0,12.941-13.532,18.427-11.124" transform="translate(-91.18 10.145)" fill="#d69487"/>
            <path id="Trazado_779915" data-name="Trazado 779915" d="M259.359,315.874c-.171-.374.049-7.007-3.035-6.627-3.291.406-2.2,3.46-2.2,3.46a2.77,2.77,0,0,0-1.448-2.2c-1.475-.838-3.793.418-2.948,3.357,0,0-.864-2.246-2.782-.964a2.826,2.826,0,0,0-.9,3.941s-1.086-2.995-2.831-.918c-1.353,1.61-.233,3.763-.233,3.763s-1.709-3.3-2.986.288c-.657,1.852.356,5.5.356,5.5Z" transform="translate(-93.518 10.019)" fill="#d69487"/>
            <path id="Trazado_779916" data-name="Trazado 779916" d="M249.152,327.409a8.9,8.9,0,0,0-4.1,1.729,13.562,13.562,0,0,0-3.125,3.216,15.566,15.566,0,0,0-1.927,4,19.478,19.478,0,0,0-.518,2.136,20.176,20.176,0,0,0-.169,2.182c.35-.655.616-1.317.908-1.966.325-.636.593-1.285.916-1.9.346-.609.611-1.25,1-1.827a19.967,19.967,0,0,1,1.092-1.749,22.824,22.824,0,0,1,2.617-3.168,18.623,18.623,0,0,1,3.3-2.645" transform="translate(-82.835 10.608)" fill="#191919"/>
            <path id="Trazado_779917" data-name="Trazado 779917" d="M141.253,293.882s17.921,56.92,31.82,44.228c13.729-12.537,1.434-16.216-21.979-52.935Z" transform="translate(90.087 9.239)" fill="#d69487"/>
            <path id="Trazado_779918" data-name="Trazado 779918" d="M108.031,316.147s33.638-.236,37.5-.35c11.584-.342,10.44,9.7,7.526,14.839-2.257,3.979-9.8,14.256-48.6,8.124Z" transform="translate(152.384 10.231)" fill="#d69487"/>
            <path id="Trazado_779919" data-name="Trazado 779919" d="M188.729,297.659s-7.439-18.327-8.276-22.11c-1.654-7.474-5.161,2.009-9.827-2.08-3.731-3.271-3.83-3.492-5.88-4.188-1.248-.423-3.324.649.4,5.11,3.667,4.391,4.695,4.834,4.825,6.627a20.1,20.1,0,0,0,2.168,10.659,9.461,9.461,0,0,0,9.412,5.566c2.847-.283,7.458,4.958,7.177.417" transform="translate(57.377 8.722)" fill="#d69487"/>
            <path id="Trazado_779920" data-name="Trazado 779920" d="M177.935,280.351s-.611-8.065.9-11.276-2.6-5.794-5.533-9.4c-2.091-2.573-3.657-1.582-2.512,2.036a14.529,14.529,0,0,0,3.346,5.286l-5.6,9.515Z" transform="translate(61.19 8.366)" fill="#d69487"/>
            <path id="Trazado_779921" data-name="Trazado 779921" d="M176.2,267.834c-.236-.32-4.989-4.442-2.953-6.183,1.406-1.2,1.68-.663,4.683,1.8s9.1,5.862,8.915,7.925c0,.021,0,.041-.005.063a3.162,3.162,0,0,1-5.681,1.573Z" transform="translate(49.107 8.457)" fill="#d69487"/>
            <path id="Trazado_779922" data-name="Trazado 779922" d="M173.328,266.874c-.237-.319-5.451-3.977-3.415-5.719,1.406-1.2,4.846.739,7.85,3.2s6.4,4,6.211,6.059c0,.021,0,.041-.006.063a3.161,3.161,0,0,1-5.68,1.573Z" transform="translate(55.433 8.449)" fill="#d69487"/>
            <path id="Trazado_779923" data-name="Trazado 779923" d="M174.468,273.037a2.767,2.767,0,0,0,.795,1.6,3.275,3.275,0,0,0,.613.49c.109.075.214.1.262.138a2.09,2.09,0,0,1,.211.243,6.583,6.583,0,0,1,.958,2.877,4.479,4.479,0,0,0,.421-1.661,3.812,3.812,0,0,0-.312-1.8,3.4,3.4,0,0,0-.231-.44,3.639,3.639,0,0,0-.309-.447,2.907,2.907,0,0,0-.64-.566,2.744,2.744,0,0,0-1.768-.441" transform="translate(56.423 8.846)" fill="#191919"/>
            <path id="Trazado_779924" data-name="Trazado 779924" d="M171.564,261.667a50.82,50.82,0,0,0,5.856,5.4l3.086,2.44a19.5,19.5,0,0,1,2.933,2.6,4.831,4.831,0,0,0-.826-1.876,13.489,13.489,0,0,0-1.262-1.6,26.376,26.376,0,0,0-2.935-2.76,34.047,34.047,0,0,0-3.267-2.329,22.236,22.236,0,0,0-3.585-1.872" transform="translate(53.754 8.478)" fill="#191919"/>
            <path id="Trazado_779925" data-name="Trazado 779925" d="M170.554,259.068a7.624,7.624,0,0,0,.412,2.918,10.459,10.459,0,0,0,1.293,2.659,9.613,9.613,0,0,0,2,2.209,7.446,7.446,0,0,0,2.615,1.436c-.582-.828-1.19-1.519-1.729-2.27s-1.076-1.47-1.575-2.229c-1.029-1.5-1.931-3.064-3.014-4.723" transform="translate(61.395 8.394)" fill="#191919"/>
            <path id="Trazado_779926" data-name="Trazado 779926" d="M149.265,315.992c-.459,1.626-.708,3.1-1.175,4.472a11.718,11.718,0,0,1-.855,1.942,10.319,10.319,0,0,1-1.474,1.766,3.776,3.776,0,0,0,2.411-.989,5.393,5.393,0,0,0,1.408-2.236,6.593,6.593,0,0,0,.318-2.527,5.728,5.728,0,0,0-.634-2.428" transform="translate(114.271 10.238)" fill="#191919"/>
            <path id="Trazado_779927" data-name="Trazado 779927" d="M130.838,254.889s-.885-5.612-4.158-2.621-.973,7.462-.973,7.462Z" transform="translate(155.148 8.145)" fill="#d69487"/>
            <path id="Trazado_779928" data-name="Trazado 779928" d="M135.666,305.96s-26.854-3.139-34.8-6c-12.5-4.5-.169-6.67-.169-6.67Z" transform="translate(181.346 9.502)" fill="#d69487"/>
            <g id="Grupo_1046720" data-name="Grupo 1046720" transform="translate(271.206 284.237)" opacity="0.14" style="mix-blend-mode: multiply;isolation: isolate">
              <g id="Grupo_1046719" data-name="Grupo 1046719">
                <g id="Grupo_1046718" data-name="Grupo 1046718" clip-path="url(#clip-path-7)">
                  <path id="Trazado_779929" data-name="Trazado 779929" d="M61.125,282.125A37.2,37.2,0,0,1,60,275.318c22.121,31.644,67.951,26.7,82.689,24.149A38.113,38.113,0,0,1,129.756,309.8a30,30,0,0,1-15.883,2.906c-8.813-2.959-21.71-7.337-31.384-10.828a38.991,38.991,0,0,1-16.238-10.93,22.34,22.34,0,0,1-5.125-8.824" transform="translate(-60.003 -275.317)" fill="#504587"/>
                </g>
              </g>
            </g>
            <path id="Trazado_779930" data-name="Trazado 779930" d="M128.285,305.214c-4.709-1.327-9.345-2.63-13.906-4.178-2.293-.738-4.536-1.6-6.782-2.469s-4.431-1.882-6.683-2.857a34.766,34.766,0,0,0,6.173,3.955,49.848,49.848,0,0,0,6.786,2.836,57.854,57.854,0,0,0,7.11,1.879,41.494,41.494,0,0,0,7.3.834" transform="translate(182.814 9.581)" fill="#191919"/>
            <g id="Grupo_1046723" data-name="Grupo 1046723" transform="translate(187.719 315.668)" opacity="0.14" style="mix-blend-mode: multiply;isolation: isolate">
              <g id="Grupo_1046722" data-name="Grupo 1046722">
                <g id="Grupo_1046721" data-name="Grupo 1046721" clip-path="url(#clip-path-8)">
                  <path id="Trazado_779931" data-name="Trazado 779931" d="M202.653,340.238c15.206-20.342,4.73-34.349,4.73-34.349l.439-.127,15.347,5.763s8.215,13.8-8.946,41.552S131.664,431.5,97.61,412.358a70.019,70.019,0,0,1-14.958-10.909c63.42,26.731,104.952-41.078,120-61.211" transform="translate(-82.652 -305.762)" fill="#504587"/>
                </g>
              </g>
            </g>
            <path id="Trazado_779932" data-name="Trazado 779932" d="M124.541,362.509s-13.512,20.458-19.711,27.674c-12.249,14.256-23.118-23.968-20.8-27.626,1.932-3.047,13.781-3.992,27.128-14.133a50.794,50.794,0,0,1,15.047-7.983c5.776,3.89,4.216,12.586-1.665,22.068" transform="translate(199.26 11.03)" fill="#f5b9a2"/>
            <path id="Trazado_779933" data-name="Trazado 779933" d="M141.055,377.764s-11.1,19.791-11.559,28.435-12.342,9.56-22.862,14.031c-7.5,3.187-9.73-.724-3.056-7.234,5.47-5.333,13.361-7.622,13.361-7.622l-1.029-26.865Z" transform="translate(171.409 12.239)" fill="#f5b9a2"/>
            <path id="Trazado_779934" data-name="Trazado 779934" d="M123.96,397.586c-.883.421-16.384,2.416-14.012,8.477,1.637,4.186,11.316,3.888,20.658,1.971s18.447-1.387,20.44-6.049l.061-.142c2.769-6.463-4.035-12.88-10.433-9.821Z" transform="translate(150.165 12.676)" fill="#f5b9a2"/>
            <path id="Trazado_779935" data-name="Trazado 779935" d="M115.137,408.653a22.238,22.238,0,0,0,4.015-.092,35.176,35.176,0,0,0,3.934-.63,29.379,29.379,0,0,0,3.836-1.121,13.712,13.712,0,0,0,3.578-1.849l-3.909.686c-1.289.231-2.566.506-3.849.774a49.013,49.013,0,0,0-7.6,2.232" transform="translate(165.721 13.12)" fill="#191919"/>
            <path id="Trazado_779936" data-name="Trazado 779936" d="M129.553,391.782c-.883.422-15.926,3.942-13.555,10,1.638,4.186,2.856,3.328,12.2,1.412s26.45-2.355,28.443-7.016l.062-.142c2.769-6.462-4.035-12.88-10.433-9.821Z" transform="translate(138.25 12.488)" fill="#f5b9a2"/>
            <path id="Trazado_779937" data-name="Trazado 779937" d="M115.412,389.651a43.323,43.323,0,0,1,6.037-1.583,35.481,35.481,0,0,0,6.159-1.662,11.65,11.65,0,0,0,2.851-1.7,16.15,16.15,0,0,0,2.286-2.278,26.175,26.175,0,0,0,3.43-5.288,48,48,0,0,1-4.137,4.643,12.634,12.634,0,0,1-4.98,3.242c-1.883.684-3.935,1.094-5.957,1.748a16.05,16.05,0,0,0-5.688,2.878" transform="translate(159.758 12.219)" fill="#191919"/>
            <path id="Trazado_779938" data-name="Trazado 779938" d="M154.621,358.826a32.613,32.613,0,0,1-15.092.41c-7.817-1.8-12.83-3.265-14.5-3.791-7.088-2.225-1.681,10.163,8.362,12.7s18.582,9.917,18.582,9.917Z" transform="translate(134.628 11.507)" fill="#f5b9a2"/>
            <path id="Trazado_779939" data-name="Trazado 779939" d="M112.785,404.817a143.094,143.094,0,0,0,19.653-4.092c3.221-.919,6.424-1.91,9.557-3.124,1.568-.6,3.116-1.257,4.624-2.009a15.676,15.676,0,0,0,4.167-2.814,18.685,18.685,0,0,1-4.475,2.119c-1.553.574-3.138,1.069-4.721,1.564q-4.764,1.453-9.578,2.775l-9.622,2.707q-4.816,1.349-9.6,2.874" transform="translate(147.896 12.726)" fill="#191919"/>
            <path id="Trazado_779940" data-name="Trazado 779940" d="M261.456,268.308l4.374-10.892c1.481-3.611,2.957-7.222,4.556-10.773.775-1.786,1.6-3.549,2.448-5.3.827-1.761,1.733-3.481,2.655-5.191.942-1.7,1.909-3.386,3.01-4.988a25.717,25.717,0,0,1,3.726-4.5c-3.279,2.266-5.7,5.564-7.794,8.885a84.389,84.389,0,0,0-5.48,10.474q-2.379,5.4-4.264,10.981a112.573,112.573,0,0,0-3.229,11.306" transform="translate(-139.065 7.344)" fill="#191919"/>
            <path id="Trazado_779941" data-name="Trazado 779941" d="M354.921,61.958c-13.577,10.617-29.2,18.727-45.979,22.589-4.184,1.023-8.419,1.838-12.669,2.564-4.258.694-8.538,1.263-12.833,1.78s-8.608.973-12.92,1.539c-4.308.591-8.62,1.274-12.892,2.208A89.086,89.086,0,0,0,245.039,96.4a79.631,79.631,0,0,0-11.656,6,99.418,99.418,0,0,0-10.65,7.528,120.159,120.159,0,0,0-9.683,8.681,129.032,129.032,0,0,0-28.208,42.922,136.646,136.646,0,0,1,29.2-41.933,117.637,117.637,0,0,1,20.287-15.682,77.739,77.739,0,0,1,11.413-5.789,86.514,86.514,0,0,1,12.309-3.569c4.2-.885,8.462-1.527,12.744-2.08l12.889-1.629c4.307-.552,8.614-1.158,12.905-1.892,4.285-.766,8.558-1.623,12.782-2.69a107.041,107.041,0,0,0,24.3-9.47,115.447,115.447,0,0,0,21.251-14.832" transform="translate(-131.617 2.007)" fill="#7a493f"/>
            <path id="Trazado_779942" data-name="Trazado 779942" d="M169.619,160.8a23.382,23.382,0,0,0-4.525,2.466,32.879,32.879,0,0,0-4.011,3.228,27.871,27.871,0,0,0-3.388,3.883,17.878,17.878,0,0,0-2.386,4.546c1.129-1.3,2.2-2.573,3.339-3.787,1.159-1.2,2.3-2.4,3.524-3.528,2.406-2.306,4.928-4.48,7.447-6.809" transform="translate(84.578 5.21)" fill="#191919"/>
            <g id="Grupo_1046726" data-name="Grupo 1046726" transform="translate(291.467 87.961)" opacity="0.14" style="mix-blend-mode: multiply;isolation: isolate">
              <g id="Grupo_1046725" data-name="Grupo 1046725">
                <g id="Grupo_1046724" data-name="Grupo 1046724" clip-path="url(#clip-path-9)">
                  <path id="Trazado_779943" data-name="Trazado 779943" d="M95.909,90.711a129.728,129.728,0,0,0,24.867-5.51l-17.67,11.211a17.2,17.2,0,0,0-7.2-5.7" transform="translate(-95.909 -85.201)" fill="#504587"/>
                </g>
              </g>
            </g>
            <g id="Grupo_1046729" data-name="Grupo 1046729" transform="translate(118.523 23.506)" opacity="0.14" style="mix-blend-mode: multiply;isolation: isolate">
              <g id="Grupo_1046728" data-name="Grupo 1046728">
                <g id="Grupo_1046727" data-name="Grupo 1046727" clip-path="url(#clip-path-10)">
                  <path id="Trazado_779944" data-name="Trazado 779944" d="M198.178,129.593c26.361-16.353,62.514-25.273,47.45-28.246-5.925-1.17-31.948-14.995-36.673-19.611a72.21,72.21,0,0,0,11.065-6.4c30.177-20.948,38.959-42.31,61.309-52.563-10.92,17.576-22.619,42.1-14.612,57.023,4.9,9.135,14.72,12.636,25.263,13.384-.131.065-.266.116-.4.184a17.1,17.1,0,0,0-8.84,11.849c-11.006,1.123-35.793,7.689-58.2,42.226-42.931,66.156-4.519-18.583-88.687-17.1-1.39.025-2.091-.389-2.174-1.16,17.6-1.992,49.335,9.824,64.5.417" transform="translate(-133.679 -22.768)" fill="#504587"/>
                </g>
              </g>
            </g>
            <path id="Trazado_779945" data-name="Trazado 779945" d="M153.747,24.989c-.082-.478-28.889-2.715-41.9,13.677-2.306,2.906-4.834,7.567-4.08,11.348,3.7-2.9,6.727-7.449,10.977-10.451a34.925,34.925,0,0,1,7.312-4.261c23.395-9.128-7.566,22.862,3.048,21.88,8.034-.742,12.548,1.469,17.149,1.889,6.45.588,6.571-2.12,3.689-6.1-1.968-2.717-10.594-6.942-10.55-8.355.081-2.592,9.333-2.644,10.4-6.633.885-3.3-4.7-6.033-3.712-9.246,1-3.263,7.706-3.514,7.667-3.747" transform="translate(150.328 0.798)" fill="#945c4c"/>
            <path id="Trazado_781261" data-name="Trazado 781261" d="M174.2,73.469A15.285,15.285,0,0,0,176.495,76a10.777,10.777,0,0,0,2.35,1.585,10.973,10.973,0,0,0,2.692.889,15.607,15.607,0,0,0,3.4.272,5.01,5.01,0,0,1-3.32,2.171,6.509,6.509,0,0,1-7.105-3.5,5.033,5.033,0,0,1-.311-3.952" transform="translate(140.945 72.311)" fill="#191919"/>
            <path id="Trazado_781262" data-name="Trazado 781262" d="M182.6,76.716a1.877,1.877,0,0,0,.117,1.882,3.256,3.256,0,0,0,2.12,1.576,4.415,4.415,0,0,1-3.354.4,5.426,5.426,0,0,1-3.348-2.515Z" transform="translate(143.277 74.11)" fill="#191919"/>
          </g>
        </g>
      </g>
    </g>
    <path id="Trazado_781260" data-name="Trazado 781260" d="M13.539,171.08q-.249,2.606-.469,5.254H133.344c.786,0,1.428-1.182,1.428-2.627h0c0-1.446-.642-2.627-1.428-2.627Z" transform="translate(322.285 5703.704)" fill="#efd5ce" fill-rule="evenodd"/>
  </g>
</svg>
