<svg xmlns="http://www.w3.org/2000/svg" width="110" height="110" viewBox="0 0 110 110">
  <g id="Grupo_1046783" data-name="Grupo 1046783" transform="translate(-210 -755)">
    <g id="Grupo_988120" data-name="Grupo 988120" transform="translate(-118 -128)">
      <circle id="Elipse_4711" data-name="Elipse 4711" cx="55" cy="55" r="55" transform="translate(328 883)" fill="#3449bc"/>
    </g>
    <g id="madre" transform="translate(192.688 747.141)">
      <path id="Trazado_780122" data-name="Trazado 780122" d="M63.236,38.217s8.959-6.026,16.824-7.643,12.27-.651,14.635,6.35,5.916,4.379,9.849,5.881,10.529,11.356,2.664,25.394S93.634,87.606,82.6,91.518,52.348,96.8,46.132,90.356,29.951,64.3,36.04,58.933s2.918-9.419,2.41-12.53,3.933-7.551,8.119-7.678Z" transform="translate(-0.898 -3.811)" fill="#8bdcf2"/>
      <path id="Trazado_780123" data-name="Trazado 780123" d="M76.638,122c-.185.157-3.19,2.69-3.735,4.97-.567,2.359-1.191,4.633-1.191,4.633a7.521,7.521,0,0,1-2.039-.382c-.674-.309-1.207-.646-1.589-.584s.174-3.74.174-3.74-.82-1.039-3.347-1.342a9.218,9.218,0,0,0-3.712.1l.337,4.7s-.208.1-.505.23a3.8,3.8,0,0,1-1.786.421.3.3,0,0,1-.107-.034.133.133,0,0,1-.051-.034.481.481,0,0,1-.1-.2.817.817,0,0,1-.051-.14,11.834,11.834,0,0,1-.314-2.263,19.858,19.858,0,0,1,.826-6.032,12.488,12.488,0,0,1,.691-1.09c0-.006.006-.011.011-.017,1.359-1.7,4.15-4.133,4.482-4.667.393-.635,2.381-.781,2.612-.393.028.045.045.017.051-.079a.893.893,0,0,1,.18.3c.275.68,3.336,5.313,4.807,5.706s1.9.629,2.729.416C75.784,122.267,76.548,122.037,76.638,122Z" transform="translate(-13.579 -48.371)" fill="#fff"/>
      <path id="Trazado_780124" data-name="Trazado 780124" d="M58.5,149.2s-3.906,7.441,2.328,13.076,10.8.344,10.8.344a42.556,42.556,0,0,1,3.6-3.475c.269.013-.148-5.7-2.381-6.267s-11.074-2.443-10.65-4.488S58.5,149.2,58.5,149.2Z" transform="translate(-12.888 -64.812)" fill="#5180b3"/>
      <path id="Trazado_780125" data-name="Trazado 780125" d="M62.715,75.368a7.882,7.882,0,0,0,6,4.217c4.277.476,3.516-5.818,3.516-5.818s-7.453-2.174-9.007-4.552S62.715,75.368,62.715,75.368Z" transform="translate(-15.521 -23.961)" fill="#1b224f"/>
      <path id="Trazado_780126" data-name="Trazado 780126" d="M125.093,106.175a33.734,33.734,0,0,0-2.583-5.627c-.9-1.578-1.652-2.662-1.823-2.9-1.386-2.784-.621-14.483-1.622-15.192l-.16-.113-1.665-.6-.038,0c-.011.006-.017.006-.022,0a8.466,8.466,0,0,1-4.006-1.527,3.109,3.109,0,0,1-1.322-2.119c-1.772-12.135,4.233-12.882,4.233-12.882l-.073-.017-.432-.118h-.006l-1.08-.146h-.007c-.783.226-2.778,1.076-3.984,4.189-1.473,3.8-1.084,9.57-1.057,9.939a.018.018,0,0,1-.018.019A34.227,34.227,0,0,0,99.1,80.719c-.9.327-2.369.711-2.68,1.618-.427,1.246-.524,3.343-1.015,4.283a7.551,7.551,0,0,0-.887,4.246,3.928,3.928,0,0,1-.2,1.337,3.71,3.71,0,0,1-2.061,2.185A11.609,11.609,0,0,0,87.9,97.97c-1.338,1.717-2.178,5.165-2.695,8.4a10.152,10.152,0,0,0,8.076,11.6c11.6,2.28,30.561,1.415,32.32-3.375C126.536,112.044,126.053,108.989,125.093,106.175Z" transform="translate(-27.281 -21.957)" fill="#eb65a2"/>
      <path id="Trazado_780127" data-name="Trazado 780127" d="M87.954,81.382a8.283,8.283,0,0,0-.685-.7c-1.4-1.241-8.121-2.477-10.659-.635a8.118,8.118,0,0,0-3.05,10.322,5.458,5.458,0,0,0,.736,1.219c.449-1.668,1.46-1.55,3.33-2.567a12.9,12.9,0,0,0,3.173-2.5l1.134,1.455c1.073,1.556,3.589.893,3.589.893a2.742,2.742,0,0,0,3.021.792c.927.663,1.2,2.78,1.2,2.78s1.168-.466,1.331-3.606v-.006C91.206,86.15,89.358,83.016,87.954,81.382Z" transform="translate(-20.919 -29.304)" fill="#bf9280"/>
      <path id="Trazado_780128" data-name="Trazado 780128" d="M104.5,53.491c-.742.106-2.844-.323-4.839,4.077C98.138,61.5,98.6,67.526,98.6,67.526c-8.945.313-12.006,2.41-12.006,2.41v-.01c.125-2.545-1.547-5.509-2.921-7.2l-.251.1a2.4,2.4,0,0,1-1.017-.1c-.159.251-.7.347-.7.347-.251-.569-2.029-.251-2.029-.251-.7,1.9-1.774.887-1.774.887-2.034.7-4.126-1.335-4.126-1.335H71.75c-5.9-1.774-6.217-3.615-6.217-3.615a10.679,10.679,0,0,0-1.388-5.952l0,0a14.571,14.571,0,0,0,6.434-1.35,7.074,7.074,0,0,0,1.219-.79,25.383,25.383,0,0,0,4.988-6.029.06.06,0,0,1,.01-.014.2.2,0,0,0,.01-.024,3.032,3.032,0,0,1,2.559-1.966,3.618,3.618,0,0,1,1.046.116c2.728.7,2.983,5.2,2.983,5.2a.015.015,0,0,0,0,.01A28.507,28.507,0,0,1,86.807,54l0,0c.019.043.043.087.058.13.034.072.067.149.1.222a.069.069,0,0,1,.01.029c.954,2.164,1.663,4.261,1.484,5.205-.039.183-.077.361-.125.535-.01.029-.014.058-.024.087,0,0,.019.043.053.116.289,2.019.424,3.658.424,3.658,1.942-.68,4.506-4.092,6.743-7.312,3.171-4.569,7.581-3.364,7.581-3.364v0Z" transform="translate(-16.438 -10.409)" fill="#f0ad89"/>
      <path id="Trazado_780129" data-name="Trazado 780129" d="M91.606,36.172c-2.1-2.482-5.07-3.4-8.174-3.928-2.232-.381-5.205-.728-7.287-1.668-1.268-.569-6.661-3.364-10.213-3.745a13.405,13.405,0,0,0-11.606,5.162,9.2,9.2,0,0,0-1.653,7.591c-1.942,3.822-2.95,7.3-.631,11.269a14.437,14.437,0,0,0,8.56,6.425c-1.393-.381-3.3-3.615-2.029-6.724,1.239-3.032-1.263-5.813-1.388-5.952l0,0a10.435,10.435,0,0,0,6.434-1.35,9.226,9.226,0,0,0,1.219-.79,21.132,21.132,0,0,0,4.988-6.029.06.06,0,0,1,.01-.014.2.2,0,0,0,.01-.024A3.731,3.731,0,0,1,72.4,34.423a2.524,2.524,0,0,1,1.046.116c2.318.733,2.983,5.2,2.983,5.2a.015.015,0,0,0,0,.01c.12.188,2.063,3.277,3.412,6.039l0,0c.019.043.043.087.058.13.039.072.067.145.1.222a.068.068,0,0,1,.01.029,26.85,26.85,0,0,1,1.359,5.74l.029.2c.289,2.019.424,3.658.424,3.658,1.942-.68,4.506-4.092,6.743-7.312,3.171-4.569,7.581-3.364,7.581-3.364v0A20.48,20.48,0,0,0,91.606,36.172Z" transform="translate(-9.476 -2.195)" fill="#3a3780"/>
      <path id="Trazado_780130" data-name="Trazado 780130" d="M91.317,100.507a17.463,17.463,0,0,0-1.354,2.836c-.5,1.629-.028,3.263-.489,4.167a5.683,5.683,0,0,1-3.74,3.156,4.671,4.671,0,0,1-4.263.539c-2.522-.859-5.757-6.852-5.757-6.852s.073-5.24.09-4.948v.017c0,.045.006.079.006.1v.022c.449-1.668,1.46-1.55,3.33-2.567a12.9,12.9,0,0,0,3.173-2.5l1.134,1.455c1.073,1.556,3.589.893,3.589.893a2.742,2.742,0,0,0,3.021.792C90.986,98.277,91.317,100.507,91.317,100.507Z" transform="translate(-22.434 -37.264)" fill="#ffccb6"/>
      <path id="Trazado_780131" data-name="Trazado 780131" d="M63.974,135.747s.1,7.992,1,9.99,10.561,2.236,12.939,1a4.057,4.057,0,0,0,2.9-.571s1.02.365,1.3-.333c0,0,.613,1.1,1.543.846s-.381-2.347-.951-2.833a1.762,1.762,0,0,0-1.374-.317s2.283-.254,2.474,0,.613,1.966,1.142,1.924.888-.423.444-1.882-1.649-1.755-2.875-1.67-3.531.507-3.531.507-.8-.613-3.446-.655-3.5-.6-3.763-.74c-.913-.485-.91-.275-.91-.275a22.48,22.48,0,0,1,.17-3.742C71.263,136.4,67.066,134.965,63.974,135.747Z" transform="translate(-16.352 -58.526)" fill="#ffccb6"/>
      <path id="Trazado_780132" data-name="Trazado 780132" d="M158.392,92.34a22.841,22.841,0,0,1-7.8,9.7c-2.859,2-4.7,3.274-6.341,4.459-1.163.848-2.224,1.651-3.488,2.645a21.84,21.84,0,0,1-9.9,4.122c-2.791.382-8.435.887-8.626.382a3.044,3.044,0,0,1,.3-2.7c.7-1.46,3.76-1.3,5.282-2.253q.169-.106.317-.218a1.144,1.144,0,0,0-.941-2.019q-.16.032-.335.07a1.128,1.128,0,0,0-.518.274c-.1.094-.238.213-.4.335-1.143.877-2.589-.775-1.5-1.722a2.077,2.077,0,0,1,.2-.157c1.017-.685,3.488-1.763,4.7-1.511s6.211,1.011,7.481.567a21.35,21.35,0,0,0,4.841-3.448,22.1,22.1,0,0,0,3.594-3.971c1.633-2.447,2.294-3.762,2.862-4.543a1.138,1.138,0,0,0-.141-1.5c-2.014-1.882-7.164-6.6-9.706-8.046a1.192,1.192,0,0,0-.113-.056,13.616,13.616,0,0,0-1.8-.693c-.011.006-.017.006-.022,0a8.469,8.469,0,0,1-4.01-1.529,3.084,3.084,0,0,1-1.316-2.1c-1.539-10.5,2.739-12.486,3.931-12.832a1.1,1.1,0,0,1,.643.009c.77.246,2.9,1.271,7.075,5.544,4.707,4.808,8.405,10.727,13.564,15.079C157.757,87.526,159.279,90.28,158.392,92.34Z" transform="translate(-46.44 -22.284)" fill="#f0ad89"/>
      <path id="Trazado_780133" data-name="Trazado 780133" d="M58.535,105.463s-8.756,6.47-11.1,10.906-1.966,6.195-1.393,9.57.887,4.223.573,5.987-.573,3.982.635,5.5,2.342,2.662,3.106,2.348-.505-1.775-1.207-2.92a4.3,4.3,0,0,1-.314-2.791,10.17,10.17,0,0,0,3.241,1.842c1.516.382,2.786.505,3.038-.253s-3.066-1.41-3.869-2.179a6.266,6.266,0,0,1-1.365-2.409,2.74,2.74,0,0,0,1.808,1.286c1.269.129,2.92,1.589,3.426,1.4s1.46-.505.826-1.331a11.2,11.2,0,0,0-2.982-2.353,2.174,2.174,0,0,1-.764-.651.968.968,0,0,1,.484-1.534,6.576,6.576,0,0,1,3.68-.388,1.724,1.724,0,0,0,2.182-.656,4.007,4.007,0,0,0-3.74-1.741c-.18.017-.348.039-.505.062-1.129.168-1.556.449-1.786.421a.3.3,0,0,1-.107-.034.523.523,0,0,1-.152-.23.817.817,0,0,1-.051-.14l-.124-.371a7.33,7.33,0,0,1-.191-1.893,19.858,19.858,0,0,1,.826-6.032q.059-.135.118-.253a5.333,5.333,0,0,1,.573-.837c0-.006.006-.011.011-.017,1.359-1.7,4.15-4.133,4.482-4.667.393-.635,2.381-.781,2.611-.393.028.045.045.017.051-.079C60.608,109.962,60.1,106.019,58.535,105.463Z" transform="translate(-6.837 -42.956)" fill="#f0ad89"/>
      <path id="Trazado_780134" data-name="Trazado 780134" d="M102.862,123.747s7.944-1.713,14.462,1.95a16.59,16.59,0,0,0-8.473-2.993C103.665,122.325,102.862,123.747,102.862,123.747Z" transform="translate(-36.497 -51.855)" fill="#da4d87"/>
      <path id="Trazado_780135" data-name="Trazado 780135" d="M90.2,122.676a10.988,10.988,0,0,1,1.252-.523c.476-.143.692.523.692.523s.4-.5.571-.3.359.747.571.79-.846.886-1.8.739A1.838,1.838,0,0,1,90.2,122.676Z" transform="translate(-29.936 -51.591)" fill="#eb65a2"/>
      <path id="Trazado_780136" data-name="Trazado 780136" d="M94.2,116.515s.444,1.015,0,1.247a1.53,1.53,0,0,1-1.353-.19c-.127-.148-.94.317-1.168-.233a.677.677,0,0,1,.132-.825s-.3.977.479.837.884.336,1.5.164C94.5,117.318,94.2,116.515,94.2,116.515Z" transform="translate(-30.667 -48.681)" fill="#bf9280"/>
      <g id="Grupo_1046788" data-name="Grupo 1046788" transform="translate(51.252 61.034)">
        <g id="Grupo_1046786" data-name="Grupo 1046786">
          <path id="Trazado_780137" data-name="Trazado 780137" d="M74.3,104.057a3.329,3.329,0,0,1,0,.341,9.49,9.49,0,0,0,.016,1.419c.032.371.223.863.028,1.206a.811.811,0,0,1-.632.419c-.551.044-.7-.4-.9-.81a1.6,1.6,0,0,0-.362-.409,2.9,2.9,0,0,1-.9-2.532,1.37,1.37,0,0,1,1.584-1.265A1.515,1.515,0,0,1,74.3,104.057Z" transform="translate(-71.505 -102.406)" fill="#ffe3d9"/>
        </g>
        <g id="Grupo_1046787" data-name="Grupo 1046787" transform="translate(0.407 0.543)">
          <path id="Trazado_780138" data-name="Trazado 780138" d="M74.462,106.723c-.008-.019-.032-.024-.053-.03a.4.4,0,0,1-.252-.321,2.155,2.155,0,0,1,.194-1.078,1.724,1.724,0,0,0-.024-1.064,1.01,1.01,0,0,0-1.353-.611,1.152,1.152,0,0,0-.623,1.159,2.038,2.038,0,0,0,.13.632c.194.518.719.86.9,1.377a.574.574,0,0,0,1.084-.025A.065.065,0,0,0,74.462,106.723Z" transform="translate(-72.35 -103.533)" fill="#ffccb6"/>
        </g>
        <path id="Trazado_780139" data-name="Trazado 780139" d="M75.908,108.449c-.008-.019-.032-.024-.053-.03a.4.4,0,0,1-.252-.321,2.155,2.155,0,0,1,.194-1.078c.013-.048.02-.1.03-.147-.039.048-.086.09-.123.139-.147.208-.221.459-.363.671a.853.853,0,0,0-.177.76c.028.131.644.389.742.045A.064.064,0,0,0,75.908,108.449Z" transform="translate(-73.388 -104.721)" fill="#f0ad89"/>
      </g>
      <g id="Grupo_1046791" data-name="Grupo 1046791" transform="translate(61.568 31.617)">
        <g id="Grupo_1046789" data-name="Grupo 1046789">
          <path id="Trazado_780140" data-name="Trazado 780140" d="M94.083,45.027c.687.488,1.525.872,2.069,1.285.369.28.824.818,1.3.835a1.079,1.079,0,0,0,.889-1.726c-.055-.067-.12-.123-.176-.188a2.283,2.283,0,0,1-.313-.925c-.4-1.383-1.5-2.93-3.091-2.936a1.9,1.9,0,0,0-1.817,1.482A2.115,2.115,0,0,0,94.083,45.027Z" transform="translate(-92.909 -41.372)" fill="#f0ad89"/>
        </g>
        <g id="Grupo_1046790" data-name="Grupo 1046790" transform="translate(0.686 0.679)">
          <path id="Trazado_780141" data-name="Trazado 780141" d="M97.4,46.9c-.016-.023,0-.054,0-.081a.542.542,0,0,0-.189-.514,2.893,2.893,0,0,0-1.37-.537,2.315,2.315,0,0,1-1.2-.776,1.356,1.356,0,0,1,.253-1.977,1.547,1.547,0,0,1,1.764.1,2.736,2.736,0,0,1,.631.593c.456.587.478,1.427.945,1.994a.771.771,0,0,1-.791,1.222A.086.086,0,0,1,97.4,46.9Z" transform="translate(-94.332 -42.78)" fill="#ffccb6"/>
        </g>
        <path id="Trazado_780142" data-name="Trazado 780142" d="M98.811,49.978c-.016-.023,0-.054,0-.081a.542.542,0,0,0-.189-.514,2.893,2.893,0,0,0-1.37-.537c-.064-.019-.126-.045-.19-.069.082-.011.163-.035.246-.042.342-.022.68.07,1.022.057a1.145,1.145,0,0,1,.993.332c.13.124-.008,1.009-.47.88A.088.088,0,0,1,98.811,49.978Z" transform="translate(-95.062 -45.185)" fill="#bf9280"/>
      </g>
      <path id="Trazado_780143" data-name="Trazado 780143" d="M128.108,144.9s3.825-6.566,5.131-7.268c2.957-1.588,3.889,1.021,3.889,1.021s1-6.618,3.264-6.956a1.464,1.464,0,0,1,1.329.539c0-.093,0-.182-.005-.266-.154-2.625,1.873-6.155,4.285-5.242s.906,4.02,2.1,4.158,3.246-8.091,6.159-4.4-2.115,8.262-1.576,9.435,3.5.425,2.916,2.713-5.738,3.775-5.634,4.171,2.5.621,1.85,2.945-8.1,1.513-8.379,2.606,6.833,2.3,2.054,5.669-19.708-6.333-19.708-6.333A15.673,15.673,0,0,1,128.108,144.9Z" transform="translate(-48.37 -53.354)" fill="#5180b3"/>
      <path id="Trazado_780144" data-name="Trazado 780144" d="M154.685,144.639a43.3,43.3,0,0,0,5.645-8.715,63.549,63.549,0,0,1-6.274,8.7,8.633,8.633,0,0,0-.231-5.551,8.417,8.417,0,0,1,.132,3.106,22.776,22.776,0,0,1-.549,3.067.218.218,0,0,0-.006.09,23.218,23.218,0,0,1-4.064,3.483,11.493,11.493,0,0,0,.929-1.669,6.891,6.891,0,0,0,.655-2.969,9.163,9.163,0,0,1-1,2.8,15.286,15.286,0,0,1-1.651,2.452.22.22,0,0,0-.027.043,11.362,11.362,0,0,1-3.5,1.252c.091-.1.18-.194.267-.3a6.469,6.469,0,0,0,1.284-2.643c-.155.287-.3.575-.469.846a7.537,7.537,0,0,1-1.866,2.155.235.235,0,0,0-.023.042,8.968,8.968,0,0,1-2.287-.1,7.831,7.831,0,0,0,2.272.31.239.239,0,0,0,.067.1,28.112,28.112,0,0,1,3.88,4.494,12.98,12.98,0,0,0-3.3-4.624c.082-.006.164-.006.246-.015a11.824,11.824,0,0,0,3.572-1.155.223.223,0,0,0,.141,0c2.1-.38,4.262.341,6.319.8a13.108,13.108,0,0,0-5.393-1.391,21.3,21.3,0,0,0,4.56-3.847,7.982,7.982,0,0,1,4.448-.392A7.272,7.272,0,0,0,154.685,144.639Z" transform="translate(-56.587 -58.736)" fill="#3a3780"/>
      <path id="Trazado_780145" data-name="Trazado 780145" d="M117.24,165.723s3.719,9.226,12.718,9.736c9.418.533,11.917-2.479,11.917-2.479a88.648,88.648,0,0,1-7.683-6.481C131.313,163.619,123.36,160.165,117.24,165.723Z" transform="translate(-43.945 -72.639)" fill="#3a3780"/>
      <path id="Trazado_780146" data-name="Trazado 780146" d="M138.923,174.3a37.266,37.266,0,0,0-5.81-4.12,6.5,6.5,0,0,0,2.5-.668,8.757,8.757,0,0,0,.993-.574c-.36.129-.71.271-1.072.376a6.924,6.924,0,0,1-3.237.364.205.205,0,0,0-.1,0,29.69,29.69,0,0,0-4.284-1.863c.161-.022.322-.041.482-.07a8.27,8.27,0,0,0,4.452-2.118,7.916,7.916,0,0,1-1.408.827,12.669,12.669,0,0,1-4.595,1.016,23.9,23.9,0,0,0-3.641-.769,12.662,12.662,0,0,0,1.985-.563,10.909,10.909,0,0,0,1.54-.733,7.13,7.13,0,0,0,1.333-1.048,8.767,8.767,0,0,1-1.434.86,11.651,11.651,0,0,1-1.549.6c-.532.155-1.068.3-1.612.4a15.249,15.249,0,0,1-1.635.241.222.222,0,0,0-.16.091,20.349,20.349,0,0,0-3.13.042,25.473,25.473,0,0,1,2.773.137c.112.012.223.03.335.043a.228.228,0,0,0,.087.106,5.531,5.531,0,0,1,1.307,1.151,14.933,14.933,0,0,1,1.1,1.419q.523.738.988,1.521c.325.513.624,1.041.928,1.571-.208-.574-.469-1.127-.729-1.68s-.571-1.082-.89-1.607a11.956,11.956,0,0,0-1.073-1.507,7.619,7.619,0,0,0-.859-.861,28.142,28.142,0,0,1,4.027.938.2.2,0,0,0,.074.071c1.994,1.377,3.152,3.7,4.4,5.728a15.6,15.6,0,0,0-3.316-5.417,36.712,36.712,0,0,1,4.532,1.958c1.548,1.018,2.468,2.843,3.26,4.485a9.959,9.959,0,0,0-1.724-3.664A54.805,54.805,0,0,1,138.923,174.3Z" transform="translate(-44.618 -73.464)" fill="#79cbe8"/>
      <path id="Trazado_780147" data-name="Trazado 780147" d="M97.659,167.4s-8.538-3.7-14.048,2.428c-5.967,6.632-4.008,11.65-4.008,11.65s10.124,1.457,14.5-3.962C97.658,173.117,97.915,170.629,97.659,167.4Z" transform="translate(-24.289 -74.468)" fill="#3a3780"/>
      <path id="Trazado_780148" data-name="Trazado 780148" d="M98.024,168.667a21.376,21.376,0,0,0-3.156.925.233.233,0,0,0-.189-.042,15.562,15.562,0,0,1-5.2.231,9.212,9.212,0,0,1-1.706-.42,8.311,8.311,0,0,0,3.436.9,13.3,13.3,0,0,0,2.168-.048,25.11,25.11,0,0,0-3.419,1.9,13.309,13.309,0,0,1-4.928.4,8.313,8.313,0,0,1-1.67-.4,8.689,8.689,0,0,0,5.126.751c.17-.02.338-.051.506-.078a31.2,31.2,0,0,0-3.727,3.195.216.216,0,0,0-.1.032,7.275,7.275,0,0,1-3.364.634c-.4.006-.791-.028-1.193-.046a9.21,9.21,0,0,0,1.175.27,6.825,6.825,0,0,0,2.712-.1,39.157,39.157,0,0,0-4.562,5.933,57.707,57.707,0,0,1,4.156-4.924,10.464,10.464,0,0,0-.6,4.212c.288-1.894.648-4.01,1.888-5.511a38.586,38.586,0,0,1,3.936-3.359,16.432,16.432,0,0,0-1.646,6.457c.629-2.42,1.074-5.114,2.651-7.113a.206.206,0,0,0,.052-.094,29.548,29.548,0,0,1,3.79-2.2c-1.307,1.98-1.627,4.477-1.855,6.793a20.769,20.769,0,0,1,2.586-7.126c.13-.058.257-.121.387-.177A26.623,26.623,0,0,1,98.024,168.667Z" transform="translate(-24.62 -75.697)" fill="#79cbe8"/>
      <path id="Trazado_780149" data-name="Trazado 780149" d="M112.391,167.282s-6.461,4.75-4.3,11.512c2.344,7.324,6.93,8.045,6.93,8.045s5.483-6.9,3.352-12.517C116.647,169.768,114.907,168.5,112.391,167.282Z" transform="translate(-38.978 -74.98)" fill="#5180b3"/>
      <path id="Trazado_780150" data-name="Trazado 780150" d="M116.969,179.714c-1.528-1.52-3.34-3.021-4.143-5.064a.165.165,0,0,0-.047-.065,25.47,25.47,0,0,1,.007-3.81,12.758,12.758,0,0,0,4.249,4.349,17.9,17.9,0,0,1-4.181-5.021c.013-.122.022-.243.037-.365a23.083,23.083,0,0,1,.451-2.474,18.424,18.424,0,0,0-.683,2.751.2.2,0,0,0-.113.123,13.413,13.413,0,0,1-2.088,3.972,7.941,7.941,0,0,1-1.054,1.087,7.163,7.163,0,0,0,2.164-2.166,11.466,11.466,0,0,0,.907-1.635,21.642,21.642,0,0,0-.073,3.363,11.474,11.474,0,0,1-1.843,3.848,7.169,7.169,0,0,1-1.02,1.071,7.489,7.489,0,0,0,2.786-3.489c.059-.136.109-.274.162-.411a26.889,26.889,0,0,0,.759,4.163.186.186,0,0,0-.019.087,6.271,6.271,0,0,1-.989,2.779c-.167.3-.365.577-.553.868a7.942,7.942,0,0,0,.711-.757,5.882,5.882,0,0,0,1.1-2.062,33.751,33.751,0,0,0,2.434,5.973,49.739,49.739,0,0,1-1.86-5.233,9.019,9.019,0,0,0,2.875,2.276,9.652,9.652,0,0,1-3.282-3.8,33.251,33.251,0,0,1-.791-4.4A14.131,14.131,0,0,0,116.969,179.714Z" transform="translate(-39.886 -74.971)" fill="#3a3780"/>
      <g id="Grupo_1046792" data-name="Grupo 1046792" transform="translate(46.481 88.677)">
        <path id="Trazado_780151" data-name="Trazado 780151" d="M94.135,164.684a14.585,14.585,0,0,0-11.341,1.487c4.105-1.592,8.89-2.288,13.038-.5l.448.176.423.228c.281.154.567.3.857.451A10.64,10.64,0,0,0,94.135,164.684Z" transform="translate(-72.582 -162.017)" fill="#3a3780"/>
        <path id="Trazado_780152" data-name="Trazado 780152" d="M76.146,168.621c-.015.353.025.693,0,1.035a7.277,7.277,0,0,1-3.062,5.861,2.321,2.321,0,1,0,.021.039,5.492,5.492,0,0,0,3.285-5.916A10.267,10.267,0,0,0,76.146,168.621Z" transform="translate(-65.888 -164.35)" fill="#3a3780"/>
        <path id="Trazado_780153" data-name="Trazado 780153" d="M63.356,163.262a1.751,1.751,0,0,0,1.751-1.749c.116-.018.233-.038.35-.047a7.29,7.29,0,0,1,6.339,2.391,5.482,5.482,0,0,0-6.387-2.632c-.108.035-.213.076-.319.115a1.747,1.747,0,1,0-1.734,1.921Z" transform="translate(-61.605 -159.76)" fill="#3a3780"/>
        <path id="Trazado_780154" data-name="Trazado 780154" d="M65.327,169.271a1.733,1.733,0,0,0-.1-.552c2.111-.753,4.334-1.478,6.564-.843-2.02-1.289-4.71-.566-6.6.714a1.752,1.752,0,1,0,.137.681Z" transform="translate(-61.719 -163.613)" fill="#3a3780"/>
        <path id="Trazado_780155" data-name="Trazado 780155" d="M68.129,173.478a1.733,1.733,0,0,0-.184-.766c2.166-.636,4.408-1.955,5.3-4.1a20.83,20.83,0,0,1-5.341,4.026,1.738,1.738,0,1,0,.223.84Z" transform="translate(-63.171 -164.346)" fill="#3a3780"/>
      </g>
      <g id="Grupo_1046793" data-name="Grupo 1046793" transform="translate(61.151 74.982)">
        <path id="Trazado_780156" data-name="Trazado 780156" d="M103.646,144.038a1.107,1.107,0,0,1-.552,1.685c-1.27.491-1.46-1.175-1.46-1.175A2.977,2.977,0,0,0,103.646,144.038Z" transform="translate(-97.012 -137.921)" fill="#3a3780"/>
        <path id="Trazado_780157" data-name="Trazado 780157" d="M97.132,138.184a1.207,1.207,0,0,1-.731-.056c-1.275-.517-5.4-2.352-4.112-4.012,1.516-1.955,3.828.788,3.828.788s-1.469-2.643.369-3.441,2.066,2.78,2.066,2.78.5-2.232,2.045-1.432-.923,4.778-2.378,5.118Z" transform="translate(-92.043 -131.347)" fill="#fff"/>
        <path id="Trazado_780158" data-name="Trazado 780158" d="M104.189,145.925a23.774,23.774,0,0,0,4.439,11.172,15.273,15.273,0,0,1-4.439-11.172Z" transform="translate(-98.33 -138.899)" fill="#3a3780"/>
      </g>
      <path id="Trazado_780159" data-name="Trazado 780159" d="M116.845,133.576c-.5.1-1.416.751-2.009,2.538,0,.005,0,.009.009.013a8.708,8.708,0,0,0-1.209,1.6c-.065.115-.124.231-.185.348a2.67,2.67,0,0,0-.522-1.951.64.64,0,0,0-1.1.058c-.16.474-.044,1.555,1.138,2.908a16.935,16.935,0,0,0-.983,3.256,3.91,3.91,0,0,0-1.624-2.855.92.92,0,0,0-1.479.555c-.014.728.619,2.183,2.887,3.54v0l-.016.026c0,.007,0,.015.009.022-.146,1.007-.237,2.023-.3,3.033a5.138,5.138,0,0,0-2.394-3.355,1.217,1.217,0,0,0-1.891.887c.058.961,1.045,2.813,4.178,4.363l-.02.04c-.007.014,0,.028.021.041-.043.646-.105,1.292-.211,1.935.194-.1.388-.207.585-.306.082-.51.136-1.021.177-1.531a5.348,5.348,0,0,0,4.734-2.534,1.217,1.217,0,0,0-.887-1.891c-.841.051-2.367.814-3.774,3.107.045-1.217.119-2.447.268-3.664a4.034,4.034,0,0,0,3.647-1.633.92.92,0,0,0-.555-1.479c-.619-.012-1.766.447-2.93,1.981a18.748,18.748,0,0,1,.842-3.293,2.809,2.809,0,0,0,2.791-.3.64.64,0,0,0-.058-1.1,3,3,0,0,0-2.5.8c.122-.3.25-.59.392-.878a8.252,8.252,0,0,1,1.126-1.7,2.812,2.812,0,0,0,2.434-1.654A.64.64,0,0,0,116.845,133.576Z" transform="translate(-38.733 -57.515)" fill="#3a3780"/>
      <path id="Trazado_780160" data-name="Trazado 780160" d="M84.845,71.315a3.1,3.1,0,0,1,.2-4.34c.17-.15.346-.291.525-.424a3.939,3.939,0,0,0-.727,4.764Z" transform="translate(-26.754 -22.799)" fill="#282e68"/>
      <g id="Grupo_1046794" data-name="Grupo 1046794" transform="translate(59.091 44.679)">
        <path id="Trazado_780161" data-name="Trazado 780161" d="M87.769,72.33a6.106,6.106,0,0,0,1.009-3.856,3.437,3.437,0,0,1-1.009,3.856Z" transform="translate(-87.769 -68.474)" fill="#282e68"/>
        <path id="Trazado_780162" data-name="Trazado 780162" d="M90.676,68.6c-.31.118-.448.41-.607.682a.1.1,0,0,1-.182-.081c.09-.325.424-.7.789-.6Z" transform="translate(-88.863 -68.532)" fill="#282e68"/>
        <path id="Trazado_780163" data-name="Trazado 780163" d="M90.729,69.858c-.323.076-.5.346-.693.594a.1.1,0,0,1-.169-.1c.132-.31.514-.641.862-.489Z" transform="translate(-88.85 -69.171)" fill="#282e68"/>
        <path id="Trazado_780164" data-name="Trazado 780164" d="M90.722,71.109a1.334,1.334,0,0,0-.806.43.1.1,0,0,1-.142-.139c.2-.274.641-.514.948-.29Z" transform="translate(-88.797 -69.793)" fill="#282e68"/>
        <path id="Trazado_780165" data-name="Trazado 780165" d="M90.527,72.277a1.359,1.359,0,0,0-.841.444.1.1,0,0,1-.143-.139c.206-.284.663-.534.984-.305Z" transform="translate(-88.677 -70.398)" fill="#282e68"/>
      </g>
      <path id="Trazado_780166" data-name="Trazado 780166" d="M83,79.874a7.446,7.446,0,0,0-1.708,2.362c-.133-1.055.83-1.946,1.708-2.362Z" transform="translate(-25.314 -29.701)" fill="#282e68"/>
      <g id="Grupo_1046795" data-name="Grupo 1046795" transform="translate(57.589 50.408)">
        <path id="Trazado_780167" data-name="Trazado 780167" d="M85.856,80.36a2.174,2.174,0,0,1-1.2,2.456,5.227,5.227,0,0,0,1.2-2.456Z" transform="translate(-84.652 -80.36)" fill="#282e68"/>
        <path id="Trazado_780168" data-name="Trazado 780168" d="M85.33,85.347c-.261-.087-.286-.469-.17-.676a.1.1,0,0,1,.19.059,1.256,1.256,0,0,0-.02.617Z" transform="translate(-84.881 -82.566)" fill="#282e68"/>
        <path id="Trazado_780169" data-name="Trazado 780169" d="M85.912,84.763c-.27-.051-.346-.427-.259-.648a.1.1,0,0,1,.2.033,1.255,1.255,0,0,0,.063.614Z" transform="translate(-85.153 -82.273)" fill="#282e68"/>
        <path id="Trazado_780170" data-name="Trazado 780170" d="M86.435,84.183c-.275.009-.431-.342-.394-.576a.1.1,0,0,1,.2-.01,1.256,1.256,0,0,0,.195.586Z" transform="translate(-85.369 -81.998)" fill="#282e68"/>
        <path id="Trazado_780171" data-name="Trazado 780171" d="M86.865,83.479c-.284,0-.442-.357-.406-.6a.1.1,0,0,1,.2-.01,1.247,1.247,0,0,0,.207.609Z" transform="translate(-85.586 -81.621)" fill="#282e68"/>
      </g>
      <path id="Trazado_780172" data-name="Trazado 780172" d="M101.639,76.475a4.369,4.369,0,0,1-.856,2.871,1.584,1.584,0,0,0-.238,1.267s.444.206.7-.349a.665.665,0,0,0,.79.1C102.781,79.953,101.639,76.475,101.639,76.475Z" transform="translate(-35.274 -27.939)" fill="#eb65a2"/>
      <path id="Trazado_780173" data-name="Trazado 780173" d="M88.908,81.936a3.691,3.691,0,0,1,1.826,2.141l-.171.052A5.112,5.112,0,0,0,88.908,81.936Z" transform="translate(-29.268 -30.769)" fill="#bf9280"/>
      <path id="Trazado_780174" data-name="Trazado 780174" d="M96.275,82.915a1.939,1.939,0,0,0,.111-1.506s-.238-.032-.206.19S96.4,81.71,96.275,82.915Z" transform="translate(-33.034 -30.494)" fill="#bf9280"/>
      <path id="Trazado_780175" data-name="Trazado 780175" d="M87.675,106.23a2.6,2.6,0,0,0,1.686.122c.963-.244.517-.71.037-.784a3.491,3.491,0,0,0-1.57.216A.322.322,0,0,0,87.675,106.23Z" transform="translate(-28.61 -43.002)" fill="#bf9280"/>
      <path id="Trazado_780176" data-name="Trazado 780176" d="M103.145,108.485a1.994,1.994,0,0,1-1.25-.346c-.634-.424-.191-.647.175-.576a2.679,2.679,0,0,1,1.079.56A.247.247,0,0,1,103.145,108.485Z" transform="translate(-35.83 -44.037)" fill="#bf9280"/>
      <path id="Trazado_780177" data-name="Trazado 780177" d="M86.74,110.187c.246-1.128,2.176-1.635,2.679-.453a1.931,1.931,0,0,1,.03,1.1,2.65,2.65,0,0,0-.205-1.019c-.565-.933-2.05-.471-2.5.374Z" transform="translate(-28.145 -44.818)" fill="#282e68"/>
      <circle id="Elipse_5720" data-name="Elipse 5720" cx="0.798" cy="0.798" r="0.798" transform="translate(59.432 64.322)" fill="#282e68"/>
      <path id="Trazado_780178" data-name="Trazado 780178" d="M98.334,112.409c.34-1.026,2.192-1.3,2.532-.14a1.78,1.78,0,0,1-.094,1.02,2.5,2.5,0,0,0-.089-.962c-.428-.913-1.836-.642-2.349.082Z" transform="translate(-34.151 -46.09)" fill="#282e68"/>
      <circle id="Elipse_5721" data-name="Elipse 5721" cx="0.743" cy="0.743" r="0.743" transform="translate(64.978 65.519)" fill="#282e68"/>
      <path id="Trazado_780179" data-name="Trazado 780179" d="M167.034,37.849a1.36,1.36,0,0,0-.488,1.115c-.034,1.214.939,3.958,2.288,3.6,1.82-.485,5.022-2.089,4.219-3.149-.608-.8-2.421-.2-3.262.14a.239.239,0,0,1-.333-.184,3.558,3.558,0,0,0-.593-1.272A1.5,1.5,0,0,0,167.034,37.849Z" transform="translate(-69.486 -7.819)" fill="#da4d87"/>
      <path id="Trazado_780180" data-name="Trazado 780180" d="M35.4,75.346a.3.3,0,0,1-.317.269c-.682-.047-2.252-.268-2.593-1.306-.439-1.335,1.121-.9,1.121-.9a1.493,1.493,0,0,1,1.237-1.747C36.2,71.284,35.492,74.34,35.4,75.346Z" transform="translate(0 -25.428)" fill="#da4d87"/>
      <path id="Trazado_780181" data-name="Trazado 780181" d="M101.963,24.169l2.28,2.459s4.321-2.58,2.913-3.736-2.543.908-2.543.908-1.43-1.587-2.556-.778A.773.773,0,0,0,101.963,24.169Z" transform="translate(-35.922)" fill="#da4d87"/>
      <path id="Trazado_780182" data-name="Trazado 780182" d="M104.875,81.723a1.781,1.781,0,0,1,1.3.444,1.185,1.185,0,0,0,1.571-.281,5.432,5.432,0,0,0,1.293-2.78s-.627,2.4-2.056,2.8c-.792.222-1.521-.718-2.2-.432-.386.163-.641.254-.641.254A3.52,3.52,0,0,0,104.875,81.723Z" transform="translate(-37.162 -29.302)" fill="#ffccb6"/>
      <path id="Trazado_780183" data-name="Trazado 780183" d="M100.516,155.09a1.726,1.726,0,0,0-1.01-1.7,2.223,2.223,0,0,1,.846,1.988Z" transform="translate(-34.758 -67.783)" fill="#f0ad89"/>
      <path id="Trazado_780184" data-name="Trazado 780184" d="M98.379,156.436s.143-.933-.507-1.1a1.4,1.4,0,0,1,.26,1.263Z" transform="translate(-33.912 -68.791)" fill="#f0ad89"/>
      <path id="Trazado_780185" data-name="Trazado 780185" d="M101.448,79.666q.037-.281.069-.563a17.9,17.9,0,0,0,.143-1.962c-.005-.038-.016-.075-.023-.113a4.744,4.744,0,0,1-.87,2.556,1.584,1.584,0,0,0-.238,1.267c.023.075.259.037.313.022a.618.618,0,0,0,.381-.362A3.286,3.286,0,0,0,101.448,79.666Z" transform="translate(-35.266 -28.226)" fill="#da4d87"/>
    </g>
  </g>
</svg>
