<svg id="Grupo_1046984" data-name="Grupo 1046984" xmlns="http://www.w3.org/2000/svg" xmlns:xlink="http://www.w3.org/1999/xlink" width="87.379" height="75" viewBox="0 0 87.379 75">
  <defs>
    <clipPath id="clip-path">
      <path id="path7695" d="M0-682.665H54.587v54.587H0Z" transform="translate(0 682.665)"/>
    </clipPath>
  </defs>
  <g id="Grupo_1046985" data-name="Grupo 1046985">
    <path id="Trazado_781016" data-name="Trazado 781016" d="M24.5,0A24.254,24.254,0,0,1,49,24,24.254,24.254,0,0,1,24.5,48,24.254,24.254,0,0,1,0,24,24.254,24.254,0,0,1,24.5,0Z" transform="translate(38.379 27)" fill="#a9c8fd"/>
    <path id="Trazado_781015" data-name="Trazado 781015" d="M17.5,0A17.255,17.255,0,0,1,35,17,17.255,17.255,0,0,1,17.5,34,17.255,17.255,0,0,1,0,17,17.255,17.255,0,0,1,17.5,0Z" transform="translate(1.379)" fill="#fabf40"/>
    <g id="Grupo_1044222" data-name="Grupo 1044222" transform="translate(0 0.416)">
      <g id="Grupo_78276" data-name="Grupo 78276" transform="translate(49.121 43.244)">
        <g id="Grupo_53306" data-name="Grupo 53306">
          <path id="Trazado_99200" data-name="Trazado 99200" d="M414.914,50.559a.351.351,0,1,1-.35-.335A.343.343,0,0,1,414.914,50.559Z" transform="translate(-414.214 -50.224)" fill="#fff"/>
          <path id="Trazado_99201" data-name="Trazado 99201" d="M423.36,50.559a.351.351,0,1,1-.35-.335A.343.343,0,0,1,423.36,50.559Z" transform="translate(-419.508 -50.224)" fill="#fff"/>
          <path id="Trazado_99202" data-name="Trazado 99202" d="M431.806,50.559a.351.351,0,1,1-.35-.335A.343.343,0,0,1,431.806,50.559Z" transform="translate(-424.803 -50.224)" fill="#fff"/>
          <path id="Trazado_99203" data-name="Trazado 99203" d="M440.253,50.559a.351.351,0,1,1-.35-.335A.343.343,0,0,1,440.253,50.559Z" transform="translate(-430.098 -50.224)" fill="#fff"/>
          <path id="Trazado_99204" data-name="Trazado 99204" d="M448.7,50.559a.351.351,0,1,1-.35-.335A.343.343,0,0,1,448.7,50.559Z" transform="translate(-435.392 -50.224)" fill="#fff"/>
          <path id="Trazado_99205" data-name="Trazado 99205" d="M457.145,50.559a.351.351,0,1,1-.35-.335A.343.343,0,0,1,457.145,50.559Z" transform="translate(-440.686 -50.224)" fill="#fff"/>
          <path id="Trazado_99206" data-name="Trazado 99206" d="M465.592,50.559a.351.351,0,1,1-.35-.335A.343.343,0,0,1,465.592,50.559Z" transform="translate(-445.981 -50.224)" fill="#fff"/>
          <path id="Trazado_99207" data-name="Trazado 99207" d="M474.038,50.559a.351.351,0,1,1-.35-.335A.343.343,0,0,1,474.038,50.559Z" transform="translate(-451.276 -50.224)" fill="#fff"/>
          <path id="Trazado_99208" data-name="Trazado 99208" d="M482.484,50.559a.351.351,0,1,1-.35-.335A.343.343,0,0,1,482.484,50.559Z" transform="translate(-456.57 -50.224)" fill="#fff"/>
          <path id="Trazado_99209" data-name="Trazado 99209" d="M490.931,50.559a.351.351,0,1,1-.35-.335A.343.343,0,0,1,490.931,50.559Z" transform="translate(-461.865 -50.224)" fill="#fff"/>
          <path id="Trazado_99210" data-name="Trazado 99210" d="M499.378,50.559a.351.351,0,1,1-.35-.335A.343.343,0,0,1,499.378,50.559Z" transform="translate(-467.16 -50.224)" fill="#fff"/>
        </g>
        <g id="Grupo_53307" data-name="Grupo 53307" transform="translate(0 2.679)">
          <path id="Trazado_99211" data-name="Trazado 99211" d="M414.914,58.067a.351.351,0,1,1-.35-.335A.343.343,0,0,1,414.914,58.067Z" transform="translate(-414.214 -57.732)" fill="#fff"/>
          <path id="Trazado_99212" data-name="Trazado 99212" d="M423.36,58.067a.351.351,0,1,1-.35-.335A.343.343,0,0,1,423.36,58.067Z" transform="translate(-419.508 -57.732)" fill="#fff"/>
          <path id="Trazado_99213" data-name="Trazado 99213" d="M431.806,58.067a.351.351,0,1,1-.35-.335A.343.343,0,0,1,431.806,58.067Z" transform="translate(-424.803 -57.732)" fill="#fff"/>
          <path id="Trazado_99214" data-name="Trazado 99214" d="M440.253,58.067a.351.351,0,1,1-.35-.335A.343.343,0,0,1,440.253,58.067Z" transform="translate(-430.098 -57.732)" fill="#fff"/>
          <path id="Trazado_99215" data-name="Trazado 99215" d="M448.7,58.067a.351.351,0,1,1-.35-.335A.343.343,0,0,1,448.7,58.067Z" transform="translate(-435.392 -57.732)" fill="#fff"/>
          <path id="Trazado_99216" data-name="Trazado 99216" d="M457.145,58.067a.351.351,0,1,1-.35-.335A.343.343,0,0,1,457.145,58.067Z" transform="translate(-440.686 -57.732)" fill="#fff"/>
          <path id="Trazado_99217" data-name="Trazado 99217" d="M465.592,58.067a.351.351,0,1,1-.35-.335A.343.343,0,0,1,465.592,58.067Z" transform="translate(-445.981 -57.732)" fill="#fff"/>
          <path id="Trazado_99218" data-name="Trazado 99218" d="M474.038,58.067a.351.351,0,1,1-.35-.335A.343.343,0,0,1,474.038,58.067Z" transform="translate(-451.276 -57.732)" fill="#fff"/>
          <path id="Trazado_99219" data-name="Trazado 99219" d="M482.484,58.067a.351.351,0,1,1-.35-.335A.343.343,0,0,1,482.484,58.067Z" transform="translate(-456.57 -57.732)" fill="#fff"/>
          <path id="Trazado_99220" data-name="Trazado 99220" d="M490.931,58.067a.351.351,0,1,1-.35-.335A.343.343,0,0,1,490.931,58.067Z" transform="translate(-461.865 -57.732)" fill="#fff"/>
          <path id="Trazado_99221" data-name="Trazado 99221" d="M499.378,58.067a.351.351,0,1,1-.35-.335A.343.343,0,0,1,499.378,58.067Z" transform="translate(-467.16 -57.732)" fill="#fff"/>
        </g>
        <g id="Grupo_53308" data-name="Grupo 53308" transform="translate(0 5.358)">
          <ellipse id="Elipse_3955" data-name="Elipse 3955" cx="0.35" cy="0.335" rx="0.35" ry="0.335" fill="#fff"/>
          <path id="Trazado_99222" data-name="Trazado 99222" d="M423.36,65.575a.351.351,0,1,1-.35-.335A.343.343,0,0,1,423.36,65.575Z" transform="translate(-419.508 -65.24)" fill="#fff"/>
          <ellipse id="Elipse_3956" data-name="Elipse 3956" cx="0.35" cy="0.335" rx="0.35" ry="0.335" transform="translate(6.303)" fill="#fff"/>
          <path id="Trazado_99223" data-name="Trazado 99223" d="M440.253,65.575a.351.351,0,1,1-.35-.335A.343.343,0,0,1,440.253,65.575Z" transform="translate(-430.098 -65.24)" fill="#fff"/>
          <path id="Trazado_99224" data-name="Trazado 99224" d="M448.7,65.575a.351.351,0,1,1-.35-.335A.343.343,0,0,1,448.7,65.575Z" transform="translate(-435.392 -65.24)" fill="#fff"/>
          <ellipse id="Elipse_3957" data-name="Elipse 3957" cx="0.35" cy="0.335" rx="0.35" ry="0.335" transform="translate(15.759)" fill="#fff"/>
          <path id="Trazado_99225" data-name="Trazado 99225" d="M465.592,65.575a.351.351,0,1,1-.35-.335A.343.343,0,0,1,465.592,65.575Z" transform="translate(-445.981 -65.24)" fill="#fff"/>
          <ellipse id="Elipse_3958" data-name="Elipse 3958" cx="0.35" cy="0.335" rx="0.35" ry="0.335" transform="translate(22.062)" fill="#fff"/>
          <ellipse id="Elipse_3959" data-name="Elipse 3959" cx="0.35" cy="0.335" rx="0.35" ry="0.335" transform="translate(25.214)" fill="#fff"/>
          <path id="Trazado_99226" data-name="Trazado 99226" d="M490.931,65.575a.351.351,0,1,1-.35-.335A.343.343,0,0,1,490.931,65.575Z" transform="translate(-461.865 -65.24)" fill="#fff"/>
          <path id="Trazado_99227" data-name="Trazado 99227" d="M499.378,65.575a.351.351,0,1,1-.35-.335A.343.343,0,0,1,499.378,65.575Z" transform="translate(-467.16 -65.24)" fill="#fff"/>
        </g>
        <g id="Grupo_53309" data-name="Grupo 53309" transform="translate(0 8.037)">
          <ellipse id="Elipse_3960" data-name="Elipse 3960" cx="0.35" cy="0.335" rx="0.35" ry="0.335" transform="translate(0 0)" fill="#fff"/>
          <path id="Trazado_99228" data-name="Trazado 99228" d="M423.36,73.082a.351.351,0,1,1-.35-.335A.343.343,0,0,1,423.36,73.082Z" transform="translate(-419.508 -72.747)" fill="#fff"/>
          <ellipse id="Elipse_3961" data-name="Elipse 3961" cx="0.35" cy="0.335" rx="0.35" ry="0.335" transform="translate(6.303 0)" fill="#fff"/>
          <path id="Trazado_99229" data-name="Trazado 99229" d="M440.253,73.082a.351.351,0,1,1-.35-.335A.343.343,0,0,1,440.253,73.082Z" transform="translate(-430.098 -72.747)" fill="#fff"/>
          <path id="Trazado_99230" data-name="Trazado 99230" d="M448.7,73.082a.351.351,0,1,1-.35-.335A.343.343,0,0,1,448.7,73.082Z" transform="translate(-435.392 -72.747)" fill="#fff"/>
          <ellipse id="Elipse_3962" data-name="Elipse 3962" cx="0.35" cy="0.335" rx="0.35" ry="0.335" transform="translate(15.759 0)" fill="#fff"/>
          <path id="Trazado_99231" data-name="Trazado 99231" d="M465.592,73.082a.351.351,0,1,1-.35-.335A.343.343,0,0,1,465.592,73.082Z" transform="translate(-445.981 -72.747)" fill="#fff"/>
          <ellipse id="Elipse_3963" data-name="Elipse 3963" cx="0.35" cy="0.335" rx="0.35" ry="0.335" transform="translate(22.062 0)" fill="#fff"/>
          <ellipse id="Elipse_3964" data-name="Elipse 3964" cx="0.35" cy="0.335" rx="0.35" ry="0.335" transform="translate(25.214 0)" fill="#fff"/>
          <path id="Trazado_99232" data-name="Trazado 99232" d="M490.931,73.082a.351.351,0,1,1-.35-.335A.343.343,0,0,1,490.931,73.082Z" transform="translate(-461.865 -72.747)" fill="#fff"/>
          <path id="Trazado_99233" data-name="Trazado 99233" d="M499.378,73.082a.351.351,0,1,1-.35-.335A.343.343,0,0,1,499.378,73.082Z" transform="translate(-467.16 -72.747)" fill="#fff"/>
        </g>
        <g id="Grupo_53310" data-name="Grupo 53310" transform="translate(0 10.717)">
          <path id="Trazado_99234" data-name="Trazado 99234" d="M414.914,80.59a.351.351,0,1,1-.35-.335A.343.343,0,0,1,414.914,80.59Z" transform="translate(-414.214 -80.255)" fill="#fff"/>
          <path id="Trazado_99235" data-name="Trazado 99235" d="M423.36,80.59a.351.351,0,1,1-.35-.335A.343.343,0,0,1,423.36,80.59Z" transform="translate(-419.508 -80.255)" fill="#fff"/>
          <path id="Trazado_99236" data-name="Trazado 99236" d="M431.806,80.59a.351.351,0,1,1-.35-.335A.343.343,0,0,1,431.806,80.59Z" transform="translate(-424.803 -80.255)" fill="#fff"/>
          <path id="Trazado_99237" data-name="Trazado 99237" d="M440.253,80.59a.351.351,0,1,1-.35-.335A.343.343,0,0,1,440.253,80.59Z" transform="translate(-430.098 -80.255)" fill="#fff"/>
          <path id="Trazado_99238" data-name="Trazado 99238" d="M448.7,80.59a.351.351,0,1,1-.35-.335A.343.343,0,0,1,448.7,80.59Z" transform="translate(-435.392 -80.255)" fill="#fff"/>
          <path id="Trazado_99239" data-name="Trazado 99239" d="M457.145,80.59a.351.351,0,1,1-.35-.335A.343.343,0,0,1,457.145,80.59Z" transform="translate(-440.686 -80.255)" fill="#fff"/>
          <path id="Trazado_99240" data-name="Trazado 99240" d="M465.592,80.59a.351.351,0,1,1-.35-.335A.343.343,0,0,1,465.592,80.59Z" transform="translate(-445.981 -80.255)" fill="#fff"/>
          <path id="Trazado_99241" data-name="Trazado 99241" d="M474.038,80.59a.351.351,0,1,1-.35-.335A.343.343,0,0,1,474.038,80.59Z" transform="translate(-451.276 -80.255)" fill="#fff"/>
          <path id="Trazado_99242" data-name="Trazado 99242" d="M482.484,80.59a.351.351,0,1,1-.35-.335A.343.343,0,0,1,482.484,80.59Z" transform="translate(-456.57 -80.255)" fill="#fff"/>
          <path id="Trazado_99243" data-name="Trazado 99243" d="M490.931,80.59a.351.351,0,1,1-.35-.335A.343.343,0,0,1,490.931,80.59Z" transform="translate(-461.865 -80.255)" fill="#fff"/>
          <path id="Trazado_99244" data-name="Trazado 99244" d="M499.378,80.59a.351.351,0,1,1-.35-.335A.343.343,0,0,1,499.378,80.59Z" transform="translate(-467.16 -80.255)" fill="#fff"/>
        </g>
        <g id="Grupo_53311" data-name="Grupo 53311" transform="translate(0 13.396)">
          <ellipse id="Elipse_3965" data-name="Elipse 3965" cx="0.35" cy="0.335" rx="0.35" ry="0.335" transform="translate(0 0)" fill="#fff"/>
          <path id="Trazado_99245" data-name="Trazado 99245" d="M423.36,88.1a.351.351,0,1,1-.35-.335A.343.343,0,0,1,423.36,88.1Z" transform="translate(-419.508 -87.763)" fill="#fff"/>
          <ellipse id="Elipse_3966" data-name="Elipse 3966" cx="0.35" cy="0.335" rx="0.35" ry="0.335" transform="translate(6.303 0)" fill="#fff"/>
          <path id="Trazado_99246" data-name="Trazado 99246" d="M440.253,88.1a.351.351,0,1,1-.35-.335A.343.343,0,0,1,440.253,88.1Z" transform="translate(-430.098 -87.763)" fill="#fff"/>
          <path id="Trazado_99247" data-name="Trazado 99247" d="M448.7,88.1a.351.351,0,1,1-.35-.335A.343.343,0,0,1,448.7,88.1Z" transform="translate(-435.392 -87.763)" fill="#fff"/>
          <ellipse id="Elipse_3967" data-name="Elipse 3967" cx="0.35" cy="0.335" rx="0.35" ry="0.335" transform="translate(15.759 0)" fill="#fff"/>
          <path id="Trazado_99248" data-name="Trazado 99248" d="M465.592,88.1a.351.351,0,1,1-.35-.335A.343.343,0,0,1,465.592,88.1Z" transform="translate(-445.981 -87.763)" fill="#fff"/>
          <ellipse id="Elipse_3968" data-name="Elipse 3968" cx="0.35" cy="0.335" rx="0.35" ry="0.335" transform="translate(22.062 0)" fill="#fff"/>
          <ellipse id="Elipse_3969" data-name="Elipse 3969" cx="0.35" cy="0.335" rx="0.35" ry="0.335" transform="translate(25.214 0)" fill="#fff"/>
          <path id="Trazado_99249" data-name="Trazado 99249" d="M490.931,88.1a.351.351,0,1,1-.35-.335A.343.343,0,0,1,490.931,88.1Z" transform="translate(-461.865 -87.763)" fill="#fff"/>
          <path id="Trazado_99250" data-name="Trazado 99250" d="M499.378,88.1a.351.351,0,1,1-.35-.335A.343.343,0,0,1,499.378,88.1Z" transform="translate(-467.16 -87.763)" fill="#fff"/>
        </g>
        <g id="Grupo_53312" data-name="Grupo 53312" transform="translate(0 16.075)">
          <ellipse id="Elipse_3970" data-name="Elipse 3970" cx="0.35" cy="0.335" rx="0.35" ry="0.335" fill="#fff"/>
          <path id="Trazado_99251" data-name="Trazado 99251" d="M423.36,95.606a.351.351,0,1,1-.35-.335A.343.343,0,0,1,423.36,95.606Z" transform="translate(-419.508 -95.271)" fill="#fff"/>
          <ellipse id="Elipse_3971" data-name="Elipse 3971" cx="0.35" cy="0.335" rx="0.35" ry="0.335" transform="translate(6.303)" fill="#fff"/>
          <path id="Trazado_99252" data-name="Trazado 99252" d="M440.253,95.606a.351.351,0,1,1-.35-.335A.343.343,0,0,1,440.253,95.606Z" transform="translate(-430.098 -95.271)" fill="#fff"/>
          <path id="Trazado_99253" data-name="Trazado 99253" d="M448.7,95.606a.351.351,0,1,1-.35-.335A.343.343,0,0,1,448.7,95.606Z" transform="translate(-435.392 -95.271)" fill="#fff"/>
          <ellipse id="Elipse_3972" data-name="Elipse 3972" cx="0.35" cy="0.335" rx="0.35" ry="0.335" transform="translate(15.759)" fill="#fff"/>
          <path id="Trazado_99254" data-name="Trazado 99254" d="M465.592,95.606a.351.351,0,1,1-.35-.335A.343.343,0,0,1,465.592,95.606Z" transform="translate(-445.981 -95.271)" fill="#fff"/>
          <ellipse id="Elipse_3973" data-name="Elipse 3973" cx="0.35" cy="0.335" rx="0.35" ry="0.335" transform="translate(22.062)" fill="#fff"/>
          <ellipse id="Elipse_3974" data-name="Elipse 3974" cx="0.35" cy="0.335" rx="0.35" ry="0.335" transform="translate(25.214)" fill="#fff"/>
          <path id="Trazado_99255" data-name="Trazado 99255" d="M490.931,95.606a.351.351,0,1,1-.35-.335A.343.343,0,0,1,490.931,95.606Z" transform="translate(-461.865 -95.271)" fill="#fff"/>
          <path id="Trazado_99256" data-name="Trazado 99256" d="M499.378,95.606a.351.351,0,1,1-.35-.335A.343.343,0,0,1,499.378,95.606Z" transform="translate(-467.16 -95.271)" fill="#fff"/>
        </g>
        <g id="Grupo_53313" data-name="Grupo 53313" transform="translate(0 18.754)">
          <path id="Trazado_99257" data-name="Trazado 99257" d="M414.914,103.114a.351.351,0,1,1-.35-.335A.343.343,0,0,1,414.914,103.114Z" transform="translate(-414.214 -102.779)" fill="#fff"/>
          <path id="Trazado_99258" data-name="Trazado 99258" d="M423.36,103.114a.351.351,0,1,1-.35-.335A.343.343,0,0,1,423.36,103.114Z" transform="translate(-419.508 -102.779)" fill="#fff"/>
          <path id="Trazado_99259" data-name="Trazado 99259" d="M431.806,103.114a.351.351,0,1,1-.35-.335A.343.343,0,0,1,431.806,103.114Z" transform="translate(-424.803 -102.779)" fill="#fff"/>
          <path id="Trazado_99260" data-name="Trazado 99260" d="M440.253,103.114a.351.351,0,1,1-.35-.335A.343.343,0,0,1,440.253,103.114Z" transform="translate(-430.098 -102.779)" fill="#fff"/>
          <path id="Trazado_99261" data-name="Trazado 99261" d="M448.7,103.114a.351.351,0,1,1-.35-.335A.343.343,0,0,1,448.7,103.114Z" transform="translate(-435.392 -102.779)" fill="#fff"/>
          <path id="Trazado_99262" data-name="Trazado 99262" d="M457.145,103.114a.351.351,0,1,1-.35-.335A.343.343,0,0,1,457.145,103.114Z" transform="translate(-440.686 -102.779)" fill="#fff"/>
          <path id="Trazado_99263" data-name="Trazado 99263" d="M465.592,103.114a.351.351,0,1,1-.35-.335A.343.343,0,0,1,465.592,103.114Z" transform="translate(-445.981 -102.779)" fill="#fff"/>
          <path id="Trazado_99264" data-name="Trazado 99264" d="M474.038,103.114a.351.351,0,1,1-.35-.335A.343.343,0,0,1,474.038,103.114Z" transform="translate(-451.276 -102.779)" fill="#fff"/>
          <path id="Trazado_99265" data-name="Trazado 99265" d="M482.484,103.114a.351.351,0,1,1-.35-.335A.343.343,0,0,1,482.484,103.114Z" transform="translate(-456.57 -102.779)" fill="#fff"/>
          <path id="Trazado_99266" data-name="Trazado 99266" d="M490.931,103.114a.351.351,0,1,1-.35-.335A.343.343,0,0,1,490.931,103.114Z" transform="translate(-461.865 -102.779)" fill="#fff"/>
          <path id="Trazado_99267" data-name="Trazado 99267" d="M499.378,103.114a.351.351,0,1,1-.35-.335A.343.343,0,0,1,499.378,103.114Z" transform="translate(-467.16 -102.779)" fill="#fff"/>
        </g>
        <g id="Grupo_53314" data-name="Grupo 53314" transform="translate(0 21.434)">
          <ellipse id="Elipse_3975" data-name="Elipse 3975" cx="0.35" cy="0.335" rx="0.35" ry="0.335" fill="#fff"/>
          <path id="Trazado_99268" data-name="Trazado 99268" d="M423.36,110.622a.351.351,0,1,1-.35-.335A.343.343,0,0,1,423.36,110.622Z" transform="translate(-419.508 -110.287)" fill="#fff"/>
          <ellipse id="Elipse_3976" data-name="Elipse 3976" cx="0.35" cy="0.335" rx="0.35" ry="0.335" transform="translate(6.303)" fill="#fff"/>
          <path id="Trazado_99269" data-name="Trazado 99269" d="M440.253,110.622a.351.351,0,1,1-.35-.335A.343.343,0,0,1,440.253,110.622Z" transform="translate(-430.098 -110.287)" fill="#fff"/>
          <path id="Trazado_99270" data-name="Trazado 99270" d="M448.7,110.622a.351.351,0,1,1-.35-.335A.343.343,0,0,1,448.7,110.622Z" transform="translate(-435.392 -110.287)" fill="#fff"/>
          <ellipse id="Elipse_3977" data-name="Elipse 3977" cx="0.35" cy="0.335" rx="0.35" ry="0.335" transform="translate(15.759)" fill="#fff"/>
          <path id="Trazado_99271" data-name="Trazado 99271" d="M465.592,110.622a.351.351,0,1,1-.35-.335A.343.343,0,0,1,465.592,110.622Z" transform="translate(-445.981 -110.287)" fill="#fff"/>
          <ellipse id="Elipse_3978" data-name="Elipse 3978" cx="0.35" cy="0.335" rx="0.35" ry="0.335" transform="translate(22.062)" fill="#fff"/>
          <ellipse id="Elipse_3979" data-name="Elipse 3979" cx="0.35" cy="0.335" rx="0.35" ry="0.335" transform="translate(25.214)" fill="#fff"/>
          <path id="Trazado_99272" data-name="Trazado 99272" d="M490.931,110.622a.351.351,0,1,1-.35-.335A.343.343,0,0,1,490.931,110.622Z" transform="translate(-461.865 -110.287)" fill="#fff"/>
          <path id="Trazado_99273" data-name="Trazado 99273" d="M499.378,110.622a.351.351,0,1,1-.35-.335A.343.343,0,0,1,499.378,110.622Z" transform="translate(-467.16 -110.287)" fill="#fff"/>
        </g>
        <g id="Grupo_53315" data-name="Grupo 53315" transform="translate(0 24.112)">
          <path id="Trazado_99274" data-name="Trazado 99274" d="M414.914,118.129a.351.351,0,1,1-.35-.335A.343.343,0,0,1,414.914,118.129Z" transform="translate(-414.214 -117.794)" fill="#fff"/>
          <path id="Trazado_99275" data-name="Trazado 99275" d="M423.36,118.129a.351.351,0,1,1-.35-.335A.343.343,0,0,1,423.36,118.129Z" transform="translate(-419.508 -117.794)" fill="#fff"/>
          <path id="Trazado_99276" data-name="Trazado 99276" d="M431.806,118.129a.351.351,0,1,1-.35-.335A.343.343,0,0,1,431.806,118.129Z" transform="translate(-424.803 -117.794)" fill="#fff"/>
          <path id="Trazado_99277" data-name="Trazado 99277" d="M440.253,118.129a.351.351,0,1,1-.35-.335A.343.343,0,0,1,440.253,118.129Z" transform="translate(-430.098 -117.794)" fill="#fff"/>
          <path id="Trazado_99278" data-name="Trazado 99278" d="M448.7,118.129a.351.351,0,1,1-.35-.335A.343.343,0,0,1,448.7,118.129Z" transform="translate(-435.392 -117.794)" fill="#fff"/>
          <path id="Trazado_99279" data-name="Trazado 99279" d="M457.145,118.129a.351.351,0,1,1-.35-.335A.343.343,0,0,1,457.145,118.129Z" transform="translate(-440.686 -117.794)" fill="#fff"/>
          <path id="Trazado_99280" data-name="Trazado 99280" d="M465.592,118.129a.351.351,0,1,1-.35-.335A.343.343,0,0,1,465.592,118.129Z" transform="translate(-445.981 -117.794)" fill="#fff"/>
          <path id="Trazado_99281" data-name="Trazado 99281" d="M474.038,118.129a.351.351,0,1,1-.35-.335A.343.343,0,0,1,474.038,118.129Z" transform="translate(-451.276 -117.794)" fill="#fff"/>
          <path id="Trazado_99282" data-name="Trazado 99282" d="M482.484,118.129a.351.351,0,1,1-.35-.335A.343.343,0,0,1,482.484,118.129Z" transform="translate(-456.57 -117.794)" fill="#fff"/>
          <path id="Trazado_99283" data-name="Trazado 99283" d="M490.931,118.129a.351.351,0,1,1-.35-.335A.343.343,0,0,1,490.931,118.129Z" transform="translate(-461.865 -117.794)" fill="#fff"/>
          <path id="Trazado_99284" data-name="Trazado 99284" d="M499.378,118.129a.351.351,0,1,1-.35-.335A.343.343,0,0,1,499.378,118.129Z" transform="translate(-467.16 -117.794)" fill="#fff"/>
        </g>
        <g id="Grupo_53316" data-name="Grupo 53316" transform="translate(0 26.792)">
          <ellipse id="Elipse_3980" data-name="Elipse 3980" cx="0.35" cy="0.335" rx="0.35" ry="0.335" transform="translate(0 0)" fill="#fff"/>
          <path id="Trazado_99285" data-name="Trazado 99285" d="M423.36,125.637a.351.351,0,1,1-.35-.335A.343.343,0,0,1,423.36,125.637Z" transform="translate(-419.508 -125.302)" fill="#fff"/>
          <ellipse id="Elipse_3981" data-name="Elipse 3981" cx="0.35" cy="0.335" rx="0.35" ry="0.335" transform="translate(6.303 0)" fill="#fff"/>
          <path id="Trazado_99286" data-name="Trazado 99286" d="M440.253,125.637a.351.351,0,1,1-.35-.335A.343.343,0,0,1,440.253,125.637Z" transform="translate(-430.098 -125.302)" fill="#fff"/>
          <path id="Trazado_99287" data-name="Trazado 99287" d="M448.7,125.637a.351.351,0,1,1-.35-.335A.343.343,0,0,1,448.7,125.637Z" transform="translate(-435.392 -125.302)" fill="#fff"/>
          <ellipse id="Elipse_3982" data-name="Elipse 3982" cx="0.35" cy="0.335" rx="0.35" ry="0.335" transform="translate(15.759 0)" fill="#fff"/>
          <path id="Trazado_99288" data-name="Trazado 99288" d="M465.592,125.637a.351.351,0,1,1-.35-.335A.343.343,0,0,1,465.592,125.637Z" transform="translate(-445.981 -125.302)" fill="#fff"/>
          <ellipse id="Elipse_3983" data-name="Elipse 3983" cx="0.35" cy="0.335" rx="0.35" ry="0.335" transform="translate(22.062 0)" fill="#fff"/>
          <ellipse id="Elipse_3984" data-name="Elipse 3984" cx="0.35" cy="0.335" rx="0.35" ry="0.335" transform="translate(25.214 0)" fill="#fff"/>
          <path id="Trazado_99289" data-name="Trazado 99289" d="M490.931,125.637a.351.351,0,1,1-.35-.335A.343.343,0,0,1,490.931,125.637Z" transform="translate(-461.865 -125.302)" fill="#fff"/>
          <path id="Trazado_99290" data-name="Trazado 99290" d="M499.378,125.637a.351.351,0,1,1-.35-.335A.343.343,0,0,1,499.378,125.637Z" transform="translate(-467.16 -125.302)" fill="#fff"/>
        </g>
        <g id="Grupo_53317" data-name="Grupo 53317" transform="translate(0 29.471)">
          <ellipse id="Elipse_3985" data-name="Elipse 3985" cx="0.35" cy="0.335" rx="0.35" ry="0.335" transform="translate(0 0)" fill="#fff"/>
          <path id="Trazado_99291" data-name="Trazado 99291" d="M423.36,133.145a.351.351,0,1,1-.35-.335A.343.343,0,0,1,423.36,133.145Z" transform="translate(-419.508 -132.81)" fill="#fff"/>
          <ellipse id="Elipse_3986" data-name="Elipse 3986" cx="0.35" cy="0.335" rx="0.35" ry="0.335" transform="translate(6.303 0)" fill="#fff"/>
          <path id="Trazado_99292" data-name="Trazado 99292" d="M440.253,133.145a.351.351,0,1,1-.35-.335A.343.343,0,0,1,440.253,133.145Z" transform="translate(-430.098 -132.81)" fill="#fff"/>
          <path id="Trazado_99293" data-name="Trazado 99293" d="M448.7,133.145a.351.351,0,1,1-.35-.335A.343.343,0,0,1,448.7,133.145Z" transform="translate(-435.392 -132.81)" fill="#fff"/>
          <ellipse id="Elipse_3987" data-name="Elipse 3987" cx="0.35" cy="0.335" rx="0.35" ry="0.335" transform="translate(15.759 0)" fill="#fff"/>
          <path id="Trazado_99294" data-name="Trazado 99294" d="M465.592,133.145a.351.351,0,1,1-.35-.335A.343.343,0,0,1,465.592,133.145Z" transform="translate(-445.981 -132.81)" fill="#fff"/>
          <ellipse id="Elipse_3988" data-name="Elipse 3988" cx="0.35" cy="0.335" rx="0.35" ry="0.335" transform="translate(22.062 0)" fill="#fff"/>
          <ellipse id="Elipse_3989" data-name="Elipse 3989" cx="0.35" cy="0.335" rx="0.35" ry="0.335" transform="translate(25.214 0)" fill="#fff"/>
          <path id="Trazado_99295" data-name="Trazado 99295" d="M490.931,133.145a.351.351,0,1,1-.35-.335A.343.343,0,0,1,490.931,133.145Z" transform="translate(-461.865 -132.81)" fill="#fff"/>
          <path id="Trazado_99296" data-name="Trazado 99296" d="M499.378,133.145a.351.351,0,1,1-.35-.335A.343.343,0,0,1,499.378,133.145Z" transform="translate(-467.16 -132.81)" fill="#fff"/>
        </g>
      </g>
      <g id="Grupo_1044224" data-name="Grupo 1044224">
        <g id="Grupo_53306-2" data-name="Grupo 53306">
          <path id="Trazado_99200-2" data-name="Trazado 99200" d="M414.914,50.559a.351.351,0,1,1-.35-.335A.343.343,0,0,1,414.914,50.559Z" transform="translate(-414.214 -50.224)" fill="#fff"/>
          <path id="Trazado_99201-2" data-name="Trazado 99201" d="M423.36,50.559a.351.351,0,1,1-.35-.335A.343.343,0,0,1,423.36,50.559Z" transform="translate(-419.508 -50.224)" fill="#fff"/>
          <path id="Trazado_99202-2" data-name="Trazado 99202" d="M431.806,50.559a.351.351,0,1,1-.35-.335A.343.343,0,0,1,431.806,50.559Z" transform="translate(-424.803 -50.224)" fill="#fff"/>
          <path id="Trazado_99203-2" data-name="Trazado 99203" d="M440.253,50.559a.351.351,0,1,1-.35-.335A.343.343,0,0,1,440.253,50.559Z" transform="translate(-430.098 -50.224)" fill="#fff"/>
          <path id="Trazado_99204-2" data-name="Trazado 99204" d="M448.7,50.559a.351.351,0,1,1-.35-.335A.343.343,0,0,1,448.7,50.559Z" transform="translate(-435.392 -50.224)" fill="#fff"/>
          <path id="Trazado_99205-2" data-name="Trazado 99205" d="M457.145,50.559a.351.351,0,1,1-.35-.335A.343.343,0,0,1,457.145,50.559Z" transform="translate(-440.686 -50.224)" fill="#fff"/>
          <path id="Trazado_99206-2" data-name="Trazado 99206" d="M465.592,50.559a.351.351,0,1,1-.35-.335A.343.343,0,0,1,465.592,50.559Z" transform="translate(-445.981 -50.224)" fill="#fff"/>
          <path id="Trazado_99207-2" data-name="Trazado 99207" d="M474.038,50.559a.351.351,0,1,1-.35-.335A.343.343,0,0,1,474.038,50.559Z" transform="translate(-451.276 -50.224)" fill="#fff"/>
          <path id="Trazado_99208-2" data-name="Trazado 99208" d="M482.484,50.559a.351.351,0,1,1-.35-.335A.343.343,0,0,1,482.484,50.559Z" transform="translate(-456.57 -50.224)" fill="#fff"/>
          <path id="Trazado_99209-2" data-name="Trazado 99209" d="M490.931,50.559a.351.351,0,1,1-.35-.335A.343.343,0,0,1,490.931,50.559Z" transform="translate(-461.865 -50.224)" fill="#fff"/>
          <path id="Trazado_99210-2" data-name="Trazado 99210" d="M499.378,50.559a.351.351,0,1,1-.35-.335A.343.343,0,0,1,499.378,50.559Z" transform="translate(-467.16 -50.224)" fill="#fff"/>
        </g>
        <g id="Grupo_53307-2" data-name="Grupo 53307" transform="translate(0 2.679)">
          <path id="Trazado_99211-2" data-name="Trazado 99211" d="M414.914,58.067a.351.351,0,1,1-.35-.335A.343.343,0,0,1,414.914,58.067Z" transform="translate(-414.214 -57.732)" fill="#fff"/>
          <path id="Trazado_99212-2" data-name="Trazado 99212" d="M423.36,58.067a.351.351,0,1,1-.35-.335A.343.343,0,0,1,423.36,58.067Z" transform="translate(-419.508 -57.732)" fill="#fff"/>
          <path id="Trazado_99213-2" data-name="Trazado 99213" d="M431.806,58.067a.351.351,0,1,1-.35-.335A.343.343,0,0,1,431.806,58.067Z" transform="translate(-424.803 -57.732)" fill="#fff"/>
          <path id="Trazado_99214-2" data-name="Trazado 99214" d="M440.253,58.067a.351.351,0,1,1-.35-.335A.343.343,0,0,1,440.253,58.067Z" transform="translate(-430.098 -57.732)" fill="#fff"/>
          <path id="Trazado_99215-2" data-name="Trazado 99215" d="M448.7,58.067a.351.351,0,1,1-.35-.335A.343.343,0,0,1,448.7,58.067Z" transform="translate(-435.392 -57.732)" fill="#fff"/>
          <path id="Trazado_99216-2" data-name="Trazado 99216" d="M457.145,58.067a.351.351,0,1,1-.35-.335A.343.343,0,0,1,457.145,58.067Z" transform="translate(-440.686 -57.732)" fill="#fff"/>
          <path id="Trazado_99217-2" data-name="Trazado 99217" d="M465.592,58.067a.351.351,0,1,1-.35-.335A.343.343,0,0,1,465.592,58.067Z" transform="translate(-445.981 -57.732)" fill="#fff"/>
          <path id="Trazado_99218-2" data-name="Trazado 99218" d="M474.038,58.067a.351.351,0,1,1-.35-.335A.343.343,0,0,1,474.038,58.067Z" transform="translate(-451.276 -57.732)" fill="#fff"/>
          <path id="Trazado_99219-2" data-name="Trazado 99219" d="M482.484,58.067a.351.351,0,1,1-.35-.335A.343.343,0,0,1,482.484,58.067Z" transform="translate(-456.57 -57.732)" fill="#fff"/>
          <path id="Trazado_99220-2" data-name="Trazado 99220" d="M490.931,58.067a.351.351,0,1,1-.35-.335A.343.343,0,0,1,490.931,58.067Z" transform="translate(-461.865 -57.732)" fill="#fff"/>
          <path id="Trazado_99221-2" data-name="Trazado 99221" d="M499.378,58.067a.351.351,0,1,1-.35-.335A.343.343,0,0,1,499.378,58.067Z" transform="translate(-467.16 -57.732)" fill="#fff"/>
        </g>
        <g id="Grupo_53308-2" data-name="Grupo 53308" transform="translate(0 5.358)">
          <ellipse id="Elipse_3955-2" data-name="Elipse 3955" cx="0.35" cy="0.335" rx="0.35" ry="0.335" fill="#fff"/>
          <path id="Trazado_99222-2" data-name="Trazado 99222" d="M423.36,65.575a.351.351,0,1,1-.35-.335A.343.343,0,0,1,423.36,65.575Z" transform="translate(-419.508 -65.24)" fill="#fff"/>
          <ellipse id="Elipse_3956-2" data-name="Elipse 3956" cx="0.35" cy="0.335" rx="0.35" ry="0.335" transform="translate(6.303)" fill="#fff"/>
          <path id="Trazado_99223-2" data-name="Trazado 99223" d="M440.253,65.575a.351.351,0,1,1-.35-.335A.343.343,0,0,1,440.253,65.575Z" transform="translate(-430.098 -65.24)" fill="#fff"/>
          <path id="Trazado_99224-2" data-name="Trazado 99224" d="M448.7,65.575a.351.351,0,1,1-.35-.335A.343.343,0,0,1,448.7,65.575Z" transform="translate(-435.392 -65.24)" fill="#fff"/>
          <ellipse id="Elipse_3957-2" data-name="Elipse 3957" cx="0.35" cy="0.335" rx="0.35" ry="0.335" transform="translate(15.759)" fill="#fff"/>
          <path id="Trazado_99225-2" data-name="Trazado 99225" d="M465.592,65.575a.351.351,0,1,1-.35-.335A.343.343,0,0,1,465.592,65.575Z" transform="translate(-445.981 -65.24)" fill="#fff"/>
          <ellipse id="Elipse_3958-2" data-name="Elipse 3958" cx="0.35" cy="0.335" rx="0.35" ry="0.335" transform="translate(22.062)" fill="#fff"/>
          <ellipse id="Elipse_3959-2" data-name="Elipse 3959" cx="0.35" cy="0.335" rx="0.35" ry="0.335" transform="translate(25.214)" fill="#fff"/>
          <path id="Trazado_99226-2" data-name="Trazado 99226" d="M490.931,65.575a.351.351,0,1,1-.35-.335A.343.343,0,0,1,490.931,65.575Z" transform="translate(-461.865 -65.24)" fill="#fff"/>
          <path id="Trazado_99227-2" data-name="Trazado 99227" d="M499.378,65.575a.351.351,0,1,1-.35-.335A.343.343,0,0,1,499.378,65.575Z" transform="translate(-467.16 -65.24)" fill="#fff"/>
        </g>
        <g id="Grupo_53309-2" data-name="Grupo 53309" transform="translate(0 8.037)">
          <ellipse id="Elipse_3960-2" data-name="Elipse 3960" cx="0.35" cy="0.335" rx="0.35" ry="0.335" transform="translate(0 0)" fill="#fff"/>
          <path id="Trazado_99228-2" data-name="Trazado 99228" d="M423.36,73.082a.351.351,0,1,1-.35-.335A.343.343,0,0,1,423.36,73.082Z" transform="translate(-419.508 -72.747)" fill="#fff"/>
          <ellipse id="Elipse_3961-2" data-name="Elipse 3961" cx="0.35" cy="0.335" rx="0.35" ry="0.335" transform="translate(6.303 0)" fill="#fff"/>
          <path id="Trazado_99229-2" data-name="Trazado 99229" d="M440.253,73.082a.351.351,0,1,1-.35-.335A.343.343,0,0,1,440.253,73.082Z" transform="translate(-430.098 -72.747)" fill="#fff"/>
          <path id="Trazado_99230-2" data-name="Trazado 99230" d="M448.7,73.082a.351.351,0,1,1-.35-.335A.343.343,0,0,1,448.7,73.082Z" transform="translate(-435.392 -72.747)" fill="#fff"/>
          <ellipse id="Elipse_3962-2" data-name="Elipse 3962" cx="0.35" cy="0.335" rx="0.35" ry="0.335" transform="translate(15.759 0)" fill="#fff"/>
          <path id="Trazado_99231-2" data-name="Trazado 99231" d="M465.592,73.082a.351.351,0,1,1-.35-.335A.343.343,0,0,1,465.592,73.082Z" transform="translate(-445.981 -72.747)" fill="#fff"/>
          <ellipse id="Elipse_3963-2" data-name="Elipse 3963" cx="0.35" cy="0.335" rx="0.35" ry="0.335" transform="translate(22.062 0)" fill="#fff"/>
          <ellipse id="Elipse_3964-2" data-name="Elipse 3964" cx="0.35" cy="0.335" rx="0.35" ry="0.335" transform="translate(25.214 0)" fill="#fff"/>
          <path id="Trazado_99232-2" data-name="Trazado 99232" d="M490.931,73.082a.351.351,0,1,1-.35-.335A.343.343,0,0,1,490.931,73.082Z" transform="translate(-461.865 -72.747)" fill="#fff"/>
          <path id="Trazado_99233-2" data-name="Trazado 99233" d="M499.378,73.082a.351.351,0,1,1-.35-.335A.343.343,0,0,1,499.378,73.082Z" transform="translate(-467.16 -72.747)" fill="#fff"/>
        </g>
        <g id="Grupo_53310-2" data-name="Grupo 53310" transform="translate(0 10.717)">
          <path id="Trazado_99234-2" data-name="Trazado 99234" d="M414.914,80.59a.351.351,0,1,1-.35-.335A.343.343,0,0,1,414.914,80.59Z" transform="translate(-414.214 -80.255)" fill="#fff"/>
          <path id="Trazado_99235-2" data-name="Trazado 99235" d="M423.36,80.59a.351.351,0,1,1-.35-.335A.343.343,0,0,1,423.36,80.59Z" transform="translate(-419.508 -80.255)" fill="#fff"/>
          <path id="Trazado_99236-2" data-name="Trazado 99236" d="M431.806,80.59a.351.351,0,1,1-.35-.335A.343.343,0,0,1,431.806,80.59Z" transform="translate(-424.803 -80.255)" fill="#fff"/>
          <path id="Trazado_99237-2" data-name="Trazado 99237" d="M440.253,80.59a.351.351,0,1,1-.35-.335A.343.343,0,0,1,440.253,80.59Z" transform="translate(-430.098 -80.255)" fill="#fff"/>
          <path id="Trazado_99238-2" data-name="Trazado 99238" d="M448.7,80.59a.351.351,0,1,1-.35-.335A.343.343,0,0,1,448.7,80.59Z" transform="translate(-435.392 -80.255)" fill="#fff"/>
          <path id="Trazado_99239-2" data-name="Trazado 99239" d="M457.145,80.59a.351.351,0,1,1-.35-.335A.343.343,0,0,1,457.145,80.59Z" transform="translate(-440.686 -80.255)" fill="#fff"/>
          <path id="Trazado_99240-2" data-name="Trazado 99240" d="M465.592,80.59a.351.351,0,1,1-.35-.335A.343.343,0,0,1,465.592,80.59Z" transform="translate(-445.981 -80.255)" fill="#fff"/>
          <path id="Trazado_99241-2" data-name="Trazado 99241" d="M474.038,80.59a.351.351,0,1,1-.35-.335A.343.343,0,0,1,474.038,80.59Z" transform="translate(-451.276 -80.255)" fill="#fff"/>
          <path id="Trazado_99242-2" data-name="Trazado 99242" d="M482.484,80.59a.351.351,0,1,1-.35-.335A.343.343,0,0,1,482.484,80.59Z" transform="translate(-456.57 -80.255)" fill="#fff"/>
          <path id="Trazado_99243-2" data-name="Trazado 99243" d="M490.931,80.59a.351.351,0,1,1-.35-.335A.343.343,0,0,1,490.931,80.59Z" transform="translate(-461.865 -80.255)" fill="#fff"/>
          <path id="Trazado_99244-2" data-name="Trazado 99244" d="M499.378,80.59a.351.351,0,1,1-.35-.335A.343.343,0,0,1,499.378,80.59Z" transform="translate(-467.16 -80.255)" fill="#fff"/>
        </g>
        <g id="Grupo_53311-2" data-name="Grupo 53311" transform="translate(0 13.396)">
          <ellipse id="Elipse_3965-2" data-name="Elipse 3965" cx="0.35" cy="0.335" rx="0.35" ry="0.335" transform="translate(0 0)" fill="#fff"/>
          <path id="Trazado_99245-2" data-name="Trazado 99245" d="M423.36,88.1a.351.351,0,1,1-.35-.335A.343.343,0,0,1,423.36,88.1Z" transform="translate(-419.508 -87.763)" fill="#fff"/>
          <ellipse id="Elipse_3966-2" data-name="Elipse 3966" cx="0.35" cy="0.335" rx="0.35" ry="0.335" transform="translate(6.303 0)" fill="#fff"/>
          <path id="Trazado_99246-2" data-name="Trazado 99246" d="M440.253,88.1a.351.351,0,1,1-.35-.335A.343.343,0,0,1,440.253,88.1Z" transform="translate(-430.098 -87.763)" fill="#fff"/>
          <path id="Trazado_99247-2" data-name="Trazado 99247" d="M448.7,88.1a.351.351,0,1,1-.35-.335A.343.343,0,0,1,448.7,88.1Z" transform="translate(-435.392 -87.763)" fill="#fff"/>
          <ellipse id="Elipse_3967-2" data-name="Elipse 3967" cx="0.35" cy="0.335" rx="0.35" ry="0.335" transform="translate(15.759 0)" fill="#fff"/>
          <path id="Trazado_99248-2" data-name="Trazado 99248" d="M465.592,88.1a.351.351,0,1,1-.35-.335A.343.343,0,0,1,465.592,88.1Z" transform="translate(-445.981 -87.763)" fill="#fff"/>
          <ellipse id="Elipse_3968-2" data-name="Elipse 3968" cx="0.35" cy="0.335" rx="0.35" ry="0.335" transform="translate(22.062 0)" fill="#fff"/>
          <ellipse id="Elipse_3969-2" data-name="Elipse 3969" cx="0.35" cy="0.335" rx="0.35" ry="0.335" transform="translate(25.214 0)" fill="#fff"/>
          <path id="Trazado_99249-2" data-name="Trazado 99249" d="M490.931,88.1a.351.351,0,1,1-.35-.335A.343.343,0,0,1,490.931,88.1Z" transform="translate(-461.865 -87.763)" fill="#fff"/>
          <path id="Trazado_99250-2" data-name="Trazado 99250" d="M499.378,88.1a.351.351,0,1,1-.35-.335A.343.343,0,0,1,499.378,88.1Z" transform="translate(-467.16 -87.763)" fill="#fff"/>
        </g>
        <g id="Grupo_53312-2" data-name="Grupo 53312" transform="translate(0 16.075)">
          <ellipse id="Elipse_3970-2" data-name="Elipse 3970" cx="0.35" cy="0.335" rx="0.35" ry="0.335" fill="#fff"/>
          <path id="Trazado_99251-2" data-name="Trazado 99251" d="M423.36,95.606a.351.351,0,1,1-.35-.335A.343.343,0,0,1,423.36,95.606Z" transform="translate(-419.508 -95.271)" fill="#fff"/>
          <ellipse id="Elipse_3971-2" data-name="Elipse 3971" cx="0.35" cy="0.335" rx="0.35" ry="0.335" transform="translate(6.303)" fill="#fff"/>
          <path id="Trazado_99252-2" data-name="Trazado 99252" d="M440.253,95.606a.351.351,0,1,1-.35-.335A.343.343,0,0,1,440.253,95.606Z" transform="translate(-430.098 -95.271)" fill="#fff"/>
          <path id="Trazado_99253-2" data-name="Trazado 99253" d="M448.7,95.606a.351.351,0,1,1-.35-.335A.343.343,0,0,1,448.7,95.606Z" transform="translate(-435.392 -95.271)" fill="#fff"/>
          <ellipse id="Elipse_3972-2" data-name="Elipse 3972" cx="0.35" cy="0.335" rx="0.35" ry="0.335" transform="translate(15.759)" fill="#fff"/>
          <path id="Trazado_99254-2" data-name="Trazado 99254" d="M465.592,95.606a.351.351,0,1,1-.35-.335A.343.343,0,0,1,465.592,95.606Z" transform="translate(-445.981 -95.271)" fill="#fff"/>
          <ellipse id="Elipse_3973-2" data-name="Elipse 3973" cx="0.35" cy="0.335" rx="0.35" ry="0.335" transform="translate(22.062)" fill="#fff"/>
          <ellipse id="Elipse_3974-2" data-name="Elipse 3974" cx="0.35" cy="0.335" rx="0.35" ry="0.335" transform="translate(25.214)" fill="#fff"/>
          <path id="Trazado_99255-2" data-name="Trazado 99255" d="M490.931,95.606a.351.351,0,1,1-.35-.335A.343.343,0,0,1,490.931,95.606Z" transform="translate(-461.865 -95.271)" fill="#fff"/>
          <path id="Trazado_99256-2" data-name="Trazado 99256" d="M499.378,95.606a.351.351,0,1,1-.35-.335A.343.343,0,0,1,499.378,95.606Z" transform="translate(-467.16 -95.271)" fill="#fff"/>
        </g>
        <g id="Grupo_53313-2" data-name="Grupo 53313" transform="translate(0 18.754)">
          <path id="Trazado_99257-2" data-name="Trazado 99257" d="M414.914,103.114a.351.351,0,1,1-.35-.335A.343.343,0,0,1,414.914,103.114Z" transform="translate(-414.214 -102.779)" fill="#fff"/>
          <path id="Trazado_99258-2" data-name="Trazado 99258" d="M423.36,103.114a.351.351,0,1,1-.35-.335A.343.343,0,0,1,423.36,103.114Z" transform="translate(-419.508 -102.779)" fill="#fff"/>
          <path id="Trazado_99259-2" data-name="Trazado 99259" d="M431.806,103.114a.351.351,0,1,1-.35-.335A.343.343,0,0,1,431.806,103.114Z" transform="translate(-424.803 -102.779)" fill="#fff"/>
          <path id="Trazado_99260-2" data-name="Trazado 99260" d="M440.253,103.114a.351.351,0,1,1-.35-.335A.343.343,0,0,1,440.253,103.114Z" transform="translate(-430.098 -102.779)" fill="#fff"/>
          <path id="Trazado_99261-2" data-name="Trazado 99261" d="M448.7,103.114a.351.351,0,1,1-.35-.335A.343.343,0,0,1,448.7,103.114Z" transform="translate(-435.392 -102.779)" fill="#fff"/>
          <path id="Trazado_99262-2" data-name="Trazado 99262" d="M457.145,103.114a.351.351,0,1,1-.35-.335A.343.343,0,0,1,457.145,103.114Z" transform="translate(-440.686 -102.779)" fill="#fff"/>
          <path id="Trazado_99263-2" data-name="Trazado 99263" d="M465.592,103.114a.351.351,0,1,1-.35-.335A.343.343,0,0,1,465.592,103.114Z" transform="translate(-445.981 -102.779)" fill="#fff"/>
          <path id="Trazado_99264-2" data-name="Trazado 99264" d="M474.038,103.114a.351.351,0,1,1-.35-.335A.343.343,0,0,1,474.038,103.114Z" transform="translate(-451.276 -102.779)" fill="#fff"/>
          <path id="Trazado_99265-2" data-name="Trazado 99265" d="M482.484,103.114a.351.351,0,1,1-.35-.335A.343.343,0,0,1,482.484,103.114Z" transform="translate(-456.57 -102.779)" fill="#fff"/>
          <path id="Trazado_99266-2" data-name="Trazado 99266" d="M490.931,103.114a.351.351,0,1,1-.35-.335A.343.343,0,0,1,490.931,103.114Z" transform="translate(-461.865 -102.779)" fill="#fff"/>
          <path id="Trazado_99267-2" data-name="Trazado 99267" d="M499.378,103.114a.351.351,0,1,1-.35-.335A.343.343,0,0,1,499.378,103.114Z" transform="translate(-467.16 -102.779)" fill="#fff"/>
        </g>
        <g id="Grupo_53314-2" data-name="Grupo 53314" transform="translate(0 21.434)">
          <ellipse id="Elipse_3975-2" data-name="Elipse 3975" cx="0.35" cy="0.335" rx="0.35" ry="0.335" fill="#fff"/>
          <path id="Trazado_99268-2" data-name="Trazado 99268" d="M423.36,110.622a.351.351,0,1,1-.35-.335A.343.343,0,0,1,423.36,110.622Z" transform="translate(-419.508 -110.287)" fill="#fff"/>
          <ellipse id="Elipse_3976-2" data-name="Elipse 3976" cx="0.35" cy="0.335" rx="0.35" ry="0.335" transform="translate(6.303)" fill="#fff"/>
          <path id="Trazado_99269-2" data-name="Trazado 99269" d="M440.253,110.622a.351.351,0,1,1-.35-.335A.343.343,0,0,1,440.253,110.622Z" transform="translate(-430.098 -110.287)" fill="#fff"/>
          <path id="Trazado_99270-2" data-name="Trazado 99270" d="M448.7,110.622a.351.351,0,1,1-.35-.335A.343.343,0,0,1,448.7,110.622Z" transform="translate(-435.392 -110.287)" fill="#fff"/>
          <ellipse id="Elipse_3977-2" data-name="Elipse 3977" cx="0.35" cy="0.335" rx="0.35" ry="0.335" transform="translate(15.759)" fill="#fff"/>
          <path id="Trazado_99271-2" data-name="Trazado 99271" d="M465.592,110.622a.351.351,0,1,1-.35-.335A.343.343,0,0,1,465.592,110.622Z" transform="translate(-445.981 -110.287)" fill="#fff"/>
          <ellipse id="Elipse_3978-2" data-name="Elipse 3978" cx="0.35" cy="0.335" rx="0.35" ry="0.335" transform="translate(22.062)" fill="#fff"/>
          <ellipse id="Elipse_3979-2" data-name="Elipse 3979" cx="0.35" cy="0.335" rx="0.35" ry="0.335" transform="translate(25.214)" fill="#fff"/>
          <path id="Trazado_99272-2" data-name="Trazado 99272" d="M490.931,110.622a.351.351,0,1,1-.35-.335A.343.343,0,0,1,490.931,110.622Z" transform="translate(-461.865 -110.287)" fill="#fff"/>
          <path id="Trazado_99273-2" data-name="Trazado 99273" d="M499.378,110.622a.351.351,0,1,1-.35-.335A.343.343,0,0,1,499.378,110.622Z" transform="translate(-467.16 -110.287)" fill="#fff"/>
        </g>
        <g id="Grupo_53315-2" data-name="Grupo 53315" transform="translate(0 24.112)">
          <path id="Trazado_99274-2" data-name="Trazado 99274" d="M414.914,118.129a.351.351,0,1,1-.35-.335A.343.343,0,0,1,414.914,118.129Z" transform="translate(-414.214 -117.794)" fill="#fff"/>
          <path id="Trazado_99275-2" data-name="Trazado 99275" d="M423.36,118.129a.351.351,0,1,1-.35-.335A.343.343,0,0,1,423.36,118.129Z" transform="translate(-419.508 -117.794)" fill="#fff"/>
          <path id="Trazado_99276-2" data-name="Trazado 99276" d="M431.806,118.129a.351.351,0,1,1-.35-.335A.343.343,0,0,1,431.806,118.129Z" transform="translate(-424.803 -117.794)" fill="#fff"/>
          <path id="Trazado_99277-2" data-name="Trazado 99277" d="M440.253,118.129a.351.351,0,1,1-.35-.335A.343.343,0,0,1,440.253,118.129Z" transform="translate(-430.098 -117.794)" fill="#fff"/>
          <path id="Trazado_99278-2" data-name="Trazado 99278" d="M448.7,118.129a.351.351,0,1,1-.35-.335A.343.343,0,0,1,448.7,118.129Z" transform="translate(-435.392 -117.794)" fill="#fff"/>
          <path id="Trazado_99279-2" data-name="Trazado 99279" d="M457.145,118.129a.351.351,0,1,1-.35-.335A.343.343,0,0,1,457.145,118.129Z" transform="translate(-440.686 -117.794)" fill="#fff"/>
          <path id="Trazado_99280-2" data-name="Trazado 99280" d="M465.592,118.129a.351.351,0,1,1-.35-.335A.343.343,0,0,1,465.592,118.129Z" transform="translate(-445.981 -117.794)" fill="#fff"/>
          <path id="Trazado_99281-2" data-name="Trazado 99281" d="M474.038,118.129a.351.351,0,1,1-.35-.335A.343.343,0,0,1,474.038,118.129Z" transform="translate(-451.276 -117.794)" fill="#fff"/>
          <path id="Trazado_99282-2" data-name="Trazado 99282" d="M482.484,118.129a.351.351,0,1,1-.35-.335A.343.343,0,0,1,482.484,118.129Z" transform="translate(-456.57 -117.794)" fill="#fff"/>
          <path id="Trazado_99283-2" data-name="Trazado 99283" d="M490.931,118.129a.351.351,0,1,1-.35-.335A.343.343,0,0,1,490.931,118.129Z" transform="translate(-461.865 -117.794)" fill="#fff"/>
          <path id="Trazado_99284-2" data-name="Trazado 99284" d="M499.378,118.129a.351.351,0,1,1-.35-.335A.343.343,0,0,1,499.378,118.129Z" transform="translate(-467.16 -117.794)" fill="#fff"/>
        </g>
        <g id="Grupo_53316-2" data-name="Grupo 53316" transform="translate(0 26.792)">
          <ellipse id="Elipse_3980-2" data-name="Elipse 3980" cx="0.35" cy="0.335" rx="0.35" ry="0.335" transform="translate(0 0)" fill="#fff"/>
          <path id="Trazado_99285-2" data-name="Trazado 99285" d="M423.36,125.637a.351.351,0,1,1-.35-.335A.343.343,0,0,1,423.36,125.637Z" transform="translate(-419.508 -125.302)" fill="#fff"/>
          <ellipse id="Elipse_3981-2" data-name="Elipse 3981" cx="0.35" cy="0.335" rx="0.35" ry="0.335" transform="translate(6.303 0)" fill="#fff"/>
          <path id="Trazado_99286-2" data-name="Trazado 99286" d="M440.253,125.637a.351.351,0,1,1-.35-.335A.343.343,0,0,1,440.253,125.637Z" transform="translate(-430.098 -125.302)" fill="#fff"/>
          <path id="Trazado_99287-2" data-name="Trazado 99287" d="M448.7,125.637a.351.351,0,1,1-.35-.335A.343.343,0,0,1,448.7,125.637Z" transform="translate(-435.392 -125.302)" fill="#fff"/>
          <ellipse id="Elipse_3982-2" data-name="Elipse 3982" cx="0.35" cy="0.335" rx="0.35" ry="0.335" transform="translate(15.759 0)" fill="#fff"/>
          <path id="Trazado_99288-2" data-name="Trazado 99288" d="M465.592,125.637a.351.351,0,1,1-.35-.335A.343.343,0,0,1,465.592,125.637Z" transform="translate(-445.981 -125.302)" fill="#fff"/>
          <ellipse id="Elipse_3983-2" data-name="Elipse 3983" cx="0.35" cy="0.335" rx="0.35" ry="0.335" transform="translate(22.062 0)" fill="#fff"/>
          <ellipse id="Elipse_3984-2" data-name="Elipse 3984" cx="0.35" cy="0.335" rx="0.35" ry="0.335" transform="translate(25.214 0)" fill="#fff"/>
          <path id="Trazado_99289-2" data-name="Trazado 99289" d="M490.931,125.637a.351.351,0,1,1-.35-.335A.343.343,0,0,1,490.931,125.637Z" transform="translate(-461.865 -125.302)" fill="#fff"/>
          <path id="Trazado_99290-2" data-name="Trazado 99290" d="M499.378,125.637a.351.351,0,1,1-.35-.335A.343.343,0,0,1,499.378,125.637Z" transform="translate(-467.16 -125.302)" fill="#fff"/>
        </g>
      </g>
      <g id="Trazado_145978" data-name="Trazado 145978" transform="translate(55.758 42.141)" fill="none">
        <path d="M3.472,0A3.472,3.472,0,1,1,0,3.472,3.472,3.472,0,0,1,3.472,0Z" stroke="none"/>
        <path d="M 3.471655368804932 0.999995231628418 C 2.10877513885498 0.999995231628418 0.999995231628418 2.10877513885498 0.999995231628418 3.471655368804932 C 0.999995231628418 4.834535598754883 2.10877513885498 5.943315505981445 3.471655368804932 5.943315505981445 C 4.834535598754883 5.943315505981445 5.943315505981445 4.834535598754883 5.943315505981445 3.471655368804932 C 5.943315505981445 2.10877513885498 4.834535598754883 0.999995231628418 3.471655368804932 0.999995231628418 M 3.471655368804932 -4.76837158203125e-06 C 5.388995170593262 -4.76837158203125e-06 6.943315505981445 1.554315567016602 6.943315505981445 3.471655368804932 C 6.943315505981445 5.388995170593262 5.388995170593262 6.943315505981445 3.471655368804932 6.943315505981445 C 1.554315567016602 6.943315505981445 -4.76837158203125e-06 5.388995170593262 -4.76837158203125e-06 3.471655368804932 C -4.76837158203125e-06 1.554315567016602 1.554315567016602 -4.76837158203125e-06 3.471655368804932 -4.76837158203125e-06 Z" stroke="none" fill="#fff"/>
      </g>
    </g>
  </g>
  <g id="www" transform="translate(6.765 0.272)">
    <circle id="Elipse_4836" data-name="Elipse 4836" cx="37.364" cy="37.364" r="37.364" transform="translate(0 0)" fill="#94bfdb"/>
    <circle id="Elipse_4837" data-name="Elipse 4837" cx="30.209" cy="30.209" r="30.209" transform="translate(7.155 7.155)" fill="#abd9e6"/>
    <g id="g7689" transform="translate(9.673 10.038)">
      <g id="g7691">
        <g id="g7693" clip-path="url(#clip-path)">
          <g id="g7699" transform="translate(0.8 0.8)">
            <path id="path7701" d="M-304.838-609.677a26.544,26.544,0,0,0,26.494-26.494,26.544,26.544,0,0,0-26.494-26.494,26.544,26.544,0,0,0-26.494,26.494,26.544,26.544,0,0,0,26.494,26.494" transform="translate(331.333 662.665)" fill="#ade3f7" fill-rule="evenodd"/>
          </g>
          <g id="g7703" transform="translate(0.8 0.8)">
            <path id="path7705" d="M-88.732-179.714A26.6,26.6,0,0,1-77.64-191.886a26.337,26.337,0,0,1,7.691-2.9c.656-.134,1.322-.247,1.994-.333.232-.03.464-.055.7-.079q-1.328-.133-2.693-.134a26.493,26.493,0,0,0-26.494,26.494A26.493,26.493,0,0,0-69.95-142.345q1.365,0,2.693-.134c-.235-.024-.467-.049-.7-.079-.672-.086-1.337-.2-1.994-.333a26.248,26.248,0,0,1-7.691-2.9,26.6,26.6,0,0,1-11.092-12.169,26.4,26.4,0,0,1-2.326-10.878,26.375,26.375,0,0,1,2.326-10.875" transform="translate(96.444 195.333)" fill="#86bfdb" fill-rule="evenodd"/>
          </g>
          <g id="g7707" transform="translate(8.579 21.026)">
            <path id="path7709" d="M-10.151,0H25.417A.888.888,0,0,1,26.3.885V11.65a.888.888,0,0,1-.886.885H-10.151a.887.887,0,0,1-.882-.885V.885A.887.887,0,0,1-10.151,0" transform="translate(11.033)" fill="#ffd45e" fill-rule="evenodd"/>
          </g>
          <g id="g7711" transform="translate(8.579 21.026)">
            <path id="path7713" d="M-64.67-38.922v-2.5a.887.887,0,0,1,.882-.885h-5.621a.887.887,0,0,0-.882.885v10.765a.887.887,0,0,0,.882.885h5.621a.887.887,0,0,1-.882-.885v-8.268Z" transform="translate(70.29 42.305)" fill="#ffac38" fill-rule="evenodd"/>
          </g>
          <g id="g7715" transform="translate(8.579 21.026)">
            <path id="path7717" d="M-288.013-144.235h-24.149a.887.887,0,0,1-.882-.885v-10.765a.887.887,0,0,1,.882-.885h35.568a.888.888,0,0,1,.885.885v10.765a.888.888,0,0,1-.885.885h-7.556" transform="translate(313.045 156.77)" fill="none" stroke="#12263f" stroke-linecap="round" stroke-linejoin="round" stroke-miterlimit="10" stroke-width="2"/>
          </g>
          <g id="g7719" transform="translate(0.8 0.8)">
            <path id="path7721" d="M-304.838,0a26.493,26.493,0,0,1,26.494,26.494,26.493,26.493,0,0,1-26.494,26.494,26.493,26.493,0,0,1-26.494-26.494A26.493,26.493,0,0,1-304.838,0Z" transform="translate(331.333)" fill="none" stroke="#12263f" stroke-linecap="round" stroke-linejoin="round" stroke-miterlimit="10" stroke-width="2"/>
          </g>
          <g id="g7723" transform="translate(0.8 11.873)">
            <path id="path7725" d="M0-177.431c0-8.515,11.861-15.421,26.494-15.421s26.494,6.906,26.494,15.421S41.127-162.01,26.494-162.01,0-168.913,0-177.431Z" transform="translate(0 192.852)" fill="none" stroke="#12263f" stroke-linecap="round" stroke-linejoin="round" stroke-miterlimit="10" stroke-width="2"/>
          </g>
          <g id="g7727" transform="translate(12.148 0.8)">
            <path id="path7729" d="M-348.538-376.956c-1.658,11.607-7.81,20.226-15.146,20.226s-13.488-8.619-15.146-20.226m26.57-24.284a35.036,35.036,0,0,1,3.722,11.748m-30.292,0c1.658-11.608,7.81-20.226,15.146-20.226,3.471,0,6.677,1.93,9.266,5.19" transform="translate(378.83 409.718)" fill="none" stroke="#12263f" stroke-linecap="round" stroke-linejoin="round" stroke-miterlimit="10" stroke-width="2"/>
          </g>
          <g id="g7731" transform="translate(27.294 0.8)">
            <path id="path7733" d="M0-376.956v20.226m0-52.988v20.226" transform="translate(0 409.718)" fill="none" stroke="#12263f" stroke-linecap="round" stroke-linejoin="round" stroke-miterlimit="10" stroke-width="2"/>
          </g>
          <g id="g7735" transform="translate(0.8 27.294)">
            <path id="path7737" d="M-519.083,0h7.874M-564.2,0h7.779" transform="translate(564.197)" fill="none" stroke="#12263f" stroke-linecap="round" stroke-linejoin="round" stroke-miterlimit="10" stroke-width="2"/>
          </g>
          <g id="g7739" transform="translate(13.085 24.247)">
            <path id="path7741" d="M-263.177-32.529l-.809,2.394c-.171.51-.47.766-.895.766-.455,0-.788-.281-1-.843l-1.478-3.96a.924.924,0,0,1-.064-.345.814.814,0,0,1,.232-.586.776.776,0,0,1,.586-.244.805.805,0,0,1,.821.626l.885,2.861.873-2.72c.165-.519.443-.776.83-.776.418,0,.715.257.885.776l.864,2.72.885-2.861a.786.786,0,0,1,.809-.626.805.805,0,0,1,.592.238.806.806,0,0,1,.238.592,1.109,1.109,0,0,1-.064.345l-1.481,3.96q-.311.843-1,.843c-.418,0-.717-.257-.9-.766Zm-9.364.107-.809,2.4c-.174.51-.473.763-.9.763-.452,0-.788-.278-1-.84l-1.478-3.96a.936.936,0,0,1-.064-.345.816.816,0,0,1,.232-.589.783.783,0,0,1,.589-.244.8.8,0,0,1,.818.626l.885,2.861.873-2.72c.168-.516.443-.776.833-.776.415,0,.711.26.882.776l.864,2.72.885-2.861a.791.791,0,0,1,.809-.626.8.8,0,0,1,.592.238.808.808,0,0,1,.238.6,1.124,1.124,0,0,1-.064.345l-1.478,3.96c-.211.562-.543.84-1,.84-.418,0-.714-.253-.895-.763Zm-9.26,0-.809,2.4c-.171.51-.47.763-.894.763-.455,0-.788-.278-1-.84l-1.478-3.96a.934.934,0,0,1-.064-.345.816.816,0,0,1,.232-.589.777.777,0,0,1,.586-.244.808.808,0,0,1,.821.626l.885,2.861.873-2.72c.165-.516.443-.776.83-.776.418,0,.711.26.885.776l.864,2.72.882-2.861a.794.794,0,0,1,.812-.626.806.806,0,0,1,.592.238.808.808,0,0,1,.238.6,1.053,1.053,0,0,1-.067.345l-1.478,3.96c-.208.562-.543.84-1,.84-.418,0-.717-.253-.9-.763Z" transform="translate(286.05 35.356)"/>
          </g>
        </g>
      </g>
    </g>
  </g>
</svg>
