<svg xmlns="http://www.w3.org/2000/svg" xmlns:xlink="http://www.w3.org/1999/xlink" width="400" height="334" viewBox="0 0 400 334">
  <defs>
    <clipPath id="clip-path">
      <path id="Trazado_780919" data-name="Trazado 780919" d="M10,0H390a10,10,0,0,1,10,10V324a10,10,0,0,1-10,10H10A10,10,0,0,1,0,324V10A10,10,0,0,1,10,0Z" transform="translate(600 416)" fill="#edc1e3"/>
    </clipPath>
  </defs>
  <g id="Enmascarar_grupo_100" data-name="Enmascarar grupo 100" transform="translate(-600 -416)" clip-path="url(#clip-path)">
    <rect id="Rectángulo_356765" data-name="Rectángulo 356765" width="400" height="334" rx="10" transform="translate(600 416)" fill="#bffff8"/>
    <g id="Grupo_1046966" data-name="Grupo 1046966" transform="translate(-6.635 -804.834)">
      <circle id="Elipse_5774" data-name="Elipse 5774" cx="157.92" cy="157.92" r="157.92" transform="translate(582.104 1395) rotate(-45)" fill="#a7ebe4"/>
      <g id="Grupo_1046938" data-name="Grupo 1046938" transform="translate(556.635 1185.145)">
        <g id="Grupo_1046924" data-name="Grupo 1046924" transform="translate(12.481 2.511)">
          <g id="Grupo_1046921" data-name="Grupo 1046921" transform="translate(323.173 257.181)">
            <path id="Trazado_780677" data-name="Trazado 780677" d="M367.988,315.608s22.128-32.266,7.232-34.2S354.07,311.818,367.988,315.608Z" transform="translate(-342.22 -258.619)" fill="#f2aaaa"/>
            <path id="Trazado_780678" data-name="Trazado 780678" d="M399.508,291.468s22.128-32.266,7.232-34.2S385.59,287.678,399.508,291.468Z" transform="translate(-344.098 -257.181)" fill="#f2aaaa"/>
            <path id="Trazado_780679" data-name="Trazado 780679" d="M365.38,317.444s27.46,27.865,32.2,13.617S371.747,304.5,365.38,317.444Z" transform="translate(-342.528 -260.446)" fill="#f2aaaa"/>
            <path id="Trazado_780680" data-name="Trazado 780680" d="M399.45,293.839S424.381,324,430.343,310.212,406.926,281.5,399.45,293.839Z" transform="translate(-344.557 -259.091)" fill="#f2aaaa"/>
            <path id="Trazado_780681" data-name="Trazado 780681" d="M418.01,283.11s34.391,9.8,38.623-4.222C460.978,264.508,428.825,269.8,418.01,283.11Z" transform="translate(-345.663 -257.964)" fill="#f2aaaa"/>
            <g id="Grupo_1046920" data-name="Grupo 1046920" transform="translate(0 9.563)">
              <path id="Trazado_780682" data-name="Trazado 780682" d="M341.08,337.823s42.093-52.692,92.425-57.573" transform="translate(-341.08 -268.118)" fill="none" stroke="#2e5373" stroke-linecap="round" stroke-linejoin="round" stroke-width="1"/>
              <path id="Trazado_780683" data-name="Trazado 780683" d="M404.6,267.35,397.96,291.9s13.429-3.16,25.561,9.479" transform="translate(-344.469 -267.35)" fill="none" stroke="#2e5373" stroke-linecap="round" stroke-linejoin="round" stroke-width="1"/>
              <path id="Trazado_780684" data-name="Trazado 780684" d="M373.5,290.73l-7.354,24.122s14.746-3.31,26.52,10.345" transform="translate(-342.574 -268.743)" fill="none" stroke="#2e5373" stroke-linecap="round" stroke-linejoin="round" stroke-width="1"/>
            </g>
          </g>
          <g id="Grupo_1046923" data-name="Grupo 1046923" transform="translate(40.494 257.181)">
            <path id="Trazado_780685" data-name="Trazado 780685" d="M130.735,315.608s-22.128-32.266-7.232-34.2S144.654,311.818,130.735,315.608Z" transform="translate(-45.132 -258.619)" fill="#f2aaaa"/>
            <path id="Trazado_780686" data-name="Trazado 780686" d="M99.215,291.468s-22.128-32.266-7.232-34.2S113.134,287.678,99.215,291.468Z" transform="translate(-43.254 -257.181)" fill="#f2aaaa"/>
            <path id="Trazado_780687" data-name="Trazado 780687" d="M132.549,317.444s-27.46,27.865-32.2,13.617S126.182,304.5,132.549,317.444Z" transform="translate(-44.03 -260.446)" fill="#f2aaaa"/>
            <path id="Trazado_780688" data-name="Trazado 780688" d="M98.543,293.839S73.612,324,67.65,310.212,91.066,281.5,98.543,293.839Z" transform="translate(-42.064 -259.091)" fill="#f2aaaa"/>
            <path id="Trazado_780689" data-name="Trazado 780689" d="M79.518,283.11s-34.391,9.8-38.623-4.222C36.55,264.508,68.7,269.8,79.518,283.11Z" transform="translate(-40.494 -257.964)" fill="#f2aaaa"/>
            <g id="Grupo_1046922" data-name="Grupo 1046922" transform="translate(18.946 9.563)">
              <path id="Trazado_780690" data-name="Trazado 780690" d="M153.065,337.823S110.972,285.131,60.64,280.25" transform="translate(-60.64 -268.118)" fill="none" stroke="#2e5373" stroke-linecap="round" stroke-linejoin="round" stroke-width="1"/>
              <path id="Trazado_780691" data-name="Trazado 780691" d="M93.781,267.35l6.639,24.555s-13.429-3.16-25.561,9.479" transform="translate(-61.487 -267.35)" fill="none" stroke="#2e5373" stroke-linecap="round" stroke-linejoin="round" stroke-width="1"/>
              <path id="Trazado_780692" data-name="Trazado 780692" d="M124.816,290.73l7.354,24.122s-14.746-3.31-26.52,10.345" transform="translate(-63.321 -268.743)" fill="none" stroke="#2e5373" stroke-linecap="round" stroke-linejoin="round" stroke-width="1"/>
            </g>
          </g>
        </g>
        <g id="Grupo_1046927" data-name="Grupo 1046927">
          <g id="Grupo_1046925" data-name="Grupo 1046925">
            <path id="Trazado_780693" data-name="Trazado 780693" d="M216.81,352.58a15.684,15.684,0,0,1-2.58,6.01c-2.04,2.56-5.35,3.73-8.55,4.37-11.94,2.37-24.59-1.17-34.55-8.21-.34-.23-.67-.47-1-.72-10.09-7.5-17.36-18.35-22.12-30-2.09-5.1-3.75-10.43-6.64-15.13-5.2-8.43-14.24-14.67-16.85-24.23-1.85-6.77-.11-14.22-2.48-20.82-3.01-8.41-11.93-13.47-15.5-21.66-2.88-6.58-2.01-14.58-5.95-20.6-1.47-2.24-3.55-4.1-4.63-6.56s-1.03-5.24-.93-7.93c.52-13.8,1.58-28.73-6.02-40.27-1.56-2.37-3.56-5.04-2.73-7.76A4.689,4.689,0,0,1,89.75,156a9.651,9.651,0,0,1,5.77.3c11.14,4.13,14.12,18.1,20.77,27.95,8.12,12.04,22.72,18.58,30.64,30.76,3.94,6.04,5.99,13.14,9.8,19.27,7.28,11.7,20.03,18.58,31.3,26.52,27.36,19.29,36.91,60.3,28.78,91.78Z" fill="#3a6991"/>
            <path id="Trazado_780694" data-name="Trazado 780694" d="M186.76,347.31c-3.92,4.19-9.73,5.92-15.28,7.35l-.35.09c-.34-.23-.67-.47-1-.72-10.09-7.5-17.36-18.35-22.12-30-2.09-5.1-3.75-10.43-6.64-15.13-5.2-8.43-14.24-14.67-16.85-24.23-1.85-6.77-.11-14.22-2.48-20.82-3.01-8.41-11.93-13.47-15.5-21.66-2.88-6.58-2.01-14.58-5.95-20.6-1.47-2.24-3.55-4.1-4.63-6.56s-1.03-5.24-.93-7.93c.52-13.8,1.58-28.73-6.02-40.27-1.56-2.37-3.56-5.04-2.73-7.76A4.689,4.689,0,0,1,89.75,156c.18.06.35.12.53.19,12.66,4.9,17.06,26.89,19.64,38.23,1.15,5.08,2.43,10.44,6.06,14.18,2.96,3.04,7.11,4.61,10.44,7.25,14.87,11.85,7.2,38.42,20.67,51.85,4.63,4.61,11.13,6.9,16.01,11.24,8.83,7.85,11.17,21.2,20.11,28.92,2.37,2.05,5.2,3.7,6.84,6.37s1.85,5.98,2,9.12c.4,8.41.45,17.81-5.29,23.96Z" fill="#355f85"/>
          </g>
          <g id="Grupo_1046926" data-name="Grupo 1046926">
            <path id="Trazado_780695" data-name="Trazado 780695" d="M283.19,352.58a15.684,15.684,0,0,0,2.58,6.01c2.04,2.56,5.35,3.73,8.55,4.37,11.94,2.37,24.59-1.17,34.55-8.21.34-.23.67-.47,1-.72,10.09-7.5,17.36-18.35,22.12-30,2.09-5.1,3.75-10.43,6.64-15.13,5.2-8.43,14.24-14.67,16.85-24.23,1.85-6.77.11-14.22,2.48-20.82,3.01-8.41,11.93-13.47,15.5-21.66,2.88-6.58,2.01-14.58,5.95-20.6,1.47-2.24,3.55-4.1,4.63-6.56s1.03-5.24.93-7.93c-.52-13.8-1.58-28.73,6.02-40.27,1.56-2.37,3.56-5.04,2.73-7.76a4.689,4.689,0,0,0-3.47-3.07,9.651,9.651,0,0,0-5.77.3c-11.14,4.13-14.12,18.1-20.77,27.95-8.12,12.04-22.72,18.58-30.64,30.76-3.94,6.04-5.99,13.14-9.8,19.27-7.28,11.7-20.03,18.58-31.3,26.52-27.36,19.29-36.91,60.3-28.78,91.78Z" fill="#3a6991"/>
            <path id="Trazado_780696" data-name="Trazado 780696" d="M313.24,347.31c3.92,4.19,9.73,5.92,15.28,7.35l.35.09c.34-.23.67-.47,1-.72,10.09-7.5,17.36-18.35,22.12-30,2.09-5.1,3.75-10.43,6.64-15.13,5.2-8.43,14.24-14.67,16.85-24.23,1.85-6.77.11-14.22,2.48-20.82,3.01-8.41,11.93-13.47,15.5-21.66,2.88-6.58,2.01-14.58,5.95-20.6,1.47-2.24,3.55-4.1,4.63-6.56s1.03-5.24.93-7.93c-.52-13.8-1.58-28.73,6.02-40.27,1.56-2.37,3.56-5.04,2.73-7.76a4.689,4.689,0,0,0-3.47-3.07c-.18.06-.35.12-.53.19-12.66,4.9-17.06,26.89-19.64,38.23-1.15,5.08-2.43,10.44-6.06,14.18-2.96,3.04-7.11,4.61-10.44,7.25-14.87,11.85-7.2,38.42-20.67,51.85-4.63,4.61-11.13,6.9-16.01,11.24-8.83,7.85-11.17,21.2-20.11,28.92-2.37,2.05-5.2,3.7-6.84,6.37s-1.85,5.98-2,9.12c-.4,8.41-.45,17.81,5.29,23.96Z" fill="#355f85"/>
          </g>
        </g>
        <g id="Grupo_1046928" data-name="Grupo 1046928">
          <path id="Trazado_780697" data-name="Trazado 780697" d="M378.28,314.45l-2.54-1.49,2.04,2.82a69.479,69.479,0,0,1-12.36,20.3l-4.49-2.63,2.94,4.37a83.173,83.173,0,0,1-16.14,13.36l-3.58-4.47,1.35,5.87a117.016,117.016,0,0,1-20.33,9.62l-2.27-2.88.87,3.39a163.573,163.573,0,0,1-16.75,4.91s-12.39-5.89-10.19-20.21a28.919,28.919,0,0,1,1.77-6.3,44.921,44.921,0,0,1,3.63-11.6l3.59,2.29-2.74-4.1a60.425,60.425,0,0,1,12.99-17.45l6.8,4.09-4.19-6.4A72.009,72.009,0,0,1,337.2,296.8c2.44-1.02,4.74-2.02,6.93-2.99l4.39,5.61-1.51-6.91c5.27-2.39,9.78-4.61,13.63-6.63l3.09,4.25-1.15-5.28c14.21-7.65,18.51-12.19,18.51-12.19a75.294,75.294,0,0,1-2.81,41.79Z" fill="#82b072"/>
          <path id="Trazado_780698" data-name="Trazado 780698" d="M378.28,314.45l-2.54-1.49,2.04,2.82a69.479,69.479,0,0,1-12.36,20.3l-4.49-2.63,2.94,4.37a83.173,83.173,0,0,1-16.14,13.36l-3.58-4.47,1.35,5.87a117.016,117.016,0,0,1-20.33,9.62l-2.27-2.88.87,3.39a163.573,163.573,0,0,1-16.75,4.91s-12.39-5.89-10.19-20.21c83.14-39.96,84.26-74.75,84.26-74.75a75.294,75.294,0,0,1-2.81,41.79Z" fill="#729963"/>
        </g>
        <g id="Grupo_1046929" data-name="Grupo 1046929">
          <path id="Trazado_780699" data-name="Trazado 780699" d="M208.54,345.24a25.549,25.549,0,0,1-3.07,13.32,18.063,18.063,0,0,1-24.13,6.92q-5.43-2.835-10.3-5.79l1.95-4-3.56,3.01a149.835,149.835,0,0,1-22.88-17.17l3.19-6.97-5.61,4.65a105.873,105.873,0,0,1-16.7-20.75l4.78-4.7-6.27,2.13a88.322,88.322,0,0,1-10.22-28.45l3.26-2.99-3.55,1.21c-4.52-29.56,7.16-52.79,7.16-52.79s4.2,6.75,19.95,19.91l-2.78,6.28,4.94-4.5c4.28,3.5,9.34,7.42,15.29,11.74l-3.65,8.22,6.91-5.87c2.49,1.77,5.1,3.6,7.87,5.5a91.3,91.3,0,0,1,20.24,18.6l-6.86,6.9,9.52-3.35a76.695,76.695,0,0,1,11.73,25.04l-4.46,4.42,5.06-1.94a57.122,57.122,0,0,1,1.56,15.37,38.53,38.53,0,0,1,.63,6.05Z" fill="#82b072"/>
          <path id="Trazado_780700" data-name="Trazado 780700" d="M208.54,345.24a25.549,25.549,0,0,1-3.07,13.32,18.063,18.063,0,0,1-24.13,6.92q-5.43-2.835-10.3-5.79l1.95-4-3.56,3.01a149.835,149.835,0,0,1-22.88-17.17l3.19-6.97-5.61,4.65a105.873,105.873,0,0,1-16.7-20.75l4.78-4.7-6.27,2.13a88.322,88.322,0,0,1-10.22-28.45l3.26-2.99-3.55,1.21c-4.52-29.56,7.16-52.79,7.16-52.79s9.57,68.66,85.95,112.37Z" fill="#729963"/>
        </g>
        <g id="Grupo_1046932" data-name="Grupo 1046932">
          <g id="Grupo_1046930" data-name="Grupo 1046930">
            <path id="Trazado_780701" data-name="Trazado 780701" d="M229.52,297.98a9.836,9.836,0,0,1-1.59,3.71,8.763,8.763,0,0,1-5.27,2.7c-7.37,1.46-15.17-.72-21.31-5.06-.21-.14-.41-.29-.62-.44-6.22-4.63-10.71-11.32-13.64-18.51-1.29-3.15-2.31-6.43-4.1-9.33-3.21-5.2-8.78-9.05-10.39-14.95-1.14-4.18-.07-8.77-1.53-12.84-1.86-5.19-7.36-8.31-9.56-13.36-1.78-4.06-1.24-8.99-3.67-12.71-.91-1.38-2.19-2.53-2.86-4.05a10.9,10.9,0,0,1-.57-4.89c.32-8.51.97-17.72-3.71-24.84-.96-1.46-2.2-3.11-1.68-4.79a2.876,2.876,0,0,1,2.14-1.89,5.94,5.94,0,0,1,3.56.19c6.87,2.55,8.71,11.17,12.81,17.24,5.01,7.43,14.02,11.46,18.9,18.97,2.43,3.73,3.7,8.11,6.05,11.89,4.49,7.22,12.36,11.46,19.31,16.36,16.88,11.9,22.77,37.2,17.75,56.62Z" fill="#82b072"/>
            <path id="Trazado_780702" data-name="Trazado 780702" d="M210.99,294.73c-2.42,2.58-6,3.65-9.43,4.53-.07.02-.14.04-.22.06-.21-.14-.41-.29-.62-.44-6.22-4.63-10.71-11.32-13.64-18.51-1.29-3.15-2.31-6.43-4.1-9.33-3.21-5.2-8.78-9.05-10.39-14.95-1.14-4.18-.07-8.77-1.53-12.84-1.86-5.19-7.36-8.31-9.56-13.36-1.78-4.06-1.24-8.99-3.67-12.71-.91-1.38-2.19-2.53-2.86-4.05a10.9,10.9,0,0,1-.57-4.89c.32-8.51.97-17.72-3.71-24.84-.96-1.46-2.2-3.11-1.68-4.79a2.876,2.876,0,0,1,2.14-1.89c.11.04.22.07.33.12,7.81,3.02,10.52,16.59,12.12,23.58.71,3.13,1.5,6.44,3.74,8.75,1.83,1.88,4.39,2.84,6.44,4.47,9.17,7.31,4.44,23.7,12.75,31.98,2.86,2.84,6.87,4.26,9.88,6.93,5.45,4.84,6.89,13.08,12.41,17.84,1.46,1.26,3.21,2.28,4.22,3.93a11.587,11.587,0,0,1,1.23,5.63c.25,5.19.28,10.99-3.26,14.78Z" fill="#729963"/>
          </g>
          <g id="Grupo_1046931" data-name="Grupo 1046931">
            <path id="Trazado_780703" data-name="Trazado 780703" d="M270.48,297.98a9.836,9.836,0,0,0,1.59,3.71,8.763,8.763,0,0,0,5.27,2.7c7.37,1.46,15.17-.72,21.31-5.06.21-.14.41-.29.62-.44,6.22-4.63,10.71-11.32,13.64-18.51,1.29-3.15,2.31-6.43,4.1-9.33,3.21-5.2,8.78-9.05,10.39-14.95,1.14-4.18.07-8.77,1.53-12.84,1.86-5.19,7.36-8.31,9.56-13.36,1.78-4.06,1.24-8.99,3.67-12.71.91-1.38,2.19-2.53,2.86-4.05a10.894,10.894,0,0,0,.57-4.89c-.32-8.51-.97-17.72,3.71-24.84.96-1.46,2.2-3.11,1.68-4.79a2.876,2.876,0,0,0-2.14-1.89,5.94,5.94,0,0,0-3.56.19c-6.87,2.55-8.71,11.17-12.81,17.24-5.01,7.43-14.02,11.46-18.9,18.97-2.43,3.73-3.7,8.11-6.05,11.89-4.49,7.22-12.36,11.46-19.31,16.36-16.88,11.9-22.77,37.2-17.75,56.62Z" fill="#82b072"/>
            <path id="Trazado_780704" data-name="Trazado 780704" d="M289.01,294.73c2.42,2.58,6,3.65,9.43,4.53.07.02.14.04.22.06.21-.14.41-.29.62-.44,6.22-4.63,10.71-11.32,13.64-18.51,1.29-3.15,2.31-6.43,4.1-9.33,3.21-5.2,8.78-9.05,10.39-14.95,1.14-4.18.07-8.77,1.53-12.84,1.86-5.19,7.36-8.31,9.56-13.36,1.78-4.06,1.24-8.99,3.67-12.71.91-1.38,2.19-2.53,2.86-4.05a10.894,10.894,0,0,0,.57-4.89c-.32-8.51-.97-17.72,3.71-24.84.96-1.46,2.2-3.11,1.68-4.79a2.876,2.876,0,0,0-2.14-1.89c-.11.04-.22.07-.33.12-7.81,3.02-10.52,16.59-12.12,23.58-.71,3.13-1.5,6.44-3.74,8.75-1.83,1.88-4.39,2.84-6.44,4.47-9.17,7.31-4.44,23.7-12.75,31.98-2.86,2.84-6.87,4.26-9.88,6.93-5.45,4.84-6.89,13.08-12.41,17.84-1.46,1.26-3.21,2.28-4.22,3.93a11.588,11.588,0,0,0-1.23,5.63c-.25,5.19-.28,10.99,3.26,14.78Z" fill="#729963"/>
          </g>
        </g>
        <g id="Grupo_1046937" data-name="Grupo 1046937">
          <g id="Grupo_1046934" data-name="Grupo 1046934">
            <path id="Trazado_780705" data-name="Trazado 780705" d="M299.03,185.5s8.29-20.05-.01-19.38S291.05,185.05,299.03,185.5Z" fill="#f2aaaa"/>
            <path id="Trazado_780706" data-name="Trazado 780706" d="M312.49,169.77s8.29-20.05-.01-19.38S304.51,169.32,312.49,169.77Z" fill="#f2aaaa"/>
            <path id="Trazado_780707" data-name="Trazado 780707" d="M297.45,185.84s18.1,11.96,19.03,3.68S299.42,178.09,297.45,185.84Z" fill="#f2aaaa"/>
            <path id="Trazado_780708" data-name="Trazado 780708" d="M312.26,170.08s16.99,13.49,18.64,5.32S314.9,162.52,312.26,170.08Z" fill="#f2aaaa"/>
            <path id="Trazado_780709" data-name="Trazado 780709" d="M320.63,162.87s19.78,1.36,20.46-6.73C341.79,147.84,324.97,154.41,320.63,162.87Z" fill="#f2aaaa"/>
            <g id="Grupo_1046933" data-name="Grupo 1046933">
              <path id="Trazado_780710" data-name="Trazado 780710" d="M287.61,200.55s16.77-33.42,43.51-41.86" fill="none" stroke="#2e5373" stroke-linecap="round" stroke-linejoin="round" stroke-width="1"/>
              <path id="Trazado_780711" data-name="Trazado 780711" d="M312.21,155.82l-.78,14.08s6.92-3.26,14.95,2.2" fill="none" stroke="#2e5373" stroke-linecap="round" stroke-linejoin="round" stroke-width="1"/>
              <path id="Trazado_780712" data-name="Trazado 780712" d="M298.9,171.11l-1.21,13.93s7.62-3.49,15.57,2.56" fill="none" stroke="#2e5373" stroke-linecap="round" stroke-linejoin="round" stroke-width="1"/>
            </g>
          </g>
          <g id="Grupo_1046936" data-name="Grupo 1046936">
            <path id="Trazado_780713" data-name="Trazado 780713" d="M200.97,185.5s-8.29-20.05.01-19.38S208.95,185.05,200.97,185.5Z" fill="#f2aaaa"/>
            <path id="Trazado_780714" data-name="Trazado 780714" d="M187.51,169.77s-8.29-20.05.01-19.38S195.49,169.32,187.51,169.77Z" fill="#f2aaaa"/>
            <path id="Trazado_780715" data-name="Trazado 780715" d="M202.55,185.84s-18.1,11.96-19.03,3.68S200.58,178.09,202.55,185.84Z" fill="#f2aaaa"/>
            <path id="Trazado_780716" data-name="Trazado 780716" d="M187.74,170.08s-16.99,13.49-18.64,5.32S185.1,162.52,187.74,170.08Z" fill="#f2aaaa"/>
            <path id="Trazado_780717" data-name="Trazado 780717" d="M179.37,162.87s-19.78,1.36-20.46-6.73C158.21,147.84,175.03,154.41,179.37,162.87Z" fill="#f2aaaa"/>
            <g id="Grupo_1046935" data-name="Grupo 1046935">
              <path id="Trazado_780718" data-name="Trazado 780718" d="M212.39,200.55s-16.77-33.42-43.51-41.86" fill="none" stroke="#2e5373" stroke-linecap="round" stroke-linejoin="round" stroke-width="1"/>
              <path id="Trazado_780719" data-name="Trazado 780719" d="M187.79,155.82l.78,14.08s-6.92-3.26-14.95,2.2" fill="none" stroke="#2e5373" stroke-linecap="round" stroke-linejoin="round" stroke-width="1"/>
              <path id="Trazado_780720" data-name="Trazado 780720" d="M201.1,171.11l1.21,13.93s-7.62-3.49-15.57,2.56" fill="none" stroke="#2e5373" stroke-linecap="round" stroke-linejoin="round" stroke-width="1"/>
            </g>
          </g>
        </g>
      </g>
      <g id="Grupo_1046962" data-name="Grupo 1046962" transform="translate(556.635 1185.145)">
        <g id="Grupo_1046961" data-name="Grupo 1046961">
          <path id="Trazado_780721" data-name="Trazado 780721" d="M314.49,167.04c-1.58-6.75-5.07-12.63-6.61-19.33-1.76-7.66-1.72-15.57-2.19-23.38-.44-7.25-1.61-14.59-5.77-20.69A42.77,42.77,0,0,0,285.9,90.7a46.945,46.945,0,0,0-22.5-6.18s-13.13-.09-20.69,2.81a39,39,0,0,0-12.28,7.58c-5.84,5.33-9.45,11.88-12.87,18.86-3.8,7.74-7.87,15.41-10.56,23.63-1.78,5.41-3.43,11.43-3.25,17.17.22,6.54,2.55,12.85,5.31,18.71a97.347,97.347,0,0,1,5.02,11.43c1.64,5.09.6,9.41.81,14.51.26,6.24,4.05,9.19,10.13,9.46,6.64.3,13.06-1.58,19.61-2.26,8.65-.9,17.28-3.46,25.99-3.59,4.61-.07,8.79,2.27,12.42,4.89s6.87,5.78,10.69,8.1c3.08,1.87,6.62,2.82,9.8.61,1.82-1.26,2.8-3.59,3.85-5.48a68.46,68.46,0,0,0,7.22-18.05,58.123,58.123,0,0,0-.13-25.88Z" fill="#2a4b69"/>
          <g id="Grupo_1046947" data-name="Grupo 1046947">
            <g id="Grupo_1046946" data-name="Grupo 1046946">
              <g id="Grupo_1046939" data-name="Grupo 1046939">
                <path id="Trazado_780722" data-name="Trazado 780722" d="M271.43,208.65l-28.8,1.21,1.11-20.25.83-15.13,26.72-1.11.06,14.16Z" fill="#f5d5c0"/>
                <path id="Trazado_780723" data-name="Trazado 780723" d="M271.35,189.4c-4.31,2.55-9.27,3.19-14.68,3.08a35.256,35.256,0,0,1-12.93-2.87l.83-15.13,26.72-1.11Z" fill="#f2aaaa"/>
              </g>
              <g id="Grupo_1046945" data-name="Grupo 1046945">
                <g id="Grupo_1046944" data-name="Grupo 1046944">
                  <path id="Trazado_780724" data-name="Trazado 780724" d="M294.09,158.93s-1.9,4.54-5.78,2.62c-4.97-2.46-.98-22.78,6.11-20.38,6.55,2.22-.33,17.76-.33,17.76Z" fill="#f5d5c0"/>
                  <path id="Trazado_780725" data-name="Trazado 780725" d="M291.2,142.75c-.37,28.35-13.64,43.18-32.47,43.9s-34.68-14.04-35.72-41.29c-1.53-40.18,13.64-43.18,32.47-43.9s34.32,4.65,35.72,41.29Z" fill="#f5d5c0"/>
                  <g id="Grupo_1046943" data-name="Grupo 1046943">
                    <g id="Grupo_1046940" data-name="Grupo 1046940">
                      <path id="Trazado_780726" data-name="Trazado 780726" d="M284.28,155.77a6.78,6.78,0,1,1-5.05-8.15A6.792,6.792,0,0,1,284.28,155.77Z" fill="#f2aaaa"/>
                      <path id="Trazado_780727" data-name="Trazado 780727" d="M243.62,156.88a6.78,6.78,0,1,1-5.05-8.15A6.792,6.792,0,0,1,243.62,156.88Z" fill="#f2aaaa"/>
                    </g>
                    <g id="Grupo_1046941" data-name="Grupo 1046941">
                      <path id="Trazado_780728" data-name="Trazado 780728" d="M274.6,141.94c0,2.73-1.48,5.04-3.32,5.17s-3.33-2-3.33-4.73,1.48-5.05,3.32-5.17S274.59,139.21,274.6,141.94Z" fill="#313d67"/>
                      <path id="Trazado_780729" data-name="Trazado 780729" d="M246.69,141.8c.15,2.73-1.21,5.12-3.04,5.34s-3.43-1.81-3.58-4.54,1.21-5.12,3.04-5.34S246.54,139.08,246.69,141.8Z" fill="#313d67"/>
                    </g>
                    <g id="Grupo_1046942" data-name="Grupo 1046942">
                      <path id="Trazado_780730" data-name="Trazado 780730" d="M258.02,142.18s.33,9.3-3.01,13.67a1.532,1.532,0,0,0,.67,2.4c1.54.56,2.47.31,5.02-.28" fill="none" stroke="#313d67" stroke-linecap="round" stroke-linejoin="round" stroke-width="1"/>
                      <path id="Trazado_780731" data-name="Trazado 780731" d="M251.79,166.12a13.388,13.388,0,0,0,15-.17" fill="none" stroke="#f2aaaa" stroke-linecap="round" stroke-miterlimit="10" stroke-width="1"/>
                      <path id="Trazado_780732" data-name="Trazado 780732" d="M279.4,133.84s-5.59-3.52-10.4-.52" fill="none" stroke="#313d67" stroke-linecap="round" stroke-linejoin="round" stroke-width="1"/>
                      <path id="Trazado_780733" data-name="Trazado 780733" d="M235.33,133.89s5.59-3.53,10.4-.54" fill="none" stroke="#313d67" stroke-linecap="round" stroke-linejoin="round" stroke-width="1"/>
                    </g>
                  </g>
                </g>
                <path id="Trazado_780734" data-name="Trazado 780734" d="M224.57,143.84s-1.87-4.55-5.76-2.66c-4.98,2.42-1.14,22.77,5.97,20.42C231.35,159.43,224.57,143.84,224.57,143.84Z" fill="#f5d5c0"/>
              </g>
            </g>
            <path id="Trazado_780735" data-name="Trazado 780735" d="M220.75,143.62s19.85-13.26,20.99-29.83c0,0,25.92,30.51,49.46,28.95,0,0,7.63-48.96-40.98-46.93-44.56,1.86-29.46,47.8-29.46,47.8Z" fill="#2a4b69"/>
          </g>
          <g id="Grupo_1046958" data-name="Grupo 1046958">
            <path id="Trazado_780736" data-name="Trazado 780736" d="M168.19,272.08s-10.77,43.74-5.09,48.01,25.19,1.63,25.19,1.63l3.54-26.02,9.26-29.53-32.9,5.9Z" fill="#f5c3a2"/>
            <g id="Grupo_1046951" data-name="Grupo 1046951">
              <path id="Trazado_780737" data-name="Trazado 780737" d="M307.02,367.62H190.52l.77-42.28.42-23.16.59-32.48,101.11,1.44,13.38,6.02s.15,18.55.24,40.07c.03,6.95.05,14.2.06,21.25.02,10.86,0,21.22-.07,29.14Z" fill="#53cccc"/>
              <path id="Trazado_780738" data-name="Trazado 780738" d="M307.09,338.48c-64.46,16.84-98.23,2.95-115.8-13.14l.42-23.16.49.13,30.46,2.08,66.32,6.77,18.05,6.07c.03,6.95.05,14.2.06,21.25Z" fill="#48b0b0" opacity="0.18"/>
              <path id="Trazado_780739" data-name="Trazado 780739" d="M338.25,289.72l-37.84-8.59-99.07-1.44-35.68-8.19c-.88-.2,2.47-17.61,2.7-18.71,2.41-11.33,6.1-23.16,13.35-32.39,10.23-13.02,29.57-13.91,44.53-16.84,5.53-1.08,11.06-2.18,16.56-3.41a1.418,1.418,0,0,0,.22-.05s9.12,22.47,28.4-1.19c0,0,21.55,10.28,43.84,19.02,23.45,9.19,31.65,41.33,22.98,71.79Z" fill="#53cccc"/>
              <path id="Trazado_780740" data-name="Trazado 780740" d="M274.89,252.34l-3.46,10.81,25.58,9.36,3.67-11.13Z" fill="#4fc2c2"/>
              <path id="Trazado_780741" data-name="Trazado 780741" d="M271.42,198.92s-2.38,5.37-18.53,41.77l8.65,26.13s26.38-53.06,27.94-59.92l-18.06-7.97Z" fill="#4fc2c2"/>
              <g id="Grupo_1046949" data-name="Grupo 1046949">
                <path id="Trazado_780742" data-name="Trazado 780742" d="M274.91,190.16s23.41,3.15,12.33,40.64" fill="none" stroke="#2a4b69" stroke-linecap="round" stroke-linejoin="round" stroke-width="3"/>
                <g id="Grupo_1046948" data-name="Grupo 1046948">
                  <path id="Trazado_780743" data-name="Trazado 780743" d="M260.85,248.23s-7.34,19.24,4.29,23.55" fill="none" stroke="#9cdbd5" stroke-linecap="round" stroke-linejoin="round" stroke-width="1.16"/>
                  <path id="Trazado_780744" data-name="Trazado 780744" d="M297.45,259.19s-5.21,19.92-17.18,16.67" fill="none" stroke="#9cdbd5" stroke-linecap="round" stroke-linejoin="round" stroke-width="1.16"/>
                  <path id="Trazado_780745" data-name="Trazado 780745" d="M260.19,250.92s4.78-27.3,27.04-20.13c21.01,6.77,8.09,33.52,8.09,33.52" fill="none" stroke="#2a4b69" stroke-linecap="round" stroke-linejoin="round" stroke-width="3"/>
                  <path id="Trazado_780746" data-name="Trazado 780746" d="M266.7,273.48l-2.22-.72a1.406,1.406,0,0,1-.91-1.77h0a1.406,1.406,0,0,1,1.77-.91l2.22.72a1.406,1.406,0,0,1,.91,1.77h0A1.406,1.406,0,0,1,266.7,273.48Z" fill="#2a4b69"/>
                  <path id="Trazado_780747" data-name="Trazado 780747" d="M281.1,277.43l-2.28-.51a1.407,1.407,0,0,1-1.07-1.68h0a1.407,1.407,0,0,1,1.68-1.07l2.28.51a1.407,1.407,0,0,1,1.07,1.68h0A1.407,1.407,0,0,1,281.1,277.43Z" fill="#2a4b69"/>
                </g>
              </g>
              <path id="Trazado_780748" data-name="Trazado 780748" d="M271.42,198.92l-18.53,41.77-9.88-40.58s14.56,12.57,28.4-1.19Z" fill="#b6fff8"/>
              <g id="Grupo_1046950" data-name="Grupo 1046950">
                <path id="Trazado_780749" data-name="Trazado 780749" d="M241.13,188.68s-12.84,5.7-12.21,30.74" fill="none" stroke="#2a4b69" stroke-linecap="round" stroke-linejoin="round" stroke-width="3"/>
                <path id="Trazado_780750" data-name="Trazado 780750" d="M237.78,221.69a9.14,9.14,0,1,1-6.59-11.12A9.133,9.133,0,0,1,237.78,221.69Z" fill="#2e5373"/>
                <path id="Trazado_780751" data-name="Trazado 780751" d="M234.61,220.88a5.878,5.878,0,1,1-4.24-7.15A5.881,5.881,0,0,1,234.61,220.88Z" fill="#9cdbd5"/>
              </g>
            </g>
            <g id="Grupo_1046957" data-name="Grupo 1046957">
              <path id="Trazado_780752" data-name="Trazado 780752" d="M310.53,317.12c-2.66,20.54-61.84,20.43-95.38.89-.42-.23-.84-.48-1.24-.74-.37-.22-.73-.45-1.09-.68-1.09-.69-2.15-1.41-3.17-2.14-.39-.28-.76-.56-1.14-.84a50.5,50.5,0,0,1-6.15-5.41c-.63-.63-1.22-1.29-1.77-1.95a36.778,36.778,0,0,1-3.07-4.1c-.46-.71-.88-1.43-1.28-2.16-.2-.36-.4-.73-.58-1.1a31.092,31.092,0,0,1-1.46-3.42c-11.29-31.67-9.4-44.85-9.4-44.85a19.18,19.18,0,0,1,3.17-8.08,25.405,25.405,0,0,1,11.26-9.17c13.48-5.95,29.16,2.5,35.4,8.74,1.2,1.2,4.12,4.42,7.76,7.98,4.4,4.31,9.86,9.13,14.67,11.53,5.99,2.99,25.05,15.02,35.47,30.83.05.07.1.15.14.22,4.77,7.3,18.95,16.06,17.86,24.45Z" fill="#3a6991"/>
              <path id="Trazado_780753" data-name="Trazado 780753" d="M310.53,317.12c-2.66,20.54-61.84,20.43-95.38.89-.42-.23-.84-.48-1.24-.74-.37-.22-.73-.45-1.09-.68-1.09-.69-2.15-1.41-3.17-2.14-.39-.28-.76-.56-1.14-.84a53.92,53.92,0,0,1-6.15-5.41q-.915-.96-1.77-1.95a40.9,40.9,0,0,1-3.07-4.1c-.46-.71-.88-1.43-1.28-2.16-.2-.36-.4-.73-.58-1.1a31.092,31.092,0,0,1-1.46-3.42c-11.29-31.67-9.4-44.85-9.4-44.85a19.18,19.18,0,0,1,3.17-8.08c-1.23,8.09-1.21,15.74,1.82,23.75a54,54,0,0,0,17.08,22.76c3.45,2.75,7.69,5.26,12.03,4.47a18.089,18.089,0,0,0,6.01-2.75c5.99-3.72,12.09-7.53,16.63-12.92s7.34-12.75,5.6-19.58c2.71.24,4.68,2.93,5.04,5.62s-.5,5.39-1.34,7.97q-4.05,12.39-8.1,24.77c-1,3.04-1.99,6.35-.89,9.35a10.468,10.468,0,0,0,3.1,4.18c5.4,4.74,12.88,6.11,19.97,7.3,5.2.87,10.74,1.7,15.58-.37,4.56-1.94,7.78-6.24,9.54-10.87,1.64-4.31,2.18-8.95,2.63-13.55,4.77,7.3,18.95,16.06,17.86,24.45Z" fill="#355f85"/>
              <path id="Trazado_780754" data-name="Trazado 780754" d="M233.91,258.01c-.17,4.07-3.36,7.43-6.87,9.49a22.085,22.085,0,0,1-16.07,2.7,17.74,17.74,0,0,1-12.34-10.3,14.849,14.849,0,0,1,2.83-15.54c4.35-4.47,14.65-8.73,20.72-5.54,5.26,2.77,11.98,13.36,11.73,19.19Z" fill="#2a4b69"/>
              <g id="Grupo_1046952" data-name="Grupo 1046952">
                <path id="Trazado_780755" data-name="Trazado 780755" d="M230.46,251.49c0,9.37-8.49,16.96-18.96,16.96s-18.96-7.59-18.96-16.96a14.038,14.038,0,0,1,.09-1.6c.9-8.61,9-15.35,18.87-15.35s17.97,6.74,18.87,15.35a14.169,14.169,0,0,1,.09,1.6Z" fill="#f2aaaa"/>
                <path id="Trazado_780756" data-name="Trazado 780756" d="M230.37,249.89c-.9,8.62-9.01,15.34-18.87,15.34s-17.97-6.73-18.87-15.34c.9-8.61,9-15.35,18.87-15.35s17.97,6.74,18.87,15.35Z" fill="#f5d5c0"/>
              </g>
              <g id="Grupo_1046953" data-name="Grupo 1046953">
                <path id="Trazado_780757" data-name="Trazado 780757" d="M198.92,247.13a6.294,6.294,0,0,1,5.48-4.05" fill="none" stroke="#313d67" stroke-linecap="round" stroke-linejoin="round" stroke-width="0.75"/>
                <path id="Trazado_780758" data-name="Trazado 780758" d="M209.47,239.93s.76-2.47,4.3-2.76" fill="none" stroke="#313d67" stroke-linecap="round" stroke-linejoin="round" stroke-width="0.61"/>
              </g>
              <g id="Grupo_1046956" data-name="Grupo 1046956">
                <g id="Grupo_1046954" data-name="Grupo 1046954">
                  <path id="Trazado_780759" data-name="Trazado 780759" d="M202.06,248.7s4.37.68,3.79-3" fill="none" stroke="#313d67" stroke-linecap="round" stroke-linejoin="round" stroke-width="0.75"/>
                  <path id="Trazado_780760" data-name="Trazado 780760" d="M212.19,241.85s3.65.57,3.16-2.5" fill="none" stroke="#313d67" stroke-linecap="round" stroke-linejoin="round" stroke-width="0.75"/>
                  <path id="Trazado_780761" data-name="Trazado 780761" d="M210.83,250.69a6.359,6.359,0,0,0,5.96-3.89" fill="none" stroke="#f2aaaa" stroke-linecap="round" stroke-miterlimit="10" stroke-width="0.75"/>
                  <path id="Trazado_780762" data-name="Trazado 780762" d="M211.14,243.88s.7,1.36,1.78,1.08.87,1.38.87,1.38" fill="none" stroke="#313d67" stroke-linecap="round" stroke-linejoin="round" stroke-width="0.75"/>
                </g>
                <g id="Grupo_1046955" data-name="Grupo 1046955">
                  <path id="Trazado_780763" data-name="Trazado 780763" d="M207.99,253.9a3.43,3.43,0,1,1-3.43-3.43A3.429,3.429,0,0,1,207.99,253.9Z" fill="#f2aaaa"/>
                  <path id="Trazado_780764" data-name="Trazado 780764" d="M224.12,241.89a3.43,3.43,0,1,1-3.43-3.43A3.429,3.429,0,0,1,224.12,241.89Z" fill="#f2aaaa"/>
                </g>
              </g>
            </g>
          </g>
          <g id="Grupo_1046959" data-name="Grupo 1046959">
            <path id="Trazado_780765" data-name="Trazado 780765" d="M163.13,318.97c-1.66,8.42,73.02-.85,93.57-3.59l.33-15.17-61.12-4.54s-27.77-2.07-32.78,23.3Z" fill="#f5c3a2"/>
            <path id="Trazado_780766" data-name="Trazado 780766" d="M251.89,302l7.89-12.12,7.76-5.35s2.14,2.81-2.22,5.74-2.65,4.98-2.65,4.98,15.24-4.35,21.31-9.23,5.94-.69,3.18,3.86,2.4,7.12-3.04,11.76-27.13,13.63-27.13,13.63L251.88,302Z" fill="#f5c3a2"/>
          </g>
          <g id="Grupo_1046960" data-name="Grupo 1046960">
            <path id="Trazado_780767" data-name="Trazado 780767" d="M334.11,288.78c-3.35,8.87-17.46,44.25-28.92,46.22-13.91,2.4-80.3-23.4-80.3-23.4l3.29-13.83,68.64,5.07c1.8-5.3,5.76-14.94,6.91-20.96l30.37,6.9Z" fill="#f5d5c0"/>
            <path id="Trazado_780768" data-name="Trazado 780768" d="M228.18,297.77l-9.44-10.96-8.41-4.26s-1.74,3.07,2.97,5.39,3.29,4.58,3.29,4.58-15.69-2.27-22.35-6.29-5.98.11-2.64,4.25-1.42,7.38,4.58,11.25,28.71,9.88,28.71,9.88l3.29-13.83Z" fill="#f5d5c0"/>
          </g>
        </g>
        <path id="Trazado_780769" data-name="Trazado 780769" d="M361.07,370.31H138.94a2.691,2.691,0,0,1-2.69-2.69h0a2.691,2.691,0,0,1,2.69-2.69H361.07a2.691,2.691,0,0,1,2.69,2.69h0A2.691,2.691,0,0,1,361.07,370.31Z" fill="#355f85"/>
      </g>
      <g id="Grupo_1046965" data-name="Grupo 1046965" transform="translate(556.635 1185.145)" opacity="0.83">
        <g id="Grupo_1046963" data-name="Grupo 1046963">
          <path id="Trazado_780770" data-name="Trazado 780770" d="M51.69,171.98c9.65,0,9.67-15,0-15s-9.67,15,0,15Z" fill="#fff"/>
          <path id="Trazado_780771" data-name="Trazado 780771" d="M79.28,79.04c9.65,0,9.67-15,0-15s-9.67,15,0,15Z" fill="#fff"/>
          <path id="Trazado_780772" data-name="Trazado 780772" d="M38.73,343.21c9.65,0,9.67-15,0-15s-9.67,15,0,15Z" fill="#fff"/>
          <path id="Trazado_780773" data-name="Trazado 780773" d="M169.41,38.7h-.56a7.739,7.739,0,0,0-5.3,2.2A5.6,5.6,0,0,0,162,43.31a5.738,5.738,0,0,0-.65,2.89,7.552,7.552,0,0,0,2.2,5.3,7.784,7.784,0,0,0,5.3,2.2h.56a7.739,7.739,0,0,0,5.3-2.2,5.6,5.6,0,0,0,1.55-2.41,5.738,5.738,0,0,0,.65-2.89,7.552,7.552,0,0,0-2.2-5.3,7.784,7.784,0,0,0-5.3-2.2Z" fill="#fff"/>
          <path id="Trazado_780774" data-name="Trazado 780774" d="M27.47,110.09c3.22,0,3.22-5,0-5s-3.22,5,0,5Z" fill="#fff"/>
          <path id="Trazado_780775" data-name="Trazado 780775" d="M109.14,39.68c3.22,0,3.22-5,0-5s-3.22,5,0,5Z" fill="#fff"/>
          <path id="Trazado_780776" data-name="Trazado 780776" d="M91.36,132.37v-.56a2.5,2.5,0,0,0-5,0v.56a2.5,2.5,0,0,0,5,0Z" fill="#fff"/>
          <path id="Trazado_780777" data-name="Trazado 780777" d="M25.78,232.32c3.22,0,3.22-5,0-5s-3.22,5,0,5Z" fill="#fff"/>
          <path id="Trazado_780778" data-name="Trazado 780778" d="M85.97,344.08l-.56.56a2.5,2.5,0,1,0,3.54,3.54l.56-.56a2.5,2.5,0,0,0-3.54-3.54Z" fill="#fff"/>
          <path id="Trazado_780779" data-name="Trazado 780779" d="M76.55,242.13l-.56-.56a2.5,2.5,0,0,0-3.54,3.54l.56.56a2.5,2.5,0,0,0,3.54-3.54Z" fill="#fff"/>
        </g>
        <g id="Grupo_1046964" data-name="Grupo 1046964">
          <path id="Trazado_780780" data-name="Trazado 780780" d="M448.31,171.98c-9.65,0-9.67-15,0-15s9.67,15,0,15Z" fill="#fff"/>
          <path id="Trazado_780781" data-name="Trazado 780781" d="M420.72,79.04c-9.65,0-9.67-15,0-15s9.67,15,0,15Z" fill="#fff"/>
          <path id="Trazado_780782" data-name="Trazado 780782" d="M461.27,343.21c-9.65,0-9.67-15,0-15s9.67,15,0,15Z" fill="#fff"/>
          <path id="Trazado_780783" data-name="Trazado 780783" d="M330.59,38.7h.56a7.739,7.739,0,0,1,5.3,2.2A5.6,5.6,0,0,1,338,43.31a5.738,5.738,0,0,1,.65,2.89,7.552,7.552,0,0,1-2.2,5.3,7.784,7.784,0,0,1-5.3,2.2h-.56a7.739,7.739,0,0,1-5.3-2.2,5.6,5.6,0,0,1-1.55-2.41,5.738,5.738,0,0,1-.65-2.89,7.552,7.552,0,0,1,2.2-5.3,7.784,7.784,0,0,1,5.3-2.2Z" fill="#fff"/>
          <path id="Trazado_780784" data-name="Trazado 780784" d="M472.53,110.09c-3.22,0-3.22-5,0-5s3.22,5,0,5Z" fill="#fff"/>
          <path id="Trazado_780785" data-name="Trazado 780785" d="M390.86,39.68c-3.22,0-3.22-5,0-5s3.22,5,0,5Z" fill="#fff"/>
          <path id="Trazado_780786" data-name="Trazado 780786" d="M408.64,132.37v-.56a2.5,2.5,0,1,1,5,0v.56a2.5,2.5,0,0,1-5,0Z" fill="#fff"/>
          <path id="Trazado_780787" data-name="Trazado 780787" d="M474.22,232.32c-3.22,0-3.22-5,0-5s3.22,5,0,5Z" fill="#fff"/>
          <path id="Trazado_780788" data-name="Trazado 780788" d="M414.03,344.08l.56.56a2.5,2.5,0,0,1-3.54,3.54l-.56-.56a2.5,2.5,0,0,1,3.54-3.54Z" fill="#fff"/>
          <path id="Trazado_780789" data-name="Trazado 780789" d="M423.45,242.13l.56-.56a2.5,2.5,0,0,1,3.54,3.54l-.56.56a2.5,2.5,0,0,1-3.54-3.54Z" fill="#fff"/>
        </g>
      </g>
      <path id="Trazado_780790" data-name="Trazado 780790" d="M198.21,260.4c1.49,1.34,3.81,3.51,2.7,4.74s-3.67,1.14-5.16-.2-3.37-3.45-2.27-4.68a3.387,3.387,0,0,1,4.73.14Z" transform="translate(556.635 1185.145)" fill="#f2aaaa"/>
    </g>
  </g>
</svg>
