<svg xmlns="http://www.w3.org/2000/svg" width="68.375" height="68.375" viewBox="0 0 68.375 68.375">
  <g id="Grupo_1063932" data-name="Grupo 1063932" transform="translate(-598.411 -879.327)">
    <circle id="Elipse_4807" data-name="Elipse 4807" cx="34.188" cy="34.188" r="34.188" transform="translate(598.411 879.327)" fill="#32cfc0"/>
    <g id="recien-nacido_1_" data-name="recien-nacido (1)" transform="translate(608.689 894.586)">
      <g id="Grupo_1046973" data-name="Grupo 1046973" transform="translate(0.7 0.701)">
        <path id="Trazado_780922" data-name="Trazado 780922" d="M43.759,207.515a1.38,1.38,0,0,0,1.484.187c5.225-3.261,13.511-9.867,13.511-9.867-.029-.007-29.281-13.777-36.112-16.992C22.642,189.714,29.206,197.639,43.759,207.515Z" transform="translate(-21.228 -166.89)" fill="#ffcbce"/>
        <path id="Trazado_780923" data-name="Trazado 780923" d="M31.515,200.306a1.38,1.38,0,0,1-1.484-.187c-14.553-9.876-20.806-17.328-21.117-25.738L7.5,173.715c0,9.217,6.573,17.658,22.421,28.413a1.4,1.4,0,0,0,1.574,0,95.278,95.278,0,0,0,13.53-10.756s-8.285,5.673-13.511,8.933Z" transform="translate(-7.5 -160.428)" fill="#ffb3b7"/>
        <path id="Trazado_780924" data-name="Trazado 780924" d="M49.7,31.442a13.254,13.254,0,0,0-9.921,4.45,13.285,13.285,0,0,0-19.6-.26c-2,2.761-2.67,5.242-2.67,9.1,0,4.681,3.876,9.021,8.781,10.2,4.3,1.033,20.132,4.27,28.921,6.324,5.385-5.678,7.781-10.96,7.781-16.523A13.288,13.288,0,0,0,49.7,31.442Z" transform="translate(-16.566 -31.442)" fill="#ff9a9f"/>
        <path id="Trazado_780925" data-name="Trazado 780925" d="M8.9,85.4a19.589,19.589,0,0,1,2.2-9.1,13.24,13.24,0,0,0-3.6,9.1c0,5.229,3.564,9.656,9.715,11.133,6.046,1.452,13.055,2.411,13.055,2.411l12.087,3.492,2.67.622q.575-.57,1.11-1.134c-8.789-2.054-24.622-5.758-28.921-6.791C12.31,93.953,8.9,90.08,8.9,85.4Z" transform="translate(-7.5 -72.111)" fill="#ff8086"/>
        <path id="Trazado_780926" data-name="Trazado 780926" d="M135.331,129.5a3.078,3.078,0,0,0-2.067-2.907l.5-1.309a5.638,5.638,0,0,0-1.059-4.966c.682-1.79-.322-2.956-2.076-2.926a11.842,11.842,0,0,0-18-6.288,10.934,10.934,0,0,0-3.884,5.831,15.853,15.853,0,0,0,1.145,9.487l19.95,4.735,5.117-.189A3.062,3.062,0,0,0,135.331,129.5Z" transform="translate(-99.024 -101.793)" fill="#ffcdbe"/>
        <path id="Trazado_780927" data-name="Trazado 780927" d="M119.628,149.691c0-.037,0-.073,0-.11a3.077,3.077,0,0,1,4.088-2.907,6.42,6.42,0,0,0,.5-1.309,4.478,4.478,0,0,0-5.983,4l-5.988-1.408a2.37,2.37,0,0,1-2.445.792,3,3,0,0,1-2.14-1.87l-7.069-1.662a11.918,11.918,0,0,1-.926-8.2,11.785,11.785,0,0,1,3.417-5.831,11.839,11.839,0,0,0-3.892,15.105l25.141,5.9a3.093,3.093,0,0,0,1.079-1.145Z" transform="translate(-89.472 -121.87)" fill="#ebae9d"/>
      </g>
      <g id="Grupo_1046974" data-name="Grupo 1046974" transform="translate(0 0)">
        <path id="Trazado_780928" data-name="Trazado 780928" d="M23.909,67.288a2.1,2.1,0,0,1-1.181-.365c-2.4-1.626-4.606-3.218-6.566-4.732a.7.7,0,1,1,.856-1.109c1.937,1.5,4.123,3.071,6.5,4.681a.707.707,0,0,0,.788,0,99.708,99.708,0,0,0,12.511-9.786c-3.527-.821-13.686-3.189-20.11-4.709a.7.7,0,1,1,.322-1.363l1.345.318a3.738,3.738,0,0,1-.264-2.523,3.1,3.1,0,0,1,3.741-2.266.7.7,0,0,1-.334,1.361,1.693,1.693,0,0,0-2.046,1.239,2.357,2.357,0,0,0,1.725,2.848,1.692,1.692,0,0,0,2.046-1.239.7.7,0,1,1,1.36.334,3.071,3.071,0,0,1-.872,1.5c2.2.515,4.435,1.039,6.481,1.516a3.78,3.78,0,0,1,4.338-4.374,5,5,0,0,0,.36-2.414,5.792,5.792,0,0,1-3.131.242.7.7,0,1,1,.307-1.367,4.124,4.124,0,0,0,2.473-.251,5.107,5.107,0,0,0-.718-1.226.7.7,0,0,1-.109-.689,1.567,1.567,0,0,0-.011-1.45,1.626,1.626,0,0,0-1.4-.526h-.012a.7.7,0,0,1-.669-.493A11.141,11.141,0,1,0,10.9,48.459c.929.223,2.087.5,3.45.82a.7.7,0,0,1-.322,1.363c-1.513-.358-2.776-.658-3.752-.893l-.046-.011a14.334,14.334,0,0,1-6.992-3.813c2.06,4.381,5.9,8.772,11.776,13.565a.7.7,0,0,1-.886,1.085C4.357,52.6,0,45.62,0,37.93a13.987,13.987,0,0,1,23.909-9.859,13.992,13.992,0,0,1,17.043-2.183.7.7,0,1,1-.714,1.205,12.591,12.591,0,0,0-15.805,2.465.7.7,0,0,1-1.046,0A12.586,12.586,0,0,0,1.4,37.93c0,4.657,2.946,8.406,7.787,10.051a12.542,12.542,0,1,1,23.631-8.413,2.573,2.573,0,0,1,2.343,3.476,6.4,6.4,0,0,1,.7,6.064,3.78,3.78,0,0,1,1.123,5.472l1.02.237a42.6,42.6,0,0,0,3.3-3.69c3.444-4.377,5.117-8.694,5.117-13.2a12.609,12.609,0,0,0-4.181-9.369.7.7,0,0,1,.936-1.042A14.012,14.012,0,0,1,47.818,37.93c0,4.829-1.772,9.429-5.417,14.063a44.5,44.5,0,0,1-3.636,4.044.7.7,0,0,1-.094.093A96.569,96.569,0,0,1,25.089,66.923,2.1,2.1,0,0,1,23.909,67.288Zm7.87-13.922,3.632.847a2.376,2.376,0,1,0-3.632-.847ZM27.829,44.1a2.343,2.343,0,0,1-.976-.213.7.7,0,1,1,.582-1.274.957.957,0,0,0,1.267-.472.7.7,0,1,1,1.274.582A2.36,2.36,0,0,1,27.829,44.1Z" transform="translate(0 -23.942)"/>
      </g>
    </g>
  </g>
</svg>
