<svg xmlns="http://www.w3.org/2000/svg" width="190" height="173" viewBox="0 0 190 173">
  <g id="Grupo_1064330" data-name="Grupo 1064330" transform="translate(-285 -1643.589)">
    <path id="Trazado_781493" data-name="Trazado 781493" d="M0,0H190V173H0Z" transform="translate(285 1643.589)" fill="#a7c6c5"/>
    <g id="FILLED_OUTLINE" data-name="FILLED OUTLINE" transform="translate(304.563 1660.497)">
      <path id="Trazado_781494" data-name="Trazado 781494" d="M387.887,256h0A11.887,11.887,0,0,0,376,267.887V287.7h23.775V267.887A11.887,11.887,0,0,0,387.887,256Z" transform="translate(-270.844 -185.202)" fill="#f4edea"/>
      <path id="Trazado_781495" data-name="Trazado 781495" d="M396.774,301.118l-1.922-.481a3.962,3.962,0,0,1-3-3.844v-4.831a3.962,3.962,0,0,0-7.925,0v4.831a3.963,3.963,0,0,1-3,3.844l-1.922.481a3.962,3.962,0,0,0-3,3.844v6.812h23.775v-6.812a3.962,3.962,0,0,0-3-3.844Z" transform="translate(-270.844 -209.277)" fill="#e8cbbf"/>
      <path id="Trazado_781496" data-name="Trazado 781496" d="M219.887,200h0A11.887,11.887,0,0,0,208,211.887V231.7h23.775V211.887A11.887,11.887,0,0,0,219.887,200Z" transform="translate(-144.45 -143.071)" fill="#f4edea"/>
      <path id="Trazado_781497" data-name="Trazado 781497" d="M228.774,245.118l-1.922-.481a3.962,3.962,0,0,1-3-3.844v-4.831a3.962,3.962,0,0,0-7.925,0v4.831a3.963,3.963,0,0,1-3,3.844l-1.922.481a3.962,3.962,0,0,0-3,3.844v6.812h23.775v-6.812a3.962,3.962,0,0,0-3-3.844Z" transform="translate(-144.451 -167.146)" fill="#e8cbbf"/>
      <rect id="Rectángulo_373404" data-name="Rectángulo 373404" width="31.7" height="41.606" rx="15.85" transform="translate(59.587 86.648)" fill="#e7dcd5"/>
      <path id="Trazado_781498" data-name="Trazado 781498" d="M51.888,96h0A11.887,11.887,0,0,0,40,107.887v21.794H63.775V107.887A11.887,11.887,0,0,0,51.888,96Z" transform="translate(-18.056 -64.827)" fill="#f4edea"/>
      <path id="Trazado_781499" data-name="Trazado 781499" d="M171.847,64.274,141.476,33.9,121.791,51.62,74.9,12.888l2.524-3.055L121.68,46.388l19.94-17.946,33.029,33.029Z" transform="translate(-44.317)" fill="#c69079"/>
      <path id="Trazado_781500" data-name="Trazado 781500" d="M437.869,189.869H424v-3.962h9.906V176h3.962Z" transform="translate(-306.957 -125.015)" fill="#c69079"/>
      <path id="Trazado_781501" data-name="Trazado 781501" d="M60.774,141.118l-1.922-.481a3.963,3.963,0,0,1-3-3.844v-4.831a3.962,3.962,0,0,0-7.925,0v4.831a3.963,3.963,0,0,1-3,3.844L43,141.118a3.962,3.962,0,0,0-3,3.844v8.794H63.776v-8.794a3.962,3.962,0,0,0-3-3.844Z" transform="translate(-18.057 -88.902)" fill="#e8cbbf"/>
      <path id="Trazado_781502" data-name="Trazado 781502" d="M280,352h3.962v17.831H280Z" transform="translate(-198.619 -257.427)" fill="#f4edea"/>
      <rect id="Rectángulo_373405" data-name="Rectángulo 373405" width="31.7" height="27.737" rx="13.869" transform="translate(101.194 100.516)" fill="#e7dcd5"/>
      <g id="Grupo_1063969" data-name="Grupo 1063969" transform="translate(81.381 106.46)">
        <path id="Trazado_781503" data-name="Trazado 781503" d="M448,400h3.962v7.925H448Z" transform="translate(-406.394 -400)" fill="#f4edea"/>
        <path id="Trazado_781504" data-name="Trazado 781504" d="M280,440h3.962v5.944H280Z" transform="translate(-280 -430.094)" fill="#f4edea"/>
        <path id="Trazado_781505" data-name="Trazado 781505" d="M448,448h3.962v3.962H448Z" transform="translate(-406.394 -436.113)" fill="#f4edea"/>
      </g>
      <rect id="Rectángulo_373406" data-name="Rectángulo 373406" width="31.7" height="65.381" rx="15.85" transform="translate(17.981 62.873)" fill="#e7dcd5"/>
      <path id="Trazado_781506" data-name="Trazado 781506" d="M112,256h3.962v41.606H112Z" transform="translate(-72.225 -185.202)" fill="#f4edea"/>
      <path id="Trazado_781507" data-name="Trazado 781507" d="M112,440h3.962v5.944H112Z" transform="translate(-72.225 -323.634)" fill="#f4edea"/>
      <path id="Trazado_781508" data-name="Trazado 781508" d="M161.36,60.891v3.962h13.869V50.985h-3.962v7.1L141.62,28.443,121.68,46.388,77.429,9.833,74.9,12.888,121.791,51.62,141.476,33.9l26.989,26.989Z" transform="translate(-44.317 0)"/>
      <path id="Trazado_781509" data-name="Trazado 781509" d="M47.7,121.687V101.869a13.869,13.869,0,0,0-27.737,0v19.818A9.9,9.9,0,0,0,16,129.606v49.531a9.917,9.917,0,0,0,9.906,9.906h15.85a9.917,9.917,0,0,0,9.906-9.906V129.606a9.9,9.9,0,0,0-3.962-7.919ZM23.925,101.869a9.906,9.906,0,1,1,19.812,0v7.4c-.176-.062-.355-.118-.54-.164l-1.922-.481a1.978,1.978,0,0,1-1.5-1.922v-4.831a5.944,5.944,0,1,0-11.887,0V106.7a1.978,1.978,0,0,1-1.5,1.922l-1.922.481c-.184.046-.364.1-.54.164Zm0,13.869v-.869a1.978,1.978,0,0,1,1.5-1.922l1.922-.481a5.935,5.935,0,0,0,4.5-5.766v-4.831a1.981,1.981,0,0,1,3.962,0V106.7a5.935,5.935,0,0,0,4.5,5.766l1.922.481a1.978,1.978,0,0,1,1.5,1.922V119.9a9.913,9.913,0,0,0-1.981-.2H25.906a9.913,9.913,0,0,0-1.981.2Zm23.775,63.4a5.951,5.951,0,0,1-5.944,5.944H25.906a5.951,5.951,0,0,1-5.944-5.944V129.606a5.951,5.951,0,0,1,5.944-5.944h15.85a5.951,5.951,0,0,1,5.944,5.944Z" transform="translate(0 -58.809)"/>
      <path id="Trazado_781510" data-name="Trazado 781510" d="M112,256h3.962v41.606H112Z" transform="translate(-72.225 -185.202)"/>
      <path id="Trazado_781511" data-name="Trazado 781511" d="M280,352h3.962v17.831H280Z" transform="translate(-198.619 -257.427)"/>
      <path id="Trazado_781512" data-name="Trazado 781512" d="M215.7,223.705V205.869a13.869,13.869,0,1,0-27.737,0v17.837a9.9,9.9,0,0,0-3.962,7.92v25.756a9.917,9.917,0,0,0,9.906,9.906h15.85a9.917,9.917,0,0,0,9.906-9.906V231.625a9.9,9.9,0,0,0-3.962-7.919Zm-23.775-17.837a9.906,9.906,0,1,1,19.812,0v7.4c-.176-.062-.355-.118-.54-.164l-1.922-.481a1.978,1.978,0,0,1-1.5-1.922v-4.831a5.944,5.944,0,1,0-11.887,0V210.7a1.978,1.978,0,0,1-1.5,1.922l-1.922.481c-.184.046-.364.1-.54.164Zm0,13.869v-.869a1.978,1.978,0,0,1,1.5-1.922l1.922-.481a5.935,5.935,0,0,0,4.5-5.766v-4.831a1.981,1.981,0,1,1,3.962,0V210.7a5.935,5.935,0,0,0,4.5,5.766l1.922.481a1.978,1.978,0,0,1,1.5,1.922v3.049a9.914,9.914,0,0,0-1.981-.2h-15.85a9.914,9.914,0,0,0-1.981.2ZM215.7,257.381a5.951,5.951,0,0,1-5.944,5.944h-15.85a5.951,5.951,0,0,1-5.944-5.944V231.625a5.951,5.951,0,0,1,5.944-5.944h15.85a5.951,5.951,0,0,1,5.944,5.944Z" transform="translate(-126.394 -137.052)"/>
      <path id="Trazado_781513" data-name="Trazado 781513" d="M383.7,279.705V261.869a13.869,13.869,0,1,0-27.737,0v17.837a9.9,9.9,0,0,0-3.962,7.92v11.887a9.917,9.917,0,0,0,9.906,9.906h15.85a9.917,9.917,0,0,0,9.906-9.906V287.625a9.9,9.9,0,0,0-3.962-7.919Zm-23.775-17.837a9.906,9.906,0,0,1,19.812,0v7.4c-.176-.062-.355-.118-.54-.164l-1.922-.481a1.978,1.978,0,0,1-1.5-1.922v-4.831a5.944,5.944,0,1,0-11.887,0V266.7a1.978,1.978,0,0,1-1.5,1.922l-1.922.481c-.184.046-.364.1-.54.164Zm0,13.869v-.869a1.978,1.978,0,0,1,1.5-1.922l1.922-.481a5.935,5.935,0,0,0,4.5-5.766v-4.831a1.981,1.981,0,1,1,3.962,0V266.7a5.935,5.935,0,0,0,4.5,5.766l1.922.481a1.978,1.978,0,0,1,1.5,1.922v3.049a9.913,9.913,0,0,0-1.981-.2h-15.85a9.913,9.913,0,0,0-1.981.2ZM383.7,299.513a5.95,5.95,0,0,1-5.944,5.944h-15.85a5.95,5.95,0,0,1-5.944-5.944V287.625a5.95,5.95,0,0,1,5.944-5.944h15.85a5.95,5.95,0,0,1,5.944,5.944Z" transform="translate(-252.788 -179.184)"/>
      <path id="Trazado_781514" data-name="Trazado 781514" d="M448,400h3.962v7.925H448Z" transform="translate(-325.013 -293.54)"/>
      <path id="Trazado_781515" data-name="Trazado 781515" d="M112,440h3.962v5.944H112Z" transform="translate(-72.225 -323.634)"/>
      <path id="Trazado_781516" data-name="Trazado 781516" d="M280,440h3.962v5.944H280Z" transform="translate(-198.619 -323.634)"/>
      <path id="Trazado_781517" data-name="Trazado 781517" d="M448,448h3.962v3.962H448Z" transform="translate(-325.013 -329.652)"/>
    </g>
  </g>
</svg>
