<svg xmlns="http://www.w3.org/2000/svg" width="78.757" height="76.724" viewBox="0 0 78.757 76.724">
  <g id="salud-mental" transform="translate(-5.5 -11.967)">
    <g id="Grupo_1044019" data-name="Grupo 1044019" transform="translate(5.5 11.967)">
      <path id="Trazado_773603" data-name="Trazado 773603" d="M210.22,13.968h0a5.593,5.593,0,0,1,5.593,5.593v.982h3.308a6.1,6.1,0,0,1,6.1,6.1h0a6.094,6.094,0,0,1-2.492,4.919h4.043a8.842,8.842,0,0,1,8.842,8.842h0a8.845,8.845,0,0,1-7.062,8.663,6.093,6.093,0,0,1,2.5,4.928h0a6.1,6.1,0,0,1-6.1,6.1h-4.833a7.747,7.747,0,1,1-15.494,0V19.561A5.593,5.593,0,0,1,210.22,13.968Z" transform="translate(-173.324 -13.653)" fill="#fe93bb"/>
      <path id="Trazado_773604" data-name="Trazado 773604" d="M214.557,67.535a7.752,7.752,0,0,1-9.929-7.435V19.561a5.594,5.594,0,0,1,7.775-5.15,5.593,5.593,0,0,0-3.411,5.15V60.1A7.75,7.75,0,0,0,214.557,67.535Z" transform="translate(-173.325 -13.653)" fill="#fe76a8"/>
      <path id="Trazado_773605" data-name="Trazado 773605" d="M38.488,19.561V60.1a7.747,7.747,0,0,1-15.494,0H18.161a6.1,6.1,0,0,1-3.6-11.031,8.843,8.843,0,0,1,1.78-17.5h4.043A6.1,6.1,0,0,1,24,20.542H27.3v-.981a5.593,5.593,0,1,1,11.186,0Z" transform="translate(-7.186 -13.653)" fill="#fe93bb"/>
      <path id="Trazado_773606" data-name="Trazado 773606" d="M115.694,296.764a7.757,7.757,0,0,1-9.629-7.634v-3.275h.372a3.392,3.392,0,0,1,3.392,3.392h0A7.75,7.75,0,0,0,115.694,296.764Z" transform="translate(-90.256 -242.8)" fill="#fe76a8"/>
      <path id="Trazado_773607" data-name="Trazado 773607" d="M16.452,138.854a4.558,4.558,0,0,0,4.558,4.558H14.562a8.843,8.843,0,0,1,1.78-17.5H21.01a4.194,4.194,0,0,0,0,8.389A4.558,4.558,0,0,0,16.452,138.854Z" transform="translate(-7.186 -107.996)" fill="#fe76a8"/>
      <path id="Trazado_773608" data-name="Trazado 773608" d="M91.737,14.924a4.134,4.134,0,0,0-5.019,3.543q0,.024-.005.048a2.25,2.25,0,0,1-2.233,2.029h-.974a6.17,6.17,0,0,0-6.2,6,6.077,6.077,0,0,0,.679,2.9,6.144,6.144,0,0,0,1.812,2.12H76.1a6.143,6.143,0,0,1-1.812-2.12,6.1,6.1,0,0,1,5.423-8.9h3.307v-.879a5.659,5.659,0,0,1,5.512-5.694A5.552,5.552,0,0,1,91.737,14.924Z" transform="translate(-62.905 -13.655)" fill="#fe76a8"/>
      <path id="Trazado_773609" data-name="Trazado 773609" d="M48.985,248.291H42.6A6.1,6.1,0,0,1,39,237.26h6.388a6.1,6.1,0,0,0,3.6,11.031Z" transform="translate(-31.622 -201.844)" fill="#fe76a8"/>
      <path id="Trazado_773610" data-name="Trazado 773610" d="M82.084,21.16a.314.314,0,0,1-.232-.526,6.433,6.433,0,0,1,2.105-1.526,6.366,6.366,0,0,1,2.632-.563h2.993v-.667a5.908,5.908,0,1,1,11.815,0,.314.314,0,1,1-.629,0,5.279,5.279,0,1,0-10.558,0v.981a.314.314,0,0,1-.314.314H86.59a5.77,5.77,0,0,0-4.273,1.885A.314.314,0,0,1,82.084,21.16Z" transform="translate(-69.78 -11.97)"/>
      <path id="Trazado_773611" data-name="Trazado 773611" d="M29.056,139.127A8.055,8.055,0,0,1,21,131.38H16.476a6.411,6.411,0,0,1-6.417-6.417,6.4,6.4,0,0,1,2.128-4.772A9.089,9.089,0,0,1,9.91,119.2a9.155,9.155,0,0,1,4.747-16.987h3.185a6.471,6.471,0,0,1-1.235-1.66,6.323,6.323,0,0,1-.648-2.028.314.314,0,0,1,.623-.088,5.7,5.7,0,0,0,.584,1.827,5.847,5.847,0,0,0,1.72,2.011.314.314,0,0,1-.186.568H14.657A8.488,8.488,0,0,0,9.889,104.3a8.552,8.552,0,0,0-3.09,3.752,8.532,8.532,0,0,0,6.142,11.674.314.314,0,0,1,.123.562,5.838,5.838,0,0,0-1.728,2.012,5.751,5.751,0,0,0-.479,1.27,5.814,5.814,0,0,0-.169,1.393,5.784,5.784,0,0,0,5.788,5.788h4.832a.314.314,0,0,1,.314.314,7.427,7.427,0,0,0,7.434,7.432,7.468,7.468,0,0,0,1.748-.207,7.37,7.37,0,0,0,1.6-.588.314.314,0,0,1,.284.561,8,8,0,0,1-1.735.638A8.1,8.1,0,0,1,29.056,139.127Z" transform="translate(-5.5 -84.619)"/>
      <path id="Trazado_773612" data-name="Trazado 773612" d="M74.627,108.473H65.08a.314.314,0,1,1,0-.629h9.547a6.16,6.16,0,1,0,0-12.32h-.6a.314.314,0,0,1,0-.629h.6a6.789,6.789,0,1,1,0,13.578Z" transform="translate(-55.449 -81.859)"/>
      <path id="Trazado_773613" data-name="Trazado 773613" d="M67.429,245.921a.314.314,0,0,1-.314-.314V243A7.106,7.106,0,0,0,60,235.888H50.74a.314.314,0,0,1,0-.629H60A7.735,7.735,0,0,1,67.744,243v2.606A.314.314,0,0,1,67.429,245.921Z" transform="translate(-43.364 -200.158)"/>
      <path id="Línea_154" data-name="Línea 154" d="M2-1.371H-1.686A.314.314,0,0,1-2-1.686.314.314,0,0,1-1.686-2H2a.314.314,0,0,1,.314.314A.314.314,0,0,1,2-1.371Z" transform="translate(14.884 19.597)"/>
      <path id="Línea_155" data-name="Línea 155" d="M-1.686,2.02A.314.314,0,0,1-2,1.706V-1.686A.314.314,0,0,1-1.686-2a.314.314,0,0,1,.314.314V1.706A.314.314,0,0,1-1.686,2.02Z" transform="translate(17.494 44.741)"/>
      <path id="Trazado_773614" data-name="Trazado 773614" d="M166.028,211.5a.315.315,0,0,1-.294-.2,5.654,5.654,0,0,0-5.282-3.636H159.6a.314.314,0,0,1,0-.629h.847a6.242,6.242,0,0,1,3.6,1.135,6.3,6.3,0,0,1,2.268,2.907.315.315,0,0,1-.294.427Z" transform="translate(-135.114 -176.366)"/>
      <path id="Trazado_773615" data-name="Trazado 773615" d="M170.958,61.541a6.275,6.275,0,0,1-6.28-6.279.314.314,0,1,1,.629,0,5.646,5.646,0,0,0,5.651,5.65.314.314,0,0,1,0,.629Z" transform="translate(-139.655 -48.191)"/>
      <path id="Trazado_773616" data-name="Trazado 773616" d="M202.944,46.65a.314.314,0,0,1-.314-.314V17.875a5.907,5.907,0,1,1,11.814,0v.668h2.993a6.413,6.413,0,0,1,4.877,10.586q-.194.227-.409.435h3.186a9.116,9.116,0,0,1,5.119,1.564,9.183,9.183,0,0,1,3.318,4.028,9.186,9.186,0,0,1,.087,6.916.314.314,0,0,1-.585-.23,8.515,8.515,0,0,0-.867-7.89,8.555,8.555,0,0,0-3.753-3.09,8.474,8.474,0,0,0-3.319-.67h-4.043a.314.314,0,0,1-.186-.568,5.852,5.852,0,0,0,1.72-2.01,5.786,5.786,0,0,0-5.144-8.443h-3.307a.314.314,0,0,1-.314-.314v-.982a5.278,5.278,0,1,0-10.556,0V46.336A.314.314,0,0,1,202.944,46.65Z" transform="translate(-171.641 -11.967)"/>
      <path id="Trazado_773617" data-name="Trazado 773617" d="M254.908,108.473h-9.547a6.789,6.789,0,1,1,0-13.578h.6a.314.314,0,1,1,0,.629h-.6a6.16,6.16,0,1,0,0,12.32h9.547a.314.314,0,0,1,0,.629Z" transform="translate(-201.933 -81.859)"/>
      <path id="Línea_156" data-name="Línea 156" d="M2-1.371H-1.686A.314.314,0,0,1-2-1.686.314.314,0,0,1-1.686-2H2a.314.314,0,0,1,.314.314A.314.314,0,0,1,2-1.371Z" transform="translate(47.404 19.597)"/>
      <path id="Trazado_773618" data-name="Trazado 773618" d="M202.942,61.541a.314.314,0,1,1,0-.629,5.646,5.646,0,0,0,5.651-5.65.314.314,0,1,1,.629,0,6.275,6.275,0,0,1-6.28,6.279Z" transform="translate(-171.64 -48.191)"/>
    </g>
    <g id="Grupo_1044020" data-name="Grupo 1044020" transform="translate(32.821 41.395)">
      <path id="Trazado_773619" data-name="Trazado 773619" d="M227.97,205.3h0a14.119,14.119,0,0,0-19.968,0l-1.3,1.3-1.3-1.3a14.119,14.119,0,0,0-19.968,0h0a14.12,14.12,0,0,0,0,19.968l16.341,16.341a6.967,6.967,0,0,0,9.853,0L227.97,225.27A14.119,14.119,0,0,0,227.97,205.3Z" transform="translate(-180.984 -200.852)" fill="#fd4755"/>
      <path id="Trazado_773619_-_Contorno" data-name="Trazado 773619 - Contorno" d="M193.732,199.166a14.457,14.457,0,0,1,5.431,1.057,14.364,14.364,0,0,1,2.511,1.321,14.539,14.539,0,0,1,2.264,1.849l1.078,1.078,1.078-1.078a14.539,14.539,0,0,1,2.264-1.849,14.357,14.357,0,0,1,5.186-2.114,14.475,14.475,0,0,1,8.188.793,14.363,14.363,0,0,1,2.511,1.321,14.572,14.572,0,0,1,4.113,4.113,14.357,14.357,0,0,1,2.114,5.186,14.475,14.475,0,0,1-.793,8.188,14.362,14.362,0,0,1-1.321,2.511,14.539,14.539,0,0,1-1.849,2.264l-16.341,16.341a7.276,7.276,0,0,1-10.3,0l-16.341-16.341a14.539,14.539,0,0,1-1.849-2.264,14.356,14.356,0,0,1-2.114-5.186,14.475,14.475,0,0,1,.793-8.188,14.365,14.365,0,0,1,1.321-2.511,14.573,14.573,0,0,1,4.113-4.113,14.356,14.356,0,0,1,5.186-2.114A14.534,14.534,0,0,1,193.732,199.166Zm11.284,6.194-1.522-1.522a13.909,13.909,0,0,0-2.166-1.769,13.728,13.728,0,0,0-4.959-2.021,13.846,13.846,0,0,0-7.832.758,13.734,13.734,0,0,0-2.4,1.263A13.944,13.944,0,0,0,182.2,206a13.728,13.728,0,0,0-2.021,4.959,13.846,13.846,0,0,0,.758,7.832,13.736,13.736,0,0,0,1.263,2.4,13.911,13.911,0,0,0,1.769,2.166L200.312,239.7a6.647,6.647,0,0,0,9.409,0l16.341-16.341a13.909,13.909,0,0,0,1.769-2.166,13.728,13.728,0,0,0,2.022-4.959,13.846,13.846,0,0,0-.758-7.832,13.732,13.732,0,0,0-1.263-2.4,13.943,13.943,0,0,0-3.935-3.935,13.727,13.727,0,0,0-4.959-2.021,13.846,13.846,0,0,0-7.832.758,13.735,13.735,0,0,0-2.4,1.263,13.909,13.909,0,0,0-2.166,1.769Z" transform="translate(-179.298 -199.166)" fill="#fe646f"/>
      <path id="Trazado_773620" data-name="Trazado 773620" d="M207.565,243.6a6.95,6.95,0,0,1-5.783-1.987L185.44,225.271A14.121,14.121,0,0,1,198.886,201.6a14.133,14.133,0,0,0-7.939,12.71,14.06,14.06,0,0,0,2.146,7.467l12.244,19.6A6.94,6.94,0,0,0,207.565,243.6Z" transform="translate(-180.99 -200.853)" fill="#fb2b3a"/>
      <path id="Trazado_773621" data-name="Trazado 773621" d="M180.935,219.887a.314.314,0,0,1-.285-.182,14.434,14.434,0,0,1,23.29-16.311l1.078,1.078,1.078-1.078a14.539,14.539,0,0,1,2.232-1.827,14.357,14.357,0,0,1,5.107-2.113,14.483,14.483,0,0,1,8.086.686,14.371,14.371,0,0,1,4.756,3.028.314.314,0,1,1-.435.454,13.792,13.792,0,0,0-19.3.217l-1.3,1.3a.314.314,0,0,1-.445,0l-1.3-1.3a13.909,13.909,0,0,0-2.166-1.769,13.731,13.731,0,0,0-4.959-2.021,13.847,13.847,0,0,0-7.832.758,13.731,13.731,0,0,0-2.4,1.263,13.942,13.942,0,0,0-3.935,3.935,13.729,13.729,0,0,0-2.022,4.959,13.838,13.838,0,0,0,1.038,8.476.315.315,0,0,1-.285.447Z" transform="translate(-179.3 -199.167)"/>
      <path id="Trazado_773622" data-name="Trazado 773622" d="M240.323,287.39a7.26,7.26,0,0,1-5.149-2.133l-13.892-13.892a.314.314,0,0,1,.445-.445l13.892,13.892a6.647,6.647,0,0,0,9.409,0l16.341-16.341a13.82,13.82,0,0,0,2.87-15.341.314.314,0,0,1,.575-.254,14.417,14.417,0,0,1-3,16.039l-16.341,16.341a7.26,7.26,0,0,1-5.149,2.133Z" transform="translate(-214.605 -244.276)"/>
    </g>
    <g id="Grupo_1044021" data-name="Grupo 1044021" transform="translate(14.816 60.277)">
      <path id="Trazado_773623" data-name="Trazado 773623" d="M79.19,349.069a3.867,3.867,0,0,1-3.126-1.591l-8.558-11.751a3.867,3.867,0,1,1,6.252-4.553l4.761,6.538,6.9-14.246a3.867,3.867,0,1,1,6.961,3.371l-9.708,20.05a3.868,3.868,0,0,1-3.136,2.167C79.42,349.064,79.305,349.069,79.19,349.069Z" transform="translate(-66.45 -320.97)" fill="#6fd7a3"/>
      <path id="Trazado_773624" data-name="Trazado 773624" d="M77.5,347.7a4.181,4.181,0,0,1-3.381-1.72l-8.558-11.751a4.182,4.182,0,1,1,6.762-4.923l4.451,6.114,6.669-13.773a4.182,4.182,0,1,1,7.528,3.644l-6.813,14.068a.314.314,0,0,1-.566-.274l6.813-14.068a3.553,3.553,0,1,0-6.4-3.1l-6.9,14.245a.314.314,0,0,1-.537.048l-4.76-6.538a3.553,3.553,0,1,0-5.745,4.182l8.558,11.751a3.552,3.552,0,0,0,2.873,1.462c.11,0,.215,0,.314-.014h0a3.553,3.553,0,0,0,2.881-1.99l.506-1.045a.314.314,0,1,1,.566.274l-.506,1.045a4.182,4.182,0,0,1-3.39,2.342C77.756,347.692,77.631,347.7,77.5,347.7Z" transform="translate(-64.761 -319.285)"/>
    </g>
  </g>
</svg>
