<svg xmlns="http://www.w3.org/2000/svg" width="85" height="11.086" viewBox="0 0 85 11.086">
  <path id="Trazado_772540" data-name="Trazado 772540" d="M177.828,97.466c-3.343,0-4.994-2.669-6.319-4.814-1.343-2.171-2.253-3.5-3.964-3.5s-2.62,1.33-3.96,3.5c-1.326,2.145-2.976,4.814-6.318,4.814s-4.994-2.669-6.319-4.814c-1.341-2.171-2.251-3.5-3.961-3.5s-2.618,1.33-3.96,3.5c-1.326,2.145-2.976,4.814-6.318,4.814s-4.992-2.669-6.316-4.814c-1.341-2.171-2.249-3.5-3.958-3.5s-2.617,1.33-3.958,3.5c-1.326,2.145-2.974,4.814-6.316,4.814s-4.991-2.669-6.316-4.814c-1.341-2.171-2.249-3.5-3.958-3.5a1.386,1.386,0,1,1,0-2.771c3.34,0,4.991,2.67,6.316,4.816,1.34,2.169,2.249,3.5,3.958,3.5s2.617-1.33,3.958-3.5c1.326-2.145,2.976-4.816,6.316-4.816s4.991,2.67,6.315,4.814c1.341,2.171,2.249,3.5,3.96,3.5s2.618-1.33,3.96-3.5c1.326-2.144,2.976-4.814,6.318-4.814s4.992,2.67,6.319,4.814c1.34,2.171,2.249,3.5,3.961,3.5s2.618-1.33,3.96-3.5c1.324-2.144,2.976-4.814,6.318-4.814s5,2.67,6.321,4.814c1.343,2.171,2.253,3.5,3.963,3.5s2.621-1.33,3.964-3.5c1.326-2.144,2.978-4.814,6.321-4.814a1.386,1.386,0,0,1,0,2.771c-1.712,0-2.621,1.33-3.964,3.5C182.823,94.8,181.173,97.466,177.828,97.466Z" transform="translate(-104.499 -86.38)" fill="#3449bc"/>
</svg>
