<svg xmlns="http://www.w3.org/2000/svg" xmlns:xlink="http://www.w3.org/1999/xlink" width="400" height="509.252" viewBox="0 0 400 509.252">
  <defs>
    <clipPath id="clip-path">
      <rect id="Rect치ngulo_373414" data-name="Rect치ngulo 373414" width="400" height="509.252" rx="13" transform="translate(180 1761.938)" fill="#12263f" opacity="0.56"/>
    </clipPath>
  </defs>
  <g id="Enmascarar_grupo_1059020" data-name="Enmascarar grupo 1059020" transform="translate(-180 -1761.938)" clip-path="url(#clip-path)">
    <rect id="Rect치ngulo_373411" data-name="Rect치ngulo 373411" width="400" height="509.252" rx="13" transform="translate(180 1761.938)" fill="#fffae3"/>
    <path id="Trazado_781735" data-name="Trazado 781735" d="M2.215,14.219,10.893-28.8,194.119,14.219s7.454,38.437,7.454,55.989-7.454,14.217-7.454,14.217-39.33-.044-82.475,0c-18.19.019-93.2,2.762-100.75,0C-11.367,76.281-15.9,94.377-13.152,79.5-10.135,63.144,2.215,14.219,2.215,14.219Z" transform="translate(289 2184.321)" fill="#31c79a"/>
    <g id="Grupo_1063993" data-name="Grupo 1063993" transform="translate(-21.302)">
      <path id="Trazado_781733" data-name="Trazado 781733" d="M595.64,326.88c9.518,13.245,5.167,44.3,5.167,44.3C582,362.164,561.988,346.822,567.064,340s19.987,2.912,19.987,2.912c-.872-3.422-.918-29.278,8.589-16.033Z" transform="translate(-25.977 1453.269)" fill="#31c79a"/>
      <path id="Trazado_781734" data-name="Trazado 781734" d="M616.74,323.943a35.1,35.1,0,0,1,5.638-9.92,19.863,19.863,0,0,1,5.213-4.707,6.505,6.505,0,0,1,2.762-.964,3.3,3.3,0,0,1,2.68.981,4.528,4.528,0,0,1,.833,3.056,24.439,24.439,0,0,1-2.893,10.231,112.406,112.406,0,0,1-6.325,10.852q-6.006,9.512-12.045,19.023c-6.455-9.724-12.7-19.791-15.28-31.149a22.9,22.9,0,0,1-.637-8.22,4.38,4.38,0,0,1,.882-2.37,3.4,3.4,0,0,1,2.942-.948,8.4,8.4,0,0,1,2.991,1.111,33.261,33.261,0,0,1,13.189,13.025Z" transform="translate(-38.485 1709.672)" fill="#ff896c"/>
      <g id="Grupo_1063991" data-name="Grupo 1063991" transform="translate(204.896 1792.264)">
        <g id="Grupo_1046454" data-name="Grupo 1046454" transform="translate(269.95 305.831)">
          <path id="Trazado_778688" data-name="Trazado 778688" d="M750.029,508.993a22.8,22.8,0,0,0,1.726,13.64c.706-.267,1.413-.518,2.135-.785l-.063-.157a53.452,53.452,0,0,0,9.653-51.34q-4.709,12.572-9.433,25.129a68.23,68.23,0,0,0-4.034,13.514Z" transform="translate(-727.083 -429.746)" fill="#2717be"/>
          <path id="Trazado_778689" data-name="Trazado 778689" d="M788.6,453.22a70.413,70.413,0,0,0-4.426,52.36c.471-.392.926-.8,1.4-1.193a62.662,62.662,0,0,0,3.029-51.152Z" transform="translate(-709.216 -439.502)" fill="#2717be"/>
          <path id="Trazado_778690" data-name="Trazado 778690" d="M768.269,517c.424-.2.847-.408,1.271-.643a59.637,59.637,0,0,0,10.438-54.511c-4.442,9.559-8.915,19.164-12.007,29.241-2.652,8.6-4.222,18.144-.785,26.431.377-.173.738-.345,1.1-.534Z" transform="translate(-718.247 -434.587)" fill="#2717be"/>
          <path id="Trazado_778691" data-name="Trazado 778691" d="M751.635,503.678l-1.7.612a11.742,11.742,0,0,0,2.5,6.011,28,28,0,0,0,6.121,5.494,105.742,105.742,0,0,0,27.875,14.126c-3.971-6.608-8.021-13.294-13.718-18.474-5.7-5.164-13.388-8.7-21.016-7.628a.558.558,0,0,1-.063-.141Z" transform="translate(-726.946 -410.792)" fill="#2717be"/>
          <path id="Trazado_778692" data-name="Trazado 778692" d="M767.44,498.1a34.251,34.251,0,0,0,45.517,4.693A64.394,64.394,0,0,0,767.44,498.1Z" transform="translate(-716.979 -415.18)" fill="#2717be"/>
          <path id="Trazado_778693" data-name="Trazado 778693" d="M782.716,489.816c6.2,5.886,15.586,7.675,23.983,5.949,8.491-1.758,16.057-6.671,22.445-12.541a65.868,65.868,0,0,0-45.784,6.514,3.537,3.537,0,0,0-.126-.377c-.173.157-.345.3-.534.439Z" transform="translate(-708.287 -423.299)" fill="#2717be"/>
          <path id="Trazado_778694" data-name="Trazado 778694" d="M791.283,498.127a1.549,1.549,0,0,0,.078.251,50.514,50.514,0,0,0,24.658-53.9,199.8,199.8,0,0,0-22.664,40.542C791.628,489.2,790.027,493.827,791.283,498.127Z" transform="translate(-703.655 -444.48)" fill="#2717be"/>
          <path id="Trazado_778695" data-name="Trazado 778695" d="M735.714,530.786c-.141-1.1-.282-2.182-.424-3.28,4.96-1.805,9.951-3.516,14.911-5.352a241.554,241.554,0,0,0,26.4-11.521,215.423,215.423,0,0,0,24.846-14.785c7.832-5.431,15.162-11.677,20.546-19.635,1.161-1.727,3.626.392,2.464,2.1-6.059,8.978-14.613,15.868-23.559,21.817a241.055,241.055,0,0,1-51.481,25.741c-4.536,1.648-9.135,3.233-13.7,4.9Z" transform="translate(-735.29 -426.772)" fill="#2717be"/>
        </g>
        <g id="Grupo_1046456" data-name="Grupo 1046456" transform="translate(277.093 77.637)">
          <g id="Grupo_1046455" data-name="Grupo 1046455">
            <path id="Trazado_778696" data-name="Trazado 778696" d="M779.5,405.784c1.332,1.438,2.694,3.1,2.694,5.07.333-.439.681-.878,1.029-1.332v-.015a15.5,15.5,0,0,0,1.528-4.782,50.628,50.628,0,0,0-17.524-48.3c.817,4.525-.863,9.065-2.028,13.514a31.042,31.042,0,0,0-1.029,12.893,28.852,28.852,0,0,0,5.962,12.545C772.979,399.08,776.339,402.364,779.5,405.784Z" transform="translate(-718.41 -356.42)" fill="#30aa86"/>
            <path id="Trazado_778697" data-name="Trazado 778697" d="M771.254,422.554c2.3-14.392-5.947-31.9-11.864-40.542A72.158,72.158,0,0,0,738.4,361.87c2.149,9.776-.136,20.414,3.692,29.661,2.285,5.539,6.538,10.018,11.077,13.922s9.443,7.4,13.6,11.7c1.892,1.967,3.693,4.207,4.207,6.9Q771.14,423.3,771.254,422.554Z" transform="translate(-731.484 -353.622)" fill="#30aa86"/>
            <path id="Trazado_778698" data-name="Trazado 778698" d="M760.207,452.748c.212.2.439.378.666.56l.106-.121a37.928,37.928,0,0,0-.045-20.793,49.544,49.544,0,0,0-3.208-8.066,75.506,75.506,0,0,0-23.9-28.178c2.512,4.994,1.5,10.926,1.407,16.51-.166,8.459,2,17.116,6.991,23.941,4.767,6.522,11.713,11.017,17.993,16.147Z" transform="translate(-733.83 -336.026)" fill="#30aa86"/>
            <path id="Trazado_778699" data-name="Trazado 778699" d="M777.3,406.537c-.227.409-.454.832-.681,1.241h0a57.584,57.584,0,0,0,29.207-17.025,68.779,68.779,0,0,0,16.041-29.994q-7.877,3.791-15.769,7.536c-5.781,2.769-11.773,5.705-15.647,10.79-2.527,3.329-3.965,7.355-5.508,11.229a155.355,155.355,0,0,1-7.627,16.223Z" transform="translate(-711.866 -354.192)" fill="#30aa86"/>
            <path id="Trazado_778700" data-name="Trazado 778700" d="M766.951,426.325a.867.867,0,0,0-.061.091v.03a28.221,28.221,0,0,1,12.53-4.737c7.279-.863,14.573,1.15,21.9,1.316a43.932,43.932,0,0,0,27-8.611c-6.855,1.014-13.272-3.117-19.854-5.206a34.854,34.854,0,0,0-41.51,17.131Z" transform="translate(-716.86 -330.154)" fill="#30aa86"/>
            <path id="Trazado_778701" data-name="Trazado 778701" d="M756.361,442.405s-.091.136-.121.2c8.2-.348,16.223,2.482,24.425,2.724a39.262,39.262,0,0,0,28.783-11.562,5.454,5.454,0,0,1-3.677.151c-8.838-1.725-17.736-3.859-26.725-3.239-8.807.59-17.933,4.313-22.684,11.728Z" transform="translate(-722.327 -318.36)" fill="#30aa86"/>
          </g>
          <path id="Trazado_778702" data-name="Trazado 778702" d="M749.773,430.771c4.812,6.734,9.05,14.24,10.291,22.533a31.066,31.066,0,0,1-.046,9.473c2.194-4.131,4.131-8.4,5.917-12.651C772.5,434.4,777.648,417.771,788,403.97a57.134,57.134,0,0,1,20.051-17.282c1.2-.59,1.982,1.317.8,1.907-14.861,7.37-24.107,22.079-30.644,36.773-3.133,7.037-5.826,14.286-8.7,21.444a72.1,72.1,0,0,1,37.7-22.382c1.3-.3,1.574,1.755.288,2.043a69.822,69.822,0,0,0-39.982,26.044.978.978,0,0,1-.5.348A137.819,137.819,0,0,1,759.519,468a67.069,67.069,0,0,1,34.67-7.309c1.332.076,1.074,2.134-.242,2.058a64.836,64.836,0,0,0-36.622,8.807c-.166.272-.333.53-.515.8-5.085,7.642-11.486,14.5-19.431,19.2-1.135.666-2.406-.968-1.256-1.634a56.709,56.709,0,0,0,16.238-14.861.822.822,0,0,1,.182-.878,21.215,21.215,0,0,0,2.436-3.284.791.791,0,0,1,.227-.409,26.319,26.319,0,0,0,2.754-17.267c-1.271-7.793-5.3-14.815-9.821-21.156-.772-1.074.863-2.345,1.634-1.256Z" transform="translate(-732.885 -340.941)" fill="#31c79a"/>
          <path id="Trazado_778703" data-name="Trazado 778703" d="M755.655,388.433a69.371,69.371,0,0,1,8.883,47.079c-.227,1.3-2.27,1.074-2.058-.242a67.249,67.249,0,0,0-8.474-45.581c-.681-1.12.953-2.406,1.634-1.256Z" transform="translate(-723.557 -340.219)" fill="#31c79a"/>
        </g>
        <g id="Grupo_1063992" data-name="Grupo 1063992" transform="translate(30.946 451.509) rotate(-93)">
          <g id="Grupo_1046455-2" data-name="Grupo 1046455" transform="translate(0 0)">
            <path id="Trazado_778696-2" data-name="Trazado 778696" d="M6.319,51.2c-1.381,1.491-2.794,3.218-2.794,5.258-.345-.455-.706-.91-1.067-1.381V55.06A16.077,16.077,0,0,1,.873,50.1,52.509,52.509,0,0,1,19.048,0c-.848,4.693.895,9.4,2.1,14.016a32.2,32.2,0,0,1,1.067,13.373A29.925,29.925,0,0,1,16.035,40.4C13.084,44.246,9.6,47.652,6.319,51.2Z" transform="translate(45.916 0)" fill="#30aa86"/>
            <path id="Trazado_778697-2" data-name="Trazado 778697" d="M.41,62.939C-1.976,48.013,6.578,29.853,12.715,20.891A74.841,74.841,0,0,1,34.485,0c-2.229,10.139.141,21.173-3.83,30.763-2.37,5.745-6.781,10.39-11.489,14.44-4.693,4.05-9.794,7.675-14.11,12.133C3.094,59.376,1.226,61.7.692,64.493Q.527,63.716.41,62.939Z" transform="translate(73.94 8.554)" fill="#30aa86"/>
            <path id="Trazado_778698-2" data-name="Trazado 778698" d="M2.284,58.7c-.22.2-.455.392-.691.581l-.11-.126A39.338,39.338,0,0,1,1.53,37.591a51.368,51.368,0,0,1,3.327-8.366A78.311,78.311,0,0,1,29.641,0c-2.605,5.18-1.554,11.332-1.46,17.124.173,8.774-2.072,17.752-7.251,24.83C15.986,48.719,8.782,53.381,2.268,58.7Z" transform="translate(85.957 62.358)" fill="#30aa86"/>
            <path id="Trazado_778699-2" data-name="Trazado 778699" d="M46.223,47.479c.236.424.471.863.706,1.287h0A59.725,59.725,0,0,1,16.637,31.109,71.336,71.336,0,0,1,0,0Q8.169,3.932,16.355,7.816c6,2.872,12.211,5.917,16.229,11.191C35.205,22.46,36.7,26.635,38.3,30.653a161.121,161.121,0,0,0,7.91,16.826Z" transform="translate(1.507 6.812)" fill="#30aa86"/>
            <path id="Trazado_778700-2" data-name="Trazado 778700" d="M63.645,19.431a.9.9,0,0,1,.063.094v.031a29.269,29.269,0,0,0-13-4.913C43.163,13.749,35.6,15.837,28,16.009A45.566,45.566,0,0,1,0,7.078c7.11,1.052,13.765-3.233,20.593-5.4A36.15,36.15,0,0,1,63.645,19.446Z" transform="translate(0 80.314)" fill="#30aa86"/>
            <path id="Trazado_778701-2" data-name="Trazado 778701" d="M55.06,12.278s.094.141.126.2c-8.507-.361-16.826,2.574-25.333,2.825A40.721,40.721,0,0,1,0,3.316a5.657,5.657,0,0,0,3.814.157c9.166-1.789,18.4-4,27.718-3.359,9.135.612,18.6,4.473,23.528,12.164Z" transform="translate(25.239 116.378)" fill="#30aa86"/>
          </g>
          <path id="Trazado_778702-2" data-name="Trazado 778702" d="M61.88,45.837c-4.991,6.985-9.386,14.769-10.673,23.371a32.222,32.222,0,0,0,.047,9.825c-2.276-4.285-4.285-8.711-6.137-13.121C38.306,49.6,32.969,32.355,22.234,18.04A59.259,59.259,0,0,0,1.437.116C.2-.5-.619,1.482.6,2.094c15.413,7.644,25,22.9,31.783,38.14,3.249,7.3,6.043,14.817,9.025,22.241a74.775,74.775,0,0,0-39.1-23.214c-1.35-.314-1.632,1.821-.3,2.119A72.418,72.418,0,0,1,43.485,68.392a1.014,1.014,0,0,0,.518.361,142.942,142.942,0,0,0,7.769,15.7,69.562,69.562,0,0,0-35.958-7.581c-1.381.078-1.114,2.213.251,2.135a67.247,67.247,0,0,1,37.983,9.135c.172.283.345.549.534.832C59.856,96.895,66.5,104,74.735,108.886c1.177.691,2.5-1,1.3-1.7A58.816,58.816,0,0,1,59.2,91.778a.853.853,0,0,0-.188-.91,22,22,0,0,1-2.527-3.406.82.82,0,0,0-.235-.424,27.3,27.3,0,0,1-2.857-17.909c1.319-8.083,5.494-15.366,10.186-21.942.8-1.114-.895-2.433-1.7-1.3Z" transform="translate(36.201 47.331)" fill="#31c79a"/>
          <path id="Trazado_778703-2" data-name="Trazado 778703" d="M10.217.467A71.948,71.948,0,0,0,1,49.3c.236,1.35,2.354,1.114,2.135-.251A69.748,69.748,0,0,1,11.928,1.77c.706-1.162-.989-2.5-1.7-1.3Z" transform="translate(72.09 49.539)" fill="#31c79a"/>
        </g>
        <g id="Grupo_1046457" data-name="Grupo 1046457" transform="translate(7 136.846)">
          <path id="Trazado_778704" data-name="Trazado 778704" d="M625.815,466.584c-.235,5.227-1.617,10.563-4.834,14.707-.722-.44-1.444-.879-2.182-1.318l.094-.157a60.179,60.179,0,0,1,.33-58.8q2.519,14.9,5.038,29.79c.879,5.211,1.774,10.5,1.554,15.79Z" transform="translate(-521.77 -359.87)" fill="#ff896c"/>
          <path id="Trazado_778705" data-name="Trazado 778705" d="M593.625,396.21a79.289,79.289,0,0,1-6.325,58.8c-.439-.549-.863-1.083-1.287-1.617a70.567,70.567,0,0,1,7.612-57.179Z" transform="translate(-537.89 -374.001)" fill="#ff896c"/>
          <path id="Trazado_778706" data-name="Trazado 778706" d="M604.318,471.606c-.424-.314-.848-.643-1.256-.973a67.087,67.087,0,0,1,.141-62.453c2.857,11.521,5.745,23.073,7,34.876,1.083,10.077.785,20.954-4.787,29.366-.377-.267-.738-.549-1.1-.816Z" transform="translate(-530.863 -367.183)" fill="#ff896c"/>
          <path id="Trazado_778707" data-name="Trazado 778707" d="M633.5,459.809l1.742,1.036a13.269,13.269,0,0,1-4.049,6.121,30.842,30.842,0,0,1-7.942,4.756,118.523,118.523,0,0,1-33.839,9.637c5.807-6.451,11.709-12.98,19.117-17.485,7.408-4.489,16.669-6.733,24.862-3.924C633.42,459.9,633.467,459.856,633.5,459.809Z" transform="translate(-534.287 -338.404)" fill="#ff896c"/>
          <path id="Trazado_778708" data-name="Trazado 778708" d="M619.323,451.515a38.531,38.531,0,0,1-51.293-4.567,72.489,72.489,0,0,1,51.293,4.552Z" transform="translate(-546.464 -346.652)" fill="#ff896c"/>
          <path id="Trazado_778709" data-name="Trazado 778709" d="M604.186,440.319c-8.115,5.18-18.866,5.132-27.781,1.444C567.4,438.012,560.1,430.949,554.29,423.1a74.139,74.139,0,0,1,49.19,17c.063-.126.141-.267.22-.392.157.2.314.408.486.6Z" transform="translate(-554.29 -358.702)" fill="#ff896c"/>
          <path id="Trazado_778710" data-name="Trazado 778710" d="M585.835,446.632c-.047.078-.094.173-.141.267A56.854,56.854,0,0,1,570,382.06a224.788,224.788,0,0,1,16.355,49.645c1,4.975,1.789,10.438-.5,14.911Z" transform="translate(-547.758 -382.06)" fill="#ff896c"/>
          <path id="Trazado_778711" data-name="Trazado 778711" d="M664.627,499.476c.392-1.177.785-2.354,1.161-3.532-5.1-3.045-10.249-6.027-15.335-9.1a272.052,272.052,0,0,1-26.7-18.38,246.4,246.4,0,0,1-24.3-21.644c-7.5-7.675-14.268-16.151-18.49-26.086-.91-2.15-4.081-.345-3.17,1.789,4.771,11.207,12.76,20.655,21.346,29.147a270.845,270.845,0,0,0,51.372,39.459c4.661,2.794,9.4,5.525,14.094,8.35Z" transform="translate(-540.993 -360.586)" fill="#ff896c"/>
        </g>
        <g id="Grupo_1046459" data-name="Grupo 1046459" transform="translate(27.855 -11.996)">
          <g id="Grupo_1046458" data-name="Grupo 1046458" transform="translate(0 9.717)">
            <path id="Trazado_778712" data-name="Trazado 778712" d="M816.621,511.025a447.391,447.391,0,0,1-9.616,109.612c-2.432,11.388-5.573,23.195-13.4,31.812-10.454,11.5-27.044,14.98-42.572,15.8s-31.458-.338-46.244,4.462c-4.317,1.4-8.6,3.318-13.16,3.254-4.542-.064-9.5-2.883-10.051-7.409.064,3.656-5.589,4.9-8.263,2.432a10.013,10.013,0,0,1-2.754-6.475.194.194,0,0,0,.129-.032,6.375,6.375,0,0,0-.193-.838,28.427,28.427,0,0,1-.048-2.867c.081-2.851.29-5.686.628-8.521a32.534,32.534,0,0,0,9.342,4.284,2.263,2.263,0,0,0,1.595,0c1.208-.628.532-2.481-.306-3.56q-4.18-5.436-8.827-10.518c.387-1.514.789-2.98,1.289-4.462,5.573,3.769,12.387,6.829,17.622,7.877a53,53,0,0,0,25.9-1.047,42.189,42.189,0,0,0,21.23-14.609,29.574,29.574,0,0,0,5.3-11.066,23.1,23.1,0,0,0,.5-3.109,72.733,72.733,0,0,0,12.87-2,23.707,23.707,0,0,1,4.945-.934,26.471,26.471,0,0,1,5.493.725,54.008,54.008,0,0,0,13.852.837c2.706-.177,5.525-.612,7.635-2.3,2.674-2.11,3.624-5.7,3.979-9.085a37.47,37.47,0,0,0-2.11-16.575c-.87-2.368-2.174-4.848-4.51-5.815a9.943,9.943,0,0,0-5.412-.177,81.269,81.269,0,0,0-19.442,5.75,173.729,173.729,0,0,0,15.286-19.41c1.611-2.384,3.222-5.01,3.077-7.86a11.245,11.245,0,0,0-2.658-6.073c-1.482-1.933-3.383-3.769-5.783-4.172-2.384-.4-4.768.677-6.894,1.852a66.349,66.349,0,0,0-18.314,14.916,3.627,3.627,0,0,1-.548-.564c-6.717-7.893-13.3-16.043-21.6-22.229-8.311-6.2-18.7-10.309-28.961-8.843a31.126,31.126,0,0,0-11.4,4.059L743.88,417.344c3.028-2.207,6.3-4.333,9.987-5.106,3.689-.757,7.925.113,10.293,3.044s1.9,8.038-1.433,9.777c19.152,13.482,39.3,28.156,47.936,49.933,4.526,11.356,5.509,23.775,5.944,35.984Z" transform="translate(-511.944 -233.066)" fill="#31c79a"/>
            <path id="Trazado_778713" data-name="Trazado 778713" d="M766.487,522.857a37.408,37.408,0,0,1,2.11,16.575c-.354,3.383-1.3,6.974-3.978,9.085-2.11,1.691-4.945,2.126-7.635,2.3a54,54,0,0,1-13.852-.838,25.425,25.425,0,0,0-5.493-.725,24.781,24.781,0,0,0-4.945.934,72.51,72.51,0,0,1-12.87,2c.725-8.231-2.851-16.575-8.634-22.712l.5-.451a22.542,22.542,0,0,0,4.687,4.333,9.108,9.108,0,0,0,7.3,1.418,12.848,12.848,0,0,0,5.026-3.447c2.916-2.819,5.734-5.7,8.44-8.7a81.266,81.266,0,0,1,19.442-5.75,9.787,9.787,0,0,1,5.412.177c2.336.966,3.64,3.447,4.51,5.815Z" transform="translate(-487.05 -169.175)" fill="#ffb888"/>
            <path id="Trazado_778714" data-name="Trazado 778714" d="M665.946,533.8c.113-2.561.338-5.122.693-7.651,1.272-8.811,4.252-17.492,9.664-24.564.371-.5.741-.966,1.144-1.434a36.871,36.871,0,0,1,9.584-8.15h0a30.868,30.868,0,0,1,11.4-4.075c10.26-1.466,20.65,2.658,28.961,8.843,8.3,6.185,14.883,14.336,21.6,22.228a3.616,3.616,0,0,0,.548.564,66.589,66.589,0,0,1,18.314-14.916c2.126-1.176,4.51-2.255,6.894-1.852,2.4.419,4.3,2.239,5.783,4.172a11.193,11.193,0,0,1,2.658,6.072c.145,2.867-1.482,5.477-3.076,7.861A173.746,173.746,0,0,1,764.83,540.3c-2.706,3-5.509,5.9-8.44,8.7a12.728,12.728,0,0,1-5.025,3.447,9.109,9.109,0,0,1-7.3-1.417,23.416,23.416,0,0,1-4.687-4.333l-.5.451a35.751,35.751,0,0,0-4.365-3.914,16.436,16.436,0,0,0-3.431-6.91,1.914,1.914,0,0,0-.773-.628,2.064,2.064,0,0,0-1.772.6,121.5,121.5,0,0,1-44.054,20.682c-.628-.129-1.289-.258-1.917-.419.354-.145.709-.386.66-.741-.048-.37-.451-.548-.789-.66q-7.925-2.634-16.011-4.768a126.793,126.793,0,0,1-.483-16.591Z" transform="translate(-514.74 -186.865)" fill="#ffb888"/>
            <path id="Trazado_778715" data-name="Trazado 778715" d="M779.211,368.21c1.643,4.784,1,10.132-.9,14.819a29.422,29.422,0,0,1-14.529,15.334,3.957,3.957,0,0,0-2.078,1.579,4.372,4.372,0,0,0-.209,2.191c.242,5.783-3.946,10.856-8.634,14.223a19.934,19.934,0,0,1-9.423,3.995,11.155,11.155,0,0,1-6.234-1.192,153.616,153.616,0,0,0,3.366-17.235c.838-6.83.805-14.03-2.094-20.247-2.9-6.25-9.278-11.259-16.14-10.808a5.5,5.5,0,0,1-2.352-.113,4.963,4.963,0,0,1-2.255-2.432c-6.024-10.309-15.64-18.266-26.513-23.211-10.857-4.945-22.9-6.958-34.841-6.894h-.612c-3.769-2.191-6.185-6.395-7.055-10.728-2.03-10.051,4.027-21.085,13.53-24.983s21.391-.451,27.544,7.764c4.7-6.6,13.24-9.971,21.31-9.2,8.07.757,15.512,5.332,20.585,11.662,7.7,9.568,10.309,22.776,19.152,31.3,4.542,4.4,10.389,7.168,15.753,10.518,5.348,3.334,10.583,7.667,12.612,13.659Z" transform="translate(-525.449 -300.905)" fill="#2717be"/>
            <path id="Trazado_778716" data-name="Trazado 778716" d="M681.842,570.74a35.114,35.114,0,0,1-7.667-6.7,57.7,57.7,0,0,0,23.1,1.917,3.772,3.772,0,0,0,2.835-1.256,2.561,2.561,0,0,0-.338-2.867,7.453,7.453,0,0,0-2.464-1.8q-19.692-10.752-39.415-21.471a74.875,74.875,0,0,0,29.316-3.012,1.5,1.5,0,0,0,.209-.065c.628.161,1.289.29,1.917.419a54.524,54.524,0,0,0,21.117-.483,112.927,112.927,0,0,0,22.857-7.8c2.416-1.079,4.993-2.336,6.233-4.655-.048-.274-.1-.548-.161-.805a34.621,34.621,0,0,1,4.365,3.914c5.8,6.153,9.375,14.481,8.633,22.712a23.12,23.12,0,0,1-.5,3.109,29.706,29.706,0,0,1-5.3,11.066,42.022,42.022,0,0,1-21.23,14.61,53.02,53.02,0,0,1-25.9,1.047c-5.219-1.047-12.048-4.107-17.622-7.877Z" transform="translate(-519.602 -165.773)" fill="#fff"/>
            <path id="Trazado_778717" data-name="Trazado 778717" d="M733.841,412.58a.625.625,0,0,1,.049-.064c1.772-2.352,4.011-4.913,6.974-4.945,5.332-.081,6.91,7.184,6.733,12.515L687.935,540.892h0a37.242,37.242,0,0,0-9.584,8.167A45.544,45.544,0,0,0,664.37,530.5c20.65-40.784,41.815-81.568,69.472-117.923Z" transform="translate(-515.645 -235.759)" fill="#ff896c"/>
            <path id="Trazado_778718" data-name="Trazado 778718" d="M727.456,525.03c.064.274.113.548.161.805-1.241,2.319-3.818,3.576-6.234,4.655-7.393,3.254-14.948,6.2-22.856,7.8a54.84,54.84,0,0,1-21.117.483,121.621,121.621,0,0,0,44.054-20.682,2.032,2.032,0,0,1,1.772-.6,1.961,1.961,0,0,1,.773.628,16.432,16.432,0,0,1,3.431,6.91Z" transform="translate(-507.681 -168.659)" fill="#31c79a"/>
            <path id="Trazado_778719" data-name="Trazado 778719" d="M630.661,381.842c-2.786,8.617-1.707,18.137,0,27.109a85.772,85.772,0,0,0,5.154,18.346,101.375,101.375,0,0,0,7.748,13.917c2.642,4.156,5.316,8.328,8.215,12.306-6.749,4.784-17.219,3.431-22.389-3.093-1.611-2.013-2.851-4.51-5.154-5.638-1.788-.886-3.914-.757-5.911-.838-5.605-.242-11.452-2.642-14.3-7.474-2.787-4.768-2.126-10.808-.435-16.059,1.708-5.235,4.349-10.212,5.38-15.624,1.482-7.667-.419-15.608.274-23.4.644-7.619,3.785-14.867,7.828-21.342a76.909,76.909,0,0,1,42.781-32.5,87.581,87.581,0,0,1,24.1-3.463h.612c11.936-.064,23.984,1.949,34.841,6.894,10.872,4.945,20.489,12.9,26.513,23.211a4.963,4.963,0,0,0,2.255,2.432,5.5,5.5,0,0,0,2.352.113c6.862-.467,13.224,4.558,16.14,10.808,2.9,6.233,2.932,13.417,2.094,20.247a153.564,153.564,0,0,1-3.366,17.235c-1.289,5.283-2.642,10.583-3.673,15.914-2.158,11.082-2.9,22.873,1.144,33.423l-.242.225a150.808,150.808,0,0,1-24.693-35.42h0c3.221-6.185,6.234-12.612,6.523-19.522.322-7.377-3.286-15.447-10.2-18.008a14.588,14.588,0,0,0-15.334,3.817,16.372,16.372,0,0,0-4.188,11.452c-7.2-6.362-17.445-8.537-27.141-8.585-10.293-.065-20.521,1.868-30.813,1.74-9.31-.113-19.1-2.239-26.126-8.183Z" transform="translate(-553.663 -286.751)" fill="#2717be"/>
            <path id="Trazado_778720" data-name="Trazado 778720" d="M651.22,432.017c-2.883-3.995-5.573-8.15-8.215-12.306a99.718,99.718,0,0,1-7.748-13.917,85.779,85.779,0,0,1-5.154-18.346c-1.691-8.972-2.77-18.508,0-27.109,7.023,5.944,16.816,8.07,26.127,8.183,10.293.129,20.521-1.8,30.814-1.74,9.713.048,19.957,2.207,27.141,8.585a16.446,16.446,0,0,1,4.188-11.452,14.611,14.611,0,0,1,15.334-3.818c6.91,2.577,10.518,10.647,10.2,18.008-.306,6.91-3.3,13.337-6.523,19.506h0a149.616,149.616,0,0,0,24.693,35.436c2.932,3.141,6.008,6.169,9.213,9.02-27.656,36.355-48.806,77.139-69.472,117.923a44.448,44.448,0,0,0-10.454-6.2l-.354-.032a17.344,17.344,0,0,0-.725-5.348c-.693-2.8-1.4-5.605-2.094-8.424-.822-3.35-1.691-6.765-3.528-9.681-.435-.66-1.1-1.385-1.868-1.192-.628.161-.934.9-1.128,1.546a41.584,41.584,0,0,0-1.724,10.228,28.841,28.841,0,0,0-10.7-7.264,9.614,9.614,0,0,0-5.38-.773.746.746,0,0,0-.58.338.826.826,0,0,0,.161.822,9.679,9.679,0,0,0,2.835,2.883A15.094,15.094,0,0,0,653.893,538c-.29.161-.58.4-.564.709,0,.29.322.483.58.6,1.756.838,3.527,1.691,5.267,2.529-2.223.306-4.671.725-6.121,2.465a1.525,1.525,0,0,0-.467.982.926.926,0,0,0,.129.467l-.564.338c-.644-1.111-1.369-2.223-2.078-3.286a32.409,32.409,0,0,0-6.314-7.329,14.5,14.5,0,0,0-6.894-3.141,34.372,34.372,0,0,1,13.24-11.517,278.927,278.927,0,0,0-47.1-34.47A221.294,221.294,0,0,1,614.7,459.431a59.489,59.489,0,0,1,7.039-11.227c7.877-9.358,21.036-13.724,33-11.581-1.24-1.514-2.416-3.044-3.56-4.623Z" transform="translate(-553.12 -265.247)" fill="#ffb888"/>
            <path id="Trazado_778721" data-name="Trazado 778721" d="M697.244,529.781q8.07,2.126,16.011,4.768c.354.129.741.306.789.66.048.37-.322.6-.661.741a.8.8,0,0,0-.209.064,74.609,74.609,0,0,1-29.315,3.012q19.715,10.728,39.415,21.471a7.869,7.869,0,0,1,2.464,1.8,2.613,2.613,0,0,1,.338,2.867,3.721,3.721,0,0,1-2.835,1.257,58.014,58.014,0,0,1-23.1-1.917,55.406,55.406,0,0,1-8.215-3.076l-.048.064a154.158,154.158,0,0,1,14.642,14.191,76.791,76.791,0,0,0-1.788,9.777c-1.031-.644-2.03-1.321-3.012-1.981q-9.205-6.258-17.75-13.4l-.548.532a200.05,200.05,0,0,1,18.314,21.89,14.785,14.785,0,0,1,2.4,4.349,7.612,7.612,0,0,0,.064.87c-2.062.58-4.22-.338-6.169-1.289a128.245,128.245,0,0,1-34.18-24.564l-.564.387a127.842,127.842,0,0,1,13.112,24.21c.242.564.37,1.434-.226,1.659a1.132,1.132,0,0,1-.87-.129c-4.269-1.917-7.619-5.38-10.76-8.859-7.619-8.457-14.577-17.461-21.5-26.481-3.157-2-6.33-4.027-9.5-6.04-1.707-1.1-3.415-2.191-5.154-3.238a118.907,118.907,0,0,0-13.015-6.813q7.2-12.491,13.965-25.192h.837a255.984,255.984,0,0,1,67.056,8.424Z" transform="translate(-545.571 -166.258)" fill="#ffb888"/>
            <path id="Trazado_778722" data-name="Trazado 778722" d="M681.481,565.6c.821,1.079,1.514,2.915.306,3.56a2.265,2.265,0,0,1-1.595,0,32.741,32.741,0,0,1-9.342-4.285,79.7,79.7,0,0,1,1.788-9.777q4.663,5.074,8.827,10.518Z" transform="translate(-511.687 -145.655)" fill="#ffb888"/>
            <path id="Trazado_778723" data-name="Trazado 778723" d="M675.957,505.938a42.308,42.308,0,0,1,10.84-.918,36.49,36.49,0,0,1-11.807-10.873,1.608,1.608,0,0,1-.37-1.562c.258-.5.9-.564,1.466-.58l3.994-.145c-2.77-1.369-5.541-2.754-8.328-4.123a2.744,2.744,0,0,1-1.176-.934.924.924,0,0,1-.129-.467,1.525,1.525,0,0,1,.467-.983c1.45-1.723,3.9-2.158,6.121-2.464-1.74-.838-3.511-1.691-5.267-2.529-.274-.129-.564-.322-.58-.6-.032-.322.274-.564.564-.709a15.094,15.094,0,0,1,12.387-1.111,9.872,9.872,0,0,1-2.835-2.883c-.161-.258-.306-.58-.161-.822a.8.8,0,0,1,.58-.338,9.6,9.6,0,0,1,5.38.773,28.91,28.91,0,0,1,10.7,7.265,42.357,42.357,0,0,1,1.724-10.228c.193-.628.5-1.385,1.128-1.546.773-.193,1.45.532,1.868,1.192,1.836,2.9,2.706,6.314,3.528,9.681.693,2.819,1.4,5.621,2.094,8.424a16.865,16.865,0,0,1,.725,5.348l.354.032a44.442,44.442,0,0,1,10.454,6.2A45.685,45.685,0,0,1,733.654,519.6c-.4.467-.773.934-1.144,1.434-5.4,7.071-8.392,15.737-9.664,24.564a76.647,76.647,0,0,0-.693,7.651,124.209,124.209,0,0,0,.483,16.591,255.9,255.9,0,0,0-67.055-8.424v-.387a125.953,125.953,0,0,0-9.665-10.824,32.143,32.143,0,0,1-9.294-.451,8.968,8.968,0,0,1-2.174-.66h0a49.959,49.959,0,0,1-35.388-2.883,43.317,43.317,0,0,1-9.278-5.992,43.752,43.752,0,0,1-10.277-13.144c-.66-1.289-1.272-2.625-1.82-3.962-5.638-13.675-5.171-29.88,1.82-42.943a46.857,46.857,0,0,1,15.254-16.7,44.708,44.708,0,0,1,19.973-7.377c14.69-1.562,30.137,5.106,38.61,17.17a8.062,8.062,0,0,1,1.385.129,14.816,14.816,0,0,1,6.894,3.141,31.675,31.675,0,0,1,6.314,7.329c.708,1.063,1.433,2.175,2.078,3.286,3.415,5.718,5.944,12.016,5.9,18.6l.048.209Z" transform="translate(-570.948 -206.265)" fill="#ffb888"/>
            <path id="Trazado_778724" data-name="Trazado 778724" d="M678.8,556.033c-.5,1.482-.9,2.948-1.289,4.462A156.153,156.153,0,0,0,662.87,546.3l.048-.064a55.384,55.384,0,0,0,8.215,3.076,35.118,35.118,0,0,0,7.667,6.7Z" transform="translate(-516.561 -151.066)" fill="#ffb888"/>
            <path id="Trazado_778725" data-name="Trazado 778725" d="M650.324,493.284a42.3,42.3,0,0,0-10.84.918l-.048-.209c.048-6.588-2.481-12.886-5.9-18.6l.564-.338a2.63,2.63,0,0,0,1.176.934c2.787,1.385,5.557,2.77,8.328,4.124l-3.995.145c-.564,0-1.208.1-1.466.58-.274.5.048,1.1.371,1.562a36.5,36.5,0,0,0,11.807,10.873Z" transform="translate(-534.474 -194.545)" fill="#ffb888"/>
            <path id="Trazado_778726" data-name="Trazado 778726" d="M612.93,440.137a278.917,278.917,0,0,1,47.1,34.47,34.376,34.376,0,0,0-13.24,11.517,8.065,8.065,0,0,0-1.385-.129c-8.489-12.064-23.919-18.733-38.61-17.171A44.522,44.522,0,0,0,586.82,476.2a13.817,13.817,0,0,1,6.008-11.469,18.01,18.01,0,0,1-4.575-4.671,6.029,6.029,0,0,1-.177-6.234,7.685,7.685,0,0,1,4.3-2.642,25.2,25.2,0,0,1,11.694-.6,22.73,22.73,0,0,1-5.4-11.227,4.622,4.622,0,0,1,.21-2.915c1.24-2.384,4.832-1.45,7.2-.161q3.455,1.885,6.862,3.866Z" transform="translate(-563.008 -219.02)" fill="#31c79a"/>
            <path id="Trazado_778727" data-name="Trazado 778727" d="M655.833,534.387q-6.79,12.709-13.965,25.192-3.552,6.282-7.264,12.532a19.307,19.307,0,0,1-4.543,5.8c-1.949,1.5-4.768,2.142-6.926.966-3.157-1.723-3.4-6.137-3.093-9.745-3.447,1.723-8.6,2.915-10.309-.532-1.111-2.207.193-5.026-.741-7.313-.789-1.917-2.867-2.883-4.736-3.785a82.655,82.655,0,0,1-20.086-13.434c-5.847-5.3-11.162-11.984-12.016-19.845-.918-8.666,3.7-16.784,8.457-24.193a41.756,41.756,0,0,0,19.554,19.136,49.963,49.963,0,0,0,35.388,2.9h0a8.284,8.284,0,0,0,2.175.644,33.333,33.333,0,0,0,9.294.451,128.688,128.688,0,0,1,9.664,10.824v.387h-.838Z" transform="translate(-572.037 -179.289)" fill="#31c79a"/>
          </g>
          <path id="Trazado_778728" data-name="Trazado 778728" d="M711.559,401.28c-4.51,11.114-12.387,21.2-23.388,26.465a36.44,36.44,0,0,1-17.96,3.624,37.9,37.9,0,0,1-17.8-6.33c-6.395-4.107-11.774-9.536-16.977-15.028-.741-.773-1.917.4-1.176,1.176,9.229,9.745,19.861,19.812,33.777,21.632,12.789,1.675,25.466-4.14,34.1-13.385a57.76,57.76,0,0,0,11.05-17.7c.4-1-1.208-1.434-1.611-.451Z" transform="translate(-534.179 -230.222)" fill="#2717be"/>
          <path id="Trazado_778729" data-name="Trazado 778729" d="M665.816,513.736a30.987,30.987,0,0,0-18.991-1.8,32.788,32.788,0,0,0-20.7-32.682,43.677,43.677,0,0,1,10.824-9.826,1.206,1.206,0,0,0,.209-.193.76.76,0,0,0,.467-.725q.073-11.6.161-23.179a.838.838,0,0,0-1.675,0q-.072,11.38-.161,22.76a45.93,45.93,0,0,0-11.565,10.679.782.782,0,0,0-.467.58l-.242.29c-.6.822.66,1.595,1.321.95a31.172,31.172,0,0,1,20.135,31.635.546.546,0,0,0,.016.161c-.29.08-.58.145-.854.226a30.8,30.8,0,0,0-15.753,11.758c-.612.886.838,1.724,1.434.838a28.968,28.968,0,0,1,34.969-10.035c.982.419,1.82-1.015.838-1.433Z" transform="translate(-540.592 -203.476)" fill="#2717be"/>
          <path id="Trazado_778730" data-name="Trazado 778730" d="M634.919,490.037a11.626,11.626,0,0,1-16.559,4.381,8.58,8.58,0,0,1-4.027-8.07,6.131,6.131,0,0,1,6.427-5.477c1.079.081,1.063-1.595,0-1.675a7.687,7.687,0,0,0-6.894,3.56,9.08,9.08,0,0,0-.354,8.569c2.642,5.686,10,7.957,15.672,5.847a13.5,13.5,0,0,0,7.184-6.3c.5-.95-.934-1.788-1.434-.838Z" transform="translate(-547.257 -182.307)" fill="#2717be"/>
          <path id="Trazado_778731" data-name="Trazado 778731" d="M627.308,488.355a2.131,2.131,0,0,1-3.3-.177,2.552,2.552,0,0,1-.306-2,2.756,2.756,0,0,0-.6-2.352c-1.965-2.3-6.7-2.529-7.7.854a3.074,3.074,0,0,0,2.029,3.769.837.837,0,0,0,.451-1.611,1.349,1.349,0,0,1-.918-1.4,1.9,1.9,0,0,1,1.192-1.5,3.035,3.035,0,0,1,2.4.1,3.919,3.919,0,0,1,1.128.709,1.153,1.153,0,0,1,.387,1.192,4.353,4.353,0,0,0,.226,2.561,3.951,3.951,0,0,0,1.594,1.772,3.869,3.869,0,0,0,4.591-.741C629.224,488.758,628.048,487.582,627.308,488.355Z" transform="translate(-545.622 -180.512)" fill="#2717be"/>
          <path id="Trazado_778732" data-name="Trazado 778732" d="M578.405,455.49c-.4-.983-2.014-.548-1.611.451a63.249,63.249,0,0,1,3.56,36.032c-.209,1.047,1.4,1.5,1.611.451a64.747,64.747,0,0,0-3.56-36.918Z" transform="translate(-569.171 -197.113)" fill="#2717be"/>
          <path id="Trazado_778733" data-name="Trazado 778733" d="M586.617,463.647a42.725,42.725,0,0,1-3.656,17.767c-.435.966,1,1.82,1.434.838a44.623,44.623,0,0,0,3.882-18.6.838.838,0,0,0-1.675,0Z" transform="translate(-565.415 -192.287)" fill="#2717be"/>
          <path id="Trazado_778734" data-name="Trazado 778734" d="M592.448,468.782a.861.861,0,0,0-1.031.58,21.928,21.928,0,0,1-4.865,7.329c-.757.757.419,1.949,1.176,1.176a24.019,24.019,0,0,0,5.283-8.07.848.848,0,0,0-.58-1.031Z" transform="translate(-563.321 -188.676)" fill="#2717be"/>
          <path id="Trazado_778735" data-name="Trazado 778735" d="M624.435,504.939a49.72,49.72,0,0,1-12.9,12.467c-.886.6-.048,2.029.838,1.433a51.556,51.556,0,0,0,13.5-13.063c.628-.87-.821-1.708-1.434-.838Z" transform="translate(-548.145 -166.798)" fill="#2717be"/>
          <path id="Trazado_778736" data-name="Trazado 778736" d="M606.344,514.131a20.2,20.2,0,0,1-10.889-6.636c-.693-.822-1.868.37-1.176,1.176a21.791,21.791,0,0,0,11.63,7.071c1.047.242,1.5-1.369.451-1.611Z" transform="translate(-558.581 -165.182)" fill="#2717be"/>
          <path id="Trazado_778737" data-name="Trazado 778737" d="M606.955,509.066a12.521,12.521,0,0,1-8.537-2.529.867.867,0,0,0-1.176,0,.836.836,0,0,0,0,1.176,14.183,14.183,0,0,0,9.713,3.028.838.838,0,0,0,0-1.675Z" transform="translate(-556.791 -165.738)" fill="#2717be"/>
          <path id="Trazado_778738" data-name="Trazado 778738" d="M682.356,521.99a60.2,60.2,0,0,1-43.442-8.489c-.9-.58-1.739.854-.837,1.434a61.9,61.9,0,0,0,34.567,9.745,59.8,59.8,0,0,0,10.164-1.079C683.854,523.407,683.419,521.8,682.356,521.99Z" transform="translate(-531.94 -161.427)" fill="#2717be"/>
          <path id="Trazado_778739" data-name="Trazado 778739" d="M673.759,495.46a29.212,29.212,0,0,0-10.309-7.023,57.253,57.253,0,0,0-5.589-20.65c-.628-1.289-1.337-2.8-2.819-3.286a2.57,2.57,0,0,0-3.076,1.16c-.789,1.321-.741,3.125-.886,4.607-.209,2.078-.419,4.14-.628,6.218-.113,1.063,1.562,1.063,1.675,0,.161-1.659.338-3.318.5-4.961a25.882,25.882,0,0,1,.515-4.333c.516-1.82,1.965-1.015,2.658.226a38.609,38.609,0,0,1,1.933,4.14A55.583,55.583,0,0,1,661.824,489a.882.882,0,0,0,.612.805,27.361,27.361,0,0,1,10.132,6.846c.741.789,1.917-.4,1.176-1.176Z" transform="translate(-524.148 -191.354)" fill="#2717be"/>
          <path id="Trazado_778740" data-name="Trazado 778740" d="M659.468,477.8a27.214,27.214,0,0,0-13.53-8.65,23.364,23.364,0,0,0-8.038-.934c-2,.177-4.446,1.417-3.7,3.834a4.389,4.389,0,0,0,2.706,2.529,13.215,13.215,0,0,0,1.611.451,25.071,25.071,0,0,0-4.607.693c-1.047.258-.6,1.868.451,1.611a24.316,24.316,0,0,1,15.222,1.192c.983.419,1.82-1.015.838-1.434a26.392,26.392,0,0,0-8.183-2.013.057.057,0,0,0-.032-.048,6.809,6.809,0,0,0-3.431-1.627c-.983-.242-3.4-.886-3.012-2.368.322-1.224,2.368-1.16,3.318-1.16a23.091,23.091,0,0,1,4.333.419,25.825,25.825,0,0,1,14.867,8.7c.693.822,1.869-.37,1.176-1.176Z" transform="translate(-534.614 -189.041)" fill="#2717be"/>
          <path id="Trazado_778741" data-name="Trazado 778741" d="M645.868,479.025l-10-3.624c-1.015-.37-1.45,1.24-.451,1.611,1.578.564,3.141,1.144,4.72,1.707-.886.081-1.772.145-2.658.226a.838.838,0,1,0,0,1.675l6.378-.532h0c.515.193,1.031.371,1.562.564,1.015.37,1.45-1.24.451-1.611Z" transform="translate(-533.675 -184.648)" fill="#2717be"/>
          <path id="Trazado_778742" data-name="Trazado 778742" d="M648.875,489.785a46.294,46.294,0,0,1-11.082-9.729c-.676-.822-1.852.354-1.176,1.176a47.614,47.614,0,0,0,11.4,10c.918.564,1.756-.87.838-1.434Z" transform="translate(-532.719 -181.942)" fill="#2717be"/>
          <path id="Trazado_778743" data-name="Trazado 778743" d="M658.28,475.054a77.96,77.96,0,0,0-13.224-8.795c-1.562-.822-4.462-1.691-5.025.805a3.242,3.242,0,0,0,.9,2.722c.693.805,1.9,1.289,2.287,2.336.37,1,1.981.564,1.611-.451a4.469,4.469,0,0,0-1.482-1.965c-.628-.516-1.578-1.1-1.691-1.981-.258-1.836,4.156.838,4.655,1.111A75.683,75.683,0,0,1,657.1,476.23C657.926,476.906,659.118,475.73,658.28,475.054Z" transform="translate(-530.544 -190.712)" fill="#2717be"/>
          <path id="Trazado_778744" data-name="Trazado 778744" d="M678.734,494.285a70.584,70.584,0,0,0-13.417,39.834,68.985,68.985,0,0,0,.789,11.952c.161,1.063,1.772.612,1.611-.451a68.829,68.829,0,0,1,6.363-40.462,67.958,67.958,0,0,1,6.1-10.051c.628-.87-.805-1.707-1.434-.838Z" transform="translate(-515.078 -173.315)" fill="#2717be"/>
          <path id="Trazado_778745" data-name="Trazado 778745" d="M710.222,523.69a46.05,46.05,0,0,0-4.413-7.12,23.718,23.718,0,0,0,2.271-10.776c-.032-1.063-1.707-1.079-1.675,0a21.681,21.681,0,0,1-1.772,9.294,45.688,45.688,0,0,0-5.783-5.928c-.805-.693-2,.483-1.176,1.176a44.992,44.992,0,0,1,11.1,14.207c.483.966,1.917.113,1.434-.838Z" transform="translate(-495.473 -166.542)" fill="#2717be"/>
          <path id="Trazado_778746" data-name="Trazado 778746" d="M736.844,518.83c-3.511,3.624-6.91,7.409-10.567,10.873-2.8,2.658-7.635,5.541-11.227,2.464-.805-.693-2,.483-1.176,1.176,3.64,3.125,8.617,1.611,12.016-1.079a63.366,63.366,0,0,0,5.847-5.734c2.094-2.174,4.2-4.333,6.3-6.508.741-.773-.435-1.949-1.176-1.176Z" transform="translate(-485.579 -158.235)" fill="#2717be"/>
          <path id="Trazado_778747" data-name="Trazado 778747" d="M709.358,535.778a24.5,24.5,0,0,0-6.991-3.093c-2.625-.87-5.267-1.708-7.925-2.481q-8.142-2.392-16.462-4.2a238.9,238.9,0,0,0-33.439-4.8q-9.664-.7-19.345-.6a.838.838,0,0,0,0,1.675,235.877,235.877,0,0,1,66.138,8.762q4.566,1.281,9.069,2.754c2.754.9,5.734,1.659,8.1,3.415.87.644,1.691-.805.838-1.434Z" transform="translate(-540.064 -157.013)" fill="#2717be"/>
          <path id="Trazado_778748" data-name="Trazado 778748" d="M658.962,406.432q-7.031,2.706-14.062,5.4-4.325-13.023-8.682-26.03c-.338-1.015-1.949-.58-1.611.451q4.47,13.458,8.956,26.9a.827.827,0,0,0,1.031.58q7.393-2.851,14.8-5.686c1-.387.564-2-.451-1.611Z" transform="translate(-533.85 -239.691)" fill="#2717be"/>
          <path id="Trazado_778749" data-name="Trazado 778749" d="M694.193,379.214a15.523,15.523,0,0,0-3.286-6.491,3.16,3.16,0,0,0-5.235.371c-1.466,2.464.306,5.122,1.869,7.007.692.822,1.868-.354,1.176-1.176-1.031-1.24-2.658-3.286-1.611-4.977,1.272-2.094,2.915.29,3.608,1.466,1.611,2.674,3.415,6.959.483,9.471-2.948,2.513-6.218-1.24-7.844-3.479a24.055,24.055,0,0,1-3.995-8.875c-.419-1.917-.837-4.2-.209-6.121.548-1.691,2.336-3.141,4.043-1.933.87.628,1.707-.822.837-1.434a4.043,4.043,0,0,0-5.267.757c-1.627,1.788-1.707,4.3-1.45,6.572a25.4,25.4,0,0,0,5.348,12.87c1.337,1.675,3,3.431,5.138,3.979a5.065,5.065,0,0,0,5.17-1.788,7.247,7.247,0,0,0,1.208-6.218Z" transform="translate(-507.808 -253.643)" fill="#2717be"/>
          <path id="Trazado_778750" data-name="Trazado 778750" d="M783.707,362.423c-2.819-5.2-7.474-8.634-12.693-11.195-5.235-2.561-10.9-4.381-15.7-7.764-4.993-3.512-7.828-8.762-9.89-14.368s-3.544-11.485-6.54-16.687a30.829,30.829,0,0,0-46.341-8.247,31.962,31.962,0,0,0-2.416,2.255c-4.156-9.31-15.882-13.772-25.418-10.454-11.307,3.93-17.783,16.027-17.138,27.608a39.321,39.321,0,0,0,7.651,20.634c.628.854,2.078.032,1.434-.838-6.894-9.536-10.18-22.6-4.72-33.584a24.823,24.823,0,0,1,10.792-11.179,19.4,19.4,0,0,1,14.545-1.16c5.251,1.627,9.906,5.428,11.758,10.7a.852.852,0,0,0,1.4.371,29.161,29.161,0,0,1,45.584,2.513c3.3,4.671,4.961,10.2,6.765,15.544,1.772,5.219,3.769,10.518,7.49,14.69,3.7,4.124,8.778,6.507,13.772,8.682,5.09,2.223,10.486,4.365,14.5,8.344a22.774,22.774,0,0,1,6.491,14.658,21.32,21.32,0,0,1-5.09,15.35,23.359,23.359,0,0,1-14.191,7.78,22.214,22.214,0,0,1-4.14.161c-1.079-.064-1.063,1.611,0,1.675,11.485.612,22.679-7.764,24.741-19.184a25.035,25.035,0,0,0-2.642-16.269Z" transform="translate(-525.934 -294.872)" fill="#2717be"/>
          <path id="Trazado_778751" data-name="Trazado 778751" d="M641.152,335.647c-17.928,8.424-22.808,29.622-28.51,46.663a94.066,94.066,0,0,1-6.153,14.835c-2.464,4.574-5.638,8.714-8.1,13.273-2.384,4.4-4.14,9.423-3.656,14.5a15.149,15.149,0,0,0,6.073,10.873c9.471,7.136,21.68,3.35,31.732-.242,1-.355.564-1.965-.451-1.611-8.907,3.173-19.232,6.717-28.2,1.836a13.832,13.832,0,0,1-7.313-9.713c-.9-4.993.773-10.116,3.093-14.5,2.319-4.365,5.315-8.328,7.748-12.628a84.9,84.9,0,0,0,5.96-13.579c3.205-9.085,5.477-18.524,9.632-27.254,4.124-8.682,10.116-16.881,19.023-21.053.966-.451.129-1.9-.838-1.434Z" transform="translate(-558.226 -270.045)" fill="#2717be"/>
          <path id="Trazado_778752" data-name="Trazado 778752" d="M652.085,335.663a35.806,35.806,0,0,1-5.235-35.453c.4-1-1.208-1.434-1.611-.451a37.493,37.493,0,0,0,5.67,37.079c.676.838,1.852-.354,1.176-1.176Z" transform="translate(-528.906 -292.225)" fill="#2717be"/>
          <path id="Trazado_778753" data-name="Trazado 778753" d="M648.868,328.949a28.847,28.847,0,0,1-8.134-16.349c-.145-1.063-1.756-.612-1.611.451a30.341,30.341,0,0,0,8.569,17.09.832.832,0,0,0,1.176-1.176Z" transform="translate(-531.07 -284.415)" fill="#2717be"/>
          <path id="Trazado_778754" data-name="Trazado 778754" d="M710.362,388.216a32.417,32.417,0,0,0-8.312,20.7.838.838,0,0,0,1.675,0,30.556,30.556,0,0,1,7.828-19.506c.725-.789-.451-1.981-1.176-1.176Z" transform="translate(-492.632 -238.017)" fill="#2717be"/>
          <path id="Trazado_778755" data-name="Trazado 778755" d="M714.161,395.654a.857.857,0,0,0-1.143-.306,19.489,19.489,0,0,0-8.376,8.038c-.515.934.918,1.788,1.434.838a17.943,17.943,0,0,1,7.764-7.442.853.853,0,0,0,.306-1.144Z" transform="translate(-491.116 -233.568)" fill="#2717be"/>
          <path id="Trazado_778756" data-name="Trazado 778756" d="M710.427,401.992c-1.546.209-3.093.419-4.639.612a.864.864,0,0,0-.838.838c.016.4.37.9.838.837,1.546-.209,3.093-.419,4.639-.612a.864.864,0,0,0,.838-.838C711.248,402.427,710.894,401.928,710.427,401.992Z" transform="translate(-490.861 -229.452)" fill="#2717be"/>
          <path id="Trazado_778757" data-name="Trazado 778757" d="M702.314,370.4c-.918-.419-1.836-.773-2.755-1.1.435-.081.87-.161,1.3-.226,1.063-.161.612-1.756-.451-1.611-1.482.226-2.931.5-4.381.838-9.246-2-19.023.29-28.091,2.706-11.291,3.028-24.371,6.781-35.485,1.111-4.945-2.529-9.085-6.749-10.5-12.226a.821.821,0,0,0-1.417-.306c-.1-.451-.209-.886-.29-1.353-.193-1.063-1.788-.612-1.611.451a30.087,30.087,0,0,0,20.94,23.291c13.272,3.834,26.916-1.369,39.173-6.169a128.781,128.781,0,0,1,17.283-5.783,26.887,26.887,0,0,1,5.428,1.82c.966.451,1.82-.983.838-1.434Zm-39.238,9.149c-6.282,1.707-12.95,2.69-19.442,1.627a28.118,28.118,0,0,1-14.98-7.361,28.917,28.917,0,0,1-6.024-8.263,22.1,22.1,0,0,0,6.089,6.266,28.976,28.976,0,0,0,15.512,4.816c12.821.515,24.709-5.138,37.208-6.942a44.325,44.325,0,0,1,10.534-.338c-9.794,2.851-19.039,7.522-28.913,10.2Z" transform="translate(-543.586 -256.541)" fill="#2717be"/>
          <path id="Trazado_778758" data-name="Trazado 778758" d="M662.447,376.394A14.451,14.451,0,0,1,647,385.753c-1.063-.129-1.047,1.53,0,1.675a16.106,16.106,0,0,0,17.058-10.583C664.428,375.83,662.8,375.4,662.447,376.394Z" transform="translate(-526.737 -245.428)" fill="#2717be"/>
          <path id="Trazado_778759" data-name="Trazado 778759" d="M635.966,388.772a.869.869,0,0,0-1.031.58,11.115,11.115,0,0,1-7.7,6.991c-1.047.258-.6,1.868.451,1.611a12.815,12.815,0,0,0,8.875-8.15.847.847,0,0,0-.58-1.031Z" transform="translate(-538.688 -237.542)" fill="#2717be"/>
          <path id="Trazado_778760" data-name="Trazado 778760" d="M674.442,381.34a11.452,11.452,0,1,0,11.453,11.452A11.446,11.446,0,0,0,674.442,381.34Z" transform="translate(-516.488 -242.062)" fill="#ff896c"/>
          <path id="Trazado_778761" data-name="Trazado 778761" d="M655.536,403.057c-4.075,3.447-5.3,8.714-2.738,11.726,2.545,3.012,7.941,2.674,12.016-.789,4.075-3.447,5.283-8.714,2.739-11.726C664.991,399.256,659.611,399.594,655.536,403.057Z" transform="translate(-523.53 -230.533)" fill="#ff896c"/>
          <path id="Trazado_778762" data-name="Trazado 778762" d="M651.043,417.015a42,42,0,0,0,19.232-19.522c.467-.966,1.9-.129,1.434.838a43.407,43.407,0,0,1-19.828,20.118C650.914,418.915,650.076,417.482,651.043,417.015Z" transform="translate(-524.046 -232.459)" fill="#2717be"/>
          <path id="Trazado_778763" data-name="Trazado 778763" d="M644.225,372.565l9.745-2.013a2.555,2.555,0,0,1,3.076,1.74,2.521,2.521,0,0,1-1.74,3.076c-3.254.677-6.491,1.337-9.745,2.014a2.555,2.555,0,0,1-3.076-1.74A2.521,2.521,0,0,1,644.225,372.565Z" transform="translate(-529.052 -248.686)" fill="#2717be"/>
          <path id="Trazado_778764" data-name="Trazado 778764" d="M624.176,385.092l5.7-5.267a2.528,2.528,0,0,1,3.544,0,2.512,2.512,0,0,1,.725,1.772,2.583,2.583,0,0,1-.725,1.772l-5.7,5.267a2.528,2.528,0,0,1-3.543,0,2.511,2.511,0,0,1-.725-1.772A2.582,2.582,0,0,1,624.176,385.092Z" transform="translate(-540.638 -243.43)" fill="#2717be"/>
          <path id="Trazado_778765" data-name="Trazado 778765" d="M706.078,456.026a2.563,2.563,0,0,0-3.077,1.74c-1.272,4.011-2.561,8.005-3.834,12.016a2.523,2.523,0,0,0,1.74,3.077,2.563,2.563,0,0,0,3.076-1.74c1.272-4.011,2.561-8.005,3.834-12.016A2.523,2.523,0,0,0,706.078,456.026Z" transform="translate(-494.453 -196.49)" fill="#2717be"/>
          <path id="Trazado_778766" data-name="Trazado 778766" d="M725.649,449.239c-3.866-.757-7.731-1.53-11.6-2.287a2.556,2.556,0,0,0-3.077,1.74,2.529,2.529,0,0,0,1.74,3.077c3.866.757,7.732,1.53,11.6,2.287a2.563,2.563,0,0,0,3.076-1.74A2.529,2.529,0,0,0,725.649,449.239Z" transform="translate(-487.222 -202.024)" fill="#2717be"/>
          <path id="Trazado_778767" data-name="Trazado 778767" d="M720.356,475.889c-1.24-4.011-2.48-8.038-3.721-12.048a2.5,2.5,0,1,0-4.816,1.337c1.24,4.011,2.48,8.038,3.721,12.048a2.5,2.5,0,0,0,4.816-1.337Z" transform="translate(-486.729 -192.804)" fill="#2717be"/>
          <path id="Trazado_778768" data-name="Trazado 778768" d="M711.563,478.543a2.543,2.543,0,0,0-3.544,0q-3.938,4.18-7.876,8.344a2.506,2.506,0,0,0,3.544,3.544q3.938-4.18,7.876-8.344A2.543,2.543,0,0,0,711.563,478.543Z" transform="translate(-494.236 -183.135)" fill="#2717be"/>
          <path id="Trazado_778769" data-name="Trazado 778769" d="M716.126,494.577c-1.063-2.481-2.142-4.961-3.205-7.442a2.494,2.494,0,0,0-1.5-1.144,2.537,2.537,0,0,0-1.933.258,2.494,2.494,0,0,0-1.144,1.5c-.032.226-.065.451-.1.661a2.449,2.449,0,0,0,.338,1.256c1.063,2.481,2.142,4.961,3.205,7.442a2.494,2.494,0,0,0,1.5,1.144,2.537,2.537,0,0,0,1.933-.258,2.494,2.494,0,0,0,1.144-1.5c.032-.226.064-.451.1-.661A2.45,2.45,0,0,0,716.126,494.577Z" transform="translate(-488.845 -178.197)" fill="#2717be"/>
          <path id="Trazado_778770" data-name="Trazado 778770" d="M729.59,431.065a2.561,2.561,0,0,0-3.431-.9c-2.786,1.546-5.573,3.076-8.36,4.623a2.508,2.508,0,0,0,2.529,4.333c2.787-1.546,5.573-3.077,8.36-4.623A2.546,2.546,0,0,0,729.59,431.065Z" transform="translate(-483.769 -212.442)" fill="#2717be"/>
          <path id="Trazado_778771" data-name="Trazado 778771" d="M725.71,419.53a2.559,2.559,0,0,0-3.544,0c-2.159,2.013-4.333,4.011-6.491,6.024a2.528,2.528,0,0,0,0,3.544,2.559,2.559,0,0,0,3.544,0c2.158-2.013,4.333-4.011,6.491-6.024A2.528,2.528,0,0,0,725.71,419.53Z" transform="translate(-484.753 -219.173)" fill="#2717be"/>
          <path id="Trazado_778772" data-name="Trazado 778772" d="M747.325,445.66a2.926,2.926,0,0,0-1.144-1.5c-2.626-2.013-5.251-4.011-7.877-6.024a2.538,2.538,0,0,0-1.933-.258,2.606,2.606,0,0,0-1.5,1.144,2.538,2.538,0,0,0-.258,1.933,2.927,2.927,0,0,0,1.144,1.5c2.625,2.013,5.251,4.011,7.877,6.024a2.528,2.528,0,0,0,1.933.258,2.605,2.605,0,0,0,1.5-1.144A2.537,2.537,0,0,0,747.325,445.66Z" transform="translate(-472.8 -207.579)" fill="#2717be"/>
          <path id="Trazado_778773" data-name="Trazado 778773" d="M730.7,449.031a2.541,2.541,0,0,0-2.5,2.5q0,5.1-.032,10.2a2.5,2.5,0,0,0,4.993,0q0-5.1.032-10.2A2.53,2.53,0,0,0,730.7,449.031Z" transform="translate(-476.679 -200.721)" fill="#2717be"/>
          <path id="Trazado_778774" data-name="Trazado 778774" d="M756.654,458.945c-3.238-1.1-6.491-2.191-9.729-3.286a2.523,2.523,0,0,0-3.077,1.74,2.558,2.558,0,0,0,1.74,3.077l9.729,3.286a2.523,2.523,0,0,0,3.076-1.74A2.557,2.557,0,0,0,756.654,458.945Z" transform="translate(-467.149 -196.735)" fill="#2717be"/>
          <path id="Trazado_778775" data-name="Trazado 778775" d="M736.575,464.935a2.549,2.549,0,0,0-3.076,1.74c-.805,3.076-1.595,6.169-2.4,9.246a2.5,2.5,0,0,0,4.816,1.337c.805-3.077,1.595-6.169,2.4-9.246A2.542,2.542,0,0,0,736.575,464.935Z" transform="translate(-474.936 -191.047)" fill="#2717be"/>
          <path id="Trazado_778776" data-name="Trazado 778776" d="M735.62,491.114c-2.207-3.318-4.4-6.652-6.6-9.971a2.509,2.509,0,1,0-4.333,2.529c2.207,3.318,4.4,6.652,6.6,9.97a2.508,2.508,0,0,0,4.333-2.529Z" transform="translate(-479.023 -181.87)" fill="#2717be"/>
          <path id="Trazado_778777" data-name="Trazado 778777" d="M754.222,477.9a2.58,2.58,0,0,0-3.431-.9l-9.262,4.655a2.532,2.532,0,0,0-.9,3.431,2.581,2.581,0,0,0,3.431.9c3.093-1.546,6.185-3.109,9.262-4.655A2.532,2.532,0,0,0,754.222,477.9Z" transform="translate(-469.276 -183.829)" fill="#2717be"/>
          <path id="Trazado_778778" data-name="Trazado 778778" d="M762.836,480.591l-5.557-9.278a2.535,2.535,0,0,0-3.431-.9,2.565,2.565,0,0,0-.9,3.431l5.557,9.278a2.536,2.536,0,0,0,3.431.9A2.565,2.565,0,0,0,762.836,480.591Z" transform="translate(-461.75 -187.873)" fill="#2717be"/>
          <path id="Trazado_778779" data-name="Trazado 778779" d="M759.566,500.964c-1.24-3.56-2.481-7.1-3.7-10.663a2.5,2.5,0,1,0-4.816,1.337c1.24,3.56,2.48,7.1,3.7,10.663a2.5,2.5,0,0,0,4.816-1.337Z" transform="translate(-462.781 -176.643)" fill="#2717be"/>
          <path id="Trazado_778780" data-name="Trazado 778780" d="M748.441,493.445a2.542,2.542,0,0,0-3.077,1.74c-1.079,4.478-2.158,8.972-3.237,13.45a2.5,2.5,0,1,0,4.816,1.337c1.079-4.478,2.158-8.972,3.238-13.45A2.542,2.542,0,0,0,748.441,493.445Z" transform="translate(-468.198 -173.634)" fill="#2717be"/>
          <path id="Trazado_778781" data-name="Trazado 778781" d="M757.255,509.94q-5.8.072-11.6.129a2.5,2.5,0,0,0,0,4.993q5.8-.073,11.6-.129a2.5,2.5,0,0,0,0-4.993Z" transform="translate(-467.525 -163.519)" fill="#2717be"/>
          <path id="Trazado_778782" data-name="Trazado 778782" d="M756.493,522.917a2.5,2.5,0,1,0-4.993,0c0,4.011,0,8.038.016,12.048a2.5,2.5,0,1,0,4.993,0C756.509,530.955,756.509,526.928,756.493,522.917Z" transform="translate(-462.43 -157.12)" fill="#2717be"/>
          <path id="Trazado_778783" data-name="Trazado 778783" d="M753.223,551.93q-1.232-5.316-2.448-10.631a2.51,2.51,0,0,0-3.076-1.74,2.544,2.544,0,0,0-1.74,3.076q1.232,5.316,2.448,10.631a2.51,2.51,0,0,0,3.076,1.74A2.544,2.544,0,0,0,753.223,551.93Z" transform="translate(-465.861 -145.493)" fill="#2717be"/>
          <path id="Trazado_781750" data-name="Trazado 781750" d="M753.223,551.93q-1.232-5.316-2.448-10.631a2.51,2.51,0,0,0-3.076-1.74,2.544,2.544,0,0,0-1.74,3.076q1.232,5.316,2.448,10.631a2.51,2.51,0,0,0,3.076,1.74A2.544,2.544,0,0,0,753.223,551.93Z" transform="translate(-494.212 -103.709)" fill="#2717be"/>
          <path id="Trazado_781757" data-name="Trazado 781757" d="M753.223,551.93q-1.232-5.316-2.448-10.631a2.51,2.51,0,0,0-3.076-1.74,2.544,2.544,0,0,0-1.74,3.076q1.232,5.316,2.448,10.631a2.51,2.51,0,0,0,3.076,1.74A2.544,2.544,0,0,0,753.223,551.93Z" transform="translate(-589.808 -96.5)" fill="#2717be"/>
          <path id="Trazado_778784" data-name="Trazado 778784" d="M743.713,552.341c-1.707-2.932-3.4-5.879-5.106-8.811a2.508,2.508,0,0,0-4.333,2.529c1.707,2.932,3.4,5.88,5.106,8.811a2.508,2.508,0,1,0,4.333-2.529Z" transform="translate(-473.151 -143.762)" fill="#2717be"/>
          <path id="Trazado_778785" data-name="Trazado 778785" d="M727.907,545.326a2.512,2.512,0,0,0-1.772-.725,2.484,2.484,0,0,0-1.772.725c-2.32,2.932-4.639,5.879-6.958,8.811a2.688,2.688,0,0,0-.725,1.772,2.581,2.581,0,0,0,.725,1.772,2.511,2.511,0,0,0,1.772.725,2.483,2.483,0,0,0,1.772-.725c2.319-2.932,4.639-5.879,6.958-8.811a2.69,2.69,0,0,0,.725-1.772A2.581,2.581,0,0,0,727.907,545.326Z" transform="translate(-483.697 -142.352)" fill="#2717be"/>
          <path id="Trazado_778786" data-name="Trazado 778786" d="M736.59,556.387c-3.4-.274-6.814-.532-10.212-.805a2.509,2.509,0,0,0-2.5,2.5,2.552,2.552,0,0,0,2.5,2.5c3.4.274,6.813.532,10.212.805a2.509,2.509,0,0,0,2.5-2.5A2.552,2.552,0,0,0,736.59,556.387Z" transform="translate(-479.3 -135.647)" fill="#2717be"/>
          <path id="Trazado_778787" data-name="Trazado 778787" d="M749.169,554.523a2.543,2.543,0,0,0-3.544,0c-2.545,3.157-5.106,6.314-7.651,9.455a2.688,2.688,0,0,0-.725,1.772,2.582,2.582,0,0,0,.725,1.772,2.543,2.543,0,0,0,3.543,0c2.545-3.157,5.106-6.314,7.651-9.455a2.689,2.689,0,0,0,.725-1.772A2.581,2.581,0,0,0,749.169,554.523Z" transform="translate(-471.133 -136.731)" fill="#2717be"/>
          <path id="Trazado_778788" data-name="Trazado 778788" d="M725.866,564.638c-3.093-.161-6.185-.306-9.278-.467a2.509,2.509,0,0,0-2.5,2.5,2.542,2.542,0,0,0,2.5,2.5c3.093.161,6.185.306,9.278.467a2.509,2.509,0,0,0,2.5-2.5A2.541,2.541,0,0,0,725.866,564.638Z" transform="translate(-485.279 -130.399)" fill="#2717be"/>
          <path id="Trazado_781746" data-name="Trazado 781746" d="M725.866,569.164c-3.093.161-6.185.306-9.278.467a2.509,2.509,0,0,1-2.5-2.5,2.541,2.541,0,0,1,2.5-2.5c3.093-.161,6.185-.306,9.278-.467a2.509,2.509,0,0,1,2.5,2.5A2.541,2.541,0,0,1,725.866,569.164Z" transform="translate(-455.105 -110.63)" fill="#2717be"/>
          <path id="Trazado_781741" data-name="Trazado 781741" d="M725.866,569.164c-3.093.161-6.185.306-9.278.467a2.509,2.509,0,0,1-2.5-2.5,2.541,2.541,0,0,1,2.5-2.5c3.093-.161,6.185-.306,9.278-.467a2.509,2.509,0,0,1,2.5,2.5A2.541,2.541,0,0,1,725.866,569.164Z" transform="translate(-577.864 -111.891)" fill="#2717be"/>
          <path id="Trazado_781753" data-name="Trazado 781753" d="M716.587,569.164c3.093.161,6.185.306,9.278.467a2.509,2.509,0,0,0,2.5-2.5,2.541,2.541,0,0,0-2.5-2.5c-3.093-.161-6.185-.306-9.278-.467a2.509,2.509,0,0,0-2.5,2.5A2.541,2.541,0,0,0,716.587,569.164Z" transform="translate(-572.876 -88.955)" fill="#2717be"/>
          <path id="Trazado_778789" data-name="Trazado 778789" d="M710.988,558.232a2.55,2.55,0,0,0-3.431.9c-1.965,3.27-3.946,6.54-5.912,9.81a2.509,2.509,0,0,0,4.333,2.529c1.965-3.27,3.946-6.54,5.911-9.81A2.532,2.532,0,0,0,710.988,558.232Z" transform="translate(-493.081 -134.221)" fill="#2717be"/>
          <path id="Trazado_781745" data-name="Trazado 781745" d="M710.988,572.374a2.55,2.55,0,0,1-3.431-.9c-1.965-3.27-3.946-6.54-5.912-9.809a2.509,2.509,0,0,1,4.333-2.529c1.965,3.27,3.946,6.539,5.911,9.809A2.532,2.532,0,0,1,710.988,572.374Z" transform="translate(-462.907 -103.612)" fill="#2717be"/>
          <path id="Trazado_781756" data-name="Trazado 781756" d="M710.988,572.374a2.55,2.55,0,0,1-3.431-.9c-1.965-3.27-3.946-6.54-5.912-9.809a2.509,2.509,0,0,1,4.333-2.529c1.965,3.27,3.946,6.539,5.911,9.809A2.532,2.532,0,0,1,710.988,572.374Z" transform="translate(-529.877 -87.357)" fill="#2717be"/>
          <path id="Trazado_781740" data-name="Trazado 781740" d="M710.988,572.374a2.55,2.55,0,0,1-3.431-.9c-1.965-3.27-3.946-6.54-5.912-9.809a2.509,2.509,0,0,1,4.333-2.529c1.965,3.27,3.946,6.539,5.911,9.809A2.532,2.532,0,0,1,710.988,572.374Z" transform="translate(-585.667 -104.872)" fill="#2717be"/>
          <path id="Trazado_781752" data-name="Trazado 781752" d="M702.548,572.373a2.55,2.55,0,0,0,3.431-.9c1.965-3.27,3.946-6.539,5.912-9.809a2.509,2.509,0,0,0-4.333-2.529c-1.965,3.27-3.946,6.539-5.911,9.809A2.531,2.531,0,0,0,702.548,572.373Z" transform="translate(-497.39 -90.089)" fill="#2717be"/>
          <path id="Trazado_778790" data-name="Trazado 778790" d="M697.552,567.32c-1.4-2.158-2.786-4.317-4.188-6.475a2.512,2.512,0,0,0-4.333,2.545l4.188,6.475a2.513,2.513,0,0,0,4.333-2.545Z" transform="translate(-500.795 -133.179)" fill="#2717be"/>
          <path id="Trazado_781748" data-name="Trazado 781748" d="M697.552,567.32c-1.4-2.158-2.786-4.317-4.188-6.475a2.512,2.512,0,0,0-4.333,2.545l4.188,6.475a2.513,2.513,0,0,0,4.333-2.545Z" transform="translate(-499.76 -103.27)" fill="#2717be"/>
          <path id="Trazado_781744" data-name="Trazado 781744" d="M697.552,563.39c-1.4,2.158-2.786,4.317-4.188,6.475a2.512,2.512,0,0,1-4.333-2.545l4.188-6.475a2.513,2.513,0,0,1,4.333,2.545Z" transform="translate(-470.621 -104.76)" fill="#2717be"/>
          <path id="Trazado_781739" data-name="Trazado 781739" d="M697.552,563.39c-1.4,2.158-2.786,4.317-4.188,6.475a2.512,2.512,0,0,1-4.333-2.545l4.188-6.475a2.513,2.513,0,0,1,4.333,2.545Z" transform="translate(-593.38 -106.02)" fill="#2717be"/>
          <path id="Trazado_781736" data-name="Trazado 781736" d="M697.552,567.32c-1.4-2.158-2.786-4.317-4.188-6.475a2.512,2.512,0,0,0-4.333,2.545l4.188,6.475a2.513,2.513,0,0,0,4.333-2.545Z" transform="translate(-619.018 -144.654)" fill="#2717be"/>
          <path id="Trazado_781737" data-name="Trazado 781737" d="M689.031,567.321c1.4-2.158,2.787-4.317,4.188-6.475a2.513,2.513,0,0,1,4.333,2.545l-4.188,6.476a2.513,2.513,0,0,1-4.333-2.545Z" transform="translate(-585.141 -136.74)" fill="#2717be"/>
          <path id="Trazado_781742" data-name="Trazado 781742" d="M689.031,567.321c1.4-2.158,2.787-4.317,4.188-6.475a2.513,2.513,0,0,1,4.333,2.545l-4.188,6.476a2.513,2.513,0,0,1-4.333-2.545Z" transform="translate(-580.534 -123.489)" fill="#2717be"/>
          <path id="Trazado_781758" data-name="Trazado 781758" d="M689.031,567.321c1.4-2.158,2.787-4.317,4.188-6.475a2.513,2.513,0,0,1,4.333,2.545l-4.188,6.476a2.513,2.513,0,0,1-4.333-2.545Z" transform="translate(-561.675 -90.142)" fill="#2717be"/>
          <path id="Trazado_778791" data-name="Trazado 778791" d="M694.3,569.3a2.531,2.531,0,0,0-3.077-1.74c-2.786.9-5.589,1.788-8.376,2.69a2.5,2.5,0,1,0,1.337,4.816c2.787-.9,5.589-1.788,8.376-2.69A2.538,2.538,0,0,0,694.3,569.3Z" transform="translate(-505.487 -128.394)" fill="#2717be"/>
          <path id="Trazado_781751" data-name="Trazado 781751" d="M694.3,569.3a2.531,2.531,0,0,0-3.077-1.74c-2.786.9-5.589,1.788-8.376,2.69a2.5,2.5,0,1,0,1.337,4.816c2.787-.9,5.589-1.788,8.376-2.69A2.538,2.538,0,0,0,694.3,569.3Z" transform="translate(-549.643 -132.256)" fill="#2717be"/>
          <path id="Trazado_781747" data-name="Trazado 781747" d="M694.3,573.327a2.531,2.531,0,0,1-3.077,1.74c-2.786-.9-5.589-1.788-8.376-2.69a2.5,2.5,0,1,1,1.337-4.816c2.787.9,5.589,1.788,8.376,2.69A2.537,2.537,0,0,1,694.3,573.327Z" transform="translate(-515.155 -108.842)" fill="#2717be"/>
          <path id="Trazado_781743" data-name="Trazado 781743" d="M694.3,573.327a2.531,2.531,0,0,1-3.077,1.74c-2.786-.9-5.589-1.788-8.376-2.69a2.5,2.5,0,1,1,1.337-4.816c2.787.9,5.589,1.788,8.376,2.69A2.538,2.538,0,0,1,694.3,573.327Z" transform="translate(-475.312 -121.462)" fill="#2717be"/>
          <path id="Trazado_781738" data-name="Trazado 781738" d="M694.3,573.327a2.531,2.531,0,0,1-3.077,1.74c-2.786-.9-5.589-1.788-8.376-2.69a2.5,2.5,0,1,1,1.337-4.816c2.787.9,5.589,1.788,8.376,2.69A2.538,2.538,0,0,1,694.3,573.327Z" transform="translate(-598.072 -122.723)" fill="#2717be"/>
          <path id="Trazado_781754" data-name="Trazado 781754" d="M694.3,573.327a2.531,2.531,0,0,1-3.077,1.74c-2.786-.9-5.589-1.788-8.376-2.69a2.5,2.5,0,1,1,1.337-4.816c2.787.9,5.589,1.788,8.376,2.69A2.538,2.538,0,0,1,694.3,573.327Z" transform="translate(-606.729 -92.24)" fill="#2717be"/>
          <path id="Trazado_781755" data-name="Trazado 781755" d="M694.3,573.327a2.531,2.531,0,0,1-3.077,1.74c-2.786-.9-5.589-1.788-8.376-2.69a2.5,2.5,0,1,1,1.337-4.816c2.787.9,5.589,1.788,8.376,2.69A2.538,2.538,0,0,1,694.3,573.327Z" transform="translate(-32.98 -407.139) rotate(41)" fill="#2717be"/>
          <path id="Trazado_778792" data-name="Trazado 778792" d="M609.007,543.94c-1.385-4.333-2.754-8.666-4.14-13a2.5,2.5,0,1,0-4.816,1.337c1.385,4.333,2.754,8.666,4.139,13a2.5,2.5,0,0,0,4.816-1.337Z" transform="translate(-554.994 -151.822)" fill="#2717be"/>
          <path id="Trazado_778793" data-name="Trazado 778793" d="M621.137,522.818a2.575,2.575,0,0,0-3.544,0c-2.642,2.3-5.267,4.623-7.909,6.926a2.528,2.528,0,0,0,0,3.544,2.574,2.574,0,0,0,3.544,0c2.642-2.3,5.267-4.623,7.909-6.926A2.528,2.528,0,0,0,621.137,522.818Z" transform="translate(-549.486 -156.086)" fill="#2717be"/>
          <path id="Trazado_778794" data-name="Trazado 778794" d="M607.5,517.685a2.512,2.512,0,0,0-1.772-.725,2.582,2.582,0,0,0-1.772.725,2.862,2.862,0,0,0-.725,1.772q-.387,4.18-.773,8.36a2.611,2.611,0,0,0,.725,1.772,2.512,2.512,0,0,0,1.772.725,2.582,2.582,0,0,0,1.772-.725,2.86,2.86,0,0,0,.725-1.772l.773-8.36a2.555,2.555,0,0,0-.741-1.772Z" transform="translate(-553.458 -159.233)" fill="#2717be"/>
          <path id="Trazado_778795" data-name="Trazado 778795" d="M601.3,525.585a2.5,2.5,0,0,0-1.144-1.5,2.966,2.966,0,0,0-1.933-.258c-3.544.5-7.1.983-10.647,1.482a2.494,2.494,0,0,0-1.5,1.144,2.6,2.6,0,0,0-.258,1.933,2.5,2.5,0,0,0,1.144,1.5,2.965,2.965,0,0,0,1.933.257c3.544-.5,7.1-.982,10.647-1.482a2.5,2.5,0,0,0,1.5-1.144A2.6,2.6,0,0,0,601.3,525.585Z" transform="translate(-563.671 -155.068)" fill="#2717be"/>
          <path id="Trazado_778796" data-name="Trazado 778796" d="M592.02,522.283q-2.368-5.316-4.736-10.615a2.524,2.524,0,0,0-3.431-.9,2.6,2.6,0,0,0-.9,3.431q2.368,5.315,4.736,10.615a2.524,2.524,0,0,0,3.431.9A2.6,2.6,0,0,0,592.02,522.283Z" transform="translate(-565.55 -163.218)" fill="#2717be"/>
          <path id="Trazado_778797" data-name="Trazado 778797" d="M579.1,508.965a2.529,2.529,0,0,0-3.076,1.74l-1.836,9.278a2.555,2.555,0,0,0,1.74,3.077,2.529,2.529,0,0,0,3.077-1.74l1.836-9.278a2.555,2.555,0,0,0-1.74-3.077Z" transform="translate(-570.756 -164.156)" fill="#2717be"/>
          <path id="Trazado_778798" data-name="Trazado 778798" d="M610.563,448.866a2.531,2.531,0,0,0-3.077-1.74l-11.6,3.238a2.5,2.5,0,1,0,1.337,4.816l11.6-3.238A2.53,2.53,0,0,0,610.563,448.866Z" transform="translate(-558.595 -201.941)" fill="#2717be"/>
          <path id="Trazado_778799" data-name="Trazado 778799" d="M618.943,458.413q-2.078-4.639-4.172-9.278a2.5,2.5,0,0,0-1.5-1.144,2.538,2.538,0,0,0-1.933.258,2.5,2.5,0,0,0-1.144,1.5,2.882,2.882,0,0,0,.258,1.933q2.078,4.639,4.172,9.278a2.494,2.494,0,0,0,1.5,1.144,2.538,2.538,0,0,0,1.933-.258,2.494,2.494,0,0,0,1.144-1.5A2.881,2.881,0,0,0,618.943,458.413Z" transform="translate(-548.774 -201.405)" fill="#2717be"/>
          <path id="Trazado_778800" data-name="Trazado 778800" d="M629.6,458.327a2.493,2.493,0,0,0-1.5-1.144,2.394,2.394,0,0,0-1.933.258c-1.852,1.385-3.7,2.787-5.557,4.172a2.657,2.657,0,0,0-1.144,1.5,2.54,2.54,0,0,0,.258,1.933,2.494,2.494,0,0,0,1.5,1.144,2.4,2.4,0,0,0,1.933-.258c1.852-1.385,3.7-2.787,5.557-4.172a2.655,2.655,0,0,0,1.144-1.5A2.538,2.538,0,0,0,629.6,458.327Z" transform="translate(-543.118 -195.794)" fill="#2717be"/>
          <path id="Trazado_778801" data-name="Trazado 778801" d="M719.855,479.567a.838.838,0,0,0-1.675,0q.435,21.334.87,42.669a.838.838,0,0,0,1.675,0Q720.29,500.9,719.855,479.567Z" transform="translate(-482.781 -182.564)" fill="#2717be"/>
          <path id="Trazado_778802" data-name="Trazado 778802" d="M678.906,560.579q-7.345-7.973-14.674-15.93c-.725-.789-1.9.387-1.176,1.176q7.345,7.973,14.674,15.93C678.455,562.544,679.631,561.369,678.906,560.579Z" transform="translate(-516.586 -142.48)" fill="#2717be"/>
          <path id="Trazado_778803" data-name="Trazado 778803" d="M679.8,576.178q-7.756-9.036-15.528-18.057,6.862,5.533,13.724,11.05c.821.66,2.013-.5,1.176-1.176q-10.365-8.36-20.746-16.72c-.016,0-.032,0-.049-.032h0a.776.776,0,0,0-1.337.354,1.064,1.064,0,0,0-.032.112c0,.033-.016.065-.016.1a.578.578,0,0,0,.145.516c.032.032.032.08.065.113l21.439,24.934c.709.821,1.868-.37,1.176-1.176Z" transform="translate(-520.157 -138.46)" fill="#2717be"/>
          <path id="Trazado_778804" data-name="Trazado 778804" d="M710.674,331.191c-1.047-.258-1.482,1.353-.451,1.611a27.265,27.265,0,0,1,20.5,24.918c.048,1.063,1.724,1.079,1.675,0a28.958,28.958,0,0,0-21.729-26.529Z" transform="translate(-487.999 -272.708)" fill="#fff"/>
          <path id="Trazado_778805" data-name="Trazado 778805" d="M718.932,342.859c-.725-.789-1.9.387-1.176,1.176a10.789,10.789,0,0,1,2.593,9.5c-.225,1.047,1.369,1.5,1.611.451a12.518,12.518,0,0,0-3.012-11.13Z" transform="translate(-483.178 -265.724)" fill="#fff"/>
          <path id="Trazado_778806" data-name="Trazado 778806" d="M612.064,376.04a28.767,28.767,0,0,0-4.268,23.372c.257,1.047,1.868.6,1.61-.451a27.068,27.068,0,0,1,4.091-22.083c.612-.886-.822-1.707-1.434-.838Z" transform="translate(-550.723 -245.525)" fill="#fff"/>
          <path id="Trazado_778807" data-name="Trazado 778807" d="M613.286,394.5a11.212,11.212,0,0,1-.032-10.567c.515-.95-.934-1.788-1.434-.838a12.886,12.886,0,0,0,.032,12.242C612.368,396.275,613.8,395.437,613.286,394.5Z" transform="translate(-548.674 -241.243)" fill="#fff"/>
          <path id="Trazado_778808" data-name="Trazado 778808" d="M657.615,361.2a34.1,34.1,0,0,1-30.508-5.477c-.837-.644-2.029.515-1.176,1.176a35.783,35.783,0,0,0,32.118,5.912c1.015-.322.58-1.933-.451-1.611Z" transform="translate(-539.301 -257.824)" fill="#fff"/>
          <path id="Trazado_778809" data-name="Trazado 778809" d="M651.255,354.033a34.9,34.9,0,0,1-13.031,3.769c-1.063.1-1.079,1.756,0,1.675a37.136,37.136,0,0,0,13.885-3.995c.95-.5.113-1.933-.838-1.434Z" transform="translate(-532.104 -258.793)" fill="#fff"/>
          <path id="Trazado_778810" data-name="Trazado 778810" d="M725.8,310.075c-1.24-7.877-10.873-5.557-15.834-3.447a44.875,44.875,0,0,0-16.027,11.662,46.4,46.4,0,0,0-7.764,12.274,65.962,65.962,0,0,0-5.025-11.146c-2.932-5.106-6.7-10.889-11.6-14.287-4.848-3.366-11.388-1.627-12.483,4.558-1.079,6.2,3.834,10.389,8.1,13.965q7.079,5.944,14.175,11.871a68.042,68.042,0,0,0-24.4-2.4c-3.189.274-3.206,5.283,0,5.009a64.521,64.521,0,0,1,49.24,16.881c2.352,2.191,5.9-1.337,3.544-3.544a69.191,69.191,0,0,0-18.749-12.419,2.59,2.59,0,0,0,.177-.628q10.606-6.427,21.229-12.87c3.737-2.271,7.764-4.333,11.259-6.975,2.658-2.013,4.7-5.042,4.156-8.521ZM663.2,314.94c-1.144-1.579-2.255-4.864-.177-6.3,2.5-1.723,5.831,2.384,7.216,3.995a56.643,56.643,0,0,1,5.7,7.844,59.8,59.8,0,0,1,4.736,9.681l-10.083-8.44c-2.5-2.094-5.493-4.107-7.409-6.781Zm52.833,1.353c-3.205,1.949-6.395,3.882-9.6,5.815q-7.538,4.566-15.077,9.149A40.851,40.851,0,0,1,707.1,313.7a37.058,37.058,0,0,1,7.313-3.463c1.514-.516,5.219-1.772,6.314.113,1.466,2.529-3.125,4.977-4.687,5.927Z" transform="translate(-522.869 -289.639)" fill="#ff896c"/>
        </g>
        <path id="Trazado_778811" data-name="Trazado 778811" d="M606.956,328.324c13.184,18.348,7.157,61.37,7.157,61.37C588.059,377.2,560.34,355.948,567.372,346.5c7.047-9.433,27.687,4.034,27.687,4.034-1.209-4.74-1.271-40.557,11.9-22.209Z" transform="translate(-547.47 -278.776)" fill="#31c79a"/>
        <path id="Trazado_778812" data-name="Trazado 778812" d="M615.94,323.325a33.706,33.706,0,0,1,5.415-9.527,19.072,19.072,0,0,1,5.007-4.52,6.246,6.246,0,0,1,2.652-.926,3.172,3.172,0,0,1,2.574.942,4.35,4.35,0,0,1,.8,2.935,23.474,23.474,0,0,1-2.778,9.825,107.974,107.974,0,0,1-6.074,10.422q-5.768,9.135-11.568,18.27c-6.2-9.339-12.2-19.007-14.675-29.916a22,22,0,0,1-.612-7.895,4.208,4.208,0,0,1,.848-2.276,3.261,3.261,0,0,1,2.825-.91,8.072,8.072,0,0,1,2.872,1.067,31.946,31.946,0,0,1,12.666,12.509Z" transform="translate(-530.226 -287.198)" fill="#ff896c"/>
      </g>
    </g>
    <path id="Trazado_781732" data-name="Trazado 781732" d="M453.008,370.31H140.04c-2.085,0-3.79-1.2-3.79-2.69h0c0-1.48,1.691-2.69,3.79-2.69H453.008c2.085,0,3.79,1.2,3.79,2.69h0C456.8,369.1,455.107,370.31,453.008,370.31Z" transform="translate(85.474 1901.025)" fill="#355f85"/>
  </g>
</svg>
