<svg xmlns="http://www.w3.org/2000/svg" width="112" height="111.092" viewBox="0 0 112 111.092">
  <g id="Grupo_1064297" data-name="Grupo 1064297" transform="translate(-233.563 -3298.004)">
    <g id="Grupo_1044644" data-name="Grupo 1044644" transform="translate(240.617 3304.179)">
      <rect id="Rectángulo_355765" data-name="Rectángulo 355765" width="97.892" height="96.547" rx="12" fill="#edc1e3"/>
    </g>
    <g id="buena-salud" transform="translate(233.563 3298.004)">
      <g id="Grupo_1046602" data-name="Grupo 1046602" transform="translate(0.926 41.293)">
        <path id="Trazado_779342" data-name="Trazado 779342" d="M44.055,82.136a.938.938,0,0,1-.555-1.694l5.84-4.3-9.424,5.44A.938.938,0,0,1,38.908,80L53.92,69.457l-15.954,9.21a.939.939,0,0,1-.983-1.6L47.212,70.4l-9.274,5.354a.938.938,0,0,1-.979-1.6l9.893-6.412-8.916,5.147a.938.938,0,0,1-.972-1.6l2.215-1.405-1.244.718a.939.939,0,0,1-.987-1.6L51.107,59.68l-13.17,7.6a.936.936,0,0,1-1.065-1.533l7.34-6.074L37.936,63.3a.938.938,0,0,1-1.062-1.538l4.586-3.742-3.525,2.035a.936.936,0,0,1-1.064-1.534l3.335-2.744-2.1,1.212a.937.937,0,0,1-1.05-1.546l2.9-2.3-.872.5a.937.937,0,0,1-1.075-1.527l5.7-4.838-2.157,1.246a.938.938,0,0,1-1.086-1.519l4.765-4.164-1.294.747a.937.937,0,0,1-1.069-1.531l1.771-1.476a.946.946,0,0,1-.413-.293.936.936,0,0,1,.034-1.217l1.853-2.054a.9.9,0,0,1-.276-.3.935.935,0,0,1,.343-1.281l2.977-1.72a.937.937,0,0,1,1.165,1.439l-.683.756,2.02-1.165a.937.937,0,0,1,1.069,1.531l-.274.227.158-.09A.938.938,0,0,1,53.7,37.936L48.929,42.1l2.831-1.632A.937.937,0,0,1,52.834,42l-5.7,4.838,2.992-1.726a.937.937,0,0,1,1.05,1.546l-2.894,2.292.839-.484A.936.936,0,0,1,50.186,50L46.85,52.74l3.761-2.17a.938.938,0,0,1,1.062,1.538L47.087,55.85l5.856-3.382A.936.936,0,0,1,54.009,54l-7.342,6.076L77.717,42.151a.939.939,0,0,1,.987,1.6l-14.15,9.321,13.1-7.565a.938.938,0,0,1,.972,1.6L76.44,48.495l1.12-.645a.938.938,0,0,1,.979,1.6l-9.91,6.421L76.371,51.4a.939.939,0,0,1,.983,1.6L67.134,59.66l4.14-2.388a.938.938,0,0,1,1.007,1.579L57.261,69.4l5.785-3.339a.937.937,0,0,1,1.024,1.566l-6.245,4.6a.957.957,0,0,1,.917.358.936.936,0,0,1-.1,1.238L55.8,76.567l1.72-.99a.937.937,0,0,1,1.216,1.379l-1.148,1.514a.938.938,0,0,1,.332,1.741L54.819,82A.937.937,0,0,1,53.6,80.624l.833-1.1L50.137,82a.937.937,0,0,1-1.12-1.486l2.842-2.746L44.528,82a.922.922,0,0,1-.469.126Z" transform="translate(30.981 -12.836)" fill="#ffe5c2"/>
        <path id="Trazado_779343" data-name="Trazado 779343" d="M50.575,58.209a.938.938,0,0,1-.582-1.673l6.322-5.02-1.022.589a.937.937,0,0,1-1.056-1.542l2.6-2.09-.932.536a.937.937,0,0,1-1.056-1.542L56.915,45.8l-.426.246a.938.938,0,0,1-1.107-1.5l4.858-4.5-2.9,1.675a.937.937,0,0,1-1.05-1.546l1.015-.807a.938.938,0,0,1-.57-1.634l3.078-2.765-1.289.743a.938.938,0,0,1-1.154-1.454l4.352-4.626-2.259,1.3a.937.937,0,0,1-1.257-1.319l2.223-3.452a.937.937,0,0,1-.726-1.713l3.112-1.8a.937.937,0,0,1,1.257,1.319l-2.189,3.4,4.42-2.551a.938.938,0,0,1,1.154,1.454L63.1,30.907l3.538-2.041a.938.938,0,0,1,1.1,1.51L64.66,33.14l1.923-1.111a.937.937,0,0,1,1.05,1.546l-.69.548a.954.954,0,0,1,.824.379.941.941,0,0,1-.116,1.246L62.8,40.24l3.679-2.123a.937.937,0,0,1,1.056,1.542l-2.071,1.67.97-.559a.937.937,0,0,1,1.056,1.542l-2.6,2.092,1.5-.863a.937.937,0,0,1,1.05,1.546L61.115,50.1l5.2-3.005a.938.938,0,0,1,.938,1.624l-16.213,9.36a.922.922,0,0,1-.469.126Z" transform="translate(42.462 -22.521)" fill="#ffe5c2"/>
        <path id="Trazado_779344" data-name="Trazado 779344" d="M16.933,52.4a.937.937,0,0,1-.625-1.638l1.955-1.741a.939.939,0,0,1-.741-1.5l2.667-3.543L17.544,45.5a.938.938,0,0,1-1.21-1.388l2.3-2.96-2.176,1.255a.937.937,0,0,1-1.171-1.433L16.591,39.5l-.964.557a.938.938,0,0,1-1.238-1.351l1.035-1.476a1.062,1.062,0,0,1-.831-.469.938.938,0,0,1,.343-1.281l3.056-1.763a.938.938,0,0,1,1.238,1.351l-.876,1.249,2.322-1.341a.937.937,0,0,1,1.171,1.433L20.54,37.885l1.294-.747a.938.938,0,0,1,1.21,1.388l-2.3,2.96,2.493-1.439a.939.939,0,0,1,1.219,1.377l-2.667,3.543,2.992-1.728a.937.937,0,0,1,1.092,1.512L24.4,46.066l1.366-.788A.938.938,0,1,1,26.7,46.9l-9.3,5.372a.927.927,0,0,1-.469.126Z" transform="translate(11.442 -12.833)" fill="#ffe5c2"/>
        <path id="Trazado_779345" data-name="Trazado 779345" d="M29.445,91.827a.938.938,0,0,1-.585-1.671l3.36-2.679-7.031,4.059a.937.937,0,0,1-1.049-1.548l7.592-5.973L22.761,89.2a.938.938,0,0,1-1-1.585l.713-.49a.939.939,0,0,1-.93-1.619l5.412-3.9-4.4,2.542a.937.937,0,0,1-1-1.581l2.23-1.551-2.152,1.242A.937.937,0,0,1,20.6,80.688l8.128-6.029L19.5,79.985a.938.938,0,0,1-1.007-1.579l5.543-3.9-6.273,3.62a.938.938,0,0,1-.992-1.591l1.246-.837-1.641.945a.937.937,0,0,1-1.037-1.557l11.722-8.935L13.748,73.841A.938.938,0,0,1,12.69,72.3l2.81-2.264-3.452,1.992a.937.937,0,0,1-1.058-1.54l2.362-1.908-2.943,1.7A.937.937,0,0,1,9.372,68.72l.107-.083-.394.227a.938.938,0,0,1-1.043-1.553l.55-.428-.885.51a.938.938,0,0,1-1.1-1.51l3.879-3.478L5.648,65.2a.937.937,0,0,1-1.114-1.491l4.3-4.084L3.663,62.607a.937.937,0,0,1-1.109-1.5L7.229,56.75,2.577,59.437a.938.938,0,0,1-1.092-1.514l4.268-3.791L2.418,56.056a.938.938,0,0,1-1.084-1.519l3.455-3.009-2.424,1.4a.938.938,0,0,1-1.1-1.508l3.7-3.35L2.309,49.6a.938.938,0,0,1-1.131-1.476L5.637,43.7l-3.4,1.96a.937.937,0,0,1-1.064-1.536l.66-.54a.938.938,0,0,1-.715-1.643l1.3-1.12-.261.15a.937.937,0,0,1-1.142-1.463L4.6,35.8,2.1,37.249A.938.938,0,0,1,1,35.743L2.33,34.531l-.28.161A.938.938,0,0,1,.908,33.227l2.585-2.66-1.5.867A.937.937,0,0,1,.857,29.963l1.264-1.277-.174.1A.938.938,0,0,1,.756,27.375L1.731,26.2a.938.938,0,0,1-.174-1.7l3.187-1.84a.938.938,0,0,1,1.191,1.411l-.4.478,1.694-.977a.937.937,0,0,1,1.135,1.471L7.1,26.317l1.307-.754a.938.938,0,0,1,1.142,1.465L6.963,29.689l2.03-1.171a.938.938,0,0,1,1.1,1.506L8.756,31.237l.694-.4A.937.937,0,0,1,10.593,32.3L7.012,36l3.1-1.79a.938.938,0,0,1,1.08,1.523L9.9,36.855l.662-.381a.937.937,0,0,1,1.064,1.536l-.441.36a.922.922,0,0,1,.983.338.936.936,0,0,1-.083,1.234L7.625,44.372l4.033-2.328a.938.938,0,0,1,1.1,1.508l-3.7,3.35,3.2-1.844a.938.938,0,0,1,1.084,1.519L9.878,49.588,12.81,47.9A.938.938,0,0,1,13.9,49.41L9.638,53.2l3.785-2.185a.937.937,0,0,1,1.109,1.5L9.857,56.869l4.873-2.812a.937.937,0,0,1,1.114,1.491l-4.3,4.086,5.808-3.352a.938.938,0,0,1,1.1,1.51l-3.879,3.478,5.159-2.977a.938.938,0,0,1,1.043,1.553l-.553.428,1.1-.634A.937.937,0,0,1,22.358,61.2l-.1.079.593-.343a.937.937,0,0,1,1.058,1.54l-2.364,1.908,3.5-2.02A.938.938,0,0,1,26.1,63.9L23.29,66.167,38.83,57.2a.937.937,0,0,1,1.037,1.557L28.149,67.685l12.313-7.108a.938.938,0,0,1,.992,1.591l-1.262.85,1.09-.628a.938.938,0,0,1,1.007,1.579L36.75,67.863l5.2-3a.937.937,0,0,1,1.028,1.564l-8.13,6.031,7.306-4.217a.937.937,0,0,1,1,1.581l-2.229,1.549,1.225-.705a.937.937,0,0,1,1.017,1.572l-5.414,3.9,4.4-2.538a.938.938,0,0,1,1,1.585l-.831.572a.937.937,0,0,1,.88,1.624l-7.592,5.973,6.543-3.778A.937.937,0,0,1,43.2,81.121L39.839,83.8l2.309-1.332A.937.937,0,0,1,43.321,83.9L40.4,87.216l1.746-1.007a.938.938,0,0,1,.938,1.624l-6.7,3.866a.937.937,0,0,1-1.172-1.429l2.917-3.315L29.916,91.7a.927.927,0,0,1-.469.126Z" transform="translate(-0.54 -22.527)" fill="#ffe5c2"/>
      </g>
      <path id="Trazado_779346" data-name="Trazado 779346" d="M32.155,7.429a.938.938,0,0,1-.469-1.75L39.47,1.184a.938.938,0,0,1,.938,1.624L32.623,7.3a.927.927,0,0,1-.469.126Z" transform="translate(27.253 -0.038)" fill="#f9536b"/>
      <path id="Trazado_779347" data-name="Trazado 779347" d="M49.939,65.2a.937.937,0,0,1-.546-1.7l10.842-7.753L45.078,64.5a.937.937,0,0,1-.99-1.591l13.129-8.82L41.9,62.93a.937.937,0,0,1-.985-1.594l15.436-10.19L38.824,61.265a.938.938,0,0,1-.981-1.6L54.576,48.771,35.917,59.543a.939.939,0,0,1-.966-1.609l2.123-1.321L34.05,58.357a.938.938,0,0,1-.972-1.6l13.592-8.62L31.707,56.77a.939.939,0,0,1-.977-1.6L51.94,41.527,29,54.772a.938.938,0,0,1-.972-1.6L46.975,41.131,26.639,52.872a.938.938,0,0,1-.96-1.611l3.47-2.14-4.1,2.365a.938.938,0,0,1-.972-1.6L46.632,35.507,22.754,49.293a.939.939,0,0,1-.977-1.6L48.035,30.81,20.392,46.77a.938.938,0,0,1-.96-1.611l.221-.137-.5.285a.938.938,0,0,1-.964-1.609l10.961-6.811-11.4,6.582a.938.938,0,0,1-.97-1.606L36.532,29.379,16.173,41.133a.938.938,0,0,1-.966-1.608l14.268-8.938-14.56,8.406a.938.938,0,0,1-.964-1.609l8.111-5.04-8.136,4.7a.939.939,0,0,1-.983-1.6L37.7,19.261,12.6,33.75a.938.938,0,0,1-.983-1.6l7.3-4.782L11.9,31.424a.938.938,0,0,1-.994-1.589L23.621,21.2,11.274,28.327a.938.938,0,0,1-.979-1.6l1.836-1.189-1.111.642A.938.938,0,0,1,10.013,24.6l12.728-8.918-11.78,6.8a.938.938,0,0,1-1.019-1.572l11.754-8.5L11.585,18.244a.938.938,0,0,1-1.043-1.553l9.642-7.464-6.573,3.795a.938.938,0,0,1-1.073-1.531l4.729-3.973A.938.938,0,0,1,17.025,5.8l7.393-4.268a.938.938,0,0,1,1.073,1.531l-3.573,3L31.259.669A.938.938,0,0,1,32.3,2.222L22.658,9.686l13.9-8.023a.938.938,0,0,1,1.019,1.572l-11.75,8.5L40.355,3.348a.938.938,0,0,1,1.007,1.579l-12.73,8.918L43.319,5.366a.938.938,0,0,1,.979,1.6l-1.848,1.2L44.9,6.751a.938.938,0,0,1,1,1.589L33.184,16.974,47,9a.938.938,0,0,1,.983,1.6l-7.3,4.78L66.122.7A.939.939,0,0,1,67.1,2.3L42.338,18.484,71.239,1.8A.938.938,0,0,1,72.2,3.408L64.12,8.431,73.7,2.9a.938.938,0,0,1,.968,1.608L60.389,13.453l15.69-9.058A.939.939,0,0,1,77.05,6L57.307,18.48,78.363,6.325a.938.938,0,0,1,.964,1.609L68.356,14.753l11.6-6.7a.938.938,0,0,1,.96,1.611l-.2.126.375-.216a.939.939,0,0,1,.977,1.6L55.823,28.051,82.757,12.5a.938.938,0,0,1,.974,1.6L61.156,28.492l22.726-13.12a.939.939,0,0,1,.962,1.611l-3.45,2.127,3-1.731a.938.938,0,0,1,.974,1.6L66.416,31.024,84.837,20.388a.939.939,0,0,1,.977,1.6L64.6,35.633l20.24-11.685a.938.938,0,0,1,.972,1.6L72.231,34.168l12.253-7.074A.939.939,0,0,1,85.45,28.7l-2.144,1.336.647-.373a.938.938,0,0,1,.981,1.6L68.21,42.155l14.375-8.3a.938.938,0,0,1,.987,1.594L68.134,45.641l12.041-6.952a.938.938,0,0,1,.992,1.591L68.037,49.1l7.976-4.6a.937.937,0,0,1,1.015,1.574l-11.473,8.2a.937.937,0,0,1,.582,1.743L50.413,65.1a.922.922,0,0,1-.469.126Z" transform="translate(8.282 -0.488)" fill="#f9536b"/>
      <path id="Trazado_779348" data-name="Trazado 779348" d="M80.479,26.96c-.356-5.879-8.937-5.734-10.265-.445-1.585,7.38-2.848,14.84-4.38,22.236.023,6.614-6.567,9.3-10.666,13.311-4.714-1.125-3.7-5.7-1.88-8.9,1.686-3.467,3.138-9.064-2.182-9.9-8.265.4-8.687,12.424-12.868,18-1.983,4.62-4.615,30.306,2.116,30.533,7.725-.214,22.049,3.2,19.488-9.255,24.135-22.718,20.329-24,20.636-55.572ZM77.243,56.585C75.452,67.572,63.188,73.691,57.155,82.447c-.5,2.923,1.122,8.106-3.686,7.539-4.418-.934-13.266,2.821-14.245-3.427-.047-6.55-.118-13.138.024-19.683.2-3.125,11.139-30.991,12.9-18.074-.568,4.361-6.271,10.19-1.092,13.448,5.462,5.38,10.923-4.389,15.433-7.123,4.014-8.565,3.362-19.271,6.376-28.365C80.931,15.052,76.54,53,77.242,56.587Z" transform="translate(31.467 18.785)" fill="#262626"/>
      <path id="Trazado_779349" data-name="Trazado 779349" d="M44.37,66.065c-1.752-7.158-5.958-13.737-9.047-20.4-2.733-4.682-10.617-1.917-9.237,3.53.7,3.966,6.787,11.621-.2,12.673-3.063-2-5.674-5.129-8.657-7.329-3.981-7.518-3.549-17.3-5.948-25.59-.638-3.243-1.489-6.764-5.744-6.5C-4.347,24.9,2.471,41.407.824,49.057-1.974,64.544,12.635,72.484,21.087,83c-2.274,10.522,8.094,9.691,15.363,9.087,3.617,0,7.775-.42,8.034-5.029,0-6.973.3-14.044-.114-20.993ZM38.94,89.958c-7.569-.668-16.74,3.624-15.11-7.774C17.853,74.741,9.75,68.56,4.456,60.586,3.871,57.461,0,14.751,8,26.792c3.29,13.938,2.191,30.991,17.483,37.461,10.2-2,5.716-8.989,3.373-15.65,1.913-11.332,9.5,10.916,11.332,13.493,1.694,3.234,3.836,28.77-1.246,27.864Z" transform="translate(-0.046 18.688)" fill="#262626"/>
      <path id="Trazado_779350" data-name="Trazado 779350" d="M86.845,22.8C87.522,2.323,61.02-6.942,48.187,8.567,15.724-18.479-6.426,29.429,23.852,51.749c7.5,5.209,17.974,16.712,27.654,12.782C68.242,56.615,86.406,43,86.843,22.8ZM48.305,64.216C-10.107,42.41,12.5-20.188,46.707,10.9c.574.739,2.086.081,2.529-.488C54.813,3.283,64.3-.048,72.714,4.125c28.316,18.426-1.561,52.8-24.41,60.091Z" transform="translate(8.225 -0.514)" fill="#262626"/>
      <path id="Trazado_779351" data-name="Trazado 779351" d="M58.875,24.637h-9C43.031,7.09,42.063,25.873,39.3,33.422,35.091,21.722,33-3.238,26.867,24.637c-10.358-.341-9.471,1.716.233,1.116,3.93-.088,3.031-6.162,4.536-8.9,5.862,18.55,6.419,35.6,13.508,4.485,1.345,6.254,7.021,4.132,11.97,4.416.55.223,3.155-.747,1.76-1.118Z" transform="translate(16.952 9.482)" fill="#262626"/>
    </g>
  </g>
</svg>
