<svg id="Grupo_1046735" data-name="Grupo 1046735" xmlns="http://www.w3.org/2000/svg" xmlns:xlink="http://www.w3.org/1999/xlink" width="400" height="193.525" viewBox="0 0 400 193.525">
  <defs>
    <clipPath id="clip-path">
      <rect id="Rectángulo_356641" data-name="Rectángulo 356641" width="400" height="193.525" fill="#fffae3" opacity="0.47"/>
    </clipPath>
  </defs>
  <g id="Enmascarar_grupo_85" data-name="Enmascarar grupo 85" clip-path="url(#clip-path)">
    <g id="_6449478" data-name="6449478" transform="translate(-85.48 -84.876)">
      <ellipse id="Elipse_5712" data-name="Elipse 5712" cx="277.42" cy="273.792" rx="277.42" ry="273.792" fill="#f7e7e3"/>
      <g id="Grupo_1046661" data-name="Grupo 1046661" transform="translate(72.55 186.637)">
        <path id="Trazado_779493" data-name="Trazado 779493" d="M13.69,171.08c-.22,1.234-.43,2.477-.62,3.731H172.2a1.883,1.883,0,0,0,1.89-1.865h0a1.883,1.883,0,0,0-1.89-1.865Z" transform="translate(-13.07 -119.79)" fill="#efd5ce" fill-rule="evenodd"/>
        <path id="Trazado_779494" data-name="Trazado 779494" d="M15.42,162.42q-.42,1.865-.81,3.731H172.19a1.883,1.883,0,0,0,1.89-1.865h0a1.883,1.883,0,0,0-1.89-1.865Z" transform="translate(-13.07 -119.676)" fill="#efd5ce" fill-rule="evenodd"/>
        <path id="Trazado_779495" data-name="Trazado 779495" d="M17.54,153.76c-.34,1.234-.66,2.477-.97,3.731H172.2a1.883,1.883,0,0,0,1.89-1.865h0a1.883,1.883,0,0,0-1.89-1.865Z" transform="translate(-13.07 -119.563)" fill="#efd5ce" fill-rule="evenodd"/>
        <path id="Trazado_779496" data-name="Trazado 779496" d="M20.05,145.1q-.585,1.85-1.14,3.731H172.2a1.883,1.883,0,0,0,1.89-1.865h0a1.883,1.883,0,0,0-1.89-1.865Z" transform="translate(-13.07 -119.45)" fill="#efd5ce" fill-rule="evenodd"/>
        <path id="Trazado_779497" data-name="Trazado 779497" d="M22.98,136.44c-.46,1.234-.9,2.477-1.33,3.731H172.19a1.883,1.883,0,0,0,1.89-1.865h0a1.883,1.883,0,0,0-1.89-1.865Z" transform="translate(-13.07 -119.337)" fill="#efd5ce" fill-rule="evenodd"/>
        <path id="Trazado_779498" data-name="Trazado 779498" d="M26.37,127.77c-.52,1.234-1.04,2.477-1.54,3.731H172.19a1.883,1.883,0,0,0,1.89-1.865h0a1.883,1.883,0,0,0-1.89-1.865H26.37Z" transform="translate(-13.07 -119.223)" fill="#efd5ce" fill-rule="evenodd"/>
        <path id="Trazado_779499" data-name="Trazado 779499" d="M30.22,119.11c-.59,1.234-1.18,2.477-1.74,3.731H172.2a1.883,1.883,0,0,0,1.89-1.865h0a1.883,1.883,0,0,0-1.89-1.865Z" transform="translate(-13.07 -119.11)" fill="#efd5ce" fill-rule="evenodd"/>
      </g>
      <path id="Trazado_779608" data-name="Trazado 779608" d="M2.27,432.131H433.6a2.26,2.26,0,0,0,2.27-2.24h0a2.26,2.26,0,0,0-2.27-2.24H2.27A2.26,2.26,0,0,0,0,429.89H0A2.26,2.26,0,0,0,2.27,432.131Z" transform="translate(59.48 63.492)" fill="#2d1b38" fill-rule="evenodd"/>
      <g id="Grupo_1046666" data-name="Grupo 1046666" transform="translate(102.339 175.845)">
        <path id="Trazado_779610" data-name="Trazado 779610" d="M97.239,255.19c-4.358,2.264-1.719,19.4-15.15,20.7,0,0-.256-18.969,15.15-20.7Z" transform="translate(-51.638 -218.068)" fill="#dfbdb8" fill-rule="evenodd"/>
        <path id="Trazado_779611" data-name="Trazado 779611" d="M91.173,184.11c-4.562,7.783,10.457,27.9-14.815,43.065C76.358,227.175,66.481,196.354,91.173,184.11Z" transform="translate(-47.97 -183.647)" fill="#dfbdb8" fill-rule="evenodd"/>
        <path id="Trazado_779612" data-name="Trazado 779612" d="M49.355,256.98c-3.893-8.525-13.608-4.977-19.038-13.647-4.2-6.7-2.6-16.7-5.618-20.243C24.7,223.09,49.826,226.881,49.355,256.98Z" transform="translate(-24.239 -202.524)" fill="#dfbdb8" fill-rule="evenodd"/>
        <g id="Grupo_1046665" data-name="Grupo 1046665">
          <path id="Trazado_779613" data-name="Trazado 779613" d="M51.265,269.307a.466.466,0,0,0,.925-.119c-.016-.108-4.787-37.923-27.739-46.969a.461.461,0,1,0-.34.856c22.44,8.84,27.143,46.123,27.158,46.231Z" transform="translate(-23.817 -202.087)" fill="#ba8f8e" fill-rule="evenodd"/>
          <path id="Trazado_779614" data-name="Trazado 779614" d="M76.224,250.4a.463.463,0,0,0,.925-.041c-.005-.16-2.482-55.376,15.076-66.294a.456.456,0,0,0,.146-.634.469.469,0,0,0-.643-.144c-18.024,11.2-15.515,66.944-15.51,67.109Z" transform="translate(-48.777 -183.213)" fill="#ba8f8e" fill-rule="evenodd"/>
          <path id="Trazado_779615" data-name="Trazado 779615" d="M76.341,284.353a.46.46,0,0,0,.355.547.466.466,0,0,0,.554-.351c.016-.077,5.785-27.03,17.329-29.336a.46.46,0,1,0-.183-.9c-12.15,2.429-18.039,29.965-18.06,30.042Z" transform="translate(-48.888 -217.638)" fill="#ba8f8e" fill-rule="evenodd"/>
        </g>
        <path id="Trazado_779616" data-name="Trazado 779616" d="M53.776,369.569c.941,2.445,2.561,2.445,2.561,2.445H71.152s1.62,0,2.561-2.445c11.4-39.728-1.165-56.809-1.165-56.809H54.936s-12.568,17.081-1.165,56.809Z" transform="translate(-35.835 -245.947)" fill="#fff" fill-rule="evenodd"/>
        <path id="Trazado_779617" data-name="Trazado 779617" d="M76.614,316.081a20.1,20.1,0,0,0-1.8-3.321H57.205a28.188,28.188,0,0,0-3.475,7.834l22.884-4.513Z" transform="translate(-38.098 -245.947)" fill="#efd5ce" fill-rule="evenodd"/>
        <path id="Trazado_779618" data-name="Trazado 779618" d="M77.082,311.33H56.953a1.1,1.1,0,0,0-1.1,1.088h0a1.1,1.1,0,0,0,1.1,1.088h20.13a1.1,1.1,0,0,0,1.1-1.088h0A1.1,1.1,0,0,0,77.082,311.33Z" transform="translate(-39.11 -245.254)" fill="#fff" fill-rule="evenodd"/>
      </g>
      <g id="Grupo_1046675" data-name="Grupo 1046675" transform="translate(398.76 169.494)">
        <path id="Trazado_779500" data-name="Trazado 779500" d="M360.12,286.51l-10.74,80.306q6.525-5.285,12.59-11.073c7.21-31.029,15.15-65.522,15.15-65.522l-17-3.721Z" transform="translate(-339.28 -179.162)" fill="#fff" fill-rule="evenodd"/>
        <path id="Trazado_779501" data-name="Trazado 779501" d="M341.79,230.34h82.3a201.269,201.269,0,0,1-18.73,65.176H341.79a2.5,2.5,0,0,1-2.51-2.477V232.827a2.5,2.5,0,0,1,2.51-2.477Z" transform="translate(-339.28 -178.428)" fill="#fff" fill-rule="evenodd"/>
        <path id="Trazado_779502" data-name="Trazado 779502" d="M401.26,292.147h5.71c.33-.73.65-1.461.97-2.191H345.75V244.765h5.47c7.65,0,14.27,1.688,22.3,3.731,2.22.563,4.56,1.155,6.93,1.727,8.55,2.043,14.67,3.059,20.8,3.059s11.65-.928,19.56-2.773c.56-2.625,1.08-5.27,1.54-7.935h-76.6V236h77.63c.1-.73.22-1.461.31-2.191H344.65a1.107,1.107,0,0,0-1.11,1.1v56.156a1.107,1.107,0,0,0,1.11,1.1h56.61Z" transform="translate(-339.28 -178.473)" fill="#efd5ce" fill-rule="evenodd"/>
        <path id="Trazado_779623" data-name="Trazado 779623" d="M406.1,229.82H380.24a1.061,1.061,0,0,1-.99-.8l-8.53-37.651a.621.621,0,0,1,.63-.8h25.86a1.061,1.061,0,0,1,.99.8l8.53,37.651A.621.621,0,0,1,406.1,229.82Z" transform="translate(-339.28 -177.908)" fill="#efd5ce" fill-rule="evenodd"/>
        <path id="Trazado_779624" data-name="Trazado 779624" d="M354.89,229.652h36.46a1.516,1.516,0,0,0,1.4-1.125L404,178.865a.879.879,0,0,0-.89-1.125H366.65a1.516,1.516,0,0,0-1.4,1.125L354,228.527a.879.879,0,0,0,.89,1.125Z" transform="translate(-339.28 -177.74)" fill="#fff" fill-rule="evenodd"/>
        <path id="Trazado_779625" data-name="Trazado 779625" d="M361.62,223.4h25.86a1.061,1.061,0,0,0,.99-.8L397,184.949a.621.621,0,0,0-.63-.8H370.51a1.061,1.061,0,0,0-.99.8L360.99,222.6a.621.621,0,0,0,.63.8Z" transform="translate(-339.28 -177.824)" fill="#efd5ce" fill-rule="evenodd"/>
      </g>
      <path id="Trazado_779626" data-name="Trazado 779626" d="M79.21,82.6a.45.45,0,0,1,.9,0V88.99h3.55a.444.444,0,1,1,0,.888H68.71v5.941H90.26V89.878H87.97a.444.444,0,1,1,0-.888H102.4a.444.444,0,1,1,0,.888H91.15v5.941h2.94a.444.444,0,1,1,0,.888H73.37v5.941h5.32a.444.444,0,1,1,0,.888H72.92a.445.445,0,0,1-.45-.444V96.707H61.2a.452.452,0,0,1-.45-.444.445.445,0,0,1,.45-.444h6.61V89.878H56.56a.444.444,0,1,1,0-.888H79.21V82.6h0Zm48.66,126.375h10.94v-6.385a.45.45,0,0,1,.9,0v6.385h3.55a.444.444,0,1,1,0,.888H128.31v5.941h21.55v-5.941h-2.29a.444.444,0,1,1,0-.888H162a.444.444,0,1,1,0,.888H150.75v5.941h2.93a.444.444,0,1,1,0,.888H132.96v5.941h5.33a.444.444,0,1,1,0,.888h-5.77a.445.445,0,0,1-.45-.444V216.7H120.81a.444.444,0,1,1,0-.888h6.6v-5.941H116.16a.444.444,0,1,1,0-.888Zm-17.45,7.708h6.07a.444.444,0,1,0,0-.888h-6.07a.444.444,0,1,0,0,.888Zm49.21-.878H158a.444.444,0,1,0,0,.888h1.63a.444.444,0,1,0,0-.888Zm-17.02,7.708h1.61a.444.444,0,1,0,0-.888h-1.61a.444.444,0,1,0,0,.888ZM366.81,139.1h10.94V132.71a.45.45,0,0,1,.9,0V139.1h3.55a.444.444,0,1,1,0,.888H367.25v5.941H388.8v-5.941h-2.29a.444.444,0,1,1,0-.888h14.43a.444.444,0,1,1,0,.888H389.69v5.941h2.93a.444.444,0,1,1,0,.888H371.9v5.941h5.33a.444.444,0,1,1,0,.888h-5.77a.445.445,0,0,1-.45-.444v-6.385H359.74a.444.444,0,1,1,0-.888h6.61v-5.941H355.1a.444.444,0,1,1,0-.888h11.71ZM349.36,146.8h6.07a.444.444,0,1,0,0-.888h-6.07a.444.444,0,1,0,0,.888Zm49.21-.878h-1.63a.444.444,0,1,0,0,.888h1.63a.444.444,0,1,0,0-.888Zm-17.02,7.708h1.61a.444.444,0,1,0,0-.888h-1.61a.444.444,0,1,0,0,.888ZM50.82,96.687h6.07a.444.444,0,1,0,0-.888H50.82a.444.444,0,1,0,0,.888Zm49.21-.878H98.4a.444.444,0,1,0,0,.888h1.63a.444.444,0,1,0,0-.888Zm-17.02,7.708h1.61a.444.444,0,1,0,0-.888H83.01a.444.444,0,1,0,0,.888Z" transform="translate(62.48 31.494)" fill="#dfbdb8" fill-rule="evenodd"/>
      <g id="Grupo_1062912" data-name="Grupo 1062912" transform="translate(172.98 91.234)">
        <g id="Grupo_1046861" data-name="Grupo 1046861" transform="translate(41.24 226.526)">
          <path id="Trazado_780443" data-name="Trazado 780443" d="M278.82,269.729,314.682,406.12s.758,3.194,2.936,3.194h5.407a2.546,2.546,0,0,0,1.508-2.98c-.473-2.249-24.066-148.964-24.066-148.964L278.82,269.738Z" transform="translate(-182.084 -257.37)" fill="#fff" fill-rule="evenodd"/>
          <path id="Trazado_780444" data-name="Trazado 780444" d="M216.2,269.729,180.342,406.12s-.767,3.194-2.945,3.194h-5.407a2.545,2.545,0,0,1-1.508-2.98c.473-2.249,24.066-148.964,24.066-148.964L216.2,269.738Z" transform="translate(-170.411 -257.37)" fill="#fff" fill-rule="evenodd"/>
        </g>
        <g id="Grupo_1046862" data-name="Grupo 1046862" transform="translate(54.883 226.517)">
          <path id="Trazado_780445" data-name="Trazado 780445" d="M278.82,269.728l6.755,25.7a91.38,91.38,0,0,0,19.7-8.174c-2.829-17.561-4.81-29.893-4.81-29.893L278.82,269.728Z" transform="translate(-195.727 -257.36)" fill="#efd5ce" fill-rule="evenodd"/>
          <path id="Trazado_780446" data-name="Trazado 780446" d="M217.85,269.729l-13.893,52.843H185.7c5.461-33.908,10.494-65.2,10.494-65.2l21.648,12.368Z" transform="translate(-185.7 -257.361)" fill="#efd5ce" fill-rule="evenodd"/>
        </g>
        <path id="Trazado_780447" data-name="Trazado 780447" d="M277.67,80.632c26.422-3.685,39.128,37.736,41.127,77.614,3.935,78.7-50.122,124.55-123.337,85.119-43.849-23.611-19.328-59.661-4.613-68.5s34.533-5.158,34.533-5.158l52.29-89.081Z" transform="translate(-129.191 -11.789)" fill="#d1afac" fill-rule="evenodd"/>
        <g id="Grupo_1046863" data-name="Grupo 1046863" transform="translate(0)">
          <path id="Trazado_780448" data-name="Trazado 780448" d="M228.01,383.289a6.412,6.412,0,0,0-1.945,3.873c-.232,2.365.616,17.945.446,19.694s-1.267,9.128-1.312,10.922.277,5.086,3.908,5.086h19.613c1.927,0,3.587-2.2,3.266-4.6s-5.916-28.322-5.916-28.322l-18.052-6.657Z" transform="translate(-135.07 -44.402)" fill="#c75633" fill-rule="evenodd"/>
          <path id="Trazado_780449" data-name="Trazado 780449" d="M220.032,61.984s-9.86,12.546-2.864,21.077c0,0-1.874,3.757,1.624,5.979,0,0-7.683,19.97,10.074,22.87S249.1,76.368,242.313,67A30.947,30.947,0,0,0,225.448,55.47l-5.407,6.514Z" transform="translate(-133.935 -9.104)" fill="#2d1b38" fill-rule="evenodd"/>
          <path id="Trazado_780450" data-name="Trazado 780450" d="M230.653,53.314s-2.659-2.722-4.417-2.525-3.882,4.024-3.569,6.88,3.855,12.707,9.584,8.816-1.588-13.171-1.588-13.171Z" transform="translate(-134.794 -8.599)" fill="#ee8b83" fill-rule="evenodd"/>
          <path id="Trazado_780451" data-name="Trazado 780451" d="M228.316,69.622A1.026,1.026,0,1,0,227.29,68.6,1.026,1.026,0,0,0,228.316,69.622Z" transform="translate(-135.295 -10.407)" fill="#fff" fill-rule="evenodd"/>
          <path id="Trazado_780452" data-name="Trazado 780452" d="M228.277,82.7a1.347,1.347,0,1,0-1.347-1.347A1.36,1.36,0,0,0,228.277,82.7Z" transform="translate(-135.257 -11.747)" fill="#fff" fill-rule="evenodd"/>
          <path id="Trazado_780453" data-name="Trazado 780453" d="M228,77.46a3.622,3.622,0,0,1,2.561,1.062l.018.018a3.619,3.619,0,0,1-.018,5.1h0A3.6,3.6,0,0,1,228,84.706a3.638,3.638,0,0,1-2.561-1.062h0A3.623,3.623,0,0,1,228,77.46h0Zm2.124,1.5a3,3,0,1,0-4.247,4.247h0a3.005,3.005,0,0,0,4.247.009h0a3.005,3.005,0,0,0,.018-4.239h-.009Z" transform="translate(-134.982 -11.472)" fill="#fff" fill-rule="evenodd"/>
          <path id="Trazado_780454" data-name="Trazado 780454" d="M228.09,68.682a.308.308,0,1,1,.616,0V80.1a.316.316,0,0,1-.312.312.309.309,0,0,1-.3-.312Z" transform="translate(-135.381 -10.493)" fill="#fff" fill-rule="evenodd"/>
          <path id="Trazado_780455" data-name="Trazado 780455" d="M228.324,75.757a.964.964,0,1,0-.964-.964A.965.965,0,0,0,228.324,75.757Z" transform="translate(-135.303 -11.081)" fill="#fff" fill-rule="evenodd"/>
          <path id="Trazado_780456" data-name="Trazado 780456" d="M228.358,72.746a.678.678,0,1,0-.678-.678A.678.678,0,0,0,228.358,72.746Z" transform="translate(-135.337 -10.818)" fill="#fff" fill-rule="evenodd"/>
          <path id="Trazado_780457" data-name="Trazado 780457" d="M298.993,77.743s.758,9.048-4.024,12.3-7.763,4.069-7.424,9.646-4.506,6.344-7.085,4.694c0,0-1.222,7.46-10.422,7.442a3.113,3.113,0,0,0-.116,3.569s.277.553-.107.812-4.711-1.392-3.266-6c0,0-5.675-6.014-.473-12.76a2.784,2.784,0,0,1,1.106-3.543s-2.5-6.871,4.239-9.664l-.544-8.959,4.97-6.38,16.214,2.133s4.952,2.043,6.924,6.719Z" transform="translate(-139.235 -10.55)" fill="#2d1b38" fill-rule="evenodd"/>
          <path id="Trazado_780458" data-name="Trazado 780458" d="M222,98.51a18.639,18.639,0,0,0-8.406,6.469c-3.391,4.8-26.984,56.065-26.984,56.065l11.689.571,1.026-12.287L216.61,133.2l5.4-34.694Z" transform="translate(-130.915 -13.739)" fill="#f2ba95" fill-rule="evenodd"/>
          <path id="Trazado_780459" data-name="Trazado 780459" d="M252.971,45.23h0a14.765,14.765,0,0,1,14.491,13.661l1.7,27.653h0c.018.161.2,1.446,2.525,2.668l.143,1.553-2.4.223c.134,8.12-14.964,11.85-18.15,10.592-.714-.286-4.952.205-4.952.205-2.6-3.48-3.828-4.711-4.131-9.146l-2.222-2.632c1.7-.384,1.927-1.437,1.936-1.927l-.018-.259h0L240.14,58.891A12.745,12.745,0,0,1,252.971,45.23Z" transform="translate(-136.661 -8.002)" fill="#f2ba95" fill-rule="evenodd"/>
          <path id="Trazado_780460" data-name="Trazado 780460" d="M252.989,45.23h0A14.765,14.765,0,0,1,267.48,58.891L269,83.671c-3.605,2.6-7.781,5.55-9.378,6.443a15.054,15.054,0,0,1-12.778.241,24.754,24.754,0,0,1-5.033-4.23l-1.651-27.234A12.745,12.745,0,0,1,252.989,45.23Z" transform="translate(-136.678 -8.002)" fill="#ee8b83" fill-rule="evenodd"/>
          <path id="Trazado_780461" data-name="Trazado 780461" d="M268.7,94.519l17.7,9.271c-9.12,18.578-9.227,21.5-4.256,38.138l-4.952-2.079s.071,5.506-4.863,13.581a5.4,5.4,0,0,0-.428,2.427c.071.294.812,3.409,1.731,7.326h-59.58l.018-11.056s-2.052-17.213-1.624-19.7c.794-4.613,4.444-8.682,8.236-19.926a126.052,126.052,0,0,0,4.087-14.429l12.564-2.855.544-.125c9.557,12.751,17.971,5.3,30.821-.58Z" transform="translate(-133.691 -13.308)" fill="#f2ba95" fill-rule="evenodd"/>
          <path id="Trazado_780462" data-name="Trazado 780462" d="M219.739,134.39a5.149,5.149,0,1,1-5.149,5.149A5.151,5.151,0,0,1,219.739,134.39Z" transform="translate(-133.928 -17.602)" fill="#f2a78e" fill-rule="evenodd"/>
          <path id="Trazado_780463" data-name="Trazado 780463" d="M276.22,181.992,275,186.748s8.022,8.941,1.053,16.588L262.345,208.9l-48.756-2.017.455-2.249a3.873,3.873,0,0,1,.071-4.1l.054-29.054h59.58l2.463,10.512Z" transform="translate(-133.81 -21.596)" fill="#c75633" fill-rule="evenodd"/>
          <path id="Trazado_780464" data-name="Trazado 780464" d="M276.239,183.531l-.821,3.221s4.176,4.649,3.882,10.119a6.545,6.545,0,0,1-8.138,0s-6.318-4.774-9.048-7.085a7.392,7.392,0,0,0-5.631-1.794l-17.24,3.328L217.31,178.177l2.052-4.1L260.5,171.52l15.741,12Z" transform="translate(-134.221 -21.6)" fill="#ac3c38" fill-rule="evenodd"/>
          <path id="Trazado_780465" data-name="Trazado 780465" d="M278.922,127.841c-.33,4.827.883,9.628,3.23,17.49l-4.952-2.079s.071,5.506-4.863,13.581a5.4,5.4,0,0,0-.428,2.427c.143.553,2.534,10.761,4.194,17.846l-1.169,4.56c-.419-1.062-1.249-3.311-2.855-8-2.8-8.2-3.971-14.848-14.081-17.15s-34.943-7.031-39.3-7.665-4.72,5.863-4.72,5.863c-.4-3.471-1.892-16.713-1.526-18.864l.054-.268c.491,2.3,2.383,4.256,5.693,5.086,4.265,1.071,33.542,6.737,42.412,6.737s12.118-6.487,12.118-6.487l5.577-14.8.607,1.74Z" transform="translate(-133.692 -16.711)" fill="#ee8b83" fill-rule="evenodd"/>
          <path id="Trazado_780466" data-name="Trazado 780466" d="M276.757,168.713c-4.23-.152-9.985-.446-10.36-.982-.6-.857-27.948-17.463-27.948-17.463-6.121-10.083,11.618-23.566,25.672-22.21s14.1,15.865,14.1,15.865a2.706,2.706,0,0,0,1.276,2.409,34.42,34.42,0,0,1-4.488,10.7,5.4,5.4,0,0,0-.428,2.427c.089.348,1.062,4.479,2.177,9.253Z" transform="translate(-136.363 -16.91)" fill="#c75633" fill-rule="evenodd"/>
          <path id="Trazado_780467" data-name="Trazado 780467" d="M276.756,169.847c-1.2-.045-2.507-.1-3.792-.161-2.017-5.684-7.067-9.021-13.073-10.387s-10.119-3.775-16.847-5.1c-2.748-1.678-4.6-2.8-4.6-2.8a8.39,8.39,0,0,1-1.062-6.166c9.735,1.74,20.97,3.489,25.9,3.489,8.879,0,12.118-6.487,12.118-6.487l1.41-3.739c.571,1.428,1.437,5.479,3.061,6.086,0,0,.071,5.506-4.863,13.581a5.4,5.4,0,0,0-.428,2.427c.089.348,1.062,4.479,2.177,9.253Z" transform="translate(-136.362 -18.045)" fill="#b1302d" fill-rule="evenodd"/>
          <path id="Trazado_780468" data-name="Trazado 780468" d="M279.524,52.385s2.552-2.82,4.319-2.686,4.024,3.882,3.828,6.737-3.373,12.841-9.244,9.173S279.524,52.385,279.524,52.385Z" transform="translate(-140.548 -8.482)" fill="#f2ba95" fill-rule="evenodd"/>
          <path id="Trazado_780469" data-name="Trazado 780469" d="M277.5,55.938a.644.644,0,0,0-.116.75.355.355,0,0,0,.544.08h0s1.713,8.772,3,7.38,2.632-2.739,3.141-4.979-1.508-4.256-.8-4.854c.678-.562,1.419.294,1.49.375h0a5.845,5.845,0,0,1,.874,1.624.355.355,0,0,0,.553.205.657.657,0,0,0,.25-.723c0-.009-1.062-3.337-3.507-3.186-2.347.143-5.416,3.311-5.425,3.311Z" transform="translate(-140.681 -8.796)" fill="#ee8b83" fill-rule="evenodd"/>
          <path id="Trazado_780470" data-name="Trazado 780470" d="M233.088,56.776a.648.648,0,0,1,.143.75.355.355,0,0,1-.535.1h0s-1.383,8.834-2.722,7.487-2.73-2.632-3.328-4.854,1.347-4.31.616-4.872c-.7-.544-1.41.339-1.472.428h0a5.725,5.725,0,0,0-.812,1.669.359.359,0,0,1-.553.223.644.644,0,0,1-.277-.714c0-.009.937-3.373,3.391-3.311,2.347.054,5.532,3.1,5.541,3.105Z" transform="translate(-134.954 -8.911)" fill="#ee8b83" fill-rule="evenodd"/>
          <path id="Trazado_780471" data-name="Trazado 780471" d="M250.06,13.789c-31.561,1.053-26.475,25.538-23.325,45.294a25.99,25.99,0,0,0,6.023,13.153s6,7.094,9.1,8.673a15.055,15.055,0,0,0,12.778-.241c2.311-1.285,9.985-6.871,13.554-9.485,4.56-3.346,6.1-7.112,6.826-13.01,2.427-19.863,6.621-44.527-24.949-44.393Z" transform="translate(-134.98 -4.615)" fill="#f2ba95" fill-rule="evenodd"/>
          <path id="Trazado_780472" data-name="Trazado 780472" d="M274.2,75a14.483,14.483,0,0,0,4.39-7.121,33.076,33.076,0,0,0-3.543-4.5L265.9,60.79s.535,10.851,8.3,14.206Z" transform="translate(-139.453 -9.677)" fill="#ee8b83" fill-rule="evenodd"/>
          <path id="Trazado_780473" data-name="Trazado 780473" d="M230.9,20.677a17.934,17.934,0,0,0-4.613,6.719L239,26.37s-4.1,2.383-1.66,4.542,5.818,11.395,11.422,17.882,14.5,5.47,14.5,5.47,7.165-5.506,7.04-6.657-15.232-15.491-17.284-18.177-18.177-7.808-19.069-8.575a8.673,8.673,0,0,0-3.052-.187h0ZM224.468,36c-.062.857-.089,1.722-.1,2.6l.1-2.6Zm-.1,2.659,5.452-4.6a31.783,31.783,0,0,0-.6,9.78c.321,5.318.009,11.092-2.829,13.867-1.008-6.273-2.079-12.912-2.017-19.051Z" transform="translate(-134.981 -5.355)" fill="#ee8b83" fill-rule="evenodd"/>
          <path id="Trazado_780474" data-name="Trazado 780474" d="M253.06,60.721c3.953-6.683,14.224-4.926,9.575-.071a43.756,43.756,0,0,1-5.657,1.526c-.99,0-3.917-1.463-3.917-1.463Z" transform="translate(-138.07 -9.197)" fill="#ee8b83" fill-rule="evenodd"/>
          <path id="Trazado_780475" data-name="Trazado 780475" d="M235.645,61.252l1.2-.473a5.973,5.973,0,0,0-3.257-2.936c-2.222-.687-4.114.366-4.5,1.169a1.992,1.992,0,0,0,.321,1.767S234.235,62.34,235.645,61.252Z" transform="translate(-135.476 -9.336)" fill="#ee8b83" fill-rule="evenodd"/>
          <path id="Trazado_780476" data-name="Trazado 780476" d="M243.11,78.146a.509.509,0,0,1-.4-.616.515.515,0,0,1,.616-.4,12.855,12.855,0,0,0,3.418.08.52.52,0,1,1,.107,1.035,13.884,13.884,0,0,1-3.73-.1Z" transform="translate(-136.954 -11.435)" fill="#ee8b83" fill-rule="evenodd"/>
          <path id="Trazado_780477" data-name="Trazado 780477" d="M254.745,53.429a3.01,3.01,0,0,1-1.544.018,2.594,2.594,0,0,1-1.481-1.454c.009-.241.455.107,1.794-.544,1.321-.642,6.291-2.329,10.155.464.669.482.25.928-.544.776a11.628,11.628,0,0,0-8.379.75Z" transform="translate(-137.926 -8.553)" fill="#2d1b38" fill-rule="evenodd"/>
          <path id="Trazado_780478" data-name="Trazado 780478" d="M243.685,68.373c-.277-.241-.045-1.3.17-2.008.161-.535.294-.794.455-.776.152-.054.321.17.571.66.33.651.723,1.633.491,1.936A1.446,1.446,0,0,1,243.685,68.373Z" transform="translate(-137.047 -10.193)" fill="#f9d4c8" fill-rule="evenodd"/>
          <path id="Trazado_780479" data-name="Trazado 780479" d="M243.191,61.949a.452.452,0,1,1,.874.232,53.04,53.04,0,0,0-1.321,5.755c.08.268.6.625.83.75a2.93,2.93,0,0,0,1.312.4.451.451,0,0,1-.027.9,3.832,3.832,0,0,1-1.731-.518,2.838,2.838,0,0,1-1.24-1.267c-.178-.562,1.044-5.372,1.312-6.255Z" transform="translate(-136.865 -9.766)" fill="#ee8b83" fill-rule="evenodd"/>
          <path id="Trazado_780480" data-name="Trazado 780480" d="M238.717,74.488a.542.542,0,0,1-.33-.678.53.53,0,0,1,.678-.321c.018,0,7.745,2.793,11.19-1a.531.531,0,1,1,.785.714c-3.926,4.319-12.305,1.294-12.332,1.285Z" transform="translate(-136.487 -10.918)" fill="#ee8b83" fill-rule="evenodd"/>
          <path id="Trazado_780481" data-name="Trazado 780481" d="M234.987,53.219a1.99,1.99,0,0,0,1.214-.062,2.3,2.3,0,0,0,1.08-1.419c-.027-.223-.348.116-1.446-.41-1.071-.526-5.068-1.829-7.933.946-.491.482-.134.874.473.687a7.832,7.832,0,0,1,6.621.259Z" transform="translate(-135.336 -8.575)" fill="#2d1b38" fill-rule="evenodd"/>
          <path id="Trazado_780482" data-name="Trazado 780482" d="M254.724,60.594a2.092,2.092,0,0,0-1.267.152,2.368,2.368,0,0,0-1.017,1.57c.036.232.357-.152,1.544.321a8.236,8.236,0,0,0,6.773-.375,1.355,1.355,0,0,1,.741.866.454.454,0,0,0,.553.321.459.459,0,0,0,.321-.562,2.155,2.155,0,0,0-.821-1.2l.062-.054a.7.7,0,0,1,.464.241.455.455,0,1,0,.678-.607,1.75,1.75,0,0,0-.437-.357c.3-.464-.08-.767-.651-.544a8.241,8.241,0,0,1-6.951.223Z" transform="translate(-138.003 -9.624)" fill="#2d1b38" fill-rule="evenodd"/>
          <path id="Trazado_780483" data-name="Trazado 780483" d="M235.542,60.554a1.286,1.286,0,0,1,.99.161,2.593,2.593,0,0,1,.794,1.606c-.027.241-.277-.161-1.2.33a5.062,5.062,0,0,1-5.283-.384,1.315,1.315,0,0,0-.58.883c-.054.25-.25.393-.437.33a.5.5,0,0,1-.25-.571,2.3,2.3,0,0,1,.634-1.222l-.045-.054a.479.479,0,0,0-.366.25.3.3,0,0,1-.5.036.563.563,0,0,1-.027-.66,1.509,1.509,0,0,1,.339-.366c-.232-.473.062-.785.509-.562a5.081,5.081,0,0,0,5.425.223Z" transform="translate(-135.498 -9.62)" fill="#2d1b38" fill-rule="evenodd"/>
          <path id="Trazado_780484" data-name="Trazado 780484" d="M255.8,181.491s-11.77,9.7-19.747-.669,1.472-6.362,1.472-6.362l5.184-1.249,13.1,8.281Z" transform="translate(-135.894 -21.782)" fill="#d4d5eb" fill-rule="evenodd"/>
          <path id="Trazado_780485" data-name="Trazado 780485" d="M205.222,129.484a2.621,2.621,0,0,0-2.722-1.544,16.241,16.241,0,0,0-15.268,9.378c-4.417,9.218-.321,15.678-.321,15.678a8.616,8.616,0,0,0,5.889,7.1c5.372,1.669,12.484,1.731,16.062-1.089s1.794-11.395,1.794-11.395-.321-12.162-5.443-18.141Z" transform="translate(-130.761 -16.908)" fill="#6a4049" fill-rule="evenodd"/>
          <path id="Trazado_780486" data-name="Trazado 780486" d="M187.13,153.974a8.616,8.616,0,0,0,5.889,7.1c5.372,1.669,12.484,1.731,16.062-1.089s1.794-11.395,1.794-11.395a46.023,46.023,0,0,0-2-11.573l-3.65.7s2.891,4.471-4.024,6.264-4.8,4.926-5.631,8.7-5.871,6.148-8.441,1.276Z" transform="translate(-130.971 -17.885)" fill="#482b3f" fill-rule="evenodd"/>
          <path id="Trazado_780487" data-name="Trazado 780487" d="M199.384,163.49c4.131.4,8.325-.17,10.815-2.124,3.587-2.811,1.794-11.395,1.794-11.395v-.241c-.205.018-.4.045-.616.08-6.523,1.08-5.577,5.515-6.541,8.709s-7.326,3.6-7.326,3.6l1.874,1.365Z" transform="translate(-132.089 -19.254)" fill="#2d1b38" fill-rule="evenodd"/>
          <path id="Trazado_780488" data-name="Trazado 780488" d="M207.5,129.661a5.68,5.68,0,0,1,4.515,1.249c2.4,1.794,2.561,3.891,4.64,3.837,0,0,.669.08.634,1.008a5.886,5.886,0,0,1,5.122,5.345c.7,4.988-2.686,6.782-6.853,6.916-3.043,6.219-12.76-6.63-4.765-5.381a6.074,6.074,0,0,0,1.071.161,3.068,3.068,0,0,0-1.57-3.819c-2.4-1.437-3.837-2.561-3.935-3.23s1.214-3.614,1.151-6.077Z" transform="translate(-133.041 -17.085)" fill="#f2ba95" fill-rule="evenodd"/>
          <path id="Trazado_780489" data-name="Trazado 780489" d="M212.6,145.3a.385.385,0,0,1,.294.455.4.4,0,0,1-.455.3s-2.088-.437-2.061.214a1.244,1.244,0,0,0,.045.294,2.523,2.523,0,0,0,.482.892,1.854,1.854,0,0,1,2.365-.66.388.388,0,0,1-.3.714,1.155,1.155,0,0,0-1.5.482,3.4,3.4,0,0,0,2.2.634,4.88,4.88,0,0,0,1.178-.187.384.384,0,1,1,.205.741,6,6,0,0,1-1.356.214,4.164,4.164,0,0,1-2.766-.839,3.482,3.482,0,0,1-1.24-1.785,2.3,2.3,0,0,1-.08-.464c-.062-1.642,2.98-1,2.989-1Z" transform="translate(-133.39 -18.764)" fill="#ee8b83" fill-rule="evenodd"/>
          <path id="Trazado_780490" data-name="Trazado 780490" d="M294.019,104.91s6.407,4.881,8,15.223-2.1,45.4-2.525,58.331l-2.73,3.5-12.359-15.446.41-26.136S277.118,119.749,294.019,104.91Z" transform="translate(-141.301 -14.428)" fill="#f2ba95" fill-rule="evenodd"/>
          <path id="Trazado_780491" data-name="Trazado 780491" d="M210.6,164.124s-1.49-4.435-1.321-6.871.214-5.586,4.774-9.512,7.04-5.077,9.86-4.738,7.719,2.9,11.306,8.531,10.226,9.12,10.226,9.12l-3.614,9.833-8.415,7.067c-3.971.812-14.063-9.378-22.808-13.429Z" transform="translate(-133.354 -18.524)" fill="#fff" fill-rule="evenodd"/>
          <path id="Trazado_780492" data-name="Trazado 780492" d="M210.6,165.282s-1.49-4.435-1.321-6.871a12.8,12.8,0,0,1,.955-4.711c0,.054-.678,6.924,12.921,8.62,13.653,1.7-2.73,7.156-4.694,6.469-.6-.205-2.989-1.24-6.032-2.579-.616-.33-1.222-.642-1.829-.919Z" transform="translate(-133.354 -19.681)" fill="#cddde3" fill-rule="evenodd"/>
          <path id="Trazado_780493" data-name="Trazado 780493" d="M231.223,163.24l-39.057.384-5.559,4.39s-1.535,11.074,6.916,11.074,25.039-3.186,42.885-4.979l-5.184-10.868Z" transform="translate(-130.903 -20.709)" fill="#f2ba95" fill-rule="evenodd"/>
          <path id="Trazado_780494" data-name="Trazado 780494" d="M219.02,177.318c5.5-.758,11.493-1.579,17.695-2.266-.518-1.758-1.133-3.855-1.133-3.855l-6.255-2.267Z" transform="translate(-134.405 -21.321)" fill="#ee8b83" fill-rule="evenodd"/>
          <path id="Trazado_780495" data-name="Trazado 780495" d="M236.916,150.458s2.606,1.2,4.1,2.017c0,0,6.219.857,10.253,3.435s-6.273,8.905-18.248,4.131a5.961,5.961,0,0,1-1.053-4.2c.348-2.418,2.775-5.675,4.952-5.381Z" transform="translate(-135.793 -19.33)" fill="#f2ba95" fill-rule="evenodd"/>
          <path id="Trazado_780496" data-name="Trazado 780496" d="M256.6,156.67a18.358,18.358,0,0,1,6.371,3.2C265.949,162.256,295,176.81,295,176.81l1.535,7.228s-.8,8.45-6.469,9.6-17.757-12.992-32.418-26.511l-1.99-1.606.919-8.852Z" transform="translate(-138.35 -20.001)" fill="#f2ba95" fill-rule="evenodd"/>
          <path id="Trazado_780497" data-name="Trazado 780497" d="M235.471,149.877c-3.676,3.061-3.908,9.584-3.908,9.584a1.238,1.238,0,0,1-1.231.58c-1.463-.161-6.692-2.963-9.824-4.952-4.1-2.615-2.249-13.421,8.183-8.986,2.275.964,5.336,2.258,5.773,2.418.714.259,1.008,1.347,1.008,1.347Z" transform="translate(-134.347 -18.75)" fill="#fff" fill-rule="evenodd"/>
          <path id="Trazado_780498" data-name="Trazado 780498" d="M254.121,168.96a38.35,38.35,0,0,1,16.428-.178,9.719,9.719,0,0,1,4.649,4.087,55.1,55.1,0,0,1,5.684,14.009,3.409,3.409,0,0,1,1.187,1.472,16.331,16.331,0,0,1,4.613-.187,1.931,1.931,0,0,1,1.562-1.151c1.115-.045,1.267,1.936.482,2.543,0,0,1,1.1-.054,1.785,0,0,.66.946-.205,1.428,0,0,.178.874-.464,1.115,0,0-.187,1.365-1.847.7a8.274,8.274,0,0,1-2.775.482c-2.659,1.347-6.505,1.981-6.3-2.231,0,0-8.557-4.372-9.842-10.645,0,0-4.194,2.516-9.664-.41s-4.711-10.056-3.462-12.849Z" transform="translate(-138.087 -21.217)" fill="#f2ba95" fill-rule="evenodd"/>
          <path id="Trazado_780499" data-name="Trazado 780499" d="M269.263,183.226a.39.39,0,0,1-.321.437.373.373,0,0,1-.437-.321,7.655,7.655,0,0,1,1.41-5.211.384.384,0,0,1,.625.446,6.775,6.775,0,0,0-1.276,4.64Z" transform="translate(-139.729 -22.295)" fill="#ee8b83" fill-rule="evenodd"/>
          <path id="Trazado_780500" data-name="Trazado 780500" d="M290.275,190.464a.385.385,0,1,1,.75.178,4.232,4.232,0,0,0-.178.821.388.388,0,0,1-.384.393.381.381,0,0,1-.393-.375,3.5,3.5,0,0,1,.2-1.026h0Zm2.079,5.818a.384.384,0,0,1-.767,0,.347.347,0,0,0-.036-.125l.714-.294a1.375,1.375,0,0,1,.1.419Zm0,0h0Zm-.812-.125.714-.294a1.163,1.163,0,0,0-.384-.5,1.332,1.332,0,0,0-.812-.241.388.388,0,0,0,.009.776.563.563,0,0,1,.348.089.429.429,0,0,1,.134.178h0Zm1.267-.99a.381.381,0,0,1-.384.384.385.385,0,0,1-.384-.33h0a.631.631,0,0,0-.169-.143h-.009a.875.875,0,0,0-.544-.018.387.387,0,0,1-.152-.758,1.684,1.684,0,0,1,1,.063h.027a1.236,1.236,0,0,1,.509.455,1,1,0,0,1,.116.339h0Zm-.767.062h0v0Zm.973-1.481a.381.381,0,0,1-.384.384.4.4,0,0,1-.321-.17h0l-.018-.027a.775.775,0,0,0-.473-.214,1.477,1.477,0,0,0-.723.125.388.388,0,1,1-.3-.714,2.059,2.059,0,0,1,1.115-.178,1.593,1.593,0,0,1,.937.455l.027.027a.824.824,0,0,1,.152.312h0Zm-.1-2.079a1.988,1.988,0,0,0-2.329.241.378.378,0,0,0-.1.535.387.387,0,0,0,.535.107c.928-.634,1.41-.277,1.41-.277a.387.387,0,1,0,.482-.607Z" transform="translate(-142.055 -23.608)" fill="#ee8b83" fill-rule="evenodd"/>
          <path id="Trazado_780501" data-name="Trazado 780501" d="M252.43,168.973s-.348.848,1.2,1.419,3.837,1.258,4.3,1.5,3.105,2.115,3.614,2.427-.883,1.927-2.882,1.472a9.049,9.049,0,0,1-3.061-1.2s-2.266-.5-2.445.143,1.454,2.249,2.65,3.087a34.69,34.69,0,0,1,3.667,2.909c.4.473.634,2.3-1.7,2.561a2.01,2.01,0,0,1-1.981,2.641,2.994,2.994,0,0,1-2.481,1.276,3.859,3.859,0,0,1-2.374.178,45.841,45.841,0,0,1-7.1-3.864c-1.106-.937-1.588-3.98-2.98-7.049a2.181,2.181,0,0,0-2.615-1.374c-3.917.7,8.718-10.1,14.17-6.121Z" transform="translate(-136.396 -21.231)" fill="#f2ba95" fill-rule="evenodd"/>
          <path id="Trazado_780502" data-name="Trazado 780502" d="M241.295,177.449c-.134-.33-.277-.66-.419-1a2.181,2.181,0,0,0-2.615-1.374c-.714.125-.874-.134-.634-.607l7.674-5.479a9.928,9.928,0,0,1,5.229-.821l-9.236,9.271Z" transform="translate(-136.397 -21.229)" fill="#ee8b83" fill-rule="evenodd"/>
          <path id="Trazado_780503" data-name="Trazado 780503" d="M254.569,175.564a.481.481,0,0,1-.152.669.489.489,0,0,1-.669-.152l-.937-1.481a.485.485,0,1,1,.821-.518l.937,1.481ZM254.48,187.4a.482.482,0,1,1-.491.83c-.009-.009-5.184-3.15-5.943-3.6a13.3,13.3,0,0,1-1.963-1.651.486.486,0,0,1,.687-.687,12.773,12.773,0,0,0,1.776,1.517c.75.446,5.934,3.6,5.943,3.6h0Zm2.481-1.276s-4.23-2.588-5.149-3.195a7.412,7.412,0,0,1-1.3-1.142c-.446-.482-.91-1.053-1.4-1.686a.473.473,0,0,0-.669-.089.483.483,0,0,0-.089.678,21.1,21.1,0,0,0,1.463,1.767,8.361,8.361,0,0,0,1.472,1.294c.937.616,5.184,3.212,5.193,3.221a.482.482,0,1,0,.491-.83h0Zm2.008-2.632-4.149-2.811h-.009a13.357,13.357,0,0,1-2.088-1.544c-.651-.678-1.651-1.972-1.651-1.972a.476.476,0,0,0-.678-.08.49.49,0,0,0-.08.678s1.035,1.338,1.713,2.043a14.44,14.44,0,0,0,2.266,1.678l4.14,2.811a.481.481,0,1,0,.544-.794Z" transform="translate(-137.304 -21.852)" fill="#ee8b83" fill-rule="evenodd"/>
          <path id="Trazado_780504" data-name="Trazado 780504" d="M237.512,173.782c.41-.455,8.325-5.916,8.325-5.916a16.866,16.866,0,0,0,9.111-.812L253.886,156.6c-3.15-.455-10.886-.3-11.9-.535a4.383,4.383,0,0,0-3.4.883c-1.169.812-4.363,3.507-4.979,4.033a4.526,4.526,0,0,0-1.57,1.981c-.357.99-1.472,4.569-1.472,4.569a1.588,1.588,0,0,0,.91,1.981,12.921,12.921,0,0,0-.152,1.321c-.027.58.482,1.249,1.651,1.2,0,0,.535,1.776,2.713,1.089a1.547,1.547,0,0,0,1.829.66Z" transform="translate(-135.639 -19.927)" fill="#f2ba95" fill-rule="evenodd"/>
          <path id="Trazado_780505" data-name="Trazado 780505" d="M246.148,168.745a.485.485,0,1,1-.518-.821l1.624-1.017a.485.485,0,0,1,.518.821l-1.624,1.017Zm-9.923,4.845a.482.482,0,1,1-.964,0,2.523,2.523,0,0,1,.384-1.428,35.766,35.766,0,0,1,2.989-2.855c1.936-1.74,4.2-3.7,4.6-3.989a.5.5,0,0,1,.678.116.484.484,0,0,1-.116.669c-.375.268-2.588,2.2-4.506,3.917-1.446,1.294-2.695,2.454-2.829,2.65a1.685,1.685,0,0,0-.223.91h0Zm-4.265-3.391,2.329-4.622v-.036a6,6,0,0,1,.9-1.365c.553-.553,3.364-2.989,3.364-2.989a.493.493,0,0,0,.062-.687.481.481,0,0,0-.678-.054s-2.873,2.49-3.427,3.043a6.74,6.74,0,0,0-1.08,1.651l-2.329,4.613a.485.485,0,1,0,.866.437h0Zm1.517,2.472s.205-.616.482-1.321a3.4,3.4,0,0,1,.821-1.08c.2-.205.4-.428.625-.7.616-.741,6.193-6.059,6.2-6.077a.49.49,0,0,0,.018-.687.5.5,0,0,0-.687-.018c-.018.018-5.631,5.372-6.282,6.157a8.168,8.168,0,0,1-.58.634,4.216,4.216,0,0,0-1.017,1.4c-.286.714-.482,1.312-.482,1.312a.481.481,0,1,0,.892.357Z" transform="translate(-135.701 -20.395)" fill="#ee8b83" fill-rule="evenodd"/>
          <path id="Trazado_780506" data-name="Trazado 780506" d="M200.513,311.888s-.589.955-5.666,1.526-19.917-1.142-19.917-1.142.973-12.707,3.971-13.144,21.978,7.3,21.612,12.769Z" transform="translate(-129.657 -35.339)" fill="#2d1b38" fill-rule="evenodd"/>
          <path id="Trazado_780507" data-name="Trazado 780507" d="M171.67,348.939l3.132,3.819a24.924,24.924,0,0,1-3.989,5.952c-2.534,2.748-3.98,17.2-4.328,18.5a1.548,1.548,0,0,1-2.231,1.107c-.839-.33-.161-1.133.9-6.862s1.651-11.663,1.1-13.09,5.416-9.432,5.416-9.432Z" transform="translate(-128.467 -40.703)" fill="#c75633" fill-rule="evenodd"/>
          <path id="Trazado_780508" data-name="Trazado 780508" d="M156.561,301.8s-3.034,14.152-4.06,18.194-12.546,30.089-13.59,31.481-4.551,2.936-4.551,2.936,15.071,8.789,17.775,9.12S162.254,350.954,165,344.021a37.692,37.692,0,0,0,2.7-12.867,95.552,95.552,0,0,1,.776-10.476c.66-4.167,7.54-23.459,7.54-23.459S161.87,287.064,156.57,301.8Z" transform="translate(-125.289 -34.768)" fill="#f2ba95" fill-rule="evenodd"/>
          <path id="Trazado_780509" data-name="Trazado 780509" d="M159.189,301.927l-.419,1.936c2.034-.33,4.81-.669,6.246-.3,1.481.366,6.175,3.239,9.61,5.425,1.008-3.025,2.035-6.005,2.8-8.2-3.453-2.436-8.218-5.764-8.495-5.764a20.123,20.123,0,0,0-7.147,2.177,14.98,14.98,0,0,0-2.6,4.72Z" transform="translate(-127.917 -34.898)" fill="#ee8b83" fill-rule="evenodd"/>
          <path id="Trazado_780510" data-name="Trazado 780510" d="M166.67,335.66s-3.855,6.032-4.952,10.877-1.526,10.048-4.926,14.241-11.065.651-16.526-.973-11.449-1.722-13.171-1.267a3.108,3.108,0,0,0-2.133,3.908c.509,1.588,11.225,8.557,15.036,9.8s12.1,4.863,15.125,2.409,3.775-12.305,6.844-16.365,8.156-5.657,9.048-7.549,1.249-3.1-4.337-15.071Z" transform="translate(-124.262 -39.274)" fill="#f7b737" fill-rule="evenodd"/>
          <path id="Trazado_780511" data-name="Trazado 780511" d="M124.9,365.68a1.182,1.182,0,0,0-.66,1.446c.241,1.115,3.685,6.086,6.764,7.826s17.579,5.345,21.112,5.3,2.945-2.365,2.945-2.365-.5.866-3.114-.1-13.885-6.835-17.516-8.718a30.941,30.941,0,0,0-9.53-3.391Z" transform="translate(-124.194 -42.507)" fill="#c75633" fill-rule="evenodd"/>
          <path id="Trazado_780512" data-name="Trazado 780512" d="M227.445,383.289a5.7,5.7,0,0,0-1.615,3.873c0,2.365,2.409,17.945,2.409,19.694s-.393,9.128-.259,10.922.785,5.086,4.515,5.086h20.14c1.972,0,3.462-2.2,2.891-4.6s-8.888-28.322-8.888-28.322l-19.194-6.657Z" transform="translate(-135.138 -44.402)" fill="#f7b737" fill-rule="evenodd"/>
          <path id="Trazado_780513" data-name="Trazado 780513" d="M254.008,353.98a4.174,4.174,0,0,1-1.33,2.971c-1.472,1.579-9.36,7.255-9.36,7.255s-1.553-7.29-1.588-7.5a26.8,26.8,0,0,1,4.024-3.73c.286,0,7.4-1.4,8.263,1.008Z" transform="translate(-136.85 -41.095)" fill="#2d1b38" fill-rule="evenodd"/>
          <path id="Trazado_780514" data-name="Trazado 780514" d="M226.289,367.891s.9,4.247,1.08,5.648-.874,3.864-.268,5.7a28.961,28.961,0,0,1,1.49,5.175c.526,2.722,1.053,20.97,1.838,23.165s1.49,2.543,3.507,2.543h15.437c3.418,0,1.579-4.56.268-10.083s-5.524-24.387-5.791-26.056a63.43,63.43,0,0,0-.785-6.666c-.616-2.543-2.454-9.128-3.07-10.877s-13.162,4.3-13.715,11.457Z" transform="translate(-135.187 -41.479)" fill="#f2ba95" fill-rule="evenodd"/>
          <path id="Trazado_780515" data-name="Trazado 780515" d="M226.289,367.88s.9,4.247,1.08,5.648a3.439,3.439,0,0,1,.018.437s6.264-7.469,8.986-10.413a12.284,12.284,0,0,1,4.872-3.007c-.509-1.794-.99-3.382-1.249-4.122-.616-1.758-13.162,4.3-13.715,11.457Z" transform="translate(-135.187 -41.477)" fill="#ee8b83" fill-rule="evenodd"/>
          <path id="Trazado_780516" data-name="Trazado 780516" d="M242.2,251.626c14.357,0,33.757,1.535,40.262-13.206s-4.5-30.25-4.5-30.25c-.482-5.363-1.624-6.7-3.257-6.7H258.186s-21.791-18.435-37.308-23.031-29.473-2.061-33.658,12.2Z" transform="translate(-130.981 -22.12)" fill="#43334d" fill-rule="evenodd"/>
          <path id="Trazado_780517" data-name="Trazado 780517" d="M247.9,257.409c10.77,0,24.378.866,33.248-4.926L247.825,230.05l-6.987,2.418-.758,16.276Z" transform="translate(-136.672 -27.903)" fill="#2d1b38" fill-rule="evenodd"/>
          <path id="Trazado_780518" data-name="Trazado 780518" d="M225.6,211.368s18.766,5.167,18.766,19.524,1.722,56.859,1.338,67.959,4.212,36.755,4.4,39.914a2.989,2.989,0,0,0-1.606-.241c-.625.187-16.222,5.024-18.614,7.612s-5.747,6.6-5.747,6.6a7.309,7.309,0,0,1-1.106-1.106c-.384-.526-17.561-85.145-17.561-85.145s2.49-55.137,20.122-55.137Z" transform="translate(-132.946 -25.889)" fill="#43334d" fill-rule="evenodd"/>
          <path id="Trazado_780519" data-name="Trazado 780519" d="M225.6,211.37a34.969,34.969,0,0,1,5.407,2.133l.205.651s-5.943,1.606-7.986,12.011-11.154,72.715-11.154,72.715c-3.551-17.391-6.594-32.373-6.594-32.373S207.97,211.37,225.6,211.37Z" transform="translate(-132.947 -25.891)" fill="#2d1b38" fill-rule="evenodd"/>
          <path id="Trazado_780520" data-name="Trazado 780520" d="M220.581,208.593s-5,.089-6.63,9.093-14.357,80.693-14.357,80.693-.286,1.2-.812,1.294a3.774,3.774,0,0,0-1.776-1.437c-1.437-.714-31.972-10.288-33.212-10.1a25.662,25.662,0,0,0-4.6,2.008,1.882,1.882,0,0,1-.286-1.437c.241-.643,21.773-88.973,25.61-97.977s22.977-8.04,36.068,17.855Z" transform="translate(-127.926 -23.114)" fill="#43334d" fill-rule="evenodd"/>
          <path id="Trazado_780521" data-name="Trazado 780521" d="M275.194,210.122a.964.964,0,1,1,0,1.927h-2.588c.794,2.026,2.829,6.648,5.755,9.369a.955.955,0,0,1,.6.518,7.31,7.31,0,0,0,2.374,1.33.965.965,0,1,1-.589,1.838,8.293,8.293,0,0,1-1.267-.535c.1,2.329-.776,5.47-6.041,5.836-2.945.205-9.271-3.435-17.034-7.9-12.814-7.371-29.625-17.043-39.664-14.67-.036,0-.08.018-.116.018-.384.071-2.971.714-5.283,5.086-2.5,4.738-17.748,63.872-19.729,71.573,4.176,1.615,7.986,3.159,10.538,4.328a.962.962,0,1,1-.8,1.749c-2.668-1.222-6.737-2.864-11.163-4.569-.054-.018-.107-.036-.152-.054-1.731-.669-3.516-1.338-5.291-2-8.076-3.007-15.9-5.729-17.534-6.095a5.682,5.682,0,0,0-4.247.58.964.964,0,1,1-1.08-1.6,7.752,7.752,0,0,1,5.755-.857c1.7.384,9.628,3.132,17.775,6.175,1.463.544,2.936,1.1,4.372,1.651,2.2-8.54,17.257-66.88,19.845-71.778,2.722-5.158,6.13-5.987,6.657-6.095h0c10.77-2.552,27.965,7.344,41.065,14.875,7.469,4.3,13.572,7.808,15.946,7.638,5.006-.348,4.3-4.292,3.971-5.461-3.792-3.418-6.157-9.4-6.728-10.949H262.9A33.987,33.987,0,0,1,267,222.82a.968.968,0,1,1-1.9.366,32.909,32.909,0,0,0-10.315-18.052.964.964,0,0,1,1.222-1.49,31.6,31.6,0,0,1,5.657,6.478h13.51Z" transform="translate(-128.206 -25.036)" fill="#30203a" fill-rule="evenodd"/>
          <path id="Trazado_780522" data-name="Trazado 780522" d="M222.317,338.668a.965.965,0,0,1-1.874-.464c0-.009,1.035-4.024,3.07-5.613a17.616,17.616,0,0,1,2.659-1.419l-9.923-94.336a.965.965,0,0,1,1.919-.205l9.851,93.685c1.312-.589,2.793-1.231,4.319-1.874,5.229-2.2,11.056-4.462,12.064-4.658a8.221,8.221,0,0,1,2.954-.027,6.312,6.312,0,0,1,2.588,1.026.966.966,0,0,1-1.124,1.57,4.436,4.436,0,0,0-1.794-.687,6.451,6.451,0,0,0-2.267.018c-.91.178-6.559,2.383-11.68,4.542-1.99.839-3.9,1.66-5.4,2.347a1.786,1.786,0,0,1-.187.089,20.441,20.441,0,0,0-2.8,1.446c-1.508,1.187-2.382,4.56-2.382,4.56h0Zm4.176-126.487a.963.963,0,1,1,.518-1.856c.054.018,19.47,5.363,19.47,20.461a.964.964,0,1,1-1.927,0c0-13.626-18.007-18.587-18.052-18.6Z" transform="translate(-134.106 -25.775)" fill="#2d1b38" fill-rule="evenodd"/>
          <path id="Trazado_780523" data-name="Trazado 780523" d="M282.44,99.324c-5.184,6.4-10.146,14.929-12.314,23.156a2.908,2.908,0,0,0,1.82,3.587l-3.2,2.142-4.015-1.669-2.177-1.722s4.114-.2,4.988-3.1h0c2.249-8.486,7.255-17.15,12.564-23.8a.382.382,0,0,1,.473-.1l1.74.91a.365.365,0,0,1,.2.259.335.335,0,0,1-.08.312Z" transform="translate(-139.092 -13.66)" fill="#c75633" fill-rule="evenodd"/>
          <path id="Trazado_780524" data-name="Trazado 780524" d="M234.058,142.533a.482.482,0,1,1-.964-.036,27.949,27.949,0,0,1,7.915-17.382l-.027-4.417a.482.482,0,0,1,.964,0l.027,3.525a28.371,28.371,0,0,1,11.707-6.139.473.473,0,0,1,.589.339.48.48,0,0,1-.339.589,27.17,27.17,0,0,0-12.073,6.639.387.387,0,0,1-.062.054,26.867,26.867,0,0,0-7.736,16.838h0Zm-13.92-22.388a.359.359,0,0,1-.027.036c-.393.446-.767.91-1.115,1.374a41.04,41.04,0,0,0-4.337,7.192.483.483,0,1,1-.874-.41,41.438,41.438,0,0,1,4.444-7.371c.357-.455.723-.919,1.106-1.365l3.6-11.011a.483.483,0,0,1,.919.294l-2.954,9.048a17.981,17.981,0,0,1,2.347-1.945.481.481,0,1,1,.544.794,20.147,20.147,0,0,0-3.641,3.346h0ZM250.1,109.829a.486.486,0,1,1-.714-.66c0-.009,3.328-3.569,4.89-4.1,1.517-.518,12.653-.937,12.68-.937a.482.482,0,0,1,.036.964c-.036,0-11.02.41-12.412.883-1.339.455-4.488,3.828-4.5,3.837h0Zm-8.477-1.383a.483.483,0,1,1-.91.321c0-.009-1.428-3.917-2.026-4.042-.866-.17-7.754-2.311-7.772-2.32a.485.485,0,0,1,.286-.928c.018,0,6.835,2.124,7.674,2.293,1.107.223,2.748,4.658,2.748,4.667Z" transform="translate(-133.836 -14.056)" fill="#ee8b83" fill-rule="evenodd"/>
          <path id="Trazado_780525" data-name="Trazado 780525" d="M285.216,141.678a.48.48,0,1,1-.9.33,36.051,36.051,0,0,1,.33-23.236.493.493,0,0,1,.625-.286.481.481,0,0,1,.277.625,34.88,34.88,0,0,0-.321,22.567Z" transform="translate(-141.244 -15.887)" fill="#ee8b83" fill-rule="evenodd"/>
          <path id="Trazado_780526" data-name="Trazado 780526" d="M253.99,156.084a18.954,18.954,0,0,1,6.523,3.284,83.048,83.048,0,0,0,7.585,4.355c5.452,2.918,12.653,6.594,17.811,9.218a.485.485,0,0,1-.437.866c-5.149-2.615-12.341-6.291-17.829-9.227a79.016,79.016,0,0,1-7.736-4.453,17.851,17.851,0,0,0-6.157-3.105c-1.8-.259-5.149-.321-7.826-.366a38.466,38.466,0,0,1-4.1-.17,3.007,3.007,0,0,0-1.428.054,5.146,5.146,0,0,0-1.588.758c-.446.312-1.187.892-1.954,1.517-1.258,1.017-2.606,2.159-2.98,2.49h-.009l-.152.143a3.707,3.707,0,0,0-1.267,1.633c-.348.973-1.463,4.533-1.463,4.533a.487.487,0,0,1-.6.339.481.481,0,0,1-.33-.6s1.124-3.6,1.481-4.6a4.562,4.562,0,0,1,1.544-2.043l.152-.134h0c.384-.339,1.74-1.49,3.007-2.516.8-.651,1.562-1.249,2.008-1.562a6.242,6.242,0,0,1,1.9-.9,3.981,3.981,0,0,1,1.883-.062c.384.089,1.972.116,3.9.152,2.722.045,6.112.107,7.96.375a.261.261,0,0,1,.08.018Zm0,0,.33.526A.48.48,0,0,0,253.99,156.084Z" transform="translate(-135.591 -19.87)" fill="#fff" fill-rule="evenodd"/>
          <path id="Trazado_780527" data-name="Trazado 780527" d="M245.584,168.761a.469.469,0,0,1,.375-.089,16.406,16.406,0,0,0,8.834-.776.479.479,0,0,1,.393.874,17.4,17.4,0,0,1-9.2.883c-1.115.767-7.728,5.336-8.076,5.729a.419.419,0,0,1-.241.143,2.031,2.031,0,0,1-2.142-.58,2.346,2.346,0,0,1-2.838-1.16,2.176,2.176,0,0,1-1.267-.464l-.036-.027a1.549,1.549,0,0,1-.518-1.071h0V172.1a.48.48,0,0,1,.5-.464.486.486,0,0,1,.464.5v.045a.557.557,0,0,0,.2.393l.018.018a1.184,1.184,0,0,0,.732.232h.2a.5.5,0,0,1,.482.348c.036.116.473,1.276,2.106.767a.473.473,0,0,1,.562.223h0a1.056,1.056,0,0,0,1.187.455c1.115-.919,7.835-5.568,8.254-5.854Z" transform="translate(-135.681 -21.205)" fill="#ee8b83" fill-rule="evenodd"/>
          <path id="Trazado_780528" data-name="Trazado 780528" d="M207.7,130.076a.484.484,0,0,1-.241-.937,6.2,6.2,0,0,1,4.917,1.33,10.937,10.937,0,0,1,2.2,2.275c.66.857,1.16,1.49,2.142,1.472a.435.435,0,0,1,.107.009h0a1.217,1.217,0,0,1,1,1.062,6.349,6.349,0,0,1,5.14,5.693.489.489,0,0,1-.41.544.482.482,0,0,1-.544-.41,5.39,5.39,0,0,0-4.667-4.926h-.009a.482.482,0,0,1-.437-.5c.009-.384-.143-.482-.214-.509-1.419,0-2.034-.785-2.855-1.847a9.886,9.886,0,0,0-2.017-2.088,5.185,5.185,0,0,0-4.1-1.169Z" transform="translate(-133.121 -17.027)" fill="#fff" fill-rule="evenodd"/>
          <path id="Trazado_780529" data-name="Trazado 780529" d="M255.3,171.057a.484.484,0,0,1-.295-.616.473.473,0,0,1,.616-.286c.7.259,1.517.526,2.258.776.964.321,1.811.6,2.1.75.312.161,1.383.9,2.311,1.535.607.419,1.151.785,1.338.91a.674.674,0,0,1,.33.58v.018h0a1.164,1.164,0,0,1-.232.66,2.547,2.547,0,0,1-.535.544,3.43,3.43,0,0,1-2.811.562,10.15,10.15,0,0,1-3.141-1.222c-.348-.08-1.74-.375-1.794-.187-.027.116.205.446.553.857a11.366,11.366,0,0,0,1.9,1.7c.651.455,1.562,1.133,2.32,1.74a12.983,12.983,0,0,1,1.437,1.249,1.812,1.812,0,0,1,.357.937,2.3,2.3,0,0,1-.1.9,2,2,0,0,1-.6.883,3.007,3.007,0,0,1-1.669.634.48.48,0,0,1-.526-.428.488.488,0,0,1,.428-.535,2.121,2.121,0,0,0,1.151-.41,1.023,1.023,0,0,0,.312-.446,1.164,1.164,0,0,0,.045-.491.876.876,0,0,0-.134-.41,12.409,12.409,0,0,0-1.294-1.115c-.75-.589-1.642-1.258-2.275-1.7a12.4,12.4,0,0,1-2.079-1.865c-.544-.634-.883-1.267-.758-1.731.294-1.08,3.016-.491,3.025-.491h0a.48.48,0,0,1,.178.089,8.522,8.522,0,0,0,2.873,1.124,2.462,2.462,0,0,0,2.026-.393,1.362,1.362,0,0,0,.321-.321h0c-.268-.178-.714-.482-1.2-.812-.9-.625-1.954-1.347-2.2-1.472-.223-.116-1.035-.384-1.963-.7-.767-.25-1.606-.535-2.284-.776Z" transform="translate(-138.224 -21.45)" fill="#ee8b83" fill-rule="evenodd"/>
          <path id="Trazado_780530" data-name="Trazado 780530" d="M289.409,191.486a.386.386,0,0,1,.58-.509s1.115,1.223.152,2.142a1.2,1.2,0,0,1-.286,1.517,1.279,1.279,0,0,1-.544,1.2c-.134.437-.616,1.41-2.186.848a8.461,8.461,0,0,1-2.695.464,8.522,8.522,0,0,1-3.926,1,3.373,3.373,0,0,1-1.419-.366,2.5,2.5,0,0,1-1.044-1.08,4.215,4.215,0,0,1-.384-1.945c-1.312-.714-8.227-4.7-9.708-10.306a10.176,10.176,0,0,1-5.4.741.382.382,0,0,1,.1-.758,8.95,8.95,0,0,0,5.363-.866.3.3,0,0,1,.134-.054.385.385,0,0,1,.455.294c1.222,5.97,9.28,10.19,9.628,10.369a.386.386,0,0,1,.223.366,3.7,3.7,0,0,0,.286,1.811,1.78,1.78,0,0,0,.723.75,2.518,2.518,0,0,0,1.089.277,7.9,7.9,0,0,0,3.614-.955.347.347,0,0,1,.232-.054,7.528,7.528,0,0,0,2.615-.464h.009a.326.326,0,0,1,.259,0c1.2.482,1.33-.428,1.33-.428h0a.391.391,0,0,1,.241-.286c.321-.125.214-.7.214-.7h0a.4.4,0,0,1,.2-.393c.482-.268.1-.839.08-.866h0v-.018a.379.379,0,0,1,.107-.535c.669-.437-.027-1.2-.027-1.2Z" transform="translate(-139.056 -22.89)" fill="#ee8b83" fill-rule="evenodd"/>
          <path id="Trazado_780531" data-name="Trazado 780531" d="M254.3,169.365a.485.485,0,0,1-.25-.937,39.026,39.026,0,0,1,16.651-.187.261.261,0,0,1,.089.027,10.369,10.369,0,0,1,4.872,4.283,57.666,57.666,0,0,1,3.5,7.228,44.657,44.657,0,0,1,2.2,6.755,4.31,4.31,0,0,1,1.053,1.2,16.944,16.944,0,0,1,4.051-.161,2.292,2.292,0,0,1,1.8-1.115,1.231,1.231,0,0,1,.857.286,1.7,1.7,0,0,1,.544.892,2.565,2.565,0,0,1,.045,1.044,1.9,1.9,0,0,1-.651,1.2.484.484,0,1,1-.589-.767.9.9,0,0,0,.286-.58,1.549,1.549,0,0,0-.027-.642.754.754,0,0,0-.214-.393.313.313,0,0,0-.205-.062,1.389,1.389,0,0,0-1.124.821.483.483,0,0,1-.526.321,15.612,15.612,0,0,0-4.435.178h0a.475.475,0,0,1-.562-.348,2.872,2.872,0,0,0-.982-1.2.45.45,0,0,1-.214-.3,43.992,43.992,0,0,0-2.186-6.773,55.5,55.5,0,0,0-3.435-7.094,9.31,9.31,0,0,0-4.372-3.873,37.734,37.734,0,0,0-16.178.178Z" transform="translate(-138.138 -21.159)" fill="#fff" fill-rule="evenodd"/>
          <path id="Trazado_780532" data-name="Trazado 780532" d="M231.1,159.153a.472.472,0,0,1,.66-.161.48.48,0,0,1,.17.66,1.728,1.728,0,0,1-1.7.812,16.746,16.746,0,0,1-4.015-1.615c-2-1.008-4.31-2.329-6.005-3.409a5.586,5.586,0,0,1-2.231-5.068,6.883,6.883,0,0,1,.732-2.748h0a5.616,5.616,0,0,1,1.972-2.177c1.785-1.142,4.479-1.4,8.156.161,1.267.535,2.8,1.187,4.042,1.713.875.366,1.535.634,1.7.7h.036a2.747,2.747,0,0,1,1.276,1.686.484.484,0,1,1-.937.241s-.214-.821-.687-1.008h-.018c-.205-.08-.874-.357-1.749-.723-1.115-.473-2.7-1.142-4.051-1.713-3.337-1.419-5.72-1.214-7.263-.232a4.679,4.679,0,0,0-1.633,1.811h0a5.677,5.677,0,0,0-.625,2.356,4.655,4.655,0,0,0,1.785,4.2c1.669,1.062,3.944,2.365,5.925,3.355a15.672,15.672,0,0,0,3.694,1.517h.027a.736.736,0,0,0,.741-.348h0Zm3.516-11.127.259.607A.482.482,0,0,0,234.62,148.026Z" transform="translate(-134.291 -18.692)" fill="#cddde3" fill-rule="evenodd"/>
          <path id="Trazado_780533" data-name="Trazado 780533" d="M217.392,143.394a2.222,2.222,0,1,0-2.222-2.222A2.228,2.228,0,0,0,217.392,143.394Z" transform="translate(-133.99 -18.093)" fill="#ee8b83" fill-rule="evenodd"/>
          <path id="Trazado_780534" data-name="Trazado 780534" d="M293.567,92.808c-3.953,2.534-6.327,3.712-6.023,8.718.339,5.577-4.506,6.344-7.085,4.694,0,0-1.222,7.46-10.422,7.442a3.113,3.113,0,0,0-.116,3.569s.277.553-.107.812-4.711-1.392-3.266-6c0,0-5.675-6.014-.473-12.76a2.784,2.784,0,0,1,1.106-3.543s-2.5-6.871,4.239-9.664Z" transform="translate(-139.235 -12.4)" fill="#2d1b38" fill-rule="evenodd"/>
          <path id="Trazado_780535" data-name="Trazado 780535" d="M233.25,28.014c-12.573,7.879,2.249,22.719-12.939,28.492a29.812,29.812,0,0,0-.089-16.3c-2.561-9.048-5.63-13.144.678-22.192s15.2-13.653,18.694-13.4c2.713.2,5.113.33,6.728,2.106a5.025,5.025,0,0,1,1.044,1.731C248.3,11.266,233.259,28,233.259,28Z" transform="translate(-134.206 -3.627)" fill="#482b3f" fill-rule="evenodd"/>
          <path id="Trazado_780536" data-name="Trazado 780536" d="M231.886,32.08a10.613,10.613,0,0,0-2.659,3.212h0A36.092,36.092,0,0,1,221,45.706c-.161-.83-.357-1.678-.607-2.543-.526-1.847-1.071-3.5-1.553-5.015,5.149-1,10.485-4.319,13.037-6.068Z" transform="translate(-134.385 -6.586)" fill="#2d1b38" fill-rule="evenodd"/>
          <path id="Trazado_780537" data-name="Trazado 780537" d="M282.186,69.622A1.026,1.026,0,1,0,281.16,68.6,1.026,1.026,0,0,0,282.186,69.622Z" transform="translate(-141.096 -10.407)" fill="#fff" fill-rule="evenodd"/>
          <path id="Trazado_780538" data-name="Trazado 780538" d="M282.147,82.7a1.347,1.347,0,1,0-1.347-1.347A1.352,1.352,0,0,0,282.147,82.7Z" transform="translate(-141.057 -11.747)" fill="#fff" fill-rule="evenodd"/>
          <path id="Trazado_780539" data-name="Trazado 780539" d="M281.873,77.46a3.622,3.622,0,0,1,2.561,1.062l.018.018a3.619,3.619,0,0,1-.018,5.1h0a3.619,3.619,0,0,1-5.122,0h0a3.623,3.623,0,0,1,2.561-6.184h0Zm2.124,1.5a3,3,0,1,0-4.247,4.247h0a2.987,2.987,0,0,0,2.124.874A3.024,3.024,0,0,0,284,83.207h0a3.005,3.005,0,0,0,.018-4.239H284Z" transform="translate(-140.783 -11.472)" fill="#fff" fill-rule="evenodd"/>
          <path id="Trazado_780540" data-name="Trazado 780540" d="M281.96,68.682a.316.316,0,0,1,.312-.312.31.31,0,0,1,.312.312V80.1a.312.312,0,0,1-.625,0Z" transform="translate(-141.182 -10.493)" fill="#fff" fill-rule="evenodd"/>
          <path id="Trazado_780541" data-name="Trazado 780541" d="M282.194,75.757a.964.964,0,1,0-.964-.964A.965.965,0,0,0,282.194,75.757Z" transform="translate(-141.103 -11.081)" fill="#fff" fill-rule="evenodd"/>
          <path id="Trazado_780542" data-name="Trazado 780542" d="M282.228,72.746a.678.678,0,1,0-.678-.678A.678.678,0,0,0,282.228,72.746Z" transform="translate(-141.138 -10.818)" fill="#fff" fill-rule="evenodd"/>
          <path id="Trazado_780543" data-name="Trazado 780543" d="M234.969,27.9c8.227-.384,10.378,21.719,26.6,22.62,0,0,1.428,15.616,13.046,16.285,5.639.321,14.027-2.061,21.077,3.908,0,0,.241-5.461-4.961-11.511,0,0,4.774-12.885-1.883-19.711s-7.852-9.218-10.074-22.362-24.4-17.24-32.257-10.235S229.061,18.2,234.96,27.906Z" transform="translate(-135.925 -3.509)" fill="#482b3f" fill-rule="evenodd"/>
          <path id="Trazado_780544" data-name="Trazado 780544" d="M281.12,24.526c-.384-1.794-.758-3.873-1.178-6.318a12.585,12.585,0,0,0-1.7-4.488c-4.185,3.819-14.839,10.681-34.256,5.97,0,0,19.506,14.857,37.121,4.827Z" transform="translate(-137.093 -4.609)" fill="#6a4049" fill-rule="evenodd"/>
          <path id="Trazado_780545" data-name="Trazado 780545" d="M242.23,35.9c4.479,6.416,8.941,17.472,20.309,18.1a75.908,75.908,0,0,0,8.165-.482c4.23-.5,19.069-2.177,21,9.155,0,0,4.774-12.885-1.883-19.711-1.392-1.428-2.534-2.659-3.507-3.828-31.6,14.5-44.081-3.23-44.081-3.23h0Z" transform="translate(-136.904 -6.997)" fill="#2d1b38" fill-rule="evenodd"/>
          <path id="Trazado_780546" data-name="Trazado 780546" d="M246.134,6.865a.487.487,0,0,1,.651.723c-1.472,1.312-3.016,2.534-4.5,3.721-6.246,4.952-11.538,9.164-6.96,16.7a.481.481,0,0,1-.821.5c-5.015-8.263.58-12.707,7.183-17.954,1.472-1.169,2.989-2.374,4.462-3.685Z" transform="translate(-135.865 -3.857)" fill="#2d1b38" fill-rule="evenodd"/>
          <path id="Trazado_780547" data-name="Trazado 780547" d="M167.345,335.343a.484.484,0,1,1,.812.526c-.009.018-3.81,5.961-4.89,10.717-.2.875-.384,1.811-.571,2.757-.8,4.06-1.615,8.183-4.453,11.68-3.07,3.784-9.128,1.776-14.322.054-.928-.3-1.829-.607-2.713-.875h-.018c-.937-.286-1.883-.518-2.82-.7-1.026-.205-2.052-.375-3.043-.491a.471.471,0,0,1-.419-.535.48.48,0,0,1,.535-.419c1,.125,2.052.294,3.123.509.964.2,1.945.437,2.9.723h.018c.83.259,1.776.562,2.739.883,4.9,1.624,10.619,3.525,13.269.25,2.686-3.31,3.471-7.308,4.247-11.252.178-.91.357-1.829.58-2.784,1.115-4.935,5.006-11.011,5.015-11.029Z" transform="translate(-125.348 -39.216)" fill="#c75633" fill-rule="evenodd"/>
        </g>
        <path id="Trazado_780548" data-name="Trazado 780548" d="M302.172,85.169c14.759,13,25.476,144.28-52.843,135.392-.1-.009-.259-.25-.259-.152l.955,37.71c48.507,2.838,80.273-38.4,77.222-99.369-1.535-30.732-9.441-62.373-25.074-73.59Z" transform="translate(-137.641 -12.301)" fill="#fff" fill-rule="evenodd"/>
        <path id="Trazado_780549" data-name="Trazado 780549" d="M218.682,97.665a.793.793,0,1,1,.491,1.508,17.719,17.719,0,0,0-8,6.175c-.616.874-1.945,3.382-3.694,6.862-1.767,3.525-3.962,8.04-6.282,12.9a.786.786,0,0,1-.883.428h0a3.2,3.2,0,0,0-.33-.054c-.125-.009-.259-.018-.393-.018a18.1,18.1,0,0,0-6.523,1.187,14.859,14.859,0,0,0-8.04,7.736c-4.23,8.816-.366,14.911-.357,14.929a.722.722,0,0,1,.107.321h0a8.294,8.294,0,0,0,2.2,4.551.8.8,0,0,1,.152.883h0c-1.767,3.81-2.864,6.193-2.864,6.193a.8.8,0,1,1-1.454-.651s1.017-2.2,2.65-5.729a10.054,10.054,0,0,1-2.231-4.9c-.6-1.053-3.837-7.5.375-16.285a16.373,16.373,0,0,1,8.888-8.522,19.624,19.624,0,0,1,7.085-1.3c.152,0,.3,0,.446.009,2.231-4.667,4.337-8.995,6.041-12.4,1.794-3.569,3.159-6.139,3.81-7.067a19.418,19.418,0,0,1,8.807-6.764h0Zm64.256,10.146a.8.8,0,0,1,.152-1.115.8.8,0,0,1,1.115.152,26.016,26.016,0,0,1,3.311,5.791,28.37,28.37,0,0,1,1.829,6.585c1.1,7.1-.259,25.565-1.374,40.752-.526,7.183-1,13.626-1.133,17.722a.795.795,0,1,1-1.588-.054c.134-4.212.607-10.636,1.133-17.784,1.115-15.107,2.463-33.462,1.392-40.4a26.665,26.665,0,0,0-1.731-6.219,24.4,24.4,0,0,0-3.105-5.443h0Zm-27.376,84.574a.8.8,0,0,1,.1,1.124.785.785,0,0,1-1.115.1c-.062-.054-21.675-18.328-37.022-22.879l-.116-.036c-7.576-2.231-14.75-2.722-20.523-.928-5.666,1.758-9.994,5.764-12.011,12.555a.487.487,0,0,1-.054.161c-3.766,10.467-17.909,67.531-23.2,88.875-1.222,4.943-1.981,7.986-2.043,8.147a.791.791,0,1,1-1.481-.553c.027-.062.767-3.079,1.981-7.977,5.291-21.362,19.453-78.471,23.254-89.036h0l.018-.062c2.186-7.371,6.9-11.725,13.081-13.644,6.077-1.892,13.572-1.392,21.434.928l.116.036c15.669,4.64,37.531,23.129,37.594,23.183Z" transform="translate(-127.839 -13.643)" fill="#fff" fill-rule="evenodd"/>
      </g>
    </g>
  </g>
</svg>
