<svg xmlns="http://www.w3.org/2000/svg" width="110" height="110" viewBox="0 0 110 110">
  <g id="Grupo_1046784" data-name="Grupo 1046784" transform="translate(-210 -755)">
    <g id="Grupo_988120" data-name="Grupo 988120" transform="translate(-118 -128)">
      <circle id="Elipse_4711" data-name="Elipse 4711" cx="55" cy="55" r="55" transform="translate(328 883)" fill="#3449bc"/>
    </g>
    <g id="Слой_2" transform="translate(193.222 741.061)">
      <g id="Grupo_1046815" data-name="Grupo 1046815" transform="translate(31.364 29.744)">
        <path id="Trazado_780186" data-name="Trazado 780186" d="M69.549,41.575a101.356,101.356,0,0,0,15.909-8.534c5.255-3.574,10.826-5.15,16.922,0s6.832,13.244,4.625,15.976-4.309,6.517-1.682,10.616,5.112,8.99,2.819,12.483S101.855,83.493,90.5,89.695,50.142,100.205,42.68,95.9s-10.2-11.772-4.309-17.4-3.153-12.035-2.312-15.924c1.872-8.658,13.2-12.3,20.233-15.339,4.367-1.888,8.844-3.7,13.258-5.663Z" transform="translate(-33.34 -29.744)" fill="#8bdcf2"/>
        <path id="Trazado_780187" data-name="Trazado 780187" d="M94.97,104.2a8.11,8.11,0,0,0-4.692-.186c-2.68.657-3.874-.131-4.735-1.393,0,0-1.413,2.286-2.675,2.286,0,0-1.655,4.179-6.543,2.641s-4.809-2.294-4.809-2.294-4.809,5.407-10.248,7.22-2.444,13.8-2.444,13.8l1.577,5.36s7.647-2.05,9.539-2.128,2.917,4.572,2.917,4.572l.863-1.1s.45-5.255,1.554-5.308c1.635-.078.438,4.94.438,4.94l-.222,3.673s1.212-.4,2.335-3.463c1.189-3.237,1.39-4.257,2.494-4.1S80,132.231,80,132.231s.683-1.839,1.366-1.471.158,2.523-.368,3.311c0,0,.841-.263.893.473a12.224,12.224,0,0,1-1.524,4.257s12.035.368,13.138-1.209-1-8.356-1.366-11.562-.683-8.776-.683-8.776-2.523-5.623-3.258-6.359c0,0,5.769-5.174,6.767-6.7Z" transform="translate(-45.161 -67.488)" fill="#eb65a2"/>
        <path id="Trazado_780188" data-name="Trazado 780188" d="M89.511,139.1a63.316,63.316,0,0,1,13.76,19.577A102.064,102.064,0,0,0,89.511,139.1Z" transform="translate(-61.48 -86.382)" fill="#3a3780"/>
        <path id="Trazado_780189" data-name="Trazado 780189" d="M71.672,156.2A63.316,63.316,0,0,1,93.029,166.99,102.064,102.064,0,0,0,71.672,156.2Z" transform="translate(-52.241 -95.239)" fill="#3a3780"/>
        <g id="Grupo_1046797" data-name="Grupo 1046797" transform="translate(51.026 43.77)">
          <path id="Trazado_780190" data-name="Trazado 780190" d="M137.215,146.086s16.349,8.468,20.926,4.519-2.863-4.473-2.689-5.626,7.925-1.074,8.36-3.532-2.056-2.446-2.2-2.843,5.006-2.45,5.376-4.864-2.6-1.344-3.277-2.5,4.037-6.37.665-9.87-4.653,5.177-5.893,5.156-.005-3.372-2.58-4.067-4.3,3.144-3.879,5.83-1.792,10.668-6.815,11.191-7.991,6.6-7.991,6.6Z" transform="translate(-137.215 -120.542)" fill="#5180b3"/>
          <g id="Grupo_1046796" data-name="Grupo 1046796" transform="translate(8.933 4.717)">
            <path id="Trazado_780191" data-name="Trazado 780191" d="M171.717,130.327c-1.809,6.537-5.858,15.964-12.711,18.391a8.465,8.465,0,0,1-3.26.392c8.513-.077,13.479-11.947,15.971-18.782Z" transform="translate(-155.746 -130.327)" fill="#3a3780"/>
            <path id="Trazado_780192" data-name="Trazado 780192" d="M165.617,168.8c-6.408-6.175-5.324-1.823-3.465-6.679.113-.312.2-.634.288-.958a7.241,7.241,0,0,1-.123,1,6.014,6.014,0,0,1-1.275,2.784l-.049-.33a13.951,13.951,0,0,1,4.624,4.181Z" transform="translate(-158.321 -146.298)" fill="#3a3780"/>
            <path id="Trazado_780193" data-name="Trazado 780193" d="M176.07,157.395c-2.173-.089-4.53-.39-6.59.425a.216.216,0,0,1-.289-.1.22.22,0,0,1,.005-.2,13.79,13.79,0,0,0,1.513-4.335,8.162,8.162,0,0,0,.08-1.549,7.308,7.308,0,0,1-.1,3.134,12.045,12.045,0,0,1-1.117,2.963l-.284-.3C171.441,156.561,173.862,156.958,176.07,157.395Z" transform="translate(-162.699 -141.364)" fill="#3a3780"/>
            <path id="Trazado_780194" data-name="Trazado 780194" d="M182.4,144.759c-1.606.121-3.465.3-4.67,1.426a.215.215,0,0,1-.363-.163,22.315,22.315,0,0,0-.068-3.23,8.454,8.454,0,0,0-.8-3.119,6.65,6.65,0,0,1,1.158,3.073,15.423,15.423,0,0,1,.129,3.307l-.363-.163c1.322-1.216,3.279-1.3,4.974-1.131Z" transform="translate(-166.497 -135.168)" fill="#3a3780"/>
          </g>
        </g>
        <path id="Trazado_780195" data-name="Trazado 780195" d="M125.922,178.8c-.089.294,1.192,1.393,1.366,1.555a10.506,10.506,0,0,0,4.367,2.44,14.326,14.326,0,0,0,9.312-1.049c.561-.247,5.84-3.087,4.9-4.149,0,0-5.546-6.259-11.747-5.839s-8.195,7.03-8.2,7.042Z" transform="translate(-80.337 -103.29)" fill="#3a3780"/>
        <g id="Grupo_1046798" data-name="Grupo 1046798" transform="translate(47.506 70.696)">
          <path id="Trazado_780196" data-name="Trazado 780196" d="M146.976,183.984c-5.5-1.687-11.906-1.983-17.064.881a19.979,19.979,0,0,1,2.035-.774C136.794,182.549,142.062,182.932,146.976,183.984Z" transform="translate(-129.913 -179.668)" fill="#79cbe8"/>
          <path id="Trazado_780197" data-name="Trazado 780197" d="M139.58,184.136c-.33-.347-.691-.662-1.052-.977s-.751-.6-1.145-.874a9.375,9.375,0,0,0-1.245-.744,4.442,4.442,0,0,0-1.411-.458l.064.33a10.223,10.223,0,0,0,2.145-1.6,8.55,8.55,0,0,0,.875-1.011,5.589,5.589,0,0,0,.628-1.172,6.876,6.876,0,0,1-.759,1.069,9.132,9.132,0,0,1-.923.92c-.333.279-.674.548-1.031.8a11.958,11.958,0,0,1-1.1.688.176.176,0,0,0-.072.239.179.179,0,0,0,.136.092,4.337,4.337,0,0,1,1.3.415,11.709,11.709,0,0,1,1.239.672q.608.366,1.188.782C138.814,183.567,139.2,183.852,139.58,184.136Z" transform="translate(-132.306 -177.036)" fill="#79cbe8"/>
          <path id="Trazado_780198" data-name="Trazado 780198" d="M147.584,182.718c-1.4-1.315-2.973-2.716-4.928-3.078l.054.336a8.976,8.976,0,0,0,1.142-.656,6.484,6.484,0,0,0,2.531-2.922,6.206,6.206,0,0,1-.751,1.037,10,10,0,0,1-3.065,2.219.177.177,0,0,0,.054.335c1.865.361,3.429,1.667,4.964,2.728Z" transform="translate(-136.415 -176.398)" fill="#79cbe8"/>
          <path id="Trazado_780199" data-name="Trazado 780199" d="M156.122,183.33a6.281,6.281,0,0,0-3.812-2.565s.006.349.006.349a4.421,4.421,0,0,0,2.276-1.511,6.873,6.873,0,0,0,.532-.725c-.218.206-.424.418-.651.607a5.429,5.429,0,0,1-2.21,1.281.177.177,0,0,0,.011.348A8.159,8.159,0,0,1,156.122,183.33Z" transform="translate(-141.415 -177.683)" fill="#79cbe8"/>
        </g>
        <path id="Trazado_780200" data-name="Trazado 780200" d="M120.651,109.72a6.027,6.027,0,0,1,2.7,2.879,16.178,16.178,0,0,1,1.135,2.481l-.8.361a24.159,24.159,0,0,1,.333,3.854c0,2.032.827,14.073.827,14.073s1.263,3.242,7.047,3.381,9.1-9.221,9.463-11.241a15.19,15.19,0,0,0-.554-5.285,67.633,67.633,0,0,1-.182-8.77c.315-2.365.473-5.939-.893-8.041s-1.944-3.153-1.944-3.153a12.655,12.655,0,0,1-8.461,1.787s-3.311.736-8.671,7.673Z" transform="translate(-77.609 -66.267)" fill="#fff"/>
        <path id="Trazado_780201" data-name="Trazado 780201" d="M102.468,119.646s-1.546-4.493-3.963-5.36c0,0-3.363,1.971-4.782,2.05s-9.2-4.017-12.314-7.17c0,0-3.889.049-3.486,3.072,0,0,7.917,6.516,10.6,7.935a23.483,23.483,0,0,0,5.36,2s3.122-.053,8.588-2.523Z" transform="translate(-55.463 -70.879)" fill="#ffccb6"/>
        <path id="Trazado_780202" data-name="Trazado 780202" d="M138.64,103.97a.155.155,0,0,0,.029.01C138.664,104,138.64,103.97,138.64,103.97Z" transform="translate(-86.927 -68.189)" fill="#ffccb6"/>
        <path id="Trazado_780203" data-name="Trazado 780203" d="M136.717,80.382c-4.4,3.119-7.993,1.875-8.344,1.74a4.2,4.2,0,0,0-.241-1.07c-.371-1.311-2.049-2.733-2.941-2.468s-4.522,1-5.36.631-1.07-2.189-1.07-2.189a4.3,4.3,0,0,0,.7-.81,11.563,11.563,0,0,0,.8-2.261A6.737,6.737,0,0,0,120.037,70s.578-2.56.844-4.136a14.365,14.365,0,0,0-.28-4.093c.376.954.983,1.832,3.051,2.83,2.666,1.292,3.254.95,3.254.95s1.885,2.164,3.987,1.62a3.746,3.746,0,0,0,3.085,2.483s2.01-1.735,2.719,0-1.417,3.938-2.131,4.57-1.576,1.234-1.731,2.078a4.571,4.571,0,0,0,2.709,4.025,1.947,1.947,0,0,0,1.171.058Z" transform="translate(-76.63 -46.331)" fill="#ffccb6"/>
        <path id="Trazado_780204" data-name="Trazado 780204" d="M150.374,126.764s4.309,2.312,4.73,4.52-.893,6.1-1.945,7.673-2.1,3.206-1.944,5.36.457,3.427.767,6.044c.308,2.6-.015,2.238-.557,2.523-.147.077.42,2.575-.42,2.89a.644.644,0,0,1-.946-.526s-.354,1.276-.932,1.171-.7-1.118-.855-2.852a52.746,52.746,0,0,0-1.279-5.851,20.151,20.151,0,0,1,.18,5.062c-.134.908-1.529,4.309-2.58,3.626,0,0-.5-.678.464-2.847a7.018,7.018,0,0,0-.351-5.772,5.135,5.135,0,0,1-.354-2.838,8.214,8.214,0,0,0-2.6,3.153c-.526,1.629-1.209,1.682-1.839,1s1.156-4.1,2.05-5.1a58.539,58.539,0,0,1,6.464-6.044,5.749,5.749,0,0,0,2.312-4.993c-.053-1.209-.368-6.2-.368-6.2Z" transform="translate(-87.519 -79.995)" fill="#f0ad89"/>
        <path id="Trazado_780205" data-name="Trazado 780205" d="M112.347,54.055c-.107-.228-.172-.386-.186-.428A2.932,2.932,0,0,1,112.347,54.055Z" transform="translate(-73.212 -42.114)" fill="#f0ad89"/>
        <path id="Trazado_780206" data-name="Trazado 780206" d="M98.46,66.246A5.883,5.883,0,0,1,98.6,71c-.758,1.8-.977,2.266-1.819,2.513a4.572,4.572,0,0,0-.81,1.349c-.368.893-.149,1.843-.54,3.076a4.468,4.468,0,0,1-2.676,2.331s-.87,3.141-4.965,2.913a10.489,10.489,0,0,1-6.524-2.7s.861-5.589-2.2-7.924c0,0-.019-.056-.061-.154a.087.087,0,0,0,.061-.084,12.511,12.511,0,0,0-.051-1.889c-.107-1-1.163-1.54-1.638-2.117a1.534,1.534,0,0,1,.679-2.3c1.1-.577,1.954,1.736,5.477,1.629s3.574-2.783,4.1-5.463,1.526-2.42,4.728-3.89c2.41-1.107,2.117-2.927,1.824-3.764a9.211,9.211,0,0,0,1.247,2.029c.731.828,2.5.777,3.225.717.116.079.219.144.312.2.926.558.279,7.831-.507,8.776Z" transform="translate(-55.049 -42.579)" fill="#f0ad89"/>
        <path id="Trazado_780207" data-name="Trazado 780207" d="M113.061,37.724a.961.961,0,0,0,.117.937c.5.816,2.4,2.232,3.254,1.441,1.148-1.067,2.844-3.439,1.789-3.811-.8-.282-1.891.86-2.372,1.429a.22.22,0,0,1-.327.015,2.983,2.983,0,0,0-.99-.6,1.383,1.383,0,0,0-1.472.586Z" transform="translate(-73.639 -33.112)" fill="#eb65a2"/>
        <path id="Trazado_780208" data-name="Trazado 780208" d="M185.191,83.242a.439.439,0,0,1-.615.016c-.743-.688-2.348-2.4-1.777-3.916.735-1.948,2.132,0,2.132,0a2.211,2.211,0,0,1,3.05-.866c1.911.828-1.745,3.695-2.79,4.766Z" transform="translate(-109.736 -54.844)" fill="#eb65a2"/>
        <path id="Trazado_780209" data-name="Trazado 780209" d="M35.805,120.34a.586.586,0,0,0,.583-.555c.058-1.071.041-3.408-1.136-4.126-1.544-.942-1.469,1.818-1.469,1.818s-2.185-.311-2.411,1.309c-.2,1.41,2.944,1.564,4.433,1.555Z" transform="translate(-31.364 -74.141)" fill="#eb65a2"/>
        <path id="Trazado_780210" data-name="Trazado 780210" d="M84.843,128.146a2.475,2.475,0,0,1-1.739.3c-2.656-.4-4.5-2.7-5.627-4.965,0,0-1.025-2.838.394-1.971s2.286,1.5,2.286,1.5-2.246-3.636-1.655-4.257,3.956,3,3.956,3-1.415-3.035-.884-3.469c.89-.727,1.893.826,2.309,1.427a11.645,11.645,0,0,1,2.123,5.306,3.263,3.263,0,0,1-1.163,3.138Z" transform="translate(-55.062 -75.499)" fill="#fff"/>
        <path id="Trazado_780211" data-name="Trazado 780211" d="M72.527,135.628a1.658,1.658,0,0,1-.894,1.123,6.547,6.547,0,0,1-6.506-1.359c-3.517-2.983-2.921-3.895-2.921-3.895s1.176-.375,3.837,1.827c0,0-2.9-3.445-2.545-4.41s3.943,2.164,3.943,2.164-1.636-3.421-1.416-3.846c.425-.821,3.722,1.759,5.172,4.146,1.21,1.992,1.49,3.147,1.33,4.249Z" transform="translate(-47.319 -80.157)" fill="#fff"/>
        <path id="Trazado_780212" data-name="Trazado 780212" d="M62.428,147.712A2.475,2.475,0,0,1,61.1,148.87c-2.477,1.037-5.244.032-7.388-1.312,0,0-2.352-1.89-.689-1.888s2.732.09,2.732.09-3.81-1.937-3.628-2.774,4.937.5,4.937.5-2.787-1.856-2.559-2.5c.382-1.083,2.047-.279,2.715.017a11.644,11.644,0,0,1,4.573,3.427,3.263,3.263,0,0,1,.639,3.285Z" transform="translate(-42.113 -87.074)" fill="#fff"/>
        <path id="Trazado_780213" data-name="Trazado 780213" d="M93.142,138.956a63.316,63.316,0,0,1,13.13,20.006A102.064,102.064,0,0,0,93.142,138.956Z" transform="translate(-63.361 -86.309)" fill="#3a3780"/>
        <path id="Trazado_780214" data-name="Trazado 780214" d="M129.354,160.268c-.253-4.21,2.247-8.152,5.392-10.772,2.325-1.96,4.636-4.112,5.958-6.888a7,7,0,0,0,.711-2.956,6.7,6.7,0,0,1-.494,3.048c-1.2,2.907-3.533,5.156-5.868,7.166-3.122,2.555-5.561,6.28-5.7,10.4Z" transform="translate(-82.108 -86.67)" fill="#3a3780"/>
        <path id="Trazado_780215" data-name="Trazado 780215" d="M83.022,145.3a63.316,63.316,0,0,1,17.109,16.73A102.062,102.062,0,0,0,83.022,145.3Z" transform="translate(-58.12 -89.593)" fill="#3a3780"/>
        <path id="Trazado_780216" data-name="Trazado 780216" d="M74.006,154.525a63.317,63.317,0,0,1,20.822,11.792A102.064,102.064,0,0,0,74.006,154.525Z" transform="translate(-53.45 -94.373)" fill="#3a3780"/>
        <path id="Trazado_780217" data-name="Trazado 780217" d="M127.09,147.015s-10.958,9.1-2.286,18.959a14.714,14.714,0,0,0,5.491-8.75c1.011-4.938-3.205-10.209-3.205-10.209Z" transform="translate(-78.031 -90.483)" fill="#5180b3"/>
        <path id="Trazado_780218" data-name="Trazado 780218" d="M70.272,156.551c2.044-.818,3.246-.49,4.016,1.066a16.37,16.37,0,0,1,1.147,3.246,2.847,2.847,0,0,0,.817-1.057c.364-2.181.669-5.612,1.649-5.356s1,1.375.805,2.834-.637,5.827-.637,5.827a13.442,13.442,0,0,0,1.949-2.773s1.369-5.271,2.88-4.837c1.174.337-.315,3.569-.315,3.569.762-2.115,1.366-1.472,1.366-1.472,1.143.749-.368,3.311-.368,3.311,1.457-.437.834,1.209.834,1.209a15.814,15.814,0,0,1-1.92,4.458,12.6,12.6,0,0,1-4.3,4.586,11.27,11.27,0,0,1-8.829,1.257c-.946-.473-2.195-3.626-3.412-6.646-1.718-4.262-2.973-7.307-2.973-7.307Z" transform="translate(-47.739 -94.327)" fill="#f0ad89"/>
        <g id="Grupo_1046799" data-name="Grupo 1046799" transform="translate(35.264 53.91)">
          <path id="Trazado_780219" data-name="Trazado 780219" d="M117.031,159.706c.034,3.811.968,7.881,3.7,10.68a4.587,4.587,0,0,0,.595.58q.317.27.629.556a9.1,9.1,0,0,1-2.577-2.177,12.492,12.492,0,0,1-2.344-9.639Z" transform="translate(-110.917 -150.967)" fill="#3a3780"/>
          <path id="Trazado_780220" data-name="Trazado 780220" d="M122.079,149.778a4.694,4.694,0,0,1-3.745,4.678,7.191,7.191,0,0,1-.906.108c.28-.127.564-.212.834-.333A6.444,6.444,0,0,0,122.079,149.778Z" transform="translate(-111.204 -145.825)" fill="#3a3780"/>
          <path id="Trazado_780221" data-name="Trazado 780221" d="M112.631,154.073a4.694,4.694,0,0,1-4.143-4.33,7.189,7.189,0,0,1,.013-.912c.089.294.136.587.22.871A6.444,6.444,0,0,0,112.631,154.073Z" transform="translate(-106.568 -145.334)" fill="#3a3780"/>
          <path id="Trazado_780222" data-name="Trazado 780222" d="M115.459,152.987c-1.824-1.292-2-3.989-1.39-5.972C114.158,149.078,114.191,151.253,115.459,152.987Z" transform="translate(-109.299 -144.393)" fill="#3a3780"/>
          <path id="Trazado_780223" data-name="Trazado 780223" d="M118.924,147.3c.258,2.006-.078,4.4-1.623,5.832A21.367,21.367,0,0,0,118.924,147.3Z" transform="translate(-111.138 -144.544)" fill="#3a3780"/>
          <circle id="Elipse_5722" data-name="Elipse 5722" cx="1.518" cy="1.518" r="1.518" transform="translate(0 1.142)" fill="#3a3780"/>
          <circle id="Elipse_5723" data-name="Elipse 5723" cx="1.518" cy="1.518" r="1.518" transform="translate(3.189)" fill="#3a3780"/>
          <circle id="Elipse_5724" data-name="Elipse 5724" cx="1.518" cy="1.518" r="1.518" transform="translate(6.42)" fill="#3a3780"/>
          <circle id="Elipse_5725" data-name="Elipse 5725" cx="1.518" cy="1.518" r="1.518" transform="translate(9.629 1.104)" fill="#3a3780"/>
        </g>
        <g id="Grupo_1046800" data-name="Grupo 1046800" transform="translate(50.807 57.863)">
          <path id="Trazado_780224" data-name="Trazado 780224" d="M138.333,155.654c-.1.208-2.387-2.212-1.263-5.1a1.1,1.1,0,0,1,1.838-.427C139.408,150.846,139.747,152.746,138.333,155.654Z" transform="translate(-136.759 -149.778)" fill="#3a3780"/>
          <path id="Trazado_780225" data-name="Trazado 780225" d="M139.838,160.107c-.208-.1,2.212-2.387,5.1-1.263a1.1,1.1,0,0,1,.427,1.838c-.723.5-2.623.84-5.53-.575Z" transform="translate(-138.347 -154.313)" fill="#3a3780"/>
        </g>
        <g id="Grupo_1046801" data-name="Grupo 1046801" transform="translate(54.285 56.234)">
          <path id="Trazado_780226" data-name="Trazado 780226" d="M145.379,150.822a3.425,3.425,0,0,1-1.259-3.772.831.831,0,0,1,1.36-.432C145.9,147.133,146.271,148.545,145.379,150.822Z" transform="translate(-143.974 -146.399)" fill="#3a3780"/>
          <path id="Trazado_780227" data-name="Trazado 780227" d="M146.737,153.946a3.425,3.425,0,0,1,3.772-1.259.831.831,0,0,1,.432,1.36C150.427,154.469,149.015,154.838,146.737,153.946Z" transform="translate(-145.4 -149.58)" fill="#3a3780"/>
        </g>
        <g id="Grupo_1046802" data-name="Grupo 1046802" transform="translate(56.547 54.416)">
          <path id="Trazado_780228" data-name="Trazado 780228" d="M150.293,145.5a2.381,2.381,0,0,1-1.625-2.237.578.578,0,0,1,.811-.571C149.866,142.944,150.407,143.8,150.293,145.5Z" transform="translate(-148.668 -142.626)" fill="#3a3780"/>
          <path id="Trazado_780229" data-name="Trazado 780229" d="M151.908,146.789a2.381,2.381,0,0,1,2.237-1.625.578.578,0,0,1,.571.811C154.463,146.362,153.6,146.9,151.908,146.789Z" transform="translate(-150.339 -143.941)" fill="#3a3780"/>
        </g>
        <path id="Trazado_780230" data-name="Trazado 780230" d="M153.716,139.039a2.381,2.381,0,0,1-.308-2.748.578.578,0,0,1,.988-.1C154.608,136.606,154.654,137.62,153.716,139.039Z" transform="translate(-94.423 -84.757)" fill="#3a3780"/>
        <g id="Grupo_1046803" data-name="Grupo 1046803" transform="translate(22.602 62.967)">
          <path id="Trazado_780231" data-name="Trazado 780231" d="M83.676,171.356c.255-.045-.439,3.608-3.791,4.483a1.227,1.227,0,0,1-1.589-1.384c.326-.926,1.823-2.477,5.38-3.1Z" transform="translate(-78.25 -166.058)" fill="#3a3780"/>
          <path id="Trazado_780232" data-name="Trazado 780232" d="M84.6,165.793c.045.255-3.608-.439-4.483-3.791a1.227,1.227,0,0,1,1.384-1.589C82.425,160.738,83.975,162.235,84.6,165.793Z" transform="translate(-79.191 -160.366)" fill="#3a3780"/>
        </g>
        <g id="Grupo_1046804" data-name="Grupo 1046804" transform="translate(17.786 65.032)">
          <path id="Trazado_780233" data-name="Trazado 780233" d="M73.217,170.514a3.516,3.516,0,0,1-1.574,3.766A.853.853,0,0,1,70.3,173.7C70.322,173.014,70.99,171.672,73.217,170.514Z" transform="translate(-69.316 -167.686)" fill="#3a3780"/>
          <path id="Trazado_780234" data-name="Trazado 780234" d="M72.173,167.567a3.516,3.516,0,0,1-3.766-1.574.853.853,0,0,1,.584-1.343C69.674,164.672,71.015,165.339,72.173,167.567Z" transform="translate(-68.259 -164.649)" fill="#3a3780"/>
        </g>
        <path id="Trazado_780235" data-name="Trazado 780235" d="M62.4,171.814a3.516,3.516,0,0,1-3.307,2.392.853.853,0,0,1-.841-1.2C58.623,172.436,59.892,171.64,62.4,171.814Z" transform="translate(-45.239 -103.315)" fill="#3a3780"/>
        <path id="Trazado_780236" data-name="Trazado 780236" d="M144.9,55.381c-1.258-2.839-3.345-4.006-8.426-6.556-4.58-2.295-5.761-2.589-9.39-1.567s-5.471,4.782-5.062,6.021c.077.231.154.458.236.675a.015.015,0,0,1,0,.01c.376.954.983,1.832,3.051,2.83,2.666,1.292,3.254.95,3.254.95s1.885,2.164,3.987,1.62a3.746,3.746,0,0,0,3.085,2.483s2.01-1.735,2.719,0-1.417,3.938-2.131,4.57-1.576,1.234-1.731,2.078a4.571,4.571,0,0,0,2.709,4.025,1.947,1.947,0,0,0,1.171.058,2.44,2.44,0,0,0,1.441-1.437s-.786-1.253,2.131-4.96,4.213-7.964,2.95-10.8Z" transform="translate(-78.289 -38.525)" fill="#bf9280"/>
        <path id="Trazado_780237" data-name="Trazado 780237" d="M108.285,79.037c-1.265-.161-2.357.635-3.442,1.181.68-.848,2.5-2.317,3.495-1.236a.04.04,0,0,1-.052.055Z" transform="translate(-69.422 -55.048)" fill="#3a3780"/>
        <path id="Trazado_780238" data-name="Trazado 780238" d="M118.3,78.154c.268-.515,1.317-.965,1.648-.339a3.477,3.477,0,0,0-1.629.36A.015.015,0,0,1,118.3,78.154Z" transform="translate(-76.393 -54.484)" fill="#3a3780"/>
        <path id="Trazado_780239" data-name="Trazado 780239" d="M108.176,83.109a2.429,2.429,0,0,1-3.406.632.046.046,0,0,1,.041-.083,3.208,3.208,0,0,0,3.282-.615A.054.054,0,0,1,108.176,83.109Z" transform="translate(-69.373 -57.342)" fill="#3a3780"/>
        <path id="Trazado_780240" data-name="Trazado 780240" d="M120.349,80.7a1.415,1.415,0,0,1-2.016.748.047.047,0,0,1,.022-.089,2.275,2.275,0,0,0,1.9-.71.055.055,0,0,1,.094.05Z" transform="translate(-76.396 -56.101)" fill="#3a3780"/>
        <path id="Trazado_780241" data-name="Trazado 780241" d="M114.518,83.936a10.362,10.362,0,0,0,.6,2.38,3.02,3.02,0,0,1,.554,1.611,1.261,1.261,0,0,1-1.433.9,1.772,1.772,0,0,1-.8-.385l.116.013a3.136,3.136,0,0,1-.883.27c-.246.033-.819.107-.922-.161a.031.031,0,0,1,.041,0,.689.689,0,0,0,.411.061,5.993,5.993,0,0,0,1.267-.38.12.12,0,0,1,.112.018,1.125,1.125,0,0,0,1.84-.372c.044-.8-.683-1.478-.791-2.282a6.716,6.716,0,0,1-.183-1.667A.036.036,0,0,1,114.518,83.936Z" transform="translate(-73 -57.797)" fill="#282e68"/>
        <path id="Trazado_780242" data-name="Trazado 780242" d="M108.114,96.612s.468,2.01,2.009,2.168,1.914-2.115,1.914-2.115A4.561,4.561,0,0,1,108.114,96.612Z" transform="translate(-71.116 -64.378)" fill="#fff"/>
        <g id="Grupo_1046807" data-name="Grupo 1046807" transform="translate(56.138 22.476)">
          <g id="Grupo_1046805" data-name="Grupo 1046805">
            <path id="Trazado_780243" data-name="Trazado 780243" d="M148.69,77.987c-.028.208-.055.428-.086.646a5.09,5.09,0,0,1-.141.662c-.024.087-.052.174-.074.262a9.364,9.364,0,0,1-.358,1.067c-.059.151-.118.3-.175.453a.693.693,0,0,0,0,.449.948.948,0,0,0,.756.7.976.976,0,0,0,.995-.43c.042-.067.072-.139.112-.206a.916.916,0,0,1,.378-.339,4.525,4.525,0,0,0,.479-.3,3.97,3.97,0,0,0,1.041-1.081,3.453,3.453,0,0,0,.458-.992,2.272,2.272,0,0,0,.005-1.349,1.585,1.585,0,0,0-.919-.986,1.709,1.709,0,0,0-.731-.175,1.477,1.477,0,0,0-.688.188,2.09,2.09,0,0,0-.716.655A2.207,2.207,0,0,0,148.69,77.987Z" transform="translate(-147.819 -76.37)" fill="#ffe3d9"/>
          </g>
          <g id="Grupo_1046806" data-name="Grupo 1046806" transform="translate(0.649 0.657)">
            <path id="Trazado_780244" data-name="Trazado 780244" d="M149.175,81.265c.015-.02.045-.02.071-.021a.5.5,0,0,0,.391-.312,2.64,2.64,0,0,0,.07-1.341,2.113,2.113,0,0,1,.326-1.263,1.237,1.237,0,0,1,1.785-.351,1.412,1.412,0,0,1,.42,1.557,2.5,2.5,0,0,1-.331.718c-.377.564-1.1.826-1.454,1.393a.7.7,0,0,1-1.286-.332A.079.079,0,0,1,149.175,81.265Z" transform="translate(-149.165 -77.733)" fill="#ffccb6"/>
          </g>
          <path id="Trazado_780245" data-name="Trazado 780245" d="M149.175,83.054c.015-.02.045-.02.071-.021a.5.5,0,0,0,.391-.312,2.641,2.641,0,0,0,.07-1.341c0-.06,0-.122.005-.184.034.068.077.131.107.2.117.29.135.609.246.9a1.045,1.045,0,0,1,0,.956c-.07.149-.877.284-.9-.153A.079.079,0,0,1,149.175,83.054Z" transform="translate(-148.516 -78.87)" fill="#f0ad89"/>
        </g>
        <path id="Trazado_780246" data-name="Trazado 780246" d="M158.989,172.111s.917,4.77,1,6.409a2.5,2.5,0,0,1,.04.484S160.045,174.138,158.989,172.111Z" transform="translate(-97.466 -103.482)" fill="#bf9280"/>
        <path id="Trazado_780247" data-name="Trazado 780247" d="M161.6,170.678s1.05,4.761,1.126,6.4c.011.234.081.4.042.484,0,0,.087-4.871-1.168-6.885Z" transform="translate(-98.817 -102.74)" fill="#bf9280"/>
        <path id="Trazado_780248" data-name="Trazado 780248" d="M101.773,161.035s-1.7,4.547-2.486,5.99a2.542,2.542,0,0,1-.217.434s2.539-4.151,2.7-6.424Z" transform="translate(-66.432 -97.745)" fill="#bf9280"/>
        <path id="Trazado_780249" data-name="Trazado 780249" d="M104.416,163.365s-1.7,4.547-2.486,5.99a2.541,2.541,0,0,1-.217.434s2.539-4.151,2.7-6.424Z" transform="translate(-67.8 -98.952)" fill="#bf9280"/>
        <path id="Trazado_780250" data-name="Trazado 780250" d="M112.161,53.627a2.931,2.931,0,0,1,.186.428C112.24,53.827,112.175,53.669,112.161,53.627Z" transform="translate(-73.212 -42.114)" fill="#282e68"/>
        <path id="Trazado_780251" data-name="Trazado 780251" d="M80.621,41.011c-2.154-2.6-5.2-4.495-10.251-4.756s-7.557,1.94-7.557,1.94a9.181,9.181,0,0,0-6.156-4.621c-2.522-.423-9.567.47-9.935,9.4s8.985,8.916,8.985,8.916c.051,7.948,6.854,10,7.561,9.614a.087.087,0,0,0,.06-.084,12.512,12.512,0,0,0-.051-1.889c-.107-1-1.163-1.54-1.638-2.117a1.534,1.534,0,0,1,.679-2.3c1.1-.577,1.954,1.736,5.477,1.629s3.574-2.783,4.1-5.463,1.526-2.42,4.728-3.89c2.41-1.107,2.117-2.927,1.824-3.764A9.211,9.211,0,0,0,79.7,45.659c.731.828,2.5.777,3.225.717.2-.019.312-.033.312-.033a19.42,19.42,0,0,0-2.61-5.333ZM78.262,43.2a2.932,2.932,0,0,1,.186.428C78.341,43.4,78.276,43.24,78.262,43.2Z" transform="translate(-39.313 -31.685)" fill="#3a3780"/>
        <path id="Trazado_780252" data-name="Trazado 780252" d="M99.038,104.415a7.1,7.1,0,0,0,5.085,1.7,4.191,4.191,0,0,0,1.977-1.237s-2.853,2.376-7.061-.462Z" transform="translate(-66.415 -68.419)" fill="#eb65a2"/>
        <g id="Grupo_1046810" data-name="Grupo 1046810" transform="translate(21.803 23.103)">
          <g id="Grupo_1046808" data-name="Grupo 1046808">
            <path id="Trazado_780253" data-name="Trazado 780253" d="M79.754,79.064c.034.188.068.385.1.582a4.619,4.619,0,0,0,.155.595c.026.078.054.156.078.235a8.5,8.5,0,0,0,.369.953c.06.134.12.268.178.4a.629.629,0,0,1,.017.408.86.86,0,0,1-.657.668.886.886,0,0,1-.92-.348c-.041-.059-.071-.123-.11-.182a.832.832,0,0,0-.357-.292,4.106,4.106,0,0,1-.447-.253,3.6,3.6,0,0,1-.989-.937,3.134,3.134,0,0,1-.456-.881,2.062,2.062,0,0,1-.061-1.223,1.439,1.439,0,0,1,.792-.932,1.551,1.551,0,0,1,.656-.189,1.341,1.341,0,0,1,.632.141,1.9,1.9,0,0,1,.676.564,2,2,0,0,1,.339.688Z" transform="translate(-76.592 -77.67)" fill="#ffccb6"/>
          </g>
          <g id="Grupo_1046809" data-name="Grupo 1046809" transform="translate(0.526 0.594)">
            <path id="Trazado_780254" data-name="Trazado 780254" d="M80.619,82.025c-.015-.018-.042-.016-.065-.016a.449.449,0,0,1-.367-.267,2.4,2.4,0,0,1-.119-1.213A1.918,1.918,0,0,0,79.72,79.4a1.123,1.123,0,0,0-1.633-.244,1.282,1.282,0,0,0-.316,1.429,2.267,2.267,0,0,0,.33.637c.365.5,1.03.7,1.376,1.2a.638.638,0,0,0,1.152-.355.072.072,0,0,0-.01-.043Z" transform="translate(-77.684 -78.902)" fill="#f0ad89"/>
          </g>
          <path id="Trazado_780255" data-name="Trazado 780255" d="M82.78,83.586c-.015-.018-.042-.016-.065-.016a.449.449,0,0,1-.367-.267,2.4,2.4,0,0,1-.119-1.213c0-.055-.008-.111-.012-.167-.028.063-.065.122-.089.186-.094.268-.1.558-.185.828a.949.949,0,0,0,.041.867c.07.132.807.221.808-.176a.072.072,0,0,0-.011-.043Z" transform="translate(-79.318 -79.873)" fill="#bf9280"/>
        </g>
        <path id="Trazado_780256" data-name="Trazado 780256" d="M89.126,165.575s.076,5.229-1.29,6.779a8.387,8.387,0,0,0,.473-5.722Z" transform="translate(-60.613 -100.096)" fill="#bf9280"/>
        <path id="Trazado_780257" data-name="Trazado 780257" d="M77.387,170.971a.271.271,0,0,1,.01-.137,31.479,31.479,0,0,0-7.132-.332,20.7,20.7,0,0,0-3.524.665,29.793,29.793,0,0,1,10.691.082C77.418,171.156,77.4,171.063,77.387,170.971Z" transform="translate(-49.687 -102.61)" fill="#3a3780"/>
        <path id="Trazado_780258" data-name="Trazado 780258" d="M110.472,181.151s-1.734,4.415-8.435,5.045-9.3,2.05-9.3,2.05,1-8.12,3.626-10.09c2.16-1.62,6.683-2.441,11.2.516a15.847,15.847,0,0,1,2.908,2.479Z" transform="translate(-63.15 -105.856)" fill="#3a3780"/>
        <g id="Grupo_1046811" data-name="Grupo 1046811" transform="translate(45.476 57.866)">
          <path id="Trazado_780259" data-name="Trazado 780259" d="M129.938,149.783c1.282,5.567,1.331,11.859-1.48,16.978.244-.684.561-1.33.737-2.031C130.681,159.911,130.541,154.743,129.938,149.783Z" transform="translate(-127.13 -149.783)" fill="#3a3780"/>
          <path id="Trazado_780260" data-name="Trazado 780260" d="M125.7,169.7a10.317,10.317,0,0,1,2.483,5.029l-.4-.088a9.765,9.765,0,0,1,1.451-2.008,5.234,5.234,0,0,1,2.018-1.393,5.812,5.812,0,0,0-.963.727,11.684,11.684,0,0,0-2.124,2.87.215.215,0,0,1-.291.089.22.22,0,0,1-.113-.176A16.019,16.019,0,0,0,125.7,169.7Z" transform="translate(-125.702 -160.098)" fill="#3a3780"/>
          <path id="Trazado_780261" data-name="Trazado 780261" d="M127.437,161.732a10.74,10.74,0,0,1,2.5,5.105l-.412-.077a7.836,7.836,0,0,1,2.225-2.873,4.244,4.244,0,0,1,1.068-.568,5.337,5.337,0,0,0-.936.724,10.25,10.25,0,0,0-1.964,2.89.217.217,0,0,1-.412-.077,16.392,16.392,0,0,0-2.071-5.125Z" transform="translate(-126.601 -155.972)" fill="#3a3780"/>
          <path id="Trazado_780262" data-name="Trazado 780262" d="M128.947,154.494a6.442,6.442,0,0,1,2.108,3.96l-.428-.024a4.536,4.536,0,0,1,2.1-2.666,8.655,8.655,0,0,0-1.42,2.009,3.412,3.412,0,0,0-.26.726.217.217,0,0,1-.428-.024A9.343,9.343,0,0,0,128.947,154.494Z" transform="translate(-127.383 -152.223)" fill="#3a3780"/>
        </g>
        <g id="Grupo_1046812" data-name="Grupo 1046812" transform="translate(30.919 73.026)">
          <path id="Trazado_780263" data-name="Trazado 780263" d="M95.5,189.255c4.174-2.808,9.462-4.684,14.507-3.6a17.473,17.473,0,0,0-1.9-.132c-4.448-.059-8.761,1.6-12.607,3.728Z" transform="translate(-95.503 -183.363)" fill="#79cbe8"/>
          <path id="Trazado_780264" data-name="Trazado 780264" d="M113.221,186.969c.188-.374.41-.73.633-1.085s.477-.691.736-1.022a8.2,8.2,0,0,1,.853-.939,3.886,3.886,0,0,1,1.064-.742l.03.293a8.943,8.943,0,0,1-2.2-.8,7.478,7.478,0,0,1-.989-.624,4.889,4.889,0,0,1-.823-.822,6.015,6.015,0,0,0,.907.7,7.99,7.99,0,0,0,1.006.536c.35.149.7.288,1.065.4a10.459,10.459,0,0,0,1.094.3.154.154,0,0,1,.121.182.157.157,0,0,1-.09.111,3.8,3.8,0,0,0-.984.678,10.243,10.243,0,0,0-.866.877q-.416.46-.8.956c-.263.323-.51.659-.759.994Z" transform="translate(-104.319 -181.232)" fill="#79cbe8"/>
          <path id="Trazado_780265" data-name="Trazado 780265" d="M106.15,187.818a9.127,9.127,0,0,1,3.343-3.828l.04.294a7.851,7.851,0,0,1-1.122-.259,5.672,5.672,0,0,1-2.86-1.8,5.427,5.427,0,0,0,.892.678,8.748,8.748,0,0,0,3.129,1.079.155.155,0,0,1,.04.294c-1.469.776-2.447,2.266-3.462,3.544Z" transform="translate(-100.707 -181.745)" fill="#79cbe8"/>
          <path id="Trazado_780266" data-name="Trazado 780266" d="M99.981,190.249a5.494,5.494,0,0,1,2.539-3.115l.084.294a3.867,3.867,0,0,1-2.289-.686,6.009,6.009,0,0,1-.63-.472c.235.117.461.242.7.343a4.749,4.749,0,0,0,2.175.511.155.155,0,0,1,.08.294A7.137,7.137,0,0,0,99.981,190.249Z" transform="translate(-97.669 -183.842)" fill="#79cbe8"/>
        </g>
        <path id="Trazado_780267" data-name="Trazado 780267" d="M72.541,43.446A52.318,52.318,0,0,0,68.173,49.9c-1.477,3.015-3.11,8.678-2.829,7.145a29.021,29.021,0,0,1,1.787-6.627,20.41,20.41,0,0,1,5.411-6.976Z" transform="translate(-48.947 -36.841)" fill="#eb65a2"/>
        <g id="Grupo_1046813" data-name="Grupo 1046813" transform="translate(44.432 21.353)">
          <path id="Trazado_780268" data-name="Trazado 780268" d="M125.909,75.244a1.783,1.783,0,0,1-2.37-1.143.047.047,0,0,1,.082-.043,2.6,2.6,0,0,0,2.259,1.083A.054.054,0,0,1,125.909,75.244Z" transform="translate(-123.536 -74.039)" fill="#3a3780"/>
          <circle id="Elipse_5726" data-name="Elipse 5726" cx="0.559" cy="0.559" r="0.559" transform="translate(0.559 0.965)" fill="#3a3780"/>
          <circle id="Elipse_5727" data-name="Elipse 5727" cx="0.193" cy="0.193" r="0.193" transform="translate(0.598 1.372)" fill="#fff"/>
        </g>
        <path id="Trazado_780269" data-name="Trazado 780269" d="M123.633,71.017a1.624,1.624,0,0,1,2.344,1.232A4.182,4.182,0,0,0,123.633,71.017Z" transform="translate(-79.154 -51.02)" fill="#bf9280"/>
        <g id="Grupo_1046814" data-name="Grupo 1046814" transform="translate(29.51 60.332)">
          <path id="Trazado_780270" data-name="Trazado 780270" d="M92.754,155.235c-.123.218-.264.808-.1,1s.893.5,1.111.136a1.244,1.244,0,0,0-.239-1.375C93.184,154.737,92.854,155.059,92.754,155.235Z" transform="translate(-92.58 -154.898)" fill="#fff"/>
          <path id="Trazado_780271" data-name="Trazado 780271" d="M102.486,157.316c-.183.172-.541.692-.441.923s.75.747,1.068.461a1.244,1.244,0,0,0,.182-1.384c-.251-.347-.662-.138-.809,0Z" transform="translate(-97.473 -156.052)" fill="#fff"/>
          <path id="Trazado_780272" data-name="Trazado 780272" d="M104.948,161.574c-.139.152-.406.6-.317.786s.626.576.869.322a1.064,1.064,0,0,0,.093-1.153C105.38,161.256,105.061,161.451,104.948,161.574Z" transform="translate(-98.813 -158.261)" fill="#fff"/>
          <path id="Trazado_780273" data-name="Trazado 780273" d="M106.269,168.4c-.087.1-.256.407-.205.53s.373.374.524.2a.774.774,0,0,0,.075-.771C106.537,168.182,106.34,168.317,106.269,168.4Z" transform="translate(-99.559 -161.825)" fill="#fff"/>
          <path id="Trazado_780274" data-name="Trazado 780274" d="M140.491,170.286s-.454.889-.127,1.2.78.459,1.125-.206S141.206,170.28,140.491,170.286Z" transform="translate(-117.268 -162.868)" fill="#fff"/>
          <path id="Trazado_780275" data-name="Trazado 780275" d="M149.908,185.789s-.24.562.193.775.839-.775.839-.775-.562-.47-.857-.381Z" transform="translate(-122.238 -170.695)" fill="#fff"/>
          <path id="Trazado_780276" data-name="Trazado 780276" d="M158.374,185.072s.01,1.045.436,1.1.617-.918.617-1.155S158.374,184.581,158.374,185.072Z" transform="translate(-126.657 -170.369)" fill="#fff"/>
          <path id="Trazado_780277" data-name="Trazado 780277" d="M161.586,184.319s-.119.907.48.9.527-1.089.527-1.089-.128-.278-.582-.224S161.586,184.319,161.586,184.319Z" transform="translate(-128.316 -169.919)" fill="#fff"/>
          <path id="Trazado_780278" data-name="Trazado 780278" d="M163.852,178.35s.014.751.324.714.183-.922.183-.922a.262.262,0,0,0-.32-.153C163.808,178.058,163.852,178.35,163.852,178.35Z" transform="translate(-129.493 -166.851)" fill="#fff"/>
        </g>
      </g>
    </g>
  </g>
</svg>
